<svg width="950" height="640" viewBox="0 0 950 640" fill="none" xmlns="http://www.w3.org/2000/svg">
<path d="M950 535.502C947.885 535.424 945.769 535.347 943.654 535.269C944.133 535.071 944.596 534.844 945.021 534.547C947.131 531.83 947.216 529.119 944.849 526.417C944.185 526.021 943.555 525.768 942.949 525.609C943.19 525.35 943.259 525.073 943.141 524.778C943.401 521.446 942.039 518.018 945.29 514.864C942.274 514.153 943.257 512.812 943.411 511.601C940.2 510.391 941.074 508.574 940.769 506.933C941.444 506.681 942.085 506.299 942.679 505.739C944.359 501.544 942.833 497.538 939.973 493.609C939.501 493.282 938.966 493.024 938.389 492.811C938.435 488.899 938.48 484.987 938.525 481.076C939.209 480.728 939.815 480.326 940.31 479.846C941.803 478.047 941.793 476.238 940.371 474.419C939.824 473.846 939.152 473.317 938.37 472.859C938.329 470.11 938.288 467.361 938.247 464.611C937.88 464.405 937.582 464.192 937.329 463.975C938.114 463.977 939.094 463.928 940.379 463.86C943.399 460.23 942.41 456.478 941.455 452.731C938.64 448.476 939.676 444.061 939.55 439.703C939.515 438.466 939.282 437.274 938.683 436.177C938.754 434.108 938.827 432.039 938.897 429.97C940.011 414.498 941.596 399.025 942.555 383.563C944.218 356.744 949.359 329.977 947.585 303.101C949.141 276.739 946.654 250.409 945.242 224.07L945.232 219.289C945.272 215.303 945.312 211.317 945.352 207.331C944.636 207.029 943.905 206.951 943.16 207.106C943.183 203.395 943.53 199.674 943.136 195.974C942.506 190.076 944.628 184.085 941.976 178.252C941.789 177.544 941.448 176.842 940.813 176.154C940.773 153.819 940.733 131.485 940.695 109.151C940.927 102.237 939.534 95.4162 936.38 88.6944C936.356 79.5975 936.333 70.5007 936.309 61.4039C939.635 57.3367 939.626 53.2716 936.279 49.2059C936.657 44.3929 936.395 39.61 933.821 34.9359C933.262 32.7577 932.328 30.6517 929.583 28.8919C927.204 27.0285 926.426 24.8618 925.237 22.7524C924.233 20.9728 921.217 18.9268 920.603 17.2577C919.969 15.5337 921.634 14.9707 919.848 13.1651C918.22 11.5197 914.49 10.0977 911.445 9.2529C907.495 8.15702 903.052 7.66635 898.675 7.18804C889.23 6.15585 880.123 4.44943 870.607 3.85604C859.937 3.19065 849.176 3.09184 838.462 2.71824C819.511 2.05733 800.51 2.9469 781.515 3.67494C754.531 4.70921 655.819 2.37245 628.921 1.58849C600.401 0.75725 356.038 1.41178 327.43 1.36581C323.267 1.35914 319.002 1.31273 314.962 0.855727C305.106 -0.258707 295.112 -0.183948 285.385 0.504339C256.465 2.55094 227.392 3.85566 198.485 6.03575C156.84 9.1765 115.448 11.6629 76.3462 21.2225C54.3988 26.5881 39.4482 34.4683 27.3041 44.5547C26.5892 44.6051 25.8564 44.6741 25.088 44.7812C19.9644 46.2254 18.4412 48.5271 19.3443 51.4067C19.7147 51.8134 20.0399 52.1938 20.3743 52.5797C14.3181 58.8143 12.1692 65.501 12.1394 72.4328C11.5141 72.7718 10.9041 73.1059 10.2288 73.4614C9.16467 74.6644 8.657 75.9287 8.82726 77.2602C9.33403 79.2199 9.45338 81.2448 9.87948 83.2175C8.88729 88.4824 9.1756 93.9248 6.60508 98.9692C-4.56634 120.892 1.76579 143.172 1.97944 165.225C2.09839 177.49 6.60378 189.997 8.86845 202.331C11.5313 216.836 12.5672 231.519 14.5946 246.119C14.2343 246.286 13.8938 246.464 13.5137 246.621C11.5654 249.055 11.3688 251.431 14.3388 253.717C15.3981 253.96 16.1989 254.206 16.8049 254.453C16.8049 255.534 16.8049 256.614 16.8058 257.695C15.661 258.562 14.3423 259.43 14.5946 260.281C14.7671 268.862 10.1709 277.52 15.8983 286.043C16.7698 286.627 17.855 286.677 18.9968 286.629C19.0517 287.506 19.1056 288.383 19.16 289.261C17.64 289.95 16.2735 290.687 16.0299 291.851C14.0807 298.795 14.4173 305.896 16.5982 312.659C18.4935 318.537 13.7046 326.926 18.9968 332.53C19.9656 332.812 10.1433 337.365 11.2584 337.441C11.3242 339.779 11.915 339.209 11.9794 341.549C11.9163 356.356 17.3014 371.015 16.3935 385.845C19.2427 392.693 18.3853 399.648 18.7487 406.575C18.9106 409.659 16.8152 412.955 20.9041 415.79C21.2942 444.246 19.7241 472.719 23.3974 501.149C23.6011 502.726 21.0194 510.005 23.4018 511.295C23.3219 511.654 23.3202 512.016 23.3974 512.378C22.8384 521.643 25.0637 523.586 23.3974 532.899C23.5182 537.667 22.095 543.268 23.3974 547.915C27.3863 562.149 19.3433 581.901 27.0516 595.826C26.5285 596.242 25.9901 596.656 25.3981 597.07C22.9881 600.202 24.0729 603.127 27.3605 605.921C29.1184 607.161 30.8758 608.401 32.6333 609.641C31.3226 611.149 35.8174 612.772 32.3007 614.236C37.8715 623.894 61.2044 626.523 80.4926 628.674C81.7924 630.258 84.0553 631.064 87.3874 631.005C105.141 630.572 121.467 634.334 138.588 635.758C139.331 635.819 140.108 635.758 140.865 635.781C167.483 636.62 209.689 635.399 236.256 635.781C267.363 636.229 303.447 635.318 336.365 635.781C376.642 636.349 704.624 635.187 744.779 637.301C757.681 637.981 770.6 637.711 783.36 638.51C804.833 639.853 826.317 640.648 847.78 639.311C861.701 638.443 875.604 636.885 885.831 631.053C894.952 628.262 904.072 625.472 913.192 622.681C919.279 620.076 926.978 618.114 927.095 613.133C931.283 608.558 932.077 603.701 931.463 598.728C935.411 583.251 941.452 567.89 940.869 552.162C944.78 549.115 942.478 545.729 942.806 542.486C942.693 539.451 942.921 536.513 950 535.502ZM44.2979 524.643C43.8226 524.206 43.9284 523.595 44.4335 523.057C44.3119 523.585 44.275 524.114 44.2979 524.643ZM66.5787 622.445C67.2141 622.745 67.8741 623.038 68.5568 623.323C67.7841 623.087 67.1329 622.788 66.5787 622.445Z" fill="#51A347"/>
</svg>
