<svg xmlns="http://www.w3.org/2000/svg" viewBox="0 0 21.28 3.83"><defs><style>.cls-1{fill:#fff;}</style></defs><title>Asset 2</title><g id="Layer_2" data-name="Layer 2"><g id="Layer_1-2" data-name="Layer 1"><path class="cls-1" d="M21.21,1.7h0s0,0-.06,0,0,0,0,0h0s0,0,0,0,0,0,0,0,.06.07.11.07,0,0,.08,0m0-.8-.06,0c.05,0,.05,0,0-.07h0s0,0,0-.05a.58.58,0,0,0-.19,0l0,0a.05.05,0,0,0,0,0,2.33,2.33,0,0,0-.38,0c-.05,0-.1,0-.16,0l0,0h-.07a.17.17,0,0,1-.12,0h0s-.05,0-.08,0h0s0,0,0,0,0,0,0,0h.06s0,0,0,0,0,0,.05,0,0,0,0,0h0c-.11,0-.14,0-.17-.14h0A.08.08,0,0,0,20,.46s-.05,0-.05,0,0,0-.06,0H20a.12.12,0,0,0-.09,0h0s0,0,0,0a.52.52,0,0,1-.11-.1l0,0h-.06s0,0,0,0h0v0c0-.05,0-.05-.06-.06s0,0,0,0-.08,0-.12,0-.1,0-.15,0v0l0,0s0,0,0,0h0a0,0,0,0,0,0,0l0,0,0,0s0,0-.06,0-.08,0-.1,0-.1,0-.14,0a.09.09,0,0,0-.12,0s-.06,0-.08,0-.12,0-.17,0-.07,0-.1,0h0s0,0-.06,0h-.15a.25.25,0,0,0-.12,0H18a.85.85,0,0,0-.16,0h0s0,0,0,0h-.06a1.07,1.07,0,0,0-.31,0,.41.41,0,0,0-.19,0h-.48a.2.2,0,0,0-.11,0h-.05a.57.57,0,0,0-.13,0,.67.67,0,0,0-.2,0h0l0,0s0,.06-.05,0,0-.06-.07,0a.22.22,0,0,0-.14,0s0,0-.06,0H15.7a.41.41,0,0,1-.16,0l0,0h0l0,0,0,0h0s0,0-.07,0A.43.43,0,0,0,15,.13v0c-.05,0-.08,0-.14,0h0s-.1,0-.11.06,0,0,0,0,0-.07,0-.07a2.43,2.43,0,0,0-.27,0,1.48,1.48,0,0,0-.21,0c-.05,0-.08,0-.12,0S14,0,14,0l0,0s0,0-.05,0a.07.07,0,0,0-.06,0s0,0,0,0,0,0-.05,0h0c0-.06,0-.06-.09-.06a.19.19,0,0,0-.11.07h0s0,0-.06,0h-.1s-.11,0-.15,0,0,0,0,0h0s-.05,0-.08,0-.07,0-.1,0h0S13,0,12.9,0s-.07,0-.1,0h-.06s0,0-.05,0a0,0,0,0,0,0,0,.17.17,0,0,1-.1,0,.25.25,0,0,0-.17,0,0,0,0,0,1-.05,0s-.07,0-.1,0H12.1a1,1,0,0,0-.24,0s0,.05-.06,0-.08,0-.12,0,0,0,0,0h0a.07.07,0,0,0-.06,0h0s-.05,0-.08,0l0,0s0,0-.08,0a.11.11,0,0,1-.08,0,.05.05,0,0,0-.07,0h0a1.51,1.51,0,0,0-.3,0h-.06a.24.24,0,0,0-.14,0h0s-.06,0-.08,0h0a.12.12,0,0,0-.08,0,1.67,1.67,0,0,0-.3.08.15.15,0,0,1-.13,0s-.07,0-.1,0,0,0,0,0,0,0,0,0,0,0,0,0h0s0,0-.06,0h0a.38.38,0,0,0-.15,0,.44.44,0,0,1-.16,0,1.9,1.9,0,0,0-.34,0A1,1,0,0,1,9,.25a1.71,1.71,0,0,0-.32,0,.62.62,0,0,0-.23,0l0,0a1.5,1.5,0,0,1-.22,0s-.07,0-.12,0h0a.47.47,0,0,0-.28,0s0,0-.05,0-.06,0-.1,0,0,0-.06,0h0l0,0a.17.17,0,0,0-.14,0h0a.38.38,0,0,0-.15,0s-.07,0-.1,0l0,0s0,0,0,0a.12.12,0,0,1-.1,0s-.09,0-.13,0a0,0,0,0,0,0,0s0,0,0,0h0s0,0,0,0h0a1.31,1.31,0,0,0-.28,0s0,0-.07,0,0,0,0,0a.41.41,0,0,0-.29,0l0,0s-.08,0-.12,0,0,0-.07,0,0,0,0,0h0s0,0,0,0h0l0,0s0,0,0,0h0a.41.41,0,0,0-.22,0l0,0h0l0,0h0l0,0h0c-.06,0-.12,0-.18,0a.44.44,0,0,0-.23,0h0s-.09,0-.13,0,0,0,0,0,0,0-.1,0-.08-.07-.13,0,0,0-.08.06h0v0h0s0,0,0,0h0a.12.12,0,0,0-.1,0A.89.89,0,0,0,4,.18a1.62,1.62,0,0,0-.22,0,.15.15,0,0,0-.07,0h0l0,0A.16.16,0,0,0,3.44.17H3.29s-.09,0-.1.06h0a.32.32,0,0,0-.3,0,.43.43,0,0,0-.16,0S2.6.11,2.54.16s0,0,0,0,0,0,0,0a.14.14,0,0,1-.14,0c-.05,0-.12-.05-.16,0h0l0,0C2,.11,2,.15,1.87.15a.14.14,0,0,1-.09,0,.33.33,0,0,0-.17,0,.21.21,0,0,1-.11,0h0s-.06,0-.1,0H1.34a.3.3,0,0,0-.16,0H1.07L.67.27S.6.29.6.33a1.6,1.6,0,0,0,0,.21,1.33,1.33,0,0,0-.11.3A.25.25,0,0,0,.4.91c0,.08-.09.15-.06.24v.14c-.06,0-.13,0-.14.12s0,.09,0,.13h0a0,0,0,0,1,0,0,.13.13,0,0,0,0,.08v0h0s0,.07,0,.1,0,.05,0,.08h0a.06.06,0,0,0,0,.09s0,0,0,0h0s0,0,0,0h0a.24.24,0,0,0,0,.29H0s0,0,0,.06h0s0,0,0,0h0c.06,0,.12,0,.18,0h0l0,0h0l0,0h0s0,0,0,.06h0v0h0c0,.06,0,.13,0,.19s0,.11,0,.16a.25.25,0,0,0-.08.16.15.15,0,0,1,0,.09s0,0,0,0a.36.36,0,0,0,0,.32c.05.07,0,.08.13.08h0a1.92,1.92,0,0,0,.24,0l.31,0a.08.08,0,0,0,.08,0,.48.48,0,0,1,.12,0h.1a.25.25,0,0,0,.17,0s0,0,0,0a.65.65,0,0,1,.19,0s0,0,.06,0,0,0,0,0,0,0,.05,0,0,0,0,0,.08,0,.12,0h0s0,0,.08,0H2a0,0,0,0,0,0,0,.11.11,0,0,1,.08,0,.16.16,0,0,0,.16,0,.13.13,0,0,1,.12,0s.06,0,.1,0h0s.06,0,.09,0a.47.47,0,0,0,.17,0,1.9,1.9,0,0,1,.34,0s0,0,0,0h0l0,0h0q.08,0,.12,0l0,0a.05.05,0,0,0,.09,0,.2.2,0,0,1,.15,0s.09,0,.1,0,0,0,.07,0,0-.06,0-.06,0,0,0,0a.13.13,0,0,0,.17,0s0,0,0,0,.07,0,.11.06.13,0,.19,0l.06,0s0,0,0,0h0s0,0,0,0a0,0,0,0,1,.06,0,.05.05,0,0,1,0,0s.06,0,.09,0h.07a.19.19,0,0,1,.18,0c.08,0,.17,0,.25,0s.1,0,.15,0a.34.34,0,0,1,.11,0,.39.39,0,0,0,.24,0s0,0,.08,0h0a.07.07,0,0,0,.1,0h0s0,0,.08,0h0s0,0,0,0a.42.42,0,0,1,.27,0h0s0,0,.06,0,.06,0,.1,0,.07,0,.1,0a.26.26,0,0,1,.15,0s0,0,.05,0,0,0,0,0,0,0,.07,0a.06.06,0,0,1,.08,0s0,0,0,0,0,0,0,0,0,0,.07,0h.06s0,0,0,0,0,0,0-.07h0v0s0,0,0,0,0,0,0,0v0h0s.07,0,.09.06.05.06.1,0h0c.07,0,0-.06.07-.09s0-.05,0-.07a0,0,0,0,0-.06,0s0,0,0,.05H7.36s0-.06,0-.09a.1.1,0,0,0-.08,0c-.06,0-.13,0-.19,0s0,0,0,0H7a.68.68,0,0,0,0-.14s.05,0,.06-.07,0,0,.08,0,.06.07,0,.12H7.17s0,0,.07,0,.06-.1.06-.15a0,0,0,0,0,0,0l0,0s0,0,0,0,0,.05,0,0,0,0,0,0h0s0,.08,0,.1h0s0,0,0,0h0s0,0,0,0v0s0,0,0-.05,0,0,0,0h0s0-.05.08-.05,0,0,0,0,0,.06,0,.08,0,0,0,.06h0l0,0h0l0,0h0s0,0,0,0h0v0s.06,0,.09,0,0-.06.09,0l0,.12c0,.06,0,.12,0,.18h0l0,0h0s0,0,0,.06V3.71h0s.06,0,.09,0H8s0,0,0,0,0,0,0,.06,0,0,.07,0,0,0,0,0,.18-.06.27,0l0,0c.07,0,.14.06.22,0h0s.09,0,.14,0l0,0s0,0,0,0a0,0,0,0,0,0,0v0h0s0,0,0,0,.07,0,.11,0l.26,0h0s.06,0,.1,0a.09.09,0,0,0,.12,0h0l0,0v0s0,0,0,0a0,0,0,0,0,0,0s0,0,0,0,0,0,.05,0l0,0a.09.09,0,0,0,.1.07s.06,0,.06-.05h0a0,0,0,0,1,.07,0s.06,0,.09,0a.13.13,0,0,0,.12,0,.12.12,0,0,0,.14,0s.05,0,.05,0,0,0,0,0,.08,0,.08,0,.06,0,.08,0a.93.93,0,0,1,.23,0h0a0,0,0,0,0,0,0h0l0,0s.05,0,.06,0h0l0,0h.16s0,0,0,0h.15l0,0,.09,0s0,0,0,0,0-.05.05-.05h.08s0,0,0,0,.05,0,.08,0a1.21,1.21,0,0,0,.38,0h0a.14.14,0,0,0,.18,0v0a.12.12,0,0,1,.12,0,0,0,0,0,0,.05,0c0-.06,0,0,.08,0s0,0,0,0h0l.07,0h0l0,0s0,0,0,0,.05,0,.08,0h0c.05,0,.07,0,.12,0s0,0,.08,0,.06,0,.08,0h.09s0,.05.08,0h0c.06,0,.11,0,.16,0s.06,0,.06-.06h0a.07.07,0,0,0,.08,0l.19,0s.09.1.16,0,0,0,0,0,.05,0,.07,0,0,0,.05,0,.18,0,.27,0h0c.05,0,.09,0,.14,0s0,0,0,0,0,0,0,0a.14.14,0,0,1,.11,0s0,0,.07,0,.06,0,.1,0a.42.42,0,0,0,.31,0c.05.07.05.07.14,0s0,0,0,0,.08,0,.11,0,0,0,0,0h.16a.15.15,0,0,0,.13,0h0s0,0,0,0,.11,0,.15,0,.13,0,.18,0h0a.07.07,0,0,1,0-.06h0c0,.06,0,.06.09,0v0l.05,0s0,0,0,0,0,.06.08.05,0,0,0,0l0,0s0,0,.06,0,0,0,.06,0,0,0,.06,0l0,0s.11,0,.13,0,.1,0,.14,0h0c0-.07.06,0,.09,0s0,0,.07,0a0,0,0,0,0,0,0s0,0,0,0h.05s0,0,.05,0h0c.06,0,.07,0,.08,0v0l0,0h0s0,0,.06,0h0s0,0,.06,0,0,0,.06,0l0,0h0a0,0,0,0,0,0,0h0s0,0,0,0h0c.05,0,.1,0,.15,0h0s0,0,0,0h0a1.45,1.45,0,0,0,.36,0h.51a.06.06,0,0,0,.06,0h0l.41,0h0a.6.6,0,0,0,.23,0,.88.88,0,0,0,.28,0,0,0,0,0,0,0,0l-.05-.07h0s0,0,0,0,0-.07,0-.1-.1,0-.14-.05h.08s0,0,0,0,0,0,0,0a.23.23,0,0,1-.11-.08c0-.08,0-.08-.12-.09a.25.25,0,0,1-.14,0s.06,0,.08,0,.07,0,.05-.08l0,0a0,0,0,0,0,0,0h0c.07,0,.13,0,.2,0a.15.15,0,0,1,.16,0s.07,0,.1,0,.08,0,.12,0a.18.18,0,0,0,0-.12.25.25,0,0,0-.17-.1l-.09,0h0l0,0h0s0,0,0,0h0l.13,0a.1.1,0,0,0,.09,0s0,0,0-.06h0a0,0,0,0,0,0,0s0,0,0,0h0l0,0s0,0,0,0,0,0,.09,0,0,0,0-.06,0,0,0,0h0s.05,0,0-.06v0a.39.39,0,0,1-.11-.17s0,0,0,0,0,0,.05-.06,0,0,0,0a.07.07,0,0,1,0-.06s0,0,0,0h0l0,0h0s0,0,0,0h0v0h0l0,0s0,0,.05,0a.23.23,0,0,0,.12,0l.09,0h0s0,0,.05,0h0a.07.07,0,0,0,.06,0h.08a.31.31,0,0,0,.16,0h0s0,0,0,.05,0,0,0,0,0,0,0,0h0a0,0,0,0,1,0,0h0c0,.05,0,0,.07,0s.05,0,0-.07l0,0s0,0,0,0,0,0,0,0h-.07a0,0,0,0,1,0,0h0a.08.08,0,0,0-.08,0s0,0,0,0h.05a2.36,2.36,0,0,1,.38,0h0s0,0,0,0,0,0,0,0H21s0,0,0,0h.2l0,0c0,.06,0,0,.07,0s0,0,0,0a0,0,0,0,0,0,0s0,0,.06,0m-14,2Zm7.31-.05h0Zm-.8-.07h0Zm-2,.12h0ZM7.49,3.27Zm-5.07.4Zm0,0Zm-.47,0h0ZM1.33.36h0s-.05,0-.05.06h0S1.32.39,1.33.36ZM13.78.11h0Zm6.14,1.6h0s0,0,0,0ZM3.4,3.59ZM.45,1.24h0ZM9.93.41h0a0,0,0,0,0,0,0h0Zm2.3.13ZM16.61.37h0Zm3.76.47ZM10.73,3.58Zm-4.1.07h0s0,0,0,0h0ZM2.29,3.49ZM1,.56H1l0,0S1,.56,1,.56ZM6.4,3.33h0v0A0,0,0,0,0,6.4,3.33Zm-2.84.22ZM.42,2.85ZM8.06.47Zm2.14,0ZM11.57.23h0Zm1,.06Zm6.16.1h0Zm.21,0Zm1.72,1.06ZM19,3h0Zm-1.22.11Zm-.82-.06ZM6.31,3.53s0,0,0,0h0v0ZM3.54,3.36ZM1.46.78h0Zm.9-.22v0h0v0ZM8.73.8ZM10,.54ZM19.35.48v0h0ZM9.82,3.2ZM9,3.15h0a0,0,0,0,0,0,0ZM6.54.83a0,0,0,0,0,0,0h0s0,0,0,0Zm2,0h0Zm3.76,0s0,0,0,0S12.31.89,12.32.88Zm.5-.41h0Zm2,0v0h0s0,0,0,0Zm3,.18h0Zm2.1.18h0ZM16,2.67Zm-5.6.39ZM3.81.66h0ZM14.34.88Zm.84.59Zm4.15.62,0,0s0,0,0,0Zm-3.72.8s0,0,0,0h0S15.61,2.88,15.61,2.89ZM10.45,3ZM3,3.09ZM3.27.69s0,0,0,0h0s0,0,0,0Zm14.13.46ZM12.7,2.71Zm-3.47,0ZM9,1.17ZM10.46.84v0h0S10.46.85,10.46.84Zm.22.86Zm.57-.08h0Zm2.37.31Zm-5-.8h0Zm3.33.16h0Zm1.57.21h0l0,0h0S13.5,1.5,13.51,1.5Zm-.32.59h0ZM7,2.45H7Zm-1.59.4h0Zm-.3.25ZM3.7,2.91ZM3.36,1.3h0Zm.27,1.11h0ZM3,2.67H3ZM4.7,1.4Zm1-.29,0,0h0Zm1.12.08h0v0ZM4,2.62ZM2.85,2.49h0S2.86,2.49,2.85,2.49Zm.64-.87Zm.86.19h0ZM3,2.39ZM1.66,1.81h0ZM4,1.8H4Zm2-.34Zm.08,1.13ZM6,2.12H6Zm0,0Zm-.73.19Zm-.13.25ZM5,1.82H5Zm.75-.41h0Zm0,0ZM5,1.82Zm.09.25s0,0,0,0h0ZM5.91,2h0Zm-.33-.19h0Zm-.46-.06a0,0,0,0,0,0,0A0,0,0,0,1,5.12,1.73Zm0,0h0a0,0,0,0,1,0,0s0,0,0,0Zm.48.32h0Zm-.2-.58s0,0,0,0S5.36,1.49,5.36,1.5Zm-1.21.67ZM4,2.31ZM2.45,2h0s0,0,0,0Zm-.22-.11Zm-.09.4Zm.75-.07h0Zm-.65-.73h0Zm2,.47ZM3,1.71Zm.19.17v0ZM3.52,2s0,0,0,0h0Zm.31,0ZM4,1.92s0,0,0,0ZM3.86,1.8Zm0,.08Zm0-.23h0Zm-.24.21Zm.18-.08Zm-.68-.29,0,0h0S3.07,1.49,3.08,1.49ZM2.51,2.63s0,0,0,0h0Zm.79-.49,0,0s0,0,0,0Zm.84.21ZM6,2.76H6Zm.41-.82Zm.32,0Zm0,0a.14.14,0,0,0,0-.06s0,0,0,0h0A.15.15,0,0,0,6.73,1.9Zm.14-.12h0ZM6.42,2h0V2Zm.06,0h0Zm.14.1h0Zm0,0ZM6.72,2h0Zm-.67-.56Zm-.19-.24Zm-2.37.44v0Zm-1.89.9h0S1.6,2.55,1.6,2.55Zm1.65-.18Zm.6.15ZM4,2.58h0S4,2.59,4,2.58Zm.29,0Zm0,0h0s0,0,0,0S4.26,2.62,4.26,2.6Zm.08-.51v0h0Zm.31,0h0a0,0,0,0,1,0,0h0S4.66,2.12,4.65,2.11Zm2,0v0s0,0,0,0Zm.7-.61s0,0,0,0,0,0,0,0S7.32,1.48,7.31,1.48ZM7.17,1.4Zm-.55.07s0,0,0,0S6.62,1.48,6.62,1.47Zm-.34.42ZM6,1.35H6Zm-.7-.24h0Zm-.18.31Zm-1.46.22h0Zm-1.77.12s0,0,0,0a0,0,0,0,1,0,0Zm-.16,0Zm1.41.57Zm3.56.13h0Zm.53-.68Zm.39-.2h0Zm1.22-.12h0Zm3.05.19h0Zm.07,0Zm1.34.11Zm-.85-.09h0S12.47,1.68,12.48,1.68Zm0,.51Zm.1-.32v0s0,0,0,0Zm.22-.38Zm.12.06s0,0,0,0h0S13,1.54,13,1.55ZM11.37,2.84h0Zm.31-1.45Zm-.6,1.15h0Zm.43-.85a0,0,0,0,0,0,0h0a0,0,0,0,0,0,0v0h0Zm0,.13Zm.26,0Zm-.12.44h0Zm0-.58Zm0,0Zm-.28.13Zm.1.33h0s0,0,0,0h0S11.52,2.09,11.52,2.11ZM11,2.43h0Zm.88-1Zm-.94.71Zm.58.51Zm.38-1.05h0S11.88,1.64,11.88,1.65Zm-.1-.18h0Zm-.11-.07Zm0,.09ZM10.93,2h0Zm-2.14.59Zm-.6-.07ZM8.44,2h0a0,0,0,0,1,0,0V2Zm-.12-.12h0Zm.61,0Zm-.22-.09v0h0Zm-.37,0ZM9.93,2Zm0,.1h0Zm.17,0Zm-.5.09h0Zm.33-.38Zm-.05-.16h0Zm-.37,0h0Zm0,0s0,0,0,0h0v0Zm-1,.58ZM10.3,2h0Zm-.21-.34h0Zm-1.2,0Zm0,0ZM7.81,1.9Zm2-.32,0,0,0,0S9.78,1.59,9.78,1.58Zm-.11,0Zm-.07.18h0s0,0,0,0a0,0,0,0,0,0,0Zm-.36-.27h0A0,0,0,0,0,9.24,1.49Zm-1-.14Zm-.33.47Zm-.3,0Zm.94,1,0,0h0S8.56,2.74,8.55,2.73Zm.57-.29h0Zm.08-.36h0Zm.27.38Zm1.91.38h0ZM12,2.09Zm.06,0v0h0s0,0,0,0Zm.37,0h0ZM13,2h0S13,2,13,2Zm.5-.24Zm-2.38.09h0Zm-.73-.48a0,0,0,0,1,0,0Zm0-.06Zm-2.17.15Zm-.3.14Zm-.25-.17h0l0,0s0,0,0,0S7.62,1.44,7.62,1.45Zm-.4-.08Zm-.11-.28Zm-.3.1Zm-.73.16ZM2.87,1.23Zm-.39.08a.34.34,0,0,0,.06.06A.17.17,0,0,1,2.48,1.31ZM2,1.06H2Zm-.3.6ZM1.61,2.84Zm1.23-.19Zm1.63-.33Zm.3.47ZM7.71,2h0Zm.29,0Zm.07.35Zm2.24.31h0s0,0,0,0h0Zm.86,0h0Zm1.69-.57Zm.75-.32Zm.09-.19h0Zm0,.1,0,0h0s0,0,0,0Zm0,.12a0,0,0,0,1,0,0ZM13,1.37Zm-.4-.22Zm-.63.17s0,0,0,0h0A0,0,0,0,0,11.93,1.32Zm-.6.48h0Zm-.57.11ZM10.58,2Zm-.06-.26h0ZM8.46,1.25Zm-.34,0Zm-1,.05h0s0,0,0,0h0Zm0-.19h0Zm-4.58.13h0ZM2.37,1s0,0,0,0h0Zm-.2,0h0s0,0,0,0ZM1.63,2.88ZM3.69,2.5h0Zm0,.42h0Zm.15-.1s0,0,0,0h0A0,0,0,0,1,3.85,2.82Zm1,.26h0Zm.32,0Zm1.23-.29h0Zm.3-.06h0ZM7,2.1H7S7,2.09,7,2.1Zm.87,0h0Zm1,.59s0,0,0,0l0,0Zm0,0s0,0,0,0A.05.05,0,0,0,8.93,2.68Zm1.49,0h0Zm.29,0v0Zm1.15,0h0Zm.31-.48Zm1.59-.6h0s0,0,0,0S13.76,1.6,13.76,1.61Zm-.11-.08Zm-.2,0h0Zm0-.49Zm-.21-.2s0,0,0,0,0,0,0,0A0,0,0,0,1,13.22.86ZM12.86,1Zm-2,.75ZM10.17,1h0Zm-.08.24h0ZM8,1.29v0H8s0,0,0,0Zm-.27.08Zm-.55-.1h0Zm0,0Zm-.31-.18Zm-1.76,0Zm-.5,0h0v0h0s0,0,0,0Zm-.46.29h0ZM2,1s0,0,0,0Zm-.53.6h0Zm-.35-.17h0l0,.05H1A.09.09,0,0,0,1.07,1.39Zm0,.15h0ZM1.88,3h0Zm0-.1Zm2.65.25h0A0,0,0,0,0,4.5,3.11Zm.83,0Zm.3,0v0h0a0,0,0,0,0,0,0ZM7.16,2ZM9,2.76Zm0,0H9Zm1.3.27h0Zm3.32-.85h0Zm1.31-.35h0Zm.59.06Zm1-.75Zm0,.14Zm0,0h0Zm2.09-.2Zm-3.89.88Zm-.27.82h0a0,0,0,0,1,0,0Zm.09-.6h0Zm.41.42h0Zm0,.24Zm1.54-1.24h0Zm-.38.52h0s0,0,0,0h0S16.1,2.11,16.1,2.1Zm.39,0h0Zm0,.12Zm-.78.34h0Zm.29-1h0Zm-1.39.16Zm-.08-.21s0,0,0,0,0,0,0,0Zm-.24,1.34h0Zm.61,0Zm.65-.45Zm2.87-.46s0,0,0,0h0Zm.23.1s0,0,0,0,0,0,0,0Zm0,.13a.09.09,0,0,0,0,0l0,0A0,0,0,0,1,18.7,2.16Zm.08-.32h0ZM19,1.06h0ZM17.87,2.28Zm-.24-.47Zm-.35-.1h0Zm.06.21Zm.54.35Zm.21-.37h0Zm-.34.39Zm.07.12h0Zm1.41-1.12ZM19,.82Zm-.72.76Zm-.11-.16Zm-.78-.09h0A0,0,0,0,1,17.43,1.33Zm-1.26.25a0,0,0,0,0,0,0h0a0,0,0,0,1,0,0Zm-.25-.46h0Zm-1,.69Zm-.59,1.26h0Zm.21-.84Zm2.67-.15Zm0,.09Zm.57.24Zm.36-.19h0Zm1.17-.57ZM17,1.13Zm-.22.07v0Zm-.62.38Zm-.08-.23a0,0,0,0,0,0,0A0,0,0,0,1,16.06,1.35Zm-.8.79ZM14.26,1Zm-.18.38h0ZM13.49.92Zm0,0h0ZM12,1.33Zm-.4-.52h0ZM10.5.76Zm-.4.32h0s0,0,0,0h0A0,0,0,0,0,10.1,1.08Zm-.46,0,0,0S9.64,1.11,9.64,1.09Zm-1.09,0h0ZM7.14,1ZM5.94.88h0Zm0-.18ZM4.47.8ZM3,.75H3ZM1.77.9ZM1.68,1h0Zm.49,1.91Zm5-.86s0,0,0,0h0Zm.31,0Zm.59.7ZM8.22,3h0ZM8.4,3a0,0,0,0,0,0,0h0Zm2.75.06Zm0,0ZM12,2.68h0s0,0,0,0Zm.13,0Zm.07,0h0Zm.29-.07s0,0,0,0h0Zm.68.19Zm.16.24A.07.07,0,0,0,13.42,3h0s-.05,0-.07.06Zm.5-1h0Zm1.9.8Zm1-.77h0ZM18.44.68Zm0,.61ZM18.28.86Zm-.22.48h0ZM15.87,1.1h0S15.86,1.09,15.87,1.1Zm-.69.54s0,0,0,0,0,0,0,0Zm-1.45-.35Zm-.05,0h0Zm-1-.57Zm-2,1.06Zm0-.24h0ZM8.26.82Zm-.41.31s0,0,0,0h0ZM7.14.86h0ZM6.06.86ZM6,.67s0,0,0,0H6ZM5.87.58h0ZM4.47.8Zm0,0V.9a.08.08,0,0,0,0-.07ZM4,1.09ZM3.23.7h0a0,0,0,0,1,0,0ZM1.14,3h0Zm.27,0h0Zm1.17.23a0,0,0,0,1,0,0h0s0,0,0,0Zm1.06-.05h0Zm.73.14h0Zm1-.07Zm.63,0H6Zm.3-.1h0Zm1.18-.56h0a0,0,0,0,1,0,0ZM12,3Zm.13.08s0,0,0,0l0,0Zm.1,0V3h0Zm1.09-.16h0Zm1.16.34ZM14.7,3h0Zm.46.09Zm.35.06h0Zm3-.4h0Zm.53-.35Zm.43-.8s0,0,0,0h0l0,0Zm-.21-1Zm-.6.23h0ZM18.56.7h0l0,0Zm-.12,0s0,0,0,0,0,0,0,0Zm-.55,0Zm-.22.37h0ZM17.28.68h0v0ZM16.79,1h0a0,0,0,0,1,0,0A0,0,0,0,0,16.79,1Zm-1.51.85h0Zm-.87-1ZM13.82,1ZM12.69.5h0a0,0,0,0,0,0,0Zm-.25.27Zm-.62.09h0Zm-.69.45h0s0,0,0,.06S11.13,1.33,11.13,1.31Zm-.8-.67h0ZM5.88.57h0a0,0,0,0,0,0,0Zm-1.79.49h0ZM2.83.9h0ZM1.3,1.2ZM.85,2.84ZM1.2,3Zm1.38.19v0h0s0,0,0,0Zm.24-.14Zm1.23.11h0Zm1.82,0v0h0Zm1-.14Zm1.7.08s0,0,0,0h0ZM10,3.22Zm.53-.12h0Zm.33,0Zm.16,0h0Zm3.15.06Zm.27.12Zm1.37-.27h0Zm.75-.1,0,0h0S16.57,3,16.57,3Zm.89-.35Zm0,.14Zm.36,0Zm1.67-1.39Zm.14-.09h0Zm-1-.78ZM17.35.66h0Zm-.14.12Zm-.8.18h0s0,0,0,0S16.41,1,16.41,1ZM15.3.68h0S15.3.68,15.3.68ZM14.75.5h0Zm-.12,0h0a0,0,0,0,0,0,0ZM13.47.42Zm-.2,0h0a.11.11,0,0,1-.08,0h0A.06.06,0,0,0,13.27.45Zm-.45,0ZM11.53.59h0Zm-.6.84ZM10.5.65ZM8.59.86h0ZM8.53.8h0l0,0h0l0,0Zm-.27,0ZM7.08.68ZM5.72.48h0s0,0-.06,0h0ZM5.37.7ZM4.05.74ZM3.88.65ZM2.1.6ZM.66,1s0,0,0,0,0,0,0,0ZM.85,2.92Zm.27.26Zm.4.06Zm2.91.17Zm.56,0Zm7.42-.29h0ZM16.34,3Zm1-.31Zm.7.5h0s0,0,0,0Zm.19-.32h0s0,0,0,0A0,0,0,0,1,18.25,2.85Zm.77,0h0A0,0,0,0,1,19,2.86Zm.8-1.53ZM20.61,1h0Zm-.24.37h0Zm0,0h0Zm.1-.22Zm0,.18Zm.09,0h0s0,0-.05,0Zm.63-.06Zm0,0h0Zm-.1-.07h0a0,0,0,0,0,0,0Zm-.72-.06h0a0,0,0,0,1,0,0h0S20.35,1.18,20.37,1.19ZM20.91,1ZM17.32.37Zm-.18.11h0ZM17,.54h0ZM16.55.37ZM16.5.46h0Zm-.39.27ZM16,.73h0Zm-.67.5ZM14.52.46h0A0,0,0,0,1,14.52.46Zm-.7.42s0,0,0,0,0,0,0,0ZM13.73,1h0ZM12.15.91ZM11.49.45h0Zm-.87.17ZM9.36.9ZM9,.7H9a.13.13,0,0,1,0,.06S9,.73,9,.7ZM8.57.8h0ZM8.4.77h0Zm-.23,0h0Zm-.44,0Zm0,0h0ZM7.61.62Zm0,0h0s0,0,0,0h0Zm0,0Zm-.26,0v0s0,0,0,0ZM6.92.73ZM6.16.52h0Zm-.79.1h0Zm-.32,0ZM3.86.54Zm0,0ZM1.51.71a0,0,0,0,0,0,0h0S1.51.7,1.51.71ZM1.36.94h0ZM.62,2.22Zm.22.62h0Zm1.8.44h0v0h0S2.64,3.29,2.64,3.28Zm.87.24Zm0,0Zm.57-.13h0Zm.94.2h0Zm1.36-.31h0Zm3.53,0h0s0,0,0,0h0S9.92,3.3,9.94,3.31Zm.46-.07Zm2.81-.05Zm3.46,0Zm.57-.07Zm.55.17Zm.82-.08Zm1.18-1.74h0Zm.92,0h0Zm.21,0h0a.08.08,0,0,0,0,0h0S20.91,1.37,20.92,1.35ZM20,.69Zm-.61-.3h0Zm0,0h0Zm-1.71,0h0Zm-.09,0h0Zm-.17,0h0ZM17.1.6Zm-.23,0,0,0s0,0,0,0Zm-2-.14h0V.33h0A.07.07,0,0,0,14.86.42ZM12.6.28Zm-.72.44ZM9.63.45h0ZM9.15.5h0ZM8.9.7h0Zm0-.14h0Zm-.07,0h0S8.81.59,8.82.58ZM8.3.49h0Zm-.11,0ZM7.61.62ZM.57.88h0ZM.42,2.77Zm3.66.68Zm.38,0h0Zm.32,0Zm.83.14Zm.56-.18h0ZM7,3.27Zm1.35.18h0Zm1.53-.13Zm.12.14h0a.06.06,0,0,1,0,0S10,3.48,10,3.46Zm1.32,0,0,0Zm1.91-.09h0S13.18,3.41,13.18,3.4Zm1.59,0Zm1.83-.18Zm.11,0h0Zm.83-.08Zm.29.13h0Zm1-.08Zm0-.08h0Zm.31-.42a0,0,0,0,1,0,0h0A0,0,0,0,0,19.17,2.68Zm.22-.11h0Zm.35-.18ZM19.6,2.1h0Zm.65-.51Zm.45-.06Zm.12-.1ZM20.56.89l0,0h0A0,0,0,0,1,20.56.89ZM20.39.84ZM19.73.5h0ZM19,.34v0h0a0,0,0,0,0,0,0ZM18.86.22h0Zm-1.81.1h0ZM16.89.23h0Zm-.28.21h0S16.6.44,16.61.44Zm-.7-.13h0Zm-.12,0h0v0S15.78.27,15.79.27ZM15.67.13s0,0,0,0S15.67.14,15.67.13Zm-.85.14Zm-.34.06,0,0h0l0,0ZM14,.41Zm-.63-.1ZM12.4.48h0ZM11.27.26Zm0,.06h0ZM11,.72ZM10.68.48h0ZM8.92.51h0ZM8.14.42v0h0v0ZM7.88.57ZM7.14.48Zm-.53,0ZM6.17.42h0ZM2.6.43ZM1.46.46Zm-.18,0s.06,0,.05.06h0s0-.05-.05-.06ZM.5.87h0a.05.05,0,0,1,0-.05A.06.06,0,0,0,.5.87ZM.4,3.31Zm.13,0h0Zm1.07.19h0Zm1.55,0Zm.18,0Zm.14.05h0Zm2-.19h0Zm.88.16Zm0,.06Zm1.78-.18h0Zm.77.08H9v0h0S9,3.56,8.94,3.55ZM9,3.48H9Zm.82,0Zm2.63,0h0Zm1.08,0h0Zm1.25.14Zm0,0h0Zm.85-.07Zm.65-.07h0S16.29,3.41,16.3,3.41Zm.33.1h0Zm.73-.19h0Zm2.37-.93h0Zm.08-.6ZM20,1.68h0Zm.53,0Zm.38-.76ZM20,.6ZM17.3.19h0ZM17,.25h0ZM12.83.2h0ZM12.77.1h0a.08.08,0,0,1,0,0h0S12.77.13,12.77.1ZM6.25.39h0v0h0Zm-.41,0h0Zm-1,0Zm-.13,0ZM2.27.31Zm-.08,0h0s0,0,0,0h0S2.19.31,2.19.32ZM2,.39ZM.48.88h0v0h0Zm0,1.59s0,0,0,0h0ZM.4,3.25h0l0-.07h0S.37,3.23.4,3.25Zm-.09,0h0Zm-.07,0Zm.49.22s0,0,0,0h0S.74,3.51.73,3.5Zm.74.13s0,0,0,0h0S1.47,3.64,1.47,3.63Zm.13-.08Zm0,0Zm0,0h0a0,0,0,0,0,0,0Zm4.75.12v0h0v0Zm.49-.27Zm.63-.22Zm1.12.35h0Zm1.23.05h0Zm3.78.06h0Zm.12-.13Zm.91.05Zm0,0Zm.49-.07h0Zm.22.13Zm.24-.06h0A0,0,0,0,0,15.63,3.55Zm.9,0h0Zm3-.85Zm.12.06h0Zm-.14-.13h0Zm.32-.41h0Zm0,0h0Zm.56-.57h0Zm.3-.12Zm.2,0h0s0,0,0,0h0S20.89,1.55,20.88,1.54Zm0-.73ZM20.47.76h0ZM19.3.27s0,0,0,0A.05.05,0,0,1,19.3.27ZM18.12.2s0,0,0,0,0,0,0,0ZM13.94.37Zm-.07-.3h0Zm-.12,0h0Zm-1,.07h0s0,0,0,0Zm-1.08,0h0v0Zm-.41.06v0l0,0Zm-3,.12h0ZM2,.37H2Zm-.66,0h0s0,0,0-.05h0S1.32.33,1.34.34Zm-.9.77h0Zm-.09.18ZM.77,3.65h0Zm2.5,0h0Zm1.25,0h0ZM7,3.67H7l0,0H7S7,3.65,7,3.67Zm.38-.47s0,0,0,0Zm.54.17h0a.11.11,0,0,1,0,.08h0S7.93,3.4,7.9,3.37Zm2.9.34Zm1.54-.08Zm1.4-.1Zm1.66.12Zm.65,0Zm.09,0h0Zm.07-.14Zm1.43,0v0h0Zm1.17-.14a.06.06,0,0,0,.05,0h0s0,0,0,0Zm.7.16Zm.25-.86Zm.77-1.09Z"/></g></g></svg>