<svg xmlns="http://www.w3.org/2000/svg" viewBox="0 0 1187.94 805.77"><defs><style>.cls-1{fill:#fff;}</style></defs><title>Asset 1</title><g id="Layer_2" data-name="Layer 2"><g id="Layer_1-2" data-name="Layer 1"><path class="cls-1" d="M5.43,86.1C33.61-6,305.65,31.27,685.93,6.6c0,0,451.33-29.28,485.5,35.5a81.67,81.67,0,0,1,9,33c.23,13.5-3.81,22.83-6,29.64-7.28,22.77,2.72,41.08,3.48,67.86,2.33,82.14,10.36,130.4,10,195-.26,48.2-4.93,49.43-17,219-10,141-9,166.7-32,191-41.4,43.84-106.66,25.93-236,16-152.76-11.73-278.64-3.4-466,9-100.15,6.63-200.67-10.68-301-8-29.65.79-70.13,2.41-95-24-28.11-29.85-7-64.43-6-162,1.3-121.84-36-156.69-19-262,2.93-18.16,6.14-30.3,6.5-52.5.95-57.6-18.87-81.42-22-139C-.92,130.12,1,100.69,5.43,86.1Z"/></g></g></svg>