<svg width="916" height="403" viewBox="0 0 916 403" fill="none" xmlns="http://www.w3.org/2000/svg">
<g opacity="0.72">
<path opacity="0.5" d="M957.845 326.824C957.12 328.359 956.205 329.813 955.22 331.036C936.626 354.104 907.564 367.481 878.048 370.295C848.533 373.109 818.66 366.035 791.707 353.696C747.36 333.394 708.825 296.881 694.348 250.349C679.872 203.817 693.497 147.656 732.881 118.903C764.307 95.96 809.354 93.4345 843.153 112.721C860.872 122.832 876.227 140.395 876.299 160.778C876.373 181.613 860.411 199.581 841.986 209.346C810.199 226.191 768.921 223.304 739.795 202.199C721.891 189.225 708.98 170.539 698.125 151.289C680.958 120.844 668.821 86.6252 660.603 52.6824C658.153 42.5644 656.106 31.9301 658.636 21.8321C661.167 11.7342 669.542 2.37467 679.958 2.01065C694.999 1.48482 704.801 20.5402 699.953 34.7724C695.105 49.0045 680.899 57.9531 666.691 62.9126C614.035 81.2924 556.995 59.8063 503.036 45.6923C400.293 18.8179 290.543 19.1682 187.975 46.6978C152.807 56.137 115.324 71.3487 98.6398 103.68C86.6673 126.881 88.1696 155.946 100.567 178.924C112.965 201.901 135.427 218.738 160.394 226.446C188.809 235.219 226.739 227.944 236.425 199.856C242.698 181.666 234.057 160.63 219.103 148.505C204.149 136.38 184.179 131.998 164.919 131.925C119.942 131.755 75.4634 154.386 49.1577 190.826C42.1533 200.529 33.1113 213.788 31.3012 225.892C29.0259 241.106 27.8245 256.48 27.7085 271.862C27.5263 296.024 30.0108 320.32 26.8344 344.273C24.0485 365.282 16.1426 386.638 1 401.103" stroke="white" stroke-width="2.69096" stroke-miterlimit="10" stroke-dasharray="12.11 12.11"/>
</g>
</svg>
