<svg xmlns="http://www.w3.org/2000/svg" xmlns:xlink="http://www.w3.org/1999/xlink" width="794" zoomAndPan="magnify" viewBox="0 0 595.5 368.250002" height="491" preserveAspectRatio="xMidYMid meet" version="1.2"><defs><clipPath id="f28fcb2b9e"><path d="M 0.355469 0 L 594.644531 0 L 594.644531 367.5 L 0.355469 367.5 Z M 0.355469 0 "/></clipPath><clipPath id="f7d3a5ff56"><path d="M 0.355469 0 L 594.234375 0 L 594.234375 367.25 L 0.355469 367.25 Z M 0.355469 0 "/></clipPath><clipPath id="943e62a128"><path d="M 11.621094 212 L 71.804688 212 L 71.804688 272 L 11.621094 272 Z M 11.621094 212 "/></clipPath><clipPath id="d463370c42"><path d="M 71.582031 216.890625 L 71.582031 267.074219 C 71.582031 269.707031 69.425781 271.851562 66.804688 271.851562 L 16.621094 271.851562 C 13.992188 271.851562 11.84375 269.695312 11.84375 267.074219 L 11.84375 216.890625 C 11.84375 214.261719 14.003906 212.113281 16.621094 212.113281 L 66.804688 212.113281 C 69.4375 212.113281 71.582031 214.273438 71.582031 216.890625 "/></clipPath><clipPath id="bc60eae3db"><path d="M 16.621094 216.890625 L 66.804688 216.890625 L 66.804688 267.074219 L 16.621094 267.074219 Z M 16.621094 216.890625 "/></clipPath><clipPath id="85ba5917a4"><path d="M 16.449219 228.640625 L 66.980469 228.640625 L 66.980469 267.25 L 16.449219 267.25 Z M 16.449219 228.640625 "/></clipPath><clipPath id="30c921aa53"><path d="M 54.84375 228.832031 C 58.425781 228.832031 59.621094 238.398438 59.621094 243.164062 C 59.621094 247.929688 57.460938 247.941406 54.84375 247.941406 C 52.226562 247.941406 50.066406 245.78125 50.066406 243.164062 C 50.066406 238.386719 51.253906 228.832031 54.84375 228.832031 M 54.84375 253.683594 C 56.875 253.082031 59.269531 252.730469 62.015625 252.730469 C 62.015625 252.730469 64.410156 252.730469 66.792969 253.917969 L 66.792969 267.0625 L 16.621094 267.0625 C 16.621094 267.0625 22.597656 257.496094 30.957031 257.496094 C 39.3125 257.496094 44.101562 262.273438 44.101562 262.273438 C 44.101562 262.273438 46.5 256.054688 54.855469 253.683594 Z M 54.84375 253.683594 "/></clipPath><clipPath id="a8f237e559"><path d="M 26.101562 226.371094 L 35.753906 226.371094 L 35.753906 236.023438 L 26.101562 236.023438 Z M 26.101562 226.371094 "/></clipPath><clipPath id="50a8342d93"><path d="M 34.300781 227.878906 C 35.148438 228.726562 35.734375 229.910156 35.734375 231.226562 C 35.734375 232.539062 35.253906 233.738281 34.300781 234.570312 C 33.457031 235.417969 32.269531 236.003906 30.957031 236.003906 C 29.640625 236.003906 28.445312 235.523438 27.609375 234.570312 C 26.765625 233.738281 26.179688 232.539062 26.179688 231.226562 C 26.179688 229.910156 26.660156 228.714844 27.609375 227.878906 C 28.445312 227.035156 29.640625 226.449219 30.957031 226.449219 C 32.269531 226.449219 33.457031 227.046875 34.300781 227.878906 "/></clipPath><clipPath id="6720306465"><path d="M 11.054688 211.324219 L 72.375 211.324219 L 72.375 272.644531 L 11.054688 272.644531 Z M 11.054688 211.324219 "/></clipPath><clipPath id="74410ee862"><path d="M 30.957031 235.40625 C 33.222656 235.40625 35.148438 233.492188 35.148438 231.214844 C 35.148438 228.9375 33.234375 227.023438 30.957031 227.023438 C 28.679688 227.023438 26.765625 228.9375 26.765625 231.214844 C 26.765625 233.492188 28.679688 235.40625 30.957031 235.40625 M 30.957031 241.378906 C 30.59375 241.378906 30.355469 241.144531 30.355469 240.78125 L 30.355469 236.589844 C 29.277344 236.460938 28.328125 236.109375 27.609375 235.40625 L 24.628906 238.386719 C 24.394531 238.621094 24.03125 238.621094 23.785156 238.386719 C 23.65625 238.257812 23.65625 238.152344 23.65625 237.90625 C 23.65625 237.660156 23.65625 237.539062 23.785156 237.421875 L 26.765625 234.441406 C 26.167969 233.726562 25.683594 232.773438 25.578125 231.695312 L 21.402344 231.695312 C 21.035156 231.695312 20.800781 231.460938 20.800781 231.097656 C 20.800781 230.730469 21.035156 230.496094 21.402344 230.496094 L 25.589844 230.496094 C 25.71875 229.417969 26.0625 228.464844 26.777344 227.75 L 23.796875 224.78125 C 23.667969 224.652344 23.667969 224.546875 23.667969 224.300781 C 23.667969 224.054688 23.667969 223.9375 23.796875 223.816406 C 24.03125 223.582031 24.394531 223.582031 24.640625 223.816406 L 27.621094 226.800781 C 28.339844 226.203125 29.289062 225.71875 30.367188 225.613281 L 30.367188 221.433594 C 30.367188 221.070312 30.605469 220.835938 30.96875 220.835938 C 31.332031 220.835938 31.566406 221.070312 31.566406 221.433594 L 31.566406 225.625 C 32.644531 225.753906 33.597656 226.09375 34.3125 226.8125 L 37.292969 223.828125 C 37.53125 223.59375 37.894531 223.59375 38.140625 223.828125 C 38.269531 223.960938 38.269531 224.066406 38.269531 224.3125 C 38.269531 224.558594 38.269531 224.675781 38.140625 224.792969 L 35.160156 227.773438 C 35.757812 228.492188 36.238281 229.441406 36.34375 230.519531 L 40.535156 230.519531 C 40.898438 230.519531 41.132812 230.753906 41.132812 231.121094 C 41.132812 231.484375 40.898438 231.71875 40.535156 231.71875 L 36.332031 231.71875 C 36.203125 232.796875 35.863281 233.75 35.148438 234.464844 L 38.128906 237.445312 C 38.257812 237.574219 38.257812 237.683594 38.257812 237.929688 C 38.257812 238.175781 38.257812 238.292969 38.128906 238.410156 C 37.894531 238.644531 37.53125 238.644531 37.28125 238.410156 L 34.300781 235.429688 C 33.585938 236.027344 32.632812 236.507812 31.554688 236.613281 L 31.554688 240.804688 C 31.554688 241.167969 31.320312 241.402344 30.957031 241.402344 M 54.84375 229.441406 C 52.097656 229.441406 50.652344 237.5625 50.652344 243.175781 C 50.652344 248.785156 52.566406 247.367188 54.84375 247.367188 C 57.121094 247.367188 59.035156 245.453125 59.035156 243.175781 C 59.035156 237.5625 57.601562 229.441406 54.84375 229.441406 M 66.804688 267.664062 L 21.402344 267.664062 C 21.035156 267.664062 20.800781 267.429688 20.800781 267.0625 C 20.800781 266.699219 21.035156 266.464844 21.402344 266.464844 L 66.207031 266.464844 L 66.207031 217.480469 L 17.210938 217.480469 L 17.210938 264.199219 C 19.371094 261.804688 24.382812 256.910156 30.945312 256.910156 C 37.507812 256.910156 42.296875 260.019531 43.855469 261.335938 C 44.808594 259.539062 47.683594 255.242188 54.246094 253.210938 L 54.246094 248.550781 C 51.617188 248.1875 49.46875 245.921875 49.46875 243.175781 C 49.46875 238.984375 50.417969 228.230469 54.84375 228.230469 C 59.269531 228.230469 60.222656 238.984375 60.222656 243.175781 C 60.222656 247.367188 58.0625 248.1875 55.441406 248.550781 L 55.441406 252.976562 C 57.355469 252.507812 59.503906 252.261719 62.003906 252.261719 C 64.503906 252.261719 62.605469 252.496094 62.605469 252.859375 C 62.605469 253.222656 62.367188 253.457031 62.003906 253.457031 C 59.375 253.457031 57.109375 253.824219 55.195312 254.292969 C 55.066406 254.292969 54.960938 254.421875 54.832031 254.421875 C 46.945312 256.816406 44.679688 262.542969 44.679688 262.660156 C 44.550781 262.898438 44.445312 263.027344 44.195312 263.027344 C 43.949219 263.027344 43.832031 263.027344 43.597656 262.898438 C 43.597656 262.898438 38.820312 258.238281 30.933594 258.238281 C 23.042969 258.238281 17.199219 266.242188 17.070312 266.359375 C 16.941406 266.59375 16.585938 266.722656 16.351562 266.59375 C 16.117188 266.464844 15.988281 266.230469 15.988281 265.996094 L 15.988281 217.007812 C 15.988281 216.644531 16.222656 216.410156 16.585938 216.410156 L 66.792969 216.410156 C 67.160156 216.410156 67.394531 216.644531 67.394531 217.007812 L 67.394531 267.179688 C 67.394531 267.417969 67.160156 267.664062 66.792969 267.664062 Z M 16.621094 212.703125 C 14.355469 212.703125 12.433594 214.613281 12.433594 216.890625 L 12.433594 267.074219 C 12.433594 269.339844 14.34375 271.265625 16.621094 271.265625 L 66.804688 271.265625 C 69.070312 271.265625 70.996094 269.351562 70.996094 267.074219 L 70.996094 216.890625 C 70.996094 214.625 69.082031 212.703125 66.804688 212.703125 Z M 66.804688 272.453125 L 16.621094 272.453125 C 13.640625 272.453125 11.246094 270.058594 11.246094 267.074219 L 11.246094 216.890625 C 11.246094 213.910156 13.640625 211.515625 16.621094 211.515625 L 66.804688 211.515625 C 69.789062 211.515625 72.183594 213.910156 72.183594 216.890625 L 72.183594 267.074219 C 72.183594 270.058594 69.789062 272.453125 66.804688 272.453125 "/></clipPath><clipPath id="df4796b402"><path d="M 10.773438 132.671875 L 69.613281 132.671875 L 69.613281 147.4375 L 10.773438 147.4375 Z M 10.773438 132.671875 "/></clipPath><clipPath id="c0cf9e3e76"><path d="M 69.445312 147.429688 L 10.773438 146.925781 L 10.890625 132.675781 L 69.574219 133.179688 Z M 69.445312 147.429688 "/></clipPath><clipPath id="2bfeac40bb"><path d="M 9.652344 131.554688 L 70.730469 131.554688 L 70.730469 148.558594 L 9.652344 148.558594 Z M 9.652344 131.554688 "/></clipPath><clipPath id="12b3680435"><path d="M 11.855469 145.871094 L 11.960938 133.753906 L 18.191406 133.800781 L 18.167969 136.054688 C 18.167969 136.347656 18.285156 136.621094 18.472656 136.820312 C 18.664062 137.019531 18.933594 137.136719 19.226562 137.136719 C 19.8125 137.136719 20.304688 136.667969 20.304688 136.078125 L 20.328125 133.8125 L 26.550781 133.871094 L 26.515625 138.109375 C 26.515625 138.402344 26.632812 138.671875 26.820312 138.875 C 27.007812 139.074219 27.277344 139.191406 27.570312 139.191406 C 28.160156 139.203125 28.652344 138.71875 28.652344 138.132812 L 28.6875 133.894531 L 34.921875 133.953125 L 34.898438 136.21875 C 34.898438 136.515625 35.015625 136.785156 35.203125 136.984375 C 35.390625 137.183594 35.660156 137.300781 35.953125 137.300781 C 36.539062 137.300781 37.023438 136.832031 37.035156 136.242188 L 37.058594 133.988281 L 43.277344 134.046875 L 43.230469 139.636719 C 43.230469 139.929688 43.347656 140.199219 43.535156 140.398438 C 43.726562 140.597656 43.996094 140.714844 44.289062 140.714844 C 44.875 140.726562 45.367188 140.246094 45.367188 139.660156 L 45.414062 134.070312 L 51.648438 134.128906 L 51.625 136.382812 C 51.625 136.679688 51.742188 136.949219 51.929688 137.148438 C 52.117188 137.347656 52.386719 137.464844 52.679688 137.464844 C 53.269531 137.464844 53.761719 136.996094 53.761719 136.40625 L 53.785156 134.152344 L 60.019531 134.199219 L 59.972656 139.789062 C 59.972656 140.082031 60.089844 140.351562 60.277344 140.550781 C 60.464844 140.75 60.734375 140.867188 61.027344 140.867188 C 61.613281 140.867188 62.097656 140.398438 62.109375 139.8125 L 62.15625 134.226562 L 68.480469 134.285156 L 68.375 146.398438 Z M 70.511719 147.441406 L 70.628906 133.191406 C 70.640625 132.605469 70.160156 132.125 69.574219 132.113281 L 10.902344 131.605469 C 10.316406 131.605469 9.824219 132.078125 9.824219 132.664062 L 9.707031 146.925781 C 9.707031 147.21875 9.824219 147.488281 10.011719 147.6875 C 10.199219 147.886719 10.46875 148.007812 10.761719 148.007812 L 69.433594 148.511719 C 69.714844 148.511719 69.996094 148.40625 70.195312 148.207031 C 70.394531 148.007812 70.511719 147.734375 70.511719 147.453125 "/></clipPath><clipPath id="c28ba9ac2b"><path d="M 26.433594 140.28125 L 28.667969 140.28125 L 28.667969 143.078125 L 26.433594 143.078125 Z M 26.433594 140.28125 "/></clipPath><clipPath id="fc6b784d4e"><path d="M 28.628906 141.46875 C 28.628906 140.878906 28.160156 140.398438 27.570312 140.386719 C 26.984375 140.375 26.503906 140.855469 26.492188 141.445312 L 26.492188 141.960938 C 26.492188 142.253906 26.609375 142.523438 26.796875 142.722656 C 26.984375 142.921875 27.253906 143.039062 27.546875 143.039062 C 28.136719 143.039062 28.617188 142.570312 28.628906 141.984375 Z M 28.628906 141.46875 "/></clipPath><clipPath id="fe3489d85b"><path d="M 10.253906 297.199219 L 69.300781 297.199219 L 69.300781 356.53125 L 10.253906 356.53125 Z M 10.253906 297.199219 "/></clipPath><clipPath id="25ff326715"><path d="M 10.261719 326.90625 C 10.261719 343.214844 23.480469 356.429688 39.785156 356.429688 C 56.089844 356.429688 69.296875 343.214844 69.296875 326.90625 C 69.296875 310.601562 56.078125 297.394531 39.785156 297.394531 C 23.492188 297.394531 10.261719 310.613281 10.261719 326.90625 "/></clipPath><clipPath id="7c7564b117"><path d="M 9.117188 296.347656 L 70.4375 296.347656 L 70.4375 357.667969 L 9.117188 357.667969 Z M 9.117188 296.347656 "/></clipPath><clipPath id="e72b4608b1"><path d="M 39.785156 298.347656 C 24.019531 298.347656 11.210938 311.152344 11.210938 326.90625 C 11.210938 342.660156 24.019531 355.480469 39.785156 355.480469 C 55.550781 355.480469 68.34375 342.671875 68.34375 326.90625 C 68.34375 311.140625 55.539062 298.347656 39.785156 298.347656 M 39.785156 357.476562 C 22.972656 357.476562 9.308594 343.8125 9.308594 327 C 9.308594 310.191406 22.972656 296.539062 39.785156 296.539062 C 56.59375 296.539062 70.246094 310.203125 70.246094 327 C 70.152344 343.707031 56.582031 357.464844 39.773438 357.464844 Z M 39.785156 357.476562 "/></clipPath><clipPath id="b6bf15266c"><path d="M 16.785156 304.011719 L 62.488281 304.011719 L 62.488281 349.71875 L 16.785156 349.71875 Z M 16.785156 304.011719 "/></clipPath><clipPath id="fc1aeb2d44"><path d="M 16.90625 326.90625 C 16.90625 339.492188 27.105469 349.691406 39.679688 349.691406 C 52.25 349.691406 62.464844 339.492188 62.464844 326.917969 C 62.464844 314.335938 52.261719 304.144531 39.691406 304.144531 C 27.117188 304.144531 16.917969 314.347656 16.917969 326.917969 "/></clipPath><clipPath id="fb8dde5a40"><path d="M 15.933594 303.160156 L 63.625 303.160156 L 63.625 350.851562 L 15.933594 350.851562 Z M 15.933594 303.160156 "/></clipPath><clipPath id="956a85238d"><path d="M 39.679688 305.085938 C 27.621094 305.085938 17.84375 314.863281 17.84375 326.917969 C 17.84375 338.976562 27.621094 348.753906 39.679688 348.753906 C 51.734375 348.753906 61.511719 338.976562 61.511719 326.917969 C 61.511719 314.863281 51.734375 305.085938 39.679688 305.085938 M 39.679688 350.644531 C 26.578125 350.644531 15.953125 340.019531 15.953125 326.917969 C 15.953125 313.820312 26.589844 303.195312 39.679688 303.195312 C 52.765625 303.195312 63.402344 313.832031 63.402344 326.917969 C 63.402344 340.007812 52.765625 350.644531 39.679688 350.644531 "/></clipPath><clipPath id="7c0a5ed243"><path d="M 18.769531 306 L 60.5 306 L 60.5 347.730469 L 18.769531 347.730469 Z M 18.769531 306 "/></clipPath><clipPath id="73b3186e37"><path d="M 39.785156 325.019531 C 38.738281 325.019531 37.882812 325.875 37.882812 326.917969 C 37.882812 327.964844 38.738281 328.820312 39.785156 328.820312 C 40.828125 328.820312 41.6875 327.964844 41.6875 326.917969 C 41.6875 325.875 40.828125 325.019531 39.785156 325.019531 M 39.785156 330.617188 C 37.695312 330.617188 35.992188 328.914062 35.992188 326.824219 C 35.992188 324.734375 37.707031 323.035156 39.785156 323.035156 C 41.863281 323.035156 43.574219 324.746094 43.574219 326.824219 C 43.574219 328.902344 41.863281 330.617188 39.785156 330.617188 M 18.902344 325.96875 L 21.554688 325.96875 L 21.554688 327.871094 L 18.902344 327.871094 Z M 57.816406 325.96875 L 60.46875 325.96875 L 60.46875 327.871094 L 57.816406 327.871094 Z M 38.738281 345.042969 L 40.640625 345.042969 L 40.640625 347.695312 L 38.738281 347.695312 Z M 38.738281 306.128906 L 40.640625 306.128906 L 40.640625 308.78125 L 38.738281 308.78125 Z M 38.738281 306.128906 "/></clipPath><clipPath id="623e0f7342"><path d="M 41 312.246094 L 54.539062 312.246094 L 54.539062 325.871094 L 41 325.871094 Z M 41 312.246094 "/></clipPath><clipPath id="93bfb531df"><path d="M 41.109375 324.242188 L 52.921875 312.433594 L 54.257812 313.773438 L 42.449219 325.59375 Z M 41.109375 324.242188 "/></clipPath><clipPath id="e93b755c58"><path d="M 38.738281 329.667969 L 40.640625 329.667969 L 40.640625 339.152344 L 38.738281 339.152344 Z M 38.738281 329.667969 "/></clipPath><clipPath id="10ed24ae52"><path d="M 26.71875 314 L 40.628906 314 L 40.628906 327.574219 L 26.71875 327.574219 Z M 26.71875 314 "/></clipPath><clipPath id="0cba4c7e72"><path d="M 26.953125 315.390625 L 28.292969 314.054688 L 40.441406 326.191406 L 39.101562 327.53125 Z M 26.953125 315.390625 "/></clipPath><clipPath id="e6ada6d386"><path d="M 16.25 10.007812 L 62.160156 10.007812 L 62.160156 70.996094 L 16.25 70.996094 Z M 16.25 10.007812 "/></clipPath><clipPath id="5350c463a0"><path d="M 39.207031 10.027344 C 35.625 10.027344 32.703125 12.949219 32.703125 16.53125 C 32.703125 18.703125 33.796875 20.617188 35.4375 21.800781 L 16.386719 62.617188 L 16.375 62.628906 L 16.375 62.640625 C 16.304688 62.78125 16.28125 62.921875 16.28125 63.074219 L 16.28125 69.917969 C 16.28125 70.484375 16.738281 70.953125 17.3125 70.953125 L 61.113281 70.953125 C 61.675781 70.953125 62.144531 70.496094 62.144531 69.917969 L 62.144531 63.085938 C 62.144531 62.945312 62.109375 62.804688 62.0625 62.675781 C 62.0625 62.664062 62.050781 62.652344 62.050781 62.652344 L 62.050781 62.640625 L 42.988281 21.800781 C 44.628906 20.617188 45.722656 18.703125 45.722656 16.53125 C 45.710938 12.949219 42.789062 10.027344 39.207031 10.027344 Z M 39.207031 10.027344 "/></clipPath><clipPath id="913c532642"><path d="M 18.726562 22.609375 L 59.683594 22.609375 L 59.683594 62.21875 L 18.726562 62.21875 Z M 18.726562 22.609375 "/></clipPath><clipPath id="3922a0d195"><path d="M 37.269531 22.707031 C 37.878906 22.894531 38.527344 23.035156 39.195312 23.035156 C 39.863281 23.035156 40.511719 22.894531 41.132812 22.707031 L 53.164062 48.496094 C 51.34375 48.894531 49.84375 50.257812 49.3125 52.109375 C 48.691406 54.316406 49.609375 56.675781 51.542969 57.886719 C 53.375 59.011719 55.699219 58.847656 57.367188 57.523438 L 59.480469 62.066406 L 31.578125 62.066406 C 31.847656 61.550781 32.011719 60.972656 32.011719 60.351562 C 32.011719 58.285156 30.308594 56.582031 28.242188 56.582031 C 26.175781 56.582031 24.488281 58.285156 24.488281 60.351562 C 24.488281 60.972656 24.652344 61.550781 24.921875 62.066406 L 18.910156 62.066406 Z M 37.269531 22.707031 "/></clipPath><clipPath id="4e5cffca82"><path d="M 36.730469 31.835938 L 44.378906 31.835938 L 44.378906 39.488281 L 36.730469 39.488281 Z M 36.730469 31.835938 "/></clipPath><clipPath id="eed13f3125"><path d="M 40.570312 31.945312 C 38.503906 31.945312 36.800781 33.644531 36.800781 35.710938 C 36.800781 37.777344 38.503906 39.480469 40.570312 39.480469 C 42.636719 39.480469 44.335938 37.777344 44.335938 35.710938 C 44.335938 33.644531 42.636719 31.945312 40.570312 31.945312 "/></clipPath><clipPath id="24f9921815"><path d="M 38.753906 33.863281 L 42.355469 33.863281 L 42.355469 37.464844 L 38.753906 37.464844 Z M 38.753906 33.863281 "/></clipPath><clipPath id="ed2bbc66f8"><path d="M 40.570312 33.996094 C 41.53125 33.996094 42.28125 34.75 42.28125 35.710938 C 42.28125 36.675781 41.53125 37.425781 40.570312 37.425781 C 39.605469 37.425781 38.855469 36.675781 38.855469 35.710938 C 38.855469 34.75 39.605469 33.996094 40.570312 33.996094 "/></clipPath><clipPath id="f39131cf48"><path d="M 32.679688 42.863281 L 43 42.863281 L 43 53.214844 L 32.679688 53.214844 Z M 32.679688 42.863281 "/></clipPath><clipPath id="09fdf6c0aa"><path d="M 37.832031 42.894531 C 35.015625 42.894531 32.703125 45.207031 32.703125 48.027344 C 32.703125 50.84375 35.015625 53.15625 37.832031 53.15625 C 40.652344 53.15625 42.964844 50.84375 42.964844 48.027344 C 42.964844 45.207031 40.664062 42.894531 37.832031 42.894531 "/></clipPath><clipPath id="88dd14beae"><path d="M 34.703125 44.890625 L 41 44.890625 L 41 51.191406 L 34.703125 51.191406 Z M 34.703125 44.890625 "/></clipPath><clipPath id="37006fef5d"><path d="M 37.832031 44.949219 C 39.546875 44.949219 40.910156 46.3125 40.910156 48.027344 C 40.910156 49.738281 39.546875 51.113281 37.832031 51.113281 C 36.121094 51.113281 34.757812 49.738281 34.757812 48.039062 C 34.757812 46.335938 36.121094 44.960938 37.832031 44.960938 "/></clipPath><clipPath id="bb9da9ba57"><path d="M 51.132812 50.289062 L 56.53125 50.289062 L 56.53125 56.589844 L 51.132812 56.589844 Z M 51.132812 50.289062 "/></clipPath><clipPath id="640ff98113"><path d="M 54.070312 50.433594 L 56.488281 55.621094 C 56.417969 55.667969 56.347656 55.714844 56.289062 55.773438 C 55.277344 56.710938 53.796875 56.855469 52.636719 56.136719 C 51.472656 55.421875 50.921875 54 51.296875 52.675781 C 51.660156 51.394531 52.777344 50.515625 54.070312 50.445312 "/></clipPath><clipPath id="6b7585d20b"><path d="M 26.378906 58.617188 L 29.976562 58.617188 L 29.976562 62.21875 L 26.378906 62.21875 Z M 26.378906 58.617188 "/></clipPath><clipPath id="8dc971ffea"><path d="M 28.253906 58.636719 C 29.21875 58.636719 29.96875 59.390625 29.96875 60.351562 C 29.96875 61.316406 29.21875 62.066406 28.253906 62.066406 C 27.292969 62.066406 26.539062 61.316406 26.539062 60.351562 C 26.539062 59.390625 27.292969 58.636719 28.253906 58.636719 "/></clipPath><clipPath id="881f7287c4"><path d="M 34.703125 12.035156 L 43.707031 12.035156 L 43.707031 21 L 34.703125 21 Z M 34.703125 12.035156 "/></clipPath><clipPath id="fd72ad72c8"><path d="M 39.207031 12.082031 C 41.671875 12.082031 43.65625 14.066406 43.65625 16.53125 C 43.65625 18.996094 41.671875 20.980469 39.207031 20.980469 C 36.742188 20.980469 34.757812 18.996094 34.757812 16.53125 C 34.757812 14.066406 36.742188 12.082031 39.207031 12.082031 "/></clipPath><clipPath id="286c41c2e0"><path d="M 18.324219 64.121094 L 60.089844 64.121094 L 60.089844 68.910156 L 18.324219 68.910156 Z M 18.324219 64.121094 "/></clipPath><clipPath id="0e4a760da0"><path d="M 38.078125 12.035156 L 43.707031 12.035156 L 43.707031 21 L 38.078125 21 Z M 38.078125 12.035156 "/></clipPath><clipPath id="052596b865"><path d="M 39.207031 12.082031 C 38.878906 12.082031 38.574219 12.117188 38.269531 12.1875 C 40.273438 12.609375 41.777344 14.382812 41.777344 16.53125 C 41.777344 18.679688 40.285156 20.453125 38.269531 20.875 C 38.574219 20.933594 38.890625 20.980469 39.207031 20.980469 C 41.671875 20.980469 43.65625 18.996094 43.65625 16.53125 C 43.65625 14.066406 41.671875 12.082031 39.207031 12.082031 Z M 39.207031 12.082031 "/></clipPath><clipPath id="0d3833a132"><path d="M 39.203125 22.609375 L 53.382812 22.609375 L 53.382812 58.617188 L 39.203125 58.617188 Z M 39.203125 22.609375 "/></clipPath><clipPath id="dbd7dedd65"><path d="M 41.132812 22.707031 C 40.582031 22.882812 39.992188 22.988281 39.394531 23.011719 L 51.285156 48.484375 C 49.46875 48.882812 47.964844 50.246094 47.4375 52.097656 C 46.8125 54.304688 47.730469 56.664062 49.667969 57.875 C 50.769531 58.554688 52.0625 58.753906 53.269531 58.519531 C 52.671875 58.414062 52.085938 58.203125 51.554688 57.875 C 49.621094 56.664062 48.703125 54.304688 49.324219 52.097656 C 49.84375 50.246094 51.355469 48.882812 53.175781 48.484375 Z M 41.132812 22.707031 "/></clipPath><clipPath id="b7bd91e2b5"><path d="M 22.550781 56.367188 L 27.503906 56.367188 L 27.503906 62.21875 L 22.550781 62.21875 Z M 22.550781 56.367188 "/></clipPath><clipPath id="a48b1daa69"><path d="M 26.363281 56.582031 C 24.296875 56.582031 22.597656 58.285156 22.597656 60.351562 C 22.597656 60.972656 22.761719 61.550781 23.03125 62.066406 L 24.910156 62.066406 C 24.640625 61.550781 24.476562 60.972656 24.476562 60.351562 C 24.476562 58.613281 25.683594 57.148438 27.304688 56.722656 C 27 56.640625 26.691406 56.582031 26.363281 56.582031 Z M 26.363281 56.582031 "/></clipPath><clipPath id="db65a36698"><path d="M 55.859375 57.492188 L 59.683594 57.492188 L 59.683594 62.21875 L 55.859375 62.21875 Z M 55.859375 57.492188 "/></clipPath><clipPath id="8ae8ab441e"><path d="M 57.378906 57.523438 C 56.921875 57.886719 56.40625 58.15625 55.875 58.34375 L 57.613281 62.066406 L 59.492188 62.066406 Z M 57.378906 57.523438 "/></clipPath><clipPath id="ef27415ec8"><path d="M 58.199219 64.121094 L 60.078125 64.121094 L 60.078125 68.910156 L 58.199219 68.910156 Z M 58.199219 64.121094 "/></clipPath><clipPath id="cd0e55be9c"><path d="M 106.664062 36.980469 L 116.347656 36.980469 L 116.347656 46.664062 L 106.664062 46.664062 Z M 106.664062 36.980469 "/></clipPath><clipPath id="4d725afdd9"><path d="M 116.347656 41.816406 C 116.347656 44.492188 114.175781 46.652344 111.511719 46.652344 C 108.847656 46.652344 106.664062 44.492188 106.664062 41.816406 C 106.664062 39.140625 108.835938 36.980469 111.5 36.980469 C 114.164062 36.980469 116.347656 39.152344 116.347656 41.816406 "/></clipPath><clipPath id="43990f7815"><path d="M 107.632812 138.222656 L 117.316406 138.222656 L 117.316406 147.90625 L 107.632812 147.90625 Z M 107.632812 138.222656 "/></clipPath><clipPath id="2b5d046882"><path d="M 117.316406 143.058594 C 117.316406 145.734375 115.144531 147.894531 112.480469 147.894531 C 109.816406 147.894531 107.632812 145.734375 107.632812 143.058594 C 107.632812 140.382812 109.804688 138.222656 112.46875 138.222656 C 115.132812 138.222656 117.316406 140.394531 117.316406 143.058594 "/></clipPath><clipPath id="2915a9f38e"><path d="M 107.632812 239.984375 L 117.316406 239.984375 L 117.316406 249.667969 L 107.632812 249.667969 Z M 107.632812 239.984375 "/></clipPath><clipPath id="aba59c21c6"><path d="M 117.316406 244.820312 C 117.316406 247.496094 115.144531 249.65625 112.480469 249.65625 C 109.816406 249.65625 107.632812 247.496094 107.632812 244.820312 C 107.632812 242.144531 109.804688 239.984375 112.46875 239.984375 C 115.132812 239.984375 117.316406 242.15625 117.316406 244.820312 "/></clipPath><clipPath id="e3dc944c6f"><path d="M 107.632812 330.523438 L 117.316406 330.523438 L 117.316406 340.207031 L 107.632812 340.207031 Z M 107.632812 330.523438 "/></clipPath><clipPath id="2f943de648"><path d="M 117.316406 335.359375 C 117.316406 338.035156 115.144531 340.195312 112.480469 340.195312 C 109.816406 340.195312 107.632812 338.035156 107.632812 335.359375 C 107.632812 332.683594 109.804688 330.523438 112.46875 330.523438 C 115.132812 330.523438 117.316406 332.695312 117.316406 335.359375 "/></clipPath><clipPath id="d467dea725"><path d="M 450.277344 36.945312 L 459.996094 36.945312 L 459.996094 46.664062 L 450.277344 46.664062 Z M 450.277344 36.945312 "/></clipPath><clipPath id="3c52b1a8b9"><path d="M 459.996094 41.800781 C 459.996094 44.484375 457.816406 46.652344 455.140625 46.652344 C 452.46875 46.652344 450.277344 44.484375 450.277344 41.800781 C 450.277344 39.113281 452.457031 36.945312 455.128906 36.945312 C 457.804688 36.945312 459.996094 39.125 459.996094 41.800781 "/></clipPath><clipPath id="0832bb57e8"><path d="M 451.25 138.546875 L 460.96875 138.546875 L 460.96875 148.265625 L 451.25 148.265625 Z M 451.25 138.546875 "/></clipPath><clipPath id="37e6e6d4b7"><path d="M 460.96875 143.402344 C 460.96875 146.089844 458.789062 148.253906 456.113281 148.253906 C 453.441406 148.253906 451.25 146.089844 451.25 143.402344 C 451.25 140.714844 453.429688 138.546875 456.101562 138.546875 C 458.777344 138.546875 460.96875 140.726562 460.96875 143.402344 "/></clipPath><clipPath id="44ebefd5fa"><path d="M 451.25 240.671875 L 460.96875 240.671875 L 460.96875 250.394531 L 451.25 250.394531 Z M 451.25 240.671875 "/></clipPath><clipPath id="9c2dd14a1b"><path d="M 460.96875 245.527344 C 460.96875 248.214844 458.789062 250.382812 456.113281 250.382812 C 453.441406 250.382812 451.25 248.214844 451.25 245.527344 C 451.25 242.839844 453.429688 240.671875 456.101562 240.671875 C 458.777344 240.671875 460.96875 242.851562 460.96875 245.527344 "/></clipPath><clipPath id="c506cc6e25"><path d="M 451.25 331.535156 L 460.96875 331.535156 L 460.96875 341.253906 L 451.25 341.253906 Z M 451.25 331.535156 "/></clipPath><clipPath id="08c759d7f4"><path d="M 460.96875 336.386719 C 460.96875 339.074219 458.789062 341.242188 456.113281 341.242188 C 453.441406 341.242188 451.25 339.074219 451.25 336.386719 C 451.25 333.703125 453.429688 331.535156 456.101562 331.535156 C 458.777344 331.535156 460.96875 333.714844 460.96875 336.386719 "/></clipPath><clipPath id="08b2902e7a"><path d="M 493.664062 314.050781 L 583.9375 314.050781 L 583.9375 349.019531 L 493.664062 349.019531 Z M 493.664062 314.050781 "/></clipPath><clipPath id="2b7e2cb192"><path d="M 493.257812 313.644531 L 584.34375 313.644531 L 584.34375 314.457031 L 493.257812 314.457031 Z M 583.53125 314.457031 L 584.34375 314.457031 L 584.34375 348.613281 L 583.53125 348.613281 Z M 493.257812 314.457031 L 494.070312 314.457031 L 494.070312 348.613281 L 493.257812 348.613281 Z M 493.257812 348.613281 L 584.34375 348.613281 L 584.34375 349.425781 L 493.257812 349.425781 Z M 493.257812 348.613281 "/></clipPath><clipPath id="1c7cc24771"><path d="M 506.378906 112.761719 L 567.628906 112.761719 L 567.628906 165.707031 L 506.378906 165.707031 Z M 506.378906 112.761719 "/></clipPath><clipPath id="d61ae61f0f"><path d="M 537.082031 112.894531 L 506.605469 165.683594 L 567.558594 165.683594 Z M 537.082031 112.894531 "/></clipPath><clipPath id="53bcdde0dd"><path d="M 505.339844 111.464844 L 568.667969 111.464844 L 568.667969 166.484375 L 505.339844 166.484375 Z M 505.339844 111.464844 "/></clipPath><clipPath id="f27ad042f4"><path d="M 537.625 113.199219 L 507.148438 165.988281 L 506.605469 165.683594 L 506.605469 165.058594 L 567.558594 165.058594 L 567.558594 165.683594 L 567.019531 165.988281 L 536.542969 113.199219 L 537.082031 112.894531 L 537.625 113.199219 M 536.542969 112.574219 L 537.082031 111.644531 L 537.625 112.574219 L 568.101562 165.367188 L 568.644531 166.296875 L 505.523438 166.296875 L 506.0625 165.367188 Z M 536.542969 112.574219 "/></clipPath><clipPath id="75b4e64a80"><path d="M 507.113281 213.867188 L 569.746094 213.867188 L 569.746094 276.5 L 507.113281 276.5 Z M 507.113281 213.867188 "/></clipPath><clipPath id="48be223a09"><path d="M 538.429688 276.484375 C 521.171875 276.484375 507.128906 262.441406 507.128906 245.183594 C 507.128906 227.925781 521.171875 213.882812 538.429688 213.882812 C 555.691406 213.882812 569.734375 227.925781 569.734375 245.183594 C 569.734375 262.441406 555.691406 276.484375 538.429688 276.484375 "/></clipPath><clipPath id="2302ea9140"><path d="M 506.230469 213 L 570.632812 213 L 570.632812 277.386719 L 506.230469 277.386719 Z M 506.230469 213 "/></clipPath><clipPath id="664d224880"><path d="M 538.429688 213.257812 C 520.832031 213.257812 506.503906 227.585938 506.503906 245.183594 C 506.503906 262.785156 520.832031 277.109375 538.429688 277.109375 C 556.03125 277.109375 570.355469 262.785156 570.355469 245.183594 C 570.355469 227.585938 556.03125 213.257812 538.429688 213.257812 M 538.429688 214.507812 C 555.371094 214.507812 569.109375 228.242188 569.109375 245.183594 C 569.109375 262.125 555.371094 275.863281 538.429688 275.863281 C 521.492188 275.863281 507.753906 262.125 507.753906 245.183594 C 507.753906 228.242188 521.492188 214.507812 538.429688 214.507812 "/></clipPath><clipPath id="bb6aec8ac2"><path d="M 509.582031 10.671875 L 568.015625 10.671875 L 568.015625 69.105469 L 509.582031 69.105469 Z M 509.582031 10.671875 "/></clipPath><clipPath id="8c2ce99cc1"><path d="M 508.960938 10.046875 L 568.640625 10.046875 L 568.640625 11.296875 L 508.960938 11.296875 Z M 567.390625 11.296875 L 568.640625 11.296875 L 568.640625 68.480469 L 567.390625 68.480469 Z M 508.960938 11.296875 L 510.207031 11.296875 L 510.207031 68.480469 L 508.960938 68.480469 Z M 508.960938 68.480469 L 568.640625 68.480469 L 568.640625 69.730469 L 508.960938 69.730469 Z M 508.960938 68.480469 "/></clipPath></defs><g id="eb34b3a40c"><g clip-rule="nonzero" clip-path="url(#f28fcb2b9e)"><path style=" stroke:none;fill-rule:nonzero;fill:#ffffff;fill-opacity:1;" d="M 0.355469 0 L 594.644531 0 L 594.644531 367.5 L 0.355469 367.5 Z M 0.355469 0 "/></g><g clip-rule="nonzero" clip-path="url(#f7d3a5ff56)"><path style=" stroke:none;fill-rule:nonzero;fill:#ffffff;fill-opacity:1;" d="M 0.355469 0 L 594.234375 0 L 594.234375 367.25 L 0.355469 367.25 Z M 0.355469 0 "/></g><g clip-rule="nonzero" clip-path="url(#943e62a128)"><g clip-rule="nonzero" clip-path="url(#d463370c42)"><path style=" stroke:none;fill-rule:nonzero;fill:#fed0a2;fill-opacity:1;" d="M 5.378906 205.644531 L 78.050781 205.644531 L 78.050781 278.320312 L 5.378906 278.320312 Z M 5.378906 205.644531 "/></g></g><g clip-rule="nonzero" clip-path="url(#bc60eae3db)"><path style=" stroke:none;fill-rule:nonzero;fill:#edf5f7;fill-opacity:1;" d="M 5.378906 205.644531 L 78.050781 205.644531 L 78.050781 278.320312 L 5.378906 278.320312 Z M 5.378906 205.644531 "/></g><g clip-rule="nonzero" clip-path="url(#85ba5917a4)"><g clip-rule="nonzero" clip-path="url(#30c921aa53)"><path style=" stroke:none;fill-rule:nonzero;fill:#6dc387;fill-opacity:1;" d="M 5.378906 205.644531 L 78.050781 205.644531 L 78.050781 278.320312 L 5.378906 278.320312 Z M 5.378906 205.644531 "/></g></g><g clip-rule="nonzero" clip-path="url(#a8f237e559)"><g clip-rule="nonzero" clip-path="url(#50a8342d93)"><path style=" stroke:none;fill-rule:nonzero;fill:#ffe17a;fill-opacity:1;" d="M 5.378906 205.644531 L 78.050781 205.644531 L 78.050781 278.320312 L 5.378906 278.320312 Z M 5.378906 205.644531 "/></g></g><g clip-rule="nonzero" clip-path="url(#6720306465)"><g clip-rule="nonzero" clip-path="url(#74410ee862)"><path style=" stroke:none;fill-rule:nonzero;fill:#515760;fill-opacity:1;" d="M 5.378906 205.644531 L 78.050781 205.644531 L 78.050781 278.320312 L 5.378906 278.320312 Z M 5.378906 205.644531 "/></g></g><g clip-rule="nonzero" clip-path="url(#df4796b402)"><g clip-rule="nonzero" clip-path="url(#c0cf9e3e76)"><path style=" stroke:none;fill-rule:nonzero;fill:#fdb959;fill-opacity:1;" d="M 3.835938 125.738281 L 76.546875 125.738281 L 76.546875 154.375 L 3.835938 154.375 Z M 3.835938 125.738281 "/></g></g><g clip-rule="nonzero" clip-path="url(#2bfeac40bb)"><g clip-rule="nonzero" clip-path="url(#12b3680435)"><path style=" stroke:none;fill-rule:nonzero;fill:#603a16;fill-opacity:1;" d="M 3.835938 125.738281 L 76.546875 125.738281 L 76.546875 154.375 L 3.835938 154.375 Z M 3.835938 125.738281 "/></g></g><g clip-rule="nonzero" clip-path="url(#c28ba9ac2b)"><g clip-rule="nonzero" clip-path="url(#fc6b784d4e)"><path style=" stroke:none;fill-rule:nonzero;fill:#603a16;fill-opacity:1;" d="M 3.835938 125.738281 L 76.546875 125.738281 L 76.546875 154.375 L 3.835938 154.375 Z M 3.835938 125.738281 "/></g></g><g clip-rule="nonzero" clip-path="url(#fe3489d85b)"><g clip-rule="nonzero" clip-path="url(#25ff326715)"><path style=" stroke:none;fill-rule:nonzero;fill:#67ad9c;fill-opacity:1;" d="M 3.441406 290.671875 L 76.113281 290.671875 L 76.113281 363.34375 L 3.441406 363.34375 Z M 3.441406 290.671875 "/></g></g><g clip-rule="nonzero" clip-path="url(#7c7564b117)"><g clip-rule="nonzero" clip-path="url(#e72b4608b1)"><path style=" stroke:none;fill-rule:nonzero;fill:#211d1c;fill-opacity:1;" d="M 3.441406 290.671875 L 76.113281 290.671875 L 76.113281 363.34375 L 3.441406 363.34375 Z M 3.441406 290.671875 "/></g></g><g clip-rule="nonzero" clip-path="url(#b6bf15266c)"><g clip-rule="nonzero" clip-path="url(#fc1aeb2d44)"><path style=" stroke:none;fill-rule:nonzero;fill:#e1e0a6;fill-opacity:1;" d="M 3.441406 290.671875 L 76.113281 290.671875 L 76.113281 363.34375 L 3.441406 363.34375 Z M 3.441406 290.671875 "/></g></g><g clip-rule="nonzero" clip-path="url(#fb8dde5a40)"><g clip-rule="nonzero" clip-path="url(#956a85238d)"><path style=" stroke:none;fill-rule:nonzero;fill:#211d1c;fill-opacity:1;" d="M 3.441406 290.671875 L 76.113281 290.671875 L 76.113281 363.34375 L 3.441406 363.34375 Z M 3.441406 290.671875 "/></g></g><g clip-rule="nonzero" clip-path="url(#7c0a5ed243)"><g clip-rule="nonzero" clip-path="url(#73b3186e37)"><path style=" stroke:none;fill-rule:nonzero;fill:#211d1c;fill-opacity:1;" d="M 3.441406 290.671875 L 76.113281 290.671875 L 76.113281 363.34375 L 3.441406 363.34375 Z M 3.441406 290.671875 "/></g></g><g clip-rule="nonzero" clip-path="url(#623e0f7342)"><g clip-rule="nonzero" clip-path="url(#93bfb531df)"><path style=" stroke:none;fill-rule:nonzero;fill:#211d1c;fill-opacity:1;" d="M 3.441406 290.671875 L 76.113281 290.671875 L 76.113281 363.34375 L 3.441406 363.34375 Z M 3.441406 290.671875 "/></g></g><g clip-rule="nonzero" clip-path="url(#e93b755c58)"><path style=" stroke:none;fill-rule:nonzero;fill:#211d1c;fill-opacity:1;" d="M 3.441406 290.671875 L 76.113281 290.671875 L 76.113281 363.34375 L 3.441406 363.34375 Z M 3.441406 290.671875 "/></g><g clip-rule="nonzero" clip-path="url(#10ed24ae52)"><g clip-rule="nonzero" clip-path="url(#0cba4c7e72)"><path style=" stroke:none;fill-rule:nonzero;fill:#bc3526;fill-opacity:1;" d="M 3.441406 290.671875 L 76.113281 290.671875 L 76.113281 363.34375 L 3.441406 363.34375 Z M 3.441406 290.671875 "/></g></g><g clip-rule="nonzero" clip-path="url(#e6ada6d386)"><g clip-rule="nonzero" clip-path="url(#5350c463a0)"><path style=" stroke:none;fill-rule:nonzero;fill:#3b322d;fill-opacity:1;" d="M 10.398438 4.15625 L 68.007812 4.15625 L 68.007812 76.84375 L 10.398438 76.84375 Z M 10.398438 4.15625 "/></g></g><g clip-rule="nonzero" clip-path="url(#913c532642)"><g clip-rule="nonzero" clip-path="url(#3922a0d195)"><path style=" stroke:none;fill-rule:nonzero;fill:#58c2ad;fill-opacity:1;" d="M 10.398438 4.15625 L 68.007812 4.15625 L 68.007812 76.84375 L 10.398438 76.84375 Z M 10.398438 4.15625 "/></g></g><g clip-rule="nonzero" clip-path="url(#4e5cffca82)"><g clip-rule="nonzero" clip-path="url(#eed13f3125)"><path style=" stroke:none;fill-rule:nonzero;fill:#3b322d;fill-opacity:1;" d="M 10.398438 4.15625 L 68.007812 4.15625 L 68.007812 76.84375 L 10.398438 76.84375 Z M 10.398438 4.15625 "/></g></g><g clip-rule="nonzero" clip-path="url(#24f9921815)"><g clip-rule="nonzero" clip-path="url(#ed2bbc66f8)"><path style=" stroke:none;fill-rule:nonzero;fill:#fbd119;fill-opacity:1;" d="M 10.398438 4.15625 L 68.007812 4.15625 L 68.007812 76.84375 L 10.398438 76.84375 Z M 10.398438 4.15625 "/></g></g><g clip-rule="nonzero" clip-path="url(#f39131cf48)"><g clip-rule="nonzero" clip-path="url(#09fdf6c0aa)"><path style=" stroke:none;fill-rule:nonzero;fill:#3b322d;fill-opacity:1;" d="M 10.398438 4.15625 L 68.007812 4.15625 L 68.007812 76.84375 L 10.398438 76.84375 Z M 10.398438 4.15625 "/></g></g><g clip-rule="nonzero" clip-path="url(#88dd14beae)"><g clip-rule="nonzero" clip-path="url(#37006fef5d)"><path style=" stroke:none;fill-rule:nonzero;fill:#fbd119;fill-opacity:1;" d="M 10.398438 4.15625 L 68.007812 4.15625 L 68.007812 76.84375 L 10.398438 76.84375 Z M 10.398438 4.15625 "/></g></g><g clip-rule="nonzero" clip-path="url(#bb9da9ba57)"><g clip-rule="nonzero" clip-path="url(#640ff98113)"><path style=" stroke:none;fill-rule:nonzero;fill:#fbd119;fill-opacity:1;" d="M 10.398438 4.15625 L 68.007812 4.15625 L 68.007812 76.84375 L 10.398438 76.84375 Z M 10.398438 4.15625 "/></g></g><g clip-rule="nonzero" clip-path="url(#6b7585d20b)"><g clip-rule="nonzero" clip-path="url(#8dc971ffea)"><path style=" stroke:none;fill-rule:nonzero;fill:#fbd119;fill-opacity:1;" d="M 10.398438 4.15625 L 68.007812 4.15625 L 68.007812 76.84375 L 10.398438 76.84375 Z M 10.398438 4.15625 "/></g></g><g clip-rule="nonzero" clip-path="url(#881f7287c4)"><g clip-rule="nonzero" clip-path="url(#fd72ad72c8)"><path style=" stroke:none;fill-rule:nonzero;fill:#f19f4c;fill-opacity:1;" d="M 10.398438 4.15625 L 68.007812 4.15625 L 68.007812 76.84375 L 10.398438 76.84375 Z M 10.398438 4.15625 "/></g></g><g clip-rule="nonzero" clip-path="url(#286c41c2e0)"><path style=" stroke:none;fill-rule:nonzero;fill:#f19f4c;fill-opacity:1;" d="M 10.398438 4.15625 L 68.007812 4.15625 L 68.007812 76.84375 L 10.398438 76.84375 Z M 10.398438 4.15625 "/></g><g clip-rule="nonzero" clip-path="url(#0e4a760da0)"><g clip-rule="nonzero" clip-path="url(#052596b865)"><path style=" stroke:none;fill-rule:nonzero;fill:#c2803b;fill-opacity:1;" d="M 10.398438 4.15625 L 68.007812 4.15625 L 68.007812 76.84375 L 10.398438 76.84375 Z M 10.398438 4.15625 "/></g></g><g clip-rule="nonzero" clip-path="url(#0d3833a132)"><g clip-rule="nonzero" clip-path="url(#dbd7dedd65)"><path style=" stroke:none;fill-rule:nonzero;fill:#29ad93;fill-opacity:1;" d="M 10.398438 4.15625 L 68.007812 4.15625 L 68.007812 76.84375 L 10.398438 76.84375 Z M 10.398438 4.15625 "/></g></g><g clip-rule="nonzero" clip-path="url(#b7bd91e2b5)"><g clip-rule="nonzero" clip-path="url(#a48b1daa69)"><path style=" stroke:none;fill-rule:nonzero;fill:#29ad93;fill-opacity:1;" d="M 10.398438 4.15625 L 68.007812 4.15625 L 68.007812 76.84375 L 10.398438 76.84375 Z M 10.398438 4.15625 "/></g></g><g clip-rule="nonzero" clip-path="url(#db65a36698)"><g clip-rule="nonzero" clip-path="url(#8ae8ab441e)"><path style=" stroke:none;fill-rule:nonzero;fill:#29ad93;fill-opacity:1;" d="M 10.398438 4.15625 L 68.007812 4.15625 L 68.007812 76.84375 L 10.398438 76.84375 Z M 10.398438 4.15625 "/></g></g><g clip-rule="nonzero" clip-path="url(#ef27415ec8)"><path style=" stroke:none;fill-rule:nonzero;fill:#c2803b;fill-opacity:1;" d="M 10.398438 4.15625 L 68.007812 4.15625 L 68.007812 76.84375 L 10.398438 76.84375 Z M 10.398438 4.15625 "/></g><g clip-rule="nonzero" clip-path="url(#cd0e55be9c)"><g clip-rule="nonzero" clip-path="url(#4d725afdd9)"><path style=" stroke:none;fill-rule:nonzero;fill:#00a64d;fill-opacity:1;" d="M 106.664062 36.980469 L 116.347656 36.980469 L 116.347656 46.664062 L 106.664062 46.664062 Z M 106.664062 36.980469 "/></g></g><g clip-rule="nonzero" clip-path="url(#43990f7815)"><g clip-rule="nonzero" clip-path="url(#2b5d046882)"><path style=" stroke:none;fill-rule:nonzero;fill:#00a64d;fill-opacity:1;" d="M 107.632812 138.222656 L 117.316406 138.222656 L 117.316406 147.90625 L 107.632812 147.90625 Z M 107.632812 138.222656 "/></g></g><g clip-rule="nonzero" clip-path="url(#2915a9f38e)"><g clip-rule="nonzero" clip-path="url(#aba59c21c6)"><path style=" stroke:none;fill-rule:nonzero;fill:#00a64d;fill-opacity:1;" d="M 107.632812 239.984375 L 117.316406 239.984375 L 117.316406 249.667969 L 107.632812 249.667969 Z M 107.632812 239.984375 "/></g></g><g clip-rule="nonzero" clip-path="url(#e3dc944c6f)"><g clip-rule="nonzero" clip-path="url(#2f943de648)"><path style=" stroke:none;fill-rule:nonzero;fill:#00a64d;fill-opacity:1;" d="M 107.632812 330.523438 L 117.316406 330.523438 L 117.316406 340.207031 L 107.632812 340.207031 Z M 107.632812 330.523438 "/></g></g><g clip-rule="nonzero" clip-path="url(#d467dea725)"><g clip-rule="nonzero" clip-path="url(#3c52b1a8b9)"><path style=" stroke:none;fill-rule:nonzero;fill:#cd2028;fill-opacity:1;" d="M 450.277344 36.945312 L 459.996094 36.945312 L 459.996094 46.664062 L 450.277344 46.664062 Z M 450.277344 36.945312 "/></g></g><g clip-rule="nonzero" clip-path="url(#0832bb57e8)"><g clip-rule="nonzero" clip-path="url(#37e6e6d4b7)"><path style=" stroke:none;fill-rule:nonzero;fill:#cd2028;fill-opacity:1;" d="M 451.25 138.546875 L 460.96875 138.546875 L 460.96875 148.265625 L 451.25 148.265625 Z M 451.25 138.546875 "/></g></g><g clip-rule="nonzero" clip-path="url(#44ebefd5fa)"><g clip-rule="nonzero" clip-path="url(#9c2dd14a1b)"><path style=" stroke:none;fill-rule:nonzero;fill:#cd2028;fill-opacity:1;" d="M 451.25 240.671875 L 460.96875 240.671875 L 460.96875 250.394531 L 451.25 250.394531 Z M 451.25 240.671875 "/></g></g><g clip-rule="nonzero" clip-path="url(#c506cc6e25)"><g clip-rule="nonzero" clip-path="url(#08c759d7f4)"><path style=" stroke:none;fill-rule:nonzero;fill:#cd2028;fill-opacity:1;" d="M 451.25 331.535156 L 460.96875 331.535156 L 460.96875 341.253906 L 451.25 341.253906 Z M 451.25 331.535156 "/></g></g><g clip-rule="nonzero" clip-path="url(#08b2902e7a)"><path style=" stroke:none;fill-rule:nonzero;fill:#4dab47;fill-opacity:1;" d="M 489.421875 309.808594 L 588.203125 309.808594 L 588.203125 353.257812 L 489.421875 353.257812 Z M 489.421875 309.808594 "/></g><g clip-rule="nonzero" clip-path="url(#2b7e2cb192)"><path style=" stroke:none;fill-rule:nonzero;fill:#231f20;fill-opacity:1;" d="M 489.421875 309.808594 L 588.203125 309.808594 L 588.203125 353.257812 L 489.421875 353.257812 Z M 489.421875 309.808594 "/></g><g clip-rule="nonzero" clip-path="url(#1c7cc24771)"><g clip-rule="nonzero" clip-path="url(#d61ae61f0f)"><path style=" stroke:none;fill-rule:nonzero;fill:#4dab47;fill-opacity:1;" d="M 499.632812 105.753906 L 574.636719 105.753906 L 574.636719 172.195312 L 499.632812 172.195312 Z M 499.632812 105.753906 "/></g></g><g clip-rule="nonzero" clip-path="url(#53bcdde0dd)"><g clip-rule="nonzero" clip-path="url(#f27ad042f4)"><path style=" stroke:none;fill-rule:nonzero;fill:#231f20;fill-opacity:1;" d="M 499.632812 105.753906 L 574.636719 105.753906 L 574.636719 172.195312 L 499.632812 172.195312 Z M 499.632812 105.753906 "/></g></g><g clip-rule="nonzero" clip-path="url(#75b4e64a80)"><g clip-rule="nonzero" clip-path="url(#48be223a09)"><path style=" stroke:none;fill-rule:nonzero;fill:#4dab47;fill-opacity:1;" d="M 500.617188 207.367188 L 576.246094 207.367188 L 576.246094 283 L 500.617188 283 Z M 500.617188 207.367188 "/></g></g><g clip-rule="nonzero" clip-path="url(#2302ea9140)"><g clip-rule="nonzero" clip-path="url(#664d224880)"><path style=" stroke:none;fill-rule:nonzero;fill:#231f20;fill-opacity:1;" d="M 500.617188 207.367188 L 576.246094 207.367188 L 576.246094 283 L 500.617188 283 Z M 500.617188 207.367188 "/></g></g><g clip-rule="nonzero" clip-path="url(#bb6aec8ac2)"><path style=" stroke:none;fill-rule:nonzero;fill:#4dab47;fill-opacity:1;" d="M 503.070312 4.15625 L 574.527344 4.15625 L 574.527344 75.617188 L 503.070312 75.617188 Z M 503.070312 4.15625 "/></g><g clip-rule="nonzero" clip-path="url(#8c2ce99cc1)"><path style=" stroke:none;fill-rule:nonzero;fill:#231f20;fill-opacity:1;" d="M 503.070312 4.15625 L 574.527344 4.15625 L 574.527344 75.617188 L 503.070312 75.617188 Z M 503.070312 4.15625 "/></g></g></svg>