<svg xmlns="http://www.w3.org/2000/svg" xmlns:xlink="http://www.w3.org/1999/xlink" width="600" zoomAndPan="magnify" viewBox="0 0 450 149.999998" height="200" preserveAspectRatio="xMidYMid meet" version="1.2"><defs/><g id="bcf667273f"><rect x="0" width="450" y="0" height="149.999998" style="fill:#ffffff;fill-opacity:1;stroke:none;"/><rect x="0" width="450" y="0" height="149.999998" style="fill:#ffffff;fill-opacity:1;stroke:none;"/><path style="fill-rule:nonzero;fill:#000000;fill-opacity:1;stroke-width:1;stroke-linecap:butt;stroke-linejoin:miter;stroke:#0c7b3b;stroke-opacity:1;stroke-miterlimit:4;" d="M 0.499995 0.999997 L 0.499995 199.000009 M 599.50003 0.999997 L 599.50003 199.000009 M -0.000005 0.499997 L 600.00003 0.499997 M -0.000005 199.500009 L 600.00003 199.500009 " transform="matrix(0.75,0,0,0.75,0.00000375,0.000002)"/><g style="fill:#0c7b3b;fill-opacity:1;"><g transform="translate(198.643492, 109.348325)"><path style="stroke:none" d="M 39.296875 -75.007812 L 4.449219 -30.070312 L 4.449219 -18.238281 L 33.324219 -18.238281 L 33.324219 0 L 49.714844 0 L 49.714844 -18.238281 L 54.710938 -18.238281 L 54.710938 -30.070312 L 49.714844 -30.070312 L 49.714844 -75.007812 Z M 33.324219 -30.070312 L 17.476562 -30.070312 L 33.324219 -50.257812 Z M 33.324219 -30.070312 "/></g></g></g></svg>