<svg xmlns="http://www.w3.org/2000/svg" xmlns:xlink="http://www.w3.org/1999/xlink" width="600" zoomAndPan="magnify" viewBox="0 0 450 149.999998" height="200" preserveAspectRatio="xMidYMid meet" version="1.2"><defs/><g id="c024e8f0ef"><rect x="0" width="450" y="0" height="149.999998" style="fill:#ffffff;fill-opacity:1;stroke:none;"/><rect x="0" width="450" y="0" height="149.999998" style="fill:#ffffff;fill-opacity:1;stroke:none;"/><path style="fill-rule:nonzero;fill:#000000;fill-opacity:1;stroke-width:1;stroke-linecap:butt;stroke-linejoin:miter;stroke:#0c7b3b;stroke-opacity:1;stroke-miterlimit:4;" d="M 0.499995 0.999997 L 0.499995 199.000009 M 599.50003 0.999997 L 599.50003 199.000009 M -0.000005 0.499997 L 600.00003 0.499997 M -0.000005 199.500009 L 600.00003 199.500009 " transform="matrix(0.75,0,0,0.75,0.00000375,0.000002)"/><g style="fill:#0c7b3b;fill-opacity:1;"><g transform="translate(198.643492, 109.348296)"><path style="stroke:none" d="M 10.746094 -74.03125 L 10.746094 -31.804688 C 13.675781 -32.566406 16.71875 -32.890625 19.863281 -32.890625 C 28.441406 -32.890625 34.410156 -28.875 34.410156 -22.253906 C 34.410156 -16.824219 30.070312 -12.050781 22.6875 -12.050781 C 18.78125 -12.050781 13.570312 -12.917969 6.949219 -16.5 L 6.949219 -3.039062 C 10.636719 -0.867188 18.671875 0.976562 24.859375 0.976562 C 42.550781 0.976562 51.671875 -9.007812 51.671875 -23.121094 C 51.671875 -36.039062 41.574219 -45.375 28.441406 -45.375 C 27.246094 -45.375 26.378906 -45.265625 25.507812 -45.265625 L 25.507812 -59.160156 L 49.171875 -59.160156 L 49.171875 -74.03125 Z M 10.746094 -74.03125 "/></g></g></g></svg>