<svg xmlns="http://www.w3.org/2000/svg" xmlns:xlink="http://www.w3.org/1999/xlink" width="600" zoomAndPan="magnify" viewBox="0 0 450 149.999998" height="200" preserveAspectRatio="xMidYMid meet" version="1.2"><defs><clipPath id="d98cf23992"><path d="M 166.519531 0 L 281.269531 0 L 281.269531 40.5 L 166.519531 40.5 Z M 166.519531 0 "/></clipPath><clipPath id="b16181cbab"><path d="M 179.25 4.988281 L 210.734375 4.988281 L 210.734375 35.339844 L 179.25 35.339844 Z M 179.25 4.988281 "/></clipPath><clipPath id="59e591df70"><path d="M 166.519531 47.214844 L 281.269531 47.214844 L 281.269531 87.714844 L 166.519531 87.714844 Z M 166.519531 47.214844 "/></clipPath><clipPath id="9759be470d"><path d="M 246.941406 61.394531 L 257.441406 61.394531 L 257.441406 74 L 246.941406 74 Z M 246.941406 61.394531 "/></clipPath><clipPath id="08b7f7ef90"><path d="M 249 74 L 254 74 L 254 78.644531 L 249 78.644531 Z M 249 74 "/></clipPath><clipPath id="4dd916d2a5"><path d="M 236.378906 4.988281 L 267.863281 4.988281 L 267.863281 35.339844 L 236.378906 35.339844 Z M 236.378906 4.988281 "/></clipPath><clipPath id="54e899628c"><path d="M 179.25 52.199219 L 210.734375 52.199219 L 210.734375 82.554688 L 179.25 82.554688 Z M 179.25 52.199219 "/></clipPath><clipPath id="044cda4818"><path d="M 130.585938 99.34375 L 321 99.34375 L 321 132 L 130.585938 132 Z M 130.585938 99.34375 "/></clipPath><clipPath id="6305a8dc62"><path d="M 130.585938 99.34375 L 321 99.34375 L 321 132.34375 L 130.585938 132.34375 Z M 130.585938 99.34375 "/></clipPath><clipPath id="b67bd7bfa9"><path d="M 130.585938 135 L 321 135 L 321 148 L 130.585938 148 Z M 130.585938 135 "/></clipPath><clipPath id="43136950e1"><path d="M 235.65625 103.050781 L 261.15625 103.050781 L 261.15625 128.550781 L 235.65625 128.550781 Z M 235.65625 103.050781 "/></clipPath><clipPath id="0a3a3d466d"><path d="M 186.964844 103.582031 L 211.714844 103.582031 L 211.714844 128 L 186.964844 128 Z M 186.964844 103.582031 "/></clipPath><clipPath id="d23198b0e2"><path d="M 143.507812 104.1875 L 168.207031 104.1875 L 168.207031 128.535156 L 143.507812 128.535156 Z M 143.507812 104.1875 "/></clipPath><clipPath id="acadde49c9"><path d="M 283.75 103.226562 L 308.449219 103.226562 L 308.449219 127.574219 L 283.75 127.574219 Z M 283.75 103.226562 "/></clipPath></defs><g id="297d16fd37"><rect x="0" width="450" y="0" height="149.999998" style="fill:#ffffff;fill-opacity:1;stroke:none;"/><rect x="0" width="450" y="0" height="149.999998" style="fill:#ffffff;fill-opacity:1;stroke:none;"/><g clip-rule="nonzero" clip-path="url(#d98cf23992)"><path style="fill-rule:nonzero;fill:#000000;fill-opacity:1;stroke-width:0.528162;stroke-linecap:butt;stroke-linejoin:miter;stroke:#000000;stroke-opacity:1;stroke-miterlimit:4;" d="M 0.262716 0.526039 L 0.262716 53.239584 M 77.017929 0.526039 L 77.017929 53.239584 M 152.710641 0.526039 L 152.710641 53.239584 M 0.00229922 0.265622 L 152.976266 0.265622 M 0.00229922 53.505209 L 152.976266 53.505209 " transform="matrix(0.75,0,0,0.75,166.517807,0.000002)"/></g><g clip-rule="nonzero" clip-path="url(#b16181cbab)"><path style=" stroke:none;fill-rule:nonzero;fill:#ff3131;fill-opacity:1;" d="M 179.25 4.988281 L 210.789062 4.988281 L 210.789062 35.339844 L 179.25 35.339844 Z M 179.25 4.988281 "/></g><g clip-rule="nonzero" clip-path="url(#59e591df70)"><path style="fill-rule:nonzero;fill:#000000;fill-opacity:1;stroke-width:0.528162;stroke-linecap:butt;stroke-linejoin:miter;stroke:#000000;stroke-opacity:1;stroke-miterlimit:4;" d="M 0.262716 0.526669 L 0.262716 53.240213 M 77.017929 0.526669 L 77.017929 53.240213 M 152.710641 0.526669 L 152.710641 53.240213 M 0.00229922 0.266252 L 152.976266 0.266252 M 0.00229922 53.505838 L 152.976266 53.505838 " transform="matrix(0.75,0,0,0.75,166.517807,47.214374)"/></g><g clip-rule="nonzero" clip-path="url(#9759be470d)"><path style=" stroke:none;fill-rule:nonzero;fill:#000000;fill-opacity:1;" d="M 256.746094 63.394531 C 256.296875 62.746094 255.671875 62.25 254.878906 61.90625 C 254.089844 61.566406 253.175781 61.394531 252.140625 61.394531 C 251.203125 61.394531 250.34375 61.5625 249.566406 61.902344 C 248.789062 62.234375 248.164062 62.75 247.691406 63.429688 C 247.316406 63.972656 247.082031 64.625 246.988281 65.394531 C 246.945312 65.730469 247.210938 66.027344 247.542969 66.027344 L 249.625 66.027344 C 249.890625 66.027344 250.117188 65.835938 250.175781 65.574219 C 250.226562 65.339844 250.3125 65.128906 250.433594 64.949219 C 250.625 64.660156 250.871094 64.441406 251.171875 64.292969 C 251.472656 64.144531 251.789062 64.066406 252.128906 64.066406 C 252.476562 64.066406 252.792969 64.140625 253.082031 64.289062 C 253.371094 64.433594 253.597656 64.644531 253.769531 64.917969 C 253.941406 65.1875 254.027344 65.503906 254.027344 65.863281 C 254.027344 66.207031 253.953125 66.511719 253.800781 66.785156 C 253.652344 67.058594 253.449219 67.3125 253.195312 67.535156 C 252.9375 67.761719 252.65625 67.976562 252.332031 68.1875 C 251.902344 68.460938 251.535156 68.761719 251.230469 69.097656 C 250.921875 69.433594 250.691406 69.871094 250.53125 70.414062 C 250.375 70.960938 250.292969 71.6875 250.289062 72.601562 L 250.289062 73.058594 C 250.289062 73.367188 250.539062 73.625 250.847656 73.625 L 252.679688 73.625 C 252.988281 73.625 253.242188 73.371094 253.242188 73.058594 L 253.242188 72.601562 C 253.246094 72.089844 253.3125 71.65625 253.4375 71.308594 C 253.566406 70.960938 253.761719 70.648438 254.019531 70.382812 C 254.285156 70.117188 254.617188 69.863281 255.03125 69.613281 C 255.519531 69.320312 255.9375 68.996094 256.296875 68.628906 C 256.65625 68.265625 256.933594 67.84375 257.136719 67.371094 C 257.335938 66.898438 257.4375 66.355469 257.4375 65.746094 C 257.425781 64.828125 257.199219 64.042969 256.746094 63.394531 Z M 256.746094 63.394531 "/></g><g clip-rule="nonzero" clip-path="url(#08b7f7ef90)"><path style=" stroke:none;fill-rule:nonzero;fill:#000000;fill-opacity:1;" d="M 251.820312 74.894531 C 251.300781 74.894531 250.859375 75.078125 250.492188 75.441406 C 250.128906 75.808594 249.945312 76.25 249.953125 76.761719 C 249.945312 77.277344 250.128906 77.722656 250.492188 78.09375 C 250.859375 78.460938 251.300781 78.644531 251.820312 78.644531 C 252.152344 78.644531 252.460938 78.558594 252.738281 78.386719 C 253.019531 78.214844 253.242188 77.992188 253.417969 77.707031 C 253.59375 77.417969 253.679688 77.105469 253.683594 76.761719 C 253.679688 76.246094 253.488281 75.808594 253.117188 75.441406 C 252.746094 75.078125 252.3125 74.894531 251.820312 74.894531 Z M 251.820312 74.894531 "/></g><g clip-rule="nonzero" clip-path="url(#4dd916d2a5)"><path style=" stroke:none;fill-rule:nonzero;fill:#ff3131;fill-opacity:1;" d="M 236.378906 4.988281 L 267.917969 4.988281 L 267.917969 35.339844 L 236.378906 35.339844 Z M 236.378906 4.988281 "/></g><g clip-rule="nonzero" clip-path="url(#54e899628c)"><path style=" stroke:none;fill-rule:nonzero;fill:#ff3131;fill-opacity:1;" d="M 179.25 52.199219 L 210.789062 52.199219 L 210.789062 82.554688 L 179.25 82.554688 Z M 179.25 52.199219 "/></g><g clip-rule="nonzero" clip-path="url(#044cda4818)"><path style=" stroke:none;fill-rule:nonzero;fill:#000000;fill-opacity:1;" d="M 130.910156 100 L 130.910156 131.585938 M 178.046875 100 L 178.046875 131.585938 M 224.554688 100 L 224.554688 131.585938 M 272.320312 100 L 272.320312 131.585938 M 320.089844 100 L 320.089844 131.585938 M 130.585938 99.671875 L 320.414062 99.671875 M 130.585938 131.914062 L 320.414062 131.914062 "/></g><g clip-rule="nonzero" clip-path="url(#6305a8dc62)"><path style="fill:none;stroke-width:0.871773;stroke-linecap:butt;stroke-linejoin:miter;stroke:#000000;stroke-opacity:1;stroke-miterlimit:4;" d="M 0.434282 0.874238 L 0.434282 42.988823 M 63.283244 0.874238 L 63.283244 42.988823 M 125.293664 0.874238 L 125.293664 42.988823 M 188.981168 0.874238 L 188.981168 42.988823 M 252.67388 0.874238 L 252.67388 42.988823 M 0.00199009 0.436738 L 253.106172 0.436738 M 0.00199009 43.426323 L 253.106172 43.426323 " transform="matrix(0.75,0,0,0.75,130.584445,99.344322)"/></g><g clip-rule="nonzero" clip-path="url(#b67bd7bfa9)"><path style="fill-rule:nonzero;fill:#000000;fill-opacity:1;stroke-width:0.871773;stroke-linecap:butt;stroke-linejoin:miter;stroke:#000000;stroke-opacity:1;stroke-miterlimit:4;" d="M 0.434282 0.873408 L 0.434282 16.347367 M 63.585327 0.873408 L 63.585327 16.347367 M 124.694706 0.873408 L 124.694706 16.347367 M 188.949918 0.873408 L 188.949918 16.347367 M 252.67388 0.873408 L 252.67388 16.347367 M 0.00199009 0.435908 L 253.106172 0.435908 M 0.00199009 16.779659 L 253.106172 16.779659 " transform="matrix(0.75,0,0,0.75,130.584445,135.001194)"/></g><g style="fill:#000000;fill-opacity:1;"><g transform="translate(199.173566, 143.417893)"><path style="stroke:none" d="M 0.28125 0 L 0.28125 -0.765625 L 1.421875 -1.84375 C 1.765625 -2.175781 2.035156 -2.476562 2.234375 -2.75 C 2.429688 -3.03125 2.566406 -3.316406 2.640625 -3.609375 C 2.722656 -3.898438 2.765625 -4.234375 2.765625 -4.609375 C 2.765625 -5.046875 2.710938 -5.363281 2.609375 -5.5625 C 2.503906 -5.757812 2.328125 -5.859375 2.078125 -5.859375 C 1.890625 -5.859375 1.742188 -5.800781 1.640625 -5.6875 C 1.546875 -5.570312 1.476562 -5.378906 1.4375 -5.109375 C 1.394531 -4.847656 1.375 -4.484375 1.375 -4.015625 C 1.0625 -4.015625 0.804688 -4.078125 0.609375 -4.203125 C 0.410156 -4.328125 0.3125 -4.523438 0.3125 -4.796875 C 0.3125 -5.117188 0.460938 -5.390625 0.765625 -5.609375 C 1.078125 -5.828125 1.53125 -5.9375 2.125 -5.9375 C 2.738281 -5.9375 3.203125 -5.816406 3.515625 -5.578125 C 3.835938 -5.335938 4 -5 4 -4.5625 C 4 -4.375 3.960938 -4.191406 3.890625 -4.015625 C 3.828125 -3.835938 3.707031 -3.644531 3.53125 -3.4375 C 3.351562 -3.226562 3.113281 -2.988281 2.8125 -2.71875 C 2.519531 -2.457031 2.144531 -2.148438 1.6875 -1.796875 L 0.546875 -0.90625 L 3.3125 -0.90625 C 3.570312 -0.90625 3.757812 -0.941406 3.875 -1.015625 C 4 -1.097656 4.070312 -1.25 4.09375 -1.46875 L 4.125 -1.71875 L 4.203125 -1.71875 L 4.15625 0 Z M 0.28125 0 "/></g></g><g style="fill:#000000;fill-opacity:1;"><g transform="translate(247.390595, 143.417893)"><path style="stroke:none" d="M 1.984375 0.078125 C 1.378906 0.078125 0.9375 -0.0195312 0.65625 -0.21875 C 0.375 -0.414062 0.234375 -0.644531 0.234375 -0.90625 C 0.234375 -1.113281 0.300781 -1.269531 0.4375 -1.375 C 0.570312 -1.488281 0.734375 -1.546875 0.921875 -1.546875 C 0.921875 -1.140625 0.960938 -0.828125 1.046875 -0.609375 C 1.140625 -0.390625 1.257812 -0.234375 1.40625 -0.140625 C 1.5625 -0.046875 1.738281 0 1.9375 0 C 2.289062 0 2.546875 -0.132812 2.703125 -0.40625 C 2.859375 -0.675781 2.9375 -1.066406 2.9375 -1.578125 C 2.9375 -1.941406 2.894531 -2.222656 2.8125 -2.421875 C 2.726562 -2.628906 2.585938 -2.773438 2.390625 -2.859375 C 2.191406 -2.941406 1.9375 -2.984375 1.625 -2.984375 L 1.171875 -2.984375 L 1.171875 -3.0625 L 1.625 -3.0625 C 1.914062 -3.0625 2.140625 -3.109375 2.296875 -3.203125 C 2.460938 -3.296875 2.578125 -3.445312 2.640625 -3.65625 C 2.710938 -3.863281 2.75 -4.140625 2.75 -4.484375 C 2.75 -4.984375 2.6875 -5.335938 2.5625 -5.546875 C 2.445312 -5.753906 2.28125 -5.859375 2.0625 -5.859375 C 1.769531 -5.859375 1.578125 -5.707031 1.484375 -5.40625 C 1.398438 -5.113281 1.359375 -4.703125 1.359375 -4.171875 C 1.023438 -4.171875 0.765625 -4.226562 0.578125 -4.34375 C 0.390625 -4.457031 0.296875 -4.640625 0.296875 -4.890625 C 0.296875 -5.179688 0.445312 -5.425781 0.75 -5.625 C 1.0625 -5.832031 1.515625 -5.9375 2.109375 -5.9375 C 2.691406 -5.9375 3.148438 -5.816406 3.484375 -5.578125 C 3.828125 -5.347656 4 -5.007812 4 -4.5625 C 4 -4.332031 3.941406 -4.109375 3.828125 -3.890625 C 3.710938 -3.671875 3.519531 -3.484375 3.25 -3.328125 C 2.988281 -3.179688 2.628906 -3.085938 2.171875 -3.046875 C 2.828125 -3.046875 3.328125 -2.921875 3.671875 -2.671875 C 4.023438 -2.429688 4.203125 -2.0625 4.203125 -1.5625 C 4.203125 -1.164062 4.097656 -0.847656 3.890625 -0.609375 C 3.679688 -0.367188 3.40625 -0.191406 3.0625 -0.078125 C 2.726562 0.0234375 2.367188 0.078125 1.984375 0.078125 Z M 1.984375 0.078125 "/></g></g><g style="fill:#000000;fill-opacity:1;"><g transform="translate(151.272885, 143.417893)"><path style="stroke:none" d="M 0.796875 0 L 0.796875 -0.078125 L 1.46875 -0.078125 C 1.601562 -0.078125 1.703125 -0.113281 1.765625 -0.1875 C 1.835938 -0.269531 1.875 -0.410156 1.875 -0.609375 L 1.875 -5.21875 C 1.625 -4.863281 1.425781 -4.609375 1.28125 -4.453125 C 1.132812 -4.296875 0.988281 -4.21875 0.84375 -4.21875 C 0.695312 -4.21875 0.578125 -4.257812 0.484375 -4.34375 C 0.390625 -4.4375 0.34375 -4.578125 0.34375 -4.765625 C 0.613281 -4.773438 0.835938 -4.800781 1.015625 -4.84375 C 1.203125 -4.882812 1.375 -4.960938 1.53125 -5.078125 C 1.695312 -5.191406 1.894531 -5.363281 2.125 -5.59375 L 2.421875 -5.890625 L 3.09375 -5.890625 L 3.09375 -0.609375 C 3.09375 -0.441406 3.117188 -0.3125 3.171875 -0.21875 C 3.234375 -0.125 3.347656 -0.078125 3.515625 -0.078125 L 4.1875 -0.078125 L 4.1875 0 Z M 0.796875 0 "/></g></g><g style="fill:#000000;fill-opacity:1;"><g transform="translate(294.473982, 143.417893)"><path style="stroke:none" d="M 1.46875 0 L 1.46875 -0.078125 L 1.703125 -0.078125 C 1.890625 -0.078125 2.046875 -0.109375 2.171875 -0.171875 C 2.304688 -0.242188 2.375 -0.410156 2.375 -0.671875 L 2.375 -1.53125 L 0.109375 -1.53125 L 0.109375 -2.03125 L 2.4375 -5.859375 L 3.578125 -5.859375 L 3.578125 -2.0625 L 4.421875 -2.0625 L 4.421875 -1.53125 L 3.578125 -1.53125 L 3.578125 -0.671875 C 3.578125 -0.410156 3.640625 -0.242188 3.765625 -0.171875 C 3.898438 -0.109375 4.0625 -0.078125 4.25 -0.078125 L 4.359375 -0.078125 L 4.359375 0 Z M 0.234375 -2.0625 L 2.375 -2.0625 L 2.375 -3.875 C 2.375 -4.175781 2.375 -4.488281 2.375 -4.8125 C 2.375 -5.132812 2.378906 -5.414062 2.390625 -5.65625 C 2.359375 -5.601562 2.304688 -5.519531 2.234375 -5.40625 C 2.171875 -5.289062 2.097656 -5.164062 2.015625 -5.03125 C 1.941406 -4.894531 1.867188 -4.769531 1.796875 -4.65625 C 1.722656 -4.539062 1.664062 -4.445312 1.625 -4.375 Z M 0.234375 -2.0625 "/></g></g><g clip-rule="nonzero" clip-path="url(#43136950e1)"><path style=" stroke:none;fill-rule:nonzero;fill:#004aad;fill-opacity:1;" d="M 248.394531 128.527344 C 241.390625 128.527344 235.65625 122.792969 235.65625 115.789062 C 235.65625 108.78125 241.390625 103.050781 248.394531 103.050781 C 255.402344 103.050781 261.132812 108.78125 261.132812 115.789062 C 261.132812 122.792969 255.402344 128.527344 248.394531 128.527344 Z M 248.394531 128.527344 "/></g><g clip-rule="nonzero" clip-path="url(#0a3a3d466d)"><path style=" stroke:none;fill-rule:nonzero;fill:#ff3131;fill-opacity:1;" d="M 199.171875 127.992188 C 192.457031 127.992188 186.964844 122.5 186.964844 115.789062 C 186.964844 109.074219 192.457031 103.582031 199.171875 103.582031 C 205.882812 103.582031 211.375 109.074219 211.375 115.789062 C 211.375 122.5 205.882812 127.992188 199.171875 127.992188 Z M 199.171875 127.992188 "/></g><g clip-rule="nonzero" clip-path="url(#d23198b0e2)"><path style=" stroke:none;fill-rule:nonzero;fill:#ff3131;fill-opacity:1;" d="M 143.507812 104.1875 L 168.234375 104.1875 L 168.234375 128.535156 L 143.507812 128.535156 Z M 143.507812 104.1875 "/></g><g clip-rule="nonzero" clip-path="url(#acadde49c9)"><path style=" stroke:none;fill-rule:nonzero;fill:#004aad;fill-opacity:1;" d="M 283.75 103.226562 L 308.476562 103.226562 L 308.476562 127.574219 L 283.75 127.574219 Z M 283.75 103.226562 "/></g></g></svg>