<?xml version="1.0" encoding="utf-8"?>
<!-- Generator: Adobe Illustrator 25.2.0, SVG Export Plug-In . SVG Version: 6.00 Build 0)  -->
<svg version="1.1" id="Layer_1" xmlns="http://www.w3.org/2000/svg" xmlns:xlink="http://www.w3.org/1999/xlink" x="0px" y="0px"
	 viewBox="0 0 595.3 420.9" style="enable-background:new 0 0 595.3 420.9;" xml:space="preserve">
<style type="text/css">
	.st0{fill:#FFFFFF;}
	.st1{fill:none;stroke:#020202;stroke-width:0.8889;stroke-miterlimit:10;}
	.st2{fill:#231F20;}
	.st3{font-family:'SFCompactRounded-Medium';}
	.st4{font-size:47.4093px;}
</style>
<g>
	
		<image style="overflow:visible;" width="1529" height="1716" xlink:href="B3D127CA.png"  transform="matrix(-4.391662e-02 0 0 4.441900e-02 107.9636 92.3618)">
	</image>
	
		<image style="overflow:visible;" width="394" height="406" xlink:href="B3D127CE.png"  transform="matrix(-8.819649e-02 2.912689e-02 2.912689e-02 8.819649e-02 556.786 134.1079)">
	</image>
	
		<image style="overflow:visible;" width="394" height="406" xlink:href="B3D127C9.png"  transform="matrix(-0.1147 2.569578e-02 2.569578e-02 0.1147 569.7333 87.5575)">
	</image>
	<g>
		
			<image style="overflow:visible;opacity:0.5;" width="301" height="302" xlink:href="B3D127CB.png"  transform="matrix(0.24 0 0 0.24 110.1171 18.3388)">
		</image>
		<g>
			<path class="st0" d="M177.4,87.6h-63.8c-0.9,0-1.7-0.8-1.7-1.8V22.2c0-1,0.8-1.8,1.7-1.8h63.8c0.9,0,1.7,0.8,1.7,1.8v63.6
				C179.1,86.7,178.4,87.6,177.4,87.6z"/>
			<path class="st1" d="M177.4,87.6h-63.8c-0.9,0-1.7-0.8-1.7-1.8V22.2c0-1,0.8-1.8,1.7-1.8h63.8c0.9,0,1.7,0.8,1.7,1.8v63.6
				C179.1,86.7,178.4,87.6,177.4,87.6z"/>
		</g>
	</g>
	<g>
		
			<image style="overflow:visible;opacity:0.5;" width="305" height="302" xlink:href="B3D127C8.png"  transform="matrix(0.24 0 0 0.24 193.877 18.3388)">
		</image>
		<g>
			<path class="st0" d="M262,87.6h-64.4c-0.9,0-1.7-0.8-1.7-1.8V22.2c0-1,0.8-1.8,1.7-1.8H262c0.9,0,1.7,0.8,1.7,1.8v63.6
				C263.7,86.7,263,87.6,262,87.6z"/>
			<path class="st1" d="M262,87.6h-64.4c-0.9,0-1.7-0.8-1.7-1.8V22.2c0-1,0.8-1.8,1.7-1.8H262c0.9,0,1.7,0.8,1.7,1.8v63.6
				C263.7,86.7,263,87.6,262,87.6z"/>
		</g>
	</g>
	<g>
		
			<image style="overflow:visible;opacity:0.5;" width="302" height="302" xlink:href="B3D127D6.png"  transform="matrix(0.24 0 0 0.24 279.317 18.3388)">
		</image>
		<g>
			<path class="st0" d="M346.7,87.6h-63.8c-0.9,0-1.7-0.8-1.7-1.8V22.2c0-1,0.8-1.8,1.7-1.8h63.8c0.9,0,1.7,0.8,1.7,1.8v63.6
				C348.4,86.7,347.6,87.6,346.7,87.6z"/>
			<path class="st1" d="M346.7,87.6h-63.8c-0.9,0-1.7-0.8-1.7-1.8V22.2c0-1,0.8-1.8,1.7-1.8h63.8c0.9,0,1.7,0.8,1.7,1.8v63.6
				C348.4,86.7,347.6,87.6,346.7,87.6z"/>
		</g>
	</g>
	<g>
		
			<image style="overflow:visible;opacity:0.5;" width="302" height="302" xlink:href="B3D127D9.png"  transform="matrix(0.24 0 0 0.24 446.3571 18.0988)">
		</image>
		<g>
			<path class="st0" d="M513.8,87.3H450c-0.9,0-1.7-0.8-1.7-1.8V21.9c0-1,0.8-1.8,1.7-1.8h63.8c0.9,0,1.7,0.8,1.7,1.8v63.6
				C515.5,86.5,514.7,87.3,513.8,87.3z"/>
			<path class="st1" d="M513.8,87.3H450c-0.9,0-1.7-0.8-1.7-1.8V21.9c0-1,0.8-1.8,1.7-1.8h63.8c0.9,0,1.7,0.8,1.7,1.8v63.6
				C515.5,86.5,514.7,87.3,513.8,87.3z"/>
		</g>
	</g>
	<g>
		
			<image style="overflow:visible;opacity:0.5;" width="302" height="302" xlink:href="B3D127DA.png"  transform="matrix(0.24 0 0 0.24 363.557 18.0988)">
		</image>
		<g>
			<path class="st0" d="M431,87.3h-63.8c-0.9,0-1.7-0.8-1.7-1.8V21.9c0-1,0.8-1.8,1.7-1.8H431c0.9,0,1.7,0.8,1.7,1.8v63.6
				C432.7,86.5,431.9,87.3,431,87.3z"/>
			<path class="st1" d="M431,87.3h-63.8c-0.9,0-1.7-0.8-1.7-1.8V21.9c0-1,0.8-1.8,1.7-1.8H431c0.9,0,1.7,0.8,1.7,1.8v63.6
				C432.7,86.5,431.9,87.3,431,87.3z"/>
		</g>
	</g>
	<g>
		
			<image style="overflow:visible;opacity:0.5;" width="302" height="302" xlink:href="B3D127D8.png"  transform="matrix(0.24 0 0 0.24 446.3571 104.7388)">
		</image>
		<g>
			<path class="st0" d="M513.8,173.8H450c-0.9,0-1.7-0.8-1.7-1.8v-63.6c0-1,0.8-1.8,1.7-1.8h63.8c0.9,0,1.7,0.8,1.7,1.8V172
				C515.5,173,514.7,173.8,513.8,173.8z"/>
			<path class="st1" d="M513.8,173.8H450c-0.9,0-1.7-0.8-1.7-1.8v-63.6c0-1,0.8-1.8,1.7-1.8h63.8c0.9,0,1.7,0.8,1.7,1.8V172
				C515.5,173,514.7,173.8,513.8,173.8z"/>
		</g>
	</g>
	<g>
		
			<image style="overflow:visible;opacity:0.5;" width="301" height="302" xlink:href="FD3AC08D.png"  transform="matrix(0.24 0 0 0.24 110.1171 104.7388)">
		</image>
		<g>
			<path class="st0" d="M177.4,173.8h-63.8c-0.9,0-1.7-0.8-1.7-1.8v-63.6c0-1,0.8-1.8,1.7-1.8h63.8c0.9,0,1.7,0.8,1.7,1.8V172
				C179.1,173,178.4,173.8,177.4,173.8z"/>
			<path class="st1" d="M177.4,173.8h-63.8c-0.9,0-1.7-0.8-1.7-1.8v-63.6c0-1,0.8-1.8,1.7-1.8h63.8c0.9,0,1.7,0.8,1.7,1.8V172
				C179.1,173,178.4,173.8,177.4,173.8z"/>
		</g>
	</g>
	<g>
		
			<image style="overflow:visible;opacity:0.5;" width="301" height="302" xlink:href="FD3AC083.png"  transform="matrix(0.24 0 0 0.24 195.317 104.7388)">
		</image>
		<g>
			<path class="st0" d="M262.6,173.8h-63.8c-0.9,0-1.7-0.8-1.7-1.8v-63.6c0-1,0.8-1.8,1.7-1.8h63.8c0.9,0,1.7,0.8,1.7,1.8V172
				C264.3,173,263.6,173.8,262.6,173.8z"/>
			<path class="st1" d="M262.6,173.8h-63.8c-0.9,0-1.7-0.8-1.7-1.8v-63.6c0-1,0.8-1.8,1.7-1.8h63.8c0.9,0,1.7,0.8,1.7,1.8V172
				C264.3,173,263.6,173.8,262.6,173.8z"/>
		</g>
	</g>
	<g>
		
			<image style="overflow:visible;opacity:0.5;" width="302" height="302" xlink:href="FD3AC085.png"  transform="matrix(0.24 0 0 0.24 279.317 104.7388)">
		</image>
		<g>
			<path class="st0" d="M346.8,173.8H283c-0.9,0-1.7-0.8-1.7-1.8v-63.6c0-1,0.8-1.8,1.7-1.8h63.8c0.9,0,1.7,0.8,1.7,1.8V172
				C348.5,173,347.7,173.8,346.8,173.8z"/>
			<path class="st1" d="M346.8,173.8H283c-0.9,0-1.7-0.8-1.7-1.8v-63.6c0-1,0.8-1.8,1.7-1.8h63.8c0.9,0,1.7,0.8,1.7,1.8V172
				C348.5,173,347.7,173.8,346.8,173.8z"/>
		</g>
	</g>
	<g>
		<text transform="matrix(1 0 0 1 216.124 159.843)" class="st2 st3 st4">6</text>
	</g>
	<g>
		<text transform="matrix(1 0 0 1 465.5952 74.4894)" class="st2 st3 st4">4</text>
	</g>
	<g>
		<text transform="matrix(1 0 0 1 131.7881 71.4367)" class="st2 st3 st4">0</text>
	</g>
	<g>
		
			<image style="overflow:visible;opacity:0.5;" width="302" height="302" xlink:href="FD3AC087.png"  transform="matrix(0.24 0 0 0.24 363.557 104.7388)">
		</image>
		<g>
			<path class="st0" d="M431,173.8h-63.8c-0.9,0-1.7-0.8-1.7-1.8v-63.6c0-1,0.8-1.8,1.7-1.8H431c0.9,0,1.7,0.8,1.7,1.8V172
				C432.7,173,431.9,173.8,431,173.8z"/>
			<path class="st1" d="M431,173.8h-63.8c-0.9,0-1.7-0.8-1.7-1.8v-63.6c0-1,0.8-1.8,1.7-1.8H431c0.9,0,1.7,0.8,1.7,1.8V172
				C432.7,173,431.9,173.8,431,173.8z"/>
		</g>
	</g>
	
		<image style="overflow:visible;" width="255" height="403" xlink:href="FD3AC084.png"  transform="matrix(0.1383 0 0 0.1383 546.5628 125.0911)">
	</image>
	<g>
		<text transform="matrix(1 0 0 1 385.5132 158.2902)" class="st2 st3 st4">8</text>
	</g>
	<g>
		<g>
			
				<image style="overflow:visible;opacity:0.5;" width="301" height="301" xlink:href="FD3AC09C.png"  transform="matrix(0.24 0 0 0.24 261.557 226.8988)">
			</image>
			<g>
				<path class="st0" d="M328.9,295.9h-63.8c-0.9,0-1.7-0.8-1.7-1.8v-63.6c0-1,0.8-1.8,1.7-1.8h63.8c0.9,0,1.7,0.8,1.7,1.8v63.6
					C330.6,295.1,329.8,295.9,328.9,295.9z"/>
				<path class="st1" d="M328.9,295.9h-63.8c-0.9,0-1.7-0.8-1.7-1.8v-63.6c0-1,0.8-1.8,1.7-1.8h63.8c0.9,0,1.7,0.8,1.7,1.8v63.6
					C330.6,295.1,329.8,295.9,328.9,295.9z"/>
			</g>
		</g>
		<g>
			
				<image style="overflow:visible;opacity:0.5;" width="302" height="301" xlink:href="FD3AC09D.png"  transform="matrix(0.24 0 0 0.24 346.5171 226.8988)">
			</image>
			<g>
				<path class="st0" d="M414,295.9h-63.8c-0.9,0-1.7-0.8-1.7-1.8v-63.6c0-1,0.8-1.8,1.7-1.8H414c0.9,0,1.7,0.8,1.7,1.8v63.6
					C415.7,295.1,415,295.9,414,295.9z"/>
				<path class="st1" d="M414,295.9h-63.8c-0.9,0-1.7-0.8-1.7-1.8v-63.6c0-1,0.8-1.8,1.7-1.8H414c0.9,0,1.7,0.8,1.7,1.8v63.6
					C415.7,295.1,415,295.9,414,295.9z"/>
			</g>
		</g>
		<g>
			
				<image style="overflow:visible;opacity:0.5;" width="301" height="301" xlink:href="FD3AC09F.png"  transform="matrix(0.24 0 0 0.24 178.037 227.8588)">
			</image>
			<g>
				<path class="st0" d="M245.4,296.9h-63.8c-0.9,0-1.7-0.8-1.7-1.8v-63.6c0-1,0.8-1.8,1.7-1.8h63.8c0.9,0,1.7,0.8,1.7,1.8v63.6
					C247.1,296.1,246.3,296.9,245.4,296.9z"/>
				<path class="st1" d="M245.4,296.9h-63.8c-0.9,0-1.7-0.8-1.7-1.8v-63.6c0-1,0.8-1.8,1.7-1.8h63.8c0.9,0,1.7,0.8,1.7,1.8v63.6
					C247.1,296.1,246.3,296.9,245.4,296.9z"/>
			</g>
		</g>
		<g>
			
				<image style="overflow:visible;opacity:0.5;" width="302" height="301" xlink:href="FD3AC09B.png"  transform="matrix(0.24 0 0 0.24 430.757 226.8988)">
			</image>
			<g>
				<path class="st0" d="M498.2,295.9h-63.8c-0.9,0-1.7-0.8-1.7-1.8v-63.6c0-1,0.8-1.8,1.7-1.8h63.8c0.9,0,1.7,0.8,1.7,1.8v63.6
					C499.9,295.1,499.1,295.9,498.2,295.9z"/>
				<path class="st1" d="M498.2,295.9h-63.8c-0.9,0-1.7-0.8-1.7-1.8v-63.6c0-1,0.8-1.8,1.7-1.8h63.8c0.9,0,1.7,0.8,1.7,1.8v63.6
					C499.9,295.1,499.1,295.9,498.2,295.9z"/>
			</g>
		</g>
	</g>
	<g>
		
			<image style="overflow:visible;opacity:0.5;" width="302" height="302" xlink:href="FD3AC086.png"  transform="matrix(0.24 0 0 0.24 178.2771 314.7388)">
		</image>
		<g>
			<path class="st0" d="M245.7,384h-63.8c-0.9,0-1.7-0.8-1.7-1.8v-63.6c0-1,0.8-1.8,1.7-1.8h63.8c0.9,0,1.7,0.8,1.7,1.8v63.6
				C247.4,383.1,246.7,384,245.7,384z"/>
			<path class="st1" d="M245.7,384h-63.8c-0.9,0-1.7-0.8-1.7-1.8v-63.6c0-1,0.8-1.8,1.7-1.8h63.8c0.9,0,1.7,0.8,1.7,1.8v63.6
				C247.4,383.1,246.7,384,245.7,384z"/>
		</g>
	</g>
	<g>
		
			<image style="overflow:visible;opacity:0.5;" width="302" height="302" xlink:href="FD3AC0B8.png"  transform="matrix(0.24 0 0 0.24 95.4771 314.7388)">
		</image>
		<g>
			<path class="st0" d="M163,384H99.2c-0.9,0-1.7-0.8-1.7-1.8v-63.6c0-1,0.8-1.8,1.7-1.8H163c0.9,0,1.7,0.8,1.7,1.8v63.6
				C164.7,383.1,163.9,384,163,384z"/>
			<path class="st1" d="M163,384H99.2c-0.9,0-1.7-0.8-1.7-1.8v-63.6c0-1,0.8-1.8,1.7-1.8H163c0.9,0,1.7,0.8,1.7,1.8v63.6
				C164.7,383.1,163.9,384,163,384z"/>
		</g>
	</g>
	<g>
		
			<image style="overflow:visible;opacity:0.5;" width="302" height="302" xlink:href="FD3AC0BB.png"  transform="matrix(0.24 0 0 0.24 262.757 314.7388)">
		</image>
		<g>
			<path class="st0" d="M330.1,384h-63.8c-0.9,0-1.7-0.8-1.7-1.8v-63.6c0-1,0.8-1.8,1.7-1.8h63.8c0.9,0,1.7,0.8,1.7,1.8v63.6
				C331.8,383.1,331.1,384,330.1,384z"/>
			<path class="st1" d="M330.1,384h-63.8c-0.9,0-1.7-0.8-1.7-1.8v-63.6c0-1,0.8-1.8,1.7-1.8h63.8c0.9,0,1.7,0.8,1.7,1.8v63.6
				C331.8,383.1,331.1,384,330.1,384z"/>
		</g>
	</g>
	<g>
		
			<image style="overflow:visible;opacity:0.5;" width="301" height="302" xlink:href="FD3AC0B9.png"  transform="matrix(0.24 0 0 0.24 347.9571 314.7388)">
		</image>
		<g>
			<path class="st0" d="M415.3,384h-63.8c-0.9,0-1.7-0.8-1.7-1.8v-63.6c0-1,0.8-1.8,1.7-1.8h63.8c0.9,0,1.7,0.8,1.7,1.8v63.6
				C417,383.1,416.2,384,415.3,384z"/>
			<path class="st1" d="M415.3,384h-63.8c-0.9,0-1.7-0.8-1.7-1.8v-63.6c0-1,0.8-1.8,1.7-1.8h63.8c0.9,0,1.7,0.8,1.7,1.8v63.6
				C417,383.1,416.2,384,415.3,384z"/>
		</g>
	</g>
	<g>
		
			<image style="overflow:visible;opacity:0.5;" width="302" height="302" xlink:href="FD3AC0B7.png"  transform="matrix(0.24 0 0 0.24 431.9571 314.7388)">
		</image>
		<g>
			<path class="st0" d="M499.4,384h-63.8c-0.9,0-1.7-0.8-1.7-1.8v-63.6c0-1,0.8-1.8,1.7-1.8h63.8c0.9,0,1.7,0.8,1.7,1.8v63.6
				C501.1,383.1,500.4,384,499.4,384z"/>
			<path class="st1" d="M499.4,384h-63.8c-0.9,0-1.7-0.8-1.7-1.8v-63.6c0-1,0.8-1.8,1.7-1.8h63.8c0.9,0,1.7,0.8,1.7,1.8v63.6
				C501.1,383.1,500.4,384,499.4,384z"/>
		</g>
	</g>
	<g>
		<text transform="matrix(1 0 0 1 190.106 280.0759)" class="st2 st3 st4">10</text>
	</g>
	<g>
		<text transform="matrix(1 0 0 1 445.1763 368.7087)" class="st2 st3 st4">19</text>
	</g>
	
		<image style="overflow:visible;" width="799" height="509" xlink:href="FD3AC0A8.png"  transform="matrix(0.1228 0 0 0.1228 47.3211 254.0319)">
	</image>
	
		<image style="overflow:visible;" width="553" height="743" xlink:href="FD3AC0AB.png"  transform="matrix(0.1374 0 0 0.1453 509.1696 295.9118)">
	</image>
	<g>
		
			<image style="overflow:visible;opacity:0.5;" width="302" height="302" xlink:href="FD3AC0A9.png"  transform="matrix(0.24 0 0 0.24 11.7171 314.7388)">
		</image>
		<g>
			<path class="st0" d="M79.2,384H15.4c-0.9,0-1.7-0.8-1.7-1.8v-63.6c0-1,0.8-1.8,1.7-1.8h63.8c0.9,0,1.7,0.8,1.7,1.8v63.6
				C80.9,383.1,80.2,384,79.2,384z"/>
			<path class="st1" d="M79.2,384H15.4c-0.9,0-1.7-0.8-1.7-1.8v-63.6c0-1,0.8-1.8,1.7-1.8h63.8c0.9,0,1.7,0.8,1.7,1.8v63.6
				C80.9,383.1,80.2,384,79.2,384z"/>
		</g>
	</g>
</g>
</svg>
