<svg xmlns="http://www.w3.org/2000/svg" xmlns:xlink="http://www.w3.org/1999/xlink" width="600" zoomAndPan="magnify" viewBox="0 0 450 149.999998" height="200" preserveAspectRatio="xMidYMid meet" version="1.2"><defs/><g id="1bc642d29d"><rect x="0" width="450" y="0" height="149.999998" style="fill:#ffffff;fill-opacity:1;stroke:none;"/><rect x="0" width="450" y="0" height="149.999998" style="fill:#ffffff;fill-opacity:1;stroke:none;"/><path style="fill-rule:nonzero;fill:#000000;fill-opacity:1;stroke-width:1;stroke-linecap:butt;stroke-linejoin:miter;stroke:#0c7b3b;stroke-opacity:1;stroke-miterlimit:4;" d="M 0.499995 0.999997 L 0.499995 199.000009 M 599.50003 0.999997 L 599.50003 199.000009 M -0.000005 0.499997 L 600.00003 0.499997 M -0.000005 199.500009 L 600.00003 199.500009 " transform="matrix(0.75,0,0,0.75,0.00000375,0.000002)"/><g style="fill:#0c7b3b;fill-opacity:1;"><g transform="translate(198.643492, 109.34831)"><path style="stroke:none" d="M 27.570312 -75.007812 C 19.429688 -75.007812 13.570312 -72.1875 6.839844 -67.953125 L 6.839844 -52.429688 C 12.808594 -58.183594 19.863281 -61.65625 24.640625 -61.65625 C 30.285156 -61.65625 34.628906 -56.773438 34.628906 -51.234375 C 34.628906 -44.289062 30.9375 -35.929688 19.757812 -20.625 C 14.21875 -13.132812 9.550781 -6.839844 5.863281 -2.171875 L 5.863281 0 L 54.816406 0 L 54.816406 -15.089844 L 30.9375 -15.089844 C 41.03125 -28.113281 42.984375 -31.589844 47.761719 -41.03125 C 49.933594 -45.484375 51.019531 -49.714844 51.019531 -54.277344 C 51.019531 -65.347656 43.746094 -75.007812 27.570312 -75.007812 Z M 27.570312 -75.007812 "/></g></g></g></svg>