<svg xmlns="http://www.w3.org/2000/svg" xmlns:xlink="http://www.w3.org/1999/xlink" width="600" zoomAndPan="magnify" viewBox="0 0 450 149.999998" height="200" preserveAspectRatio="xMidYMid meet" version="1.2"><defs><clipPath id="c053bc492e"><path d="M 335.589844 34.082031 L 370.839844 34.082031 L 370.839844 75 L 335.589844 75 Z M 335.589844 34.082031 "/></clipPath><clipPath id="c1b09b69ae"><path d="M 345 78 L 359 78 L 359 91.082031 L 345 91.082031 Z M 345 78 "/></clipPath></defs><g id="20e7b7090a"><rect x="0" width="450" y="0" height="149.999998" style="fill:#ffffff;fill-opacity:1;stroke:none;"/><rect x="0" width="450" y="0" height="149.999998" style="fill:#ffffff;fill-opacity:1;stroke:none;"/><path style="fill-rule:nonzero;fill:#000000;fill-opacity:1;stroke-width:1;stroke-linecap:butt;stroke-linejoin:miter;stroke:#0c7b3b;stroke-opacity:1;stroke-miterlimit:4;" d="M 0.499995 0.999997 L 0.499995 199.000009 M 599.50003 0.999997 L 599.50003 199.000009 M -0.000005 0.499997 L 600.00003 0.499997 M -0.000005 199.500009 L 600.00003 199.500009 " transform="matrix(0.75,0,0,0.75,0.00000375,0.000002)"/><g style="fill:#0c7b3b;fill-opacity:1;"><g transform="translate(49.976298, 88.816972)"><path style="stroke:none" d="M 15.835938 -55.273438 L 15.835938 0 L 28.316406 0 L 28.316406 -55.273438 Z M 15.835938 -55.273438 "/></g></g><g style="fill:#0c7b3b;fill-opacity:1;"><g transform="translate(94.126905, 88.816972)"><path style="stroke:none" d="M 22.15625 -55.273438 C 12.476562 -55.273438 3.597656 -47.433594 3.597656 -27.277344 C 3.597656 -8.796875 10.878906 0.71875 22.316406 0.71875 C 33.515625 0.71875 40.554688 -9.277344 40.554688 -27.515625 C 40.554688 -48.234375 31.277344 -55.273438 22.15625 -55.273438 Z M 27.996094 -27.996094 C 27.996094 -13.117188 26.078125 -9.4375 22.15625 -9.4375 C 18.558594 -9.4375 16.238281 -13.039062 16.238281 -27.277344 C 16.238281 -40.953125 18.238281 -45.035156 22.078125 -45.035156 C 26.554688 -45.035156 27.996094 -39.433594 27.996094 -27.996094 Z M 27.996094 -27.996094 "/></g></g><g style="fill:#0c7b3b;fill-opacity:1;"><g transform="translate(138.277512, 88.816972)"><path style="stroke:none" d=""/></g></g><g style="fill:#0c7b3b;fill-opacity:1;"><g transform="translate(160.512781, 88.816972)"><path style="stroke:none" d="M 2.878906 -23.835938 L 2.878906 -13.199219 L 23.757812 -13.199219 L 23.757812 -23.835938 Z M 2.878906 -23.835938 "/></g></g><g style="fill:#0c7b3b;fill-opacity:1;"><g transform="translate(187.14712, 88.816972)"><path style="stroke:none" d=""/></g></g><g style="fill:#0c7b3b;fill-opacity:1;"><g transform="translate(209.382389, 88.816972)"><path style="stroke:none" d="M 28.957031 -55.273438 L 3.28125 -22.15625 L 3.28125 -13.4375 L 24.558594 -13.4375 L 24.558594 0 L 36.636719 0 L 36.636719 -13.4375 L 40.316406 -13.4375 L 40.316406 -22.15625 L 36.636719 -22.15625 L 36.636719 -55.273438 Z M 24.558594 -22.15625 L 12.878906 -22.15625 L 24.558594 -37.035156 Z M 24.558594 -22.15625 "/></g></g><g style="fill:#0c7b3b;fill-opacity:1;"><g transform="translate(253.533005, 88.816972)"><path style="stroke:none" d=""/></g></g><g style="fill:#0c7b3b;fill-opacity:1;"><g transform="translate(275.768257, 88.816972)"><path style="stroke:none" d="M 3.28125 -41.113281 L 3.28125 -30.796875 L 43.355469 -30.796875 L 43.355469 -41.113281 Z M 3.28125 -23.757812 L 3.28125 -13.519531 L 43.355469 -13.519531 L 43.355469 -23.757812 Z M 3.28125 -23.757812 "/></g></g><g style="fill:#0c7b3b;fill-opacity:1;"><g transform="translate(322.403976, 88.816972)"><path style="stroke:none" d=""/></g></g><g clip-rule="nonzero" clip-path="url(#c053bc492e)"><path style=" stroke:none;fill-rule:nonzero;fill:#000000;fill-opacity:1;" d="M 368.507812 40.695312 C 366.992188 38.550781 364.902344 36.910156 362.238281 35.78125 C 359.585938 34.652344 356.515625 34.082031 353.046875 34.082031 C 349.890625 34.082031 347.007812 34.640625 344.398438 35.757812 C 341.792969 36.863281 339.691406 38.5625 338.105469 40.808594 C 336.839844 42.597656 336.058594 44.765625 335.738281 47.304688 C 335.601562 48.414062 336.484375 49.390625 337.609375 49.390625 L 344.59375 49.390625 C 345.492188 49.390625 346.25 48.765625 346.445312 47.898438 C 346.617188 47.125 346.902344 46.429688 347.304688 45.835938 C 347.949219 44.878906 348.777344 44.148438 349.785156 43.660156 C 350.796875 43.167969 351.867188 42.917969 353.003906 42.917969 C 354.175781 42.917969 355.230469 43.15625 356.207031 43.648438 C 357.171875 44.125 357.941406 44.820312 358.515625 45.722656 C 359.089844 46.621094 359.378906 47.660156 359.378906 48.855469 C 359.378906 49.984375 359.125 51 358.621094 51.902344 C 358.113281 52.800781 357.4375 53.632812 356.585938 54.375 C 355.726562 55.125 354.769531 55.832031 353.691406 56.527344 C 352.246094 57.429688 351.003906 58.433594 349.980469 59.539062 C 348.949219 60.644531 348.179688 62.09375 347.636719 63.894531 C 347.109375 65.695312 346.835938 68.101562 346.824219 71.121094 L 346.824219 72.625 C 346.824219 73.652344 347.660156 74.496094 348.707031 74.496094 L 354.851562 74.496094 C 355.886719 74.496094 356.734375 73.664062 356.734375 72.625 L 356.734375 71.121094 C 356.757812 69.421875 356.976562 67.996094 357.402344 66.847656 C 357.828125 65.695312 358.480469 64.667969 359.355469 63.789062 C 360.238281 62.914062 361.363281 62.070312 362.742188 61.25 C 364.386719 60.28125 365.796875 59.195312 367.003906 57.988281 C 368.199219 56.792969 369.140625 55.398438 369.816406 53.839844 C 370.484375 52.277344 370.828125 50.476562 370.828125 48.457031 C 370.792969 45.425781 370.023438 42.835938 368.507812 40.695312 Z M 368.507812 40.695312 "/></g><g clip-rule="nonzero" clip-path="url(#c1b09b69ae)"><path style=" stroke:none;fill-rule:nonzero;fill:#000000;fill-opacity:1;" d="M 351.96875 78.691406 C 350.222656 78.691406 348.742188 79.292969 347.511719 80.503906 C 346.28125 81.710938 345.675781 83.171875 345.695312 84.859375 C 345.675781 86.566406 346.28125 88.039062 347.511719 89.257812 C 348.742188 90.476562 350.222656 91.082031 351.96875 91.082031 C 353.082031 91.082031 354.117188 90.796875 355.046875 90.238281 C 355.988281 89.667969 356.746094 88.929688 357.332031 87.980469 C 357.917969 87.035156 358.21875 85.996094 358.230469 84.859375 C 358.207031 83.160156 357.574219 81.710938 356.320312 80.503906 C 355.082031 79.292969 353.621094 78.691406 351.96875 78.691406 Z M 351.96875 78.691406 "/></g></g></svg>