<svg xmlns="http://www.w3.org/2000/svg" xmlns:xlink="http://www.w3.org/1999/xlink" width="600" zoomAndPan="magnify" viewBox="0 0 450 149.999998" height="200" preserveAspectRatio="xMidYMid meet" version="1.2"><defs><clipPath id="ab39fa6782"><path d="M 346.6875 44.515625 L 381.9375 44.515625 L 381.9375 85 L 346.6875 85 Z M 346.6875 44.515625 "/></clipPath><clipPath id="69adeb1b80"><path d="M 356 89 L 370 89 L 370 101.515625 L 356 101.515625 Z M 356 89 "/></clipPath></defs><g id="76b96efd7a"><rect x="0" width="450" y="0" height="149.999998" style="fill:#ffffff;fill-opacity:1;stroke:none;"/><rect x="0" width="450" y="0" height="149.999998" style="fill:#ffffff;fill-opacity:1;stroke:none;"/><path style="fill-rule:nonzero;fill:#000000;fill-opacity:1;stroke-width:1;stroke-linecap:butt;stroke-linejoin:miter;stroke:#0c7b3b;stroke-opacity:1;stroke-miterlimit:4;" d="M 0.499995 0.999997 L 0.499995 199.000009 M 599.50003 0.999997 L 599.50003 199.000009 M -0.000005 0.499997 L 600.00003 0.499997 M -0.000005 199.500009 L 600.00003 199.500009 " transform="matrix(0.75,0,0,0.75,0.00000375,0.000002)"/><g style="fill:#0c7b3b;fill-opacity:1;"><g transform="translate(52.531141, 96.317135)"><path style="stroke:none" d="M 17.015625 -46.289062 C 11.992188 -46.289062 8.375 -44.546875 4.21875 -41.9375 L 4.21875 -32.355469 C 7.90625 -35.90625 12.257812 -38.050781 15.207031 -38.050781 C 18.691406 -38.050781 21.371094 -35.035156 21.371094 -31.621094 C 21.371094 -27.332031 19.09375 -22.171875 12.191406 -12.726562 C 8.777344 -8.105469 5.894531 -4.21875 3.617188 -1.339844 L 3.617188 0 L 33.828125 0 L 33.828125 -9.3125 L 19.09375 -9.3125 C 25.320312 -17.351562 26.527344 -19.492188 29.476562 -25.320312 C 30.816406 -28.070312 31.484375 -30.679688 31.484375 -33.496094 C 31.484375 -40.328125 26.996094 -46.289062 17.015625 -46.289062 Z M 17.015625 -46.289062 "/></g></g><g style="fill:#0c7b3b;fill-opacity:1;"><g transform="translate(89.506541, 96.317135)"><path style="stroke:none" d="M 13.265625 -46.289062 L 13.265625 0 L 23.714844 0 L 23.714844 -46.289062 Z M 13.265625 -46.289062 "/></g></g><g style="fill:#0c7b3b;fill-opacity:1;"><g transform="translate(126.481942, 96.317135)"><path style="stroke:none" d="M 6.632812 -45.6875 L 6.632812 -19.628906 C 8.441406 -20.097656 10.316406 -20.296875 12.257812 -20.296875 C 17.550781 -20.296875 21.234375 -17.820312 21.234375 -13.734375 C 21.234375 -10.382812 18.554688 -7.4375 14 -7.4375 C 11.589844 -7.4375 8.375 -7.972656 4.289062 -10.183594 L 4.289062 -1.875 C 6.566406 -0.535156 11.523438 0.601562 15.339844 0.601562 C 26.261719 0.601562 31.886719 -5.558594 31.886719 -14.269531 C 31.886719 -22.242188 25.65625 -28 17.550781 -28 C 16.816406 -28 16.277344 -27.933594 15.742188 -27.933594 L 15.742188 -36.507812 L 30.347656 -36.507812 L 30.347656 -45.6875 Z M 6.632812 -45.6875 "/></g></g><g style="fill:#0c7b3b;fill-opacity:1;"><g transform="translate(163.457342, 96.317135)"><path style="stroke:none" d=""/></g></g><g style="fill:#0c7b3b;fill-opacity:1;"><g transform="translate(182.079007, 96.317135)"><path style="stroke:none" d="M 0.269531 -30.882812 L 12.59375 -15.808594 L 0.269531 0 L 11.789062 0 L 18.554688 -8.976562 L 25.523438 0 L 37.378906 0 L 24.585938 -15.808594 L 36.441406 -30.882812 L 24.585938 -30.882812 L 18.554688 -22.574219 L 12.191406 -30.882812 Z M 0.269531 -30.882812 "/></g></g><g style="fill:#0c7b3b;fill-opacity:1;"><g transform="translate(219.65726, 96.317135)"><path style="stroke:none" d=""/></g></g><g style="fill:#0c7b3b;fill-opacity:1;"><g transform="translate(238.278925, 96.317135)"><path style="stroke:none" d="M 17.550781 -46.289062 C 9.3125 -46.289062 2.34375 -39.792969 2.34375 -30.546875 C 2.34375 -22.507812 8.039062 -16.078125 14.9375 -16.078125 C 16.078125 -16.078125 16.679688 -16.277344 17.886719 -16.546875 L 7.367188 0.601562 L 18.554688 0.601562 L 26.527344 -12.324219 C 30.679688 -19.09375 32.625 -24.652344 32.625 -30.882812 C 32.625 -40.128906 25.390625 -46.289062 17.550781 -46.289062 Z M 12.191406 -30.882812 C 12.191406 -34.902344 14.335938 -37.714844 17.285156 -37.714844 C 20.296875 -37.714844 22.375 -35.371094 22.375 -30.882812 C 22.375 -26.929688 20.296875 -24.117188 17.285156 -24.117188 C 14.402344 -24.117188 12.191406 -26.660156 12.191406 -30.882812 Z M 12.191406 -30.882812 "/></g></g><g style="fill:#0c7b3b;fill-opacity:1;"><g transform="translate(275.254326, 96.317135)"><path style="stroke:none" d=""/></g></g><g style="fill:#0c7b3b;fill-opacity:1;"><g transform="translate(293.87599, 96.317135)"><path style="stroke:none" d="M 2.746094 -34.433594 L 2.746094 -25.792969 L 36.308594 -25.792969 L 36.308594 -34.433594 Z M 2.746094 -19.894531 L 2.746094 -11.320312 L 36.308594 -11.320312 L 36.308594 -19.894531 Z M 2.746094 -19.894531 "/></g></g><g style="fill:#0c7b3b;fill-opacity:1;"><g transform="translate(332.937378, 96.317135)"><path style="stroke:none" d=""/></g></g><g clip-rule="nonzero" clip-path="url(#ab39fa6782)"><path style=" stroke:none;fill-rule:nonzero;fill:#000000;fill-opacity:1;" d="M 379.605469 51.128906 C 378.089844 48.984375 376 47.34375 373.335938 46.214844 C 370.683594 45.085938 367.613281 44.515625 364.144531 44.515625 C 360.988281 44.515625 358.105469 45.074219 355.496094 46.191406 C 352.890625 47.296875 350.789062 48.996094 349.203125 51.242188 C 347.9375 53.03125 347.160156 55.199219 346.835938 57.738281 C 346.699219 58.847656 347.582031 59.828125 348.707031 59.828125 L 355.691406 59.828125 C 356.589844 59.828125 357.347656 59.199219 357.542969 58.332031 C 357.714844 57.558594 358 56.863281 358.402344 56.269531 C 359.046875 55.3125 359.875 54.582031 360.882812 54.09375 C 361.894531 53.601562 362.964844 53.351562 364.101562 53.351562 C 365.273438 53.351562 366.328125 53.589844 367.304688 54.082031 C 368.269531 54.558594 369.039062 55.253906 369.613281 56.15625 C 370.1875 57.054688 370.476562 58.09375 370.476562 59.289062 C 370.476562 60.417969 370.222656 61.433594 369.71875 62.335938 C 369.210938 63.234375 368.535156 64.066406 367.683594 64.808594 C 366.824219 65.558594 365.871094 66.265625 364.789062 66.960938 C 363.34375 67.863281 362.101562 68.867188 361.078125 69.972656 C 360.046875 71.078125 359.277344 72.527344 358.738281 74.328125 C 358.207031 76.128906 357.933594 78.535156 357.921875 81.554688 L 357.921875 83.058594 C 357.921875 84.085938 358.757812 84.929688 359.804688 84.929688 L 365.949219 84.929688 C 366.984375 84.929688 367.832031 84.097656 367.832031 83.058594 L 367.832031 81.554688 C 367.855469 79.855469 368.074219 78.429688 368.5 77.28125 C 368.925781 76.128906 369.578125 75.101562 370.453125 74.222656 C 371.335938 73.347656 372.460938 72.503906 373.839844 71.683594 C 375.484375 70.714844 376.894531 69.628906 378.101562 68.421875 C 379.296875 67.226562 380.238281 65.835938 380.917969 64.273438 C 381.582031 62.710938 381.925781 60.910156 381.925781 58.890625 C 381.890625 55.859375 381.121094 53.269531 379.605469 51.128906 Z M 379.605469 51.128906 "/></g><g clip-rule="nonzero" clip-path="url(#69adeb1b80)"><path style=" stroke:none;fill-rule:nonzero;fill:#000000;fill-opacity:1;" d="M 363.066406 89.125 C 361.320312 89.125 359.839844 89.730469 358.609375 90.9375 C 357.382812 92.144531 356.773438 93.605469 356.796875 95.292969 C 356.773438 97 357.382812 98.472656 358.609375 99.691406 C 359.839844 100.910156 361.320312 101.515625 363.066406 101.515625 C 364.179688 101.515625 365.214844 101.230469 366.144531 100.671875 C 367.085938 100.101562 367.84375 99.363281 368.429688 98.414062 C 369.015625 97.46875 369.316406 96.433594 369.328125 95.292969 C 369.304688 93.59375 368.671875 92.144531 367.421875 90.9375 C 366.179688 89.730469 364.71875 89.125 363.066406 89.125 Z M 363.066406 89.125 "/></g></g></svg>