<svg xmlns="http://www.w3.org/2000/svg" xmlns:xlink="http://www.w3.org/1999/xlink" width="600" zoomAndPan="magnify" viewBox="0 0 450 149.999998" height="200" preserveAspectRatio="xMidYMid meet" version="1.2"><defs><clipPath id="a1c5047a3c"><path d="M 336.84375 46.339844 L 372.09375 46.339844 L 372.09375 87 L 336.84375 87 Z M 336.84375 46.339844 "/></clipPath><clipPath id="899cbbfac5"><path d="M 346 90 L 360 90 L 360 103.339844 L 346 103.339844 Z M 346 90 "/></clipPath></defs><g id="b49f88c82a"><rect x="0" width="450" y="0" height="149.999998" style="fill:#ffffff;fill-opacity:1;stroke:none;"/><rect x="0" width="450" y="0" height="149.999998" style="fill:#ffffff;fill-opacity:1;stroke:none;"/><path style="fill-rule:nonzero;fill:#000000;fill-opacity:1;stroke-width:1;stroke-linecap:butt;stroke-linejoin:miter;stroke:#0c7b3b;stroke-opacity:1;stroke-miterlimit:4;" d="M 0.499995 0.999997 L 0.499995 199.000009 M 599.50003 0.999997 L 599.50003 199.000009 M -0.000005 0.499997 L 600.00003 0.499997 M -0.000005 199.500009 L 600.00003 199.500009 " transform="matrix(0.75,0,0,0.75,0.00000375,0.000002)"/><g style="fill:#0c7b3b;fill-opacity:1;"><g transform="translate(48.555286, 97.511422)"><path style="stroke:none" d="M 17.289062 -45.59375 C 9.171875 -45.59375 2.308594 -39.195312 2.308594 -30.089844 C 2.308594 -22.171875 7.917969 -15.835938 14.714844 -15.835938 C 15.835938 -15.835938 16.429688 -16.035156 17.617188 -16.296875 L 7.257812 0.59375 L 18.277344 0.59375 L 26.128906 -12.140625 C 30.222656 -18.804688 32.132812 -24.28125 32.132812 -30.417969 C 32.132812 -39.523438 25.007812 -45.59375 17.289062 -45.59375 Z M 12.007812 -30.417969 C 12.007812 -34.378906 14.121094 -37.148438 17.023438 -37.148438 C 19.992188 -37.148438 22.039062 -34.839844 22.039062 -30.417969 C 22.039062 -26.527344 19.992188 -23.753906 17.023438 -23.753906 C 14.1875 -23.753906 12.007812 -26.261719 12.007812 -30.417969 Z M 12.007812 -30.417969 "/></g></g><g style="fill:#0c7b3b;fill-opacity:1;"><g transform="translate(84.974378, 97.511422)"><path style="stroke:none" d="M 16.828125 -45.59375 L 9.039062 -32.992188 C 4.355469 -25.402344 2.902344 -20.585938 2.902344 -15.175781 C 2.902344 -4.882812 10.03125 0.59375 18.015625 0.59375 C 26.527344 0.59375 32.730469 -6.136719 32.730469 -14.914062 C 32.730469 -22.566406 27.449219 -28.96875 20.125 -28.96875 C 19.332031 -28.96875 18.804688 -28.902344 17.484375 -28.570312 L 27.910156 -45.59375 Z M 13.066406 -14.320312 C 13.066406 -18.671875 15.042969 -21.113281 17.882812 -21.113281 C 21.179688 -21.113281 23.027344 -18.144531 23.027344 -14.515625 C 23.027344 -10.753906 21.246094 -7.785156 18.015625 -7.785156 C 14.914062 -7.785156 13.066406 -10.226562 13.066406 -14.320312 Z M 13.066406 -14.320312 "/></g></g><g style="fill:#0c7b3b;fill-opacity:1;"><g transform="translate(121.39347, 97.511422)"><path style="stroke:none" d=""/></g></g><g style="fill:#0c7b3b;fill-opacity:1;"><g transform="translate(139.734973, 97.511422)"><path style="stroke:none" d="M 0.265625 -30.417969 L 12.40625 -15.574219 L 0.265625 0 L 11.613281 0 L 18.277344 -8.84375 L 25.140625 0 L 36.820312 0 L 24.214844 -15.574219 L 35.894531 -30.417969 L 24.214844 -30.417969 L 18.277344 -22.238281 L 12.007812 -30.417969 Z M 0.265625 -30.417969 "/></g></g><g style="fill:#0c7b3b;fill-opacity:1;"><g transform="translate(176.747853, 97.511422)"><path style="stroke:none" d=""/></g></g><g style="fill:#0c7b3b;fill-opacity:1;"><g transform="translate(195.089355, 97.511422)"><path style="stroke:none" d="M 16.828125 -45.59375 L 9.039062 -32.992188 C 4.355469 -25.402344 2.902344 -20.585938 2.902344 -15.175781 C 2.902344 -4.882812 10.03125 0.59375 18.015625 0.59375 C 26.527344 0.59375 32.730469 -6.136719 32.730469 -14.914062 C 32.730469 -22.566406 27.449219 -28.96875 20.125 -28.96875 C 19.332031 -28.96875 18.804688 -28.902344 17.484375 -28.570312 L 27.910156 -45.59375 Z M 13.066406 -14.320312 C 13.066406 -18.671875 15.042969 -21.113281 17.882812 -21.113281 C 21.179688 -21.113281 23.027344 -18.144531 23.027344 -14.515625 C 23.027344 -10.753906 21.246094 -7.785156 18.015625 -7.785156 C 14.914062 -7.785156 13.066406 -10.226562 13.066406 -14.320312 Z M 13.066406 -14.320312 "/></g></g><g style="fill:#0c7b3b;fill-opacity:1;"><g transform="translate(231.508447, 97.511422)"><path style="stroke:none" d="M 23.886719 -45.59375 L 2.707031 -18.277344 L 2.707031 -11.085938 L 20.257812 -11.085938 L 20.257812 0 L 30.222656 0 L 30.222656 -11.085938 L 33.257812 -11.085938 L 33.257812 -18.277344 L 30.222656 -18.277344 L 30.222656 -45.59375 Z M 20.257812 -18.277344 L 10.625 -18.277344 L 20.257812 -30.550781 Z M 20.257812 -18.277344 "/></g></g><g style="fill:#0c7b3b;fill-opacity:1;"><g transform="translate(267.927528, 97.511422)"><path style="stroke:none" d=""/></g></g><g style="fill:#0c7b3b;fill-opacity:1;"><g transform="translate(286.269042, 97.511422)"><path style="stroke:none" d="M 2.707031 -33.917969 L 2.707031 -25.402344 L 35.765625 -25.402344 L 35.765625 -33.917969 Z M 2.707031 -19.597656 L 2.707031 -11.152344 L 35.765625 -11.152344 L 35.765625 -19.597656 Z M 2.707031 -19.597656 "/></g></g><g style="fill:#0c7b3b;fill-opacity:1;"><g transform="translate(324.742774, 97.511422)"><path style="stroke:none" d=""/></g></g><g clip-rule="nonzero" clip-path="url(#a1c5047a3c)"><path style=" stroke:none;fill-rule:nonzero;fill:#000000;fill-opacity:1;" d="M 369.761719 52.949219 C 368.246094 50.808594 366.15625 49.164062 363.488281 48.035156 C 360.835938 46.910156 357.769531 46.339844 354.300781 46.339844 C 351.140625 46.339844 348.257812 46.898438 345.652344 48.015625 C 343.042969 49.121094 340.941406 50.820312 339.359375 53.0625 C 338.09375 54.855469 337.3125 57.019531 336.992188 59.5625 C 336.855469 60.667969 337.738281 61.648438 338.863281 61.648438 L 345.847656 61.648438 C 346.742188 61.648438 347.5 61.023438 347.695312 60.15625 C 347.867188 59.378906 348.15625 58.683594 348.558594 58.089844 C 349.203125 57.132812 350.027344 56.40625 351.039062 55.914062 C 352.050781 55.425781 353.117188 55.171875 354.253906 55.171875 C 355.425781 55.171875 356.484375 55.414062 357.460938 55.902344 C 358.425781 56.382812 359.195312 57.078125 359.769531 57.976562 C 360.34375 58.878906 360.628906 59.914062 360.628906 61.113281 C 360.628906 62.242188 360.378906 63.257812 359.871094 64.15625 C 359.367188 65.058594 358.6875 65.890625 357.839844 66.628906 C 356.976562 67.382812 356.023438 68.089844 354.945312 68.785156 C 353.496094 69.683594 352.257812 70.6875 351.234375 71.792969 C 350.199219 72.898438 349.429688 74.347656 348.890625 76.148438 C 348.363281 77.949219 348.085938 80.355469 348.074219 83.375 L 348.074219 84.882812 C 348.074219 85.90625 348.914062 86.75 349.960938 86.75 L 356.105469 86.75 C 357.136719 86.75 357.988281 85.917969 357.988281 84.882812 L 357.988281 83.375 C 358.011719 81.679688 358.230469 80.253906 358.65625 79.101562 C 359.078125 77.949219 359.734375 76.925781 360.605469 76.046875 C 361.492188 75.167969 362.617188 74.324219 363.996094 73.503906 C 365.636719 72.535156 367.050781 71.453125 368.257812 70.242188 C 369.453125 69.046875 370.394531 67.65625 371.070312 66.09375 C 371.738281 64.53125 372.082031 62.730469 372.082031 60.714844 C 372.046875 57.679688 371.277344 55.09375 369.761719 52.949219 Z M 369.761719 52.949219 "/></g><g clip-rule="nonzero" clip-path="url(#899cbbfac5)"><path style=" stroke:none;fill-rule:nonzero;fill:#000000;fill-opacity:1;" d="M 353.222656 90.945312 C 351.476562 90.945312 349.992188 91.550781 348.765625 92.757812 C 347.535156 93.96875 346.925781 95.425781 346.949219 97.113281 C 346.925781 98.824219 347.535156 100.292969 348.765625 101.515625 C 349.992188 102.734375 351.476562 103.339844 353.222656 103.339844 C 354.335938 103.339844 355.371094 103.054688 356.300781 102.496094 C 357.242188 101.925781 358 101.183594 358.585938 100.238281 C 359.171875 99.292969 359.46875 98.253906 359.480469 97.113281 C 359.457031 95.414062 358.828125 93.96875 357.574219 92.757812 C 356.335938 91.550781 354.875 90.945312 353.222656 90.945312 Z M 353.222656 90.945312 "/></g></g></svg>