<svg xmlns="http://www.w3.org/2000/svg" xmlns:xlink="http://www.w3.org/1999/xlink" width="600" zoomAndPan="magnify" viewBox="0 0 450 149.999998" height="200" preserveAspectRatio="xMidYMid meet" version="1.2"><defs><clipPath id="94bcbeb21b"><path d="M 362.421875 34.082031 L 397.671875 34.082031 L 397.671875 75 L 362.421875 75 Z M 362.421875 34.082031 "/></clipPath><clipPath id="62eac128ef"><path d="M 372 78 L 386 78 L 386 91.082031 L 372 91.082031 Z M 372 78 "/></clipPath></defs><g id="6ad47233fb"><rect x="0" width="450" y="0" height="149.999998" style="fill:#ffffff;fill-opacity:1;stroke:none;"/><rect x="0" width="450" y="0" height="149.999998" style="fill:#ffffff;fill-opacity:1;stroke:none;"/><path style="fill-rule:nonzero;fill:#000000;fill-opacity:1;stroke-width:1;stroke-linecap:butt;stroke-linejoin:miter;stroke:#0c7b3b;stroke-opacity:1;stroke-miterlimit:4;" d="M 0.499995 0.999997 L 0.499995 199.000009 M 599.50003 0.999997 L 599.50003 199.000009 M -0.000005 0.499997 L 600.00003 0.499997 M -0.000005 199.500009 L 600.00003 199.500009 " transform="matrix(0.75,0,0,0.75,0.00000375,0.000002)"/><g style="fill:#0c7b3b;fill-opacity:1;"><g transform="translate(52.394194, 88.816972)"><path style="stroke:none" d="M 15.835938 -55.273438 L 15.835938 0 L 28.316406 0 L 28.316406 -55.273438 Z M 15.835938 -55.273438 "/></g></g><g style="fill:#0c7b3b;fill-opacity:1;"><g transform="translate(96.544802, 88.816972)"><path style="stroke:none" d="M 15.835938 -55.273438 L 15.835938 0 L 28.316406 0 L 28.316406 -55.273438 Z M 15.835938 -55.273438 "/></g></g><g style="fill:#0c7b3b;fill-opacity:1;"><g transform="translate(140.695409, 88.816972)"><path style="stroke:none" d=""/></g></g><g style="fill:#0c7b3b;fill-opacity:1;"><g transform="translate(162.930678, 88.816972)"><path style="stroke:none" d="M 18.15625 -47.273438 L 18.15625 -32.394531 L 3.28125 -32.394531 L 3.28125 -22.15625 L 18.15625 -22.15625 L 18.15625 -7.277344 L 28.476562 -7.277344 L 28.476562 -22.15625 L 43.355469 -22.15625 L 43.355469 -32.394531 L 28.476562 -32.394531 L 28.476562 -47.273438 Z M 18.15625 -47.273438 "/></g></g><g style="fill:#0c7b3b;fill-opacity:1;"><g transform="translate(209.560761, 88.816972)"><path style="stroke:none" d=""/></g></g><g style="fill:#0c7b3b;fill-opacity:1;"><g transform="translate(231.79603, 88.816972)"><path style="stroke:none" d="M 28.957031 -55.273438 L 3.28125 -22.15625 L 3.28125 -13.4375 L 24.558594 -13.4375 L 24.558594 0 L 36.636719 0 L 36.636719 -13.4375 L 40.316406 -13.4375 L 40.316406 -22.15625 L 36.636719 -22.15625 L 36.636719 -55.273438 Z M 24.558594 -22.15625 L 12.878906 -22.15625 L 24.558594 -37.035156 Z M 24.558594 -22.15625 "/></g></g><g style="fill:#0c7b3b;fill-opacity:1;"><g transform="translate(275.946629, 88.816972)"><path style="stroke:none" d=""/></g></g><g style="fill:#0c7b3b;fill-opacity:1;"><g transform="translate(298.181915, 88.816972)"><path style="stroke:none" d="M 3.28125 -41.113281 L 3.28125 -30.796875 L 43.355469 -30.796875 L 43.355469 -41.113281 Z M 3.28125 -23.757812 L 3.28125 -13.519531 L 43.355469 -13.519531 L 43.355469 -23.757812 Z M 3.28125 -23.757812 "/></g></g><g style="fill:#0c7b3b;fill-opacity:1;"><g transform="translate(344.813313, 88.816972)"><path style="stroke:none" d=""/></g></g><g clip-rule="nonzero" clip-path="url(#94bcbeb21b)"><path style=" stroke:none;fill-rule:nonzero;fill:#000000;fill-opacity:1;" d="M 395.339844 40.695312 C 393.824219 38.550781 391.734375 36.910156 389.070312 35.78125 C 386.417969 34.652344 383.347656 34.082031 379.878906 34.082031 C 376.722656 34.082031 373.839844 34.640625 371.230469 35.757812 C 368.625 36.863281 366.523438 38.5625 364.9375 40.808594 C 363.671875 42.597656 362.890625 44.765625 362.570312 47.304688 C 362.433594 48.414062 363.316406 49.390625 364.441406 49.390625 L 371.425781 49.390625 C 372.324219 49.390625 373.082031 48.765625 373.277344 47.898438 C 373.449219 47.125 373.734375 46.429688 374.136719 45.835938 C 374.78125 44.878906 375.609375 44.148438 376.617188 43.660156 C 377.628906 43.167969 378.699219 42.917969 379.835938 42.917969 C 381.007812 42.917969 382.0625 43.15625 383.039062 43.648438 C 384.003906 44.125 384.773438 44.820312 385.347656 45.722656 C 385.921875 46.621094 386.210938 47.660156 386.210938 48.855469 C 386.210938 49.984375 385.957031 51 385.453125 51.902344 C 384.945312 52.800781 384.269531 53.632812 383.417969 54.375 C 382.558594 55.125 381.601562 55.832031 380.523438 56.527344 C 379.078125 57.429688 377.835938 58.433594 376.8125 59.539062 C 375.78125 60.644531 375.011719 62.09375 374.46875 63.894531 C 373.941406 65.695312 373.667969 68.101562 373.65625 71.121094 L 373.65625 72.625 C 373.65625 73.652344 374.492188 74.496094 375.539062 74.496094 L 381.683594 74.496094 C 382.71875 74.496094 383.566406 73.664062 383.566406 72.625 L 383.566406 71.121094 C 383.589844 69.421875 383.808594 67.996094 384.234375 66.847656 C 384.660156 65.695312 385.3125 64.667969 386.1875 63.789062 C 387.070312 62.914062 388.195312 62.070312 389.574219 61.25 C 391.21875 60.28125 392.628906 59.195312 393.835938 57.988281 C 395.03125 56.792969 395.972656 55.398438 396.648438 53.839844 C 397.316406 52.277344 397.660156 50.476562 397.660156 48.457031 C 397.625 45.425781 396.855469 42.835938 395.339844 40.695312 Z M 395.339844 40.695312 "/></g><g clip-rule="nonzero" clip-path="url(#62eac128ef)"><path style=" stroke:none;fill-rule:nonzero;fill:#000000;fill-opacity:1;" d="M 378.800781 78.691406 C 377.054688 78.691406 375.574219 79.292969 374.34375 80.503906 C 373.113281 81.710938 372.507812 83.171875 372.527344 84.859375 C 372.507812 86.566406 373.113281 88.039062 374.34375 89.257812 C 375.574219 90.476562 377.054688 91.082031 378.800781 91.082031 C 379.914062 91.082031 380.949219 90.796875 381.878906 90.238281 C 382.820312 89.667969 383.578125 88.929688 384.164062 87.980469 C 384.75 87.035156 385.050781 85.996094 385.0625 84.859375 C 385.039062 83.160156 384.40625 81.710938 383.152344 80.503906 C 381.914062 79.292969 380.453125 78.691406 378.800781 78.691406 Z M 378.800781 78.691406 "/></g></g></svg>