<svg xmlns="http://www.w3.org/2000/svg" xmlns:xlink="http://www.w3.org/1999/xlink" width="600" zoomAndPan="magnify" viewBox="0 0 450 149.999998" height="200" preserveAspectRatio="xMidYMid meet" version="1.2"><defs><clipPath id="35f525331a"><path d="M 363.425781 31.992188 L 411.425781 31.992188 L 411.425781 88 L 363.425781 88 Z M 363.425781 31.992188 "/></clipPath><clipPath id="b2c2b66a76"><path d="M 377 93 L 395 93 L 395 109.992188 L 377 109.992188 Z M 377 93 "/></clipPath></defs><g id="1796a9065e"><rect x="0" width="450" y="0" height="149.999998" style="fill:#ffffff;fill-opacity:1;stroke:none;"/><rect x="0" width="450" y="0" height="149.999998" style="fill:#ffffff;fill-opacity:1;stroke:none;"/><path style="fill-rule:nonzero;fill:#000000;fill-opacity:1;stroke-width:1;stroke-linecap:butt;stroke-linejoin:miter;stroke:#0c7b3b;stroke-opacity:1;stroke-miterlimit:4;" d="M 0.499995 0.999997 L 0.499995 199.000009 M 599.50003 0.999997 L 599.50003 199.000009 M -0.000005 0.499997 L 600.00003 0.499997 M -0.000005 199.500009 L 600.00003 199.500009 " transform="matrix(0.75,0,0,0.75,0.00000375,0.000002)"/><g style="fill:#0c7b3b;fill-opacity:1;"><g transform="translate(22.129825, 98.644801)"><path style="stroke:none" d="M 39.292969 -75.007812 L 4.449219 -30.066406 L 4.449219 -18.234375 L 33.324219 -18.234375 L 33.324219 0 L 49.714844 0 L 49.714844 -18.234375 L 54.707031 -18.234375 L 54.707031 -30.066406 L 49.714844 -30.066406 L 49.714844 -75.007812 Z M 33.324219 -30.066406 L 17.476562 -30.066406 L 33.324219 -50.257812 Z M 33.324219 -30.066406 "/></g></g><g style="fill:#0c7b3b;fill-opacity:1;"><g transform="translate(82.043339, 98.644801)"><path style="stroke:none" d=""/></g></g><g style="fill:#0c7b3b;fill-opacity:1;"><g transform="translate(112.217173, 98.644801)"><path style="stroke:none" d="M 3.90625 -32.347656 L 3.90625 -17.910156 L 32.238281 -17.910156 L 32.238281 -32.347656 Z M 3.90625 -32.347656 "/></g></g><g style="fill:#0c7b3b;fill-opacity:1;"><g transform="translate(148.360657, 98.644801)"><path style="stroke:none" d=""/></g></g><g style="fill:#0c7b3b;fill-opacity:1;"><g transform="translate(178.534491, 98.644801)"><path style="stroke:none" d="M 27.570312 -75.007812 C 19.429688 -75.007812 13.570312 -72.183594 6.839844 -67.949219 L 6.839844 -52.429688 C 12.808594 -58.179688 19.863281 -61.65625 24.640625 -61.65625 C 30.285156 -61.65625 34.625 -56.769531 34.625 -51.234375 C 34.625 -44.289062 30.9375 -35.929688 19.753906 -20.625 C 14.21875 -13.132812 9.550781 -6.839844 5.863281 -2.171875 L 5.863281 0 L 54.816406 0 L 54.816406 -15.089844 L 30.9375 -15.089844 C 41.03125 -28.113281 42.984375 -31.585938 47.761719 -41.03125 C 49.933594 -45.480469 51.015625 -49.714844 51.015625 -54.273438 C 51.015625 -65.34375 43.746094 -75.007812 27.570312 -75.007812 Z M 27.570312 -75.007812 "/></g></g><g style="fill:#0c7b3b;fill-opacity:1;"><g transform="translate(238.448004, 98.644801)"><path style="stroke:none" d=""/></g></g><g style="fill:#0c7b3b;fill-opacity:1;"><g transform="translate(268.621838, 98.644801)"><path style="stroke:none" d="M 4.449219 -55.792969 L 4.449219 -41.789062 L 58.832031 -41.789062 L 58.832031 -55.792969 Z M 4.449219 -32.238281 L 4.449219 -18.34375 L 58.832031 -18.34375 L 58.832031 -32.238281 Z M 4.449219 -32.238281 "/></g></g><g style="fill:#0c7b3b;fill-opacity:1;"><g transform="translate(331.903245, 98.644801)"><path style="stroke:none" d=""/></g></g><g clip-rule="nonzero" clip-path="url(#35f525331a)"><path style=" stroke:none;fill-rule:nonzero;fill:#000000;fill-opacity:1;" d="M 408.253906 41.039062 C 406.1875 38.105469 403.339844 35.859375 399.710938 34.316406 C 396.097656 32.773438 391.921875 31.992188 387.199219 31.992188 C 382.898438 31.992188 378.96875 32.757812 375.417969 34.285156 C 371.871094 35.796875 369.007812 38.121094 366.847656 41.195312 C 365.128906 43.644531 364.0625 46.609375 363.625 50.085938 C 363.4375 51.601562 364.644531 52.941406 366.175781 52.941406 L 375.6875 52.941406 C 376.90625 52.941406 377.9375 52.085938 378.203125 50.898438 C 378.4375 49.839844 378.828125 48.886719 379.378906 48.074219 C 380.253906 46.765625 381.378906 45.765625 382.757812 45.09375 C 384.132812 44.425781 385.585938 44.082031 387.136719 44.082031 C 388.730469 44.082031 390.171875 44.410156 391.5 45.078125 C 392.8125 45.734375 393.863281 46.6875 394.644531 47.917969 C 395.425781 49.152344 395.816406 50.570312 395.816406 52.210938 C 395.816406 53.753906 395.472656 55.140625 394.785156 56.375 C 394.097656 57.605469 393.171875 58.746094 392.015625 59.757812 C 390.84375 60.789062 389.542969 61.757812 388.074219 62.707031 C 386.101562 63.941406 384.414062 65.3125 383.023438 66.828125 C 381.613281 68.339844 380.566406 70.320312 379.832031 72.785156 C 379.109375 75.25 378.734375 78.542969 378.71875 82.675781 L 378.71875 84.734375 C 378.71875 86.140625 379.863281 87.292969 381.285156 87.292969 L 389.652344 87.292969 C 391.0625 87.292969 392.21875 86.15625 392.21875 84.734375 L 392.21875 82.675781 C 392.25 80.351562 392.546875 78.402344 393.125 76.824219 C 393.707031 75.25 394.597656 73.847656 395.785156 72.644531 C 396.988281 71.445312 398.523438 70.289062 400.398438 69.167969 C 402.636719 67.839844 404.5625 66.359375 406.203125 64.703125 C 407.828125 63.066406 409.113281 61.164062 410.035156 59.027344 C 410.941406 56.890625 411.410156 54.425781 411.410156 51.664062 C 411.363281 47.511719 410.316406 43.972656 408.253906 41.039062 Z M 408.253906 41.039062 "/></g><g clip-rule="nonzero" clip-path="url(#b2c2b66a76)"><path style=" stroke:none;fill-rule:nonzero;fill:#000000;fill-opacity:1;" d="M 385.726562 93.035156 C 383.351562 93.035156 381.332031 93.859375 379.660156 95.515625 C 377.984375 97.167969 377.15625 99.164062 377.1875 101.472656 C 377.15625 103.8125 377.984375 105.828125 379.660156 107.496094 C 381.332031 109.164062 383.351562 109.992188 385.726562 109.992188 C 387.246094 109.992188 388.652344 109.601562 389.917969 108.835938 C 391.203125 108.058594 392.234375 107.042969 393.03125 105.75 C 393.832031 104.453125 394.238281 103.035156 394.253906 101.472656 C 394.222656 99.148438 393.359375 97.167969 391.65625 95.515625 C 389.964844 93.859375 387.980469 93.035156 385.726562 93.035156 Z M 385.726562 93.035156 "/></g></g></svg>