<svg xmlns="http://www.w3.org/2000/svg" xmlns:xlink="http://www.w3.org/1999/xlink" width="189" zoomAndPan="magnify" viewBox="0 0 141.75 56.999997" height="76" preserveAspectRatio="xMidYMid meet" version="1.2"><defs><clipPath id="5a238bd9a1"><path d="M 0 0.0507812 L 141.5 0.0507812 L 141.5 56.949219 L 0 56.949219 Z M 0 0.0507812 "/></clipPath><clipPath id="addcb13fdc"><path d="M 62 2.480469 L 75 2.480469 L 75 22 L 62 22 Z M 62 2.480469 "/></clipPath><clipPath id="8bbb8f66d9"><path d="M 57.992188 26 L 78.957031 26 L 78.957031 30 L 57.992188 30 Z M 57.992188 26 "/></clipPath></defs><g id="60c4b966b8"><g clip-rule="nonzero" clip-path="url(#5a238bd9a1)"><path style=" stroke:none;fill-rule:nonzero;fill:#ffffff;fill-opacity:1;" d="M 0 0.0507812 L 141.5 0.0507812 L 141.5 56.949219 L 0 56.949219 Z M 0 0.0507812 "/><path style=" stroke:none;fill-rule:nonzero;fill:#ffffff;fill-opacity:1;" d="M 0 0.0507812 L 141.519531 0.0507812 L 141.519531 56.957031 L 0 56.957031 Z M 0 0.0507812 "/></g><g clip-rule="nonzero" clip-path="url(#addcb13fdc)"><path style=" stroke:none;fill-rule:nonzero;fill:#16a637;fill-opacity:1;" d="M 68.140625 21.703125 C 68.542969 21.730469 68.945312 21.71875 69.34375 21.664062 C 69.742188 21.609375 70.132812 21.515625 70.511719 21.378906 C 70.890625 21.242188 71.253906 21.066406 71.597656 20.855469 C 71.941406 20.644531 72.257812 20.402344 72.550781 20.121094 C 72.84375 19.84375 73.101562 19.539062 73.332031 19.207031 C 73.5625 18.875 73.753906 18.523438 73.90625 18.152344 C 74.0625 17.78125 74.179688 17.394531 74.253906 17 C 74.328125 16.605469 74.363281 16.203125 74.355469 15.800781 C 74.371094 15.460938 74.355469 15.121094 74.304688 14.785156 C 74.253906 14.445312 74.167969 14.117188 74.054688 13.796875 C 73.9375 13.476562 73.792969 13.171875 73.613281 12.878906 C 73.4375 12.585938 73.234375 12.316406 73.003906 12.066406 C 72.773438 11.8125 72.519531 11.585938 72.246094 11.386719 C 71.96875 11.183594 71.675781 11.011719 71.367188 10.871094 C 71.058594 10.726562 70.738281 10.617188 70.40625 10.539062 C 70.074219 10.457031 69.738281 10.414062 69.394531 10.402344 L 74.015625 5.738281 L 74.015625 2.933594 L 62.816406 2.933594 L 62.816406 5.371094 L 71.269531 5.371094 L 66.402344 10.238281 L 66.402344 12.378906 C 66.769531 12.347656 67.140625 12.347656 67.507812 12.378906 C 69.824219 12.378906 71.460938 13.515625 71.460938 15.933594 C 71.484375 16.164062 71.484375 16.390625 71.457031 16.617188 C 71.433594 16.847656 71.382812 17.070312 71.308594 17.289062 C 71.234375 17.503906 71.140625 17.710938 71.023438 17.910156 C 70.902344 18.105469 70.765625 18.289062 70.609375 18.457031 C 70.449219 18.625 70.277344 18.773438 70.085938 18.902344 C 69.898438 19.03125 69.695312 19.140625 69.484375 19.226562 C 69.273438 19.3125 69.050781 19.375 68.824219 19.414062 C 68.597656 19.457031 68.371094 19.46875 68.140625 19.460938 C 67.917969 19.472656 67.695312 19.464844 67.472656 19.429688 C 67.253906 19.394531 67.039062 19.335938 66.828125 19.253906 C 66.617188 19.175781 66.421875 19.070312 66.234375 18.949219 C 66.046875 18.824219 65.875 18.679688 65.722656 18.519531 C 65.566406 18.359375 65.429688 18.183594 65.3125 17.992188 C 65.195312 17.800781 65.097656 17.597656 65.023438 17.386719 C 64.949219 17.175781 64.898438 16.957031 64.875 16.734375 C 64.847656 16.511719 64.84375 16.289062 64.867188 16.066406 L 64.867188 15.492188 L 62.136719 15.492188 L 62.136719 16.300781 C 62.136719 19.402344 64.292969 21.703125 68.140625 21.703125 Z M 68.140625 21.703125 "/></g><path style=" stroke:none;fill-rule:nonzero;fill:#16a637;fill-opacity:1;" d="M 71.992188 35.394531 L 68.4375 35.394531 L 61.457031 46.136719 L 61.457031 48.925781 L 69.277344 48.925781 L 69.277344 53.839844 L 71.992188 53.839844 L 71.992188 48.925781 L 75.03125 48.925781 L 75.03125 46.683594 L 71.992188 46.683594 Z M 69.277344 46.683594 L 63.804688 46.683594 L 69.175781 38.257812 L 69.277344 38.257812 Z M 69.277344 46.683594 "/><g clip-rule="nonzero" clip-path="url(#8bbb8f66d9)"><path style=" stroke:none;fill-rule:nonzero;fill:#16a637;fill-opacity:1;" d="M 57.933594 26.957031 L 78.574219 26.957031 L 78.574219 29.90625 L 57.933594 29.90625 Z M 57.933594 26.957031 "/></g></g></svg>