<svg xmlns="http://www.w3.org/2000/svg" xmlns:xlink="http://www.w3.org/1999/xlink" width="600" zoomAndPan="magnify" viewBox="0 0 450 149.999998" height="200" preserveAspectRatio="xMidYMid meet" version="1.2"><defs><clipPath id="0a3fcd8e7a"><path d="M 169.664062 3 L 287.414062 3 L 287.414062 44.972656 L 169.664062 44.972656 Z M 169.664062 3 "/></clipPath><clipPath id="7722bb670e"><path d="M 169.664062 2.972656 L 287.414062 2.972656 L 287.414062 44.972656 L 169.664062 44.972656 Z M 169.664062 2.972656 "/></clipPath><clipPath id="8262090e27"><path d="M 169.664062 51.308594 L 287.414062 51.308594 L 287.414062 93 L 169.664062 93 Z M 169.664062 51.308594 "/></clipPath><clipPath id="32b49f9e33"><path d="M 252.230469 61.261719 L 266.480469 61.261719 L 266.480469 79 L 252.230469 79 Z M 252.230469 61.261719 "/></clipPath><clipPath id="3452d98ff6"><path d="M 256 80 L 262 80 L 262 85.261719 L 256 85.261719 Z M 256 80 "/></clipPath><clipPath id="d57186ab87"><path d="M 182.628906 55.148438 L 216.378906 55.148438 L 216.378906 88.898438 L 182.628906 88.898438 Z M 182.628906 55.148438 "/></clipPath><clipPath id="313471f2ba"><path d="M 182.628906 6.808594 L 216.378906 6.808594 L 216.378906 40.558594 L 182.628906 40.558594 Z M 182.628906 6.808594 "/></clipPath><clipPath id="a43944e578"><path d="M 241.75 9.171875 L 274.214844 9.171875 L 274.214844 38.054688 L 241.75 38.054688 Z M 241.75 9.171875 "/></clipPath><clipPath id="f09995a3c2"><path d="M 134.335938 99.34375 L 324.835938 99.34375 L 324.835938 132 L 134.335938 132 Z M 134.335938 99.34375 "/></clipPath><clipPath id="b25ac0d3e4"><path d="M 134.335938 99.34375 L 324.835938 99.34375 L 324.835938 132.34375 L 134.335938 132.34375 Z M 134.335938 99.34375 "/></clipPath><clipPath id="c73a0f7b20"><path d="M 134.335938 135 L 324.835938 135 L 324.835938 148 L 134.335938 148 Z M 134.335938 135 "/></clipPath><clipPath id="602b86151b"><path d="M 287.832031 103.582031 L 313.332031 103.582031 L 313.332031 129.082031 L 287.832031 129.082031 Z M 287.832031 103.582031 "/></clipPath><clipPath id="c1873bb694"><path d="M 145.25 104.652344 L 170 104.652344 L 170 129.402344 L 145.25 129.402344 Z M 145.25 104.652344 "/></clipPath><clipPath id="7ff0f4746c"><path d="M 239.882812 104.722656 L 264.582031 104.722656 L 264.582031 129.066406 L 239.882812 129.066406 Z M 239.882812 104.722656 "/></clipPath><clipPath id="f7c218bf59"><path d="M 192.867188 104.722656 L 217.566406 104.722656 L 217.566406 129.066406 L 192.867188 129.066406 Z M 192.867188 104.722656 "/></clipPath></defs><g id="aeaa8b330d"><rect x="0" width="450" y="0" height="149.999998" style="fill:#ffffff;fill-opacity:1;stroke:none;"/><rect x="0" width="450" y="0" height="149.999998" style="fill:#ffffff;fill-opacity:1;stroke:none;"/><g clip-rule="nonzero" clip-path="url(#0a3fcd8e7a)"><path style=" stroke:none;fill-rule:nonzero;fill:#000000;fill-opacity:1;" d="M 169.867188 3.375 L 169.867188 43.851562 M 228.800781 3.375 L 228.800781 43.851562 M 286.921875 3.375 L 286.921875 43.851562 M 169.664062 3.175781 L 287.125 3.175781 M 169.664062 44.054688 L 287.125 44.054688 "/></g><g clip-rule="nonzero" clip-path="url(#7722bb670e)"><path style="fill:none;stroke-width:0.540731;stroke-linecap:butt;stroke-linejoin:miter;stroke:#000000;stroke-opacity:1;stroke-miterlimit:4;" d="M 0.269825 0.538494 L 0.269825 54.507247 M 78.847955 0.538494 L 78.847955 54.507247 M 156.342751 0.538494 L 156.342751 54.507247 M -0.0010082 0.272869 L 156.613584 0.272869 M -0.0010082 54.77808 L 156.613584 54.77808 " transform="matrix(0.75,0,0,0.75,169.664819,2.97113)"/></g><g clip-rule="nonzero" clip-path="url(#8262090e27)"><path style="fill-rule:nonzero;fill:#000000;fill-opacity:1;stroke-width:0.540731;stroke-linecap:butt;stroke-linejoin:miter;stroke:#000000;stroke-opacity:1;stroke-miterlimit:4;" d="M 0.269825 0.540979 L 0.269825 54.504524 M 78.847955 0.540979 L 78.847955 54.504524 M 156.342751 0.540979 L 156.342751 54.504524 M -0.0010082 0.270146 L 156.613584 0.270146 M -0.0010082 54.775357 L 156.613584 54.775357 " transform="matrix(0.75,0,0,0.75,169.664819,51.309109)"/></g><g clip-rule="nonzero" clip-path="url(#32b49f9e33)"><path style=" stroke:none;fill-rule:nonzero;fill:#000000;fill-opacity:1;" d="M 265.535156 64.046875 C 264.921875 63.144531 264.078125 62.453125 263.003906 61.976562 C 261.929688 61.5 260.691406 61.261719 259.289062 61.261719 C 258.011719 61.261719 256.847656 61.496094 255.792969 61.96875 C 254.738281 62.433594 253.890625 63.148438 253.25 64.09375 C 252.738281 64.847656 252.425781 65.757812 252.292969 66.828125 C 252.238281 67.296875 252.59375 67.707031 253.050781 67.707031 L 255.871094 67.707031 C 256.234375 67.707031 256.539062 67.445312 256.621094 67.078125 C 256.691406 66.753906 256.804688 66.460938 256.96875 66.210938 C 257.226562 65.808594 257.5625 65.5 257.96875 65.292969 C 258.378906 65.085938 258.8125 64.980469 259.269531 64.980469 C 259.742188 64.980469 260.171875 65.082031 260.566406 65.289062 C 260.957031 65.492188 261.265625 65.785156 261.5 66.164062 C 261.730469 66.542969 261.847656 66.980469 261.847656 67.484375 C 261.847656 67.957031 261.746094 68.386719 261.539062 68.765625 C 261.335938 69.144531 261.0625 69.492188 260.71875 69.804688 C 260.371094 70.121094 259.984375 70.421875 259.546875 70.714844 C 258.964844 71.09375 258.460938 71.515625 258.050781 71.980469 C 257.632812 72.445312 257.320312 73.054688 257.101562 73.8125 C 256.890625 74.574219 256.777344 75.585938 256.773438 76.855469 L 256.773438 77.492188 C 256.773438 77.921875 257.113281 78.277344 257.535156 78.277344 L 260.015625 78.277344 C 260.433594 78.277344 260.777344 77.925781 260.777344 77.492188 L 260.777344 76.855469 C 260.789062 76.140625 260.875 75.542969 261.046875 75.058594 C 261.21875 74.574219 261.484375 74.140625 261.835938 73.769531 C 262.195312 73.402344 262.648438 73.046875 263.207031 72.699219 C 263.871094 72.292969 264.441406 71.835938 264.929688 71.328125 C 265.410156 70.824219 265.792969 70.238281 266.066406 69.582031 C 266.335938 68.921875 266.472656 68.164062 266.472656 67.316406 C 266.460938 66.039062 266.148438 64.949219 265.535156 64.046875 Z M 265.535156 64.046875 "/></g><g clip-rule="nonzero" clip-path="url(#3452d98ff6)"><path style=" stroke:none;fill-rule:nonzero;fill:#000000;fill-opacity:1;" d="M 258.851562 80.042969 C 258.148438 80.042969 257.546875 80.296875 257.050781 80.808594 C 256.554688 81.316406 256.308594 81.929688 256.316406 82.640625 C 256.308594 83.359375 256.554688 83.980469 257.050781 84.492188 C 257.546875 85.007812 258.148438 85.261719 258.851562 85.261719 C 259.300781 85.261719 259.71875 85.140625 260.097656 84.90625 C 260.476562 84.667969 260.785156 84.355469 261.019531 83.957031 C 261.257812 83.558594 261.378906 83.121094 261.382812 82.640625 C 261.371094 81.925781 261.117188 81.316406 260.613281 80.808594 C 260.109375 80.296875 259.519531 80.042969 258.851562 80.042969 Z M 258.851562 80.042969 "/></g><g clip-rule="nonzero" clip-path="url(#d57186ab87)"><path style=" stroke:none;fill-rule:nonzero;fill:#004aad;fill-opacity:1;" d="M 199.425781 88.746094 C 190.1875 88.746094 182.628906 81.1875 182.628906 71.945312 C 182.628906 62.707031 190.1875 55.148438 199.425781 55.148438 C 208.667969 55.148438 216.226562 62.707031 216.226562 71.945312 C 216.226562 81.1875 208.667969 88.746094 199.425781 88.746094 Z M 199.425781 88.746094 "/></g><g clip-rule="nonzero" clip-path="url(#313471f2ba)"><path style=" stroke:none;fill-rule:nonzero;fill:#ff3131;fill-opacity:1;" d="M 199.425781 40.40625 C 190.1875 40.40625 182.628906 32.847656 182.628906 23.609375 C 182.628906 14.367188 190.1875 6.808594 199.425781 6.808594 C 208.667969 6.808594 216.226562 14.367188 216.226562 23.609375 C 216.226562 32.847656 208.667969 40.40625 199.425781 40.40625 Z M 199.425781 40.40625 "/></g><g clip-rule="nonzero" clip-path="url(#a43944e578)"><path style=" stroke:none;fill-rule:nonzero;fill:#ff3131;fill-opacity:1;" d="M 241.75 9.171875 L 274.238281 9.171875 L 274.238281 38.054688 L 241.75 38.054688 Z M 241.75 9.171875 "/></g><g clip-rule="nonzero" clip-path="url(#f09995a3c2)"><path style=" stroke:none;fill-rule:nonzero;fill:#000000;fill-opacity:1;" d="M 134.660156 100 L 134.660156 131.585938 M 181.796875 100 L 181.796875 131.585938 M 228.304688 100 L 228.304688 131.585938 M 276.070312 100 L 276.070312 131.585938 M 323.839844 100 L 323.839844 131.585938 M 134.335938 99.671875 L 324.164062 99.671875 M 134.335938 131.914062 L 324.164062 131.914062 "/></g><g clip-rule="nonzero" clip-path="url(#b25ac0d3e4)"><path style="fill:none;stroke-width:0.871773;stroke-linecap:butt;stroke-linejoin:miter;stroke:#000000;stroke-opacity:1;stroke-miterlimit:4;" d="M 0.434282 0.874199 L 0.434282 42.988785 M 63.283244 0.874199 L 63.283244 42.988785 M 125.293664 0.874199 L 125.293664 42.988785 M 188.981168 0.874199 L 188.981168 42.988785 M 252.67388 0.874199 L 252.67388 42.988785 M 0.00199038 0.436699 L 253.106172 0.436699 M 0.00199038 43.426285 L 253.106172 43.426285 " transform="matrix(0.75,0,0,0.75,134.334445,99.344351)"/></g><g clip-rule="nonzero" clip-path="url(#c73a0f7b20)"><path style="fill-rule:nonzero;fill:#000000;fill-opacity:1;stroke-width:0.871773;stroke-linecap:butt;stroke-linejoin:miter;stroke:#000000;stroke-opacity:1;stroke-miterlimit:4;" d="M 0.434282 0.873408 L 0.434282 16.347367 M 63.585327 0.873408 L 63.585327 16.347367 M 124.694706 0.873408 L 124.694706 16.347367 M 188.949918 0.873408 L 188.949918 16.347367 M 252.67388 0.873408 L 252.67388 16.347367 M 0.00199038 0.435908 L 253.106172 0.435908 M 0.00199038 16.779659 L 253.106172 16.779659 " transform="matrix(0.75,0,0,0.75,134.334445,135.001194)"/></g><g style="fill:#000000;fill-opacity:1;"><g transform="translate(202.923566, 143.417893)"><path style="stroke:none" d="M 0.28125 0 L 0.28125 -0.765625 L 1.421875 -1.84375 C 1.765625 -2.175781 2.035156 -2.476562 2.234375 -2.75 C 2.429688 -3.03125 2.566406 -3.316406 2.640625 -3.609375 C 2.722656 -3.898438 2.765625 -4.234375 2.765625 -4.609375 C 2.765625 -5.046875 2.710938 -5.363281 2.609375 -5.5625 C 2.503906 -5.757812 2.328125 -5.859375 2.078125 -5.859375 C 1.890625 -5.859375 1.742188 -5.800781 1.640625 -5.6875 C 1.546875 -5.570312 1.476562 -5.378906 1.4375 -5.109375 C 1.394531 -4.847656 1.375 -4.484375 1.375 -4.015625 C 1.0625 -4.015625 0.804688 -4.078125 0.609375 -4.203125 C 0.410156 -4.328125 0.3125 -4.523438 0.3125 -4.796875 C 0.3125 -5.117188 0.460938 -5.390625 0.765625 -5.609375 C 1.078125 -5.828125 1.53125 -5.9375 2.125 -5.9375 C 2.738281 -5.9375 3.203125 -5.816406 3.515625 -5.578125 C 3.835938 -5.335938 4 -5 4 -4.5625 C 4 -4.375 3.960938 -4.191406 3.890625 -4.015625 C 3.828125 -3.835938 3.707031 -3.644531 3.53125 -3.4375 C 3.351562 -3.226562 3.113281 -2.988281 2.8125 -2.71875 C 2.519531 -2.457031 2.144531 -2.148438 1.6875 -1.796875 L 0.546875 -0.90625 L 3.3125 -0.90625 C 3.570312 -0.90625 3.757812 -0.941406 3.875 -1.015625 C 4 -1.097656 4.070312 -1.25 4.09375 -1.46875 L 4.125 -1.71875 L 4.203125 -1.71875 L 4.15625 0 Z M 0.28125 0 "/></g></g><g style="fill:#000000;fill-opacity:1;"><g transform="translate(251.140595, 143.417893)"><path style="stroke:none" d="M 1.984375 0.078125 C 1.378906 0.078125 0.9375 -0.0195312 0.65625 -0.21875 C 0.375 -0.414062 0.234375 -0.644531 0.234375 -0.90625 C 0.234375 -1.113281 0.300781 -1.269531 0.4375 -1.375 C 0.570312 -1.488281 0.734375 -1.546875 0.921875 -1.546875 C 0.921875 -1.140625 0.960938 -0.828125 1.046875 -0.609375 C 1.140625 -0.390625 1.257812 -0.234375 1.40625 -0.140625 C 1.5625 -0.046875 1.738281 0 1.9375 0 C 2.289062 0 2.546875 -0.132812 2.703125 -0.40625 C 2.859375 -0.675781 2.9375 -1.066406 2.9375 -1.578125 C 2.9375 -1.941406 2.894531 -2.222656 2.8125 -2.421875 C 2.726562 -2.628906 2.585938 -2.773438 2.390625 -2.859375 C 2.191406 -2.941406 1.9375 -2.984375 1.625 -2.984375 L 1.171875 -2.984375 L 1.171875 -3.0625 L 1.625 -3.0625 C 1.914062 -3.0625 2.140625 -3.109375 2.296875 -3.203125 C 2.460938 -3.296875 2.578125 -3.445312 2.640625 -3.65625 C 2.710938 -3.863281 2.75 -4.140625 2.75 -4.484375 C 2.75 -4.984375 2.6875 -5.335938 2.5625 -5.546875 C 2.445312 -5.753906 2.28125 -5.859375 2.0625 -5.859375 C 1.769531 -5.859375 1.578125 -5.707031 1.484375 -5.40625 C 1.398438 -5.113281 1.359375 -4.703125 1.359375 -4.171875 C 1.023438 -4.171875 0.765625 -4.226562 0.578125 -4.34375 C 0.390625 -4.457031 0.296875 -4.640625 0.296875 -4.890625 C 0.296875 -5.179688 0.445312 -5.425781 0.75 -5.625 C 1.0625 -5.832031 1.515625 -5.9375 2.109375 -5.9375 C 2.691406 -5.9375 3.148438 -5.816406 3.484375 -5.578125 C 3.828125 -5.347656 4 -5.007812 4 -4.5625 C 4 -4.332031 3.941406 -4.109375 3.828125 -3.890625 C 3.710938 -3.671875 3.519531 -3.484375 3.25 -3.328125 C 2.988281 -3.179688 2.628906 -3.085938 2.171875 -3.046875 C 2.828125 -3.046875 3.328125 -2.921875 3.671875 -2.671875 C 4.023438 -2.429688 4.203125 -2.0625 4.203125 -1.5625 C 4.203125 -1.164062 4.097656 -0.847656 3.890625 -0.609375 C 3.679688 -0.367188 3.40625 -0.191406 3.0625 -0.078125 C 2.726562 0.0234375 2.367188 0.078125 1.984375 0.078125 Z M 1.984375 0.078125 "/></g></g><g style="fill:#000000;fill-opacity:1;"><g transform="translate(155.022885, 143.417893)"><path style="stroke:none" d="M 0.796875 0 L 0.796875 -0.078125 L 1.46875 -0.078125 C 1.601562 -0.078125 1.703125 -0.113281 1.765625 -0.1875 C 1.835938 -0.269531 1.875 -0.410156 1.875 -0.609375 L 1.875 -5.21875 C 1.625 -4.863281 1.425781 -4.609375 1.28125 -4.453125 C 1.132812 -4.296875 0.988281 -4.21875 0.84375 -4.21875 C 0.695312 -4.21875 0.578125 -4.257812 0.484375 -4.34375 C 0.390625 -4.4375 0.34375 -4.578125 0.34375 -4.765625 C 0.613281 -4.773438 0.835938 -4.800781 1.015625 -4.84375 C 1.203125 -4.882812 1.375 -4.960938 1.53125 -5.078125 C 1.695312 -5.191406 1.894531 -5.363281 2.125 -5.59375 L 2.421875 -5.890625 L 3.09375 -5.890625 L 3.09375 -0.609375 C 3.09375 -0.441406 3.117188 -0.3125 3.171875 -0.21875 C 3.234375 -0.125 3.347656 -0.078125 3.515625 -0.078125 L 4.1875 -0.078125 L 4.1875 0 Z M 0.796875 0 "/></g></g><g style="fill:#000000;fill-opacity:1;"><g transform="translate(298.223982, 143.417893)"><path style="stroke:none" d="M 1.46875 0 L 1.46875 -0.078125 L 1.703125 -0.078125 C 1.890625 -0.078125 2.046875 -0.109375 2.171875 -0.171875 C 2.304688 -0.242188 2.375 -0.410156 2.375 -0.671875 L 2.375 -1.53125 L 0.109375 -1.53125 L 0.109375 -2.03125 L 2.4375 -5.859375 L 3.578125 -5.859375 L 3.578125 -2.0625 L 4.421875 -2.0625 L 4.421875 -1.53125 L 3.578125 -1.53125 L 3.578125 -0.671875 C 3.578125 -0.410156 3.640625 -0.242188 3.765625 -0.171875 C 3.898438 -0.109375 4.0625 -0.078125 4.25 -0.078125 L 4.359375 -0.078125 L 4.359375 0 Z M 0.234375 -2.0625 L 2.375 -2.0625 L 2.375 -3.875 C 2.375 -4.175781 2.375 -4.488281 2.375 -4.8125 C 2.375 -5.132812 2.378906 -5.414062 2.390625 -5.65625 C 2.359375 -5.601562 2.304688 -5.519531 2.234375 -5.40625 C 2.171875 -5.289062 2.097656 -5.164062 2.015625 -5.03125 C 1.941406 -4.894531 1.867188 -4.769531 1.796875 -4.65625 C 1.722656 -4.539062 1.664062 -4.445312 1.625 -4.375 Z M 0.234375 -2.0625 "/></g></g><g clip-rule="nonzero" clip-path="url(#602b86151b)"><path style=" stroke:none;fill-rule:nonzero;fill:#004aad;fill-opacity:1;" d="M 300.570312 129.058594 C 293.5625 129.058594 287.832031 123.328125 287.832031 116.320312 C 287.832031 109.316406 293.5625 103.582031 300.570312 103.582031 C 307.574219 103.582031 313.308594 109.316406 313.308594 116.320312 C 313.308594 123.328125 307.574219 129.058594 300.570312 129.058594 Z M 300.570312 129.058594 "/></g><g clip-rule="nonzero" clip-path="url(#c1873bb694)"><path style=" stroke:none;fill-rule:nonzero;fill:#ff3131;fill-opacity:1;" d="M 157.453125 129.0625 C 150.742188 129.0625 145.25 123.570312 145.25 116.855469 C 145.25 110.144531 150.742188 104.652344 157.453125 104.652344 C 164.167969 104.652344 169.660156 110.144531 169.660156 116.855469 C 169.660156 123.570312 164.167969 129.0625 157.453125 129.0625 Z M 157.453125 129.0625 "/></g><g clip-rule="nonzero" clip-path="url(#7ff0f4746c)"><path style=" stroke:none;fill-rule:nonzero;fill:#ff3131;fill-opacity:1;" d="M 239.882812 104.722656 L 264.609375 104.722656 L 264.609375 129.066406 L 239.882812 129.066406 Z M 239.882812 104.722656 "/></g><g clip-rule="nonzero" clip-path="url(#f7c218bf59)"><path style=" stroke:none;fill-rule:nonzero;fill:#004aad;fill-opacity:1;" d="M 192.867188 104.722656 L 217.59375 104.722656 L 217.59375 129.066406 L 192.867188 129.066406 Z M 192.867188 104.722656 "/></g></g></svg>