<svg xmlns="http://www.w3.org/2000/svg" xmlns:xlink="http://www.w3.org/1999/xlink" width="600" zoomAndPan="magnify" viewBox="0 0 450 149.999998" height="200" preserveAspectRatio="xMidYMid meet" version="1.2"><defs><clipPath id="89da6c6123"><path d="M 168.191406 3.515625 L 290 3.515625 L 290 47 L 168.191406 47 Z M 168.191406 3.515625 "/></clipPath><clipPath id="04b443c330"><path d="M 168.191406 3.515625 L 290.441406 3.515625 L 290.441406 47 L 168.191406 47 Z M 168.191406 3.515625 "/></clipPath><clipPath id="85037053f7"><path d="M 168.191406 53.628906 L 290 53.628906 L 290 97 L 168.191406 97 Z M 168.191406 53.628906 "/></clipPath><clipPath id="2fdbab653f"><path d="M 168.191406 53.628906 L 290.441406 53.628906 L 290.441406 97 L 168.191406 97 Z M 168.191406 53.628906 "/></clipPath><clipPath id="74aee50281"><path d="M 253.792969 63.949219 L 268.792969 63.949219 L 268.792969 82 L 253.792969 82 Z M 253.792969 63.949219 "/></clipPath><clipPath id="4269a8a5dc"><path d="M 258 83 L 264 83 L 264 88.699219 L 258 88.699219 Z M 258 83 "/></clipPath><clipPath id="5c2c70af51"><path d="M 180.742188 9.144531 L 214.320312 9.144531 L 214.320312 40.6875 L 180.742188 40.6875 Z M 180.742188 9.144531 "/></clipPath><clipPath id="d51e28bf84"><path d="M 243.507812 7.984375 L 277.082031 7.984375 L 277.082031 39.527344 L 243.507812 39.527344 Z M 243.507812 7.984375 "/></clipPath><clipPath id="690262ab28"><path d="M 181.628906 57.609375 L 216.128906 57.609375 L 216.128906 92.109375 L 181.628906 92.109375 Z M 181.628906 57.609375 "/></clipPath><clipPath id="9ecd8ef568"><path d="M 134.335938 99.34375 L 324.835938 99.34375 L 324.835938 132 L 134.335938 132 Z M 134.335938 99.34375 "/></clipPath><clipPath id="3be2d28c76"><path d="M 134.335938 99.34375 L 324.835938 99.34375 L 324.835938 132.34375 L 134.335938 132.34375 Z M 134.335938 99.34375 "/></clipPath><clipPath id="8db856859c"><path d="M 134.335938 135 L 324.835938 135 L 324.835938 148 L 134.335938 148 Z M 134.335938 135 "/></clipPath><clipPath id="a53a618ca2"><path d="M 240.671875 103.582031 L 266.171875 103.582031 L 266.171875 129.082031 L 240.671875 129.082031 Z M 240.671875 103.582031 "/></clipPath><clipPath id="7d83735091"><path d="M 193.007812 103.582031 L 217.757812 103.582031 L 217.757812 128 L 193.007812 128 Z M 193.007812 103.582031 "/></clipPath><clipPath id="7c70505d28"><path d="M 288.167969 104.152344 L 312.867188 104.152344 L 312.867188 128.5 L 288.167969 128.5 Z M 288.167969 104.152344 "/></clipPath><clipPath id="6eefdea653"><path d="M 144.964844 104.152344 L 169.664062 104.152344 L 169.664062 128.5 L 144.964844 128.5 Z M 144.964844 104.152344 "/></clipPath></defs><g id="7404168f7e"><rect x="0" width="450" y="0" height="149.999998" style="fill:#ffffff;fill-opacity:1;stroke:none;"/><rect x="0" width="450" y="0" height="149.999998" style="fill:#ffffff;fill-opacity:1;stroke:none;"/><g clip-rule="nonzero" clip-path="url(#89da6c6123)"><path style=" stroke:none;fill-rule:nonzero;fill:#000000;fill-opacity:1;" d="M 168.398438 3.933594 L 168.398438 45.898438 M 229.5 3.933594 L 229.5 45.898438 M 289.757812 3.933594 L 289.757812 45.898438 M 168.191406 3.722656 L 289.96875 3.722656 M 168.191406 46.105469 L 289.96875 46.105469 "/></g><g clip-rule="nonzero" clip-path="url(#04b443c330)"><path style="fill:none;stroke-width:0.560612;stroke-linecap:butt;stroke-linejoin:miter;stroke:#000000;stroke-opacity:1;stroke-miterlimit:4;" d="M 0.278564 0.559365 L 0.278564 56.512494 M 81.747318 0.559365 L 81.747318 56.512494 M 162.091073 0.559365 L 162.091073 56.512494 M 0.00252201 0.278115 L 162.372323 0.278115 M 0.00252201 56.788535 L 162.372323 56.788535 " transform="matrix(0.75,0,0,0.75,168.189515,3.51407)"/></g><g clip-rule="nonzero" clip-path="url(#85037053f7)"><path style=" stroke:none;fill-rule:nonzero;fill:#000000;fill-opacity:1;" d="M 168.398438 54.050781 L 168.398438 96.011719 M 229.5 54.050781 L 229.5 96.011719 M 289.757812 54.050781 L 289.757812 96.011719 M 168.191406 53.839844 L 289.96875 53.839844 M 168.191406 96.222656 L 289.96875 96.222656 "/></g><g clip-rule="nonzero" clip-path="url(#2fdbab653f)"><path style="fill:none;stroke-width:0.560612;stroke-linecap:butt;stroke-linejoin:miter;stroke:#000000;stroke-opacity:1;stroke-miterlimit:4;" d="M 0.278564 0.562001 L 0.278564 56.509921 M 81.747318 0.562001 L 81.747318 56.509921 M 162.091073 0.562001 L 162.091073 56.509921 M 0.00252201 0.280751 L 162.372323 0.280751 M 0.00252201 56.791171 L 162.372323 56.791171 " transform="matrix(0.75,0,0,0.75,168.189515,53.62928)"/></g><g clip-rule="nonzero" clip-path="url(#74aee50281)"><path style=" stroke:none;fill-rule:nonzero;fill:#000000;fill-opacity:1;" d="M 267.800781 66.820312 C 267.15625 65.886719 266.265625 65.175781 265.132812 64.6875 C 264.003906 64.195312 262.699219 63.949219 261.21875 63.949219 C 259.875 63.949219 258.648438 64.191406 257.539062 64.675781 C 256.429688 65.15625 255.535156 65.894531 254.859375 66.867188 C 254.320312 67.644531 253.988281 68.585938 253.851562 69.691406 C 253.792969 70.171875 254.167969 70.597656 254.648438 70.597656 L 257.621094 70.597656 C 258.003906 70.597656 258.324219 70.324219 258.410156 69.949219 C 258.480469 69.609375 258.605469 69.308594 258.777344 69.050781 C 259.050781 68.636719 259.402344 68.320312 259.832031 68.105469 C 260.261719 67.894531 260.71875 67.785156 261.199219 67.785156 C 261.699219 67.785156 262.148438 67.886719 262.566406 68.101562 C 262.976562 68.308594 263.304688 68.609375 263.546875 69.003906 C 263.792969 69.394531 263.914062 69.84375 263.914062 70.363281 C 263.914062 70.851562 263.808594 71.292969 263.59375 71.683594 C 263.378906 72.074219 263.089844 72.4375 262.726562 72.757812 C 262.359375 73.085938 261.953125 73.394531 261.496094 73.695312 C 260.878906 74.085938 260.351562 74.519531 259.914062 75 C 259.476562 75.480469 259.148438 76.109375 258.917969 76.890625 C 258.691406 77.675781 258.574219 78.71875 258.570312 80.03125 L 258.570312 80.683594 C 258.570312 81.128906 258.925781 81.496094 259.371094 81.496094 L 261.988281 81.496094 C 262.429688 81.496094 262.789062 81.132812 262.789062 80.683594 L 262.789062 80.03125 C 262.800781 79.292969 262.894531 78.675781 263.074219 78.175781 C 263.253906 77.675781 263.535156 77.230469 263.90625 76.847656 C 264.28125 76.464844 264.761719 76.101562 265.347656 75.742188 C 266.046875 75.324219 266.648438 74.851562 267.160156 74.328125 C 267.671875 73.808594 268.070312 73.203125 268.359375 72.527344 C 268.644531 71.847656 268.789062 71.066406 268.789062 70.191406 C 268.777344 68.875 268.449219 67.75 267.800781 66.820312 Z M 267.800781 66.820312 "/></g><g clip-rule="nonzero" clip-path="url(#4269a8a5dc)"><path style=" stroke:none;fill-rule:nonzero;fill:#000000;fill-opacity:1;" d="M 260.761719 83.316406 C 260.019531 83.316406 259.386719 83.578125 258.863281 84.105469 C 258.339844 84.628906 258.082031 85.261719 258.089844 85.996094 C 258.082031 86.738281 258.339844 87.375 258.863281 87.90625 C 259.386719 88.4375 260.019531 88.699219 260.761719 88.699219 C 261.234375 88.699219 261.675781 88.574219 262.070312 88.332031 C 262.472656 88.085938 262.796875 87.761719 263.042969 87.351562 C 263.292969 86.941406 263.421875 86.492188 263.425781 85.996094 C 263.417969 85.257812 263.148438 84.628906 262.613281 84.105469 C 262.085938 83.578125 261.464844 83.316406 260.761719 83.316406 Z M 260.761719 83.316406 "/></g><g clip-rule="nonzero" clip-path="url(#5c2c70af51)"><path style=" stroke:none;fill-rule:nonzero;fill:#004aad;fill-opacity:1;" d="M 180.742188 9.144531 L 214.378906 9.144531 L 214.378906 40.6875 L 180.742188 40.6875 Z M 180.742188 9.144531 "/></g><g clip-rule="nonzero" clip-path="url(#d51e28bf84)"><path style=" stroke:none;fill-rule:nonzero;fill:#004aad;fill-opacity:1;" d="M 243.507812 7.984375 L 277.144531 7.984375 L 277.144531 39.527344 L 243.507812 39.527344 Z M 243.507812 7.984375 "/></g><g clip-rule="nonzero" clip-path="url(#690262ab28)"><path style=" stroke:none;fill-rule:nonzero;fill:#004aad;fill-opacity:1;" d="M 198.878906 92.109375 C 189.390625 92.109375 181.628906 84.347656 181.628906 74.859375 C 181.628906 65.371094 189.390625 57.609375 198.878906 57.609375 C 208.367188 57.609375 216.128906 65.371094 216.128906 74.859375 C 216.128906 84.347656 208.367188 92.109375 198.878906 92.109375 Z M 198.878906 92.109375 "/></g><g clip-rule="nonzero" clip-path="url(#9ecd8ef568)"><path style=" stroke:none;fill-rule:nonzero;fill:#000000;fill-opacity:1;" d="M 134.660156 100 L 134.660156 131.585938 M 181.796875 100 L 181.796875 131.585938 M 228.304688 100 L 228.304688 131.585938 M 276.070312 100 L 276.070312 131.585938 M 323.839844 100 L 323.839844 131.585938 M 134.335938 99.671875 L 324.164062 99.671875 M 134.335938 131.914062 L 324.164062 131.914062 "/></g><g clip-rule="nonzero" clip-path="url(#3be2d28c76)"><path style="fill:none;stroke-width:0.871773;stroke-linecap:butt;stroke-linejoin:miter;stroke:#000000;stroke-opacity:1;stroke-miterlimit:4;" d="M 0.434282 0.874199 L 0.434282 42.988785 M 63.283244 0.874199 L 63.283244 42.988785 M 125.293664 0.874199 L 125.293664 42.988785 M 188.981168 0.874199 L 188.981168 42.988785 M 252.67388 0.874199 L 252.67388 42.988785 M 0.00199038 0.436699 L 253.106172 0.436699 M 0.00199038 43.426285 L 253.106172 43.426285 " transform="matrix(0.75,0,0,0.75,134.334445,99.344351)"/></g><g clip-rule="nonzero" clip-path="url(#8db856859c)"><path style="fill-rule:nonzero;fill:#000000;fill-opacity:1;stroke-width:0.871773;stroke-linecap:butt;stroke-linejoin:miter;stroke:#000000;stroke-opacity:1;stroke-miterlimit:4;" d="M 0.434282 0.873427 L 0.434282 16.347386 M 63.585327 0.873427 L 63.585327 16.347386 M 124.694706 0.873427 L 124.694706 16.347386 M 188.949918 0.873427 L 188.949918 16.347386 M 252.67388 0.873427 L 252.67388 16.347386 M 0.00199038 0.435927 L 253.106172 0.435927 M 0.00199038 16.779678 L 253.106172 16.779678 " transform="matrix(0.75,0,0,0.75,134.334445,135.00118)"/></g><g style="fill:#000000;fill-opacity:1;"><g transform="translate(202.923566, 143.417878)"><path style="stroke:none" d="M 0.28125 0 L 0.28125 -0.765625 L 1.421875 -1.84375 C 1.765625 -2.175781 2.035156 -2.476562 2.234375 -2.75 C 2.429688 -3.03125 2.566406 -3.316406 2.640625 -3.609375 C 2.722656 -3.898438 2.765625 -4.234375 2.765625 -4.609375 C 2.765625 -5.046875 2.710938 -5.363281 2.609375 -5.5625 C 2.503906 -5.757812 2.328125 -5.859375 2.078125 -5.859375 C 1.890625 -5.859375 1.742188 -5.800781 1.640625 -5.6875 C 1.546875 -5.570312 1.476562 -5.378906 1.4375 -5.109375 C 1.394531 -4.847656 1.375 -4.484375 1.375 -4.015625 C 1.0625 -4.015625 0.804688 -4.078125 0.609375 -4.203125 C 0.410156 -4.328125 0.3125 -4.523438 0.3125 -4.796875 C 0.3125 -5.117188 0.460938 -5.390625 0.765625 -5.609375 C 1.078125 -5.828125 1.53125 -5.9375 2.125 -5.9375 C 2.738281 -5.9375 3.203125 -5.816406 3.515625 -5.578125 C 3.835938 -5.335938 4 -5 4 -4.5625 C 4 -4.375 3.960938 -4.191406 3.890625 -4.015625 C 3.828125 -3.835938 3.707031 -3.644531 3.53125 -3.4375 C 3.351562 -3.226562 3.113281 -2.988281 2.8125 -2.71875 C 2.519531 -2.457031 2.144531 -2.148438 1.6875 -1.796875 L 0.546875 -0.90625 L 3.3125 -0.90625 C 3.570312 -0.90625 3.757812 -0.941406 3.875 -1.015625 C 4 -1.097656 4.070312 -1.25 4.09375 -1.46875 L 4.125 -1.71875 L 4.203125 -1.71875 L 4.15625 0 Z M 0.28125 0 "/></g></g><g style="fill:#000000;fill-opacity:1;"><g transform="translate(251.140595, 143.417878)"><path style="stroke:none" d="M 1.984375 0.078125 C 1.378906 0.078125 0.9375 -0.0195312 0.65625 -0.21875 C 0.375 -0.414062 0.234375 -0.644531 0.234375 -0.90625 C 0.234375 -1.113281 0.300781 -1.269531 0.4375 -1.375 C 0.570312 -1.488281 0.734375 -1.546875 0.921875 -1.546875 C 0.921875 -1.140625 0.960938 -0.828125 1.046875 -0.609375 C 1.140625 -0.390625 1.257812 -0.234375 1.40625 -0.140625 C 1.5625 -0.046875 1.738281 0 1.9375 0 C 2.289062 0 2.546875 -0.132812 2.703125 -0.40625 C 2.859375 -0.675781 2.9375 -1.066406 2.9375 -1.578125 C 2.9375 -1.941406 2.894531 -2.222656 2.8125 -2.421875 C 2.726562 -2.628906 2.585938 -2.773438 2.390625 -2.859375 C 2.191406 -2.941406 1.9375 -2.984375 1.625 -2.984375 L 1.171875 -2.984375 L 1.171875 -3.0625 L 1.625 -3.0625 C 1.914062 -3.0625 2.140625 -3.109375 2.296875 -3.203125 C 2.460938 -3.296875 2.578125 -3.445312 2.640625 -3.65625 C 2.710938 -3.863281 2.75 -4.140625 2.75 -4.484375 C 2.75 -4.984375 2.6875 -5.335938 2.5625 -5.546875 C 2.445312 -5.753906 2.28125 -5.859375 2.0625 -5.859375 C 1.769531 -5.859375 1.578125 -5.707031 1.484375 -5.40625 C 1.398438 -5.113281 1.359375 -4.703125 1.359375 -4.171875 C 1.023438 -4.171875 0.765625 -4.226562 0.578125 -4.34375 C 0.390625 -4.457031 0.296875 -4.640625 0.296875 -4.890625 C 0.296875 -5.179688 0.445312 -5.425781 0.75 -5.625 C 1.0625 -5.832031 1.515625 -5.9375 2.109375 -5.9375 C 2.691406 -5.9375 3.148438 -5.816406 3.484375 -5.578125 C 3.828125 -5.347656 4 -5.007812 4 -4.5625 C 4 -4.332031 3.941406 -4.109375 3.828125 -3.890625 C 3.710938 -3.671875 3.519531 -3.484375 3.25 -3.328125 C 2.988281 -3.179688 2.628906 -3.085938 2.171875 -3.046875 C 2.828125 -3.046875 3.328125 -2.921875 3.671875 -2.671875 C 4.023438 -2.429688 4.203125 -2.0625 4.203125 -1.5625 C 4.203125 -1.164062 4.097656 -0.847656 3.890625 -0.609375 C 3.679688 -0.367188 3.40625 -0.191406 3.0625 -0.078125 C 2.726562 0.0234375 2.367188 0.078125 1.984375 0.078125 Z M 1.984375 0.078125 "/></g></g><g style="fill:#000000;fill-opacity:1;"><g transform="translate(155.022885, 143.417878)"><path style="stroke:none" d="M 0.796875 0 L 0.796875 -0.078125 L 1.46875 -0.078125 C 1.601562 -0.078125 1.703125 -0.113281 1.765625 -0.1875 C 1.835938 -0.269531 1.875 -0.410156 1.875 -0.609375 L 1.875 -5.21875 C 1.625 -4.863281 1.425781 -4.609375 1.28125 -4.453125 C 1.132812 -4.296875 0.988281 -4.21875 0.84375 -4.21875 C 0.695312 -4.21875 0.578125 -4.257812 0.484375 -4.34375 C 0.390625 -4.4375 0.34375 -4.578125 0.34375 -4.765625 C 0.613281 -4.773438 0.835938 -4.800781 1.015625 -4.84375 C 1.203125 -4.882812 1.375 -4.960938 1.53125 -5.078125 C 1.695312 -5.191406 1.894531 -5.363281 2.125 -5.59375 L 2.421875 -5.890625 L 3.09375 -5.890625 L 3.09375 -0.609375 C 3.09375 -0.441406 3.117188 -0.3125 3.171875 -0.21875 C 3.234375 -0.125 3.347656 -0.078125 3.515625 -0.078125 L 4.1875 -0.078125 L 4.1875 0 Z M 0.796875 0 "/></g></g><g style="fill:#000000;fill-opacity:1;"><g transform="translate(298.223982, 143.417878)"><path style="stroke:none" d="M 1.46875 0 L 1.46875 -0.078125 L 1.703125 -0.078125 C 1.890625 -0.078125 2.046875 -0.109375 2.171875 -0.171875 C 2.304688 -0.242188 2.375 -0.410156 2.375 -0.671875 L 2.375 -1.53125 L 0.109375 -1.53125 L 0.109375 -2.03125 L 2.4375 -5.859375 L 3.578125 -5.859375 L 3.578125 -2.0625 L 4.421875 -2.0625 L 4.421875 -1.53125 L 3.578125 -1.53125 L 3.578125 -0.671875 C 3.578125 -0.410156 3.640625 -0.242188 3.765625 -0.171875 C 3.898438 -0.109375 4.0625 -0.078125 4.25 -0.078125 L 4.359375 -0.078125 L 4.359375 0 Z M 0.234375 -2.0625 L 2.375 -2.0625 L 2.375 -3.875 C 2.375 -4.175781 2.375 -4.488281 2.375 -4.8125 C 2.375 -5.132812 2.378906 -5.414062 2.390625 -5.65625 C 2.359375 -5.601562 2.304688 -5.519531 2.234375 -5.40625 C 2.171875 -5.289062 2.097656 -5.164062 2.015625 -5.03125 C 1.941406 -4.894531 1.867188 -4.769531 1.796875 -4.65625 C 1.722656 -4.539062 1.664062 -4.445312 1.625 -4.375 Z M 0.234375 -2.0625 "/></g></g><g clip-rule="nonzero" clip-path="url(#a53a618ca2)"><path style=" stroke:none;fill-rule:nonzero;fill:#004aad;fill-opacity:1;" d="M 253.410156 129.058594 C 246.40625 129.058594 240.671875 123.328125 240.671875 116.320312 C 240.671875 109.316406 246.40625 103.582031 253.410156 103.582031 C 260.417969 103.582031 266.148438 109.316406 266.148438 116.320312 C 266.148438 123.328125 260.417969 129.058594 253.410156 129.058594 Z M 253.410156 129.058594 "/></g><g clip-rule="nonzero" clip-path="url(#7d83735091)"><path style=" stroke:none;fill-rule:nonzero;fill:#ff3131;fill-opacity:1;" d="M 205.214844 127.992188 C 198.5 127.992188 193.007812 122.5 193.007812 115.789062 C 193.007812 109.074219 198.5 103.582031 205.214844 103.582031 C 211.925781 103.582031 217.417969 109.074219 217.417969 115.789062 C 217.417969 122.5 211.925781 127.992188 205.214844 127.992188 Z M 205.214844 127.992188 "/></g><g clip-rule="nonzero" clip-path="url(#7c70505d28)"><path style=" stroke:none;fill-rule:nonzero;fill:#ff3131;fill-opacity:1;" d="M 288.167969 104.152344 L 312.894531 104.152344 L 312.894531 128.5 L 288.167969 128.5 Z M 288.167969 104.152344 "/></g><g clip-rule="nonzero" clip-path="url(#6eefdea653)"><path style=" stroke:none;fill-rule:nonzero;fill:#004aad;fill-opacity:1;" d="M 144.964844 104.152344 L 169.691406 104.152344 L 169.691406 128.5 L 144.964844 128.5 Z M 144.964844 104.152344 "/></g></g></svg>