<svg xmlns="http://www.w3.org/2000/svg" xmlns:xlink="http://www.w3.org/1999/xlink" width="600" zoomAndPan="magnify" viewBox="0 0 450 149.999998" height="200" preserveAspectRatio="xMidYMid meet" version="1.2"><defs><clipPath id="c85e1cc134"><path d="M 0 1.207031 L 450 1.207031 L 450 150 L 0 150 Z M 0 1.207031 "/></clipPath><clipPath id="d87d3707dc"><path d="M 359.710938 49.402344 L 394.960938 49.402344 L 394.960938 90 L 359.710938 90 Z M 359.710938 49.402344 "/></clipPath><clipPath id="5f1e5e2a46"><path d="M 369 94 L 383 94 L 383 106.402344 L 369 106.402344 Z M 369 94 "/></clipPath><clipPath id="7cb852f340"><path d="M 169.847656 64.15625 L 199.097656 64.15625 L 199.097656 96 L 169.847656 96 Z M 169.847656 64.15625 "/></clipPath></defs><g id="1211de444b"><rect x="0" width="450" y="0" height="149.999998" style="fill:#ffffff;fill-opacity:1;stroke:none;"/><rect x="0" width="450" y="0" height="149.999998" style="fill:#ffffff;fill-opacity:1;stroke:none;"/><g clip-rule="nonzero" clip-path="url(#c85e1cc134)"><path style="fill-rule:nonzero;fill:#000000;fill-opacity:1;stroke-width:1;stroke-linecap:butt;stroke-linejoin:miter;stroke:#0c7b3b;stroke-opacity:1;stroke-miterlimit:4;" d="M 0.499995 0.998006 L 0.499995 198.998017 M 599.50003 0.998006 L 599.50003 198.998017 M -0.000005 0.498006 L 600.00003 0.498006 M -0.000005 199.498017 L 600.00003 199.498017 " transform="matrix(0.75,0,0,0.75,0.00000375,1.208527)"/></g><g style="fill:#0c7b3b;fill-opacity:1;"><g transform="translate(47.245861, 100.554601)"><path style="stroke:none" d="M 16.828125 -45.59375 L 9.039062 -32.992188 C 4.355469 -25.402344 2.902344 -20.585938 2.902344 -15.175781 C 2.902344 -4.882812 10.03125 0.59375 18.015625 0.59375 C 26.527344 0.59375 32.730469 -6.136719 32.730469 -14.914062 C 32.730469 -22.566406 27.449219 -28.96875 20.125 -28.96875 C 19.332031 -28.96875 18.804688 -28.902344 17.484375 -28.570312 L 27.910156 -45.59375 Z M 13.066406 -14.320312 C 13.066406 -18.671875 15.042969 -21.113281 17.882812 -21.113281 C 21.179688 -21.113281 23.027344 -18.144531 23.027344 -14.515625 C 23.027344 -10.753906 21.246094 -7.785156 18.015625 -7.785156 C 14.914062 -7.785156 13.066406 -10.226562 13.066406 -14.320312 Z M 13.066406 -14.320312 "/></g></g><g style="fill:#0c7b3b;fill-opacity:1;"><g transform="translate(83.664953, 100.554601)"><path style="stroke:none" d="M 4.222656 -45 L 4.222656 -36.027344 L 20.851562 -36.027344 L 8.777344 -2.835938 L 17.75 0.59375 L 34.179688 -44.472656 L 34.179688 -45 Z M 4.222656 -45 "/></g></g><g style="fill:#0c7b3b;fill-opacity:1;"><g transform="translate(120.084045, 100.554601)"><path style="stroke:none" d="M 6.53125 -45 L 6.53125 -19.332031 C 8.3125 -19.796875 10.160156 -19.992188 12.074219 -19.992188 C 17.289062 -19.992188 20.917969 -17.550781 20.917969 -13.527344 C 20.917969 -10.226562 18.277344 -7.324219 13.789062 -7.324219 C 11.414062 -7.324219 8.25 -7.851562 4.222656 -10.03125 L 4.222656 -1.847656 C 6.464844 -0.527344 11.347656 0.59375 15.109375 0.59375 C 25.867188 0.59375 31.410156 -5.476562 31.410156 -14.054688 C 31.410156 -21.90625 25.273438 -27.582031 17.289062 -27.582031 C 16.5625 -27.582031 16.035156 -27.515625 15.507812 -27.515625 L 15.507812 -35.960938 L 29.890625 -35.960938 L 29.890625 -45 Z M 6.53125 -45 "/></g></g><g style="fill:#0c7b3b;fill-opacity:1;"><g transform="translate(156.511483, 100.554601)"><path style="stroke:none" d=""/></g></g><g style="fill:#0c7b3b;fill-opacity:1;"><g transform="translate(174.852986, 100.554601)"><path style="stroke:none" d=""/></g></g><g style="fill:#0c7b3b;fill-opacity:1;"><g transform="translate(193.194488, 100.554601)"><path style="stroke:none" d=""/></g></g><g style="fill:#0c7b3b;fill-opacity:1;"><g transform="translate(211.54273, 100.554601)"><path style="stroke:none" d="M 16.761719 -45.59375 C 11.8125 -45.59375 8.25 -43.878906 4.15625 -41.304688 L 4.15625 -31.871094 C 7.785156 -35.367188 12.074219 -37.480469 14.980469 -37.480469 C 18.410156 -37.480469 21.050781 -34.511719 21.050781 -31.144531 C 21.050781 -26.921875 18.804688 -21.839844 12.007812 -12.539062 C 8.644531 -7.984375 5.808594 -4.15625 3.5625 -1.320312 L 3.5625 0 L 33.324219 0 L 33.324219 -9.171875 L 18.804688 -9.171875 C 24.941406 -17.089844 26.128906 -19.203125 29.035156 -24.941406 C 30.351562 -27.648438 31.011719 -30.222656 31.011719 -32.992188 C 31.011719 -39.722656 26.59375 -45.59375 16.761719 -45.59375 Z M 16.761719 -45.59375 "/></g></g><g style="fill:#0c7b3b;fill-opacity:1;"><g transform="translate(247.961822, 100.554601)"><path style="stroke:none" d="M 6.53125 -45 L 6.53125 -19.332031 C 8.3125 -19.796875 10.160156 -19.992188 12.074219 -19.992188 C 17.289062 -19.992188 20.917969 -17.550781 20.917969 -13.527344 C 20.917969 -10.226562 18.277344 -7.324219 13.789062 -7.324219 C 11.414062 -7.324219 8.25 -7.851562 4.222656 -10.03125 L 4.222656 -1.847656 C 6.464844 -0.527344 11.347656 0.59375 15.109375 0.59375 C 25.867188 0.59375 31.410156 -5.476562 31.410156 -14.054688 C 31.410156 -21.90625 25.273438 -27.582031 17.289062 -27.582031 C 16.5625 -27.582031 16.035156 -27.515625 15.507812 -27.515625 L 15.507812 -35.960938 L 29.890625 -35.960938 L 29.890625 -45 Z M 6.53125 -45 "/></g></g><g style="fill:#0c7b3b;fill-opacity:1;"><g transform="translate(284.380914, 100.554601)"><path style="stroke:none" d=""/></g></g><g style="fill:#0c7b3b;fill-opacity:1;"><g transform="translate(302.722416, 100.554601)"><path style="stroke:none" d="M 2.707031 -33.917969 L 2.707031 -25.402344 L 35.765625 -25.402344 L 35.765625 -33.917969 Z M 2.707031 -19.597656 L 2.707031 -11.152344 L 35.765625 -11.152344 L 35.765625 -19.597656 Z M 2.707031 -19.597656 "/></g></g><g style="fill:#0c7b3b;fill-opacity:1;"><g transform="translate(341.18725, 100.554601)"><path style="stroke:none" d=""/></g></g><g clip-rule="nonzero" clip-path="url(#d87d3707dc)"><path style=" stroke:none;fill-rule:nonzero;fill:#000000;fill-opacity:1;" d="M 392.628906 56.015625 C 391.113281 53.871094 389.023438 52.230469 386.359375 51.101562 C 383.707031 49.972656 380.640625 49.402344 377.171875 49.402344 C 374.011719 49.402344 371.128906 49.960938 368.519531 51.078125 C 365.914062 52.183594 363.8125 53.882812 362.226562 56.128906 C 360.964844 57.917969 360.183594 60.085938 359.859375 62.628906 C 359.722656 63.734375 360.605469 64.714844 361.734375 64.714844 L 368.714844 64.714844 C 369.613281 64.714844 370.371094 64.085938 370.566406 63.21875 C 370.738281 62.445312 371.023438 61.75 371.425781 61.15625 C 372.070312 60.199219 372.898438 59.46875 373.90625 58.980469 C 374.917969 58.488281 375.988281 58.238281 377.125 58.238281 C 378.296875 58.238281 379.351562 58.476562 380.328125 58.96875 C 381.292969 59.445312 382.0625 60.140625 382.636719 61.042969 C 383.210938 61.945312 383.5 62.980469 383.5 64.179688 C 383.5 65.304688 383.246094 66.320312 382.742188 67.222656 C 382.234375 68.121094 381.558594 68.953125 380.707031 69.695312 C 379.847656 70.449219 378.894531 71.15625 377.8125 71.851562 C 376.367188 72.75 375.125 73.753906 374.101562 74.859375 C 373.070312 75.964844 372.300781 77.414062 371.761719 79.214844 C 371.230469 81.015625 370.957031 83.421875 370.945312 86.441406 L 370.945312 87.945312 C 370.945312 88.972656 371.78125 89.816406 372.828125 89.816406 L 378.972656 89.816406 C 380.007812 89.816406 380.855469 88.984375 380.855469 87.945312 L 380.855469 86.441406 C 380.878906 84.742188 381.097656 83.320312 381.523438 82.167969 C 381.949219 81.015625 382.601562 79.988281 383.476562 79.113281 C 384.359375 78.234375 385.484375 77.390625 386.863281 76.570312 C 388.507812 75.601562 389.917969 74.519531 391.125 73.308594 C 392.320312 72.113281 393.261719 70.722656 393.941406 69.160156 C 394.605469 67.597656 394.949219 65.796875 394.949219 63.777344 C 394.917969 60.746094 394.148438 58.160156 392.628906 56.015625 Z M 392.628906 56.015625 "/></g><g clip-rule="nonzero" clip-path="url(#5f1e5e2a46)"><path style=" stroke:none;fill-rule:nonzero;fill:#000000;fill-opacity:1;" d="M 376.089844 94.011719 C 374.34375 94.011719 372.863281 94.617188 371.632812 95.824219 C 370.40625 97.03125 369.796875 98.492188 369.820312 100.179688 C 369.796875 101.890625 370.40625 103.359375 371.632812 104.578125 C 372.863281 105.800781 374.34375 106.402344 376.089844 106.402344 C 377.203125 106.402344 378.238281 106.117188 379.167969 105.558594 C 380.109375 104.988281 380.867188 104.25 381.453125 103.304688 C 382.039062 102.355469 382.339844 101.320312 382.351562 100.179688 C 382.328125 98.480469 381.695312 97.03125 380.445312 95.824219 C 379.203125 94.617188 377.746094 94.011719 376.089844 94.011719 Z M 376.089844 94.011719 "/></g><g clip-rule="nonzero" clip-path="url(#7cb852f340)"><path style=" stroke:none;fill-rule:nonzero;fill:#0c7b3b;fill-opacity:1;" d="M 199.238281 77.375 L 199.238281 82.5 L 169.972656 82.5 L 169.972656 77.375 Z M 184.605469 95.851562 C 183.460938 95.851562 182.484375 95.457031 181.679688 94.664062 C 180.886719 93.855469 180.488281 92.878906 180.488281 91.734375 C 180.488281 90.640625 180.886719 89.695312 181.679688 88.902344 C 182.484375 88.109375 183.460938 87.710938 184.605469 87.710938 C 185.703125 87.710938 186.648438 88.109375 187.441406 88.902344 C 188.234375 89.695312 188.628906 90.640625 188.628906 91.734375 C 188.628906 92.878906 188.234375 93.855469 187.441406 94.664062 C 186.648438 95.457031 185.703125 95.851562 184.605469 95.851562 Z M 184.605469 72.164062 C 183.84375 72.164062 183.148438 71.980469 182.523438 71.613281 C 181.898438 71.25 181.402344 70.753906 181.039062 70.128906 C 180.671875 69.503906 180.488281 68.808594 180.488281 68.046875 C 180.488281 66.949219 180.886719 66.003906 181.679688 65.210938 C 182.484375 64.417969 183.460938 64.023438 184.605469 64.023438 C 185.703125 64.023438 186.648438 64.417969 187.441406 65.210938 C 188.234375 66.003906 188.628906 66.949219 188.628906 68.046875 C 188.628906 69.191406 188.234375 70.167969 187.441406 70.976562 C 186.648438 71.765625 185.703125 72.164062 184.605469 72.164062 Z M 184.605469 72.164062 "/></g></g></svg>