<svg xmlns="http://www.w3.org/2000/svg" xmlns:xlink="http://www.w3.org/1999/xlink" width="600" zoomAndPan="magnify" viewBox="0 0 450 149.999998" height="200" preserveAspectRatio="xMidYMid meet" version="1.2"><defs><clipPath id="9a05d165fb"><path d="M 169.242188 9 L 285 9 L 285 51.578125 L 169.242188 51.578125 Z M 169.242188 9 "/></clipPath><clipPath id="c581d078bf"><path d="M 169.242188 8.828125 L 285.492188 8.828125 L 285.492188 51.578125 L 169.242188 51.578125 Z M 169.242188 8.828125 "/></clipPath><clipPath id="4f96e72828"><path d="M 169.242188 57.097656 L 285 57.097656 L 285 98 L 169.242188 98 Z M 169.242188 57.097656 "/></clipPath><clipPath id="4d04d5c55e"><path d="M 169.242188 57.097656 L 285.492188 57.097656 L 285.492188 98.347656 L 169.242188 98.347656 Z M 169.242188 57.097656 "/></clipPath><clipPath id="18b8613bf9"><path d="M 252.882812 71.882812 L 259.632812 71.882812 L 259.632812 80 L 252.882812 80 Z M 252.882812 71.882812 "/></clipPath><clipPath id="14bf7f4465"><path d="M 254 80 L 258 80 L 258 83.132812 L 254 83.132812 Z M 254 80 "/></clipPath><clipPath id="2db6403e26"><path d="M 139.175781 104.679688 L 313.925781 104.679688 L 313.925781 135 L 139.175781 135 Z M 139.175781 104.679688 "/></clipPath><clipPath id="75544e082a"><path d="M 139.175781 137.398438 L 313.925781 137.398438 L 313.925781 149 L 139.175781 149 Z M 139.175781 137.398438 "/></clipPath><clipPath id="2fb9882d32"><path d="M 139.175781 137.398438 L 313.925781 137.398438 L 313.925781 149.398438 L 139.175781 149.398438 Z M 139.175781 137.398438 "/></clipPath><clipPath id="f5359154a9"><path d="M 192.53125 108.242188 L 215.78125 108.242188 L 215.78125 131.492188 L 192.53125 131.492188 Z M 192.53125 108.242188 "/></clipPath><clipPath id="ca9117b7cb"><path d="M 150.105469 108.179688 L 172.605469 108.179688 L 172.605469 130.679688 L 150.105469 130.679688 Z M 150.105469 108.179688 "/></clipPath><clipPath id="6c11b5ced7"><path d="M 236.167969 108.601562 L 258.832031 108.601562 L 258.832031 130.941406 L 236.167969 130.941406 Z M 236.167969 108.601562 "/></clipPath><clipPath id="9412d87180"><path d="M 279.730469 108.242188 L 302.398438 108.242188 L 302.398438 130.585938 L 279.730469 130.585938 Z M 279.730469 108.242188 "/></clipPath><clipPath id="0d1cf6a59c"><path d="M 239.25 14.132812 L 271.5 14.132812 L 271.5 46.382812 L 239.25 46.382812 Z M 239.25 14.132812 "/></clipPath><clipPath id="f1c90ff7ba"><path d="M 182.769531 13.570312 L 215.019531 13.570312 L 215.019531 45.820312 L 182.769531 45.820312 Z M 182.769531 13.570312 "/></clipPath><clipPath id="ec90d330e3"><path d="M 183.351562 61.058594 L 215.601562 61.058594 L 215.601562 93.308594 L 183.351562 93.308594 Z M 183.351562 61.058594 "/></clipPath></defs><g id="de34440a4c"><rect x="0" width="450" y="0" height="149.999998" style="fill:#ffffff;fill-opacity:1;stroke:none;"/><rect x="0" width="450" y="0" height="149.999998" style="fill:#ffffff;fill-opacity:1;stroke:none;"/><g clip-rule="nonzero" clip-path="url(#9a05d165fb)"><path style=" stroke:none;fill-rule:nonzero;fill:#000000;fill-opacity:1;" d="M 169.480469 9.300781 L 169.480469 50.921875 M 230.480469 9.300781 L 230.480469 50.921875 M 284.578125 9.300781 L 284.578125 50.921875 M 169.242188 9.066406 L 284.8125 9.066406 M 169.242188 51.160156 L 284.8125 51.160156 "/></g><g clip-rule="nonzero" clip-path="url(#c581d078bf)"><path style="fill:none;stroke-width:0.631105;stroke-linecap:butt;stroke-linejoin:miter;stroke:#000000;stroke-opacity:1;stroke-miterlimit:4;" d="M 0.316351 0.629887 L 0.316351 56.124682 M 81.649689 0.629887 L 81.649689 56.124682 M 153.779901 0.629887 L 153.779901 56.124682 M -0.00135784 0.317387 L 154.092401 0.317387 M -0.00135784 56.442391 L 154.092401 56.442391 " transform="matrix(0.75,0,0,0.75,169.243206,8.828366)"/></g><g clip-rule="nonzero" clip-path="url(#4f96e72828)"><path style=" stroke:none;fill-rule:nonzero;fill:#000000;fill-opacity:1;" d="M 169.480469 57.570312 L 169.480469 97.707031 M 230.832031 57.570312 L 230.832031 97.707031 M 284.578125 57.570312 L 284.578125 97.707031 M 169.242188 57.332031 L 284.8125 57.332031 M 169.242188 97.941406 L 284.8125 97.941406 "/></g><g clip-rule="nonzero" clip-path="url(#4d04d5c55e)"><path style="fill:none;stroke-width:0.631105;stroke-linecap:butt;stroke-linejoin:miter;stroke:#000000;stroke-opacity:1;stroke-miterlimit:4;" d="M 0.316351 0.631142 L 0.316351 54.14677 M 82.118439 0.631142 L 82.118439 54.14677 M 153.779901 0.631142 L 153.779901 54.14677 M -0.00135784 0.313433 L 154.092401 0.313433 M -0.00135784 54.45927 L 154.092401 54.45927 " transform="matrix(0.75,0,0,0.75,169.243206,57.096956)"/></g><g clip-rule="nonzero" clip-path="url(#18b8613bf9)"><path style=" stroke:none;fill-rule:nonzero;fill:#000000;fill-opacity:1;" d="M 259.1875 73.191406 C 258.898438 72.765625 258.496094 72.441406 257.984375 72.21875 C 257.476562 71.996094 256.890625 71.886719 256.226562 71.886719 C 255.621094 71.886719 255.066406 71.996094 254.566406 72.214844 C 254.070312 72.433594 253.664062 72.769531 253.363281 73.210938 C 253.121094 73.566406 252.96875 73.992188 252.910156 74.496094 C 252.882812 74.710938 253.050781 74.90625 253.265625 74.90625 L 254.605469 74.90625 C 254.777344 74.90625 254.921875 74.78125 254.960938 74.613281 C 254.992188 74.457031 255.046875 74.320312 255.125 74.203125 C 255.25 74.015625 255.40625 73.871094 255.601562 73.773438 C 255.792969 73.679688 256 73.628906 256.214844 73.628906 C 256.441406 73.628906 256.644531 73.675781 256.832031 73.773438 C 257.015625 73.867188 257.164062 74.003906 257.273438 74.183594 C 257.382812 74.359375 257.4375 74.5625 257.4375 74.800781 C 257.4375 75.023438 257.390625 75.222656 257.292969 75.402344 C 257.195312 75.578125 257.066406 75.742188 256.902344 75.890625 C 256.738281 76.039062 256.554688 76.175781 256.347656 76.316406 C 256.070312 76.492188 255.832031 76.691406 255.636719 76.910156 C 255.441406 77.125 255.292969 77.414062 255.1875 77.769531 C 255.085938 78.125 255.035156 78.597656 255.03125 79.195312 L 255.03125 79.492188 C 255.03125 79.695312 255.191406 79.859375 255.394531 79.859375 L 256.570312 79.859375 C 256.769531 79.859375 256.933594 79.695312 256.933594 79.492188 L 256.933594 79.195312 C 256.9375 78.859375 256.976562 78.578125 257.058594 78.351562 C 257.140625 78.125 257.265625 77.921875 257.433594 77.746094 C 257.601562 77.574219 257.820312 77.40625 258.082031 77.246094 C 258.398438 77.054688 258.667969 76.839844 258.898438 76.601562 C 259.128906 76.367188 259.308594 76.09375 259.4375 75.785156 C 259.566406 75.476562 259.632812 75.121094 259.632812 74.722656 C 259.625 74.125 259.476562 73.613281 259.1875 73.191406 Z M 259.1875 73.191406 "/></g><g clip-rule="nonzero" clip-path="url(#14bf7f4465)"><path style=" stroke:none;fill-rule:nonzero;fill:#000000;fill-opacity:1;" d="M 256.019531 80.6875 C 255.683594 80.6875 255.398438 80.808594 255.164062 81.046875 C 254.929688 81.285156 254.8125 81.570312 254.816406 81.90625 C 254.8125 82.242188 254.929688 82.53125 255.164062 82.773438 C 255.398438 83.015625 255.683594 83.132812 256.019531 83.132812 C 256.230469 83.132812 256.429688 83.078125 256.609375 82.96875 C 256.789062 82.855469 256.933594 82.707031 257.046875 82.519531 C 257.160156 82.335938 257.214844 82.128906 257.21875 81.90625 C 257.214844 81.570312 257.09375 81.285156 256.851562 81.046875 C 256.613281 80.808594 256.335938 80.6875 256.019531 80.6875 Z M 256.019531 80.6875 "/></g><g clip-rule="nonzero" clip-path="url(#2db6403e26)"><path style="fill-rule:nonzero;fill:#000000;fill-opacity:1;stroke-width:0.8;stroke-linecap:butt;stroke-linejoin:miter;stroke:#000000;stroke-opacity:1;stroke-miterlimit:4;" d="M 0.398833 0.798079 L 0.398833 39.449123 M 58.075919 0.798079 L 58.075919 39.449123 M 114.976964 0.798079 L 114.976964 39.449123 M 173.424884 0.798079 L 173.424884 39.449123 M 231.867596 0.798079 L 231.867596 39.449123 M -0.00220904 0.402245 L 232.268638 0.402245 M -0.00220904 39.850164 L 232.268638 39.850164 " transform="matrix(0.75,0,0,0.75,139.177438,104.678785)"/></g><g clip-rule="nonzero" clip-path="url(#75544e082a)"><path style=" stroke:none;fill-rule:nonzero;fill:#000000;fill-opacity:1;" d="M 139.476562 138 L 139.476562 148.648438 M 182.941406 138 L 182.941406 148.648438 M 225 138 L 225 148.648438 M 269.222656 138 L 269.222656 148.648438 M 313.078125 138 L 313.078125 148.648438 M 139.175781 137.699219 L 313.378906 137.699219 M 139.175781 148.949219 L 313.378906 148.949219 "/></g><g clip-rule="nonzero" clip-path="url(#2fb9882d32)"><path style="fill:none;stroke-width:0.8;stroke-linecap:butt;stroke-linejoin:miter;stroke:#000000;stroke-opacity:1;stroke-miterlimit:4;" d="M 0.398833 0.800008 L 0.398833 14.997926 M 58.351961 0.800008 L 58.351961 14.997926 M 114.430089 0.800008 L 114.430089 14.997926 M 173.393634 0.800008 L 173.393634 14.997926 M 231.867596 0.800008 L 231.867596 14.997926 M -0.00220904 0.398966 L 232.268638 0.398966 M -0.00220904 15.398967 L 232.268638 15.398967 " transform="matrix(0.75,0,0,0.75,139.177438,137.399994)"/></g><g style="fill:#000000;fill-opacity:1;"><g transform="translate(202.11963, 145.123734)"><path style="stroke:none" d="M 0.265625 0 L 0.265625 -0.703125 L 1.3125 -1.6875 C 1.625 -1.988281 1.867188 -2.265625 2.046875 -2.515625 C 2.222656 -2.773438 2.347656 -3.039062 2.421875 -3.3125 C 2.492188 -3.582031 2.53125 -3.890625 2.53125 -4.234375 C 2.53125 -4.628906 2.484375 -4.914062 2.390625 -5.09375 C 2.296875 -5.28125 2.132812 -5.375 1.90625 -5.375 C 1.738281 -5.375 1.609375 -5.320312 1.515625 -5.21875 C 1.421875 -5.113281 1.351562 -4.9375 1.3125 -4.6875 C 1.269531 -4.445312 1.25 -4.113281 1.25 -3.6875 C 0.96875 -3.6875 0.738281 -3.742188 0.5625 -3.859375 C 0.382812 -3.972656 0.296875 -4.15625 0.296875 -4.40625 C 0.296875 -4.695312 0.429688 -4.941406 0.703125 -5.140625 C 0.984375 -5.347656 1.398438 -5.453125 1.953125 -5.453125 C 2.515625 -5.453125 2.941406 -5.34375 3.234375 -5.125 C 3.523438 -4.90625 3.671875 -4.59375 3.671875 -4.1875 C 3.671875 -4.019531 3.640625 -3.851562 3.578125 -3.6875 C 3.515625 -3.519531 3.398438 -3.34375 3.234375 -3.15625 C 3.078125 -2.96875 2.863281 -2.75 2.59375 -2.5 C 2.320312 -2.257812 1.972656 -1.976562 1.546875 -1.65625 L 0.5 -0.828125 L 3.03125 -0.828125 C 3.269531 -0.828125 3.445312 -0.863281 3.5625 -0.9375 C 3.675781 -1.007812 3.742188 -1.144531 3.765625 -1.34375 L 3.78125 -1.578125 L 3.859375 -1.578125 L 3.8125 0 Z M 0.265625 0 "/></g></g><g style="fill:#000000;fill-opacity:1;"><g transform="translate(246.36699, 145.123734)"><path style="stroke:none" d="M 1.8125 0.078125 C 1.257812 0.078125 0.851562 -0.0078125 0.59375 -0.1875 C 0.332031 -0.375 0.203125 -0.59375 0.203125 -0.84375 C 0.203125 -1.019531 0.265625 -1.160156 0.390625 -1.265625 C 0.523438 -1.367188 0.675781 -1.421875 0.84375 -1.421875 C 0.84375 -1.046875 0.878906 -0.753906 0.953125 -0.546875 C 1.035156 -0.347656 1.144531 -0.207031 1.28125 -0.125 C 1.425781 -0.0390625 1.59375 0 1.78125 0 C 2.101562 0 2.335938 -0.125 2.484375 -0.375 C 2.628906 -0.625 2.703125 -0.984375 2.703125 -1.453125 C 2.703125 -1.785156 2.660156 -2.046875 2.578125 -2.234375 C 2.503906 -2.421875 2.375 -2.550781 2.1875 -2.625 C 2.007812 -2.695312 1.78125 -2.734375 1.5 -2.734375 L 1.0625 -2.734375 L 1.0625 -2.8125 L 1.5 -2.8125 C 1.757812 -2.8125 1.960938 -2.851562 2.109375 -2.9375 C 2.265625 -3.019531 2.367188 -3.15625 2.421875 -3.34375 C 2.484375 -3.539062 2.515625 -3.800781 2.515625 -4.125 C 2.515625 -4.582031 2.460938 -4.90625 2.359375 -5.09375 C 2.253906 -5.28125 2.097656 -5.375 1.890625 -5.375 C 1.617188 -5.375 1.441406 -5.238281 1.359375 -4.96875 C 1.285156 -4.695312 1.25 -4.316406 1.25 -3.828125 C 0.9375 -3.828125 0.691406 -3.878906 0.515625 -3.984375 C 0.347656 -4.097656 0.265625 -4.269531 0.265625 -4.5 C 0.265625 -4.757812 0.40625 -4.984375 0.6875 -5.171875 C 0.96875 -5.359375 1.382812 -5.453125 1.9375 -5.453125 C 2.46875 -5.453125 2.890625 -5.34375 3.203125 -5.125 C 3.515625 -4.914062 3.671875 -4.601562 3.671875 -4.1875 C 3.671875 -3.976562 3.617188 -3.773438 3.515625 -3.578125 C 3.410156 -3.378906 3.234375 -3.207031 2.984375 -3.0625 C 2.742188 -2.925781 2.414062 -2.835938 2 -2.796875 C 2.59375 -2.796875 3.050781 -2.679688 3.375 -2.453125 C 3.695312 -2.222656 3.859375 -1.882812 3.859375 -1.4375 C 3.859375 -1.070312 3.757812 -0.773438 3.5625 -0.546875 C 3.375 -0.328125 3.125 -0.164062 2.8125 -0.0625 C 2.5 0.03125 2.164062 0.078125 1.8125 0.078125 Z M 1.8125 0.078125 "/></g></g><g style="fill:#000000;fill-opacity:1;"><g transform="translate(158.162618, 145.123734)"><path style="stroke:none" d="M 0.734375 0 L 0.734375 -0.078125 L 1.34375 -0.078125 C 1.46875 -0.078125 1.5625 -0.109375 1.625 -0.171875 C 1.6875 -0.242188 1.71875 -0.375 1.71875 -0.5625 L 1.71875 -4.796875 C 1.488281 -4.472656 1.304688 -4.238281 1.171875 -4.09375 C 1.046875 -3.945312 0.910156 -3.875 0.765625 -3.875 C 0.640625 -3.875 0.53125 -3.914062 0.4375 -4 C 0.351562 -4.082031 0.3125 -4.207031 0.3125 -4.375 C 0.5625 -4.382812 0.769531 -4.40625 0.9375 -4.4375 C 1.101562 -4.476562 1.257812 -4.550781 1.40625 -4.65625 C 1.5625 -4.757812 1.742188 -4.921875 1.953125 -5.140625 L 2.234375 -5.40625 L 2.84375 -5.40625 L 2.84375 -0.5625 C 2.84375 -0.40625 2.867188 -0.285156 2.921875 -0.203125 C 2.972656 -0.117188 3.078125 -0.078125 3.234375 -0.078125 L 3.84375 -0.078125 L 3.84375 0 Z M 0.734375 0 "/></g></g><g style="fill:#000000;fill-opacity:1;"><g transform="translate(289.57402, 145.123734)"><path style="stroke:none" d="M 1.359375 0 L 1.359375 -0.078125 L 1.5625 -0.078125 C 1.738281 -0.078125 1.882812 -0.109375 2 -0.171875 C 2.125 -0.234375 2.1875 -0.382812 2.1875 -0.625 L 2.1875 -1.40625 L 0.09375 -1.40625 L 0.09375 -1.859375 L 2.234375 -5.375 L 3.28125 -5.375 L 3.28125 -1.890625 L 4.0625 -1.890625 L 4.0625 -1.40625 L 3.28125 -1.40625 L 3.28125 -0.625 C 3.28125 -0.382812 3.335938 -0.234375 3.453125 -0.171875 C 3.578125 -0.109375 3.726562 -0.078125 3.90625 -0.078125 L 4 -0.078125 L 4 0 Z M 0.203125 -1.890625 L 2.1875 -1.890625 L 2.1875 -3.5625 C 2.1875 -3.832031 2.1875 -4.113281 2.1875 -4.40625 C 2.1875 -4.707031 2.191406 -4.972656 2.203125 -5.203125 C 2.171875 -5.148438 2.125 -5.070312 2.0625 -4.96875 C 2 -4.863281 1.929688 -4.75 1.859375 -4.625 C 1.785156 -4.5 1.710938 -4.378906 1.640625 -4.265625 C 1.578125 -4.160156 1.53125 -4.078125 1.5 -4.015625 Z M 0.203125 -1.890625 "/></g></g><g clip-rule="nonzero" clip-path="url(#f5359154a9)"><path style=" stroke:none;fill-rule:nonzero;fill:#004aad;fill-opacity:1;" d="M 204.15625 131.492188 C 197.761719 131.492188 192.53125 126.261719 192.53125 119.867188 C 192.53125 113.472656 197.761719 108.242188 204.15625 108.242188 C 210.550781 108.242188 215.78125 113.472656 215.78125 119.867188 C 215.78125 126.261719 210.550781 131.492188 204.15625 131.492188 Z M 204.15625 131.492188 "/></g><g clip-rule="nonzero" clip-path="url(#ca9117b7cb)"><path style=" stroke:none;fill-rule:nonzero;fill:#ff3131;fill-opacity:1;" d="M 161.300781 130.574219 C 155.144531 130.574219 150.105469 125.535156 150.105469 119.375 C 150.105469 113.21875 155.144531 108.179688 161.300781 108.179688 C 167.460938 108.179688 172.5 113.21875 172.5 119.375 C 172.5 125.535156 167.460938 130.574219 161.300781 130.574219 Z M 161.300781 130.574219 "/></g><g clip-rule="nonzero" clip-path="url(#6c11b5ced7)"><path style=" stroke:none;fill-rule:nonzero;fill:#ff3131;fill-opacity:1;" d="M 236.167969 108.601562 L 258.855469 108.601562 L 258.855469 130.941406 L 236.167969 130.941406 Z M 236.167969 108.601562 "/></g><g clip-rule="nonzero" clip-path="url(#9412d87180)"><path style=" stroke:none;fill-rule:nonzero;fill:#004aad;fill-opacity:1;" d="M 279.730469 108.242188 L 302.421875 108.242188 L 302.421875 130.585938 L 279.730469 130.585938 Z M 279.730469 108.242188 "/></g><g clip-rule="nonzero" clip-path="url(#0d1cf6a59c)"><path style=" stroke:none;fill-rule:nonzero;fill:#004aad;fill-opacity:1;" d="M 255.375 46.382812 C 246.507812 46.382812 239.25 39.125 239.25 30.257812 C 239.25 21.386719 246.507812 14.132812 255.375 14.132812 C 264.242188 14.132812 271.5 21.386719 271.5 30.257812 C 271.5 39.125 264.242188 46.382812 255.375 46.382812 Z M 255.375 46.382812 "/></g><g clip-rule="nonzero" clip-path="url(#f1c90ff7ba)"><path style=" stroke:none;fill-rule:nonzero;fill:#004aad;fill-opacity:1;" d="M 198.894531 45.820312 C 190.023438 45.820312 182.769531 38.5625 182.769531 29.695312 C 182.769531 20.824219 190.023438 13.570312 198.894531 13.570312 C 207.761719 13.570312 215.019531 20.824219 215.019531 29.695312 C 215.019531 38.5625 207.761719 45.820312 198.894531 45.820312 Z M 198.894531 45.820312 "/></g><g clip-rule="nonzero" clip-path="url(#ec90d330e3)"><path style=" stroke:none;fill-rule:nonzero;fill:#004aad;fill-opacity:1;" d="M 199.476562 93.308594 C 190.609375 93.308594 183.351562 86.054688 183.351562 77.183594 C 183.351562 68.316406 190.609375 61.058594 199.476562 61.058594 C 208.347656 61.058594 215.601562 68.316406 215.601562 77.183594 C 215.601562 86.054688 208.347656 93.308594 199.476562 93.308594 Z M 199.476562 93.308594 "/></g></g></svg>