<svg xmlns="http://www.w3.org/2000/svg" xmlns:xlink="http://www.w3.org/1999/xlink" width="600" zoomAndPan="magnify" viewBox="0 0 450 149.999998" height="200" preserveAspectRatio="xMidYMid meet" version="1.2"><defs><clipPath id="99156a2aa9"><path d="M 322.457031 44.515625 L 357.707031 44.515625 L 357.707031 85 L 322.457031 85 Z M 322.457031 44.515625 "/></clipPath><clipPath id="4a1dadd84f"><path d="M 332 89 L 346 89 L 346 101.515625 L 332 101.515625 Z M 332 89 "/></clipPath></defs><g id="71760bb7c7"><rect x="0" width="450" y="0" height="149.999998" style="fill:#ffffff;fill-opacity:1;stroke:none;"/><rect x="0" width="450" y="0" height="149.999998" style="fill:#ffffff;fill-opacity:1;stroke:none;"/><path style="fill-rule:nonzero;fill:#000000;fill-opacity:1;stroke-width:1;stroke-linecap:butt;stroke-linejoin:miter;stroke:#0c7b3b;stroke-opacity:1;stroke-miterlimit:4;" d="M 0.499995 0.999997 L 0.499995 199.000009 M 599.50003 0.999997 L 599.50003 199.000009 M -0.000005 0.499997 L 600.00003 0.499997 M -0.000005 199.500009 L 600.00003 199.500009 " transform="matrix(0.75,0,0,0.75,0.00000375,0.000002)"/><g style="fill:#0c7b3b;fill-opacity:1;"><g transform="translate(58.794786, 96.967145)"><path style="stroke:none" d="M 15.707031 -46.980469 C 12.238281 -46.980469 8.160156 -46.300781 5.097656 -44.941406 L 5.097656 -36.78125 C 8.703125 -38.617188 11.082031 -39.230469 13.800781 -39.230469 C 17.269531 -39.230469 20.261719 -36.984375 20.261719 -33.789062 C 20.261719 -31.136719 17.949219 -28.488281 13.871094 -28.148438 L 13.871094 -19.988281 C 18.628906 -19.511719 21.007812 -16.859375 21.007812 -13.53125 C 21.007812 -10.128906 18.085938 -7.480469 14.140625 -7.480469 C 10.675781 -7.480469 7.140625 -8.703125 3.941406 -11.015625 L 3.941406 -2.039062 C 7.207031 -0.273438 11.625 0.613281 15.570312 0.613281 C 24.40625 0.613281 31.816406 -4.011719 31.816406 -12.917969 C 31.816406 -19.105469 28.960938 -22.707031 23.660156 -24.882812 C 27.941406 -26.921875 30.527344 -31.273438 30.527344 -35.625 C 30.527344 -42.558594 24.273438 -46.980469 15.707031 -46.980469 Z M 15.707031 -46.980469 "/></g></g><g style="fill:#0c7b3b;fill-opacity:1;"><g transform="translate(96.319972, 96.967145)"><path style="stroke:none" d="M 18.628906 -46.980469 C 9.925781 -46.980469 4.554688 -41.746094 4.554688 -34.402344 C 4.554688 -30.390625 6.117188 -27.058594 10.265625 -24.476562 C 5.777344 -22.640625 3.261719 -18.289062 3.261719 -13.191406 C 3.261719 -5.03125 9.722656 0.613281 18.695312 0.613281 C 28.351562 0.613281 34.332031 -5.097656 34.332031 -13.257812 C 34.332031 -18.152344 31.886719 -22.367188 27.398438 -24.476562 C 31.75 -26.992188 33.042969 -30.796875 33.042969 -34.539062 C 33.042969 -40.382812 28.351562 -46.980469 18.628906 -46.980469 Z M 14.414062 -33.789062 C 14.414062 -37.460938 15.976562 -40.042969 18.765625 -40.042969 C 21.550781 -40.042969 23.117188 -37.867188 23.117188 -33.859375 C 23.117188 -29.710938 21.550781 -27.332031 18.832031 -27.332031 C 15.910156 -27.332031 14.414062 -30.117188 14.414062 -33.789062 Z M 23.863281 -13.257812 C 23.863281 -8.839844 21.890625 -6.050781 18.902344 -6.050781 C 15.910156 -6.050781 13.664062 -8.972656 13.664062 -13.460938 C 13.664062 -17.878906 15.570312 -20.734375 18.832031 -20.734375 C 21.890625 -20.734375 23.863281 -18.152344 23.863281 -13.257812 Z M 23.863281 -13.257812 "/></g></g><g style="fill:#0c7b3b;fill-opacity:1;"><g transform="translate(133.845159, 96.967145)"><path style="stroke:none" d=""/></g></g><g style="fill:#0c7b3b;fill-opacity:1;"><g transform="translate(152.743713, 96.967145)"><path style="stroke:none" d="M 0.273438 -31.34375 L 12.78125 -16.046875 L 0.273438 0 L 11.964844 0 L 18.832031 -9.109375 L 25.902344 0 L 37.9375 0 L 24.953125 -16.046875 L 36.984375 -31.34375 L 24.953125 -31.34375 L 18.832031 -22.910156 L 12.375 -31.34375 Z M 0.273438 -31.34375 "/></g></g><g style="fill:#0c7b3b;fill-opacity:1;"><g transform="translate(190.880723, 96.967145)"><path style="stroke:none" d=""/></g></g><g style="fill:#0c7b3b;fill-opacity:1;"><g transform="translate(209.779278, 96.967145)"><path style="stroke:none" d="M 4.351562 -46.367188 L 4.351562 -37.121094 L 21.484375 -37.121094 L 9.042969 -2.921875 L 18.289062 0.613281 L 35.21875 -45.824219 L 35.21875 -46.367188 Z M 4.351562 -46.367188 "/></g></g><g style="fill:#0c7b3b;fill-opacity:1;"><g transform="translate(247.304464, 96.967145)"><path style="stroke:none" d=""/></g></g><g style="fill:#0c7b3b;fill-opacity:1;"><g transform="translate(266.203007, 96.967145)"><path style="stroke:none" d="M 2.789062 -34.945312 L 2.789062 -26.175781 L 36.847656 -26.175781 L 36.847656 -34.945312 Z M 2.789062 -20.191406 L 2.789062 -11.488281 L 36.847656 -11.488281 L 36.847656 -20.191406 Z M 2.789062 -20.191406 "/></g></g><g style="fill:#0c7b3b;fill-opacity:1;"><g transform="translate(305.83774, 96.967145)"><path style="stroke:none" d=""/></g></g><g clip-rule="nonzero" clip-path="url(#99156a2aa9)"><path style=" stroke:none;fill-rule:nonzero;fill:#000000;fill-opacity:1;" d="M 355.375 51.128906 C 353.859375 48.984375 351.769531 47.34375 349.105469 46.214844 C 346.453125 45.085938 343.386719 44.515625 339.914062 44.515625 C 336.757812 44.515625 333.875 45.074219 331.265625 46.191406 C 328.660156 47.296875 326.558594 48.996094 324.972656 51.242188 C 323.707031 53.03125 322.929688 55.199219 322.605469 57.738281 C 322.46875 58.847656 323.351562 59.828125 324.480469 59.828125 L 331.460938 59.828125 C 332.359375 59.828125 333.117188 59.199219 333.3125 58.332031 C 333.484375 57.558594 333.769531 56.863281 334.171875 56.269531 C 334.816406 55.3125 335.644531 54.582031 336.652344 54.09375 C 337.664062 53.601562 338.734375 53.351562 339.871094 53.351562 C 341.042969 53.351562 342.097656 53.589844 343.074219 54.082031 C 344.039062 54.558594 344.808594 55.253906 345.382812 56.15625 C 345.957031 57.054688 346.246094 58.09375 346.246094 59.289062 C 346.246094 60.417969 345.992188 61.433594 345.488281 62.335938 C 344.980469 63.234375 344.304688 64.066406 343.453125 64.808594 C 342.59375 65.558594 341.640625 66.265625 340.558594 66.960938 C 339.113281 67.863281 337.871094 68.867188 336.847656 69.972656 C 335.816406 71.078125 335.046875 72.527344 334.507812 74.328125 C 333.976562 76.128906 333.703125 78.535156 333.691406 81.554688 L 333.691406 83.058594 C 333.691406 84.085938 334.527344 84.929688 335.574219 84.929688 L 341.71875 84.929688 C 342.753906 84.929688 343.601562 84.097656 343.601562 83.058594 L 343.601562 81.554688 C 343.625 79.855469 343.84375 78.429688 344.269531 77.28125 C 344.695312 76.128906 345.347656 75.101562 346.222656 74.222656 C 347.105469 73.347656 348.230469 72.503906 349.609375 71.683594 C 351.253906 70.714844 352.664062 69.628906 353.871094 68.421875 C 355.066406 67.226562 356.007812 65.835938 356.6875 64.273438 C 357.351562 62.710938 357.695312 60.910156 357.695312 58.890625 C 357.664062 55.859375 356.890625 53.269531 355.375 51.128906 Z M 355.375 51.128906 "/></g><g clip-rule="nonzero" clip-path="url(#4a1dadd84f)"><path style=" stroke:none;fill-rule:nonzero;fill:#000000;fill-opacity:1;" d="M 338.835938 89.125 C 337.089844 89.125 335.609375 89.730469 334.378906 90.9375 C 333.152344 92.144531 332.542969 93.605469 332.566406 95.292969 C 332.542969 97 333.152344 98.472656 334.378906 99.691406 C 335.609375 100.910156 337.089844 101.515625 338.835938 101.515625 C 339.949219 101.515625 340.984375 101.230469 341.914062 100.671875 C 342.855469 100.101562 343.613281 99.363281 344.199219 98.414062 C 344.785156 97.46875 345.085938 96.433594 345.097656 95.292969 C 345.074219 93.59375 344.441406 92.144531 343.191406 90.9375 C 341.949219 89.730469 340.492188 89.125 338.835938 89.125 Z M 338.835938 89.125 "/></g></g></svg>