<svg xmlns="http://www.w3.org/2000/svg" xmlns:xlink="http://www.w3.org/1999/xlink" width="600" zoomAndPan="magnify" viewBox="0 0 450 149.999998" height="200" preserveAspectRatio="xMidYMid meet" version="1.2"><defs/><g id="561e3bdf9b"><rect x="0" width="450" y="0" height="149.999998" style="fill:#ffffff;fill-opacity:1;stroke:none;"/><rect x="0" width="450" y="0" height="149.999998" style="fill:#ffffff;fill-opacity:1;stroke:none;"/><path style="fill-rule:nonzero;fill:#000000;fill-opacity:1;stroke-width:1;stroke-linecap:butt;stroke-linejoin:miter;stroke:#0c7b3b;stroke-opacity:1;stroke-miterlimit:4;" d="M 0.499995 0.999997 L 0.499995 199.000009 M 599.50003 0.999997 L 599.50003 199.000009 M -0.000005 0.499997 L 600.00003 0.499997 M -0.000005 199.500009 L 600.00003 199.500009 " transform="matrix(0.75,0,0,0.75,0.00000375,0.000002)"/><g style="fill:#0c7b3b;fill-opacity:1;"><g transform="translate(198.643492, 109.348321)"><path style="stroke:none" d="M 27.679688 -75.007812 L 14.871094 -54.277344 C 7.164062 -41.792969 4.777344 -33.867188 4.777344 -24.964844 C 4.777344 -8.03125 16.5 0.976562 29.632812 0.976562 C 43.636719 0.976562 53.839844 -10.09375 53.839844 -24.53125 C 53.839844 -37.125 45.15625 -47.652344 33.109375 -47.652344 C 31.804688 -47.652344 30.9375 -47.546875 28.765625 -47.003906 L 45.917969 -75.007812 Z M 21.492188 -23.554688 C 21.492188 -30.71875 24.75 -34.738281 29.417969 -34.738281 C 34.84375 -34.738281 37.882812 -29.851562 37.882812 -23.882812 C 37.882812 -17.695312 34.953125 -12.808594 29.632812 -12.808594 C 24.53125 -12.808594 21.492188 -16.824219 21.492188 -23.554688 Z M 21.492188 -23.554688 "/></g></g></g></svg>