<svg xmlns="http://www.w3.org/2000/svg" xmlns:xlink="http://www.w3.org/1999/xlink" width="600" zoomAndPan="magnify" viewBox="0 0 450 149.999998" height="200" preserveAspectRatio="xMidYMid meet" version="1.2"><defs><clipPath id="ffd6ebc4a5"><path d="M 169.421875 2.007812 L 287.921875 2.007812 L 287.921875 44 L 169.421875 44 Z M 169.421875 2.007812 "/></clipPath><clipPath id="48a67b3a6f"><path d="M 169.421875 50.472656 L 287.921875 50.472656 L 287.921875 92 L 169.421875 92 Z M 169.421875 50.472656 "/></clipPath><clipPath id="78b739696d"><path d="M 252.199219 60.449219 L 266.449219 60.449219 L 266.449219 78 L 252.199219 78 Z M 252.199219 60.449219 "/></clipPath><clipPath id="acc6f243a3"><path d="M 256 79 L 262 79 L 262 84.449219 L 256 84.449219 Z M 256 79 "/></clipPath><clipPath id="3144302d8c"><path d="M 182.488281 5.855469 L 216.238281 5.855469 L 216.238281 39.605469 L 182.488281 39.605469 Z M 182.488281 5.855469 "/></clipPath><clipPath id="868ef229f1"><path d="M 242.660156 5.855469 L 276.410156 5.855469 L 276.410156 39.605469 L 242.660156 39.605469 Z M 242.660156 5.855469 "/></clipPath><clipPath id="a8db139a81"><path d="M 182.488281 54.320312 L 216.238281 54.320312 L 216.238281 88.070312 L 182.488281 88.070312 Z M 182.488281 54.320312 "/></clipPath><clipPath id="30d623b635"><path d="M 134.335938 99.34375 L 324.835938 99.34375 L 324.835938 132 L 134.335938 132 Z M 134.335938 99.34375 "/></clipPath><clipPath id="5b26a2f862"><path d="M 134.335938 99.34375 L 324.835938 99.34375 L 324.835938 132.34375 L 134.335938 132.34375 Z M 134.335938 99.34375 "/></clipPath><clipPath id="35dc3963b8"><path d="M 134.335938 135 L 324.835938 135 L 324.835938 148 L 134.335938 148 Z M 134.335938 135 "/></clipPath><clipPath id="82d920b43f"><path d="M 146.867188 103.582031 L 172.367188 103.582031 L 172.367188 129.082031 L 146.867188 129.082031 Z M 146.867188 103.582031 "/></clipPath><clipPath id="1f8ab10486"><path d="M 193.007812 103.582031 L 217.757812 103.582031 L 217.757812 128 L 193.007812 128 Z M 193.007812 103.582031 "/></clipPath><clipPath id="9402774201"><path d="M 241.082031 104.152344 L 265.78125 104.152344 L 265.78125 128.5 L 241.082031 128.5 Z M 241.082031 104.152344 "/></clipPath><clipPath id="a2bbc836c5"><path d="M 287.5 103.226562 L 312.199219 103.226562 L 312.199219 127.574219 L 287.5 127.574219 Z M 287.5 103.226562 "/></clipPath></defs><g id="76541f783e"><rect x="0" width="450" y="0" height="149.999998" style="fill:#ffffff;fill-opacity:1;stroke:none;"/><rect x="0" width="450" y="0" height="149.999998" style="fill:#ffffff;fill-opacity:1;stroke:none;"/><g clip-rule="nonzero" clip-path="url(#ffd6ebc4a5)"><path style="fill-rule:nonzero;fill:#000000;fill-opacity:1;stroke-width:0.542135;stroke-linecap:butt;stroke-linejoin:miter;stroke:#000000;stroke-opacity:1;stroke-miterlimit:4;" d="M 0.272944 0.541208 L 0.272944 54.645378 M 79.054198 0.541208 L 79.054198 54.645378 M 156.752119 0.541208 L 156.752119 54.645378 M 0.00211031 0.270375 L 157.022953 0.270375 M 0.00211031 54.92142 L 157.022953 54.92142 " transform="matrix(0.75,0,0,0.75,169.420292,2.008156)"/></g><g clip-rule="nonzero" clip-path="url(#48a67b3a6f)"><path style="fill-rule:nonzero;fill:#000000;fill-opacity:1;stroke-width:0.542135;stroke-linecap:butt;stroke-linejoin:miter;stroke:#000000;stroke-opacity:1;stroke-miterlimit:4;" d="M 0.272944 0.543074 L 0.272944 54.647244 M 79.054198 0.543074 L 79.054198 54.647244 M 156.752119 0.543074 L 156.752119 54.647244 M 0.00211031 0.272241 L 157.022953 0.272241 M 0.00211031 54.918077 L 157.022953 54.918077 " transform="matrix(0.75,0,0,0.75,169.420292,50.471601)"/></g><g clip-rule="nonzero" clip-path="url(#78b739696d)"><path style=" stroke:none;fill-rule:nonzero;fill:#000000;fill-opacity:1;" d="M 265.507812 63.234375 C 264.898438 62.332031 264.050781 61.640625 262.972656 61.164062 C 261.902344 60.691406 260.660156 60.449219 259.257812 60.449219 C 257.980469 60.449219 256.816406 60.683594 255.761719 61.15625 C 254.707031 61.621094 253.859375 62.335938 253.214844 63.28125 C 252.707031 64.035156 252.390625 64.949219 252.261719 66.019531 C 252.203125 66.484375 252.5625 66.898438 253.015625 66.898438 L 255.839844 66.898438 C 256.203125 66.898438 256.507812 66.632812 256.589844 66.269531 C 256.65625 65.941406 256.773438 65.648438 256.9375 65.398438 C 257.195312 64.996094 257.53125 64.6875 257.941406 64.480469 C 258.347656 64.277344 258.78125 64.171875 259.238281 64.171875 C 259.714844 64.171875 260.140625 64.269531 260.535156 64.476562 C 260.925781 64.679688 261.238281 64.972656 261.46875 65.351562 C 261.703125 65.730469 261.816406 66.167969 261.816406 66.671875 C 261.816406 67.144531 261.714844 67.574219 261.511719 67.953125 C 261.308594 68.332031 261.03125 68.683594 260.6875 68.996094 C 260.339844 69.3125 259.957031 69.609375 259.519531 69.902344 C 258.933594 70.28125 258.433594 70.703125 258.019531 71.167969 C 257.601562 71.632812 257.289062 72.242188 257.070312 73.003906 C 256.859375 73.761719 256.746094 74.773438 256.742188 76.046875 L 256.742188 76.679688 C 256.742188 77.109375 257.082031 77.464844 257.503906 77.464844 L 259.988281 77.464844 C 260.40625 77.464844 260.75 77.117188 260.75 76.679688 L 260.75 76.046875 C 260.757812 75.332031 260.847656 74.730469 261.019531 74.246094 C 261.191406 73.761719 261.457031 73.328125 261.808594 72.960938 C 262.164062 72.589844 262.621094 72.234375 263.179688 71.886719 C 263.84375 71.480469 264.414062 71.023438 264.902344 70.515625 C 265.382812 70.011719 265.765625 69.425781 266.039062 68.769531 C 266.308594 68.109375 266.449219 67.351562 266.449219 66.503906 C 266.433594 65.226562 266.121094 64.136719 265.507812 63.234375 Z M 265.507812 63.234375 "/></g><g clip-rule="nonzero" clip-path="url(#acc6f243a3)"><path style=" stroke:none;fill-rule:nonzero;fill:#000000;fill-opacity:1;" d="M 258.820312 79.234375 C 258.117188 79.234375 257.515625 79.488281 257.019531 79.996094 C 256.523438 80.503906 256.277344 81.117188 256.285156 81.828125 C 256.277344 82.550781 256.523438 83.167969 257.019531 83.683594 C 257.515625 84.195312 258.117188 84.449219 258.820312 84.449219 C 259.273438 84.449219 259.691406 84.332031 260.066406 84.09375 C 260.449219 83.855469 260.753906 83.542969 260.992188 83.144531 C 261.226562 82.746094 261.347656 82.308594 261.351562 81.828125 C 261.34375 81.113281 261.089844 80.503906 260.582031 79.996094 C 260.082031 79.488281 259.492188 79.234375 258.820312 79.234375 Z M 258.820312 79.234375 "/></g><g clip-rule="nonzero" clip-path="url(#3144302d8c)"><path style=" stroke:none;fill-rule:nonzero;fill:#ff3131;fill-opacity:1;" d="M 199.335938 39.546875 C 190.070312 39.546875 182.488281 31.96875 182.488281 22.703125 C 182.488281 13.4375 190.070312 5.855469 199.335938 5.855469 C 208.601562 5.855469 216.179688 13.4375 216.179688 22.703125 C 216.179688 31.96875 208.601562 39.546875 199.335938 39.546875 Z M 199.335938 39.546875 "/></g><g clip-rule="nonzero" clip-path="url(#868ef229f1)"><path style=" stroke:none;fill-rule:nonzero;fill:#ff3131;fill-opacity:1;" d="M 259.507812 39.546875 C 250.242188 39.546875 242.660156 31.96875 242.660156 22.703125 C 242.660156 13.4375 250.242188 5.855469 259.507812 5.855469 C 268.773438 5.855469 276.351562 13.4375 276.351562 22.703125 C 276.351562 31.96875 268.773438 39.546875 259.507812 39.546875 Z M 259.507812 39.546875 "/></g><g clip-rule="nonzero" clip-path="url(#a8db139a81)"><path style=" stroke:none;fill-rule:nonzero;fill:#ff3131;fill-opacity:1;" d="M 199.335938 88.011719 C 190.070312 88.011719 182.488281 80.429688 182.488281 71.164062 C 182.488281 61.902344 190.070312 54.320312 199.335938 54.320312 C 208.601562 54.320312 216.179688 61.902344 216.179688 71.164062 C 216.179688 80.429688 208.601562 88.011719 199.335938 88.011719 Z M 199.335938 88.011719 "/></g><g clip-rule="nonzero" clip-path="url(#30d623b635)"><path style=" stroke:none;fill-rule:nonzero;fill:#000000;fill-opacity:1;" d="M 134.660156 100 L 134.660156 131.585938 M 181.796875 100 L 181.796875 131.585938 M 228.304688 100 L 228.304688 131.585938 M 276.070312 100 L 276.070312 131.585938 M 323.839844 100 L 323.839844 131.585938 M 134.335938 99.671875 L 324.164062 99.671875 M 134.335938 131.914062 L 324.164062 131.914062 "/></g><g clip-rule="nonzero" clip-path="url(#5b26a2f862)"><path style="fill:none;stroke-width:0.871773;stroke-linecap:butt;stroke-linejoin:miter;stroke:#000000;stroke-opacity:1;stroke-miterlimit:4;" d="M 0.434282 0.874199 L 0.434282 42.988785 M 63.283244 0.874199 L 63.283244 42.988785 M 125.293664 0.874199 L 125.293664 42.988785 M 188.981168 0.874199 L 188.981168 42.988785 M 252.67388 0.874199 L 252.67388 42.988785 M 0.00199038 0.436699 L 253.106172 0.436699 M 0.00199038 43.426285 L 253.106172 43.426285 " transform="matrix(0.75,0,0,0.75,134.334445,99.344351)"/></g><g clip-rule="nonzero" clip-path="url(#35dc3963b8)"><path style="fill-rule:nonzero;fill:#000000;fill-opacity:1;stroke-width:0.871773;stroke-linecap:butt;stroke-linejoin:miter;stroke:#000000;stroke-opacity:1;stroke-miterlimit:4;" d="M 0.434282 0.873446 L 0.434282 16.347406 M 63.585327 0.873446 L 63.585327 16.347406 M 124.694706 0.873446 L 124.694706 16.347406 M 188.949918 0.873446 L 188.949918 16.347406 M 252.67388 0.873446 L 252.67388 16.347406 M 0.00199038 0.435946 L 253.106172 0.435946 M 0.00199038 16.779697 L 253.106172 16.779697 " transform="matrix(0.75,0,0,0.75,134.334445,135.001165)"/></g><g style="fill:#000000;fill-opacity:1;"><g transform="translate(202.923566, 143.417864)"><path style="stroke:none" d="M 0.28125 0 L 0.28125 -0.765625 L 1.421875 -1.84375 C 1.765625 -2.175781 2.035156 -2.476562 2.234375 -2.75 C 2.429688 -3.03125 2.566406 -3.316406 2.640625 -3.609375 C 2.722656 -3.898438 2.765625 -4.234375 2.765625 -4.609375 C 2.765625 -5.046875 2.710938 -5.363281 2.609375 -5.5625 C 2.503906 -5.757812 2.328125 -5.859375 2.078125 -5.859375 C 1.890625 -5.859375 1.742188 -5.800781 1.640625 -5.6875 C 1.546875 -5.570312 1.476562 -5.378906 1.4375 -5.109375 C 1.394531 -4.847656 1.375 -4.484375 1.375 -4.015625 C 1.0625 -4.015625 0.804688 -4.078125 0.609375 -4.203125 C 0.410156 -4.328125 0.3125 -4.523438 0.3125 -4.796875 C 0.3125 -5.117188 0.460938 -5.390625 0.765625 -5.609375 C 1.078125 -5.828125 1.53125 -5.9375 2.125 -5.9375 C 2.738281 -5.9375 3.203125 -5.816406 3.515625 -5.578125 C 3.835938 -5.335938 4 -5 4 -4.5625 C 4 -4.375 3.960938 -4.191406 3.890625 -4.015625 C 3.828125 -3.835938 3.707031 -3.644531 3.53125 -3.4375 C 3.351562 -3.226562 3.113281 -2.988281 2.8125 -2.71875 C 2.519531 -2.457031 2.144531 -2.148438 1.6875 -1.796875 L 0.546875 -0.90625 L 3.3125 -0.90625 C 3.570312 -0.90625 3.757812 -0.941406 3.875 -1.015625 C 4 -1.097656 4.070312 -1.25 4.09375 -1.46875 L 4.125 -1.71875 L 4.203125 -1.71875 L 4.15625 0 Z M 0.28125 0 "/></g></g><g style="fill:#000000;fill-opacity:1;"><g transform="translate(251.140595, 143.417864)"><path style="stroke:none" d="M 1.984375 0.078125 C 1.378906 0.078125 0.9375 -0.0195312 0.65625 -0.21875 C 0.375 -0.414062 0.234375 -0.644531 0.234375 -0.90625 C 0.234375 -1.113281 0.300781 -1.269531 0.4375 -1.375 C 0.570312 -1.488281 0.734375 -1.546875 0.921875 -1.546875 C 0.921875 -1.140625 0.960938 -0.828125 1.046875 -0.609375 C 1.140625 -0.390625 1.257812 -0.234375 1.40625 -0.140625 C 1.5625 -0.046875 1.738281 0 1.9375 0 C 2.289062 0 2.546875 -0.132812 2.703125 -0.40625 C 2.859375 -0.675781 2.9375 -1.066406 2.9375 -1.578125 C 2.9375 -1.941406 2.894531 -2.222656 2.8125 -2.421875 C 2.726562 -2.628906 2.585938 -2.773438 2.390625 -2.859375 C 2.191406 -2.941406 1.9375 -2.984375 1.625 -2.984375 L 1.171875 -2.984375 L 1.171875 -3.0625 L 1.625 -3.0625 C 1.914062 -3.0625 2.140625 -3.109375 2.296875 -3.203125 C 2.460938 -3.296875 2.578125 -3.445312 2.640625 -3.65625 C 2.710938 -3.863281 2.75 -4.140625 2.75 -4.484375 C 2.75 -4.984375 2.6875 -5.335938 2.5625 -5.546875 C 2.445312 -5.753906 2.28125 -5.859375 2.0625 -5.859375 C 1.769531 -5.859375 1.578125 -5.707031 1.484375 -5.40625 C 1.398438 -5.113281 1.359375 -4.703125 1.359375 -4.171875 C 1.023438 -4.171875 0.765625 -4.226562 0.578125 -4.34375 C 0.390625 -4.457031 0.296875 -4.640625 0.296875 -4.890625 C 0.296875 -5.179688 0.445312 -5.425781 0.75 -5.625 C 1.0625 -5.832031 1.515625 -5.9375 2.109375 -5.9375 C 2.691406 -5.9375 3.148438 -5.816406 3.484375 -5.578125 C 3.828125 -5.347656 4 -5.007812 4 -4.5625 C 4 -4.332031 3.941406 -4.109375 3.828125 -3.890625 C 3.710938 -3.671875 3.519531 -3.484375 3.25 -3.328125 C 2.988281 -3.179688 2.628906 -3.085938 2.171875 -3.046875 C 2.828125 -3.046875 3.328125 -2.921875 3.671875 -2.671875 C 4.023438 -2.429688 4.203125 -2.0625 4.203125 -1.5625 C 4.203125 -1.164062 4.097656 -0.847656 3.890625 -0.609375 C 3.679688 -0.367188 3.40625 -0.191406 3.0625 -0.078125 C 2.726562 0.0234375 2.367188 0.078125 1.984375 0.078125 Z M 1.984375 0.078125 "/></g></g><g style="fill:#000000;fill-opacity:1;"><g transform="translate(155.022885, 143.417864)"><path style="stroke:none" d="M 0.796875 0 L 0.796875 -0.078125 L 1.46875 -0.078125 C 1.601562 -0.078125 1.703125 -0.113281 1.765625 -0.1875 C 1.835938 -0.269531 1.875 -0.410156 1.875 -0.609375 L 1.875 -5.21875 C 1.625 -4.863281 1.425781 -4.609375 1.28125 -4.453125 C 1.132812 -4.296875 0.988281 -4.21875 0.84375 -4.21875 C 0.695312 -4.21875 0.578125 -4.257812 0.484375 -4.34375 C 0.390625 -4.4375 0.34375 -4.578125 0.34375 -4.765625 C 0.613281 -4.773438 0.835938 -4.800781 1.015625 -4.84375 C 1.203125 -4.882812 1.375 -4.960938 1.53125 -5.078125 C 1.695312 -5.191406 1.894531 -5.363281 2.125 -5.59375 L 2.421875 -5.890625 L 3.09375 -5.890625 L 3.09375 -0.609375 C 3.09375 -0.441406 3.117188 -0.3125 3.171875 -0.21875 C 3.234375 -0.125 3.347656 -0.078125 3.515625 -0.078125 L 4.1875 -0.078125 L 4.1875 0 Z M 0.796875 0 "/></g></g><g style="fill:#000000;fill-opacity:1;"><g transform="translate(298.223982, 143.417864)"><path style="stroke:none" d="M 1.46875 0 L 1.46875 -0.078125 L 1.703125 -0.078125 C 1.890625 -0.078125 2.046875 -0.109375 2.171875 -0.171875 C 2.304688 -0.242188 2.375 -0.410156 2.375 -0.671875 L 2.375 -1.53125 L 0.109375 -1.53125 L 0.109375 -2.03125 L 2.4375 -5.859375 L 3.578125 -5.859375 L 3.578125 -2.0625 L 4.421875 -2.0625 L 4.421875 -1.53125 L 3.578125 -1.53125 L 3.578125 -0.671875 C 3.578125 -0.410156 3.640625 -0.242188 3.765625 -0.171875 C 3.898438 -0.109375 4.0625 -0.078125 4.25 -0.078125 L 4.359375 -0.078125 L 4.359375 0 Z M 0.234375 -2.0625 L 2.375 -2.0625 L 2.375 -3.875 C 2.375 -4.175781 2.375 -4.488281 2.375 -4.8125 C 2.375 -5.132812 2.378906 -5.414062 2.390625 -5.65625 C 2.359375 -5.601562 2.304688 -5.519531 2.234375 -5.40625 C 2.171875 -5.289062 2.097656 -5.164062 2.015625 -5.03125 C 1.941406 -4.894531 1.867188 -4.769531 1.796875 -4.65625 C 1.722656 -4.539062 1.664062 -4.445312 1.625 -4.375 Z M 0.234375 -2.0625 "/></g></g><g clip-rule="nonzero" clip-path="url(#82d920b43f)"><path style=" stroke:none;fill-rule:nonzero;fill:#004aad;fill-opacity:1;" d="M 159.605469 129.058594 C 152.597656 129.058594 146.867188 123.328125 146.867188 116.320312 C 146.867188 109.316406 152.597656 103.582031 159.605469 103.582031 C 166.609375 103.582031 172.34375 109.316406 172.34375 116.320312 C 172.34375 123.328125 166.609375 129.058594 159.605469 129.058594 Z M 159.605469 129.058594 "/></g><g clip-rule="nonzero" clip-path="url(#1f8ab10486)"><path style=" stroke:none;fill-rule:nonzero;fill:#ff3131;fill-opacity:1;" d="M 205.214844 127.992188 C 198.5 127.992188 193.007812 122.5 193.007812 115.789062 C 193.007812 109.074219 198.5 103.582031 205.214844 103.582031 C 211.925781 103.582031 217.417969 109.074219 217.417969 115.789062 C 217.417969 122.5 211.925781 127.992188 205.214844 127.992188 Z M 205.214844 127.992188 "/></g><g clip-rule="nonzero" clip-path="url(#9402774201)"><path style=" stroke:none;fill-rule:nonzero;fill:#ff3131;fill-opacity:1;" d="M 241.082031 104.152344 L 265.808594 104.152344 L 265.808594 128.5 L 241.082031 128.5 Z M 241.082031 104.152344 "/></g><g clip-rule="nonzero" clip-path="url(#a2bbc836c5)"><path style=" stroke:none;fill-rule:nonzero;fill:#004aad;fill-opacity:1;" d="M 287.5 103.226562 L 312.226562 103.226562 L 312.226562 127.574219 L 287.5 127.574219 Z M 287.5 103.226562 "/></g></g></svg>