<svg xmlns="http://www.w3.org/2000/svg" xmlns:xlink="http://www.w3.org/1999/xlink" width="600" zoomAndPan="magnify" viewBox="0 0 450 149.999998" height="200" preserveAspectRatio="xMidYMid meet" version="1.2"><defs/><g id="ca7f4bac12"><rect x="0" width="450" y="0" height="149.999998" style="fill:#ffffff;fill-opacity:1;stroke:none;"/><rect x="0" width="450" y="0" height="149.999998" style="fill:#ffffff;fill-opacity:1;stroke:none;"/><path style="fill-rule:nonzero;fill:#000000;fill-opacity:1;stroke-width:1;stroke-linecap:butt;stroke-linejoin:miter;stroke:#0c7b3b;stroke-opacity:1;stroke-miterlimit:4;" d="M 0.499995 0.999997 L 0.499995 199.000009 M 599.50003 0.999997 L 599.50003 199.000009 M -0.000005 0.499997 L 600.00003 0.499997 M -0.000005 199.500009 L 600.00003 199.500009 " transform="matrix(0.75,0,0,0.75,0.00000375,0.000002)"/><g style="fill:#0c7b3b;fill-opacity:1;"><g transform="translate(57.795438, 82.764039)"><path style="stroke:none" d="M 12.945312 -45.179688 L 12.945312 0 L 23.144531 0 L 23.144531 -45.179688 Z M 12.945312 -45.179688 "/></g></g><g style="fill:#0c7b3b;fill-opacity:1;"><g transform="translate(93.886476, 82.764039)"><path style="stroke:none" d="M 8.367188 -9.351562 C 5.882812 -9.351562 2.875 -7.519531 2.875 -4.316406 C 2.875 -2.222656 4.054688 -0.328125 6.210938 0.589844 C 6.277344 0.914062 6.277344 1.242188 6.277344 1.570312 C 6.277344 4.117188 5.296875 6.734375 3.269531 9.023438 L 3.269531 11.050781 C 10.394531 10.332031 14.777344 3.859375 14.777344 -1.894531 C 14.777344 -7.910156 10.332031 -9.351562 8.367188 -9.351562 Z M 8.367188 -9.351562 "/></g></g><g style="fill:#0c7b3b;fill-opacity:1;"><g transform="translate(111.605076, 82.764039)"><path style="stroke:none" d=""/></g></g><g style="fill:#0c7b3b;fill-opacity:1;"><g transform="translate(129.781363, 82.764039)"><path style="stroke:none" d="M 15.101562 -45.179688 C 11.769531 -45.179688 7.847656 -44.527344 4.902344 -43.21875 L 4.902344 -35.371094 C 8.367188 -37.136719 10.65625 -37.726562 13.273438 -37.726562 C 16.605469 -37.726562 19.484375 -35.566406 19.484375 -32.496094 C 19.484375 -29.945312 17.261719 -27.394531 13.339844 -27.066406 L 13.339844 -19.222656 C 17.914062 -18.765625 20.203125 -16.214844 20.203125 -13.011719 C 20.203125 -9.742188 17.390625 -7.191406 13.597656 -7.191406 C 10.265625 -7.191406 6.863281 -8.367188 3.792969 -10.59375 L 3.792969 -1.960938 C 6.929688 -0.261719 11.179688 0.589844 14.972656 0.589844 C 23.472656 0.589844 30.597656 -3.859375 30.597656 -12.421875 C 30.597656 -18.371094 27.851562 -21.835938 22.753906 -23.929688 C 26.871094 -25.890625 29.355469 -30.074219 29.355469 -34.261719 C 29.355469 -40.929688 23.339844 -45.179688 15.101562 -45.179688 Z M 15.101562 -45.179688 "/></g></g><g style="fill:#0c7b3b;fill-opacity:1;"><g transform="translate(165.872401, 82.764039)"><path style="stroke:none" d="M 8.367188 -9.351562 C 5.882812 -9.351562 2.875 -7.519531 2.875 -4.316406 C 2.875 -2.222656 4.054688 -0.328125 6.210938 0.589844 C 6.277344 0.914062 6.277344 1.242188 6.277344 1.570312 C 6.277344 4.117188 5.296875 6.734375 3.269531 9.023438 L 3.269531 11.050781 C 10.394531 10.332031 14.777344 3.859375 14.777344 -1.894531 C 14.777344 -7.910156 10.332031 -9.351562 8.367188 -9.351562 Z M 8.367188 -9.351562 "/></g></g><g style="fill:#0c7b3b;fill-opacity:1;"><g transform="translate(183.590995, 82.764039)"><path style="stroke:none" d=""/></g></g><g style="fill:#0c7b3b;fill-opacity:1;"><g transform="translate(201.767288, 82.764039)"><path style="stroke:none" d="M 6.472656 -44.589844 L 6.472656 -19.15625 C 8.238281 -19.613281 10.070312 -19.8125 11.964844 -19.8125 C 17.128906 -19.8125 20.726562 -17.390625 20.726562 -13.402344 C 20.726562 -10.132812 18.109375 -7.257812 13.664062 -7.257812 C 11.3125 -7.257812 8.171875 -7.78125 4.183594 -9.9375 L 4.183594 -1.832031 C 6.40625 -0.523438 11.246094 0.589844 14.972656 0.589844 C 25.628906 0.589844 31.121094 -5.425781 31.121094 -13.925781 C 31.121094 -21.707031 25.042969 -27.328125 17.128906 -27.328125 C 16.410156 -27.328125 15.886719 -27.265625 15.363281 -27.265625 L 15.363281 -35.632812 L 29.617188 -35.632812 L 29.617188 -44.589844 Z M 6.472656 -44.589844 "/></g></g><g style="fill:#0c7b3b;fill-opacity:1;"><g transform="translate(237.858332, 82.764039)"><path style="stroke:none" d="M 8.367188 -9.351562 C 5.882812 -9.351562 2.875 -7.519531 2.875 -4.316406 C 2.875 -2.222656 4.054688 -0.328125 6.210938 0.589844 C 6.277344 0.914062 6.277344 1.242188 6.277344 1.570312 C 6.277344 4.117188 5.296875 6.734375 3.269531 9.023438 L 3.269531 11.050781 C 10.394531 10.332031 14.777344 3.859375 14.777344 -1.894531 C 14.777344 -7.910156 10.332031 -9.351562 8.367188 -9.351562 Z M 8.367188 -9.351562 "/></g></g><g style="fill:#0c7b3b;fill-opacity:1;"><g transform="translate(255.576927, 82.764039)"><path style="stroke:none" d="M -0.390625 4.902344 L -0.390625 8.171875 L 33.082031 8.171875 L 33.082031 4.902344 Z M -0.390625 4.902344 "/></g></g><g style="fill:#0c7b3b;fill-opacity:1;"><g transform="translate(288.268076, 82.764039)"><path style="stroke:none" d="M -0.390625 4.902344 L -0.390625 8.171875 L 33.082031 8.171875 L 33.082031 4.902344 Z M -0.390625 4.902344 "/></g></g><g style="fill:#0c7b3b;fill-opacity:1;"><g transform="translate(320.959226, 82.764039)"><path style="stroke:none" d="M 8.367188 -9.351562 C 5.882812 -9.351562 2.875 -7.519531 2.875 -4.316406 C 2.875 -2.222656 4.054688 -0.328125 6.210938 0.589844 C 6.277344 0.914062 6.277344 1.242188 6.277344 1.570312 C 6.277344 4.117188 5.296875 6.734375 3.269531 9.023438 L 3.269531 11.050781 C 10.394531 10.332031 14.777344 3.859375 14.777344 -1.894531 C 14.777344 -7.910156 10.332031 -9.351562 8.367188 -9.351562 Z M 8.367188 -9.351562 "/></g></g><g style="fill:#0c7b3b;fill-opacity:1;"><g transform="translate(338.677833, 82.764039)"><path style="stroke:none" d=""/></g></g><g style="fill:#0c7b3b;fill-opacity:1;"><g transform="translate(356.854114, 82.764039)"><path style="stroke:none" d="M 17.128906 -45.179688 C 9.089844 -45.179688 2.289062 -38.835938 2.289062 -29.8125 C 2.289062 -21.96875 7.847656 -15.691406 14.582031 -15.691406 C 15.691406 -15.691406 16.28125 -15.886719 17.457031 -16.148438 L 7.191406 0.589844 L 18.109375 0.589844 L 25.890625 -12.03125 C 29.945312 -18.632812 31.839844 -24.0625 31.839844 -30.140625 C 31.839844 -39.164062 24.78125 -45.179688 17.128906 -45.179688 Z M 11.898438 -30.140625 C 11.898438 -34.0625 13.992188 -36.808594 16.867188 -36.808594 C 19.8125 -36.808594 21.835938 -34.523438 21.835938 -30.140625 C 21.835938 -26.285156 19.8125 -23.539062 16.867188 -23.539062 C 14.058594 -23.539062 11.898438 -26.023438 11.898438 -30.140625 Z M 11.898438 -30.140625 "/></g></g></g></svg>