<svg xmlns="http://www.w3.org/2000/svg" xmlns:xlink="http://www.w3.org/1999/xlink" width="600" zoomAndPan="magnify" viewBox="0 0 450 149.999998" height="200" preserveAspectRatio="xMidYMid meet" version="1.2"><defs><clipPath id="7e549c3173"><path d="M 206.046875 120.464844 L 221.046875 120.464844 L 221.046875 139 L 206.046875 139 Z M 206.046875 120.464844 "/></clipPath><clipPath id="3fecb4d839"><path d="M 210 139 L 216 139 L 216 145.214844 L 210 145.214844 Z M 210 139 "/></clipPath><clipPath id="2c5ea32a0a"><path d="M 159.949219 45.71875 L 178.699219 45.71875 L 178.699219 64.46875 L 159.949219 64.46875 Z M 159.949219 45.71875 "/></clipPath><clipPath id="5c4cea082d"><path d="M 133 109 L 309 109 L 309 109.75 L 133 109.75 Z M 133 109 "/></clipPath></defs><g id="27fd7fb7af"><rect x="0" width="450" y="0" height="149.999998" style="fill:#ffffff;fill-opacity:1;stroke:none;"/><rect x="0" width="450" y="0" height="149.999998" style="fill:#ffffff;fill-opacity:1;stroke:none;"/><path style="fill-rule:nonzero;fill:#000000;fill-opacity:1;stroke-width:1;stroke-linecap:butt;stroke-linejoin:miter;stroke:#0c7b3b;stroke-opacity:1;stroke-miterlimit:4;" d="M 0.499995 0.999997 L 0.499995 199.000009 M 599.50003 0.999997 L 599.50003 199.000009 M -0.000005 0.499997 L 600.00003 0.499997 M -0.000005 199.500009 L 600.00003 199.500009 " transform="matrix(0.75,0,0,0.75,0.00000375,0.000002)"/><g clip-rule="nonzero" clip-path="url(#7e549c3173)"><path style=" stroke:none;fill-rule:nonzero;fill:#000000;fill-opacity:1;" d="M 220.058594 123.335938 C 219.410156 122.40625 218.523438 121.691406 217.386719 121.203125 C 216.257812 120.710938 214.953125 120.464844 213.476562 120.464844 C 212.128906 120.464844 210.902344 120.707031 209.792969 121.191406 C 208.683594 121.671875 207.789062 122.410156 207.113281 123.386719 C 206.574219 124.164062 206.242188 125.101562 206.105469 126.207031 C 206.046875 126.6875 206.425781 127.113281 206.902344 127.113281 L 209.875 127.113281 C 210.257812 127.113281 210.582031 126.839844 210.664062 126.464844 C 210.738281 126.128906 210.859375 125.824219 211.03125 125.570312 C 211.304688 125.152344 211.65625 124.835938 212.085938 124.625 C 212.515625 124.410156 212.972656 124.300781 213.457031 124.300781 C 213.953125 124.300781 214.40625 124.40625 214.820312 124.617188 C 215.230469 124.824219 215.558594 125.128906 215.804688 125.519531 C 216.046875 125.910156 216.167969 126.359375 216.167969 126.878906 C 216.167969 127.371094 216.0625 127.8125 215.847656 128.203125 C 215.632812 128.59375 215.34375 128.953125 214.980469 129.277344 C 214.613281 129.601562 214.210938 129.910156 213.75 130.210938 C 213.132812 130.601562 212.605469 131.039062 212.171875 131.519531 C 211.730469 132 211.402344 132.628906 211.171875 133.410156 C 210.949219 134.191406 210.832031 135.234375 210.824219 136.546875 L 210.824219 137.199219 C 210.824219 137.648438 211.183594 138.011719 211.628906 138.011719 L 214.242188 138.011719 C 214.683594 138.011719 215.046875 137.652344 215.046875 137.199219 L 215.046875 136.546875 C 215.054688 135.808594 215.148438 135.191406 215.328125 134.691406 C 215.511719 134.191406 215.789062 133.746094 216.160156 133.363281 C 216.535156 132.984375 217.015625 132.617188 217.601562 132.261719 C 218.300781 131.839844 218.902344 131.371094 219.417969 130.84375 C 219.925781 130.324219 220.328125 129.722656 220.613281 129.042969 C 220.898438 128.367188 221.046875 127.582031 221.046875 126.707031 C 221.03125 125.390625 220.703125 124.265625 220.058594 123.335938 Z M 220.058594 123.335938 "/></g><g clip-rule="nonzero" clip-path="url(#3fecb4d839)"><path style=" stroke:none;fill-rule:nonzero;fill:#000000;fill-opacity:1;" d="M 213.015625 139.835938 C 212.273438 139.835938 211.640625 140.097656 211.117188 140.621094 C 210.59375 141.144531 210.335938 141.78125 210.347656 142.511719 C 210.335938 143.253906 210.59375 143.894531 211.117188 144.421875 C 211.640625 144.953125 212.273438 145.214844 213.015625 145.214844 C 213.488281 145.214844 213.929688 145.089844 214.328125 144.847656 C 214.726562 144.601562 215.050781 144.28125 215.300781 143.867188 C 215.550781 143.457031 215.675781 143.007812 215.679688 142.511719 C 215.671875 141.773438 215.402344 141.144531 214.871094 140.621094 C 214.339844 140.097656 213.71875 139.835938 213.015625 139.835938 Z M 213.015625 139.835938 "/></g><g clip-rule="nonzero" clip-path="url(#2c5ea32a0a)"><path style=" stroke:none;fill-rule:nonzero;fill:#0c7b3b;fill-opacity:1;" d="M 178.628906 53.800781 L 178.628906 56.3125 C 178.628906 56.511719 178.589844 56.703125 178.515625 56.886719 C 178.4375 57.070312 178.328125 57.230469 178.191406 57.371094 C 178.050781 57.511719 177.886719 57.617188 177.707031 57.695312 C 177.523438 57.769531 177.332031 57.808594 177.132812 57.808594 L 172.039062 57.808594 L 172.039062 62.902344 C 172.039062 63.101562 172 63.292969 171.925781 63.476562 C 171.847656 63.65625 171.742188 63.820312 171.601562 63.960938 C 171.460938 64.101562 171.300781 64.207031 171.117188 64.285156 C 170.933594 64.359375 170.742188 64.398438 170.542969 64.398438 L 168.03125 64.398438 C 167.832031 64.398438 167.644531 64.359375 167.460938 64.285156 C 167.277344 64.207031 167.113281 64.101562 166.976562 63.960938 C 166.835938 63.820312 166.726562 63.65625 166.652344 63.476562 C 166.574219 63.292969 166.535156 63.101562 166.535156 62.902344 L 166.535156 57.808594 L 161.441406 57.808594 C 161.246094 57.808594 161.054688 57.769531 160.871094 57.695312 C 160.6875 57.617188 160.527344 57.511719 160.386719 57.371094 C 160.246094 57.230469 160.136719 57.070312 160.0625 56.886719 C 159.984375 56.703125 159.949219 56.511719 159.949219 56.3125 L 159.949219 53.800781 C 159.949219 53.601562 159.984375 53.414062 160.0625 53.230469 C 160.136719 53.046875 160.246094 52.882812 160.386719 52.746094 C 160.527344 52.605469 160.6875 52.496094 160.871094 52.421875 C 161.054688 52.34375 161.246094 52.308594 161.441406 52.308594 L 166.535156 52.308594 L 166.535156 47.210938 C 166.535156 47.015625 166.574219 46.824219 166.652344 46.640625 C 166.726562 46.457031 166.835938 46.296875 166.976562 46.15625 C 167.113281 46.015625 167.277344 45.90625 167.460938 45.832031 C 167.644531 45.753906 167.832031 45.71875 168.03125 45.71875 L 170.542969 45.71875 C 170.742188 45.71875 170.933594 45.753906 171.117188 45.832031 C 171.300781 45.90625 171.460938 46.015625 171.601562 46.15625 C 171.742188 46.296875 171.847656 46.457031 171.925781 46.640625 C 172 46.824219 172.039062 47.015625 172.039062 47.210938 L 172.039062 52.308594 L 177.132812 52.308594 C 177.332031 52.308594 177.523438 52.34375 177.707031 52.421875 C 177.886719 52.496094 178.050781 52.605469 178.191406 52.746094 C 178.328125 52.882812 178.4375 53.046875 178.515625 53.230469 C 178.589844 53.414062 178.628906 53.601562 178.628906 53.800781 Z M 178.628906 53.800781 "/></g><g clip-rule="nonzero" clip-path="url(#5c4cea082d)"><path style=" stroke:none;fill-rule:nonzero;fill:#0c7b3b;fill-opacity:1;" d="M 133.917969 109 L 136.992188 109 L 136.992188 109.75 L 133.917969 109.75 Z M 137.660156 109.75 L 140.730469 109.75 L 140.730469 109 L 137.660156 109 Z M 141.355469 109.75 L 144.472656 109.75 L 144.472656 109 L 141.355469 109 Z M 145.09375 109.75 L 148.167969 109.75 L 148.167969 109 L 145.09375 109 Z M 148.835938 109.75 L 151.910156 109.75 L 151.910156 109 L 148.835938 109 Z M 152.53125 109.75 L 155.605469 109.75 L 155.605469 109 L 152.53125 109 Z M 156.273438 109.75 L 159.34375 109.75 L 159.34375 109 L 156.273438 109 Z M 159.96875 109.75 L 163.042969 109.75 L 163.042969 109 L 159.96875 109 Z M 163.710938 109.75 L 166.78125 109.75 L 166.78125 109 L 163.710938 109 Z M 167.40625 109.75 L 170.476562 109.75 L 170.476562 109 L 167.40625 109 Z M 171.144531 109.75 L 174.21875 109.75 L 174.21875 109 L 171.144531 109 Z M 174.886719 109.75 L 177.960938 109.75 L 177.960938 109 L 174.886719 109 Z M 178.582031 109.75 L 181.65625 109.75 L 181.65625 109 L 178.582031 109 Z M 182.324219 109.75 L 185.394531 109.75 L 185.394531 109 L 182.324219 109 Z M 186.019531 109.75 L 189.09375 109.75 L 189.09375 109 L 186.019531 109 Z M 189.761719 109.75 L 192.832031 109.75 L 192.832031 109 L 189.761719 109 Z M 193.457031 109.75 L 196.527344 109.75 L 196.527344 109 L 193.457031 109 Z M 197.195312 109.75 L 200.269531 109.75 L 200.269531 109 L 197.195312 109 Z M 200.9375 109.75 L 204.011719 109.75 L 204.011719 109 L 200.9375 109 Z M 204.632812 109.75 L 207.707031 109.75 L 207.707031 109 L 204.632812 109 Z M 208.375 109.75 L 211.445312 109.75 L 211.445312 109 L 208.375 109 Z M 212.070312 109.75 L 215.144531 109.75 L 215.144531 109 L 212.070312 109 Z M 215.8125 109.75 L 218.882812 109.75 L 218.882812 109 L 215.8125 109 Z M 219.507812 109.75 L 222.578125 109.75 L 222.578125 109 L 219.507812 109 Z M 223.246094 109.75 L 226.320312 109.75 L 226.320312 109 L 223.246094 109 Z M 226.988281 109.75 L 230.0625 109.75 L 230.0625 109 L 226.988281 109 Z M 230.683594 109.75 L 233.757812 109.75 L 233.757812 109 L 230.683594 109 Z M 234.425781 109.75 L 237.496094 109.75 L 237.496094 109 L 234.425781 109 Z M 238.121094 109.75 L 241.195312 109.75 L 241.195312 109 L 238.121094 109 Z M 241.863281 109.75 L 244.933594 109.75 L 244.933594 109 L 241.863281 109 Z M 245.558594 109.75 L 248.628906 109.75 L 248.628906 109 L 245.558594 109 Z M 249.296875 109.75 L 252.371094 109.75 L 252.371094 109 L 249.296875 109 Z M 253.039062 109.75 L 256.113281 109.75 L 256.113281 109 L 253.039062 109 Z M 256.734375 109.75 L 259.808594 109.75 L 259.808594 109 L 256.734375 109 Z M 260.476562 109.75 L 263.546875 109.75 L 263.546875 109 L 260.476562 109 Z M 264.171875 109.75 L 267.246094 109.75 L 267.246094 109 L 264.171875 109 Z M 267.914062 109.75 L 270.984375 109.75 L 270.984375 109 L 267.914062 109 Z M 271.609375 109.75 L 274.679688 109.75 L 274.679688 109 L 271.609375 109 Z M 275.347656 109.75 L 278.421875 109.75 L 278.421875 109 L 275.347656 109 Z M 279.089844 109.75 L 282.164062 109.75 L 282.164062 109 L 279.089844 109 Z M 282.785156 109.75 L 285.859375 109.75 L 285.859375 109 L 282.785156 109 Z M 286.527344 109.75 L 289.597656 109.75 L 289.597656 109 L 286.527344 109 Z M 290.222656 109.75 L 293.296875 109.75 L 293.296875 109 L 290.222656 109 Z M 293.964844 109.75 L 297.035156 109.75 L 297.035156 109 L 293.964844 109 Z M 297.660156 109.75 L 300.730469 109.75 L 300.730469 109 L 297.660156 109 Z M 301.398438 109.75 L 304.472656 109.75 L 304.472656 109 L 301.398438 109 Z M 305.140625 109 L 305.140625 109.75 L 308.214844 109.75 L 308.214844 109 Z M 305.140625 109 "/></g><g style="fill:#0c7b3b;fill-opacity:1;"><g transform="translate(184.191732, 41.002254)"><path style="stroke:none" d="M 11.0625 -29.976562 L 5.941406 -21.691406 C 2.863281 -16.703125 1.910156 -13.535156 1.910156 -9.976562 C 1.910156 -3.210938 6.59375 0.390625 11.84375 0.390625 C 17.4375 0.390625 21.515625 -4.035156 21.515625 -9.804688 C 21.515625 -14.835938 18.046875 -19.042969 13.230469 -19.042969 C 12.710938 -19.042969 12.363281 -19 11.496094 -18.785156 L 18.351562 -29.976562 Z M 8.589844 -9.414062 C 8.589844 -12.277344 9.890625 -13.882812 11.757812 -13.882812 C 13.925781 -13.882812 15.140625 -11.929688 15.140625 -9.542969 C 15.140625 -7.070312 13.96875 -5.117188 11.84375 -5.117188 C 9.804688 -5.117188 8.589844 -6.722656 8.589844 -9.414062 Z M 8.589844 -9.414062 "/></g></g><g style="fill:#0c7b3b;fill-opacity:1;"><g transform="translate(208.134842, 41.002254)"><path style="stroke:none" d="M 2.777344 -29.585938 L 2.777344 -23.6875 L 13.707031 -23.6875 L 5.769531 -1.867188 L 11.667969 0.390625 L 22.472656 -29.238281 L 22.472656 -29.585938 Z M 2.777344 -29.585938 "/></g></g><g style="fill:#0c7b3b;fill-opacity:1;"><g transform="translate(232.077952, 41.002254)"><path style="stroke:none" d="M 10.019531 -29.976562 C 7.808594 -29.976562 5.207031 -29.542969 3.253906 -28.675781 L 3.253906 -23.46875 C 5.550781 -24.640625 7.070312 -25.03125 8.804688 -25.03125 C 11.019531 -25.03125 12.925781 -23.597656 12.925781 -21.558594 C 12.925781 -19.867188 11.453125 -18.175781 8.847656 -17.960938 L 8.847656 -12.753906 C 11.886719 -12.449219 13.40625 -10.757812 13.40625 -8.632812 C 13.40625 -6.464844 11.539062 -4.773438 9.023438 -4.773438 C 6.8125 -4.773438 4.554688 -5.550781 2.515625 -7.027344 L 2.515625 -1.300781 C 4.597656 -0.171875 7.417969 0.390625 9.933594 0.390625 C 15.574219 0.390625 20.300781 -2.558594 20.300781 -8.242188 C 20.300781 -12.191406 18.480469 -14.488281 15.097656 -15.878906 C 17.828125 -17.179688 19.476562 -19.953125 19.476562 -22.730469 C 19.476562 -27.15625 15.488281 -29.976562 10.019531 -29.976562 Z M 10.019531 -29.976562 "/></g></g><g style="fill:#0c7b3b;fill-opacity:1;"><g transform="translate(184.191732, 101.399562)"><path style="stroke:none" d="M 4.292969 -29.585938 L 4.292969 -12.710938 C 5.464844 -13.015625 6.679688 -13.144531 7.9375 -13.144531 C 11.367188 -13.144531 13.75 -11.539062 13.75 -8.894531 C 13.75 -6.722656 12.015625 -4.816406 9.066406 -4.816406 C 7.503906 -4.816406 5.421875 -5.164062 2.777344 -6.59375 L 2.777344 -1.214844 C 4.25 -0.347656 7.460938 0.390625 9.933594 0.390625 C 17.003906 0.390625 20.648438 -3.601562 20.648438 -9.238281 C 20.648438 -14.402344 16.613281 -18.132812 11.367188 -18.132812 C 10.886719 -18.132812 10.542969 -18.089844 10.195312 -18.089844 L 10.195312 -23.640625 L 19.652344 -23.640625 L 19.652344 -29.585938 Z M 4.292969 -29.585938 "/></g></g><g style="fill:#0c7b3b;fill-opacity:1;"><g transform="translate(208.134842, 101.399562)"><path style="stroke:none" d="M 15.703125 -29.976562 L 1.777344 -12.015625 L 1.777344 -7.289062 L 13.316406 -7.289062 L 13.316406 0 L 19.867188 0 L 19.867188 -7.289062 L 21.863281 -7.289062 L 21.863281 -12.015625 L 19.867188 -12.015625 L 19.867188 -29.976562 Z M 13.316406 -12.015625 L 6.984375 -12.015625 L 13.316406 -20.085938 Z M 13.316406 -12.015625 "/></g></g><g style="fill:#0c7b3b;fill-opacity:1;"><g transform="translate(232.077952, 101.399562)"><path style="stroke:none" d="M 11.367188 -29.976562 C 6.03125 -29.976562 1.519531 -25.769531 1.519531 -19.78125 C 1.519531 -14.574219 5.207031 -10.410156 9.671875 -10.410156 C 10.410156 -10.410156 10.800781 -10.542969 11.582031 -10.714844 L 4.773438 0.390625 L 12.015625 0.390625 L 17.179688 -7.980469 C 19.867188 -12.363281 21.125 -15.964844 21.125 -20 C 21.125 -25.984375 16.441406 -29.976562 11.367188 -29.976562 Z M 7.894531 -20 C 7.894531 -22.601562 9.285156 -24.421875 11.191406 -24.421875 C 13.144531 -24.421875 14.488281 -22.90625 14.488281 -20 C 14.488281 -17.4375 13.144531 -15.617188 11.191406 -15.617188 C 9.328125 -15.617188 7.894531 -17.265625 7.894531 -20 Z M 7.894531 -20 "/></g></g></g></svg>