<svg xmlns="http://www.w3.org/2000/svg" xmlns:xlink="http://www.w3.org/1999/xlink" width="600" zoomAndPan="magnify" viewBox="0 0 450 149.999998" height="200" preserveAspectRatio="xMidYMid meet" version="1.2"><defs><clipPath id="198c926934"><path d="M 0 1.207031 L 450 1.207031 L 450 150 L 0 150 Z M 0 1.207031 "/></clipPath><clipPath id="ca4b9a91bb"><path d="M 325.730469 49.402344 L 360.980469 49.402344 L 360.980469 90 L 325.730469 90 Z M 325.730469 49.402344 "/></clipPath><clipPath id="27cb9bd328"><path d="M 335 94 L 349 94 L 349 106.402344 L 335 106.402344 Z M 335 94 "/></clipPath><clipPath id="73a5798fa5"><path d="M 169.847656 64.15625 L 199.097656 64.15625 L 199.097656 96 L 169.847656 96 Z M 169.847656 64.15625 "/></clipPath></defs><g id="212489824b"><rect x="0" width="450" y="0" height="149.999998" style="fill:#ffffff;fill-opacity:1;stroke:none;"/><rect x="0" width="450" y="0" height="149.999998" style="fill:#ffffff;fill-opacity:1;stroke:none;"/><g clip-rule="nonzero" clip-path="url(#198c926934)"><path style="fill-rule:nonzero;fill:#000000;fill-opacity:1;stroke-width:1;stroke-linecap:butt;stroke-linejoin:miter;stroke:#0c7b3b;stroke-opacity:1;stroke-miterlimit:4;" d="M 0.499995 0.997966 L 0.499995 198.997978 M 599.50003 0.997966 L 599.50003 198.997978 M -0.000005 0.497966 L 600.00003 0.497966 M -0.000005 199.497978 L 600.00003 199.497978 " transform="matrix(0.75,0,0,0.75,0.00000375,1.208557)"/></g><g style="fill:#0c7b3b;fill-opacity:1;"><g transform="translate(83.656015, 100.554606)"><path style="stroke:none" d="M 23.886719 -45.59375 L 2.707031 -18.277344 L 2.707031 -11.085938 L 20.257812 -11.085938 L 20.257812 0 L 30.222656 0 L 30.222656 -11.085938 L 33.257812 -11.085938 L 33.257812 -18.277344 L 30.222656 -18.277344 L 30.222656 -45.59375 Z M 20.257812 -18.277344 L 10.625 -18.277344 L 20.257812 -30.550781 Z M 20.257812 -18.277344 "/></g></g><g style="fill:#0c7b3b;fill-opacity:1;"><g transform="translate(120.075107, 100.554606)"><path style="stroke:none" d="M 18.078125 -45.59375 C 9.632812 -45.59375 4.421875 -40.515625 4.421875 -33.386719 C 4.421875 -29.496094 5.9375 -26.261719 9.964844 -23.753906 C 5.609375 -21.972656 3.167969 -17.75 3.167969 -12.800781 C 3.167969 -4.882812 9.4375 0.59375 18.144531 0.59375 C 27.515625 0.59375 33.324219 -4.949219 33.324219 -12.867188 C 33.324219 -17.617188 30.945312 -21.710938 26.59375 -23.753906 C 30.816406 -26.195312 32.070312 -29.890625 32.070312 -33.519531 C 32.070312 -39.195312 27.515625 -45.59375 18.078125 -45.59375 Z M 13.988281 -32.792969 C 13.988281 -36.359375 15.507812 -38.863281 18.210938 -38.863281 C 20.917969 -38.863281 22.433594 -36.753906 22.433594 -32.859375 C 22.433594 -28.835938 20.917969 -26.527344 18.277344 -26.527344 C 15.441406 -26.527344 13.988281 -29.230469 13.988281 -32.792969 Z M 23.160156 -12.867188 C 23.160156 -8.578125 21.246094 -5.871094 18.34375 -5.871094 C 15.441406 -5.871094 13.261719 -8.710938 13.261719 -13.066406 C 13.261719 -17.355469 15.109375 -20.125 18.277344 -20.125 C 21.246094 -20.125 23.160156 -17.617188 23.160156 -12.867188 Z M 23.160156 -12.867188 "/></g></g><g style="fill:#0c7b3b;fill-opacity:1;"><g transform="translate(156.499761, 100.554606)"><path style="stroke:none" d=""/></g></g><g style="fill:#0c7b3b;fill-opacity:1;"><g transform="translate(174.841263, 100.554606)"><path style="stroke:none" d=""/></g></g><g style="fill:#0c7b3b;fill-opacity:1;"><g transform="translate(193.182766, 100.554606)"><path style="stroke:none" d=""/></g></g><g style="fill:#0c7b3b;fill-opacity:1;"><g transform="translate(211.531008, 100.554606)"><path style="stroke:none" d="M 23.886719 -45.59375 L 2.707031 -18.277344 L 2.707031 -11.085938 L 20.257812 -11.085938 L 20.257812 0 L 30.222656 0 L 30.222656 -11.085938 L 33.257812 -11.085938 L 33.257812 -18.277344 L 30.222656 -18.277344 L 30.222656 -45.59375 Z M 20.257812 -18.277344 L 10.625 -18.277344 L 20.257812 -30.550781 Z M 20.257812 -18.277344 "/></g></g><g style="fill:#0c7b3b;fill-opacity:1;"><g transform="translate(247.9501, 100.554606)"><path style="stroke:none" d=""/></g></g><g style="fill:#0c7b3b;fill-opacity:1;"><g transform="translate(266.291602, 100.554606)"><path style="stroke:none" d="M 2.707031 -33.917969 L 2.707031 -25.402344 L 35.765625 -25.402344 L 35.765625 -33.917969 Z M 2.707031 -19.597656 L 2.707031 -11.152344 L 35.765625 -11.152344 L 35.765625 -19.597656 Z M 2.707031 -19.597656 "/></g></g><g style="fill:#0c7b3b;fill-opacity:1;"><g transform="translate(304.765377, 100.554606)"><path style="stroke:none" d=""/></g></g><g clip-rule="nonzero" clip-path="url(#ca4b9a91bb)"><path style=" stroke:none;fill-rule:nonzero;fill:#000000;fill-opacity:1;" d="M 358.652344 56.015625 C 357.136719 53.871094 355.042969 52.230469 352.378906 51.101562 C 349.726562 49.972656 346.660156 49.402344 343.191406 49.402344 C 340.03125 49.402344 337.148438 49.960938 334.542969 51.078125 C 331.933594 52.183594 329.832031 53.882812 328.246094 56.128906 C 326.984375 57.917969 326.203125 60.085938 325.882812 62.628906 C 325.742188 63.734375 326.628906 64.714844 327.753906 64.714844 L 334.738281 64.714844 C 335.632812 64.714844 336.390625 64.085938 336.585938 63.21875 C 336.757812 62.445312 337.046875 61.75 337.449219 61.15625 C 338.089844 60.199219 338.917969 59.46875 339.929688 58.980469 C 340.9375 58.488281 342.007812 58.238281 343.144531 58.238281 C 344.316406 58.238281 345.375 58.476562 346.347656 58.96875 C 347.3125 59.445312 348.082031 60.140625 348.65625 61.042969 C 349.230469 61.945312 349.519531 62.980469 349.519531 64.179688 C 349.519531 65.304688 349.265625 66.320312 348.761719 67.222656 C 348.257812 68.121094 347.578125 68.953125 346.726562 69.695312 C 345.867188 70.449219 344.914062 71.15625 343.832031 71.851562 C 342.386719 72.75 341.144531 73.753906 340.125 74.859375 C 339.089844 75.964844 338.320312 77.414062 337.78125 79.214844 C 337.253906 81.015625 336.976562 83.421875 336.964844 86.441406 L 336.964844 87.945312 C 336.964844 88.972656 337.804688 89.816406 338.847656 89.816406 L 344.992188 89.816406 C 346.027344 89.816406 346.878906 88.984375 346.878906 87.945312 L 346.878906 86.441406 C 346.902344 84.742188 347.117188 83.320312 347.542969 82.167969 C 347.96875 81.015625 348.625 79.988281 349.496094 79.113281 C 350.382812 78.234375 351.507812 77.390625 352.886719 76.570312 C 354.527344 75.601562 355.941406 74.519531 357.144531 73.308594 C 358.339844 72.113281 359.28125 70.722656 359.960938 69.160156 C 360.625 67.597656 360.972656 65.796875 360.972656 63.777344 C 360.9375 60.746094 360.167969 58.160156 358.652344 56.015625 Z M 358.652344 56.015625 "/></g><g clip-rule="nonzero" clip-path="url(#27cb9bd328)"><path style=" stroke:none;fill-rule:nonzero;fill:#000000;fill-opacity:1;" d="M 342.109375 94.011719 C 340.363281 94.011719 338.882812 94.617188 337.65625 95.824219 C 336.425781 97.03125 335.816406 98.492188 335.839844 100.179688 C 335.816406 101.890625 336.425781 103.359375 337.65625 104.578125 C 338.882812 105.800781 340.363281 106.402344 342.109375 106.402344 C 343.226562 106.402344 344.257812 106.117188 345.1875 105.558594 C 346.132812 104.988281 346.890625 104.25 347.476562 103.304688 C 348.0625 102.355469 348.359375 101.320312 348.371094 100.179688 C 348.347656 98.480469 347.714844 97.03125 346.464844 95.824219 C 345.222656 94.617188 343.765625 94.011719 342.109375 94.011719 Z M 342.109375 94.011719 "/></g><g clip-rule="nonzero" clip-path="url(#73a5798fa5)"><path style=" stroke:none;fill-rule:nonzero;fill:#0c7b3b;fill-opacity:1;" d="M 199.238281 77.375 L 199.238281 82.5 L 169.972656 82.5 L 169.972656 77.375 Z M 184.605469 95.851562 C 183.460938 95.851562 182.484375 95.457031 181.679688 94.664062 C 180.886719 93.855469 180.488281 92.878906 180.488281 91.734375 C 180.488281 90.640625 180.886719 89.695312 181.679688 88.902344 C 182.484375 88.109375 183.460938 87.710938 184.605469 87.710938 C 185.703125 87.710938 186.648438 88.109375 187.441406 88.902344 C 188.234375 89.695312 188.628906 90.640625 188.628906 91.734375 C 188.628906 92.878906 188.234375 93.855469 187.441406 94.664062 C 186.648438 95.457031 185.703125 95.851562 184.605469 95.851562 Z M 184.605469 72.164062 C 183.84375 72.164062 183.148438 71.980469 182.523438 71.613281 C 181.898438 71.25 181.402344 70.753906 181.039062 70.128906 C 180.671875 69.503906 180.488281 68.808594 180.488281 68.046875 C 180.488281 66.949219 180.886719 66.003906 181.679688 65.210938 C 182.484375 64.421875 183.460938 64.023438 184.605469 64.023438 C 185.703125 64.023438 186.648438 64.421875 187.441406 65.210938 C 188.234375 66.003906 188.628906 66.949219 188.628906 68.046875 C 188.628906 69.191406 188.234375 70.167969 187.441406 70.976562 C 186.648438 71.765625 185.703125 72.164062 184.605469 72.164062 Z M 184.605469 72.164062 "/></g></g></svg>