<svg xmlns="http://www.w3.org/2000/svg" xmlns:xlink="http://www.w3.org/1999/xlink" width="600" zoomAndPan="magnify" viewBox="0 0 450 149.999998" height="200" preserveAspectRatio="xMidYMid meet" version="1.2"><defs><clipPath id="73f54abf14"><path d="M 169.664062 4 L 287 4 L 287 45 L 169.664062 45 Z M 169.664062 4 "/></clipPath><clipPath id="8535526656"><path d="M 169.664062 3.957031 L 287.414062 3.957031 L 287.414062 45.207031 L 169.664062 45.207031 Z M 169.664062 3.957031 "/></clipPath><clipPath id="b1f52ed915"><path d="M 169.664062 52.167969 L 287 52.167969 L 287 93.417969 L 169.664062 93.417969 Z M 169.664062 52.167969 "/></clipPath><clipPath id="f1e681537d"><path d="M 169.664062 52.167969 L 287.414062 52.167969 L 287.414062 93.417969 L 169.664062 93.417969 Z M 169.664062 52.167969 "/></clipPath><clipPath id="f0eaf92842"><path d="M 252.015625 62.09375 L 266.265625 62.09375 L 266.265625 80 L 252.015625 80 Z M 252.015625 62.09375 "/></clipPath><clipPath id="78e3088162"><path d="M 256 80 L 262 80 L 262 86.09375 L 256 86.09375 Z M 256 80 "/></clipPath><clipPath id="4494e8783b"><path d="M 182.59375 55.996094 L 216.34375 55.996094 L 216.34375 89.746094 L 182.59375 89.746094 Z M 182.59375 55.996094 "/></clipPath><clipPath id="94be992279"><path d="M 240.898438 7.785156 L 274.648438 7.785156 L 274.648438 41.535156 L 240.898438 41.535156 Z M 240.898438 7.785156 "/></clipPath><clipPath id="93a6326899"><path d="M 182.59375 7.785156 L 216.34375 7.785156 L 216.34375 41.535156 L 182.59375 41.535156 Z M 182.59375 7.785156 "/></clipPath><clipPath id="c4de5ef287"><path d="M 134.335938 99.34375 L 324.835938 99.34375 L 324.835938 132 L 134.335938 132 Z M 134.335938 99.34375 "/></clipPath><clipPath id="c64c505c29"><path d="M 134.335938 99.34375 L 324.835938 99.34375 L 324.835938 132.34375 L 134.335938 132.34375 Z M 134.335938 99.34375 "/></clipPath><clipPath id="cc258ec5fe"><path d="M 134.335938 135 L 324.835938 135 L 324.835938 148 L 134.335938 148 Z M 134.335938 135 "/></clipPath><clipPath id="e10653c209"><path d="M 287.773438 103.085938 L 313.273438 103.085938 L 313.273438 128.585938 L 287.773438 128.585938 Z M 287.773438 103.085938 "/></clipPath><clipPath id="c85e53485c"><path d="M 145.25 104.152344 L 170 104.152344 L 170 128.902344 L 145.25 128.902344 Z M 145.25 104.152344 "/></clipPath><clipPath id="3f2a719db9"><path d="M 240.898438 104.722656 L 265.597656 104.722656 L 265.597656 129.066406 L 240.898438 129.066406 Z M 240.898438 104.722656 "/></clipPath><clipPath id="dc4c5eddf2"><path d="M 191.414062 104.722656 L 216.113281 104.722656 L 216.113281 129.066406 L 191.414062 129.066406 Z M 191.414062 104.722656 "/></clipPath></defs><g id="7361eb8c77"><rect x="0" width="450" y="0" height="149.999998" style="fill:#ffffff;fill-opacity:1;stroke:none;"/><rect x="0" width="450" y="0" height="149.999998" style="fill:#ffffff;fill-opacity:1;stroke:none;"/><g clip-rule="nonzero" clip-path="url(#73f54abf14)"><path style=" stroke:none;fill-rule:nonzero;fill:#000000;fill-opacity:1;" d="M 169.867188 4.359375 L 169.867188 44.730469 M 228.648438 4.359375 L 228.648438 44.730469 M 286.617188 4.359375 L 286.617188 44.730469 M 169.664062 4.160156 L 286.816406 4.160156 M 169.664062 44.929688 L 286.816406 44.929688 "/></g><g clip-rule="nonzero" clip-path="url(#8535526656)"><path style="fill:none;stroke-width:0.539313;stroke-linecap:butt;stroke-linejoin:miter;stroke:#000000;stroke-opacity:1;stroke-miterlimit:4;" d="M 0.269825 0.537654 L 0.269825 54.365782 M 78.64483 0.537654 L 78.64483 54.365782 M 155.936501 0.537654 L 155.936501 54.365782 M -0.0010082 0.272029 L 156.202126 0.272029 M -0.0010082 54.631407 L 156.202126 54.631407 " transform="matrix(0.75,0,0,0.75,169.664819,3.956135)"/></g><g clip-rule="nonzero" clip-path="url(#b1f52ed915)"><path style=" stroke:none;fill-rule:nonzero;fill:#000000;fill-opacity:1;" d="M 169.867188 52.570312 L 169.867188 92.941406 M 228.648438 52.570312 L 228.648438 92.941406 M 286.617188 52.570312 L 286.617188 92.941406 M 169.664062 52.371094 L 286.816406 52.371094 M 169.664062 93.140625 L 286.816406 93.140625 "/></g><g clip-rule="nonzero" clip-path="url(#f1e681537d)"><path style="fill:none;stroke-width:0.539313;stroke-linecap:butt;stroke-linejoin:miter;stroke:#000000;stroke-opacity:1;stroke-miterlimit:4;" d="M 0.269825 0.537268 L 0.269825 54.365396 M 78.64483 0.537268 L 78.64483 54.365396 M 155.936501 0.537268 L 155.936501 54.365396 M -0.0010082 0.271643 L 156.202126 0.271643 M -0.0010082 54.631021 L 156.202126 54.631021 " transform="matrix(0.75,0,0,0.75,169.664819,52.167361)"/></g><g clip-rule="nonzero" clip-path="url(#f0eaf92842)"><path style=" stroke:none;fill-rule:nonzero;fill:#000000;fill-opacity:1;" d="M 265.324219 64.878906 C 264.710938 63.976562 263.867188 63.285156 262.789062 62.808594 C 261.714844 62.335938 260.476562 62.09375 259.074219 62.09375 C 257.792969 62.09375 256.628906 62.328125 255.574219 62.800781 C 254.519531 63.265625 253.671875 63.980469 253.027344 64.925781 C 252.519531 65.679688 252.203125 66.589844 252.070312 67.660156 C 252.015625 68.128906 252.375 68.539062 252.828125 68.539062 L 255.652344 68.539062 C 256.015625 68.539062 256.324219 68.277344 256.402344 67.910156 C 256.472656 67.585938 256.585938 67.292969 256.75 67.042969 C 257.011719 66.640625 257.34375 66.332031 257.753906 66.125 C 258.160156 65.917969 258.59375 65.8125 259.054688 65.8125 C 259.527344 65.8125 259.953125 65.914062 260.351562 66.121094 C 260.738281 66.324219 261.050781 66.617188 261.285156 66.996094 C 261.515625 67.375 261.632812 67.8125 261.632812 68.316406 C 261.632812 68.789062 261.53125 69.21875 261.324219 69.597656 C 261.121094 69.976562 260.847656 70.324219 260.503906 70.636719 C 260.15625 70.953125 259.769531 71.253906 259.332031 71.546875 C 258.746094 71.925781 258.246094 72.347656 257.832031 72.8125 C 257.414062 73.277344 257.101562 73.886719 256.882812 74.644531 C 256.671875 75.40625 256.558594 76.417969 256.554688 77.6875 L 256.554688 78.324219 C 256.554688 78.753906 256.894531 79.109375 257.316406 79.109375 L 259.800781 79.109375 C 260.21875 79.109375 260.5625 78.757812 260.5625 78.324219 L 260.5625 77.6875 C 260.574219 76.972656 260.660156 76.375 260.832031 75.890625 C 261.003906 75.40625 261.269531 74.972656 261.621094 74.601562 C 261.980469 74.234375 262.433594 73.878906 262.992188 73.53125 C 263.65625 73.125 264.226562 72.667969 264.714844 72.160156 C 265.199219 71.65625 265.578125 71.070312 265.855469 70.414062 C 266.125 69.753906 266.261719 68.996094 266.261719 68.148438 C 266.25 66.871094 265.9375 65.78125 265.324219 64.878906 Z M 265.324219 64.878906 "/></g><g clip-rule="nonzero" clip-path="url(#78e3088162)"><path style=" stroke:none;fill-rule:nonzero;fill:#000000;fill-opacity:1;" d="M 258.636719 80.875 C 257.929688 80.875 257.332031 81.132812 256.832031 81.640625 C 256.335938 82.148438 256.089844 82.761719 256.097656 83.472656 C 256.089844 84.191406 256.335938 84.8125 256.832031 85.324219 C 257.332031 85.839844 257.929688 86.09375 258.636719 86.09375 C 259.085938 86.09375 259.503906 85.972656 259.878906 85.738281 C 260.261719 85.5 260.566406 85.1875 260.804688 84.789062 C 261.042969 84.390625 261.164062 83.953125 261.167969 83.472656 C 261.15625 82.757812 260.902344 82.148438 260.394531 81.640625 C 259.894531 81.132812 259.304688 80.875 258.636719 80.875 Z M 258.636719 80.875 "/></g><g clip-rule="nonzero" clip-path="url(#4494e8783b)"><path style=" stroke:none;fill-rule:nonzero;fill:#004aad;fill-opacity:1;" d="M 199.351562 89.511719 C 190.136719 89.511719 182.59375 81.96875 182.59375 72.753906 C 182.59375 63.535156 190.136719 55.996094 199.351562 55.996094 C 208.570312 55.996094 216.109375 63.535156 216.109375 72.753906 C 216.109375 81.96875 208.570312 89.511719 199.351562 89.511719 Z M 199.351562 89.511719 "/></g><g clip-rule="nonzero" clip-path="url(#94be992279)"><path style=" stroke:none;fill-rule:nonzero;fill:#ff3131;fill-opacity:1;" d="M 257.65625 41.300781 C 248.441406 41.300781 240.898438 33.757812 240.898438 24.542969 C 240.898438 15.324219 248.441406 7.785156 257.65625 7.785156 C 266.875 7.785156 274.414062 15.324219 274.414062 24.542969 C 274.414062 33.757812 266.875 41.300781 257.65625 41.300781 Z M 257.65625 41.300781 "/></g><g clip-rule="nonzero" clip-path="url(#93a6326899)"><path style=" stroke:none;fill-rule:nonzero;fill:#004aad;fill-opacity:1;" d="M 199.351562 41.300781 C 190.136719 41.300781 182.59375 33.757812 182.59375 24.542969 C 182.59375 15.324219 190.136719 7.785156 199.351562 7.785156 C 208.570312 7.785156 216.109375 15.324219 216.109375 24.542969 C 216.109375 33.757812 208.570312 41.300781 199.351562 41.300781 Z M 199.351562 41.300781 "/></g><g clip-rule="nonzero" clip-path="url(#c4de5ef287)"><path style=" stroke:none;fill-rule:nonzero;fill:#000000;fill-opacity:1;" d="M 134.660156 100 L 134.660156 131.585938 M 181.796875 100 L 181.796875 131.585938 M 228.304688 100 L 228.304688 131.585938 M 276.070312 100 L 276.070312 131.585938 M 323.839844 100 L 323.839844 131.585938 M 134.335938 99.671875 L 324.164062 99.671875 M 134.335938 131.914062 L 324.164062 131.914062 "/></g><g clip-rule="nonzero" clip-path="url(#c64c505c29)"><path style="fill:none;stroke-width:0.871773;stroke-linecap:butt;stroke-linejoin:miter;stroke:#000000;stroke-opacity:1;stroke-miterlimit:4;" d="M 0.434282 0.874199 L 0.434282 42.988785 M 63.283244 0.874199 L 63.283244 42.988785 M 125.293664 0.874199 L 125.293664 42.988785 M 188.981168 0.874199 L 188.981168 42.988785 M 252.67388 0.874199 L 252.67388 42.988785 M 0.00199038 0.436699 L 253.106172 0.436699 M 0.00199038 43.426285 L 253.106172 43.426285 " transform="matrix(0.75,0,0,0.75,134.334445,99.344351)"/></g><g clip-rule="nonzero" clip-path="url(#cc258ec5fe)"><path style="fill-rule:nonzero;fill:#000000;fill-opacity:1;stroke-width:0.871773;stroke-linecap:butt;stroke-linejoin:miter;stroke:#000000;stroke-opacity:1;stroke-miterlimit:4;" d="M 0.434282 0.873446 L 0.434282 16.347406 M 63.585327 0.873446 L 63.585327 16.347406 M 124.694706 0.873446 L 124.694706 16.347406 M 188.949918 0.873446 L 188.949918 16.347406 M 252.67388 0.873446 L 252.67388 16.347406 M 0.00199038 0.435946 L 253.106172 0.435946 M 0.00199038 16.779697 L 253.106172 16.779697 " transform="matrix(0.75,0,0,0.75,134.334445,135.001165)"/></g><g style="fill:#000000;fill-opacity:1;"><g transform="translate(202.923566, 143.417864)"><path style="stroke:none" d="M 0.28125 0 L 0.28125 -0.765625 L 1.421875 -1.84375 C 1.765625 -2.175781 2.035156 -2.476562 2.234375 -2.75 C 2.429688 -3.03125 2.566406 -3.316406 2.640625 -3.609375 C 2.722656 -3.898438 2.765625 -4.234375 2.765625 -4.609375 C 2.765625 -5.046875 2.710938 -5.363281 2.609375 -5.5625 C 2.503906 -5.757812 2.328125 -5.859375 2.078125 -5.859375 C 1.890625 -5.859375 1.742188 -5.800781 1.640625 -5.6875 C 1.546875 -5.570312 1.476562 -5.378906 1.4375 -5.109375 C 1.394531 -4.847656 1.375 -4.484375 1.375 -4.015625 C 1.0625 -4.015625 0.804688 -4.078125 0.609375 -4.203125 C 0.410156 -4.328125 0.3125 -4.523438 0.3125 -4.796875 C 0.3125 -5.117188 0.460938 -5.390625 0.765625 -5.609375 C 1.078125 -5.828125 1.53125 -5.9375 2.125 -5.9375 C 2.738281 -5.9375 3.203125 -5.816406 3.515625 -5.578125 C 3.835938 -5.335938 4 -5 4 -4.5625 C 4 -4.375 3.960938 -4.191406 3.890625 -4.015625 C 3.828125 -3.835938 3.707031 -3.644531 3.53125 -3.4375 C 3.351562 -3.226562 3.113281 -2.988281 2.8125 -2.71875 C 2.519531 -2.457031 2.144531 -2.148438 1.6875 -1.796875 L 0.546875 -0.90625 L 3.3125 -0.90625 C 3.570312 -0.90625 3.757812 -0.941406 3.875 -1.015625 C 4 -1.097656 4.070312 -1.25 4.09375 -1.46875 L 4.125 -1.71875 L 4.203125 -1.71875 L 4.15625 0 Z M 0.28125 0 "/></g></g><g style="fill:#000000;fill-opacity:1;"><g transform="translate(251.140595, 143.417864)"><path style="stroke:none" d="M 1.984375 0.078125 C 1.378906 0.078125 0.9375 -0.0195312 0.65625 -0.21875 C 0.375 -0.414062 0.234375 -0.644531 0.234375 -0.90625 C 0.234375 -1.113281 0.300781 -1.269531 0.4375 -1.375 C 0.570312 -1.488281 0.734375 -1.546875 0.921875 -1.546875 C 0.921875 -1.140625 0.960938 -0.828125 1.046875 -0.609375 C 1.140625 -0.390625 1.257812 -0.234375 1.40625 -0.140625 C 1.5625 -0.046875 1.738281 0 1.9375 0 C 2.289062 0 2.546875 -0.132812 2.703125 -0.40625 C 2.859375 -0.675781 2.9375 -1.066406 2.9375 -1.578125 C 2.9375 -1.941406 2.894531 -2.222656 2.8125 -2.421875 C 2.726562 -2.628906 2.585938 -2.773438 2.390625 -2.859375 C 2.191406 -2.941406 1.9375 -2.984375 1.625 -2.984375 L 1.171875 -2.984375 L 1.171875 -3.0625 L 1.625 -3.0625 C 1.914062 -3.0625 2.140625 -3.109375 2.296875 -3.203125 C 2.460938 -3.296875 2.578125 -3.445312 2.640625 -3.65625 C 2.710938 -3.863281 2.75 -4.140625 2.75 -4.484375 C 2.75 -4.984375 2.6875 -5.335938 2.5625 -5.546875 C 2.445312 -5.753906 2.28125 -5.859375 2.0625 -5.859375 C 1.769531 -5.859375 1.578125 -5.707031 1.484375 -5.40625 C 1.398438 -5.113281 1.359375 -4.703125 1.359375 -4.171875 C 1.023438 -4.171875 0.765625 -4.226562 0.578125 -4.34375 C 0.390625 -4.457031 0.296875 -4.640625 0.296875 -4.890625 C 0.296875 -5.179688 0.445312 -5.425781 0.75 -5.625 C 1.0625 -5.832031 1.515625 -5.9375 2.109375 -5.9375 C 2.691406 -5.9375 3.148438 -5.816406 3.484375 -5.578125 C 3.828125 -5.347656 4 -5.007812 4 -4.5625 C 4 -4.332031 3.941406 -4.109375 3.828125 -3.890625 C 3.710938 -3.671875 3.519531 -3.484375 3.25 -3.328125 C 2.988281 -3.179688 2.628906 -3.085938 2.171875 -3.046875 C 2.828125 -3.046875 3.328125 -2.921875 3.671875 -2.671875 C 4.023438 -2.429688 4.203125 -2.0625 4.203125 -1.5625 C 4.203125 -1.164062 4.097656 -0.847656 3.890625 -0.609375 C 3.679688 -0.367188 3.40625 -0.191406 3.0625 -0.078125 C 2.726562 0.0234375 2.367188 0.078125 1.984375 0.078125 Z M 1.984375 0.078125 "/></g></g><g style="fill:#000000;fill-opacity:1;"><g transform="translate(155.022885, 143.417864)"><path style="stroke:none" d="M 0.796875 0 L 0.796875 -0.078125 L 1.46875 -0.078125 C 1.601562 -0.078125 1.703125 -0.113281 1.765625 -0.1875 C 1.835938 -0.269531 1.875 -0.410156 1.875 -0.609375 L 1.875 -5.21875 C 1.625 -4.863281 1.425781 -4.609375 1.28125 -4.453125 C 1.132812 -4.296875 0.988281 -4.21875 0.84375 -4.21875 C 0.695312 -4.21875 0.578125 -4.257812 0.484375 -4.34375 C 0.390625 -4.4375 0.34375 -4.578125 0.34375 -4.765625 C 0.613281 -4.773438 0.835938 -4.800781 1.015625 -4.84375 C 1.203125 -4.882812 1.375 -4.960938 1.53125 -5.078125 C 1.695312 -5.191406 1.894531 -5.363281 2.125 -5.59375 L 2.421875 -5.890625 L 3.09375 -5.890625 L 3.09375 -0.609375 C 3.09375 -0.441406 3.117188 -0.3125 3.171875 -0.21875 C 3.234375 -0.125 3.347656 -0.078125 3.515625 -0.078125 L 4.1875 -0.078125 L 4.1875 0 Z M 0.796875 0 "/></g></g><g style="fill:#000000;fill-opacity:1;"><g transform="translate(298.223982, 143.417864)"><path style="stroke:none" d="M 1.46875 0 L 1.46875 -0.078125 L 1.703125 -0.078125 C 1.890625 -0.078125 2.046875 -0.109375 2.171875 -0.171875 C 2.304688 -0.242188 2.375 -0.410156 2.375 -0.671875 L 2.375 -1.53125 L 0.109375 -1.53125 L 0.109375 -2.03125 L 2.4375 -5.859375 L 3.578125 -5.859375 L 3.578125 -2.0625 L 4.421875 -2.0625 L 4.421875 -1.53125 L 3.578125 -1.53125 L 3.578125 -0.671875 C 3.578125 -0.410156 3.640625 -0.242188 3.765625 -0.171875 C 3.898438 -0.109375 4.0625 -0.078125 4.25 -0.078125 L 4.359375 -0.078125 L 4.359375 0 Z M 0.234375 -2.0625 L 2.375 -2.0625 L 2.375 -3.875 C 2.375 -4.175781 2.375 -4.488281 2.375 -4.8125 C 2.375 -5.132812 2.378906 -5.414062 2.390625 -5.65625 C 2.359375 -5.601562 2.304688 -5.519531 2.234375 -5.40625 C 2.171875 -5.289062 2.097656 -5.164062 2.015625 -5.03125 C 1.941406 -4.894531 1.867188 -4.769531 1.796875 -4.65625 C 1.722656 -4.539062 1.664062 -4.445312 1.625 -4.375 Z M 0.234375 -2.0625 "/></g></g><g clip-rule="nonzero" clip-path="url(#e10653c209)"><path style=" stroke:none;fill-rule:nonzero;fill:#004aad;fill-opacity:1;" d="M 300.511719 128.5625 C 293.507812 128.5625 287.773438 122.828125 287.773438 115.824219 C 287.773438 108.816406 293.507812 103.085938 300.511719 103.085938 C 307.519531 103.085938 313.25 108.816406 313.25 115.824219 C 313.25 122.828125 307.519531 128.5625 300.511719 128.5625 Z M 300.511719 128.5625 "/></g><g clip-rule="nonzero" clip-path="url(#c85e53485c)"><path style=" stroke:none;fill-rule:nonzero;fill:#ff3131;fill-opacity:1;" d="M 157.453125 128.5625 C 150.742188 128.5625 145.25 123.070312 145.25 116.359375 C 145.25 109.644531 150.742188 104.152344 157.453125 104.152344 C 164.167969 104.152344 169.660156 109.644531 169.660156 116.359375 C 169.660156 123.070312 164.167969 128.5625 157.453125 128.5625 Z M 157.453125 128.5625 "/></g><g clip-rule="nonzero" clip-path="url(#3f2a719db9)"><path style=" stroke:none;fill-rule:nonzero;fill:#ff3131;fill-opacity:1;" d="M 240.898438 104.722656 L 265.625 104.722656 L 265.625 129.066406 L 240.898438 129.066406 Z M 240.898438 104.722656 "/></g><g clip-rule="nonzero" clip-path="url(#dc4c5eddf2)"><path style=" stroke:none;fill-rule:nonzero;fill:#004aad;fill-opacity:1;" d="M 191.414062 104.722656 L 216.140625 104.722656 L 216.140625 129.066406 L 191.414062 129.066406 Z M 191.414062 104.722656 "/></g></g></svg>