<svg xmlns="http://www.w3.org/2000/svg" xmlns:xlink="http://www.w3.org/1999/xlink" width="600" zoomAndPan="magnify" viewBox="0 0 450 149.999998" height="200" preserveAspectRatio="xMidYMid meet" version="1.2"><defs><clipPath id="77805a14f8"><path d="M 168.933594 9 L 285 9 L 285 51.578125 L 168.933594 51.578125 Z M 168.933594 9 "/></clipPath><clipPath id="7d58191c91"><path d="M 168.933594 8.828125 L 285 8.828125 L 285 51.578125 L 168.933594 51.578125 Z M 168.933594 8.828125 "/></clipPath><clipPath id="8d0e8df2ba"><path d="M 180.59375 15 L 214.015625 15 L 214.015625 46.714844 L 180.59375 46.714844 Z M 180.59375 15 "/></clipPath><clipPath id="d6226edc9a"><path d="M 168.933594 57.097656 L 285 57.097656 L 285 98 L 168.933594 98 Z M 168.933594 57.097656 "/></clipPath><clipPath id="3fdef2d4cd"><path d="M 168.933594 57.097656 L 285 57.097656 L 285 98.347656 L 168.933594 98.347656 Z M 168.933594 57.097656 "/></clipPath><clipPath id="55940f2137"><path d="M 251.089844 71.882812 L 257.839844 71.882812 L 257.839844 80 L 251.089844 80 Z M 251.089844 71.882812 "/></clipPath><clipPath id="ef92d1c797"><path d="M 253 80 L 256 80 L 256 83.132812 L 253 83.132812 Z M 253 80 "/></clipPath><clipPath id="d05dd45979"><path d="M 240.355469 15 L 272.730469 15 L 272.730469 46.714844 L 240.355469 46.714844 Z M 240.355469 15 "/></clipPath><clipPath id="bcc877b301"><path d="M 180.59375 62.722656 L 214.015625 62.722656 L 214.015625 92.796875 L 180.59375 92.796875 Z M 180.59375 62.722656 "/></clipPath><clipPath id="7cfdf418c8"><path d="M 139.175781 104.679688 L 313.925781 104.679688 L 313.925781 135 L 139.175781 135 Z M 139.175781 104.679688 "/></clipPath><clipPath id="be9395826c"><path d="M 139.175781 137.398438 L 313.925781 137.398438 L 313.925781 149 L 139.175781 149 Z M 139.175781 137.398438 "/></clipPath><clipPath id="f931fd8685"><path d="M 139.175781 137.398438 L 313.925781 137.398438 L 313.925781 149.398438 L 139.175781 149.398438 Z M 139.175781 137.398438 "/></clipPath><clipPath id="35fca86799"><path d="M 191.78125 108.242188 L 215.03125 108.242188 L 215.03125 131.492188 L 191.78125 131.492188 Z M 191.78125 108.242188 "/></clipPath><clipPath id="6dce6224a9"><path d="M 146.53125 108.179688 L 169 108.179688 L 169 130.679688 L 146.53125 130.679688 Z M 146.53125 108.179688 "/></clipPath><clipPath id="6c2cb669dd"><path d="M 235.476562 108.601562 L 258.144531 108.601562 L 258.144531 130.941406 L 235.476562 130.941406 Z M 235.476562 108.601562 "/></clipPath><clipPath id="5b7c94aa08"><path d="M 278.980469 108.242188 L 301.648438 108.242188 L 301.648438 130.585938 L 278.980469 130.585938 Z M 278.980469 108.242188 "/></clipPath></defs><g id="0125f72ffc"><rect x="0" width="450" y="0" height="149.999998" style="fill:#ffffff;fill-opacity:1;stroke:none;"/><rect x="0" width="450" y="0" height="149.999998" style="fill:#ffffff;fill-opacity:1;stroke:none;"/><g clip-rule="nonzero" clip-path="url(#77805a14f8)"><path style=" stroke:none;fill-rule:nonzero;fill:#000000;fill-opacity:1;" d="M 169.171875 9.300781 L 169.171875 50.921875 M 230.171875 9.300781 L 230.171875 50.921875 M 284.269531 9.300781 L 284.269531 50.921875 M 168.933594 9.066406 L 284.507812 9.066406 M 168.933594 51.160156 L 284.507812 51.160156 "/></g><g clip-rule="nonzero" clip-path="url(#7d58191c91)"><path style="fill:none;stroke-width:0.631105;stroke-linecap:butt;stroke-linejoin:miter;stroke:#000000;stroke-opacity:1;stroke-miterlimit:4;" d="M 0.315535 0.629885 L 0.315535 56.12468 M 81.648873 0.629885 L 81.648873 56.12468 M 153.779086 0.629885 L 153.779086 56.12468 M -0.00217299 0.317385 L 154.096794 0.317385 M -0.00217299 56.442388 L 154.096794 56.442388 " transform="matrix(0.75,0,0,0.75,168.935223,8.828368)"/></g><g clip-rule="nonzero" clip-path="url(#8d0e8df2ba)"><path style=" stroke:none;fill-rule:nonzero;fill:#004aad;fill-opacity:1;" d="M 180.59375 15 L 214.039062 15 L 214.039062 46.714844 L 180.59375 46.714844 Z M 180.59375 15 "/></g><g clip-rule="nonzero" clip-path="url(#d6226edc9a)"><path style=" stroke:none;fill-rule:nonzero;fill:#000000;fill-opacity:1;" d="M 169.171875 57.570312 L 169.171875 97.707031 M 230.523438 57.570312 L 230.523438 97.707031 M 284.269531 57.570312 L 284.269531 97.707031 M 168.933594 57.332031 L 284.507812 57.332031 M 168.933594 97.941406 L 284.507812 97.941406 "/></g><g clip-rule="nonzero" clip-path="url(#3fdef2d4cd)"><path style="fill:none;stroke-width:0.631105;stroke-linecap:butt;stroke-linejoin:miter;stroke:#000000;stroke-opacity:1;stroke-miterlimit:4;" d="M 0.315535 0.631132 L 0.315535 54.14676 M 82.117623 0.631132 L 82.117623 54.14676 M 153.779086 0.631132 L 153.779086 54.14676 M -0.00217299 0.313424 L 154.096794 0.313424 M -0.00217299 54.45926 L 154.096794 54.45926 " transform="matrix(0.75,0,0,0.75,168.935223,57.096963)"/></g><g clip-rule="nonzero" clip-path="url(#55940f2137)"><path style=" stroke:none;fill-rule:nonzero;fill:#000000;fill-opacity:1;" d="M 257.394531 73.191406 C 257.105469 72.765625 256.703125 72.441406 256.191406 72.21875 C 255.683594 71.996094 255.097656 71.886719 254.433594 71.886719 C 253.828125 71.886719 253.273438 71.996094 252.773438 72.214844 C 252.273438 72.433594 251.871094 72.769531 251.570312 73.210938 C 251.328125 73.566406 251.175781 73.992188 251.117188 74.496094 C 251.089844 74.710938 251.257812 74.90625 251.472656 74.90625 L 252.8125 74.90625 C 252.984375 74.90625 253.128906 74.78125 253.167969 74.613281 C 253.199219 74.457031 253.253906 74.320312 253.332031 74.203125 C 253.453125 74.015625 253.613281 73.871094 253.808594 73.773438 C 254 73.679688 254.207031 73.628906 254.421875 73.628906 C 254.648438 73.628906 254.851562 73.675781 255.039062 73.773438 C 255.222656 73.867188 255.371094 74.003906 255.480469 74.183594 C 255.589844 74.359375 255.644531 74.5625 255.644531 74.800781 C 255.644531 75.023438 255.597656 75.222656 255.5 75.402344 C 255.402344 75.578125 255.273438 75.742188 255.109375 75.890625 C 254.945312 76.039062 254.761719 76.175781 254.554688 76.316406 C 254.277344 76.492188 254.039062 76.691406 253.84375 76.910156 C 253.644531 77.125 253.5 77.414062 253.394531 77.769531 C 253.292969 78.125 253.242188 78.597656 253.238281 79.195312 L 253.238281 79.492188 C 253.238281 79.695312 253.398438 79.859375 253.601562 79.859375 L 254.777344 79.859375 C 254.976562 79.859375 255.136719 79.695312 255.136719 79.492188 L 255.136719 79.195312 C 255.144531 78.859375 255.183594 78.578125 255.265625 78.351562 C 255.347656 78.125 255.472656 77.921875 255.640625 77.746094 C 255.808594 77.574219 256.027344 77.40625 256.289062 77.246094 C 256.605469 77.054688 256.875 76.839844 257.105469 76.601562 C 257.335938 76.367188 257.515625 76.09375 257.644531 75.785156 C 257.773438 75.476562 257.839844 75.121094 257.839844 74.722656 C 257.832031 74.125 257.683594 73.613281 257.394531 73.191406 Z M 257.394531 73.191406 "/></g><g clip-rule="nonzero" clip-path="url(#ef92d1c797)"><path style=" stroke:none;fill-rule:nonzero;fill:#000000;fill-opacity:1;" d="M 254.226562 80.6875 C 253.890625 80.6875 253.605469 80.808594 253.371094 81.046875 C 253.136719 81.285156 253.019531 81.570312 253.023438 81.90625 C 253.019531 82.242188 253.136719 82.53125 253.371094 82.773438 C 253.605469 83.015625 253.890625 83.132812 254.226562 83.132812 C 254.4375 83.132812 254.636719 83.078125 254.816406 82.96875 C 254.996094 82.855469 255.140625 82.707031 255.253906 82.523438 C 255.367188 82.335938 255.421875 82.128906 255.425781 81.90625 C 255.421875 81.570312 255.300781 81.285156 255.058594 81.046875 C 254.820312 80.808594 254.542969 80.6875 254.226562 80.6875 Z M 254.226562 80.6875 "/></g><g clip-rule="nonzero" clip-path="url(#d05dd45979)"><path style=" stroke:none;fill-rule:nonzero;fill:#004aad;fill-opacity:1;" d="M 240.355469 15 L 272.6875 15 L 272.6875 46.714844 L 240.355469 46.714844 Z M 240.355469 15 "/></g><g clip-rule="nonzero" clip-path="url(#bcc877b301)"><path style=" stroke:none;fill-rule:nonzero;fill:#004aad;fill-opacity:1;" d="M 180.59375 62.722656 L 214.074219 62.722656 L 214.074219 92.796875 L 180.59375 92.796875 Z M 180.59375 62.722656 "/></g><g clip-rule="nonzero" clip-path="url(#7cfdf418c8)"><path style="fill-rule:nonzero;fill:#000000;fill-opacity:1;stroke-width:0.8;stroke-linecap:butt;stroke-linejoin:miter;stroke:#000000;stroke-opacity:1;stroke-miterlimit:4;" d="M 0.398833 0.798098 L 0.398833 39.449142 M 58.075919 0.798098 L 58.075919 39.449142 M 114.976964 0.798098 L 114.976964 39.449142 M 173.424884 0.798098 L 173.424884 39.449142 M 231.867596 0.798098 L 231.867596 39.449142 M -0.00220904 0.402265 L 232.268638 0.402265 M -0.00220904 39.850184 L 232.268638 39.850184 " transform="matrix(0.75,0,0,0.75,139.177438,104.67877)"/></g><g clip-rule="nonzero" clip-path="url(#be9395826c)"><path style=" stroke:none;fill-rule:nonzero;fill:#000000;fill-opacity:1;" d="M 139.476562 138 L 139.476562 148.5 M 182.941406 138 L 182.941406 148.5 M 225 138 L 225 148.5 M 269.222656 138 L 269.222656 148.5 M 313.078125 138 L 313.078125 148.5 M 139.175781 137.699219 L 313.378906 137.699219 M 139.175781 148.800781 L 313.378906 148.800781 "/></g><g clip-rule="nonzero" clip-path="url(#f931fd8685)"><path style="fill:none;stroke-width:0.8;stroke-linecap:butt;stroke-linejoin:miter;stroke:#000000;stroke-opacity:1;stroke-miterlimit:4;" d="M 0.398833 0.800008 L 0.398833 14.800009 M 58.351961 0.800008 L 58.351961 14.800009 M 114.430089 0.800008 L 114.430089 14.800009 M 173.393634 0.800008 L 173.393634 14.800009 M 231.867596 0.800008 L 231.867596 14.800009 M -0.00220904 0.398966 L 232.268638 0.398966 M -0.00220904 15.201051 L 232.268638 15.201051 " transform="matrix(0.75,0,0,0.75,139.177438,137.399994)"/></g><g style="fill:#000000;fill-opacity:1;"><g transform="translate(201.36963, 145.799993)"><path style="stroke:none" d="M 0.265625 0 L 0.265625 -0.703125 L 1.3125 -1.6875 C 1.625 -1.988281 1.867188 -2.265625 2.046875 -2.515625 C 2.222656 -2.773438 2.347656 -3.039062 2.421875 -3.3125 C 2.492188 -3.582031 2.53125 -3.890625 2.53125 -4.234375 C 2.53125 -4.628906 2.484375 -4.914062 2.390625 -5.09375 C 2.296875 -5.28125 2.132812 -5.375 1.90625 -5.375 C 1.738281 -5.375 1.609375 -5.320312 1.515625 -5.21875 C 1.421875 -5.113281 1.351562 -4.9375 1.3125 -4.6875 C 1.269531 -4.445312 1.25 -4.113281 1.25 -3.6875 C 0.96875 -3.6875 0.738281 -3.742188 0.5625 -3.859375 C 0.382812 -3.972656 0.296875 -4.15625 0.296875 -4.40625 C 0.296875 -4.695312 0.429688 -4.941406 0.703125 -5.140625 C 0.984375 -5.347656 1.398438 -5.453125 1.953125 -5.453125 C 2.515625 -5.453125 2.941406 -5.34375 3.234375 -5.125 C 3.523438 -4.90625 3.671875 -4.59375 3.671875 -4.1875 C 3.671875 -4.019531 3.640625 -3.851562 3.578125 -3.6875 C 3.515625 -3.519531 3.398438 -3.34375 3.234375 -3.15625 C 3.078125 -2.96875 2.863281 -2.75 2.59375 -2.5 C 2.320312 -2.257812 1.972656 -1.976562 1.546875 -1.65625 L 0.5 -0.828125 L 3.03125 -0.828125 C 3.269531 -0.828125 3.445312 -0.863281 3.5625 -0.9375 C 3.675781 -1.007812 3.742188 -1.144531 3.765625 -1.34375 L 3.78125 -1.578125 L 3.859375 -1.578125 L 3.8125 0 Z M 0.265625 0 "/></g></g><g style="fill:#000000;fill-opacity:1;"><g transform="translate(244.70722, 145.799993)"><path style="stroke:none" d="M 1.8125 0.078125 C 1.257812 0.078125 0.851562 -0.0078125 0.59375 -0.1875 C 0.332031 -0.375 0.203125 -0.59375 0.203125 -0.84375 C 0.203125 -1.019531 0.265625 -1.160156 0.390625 -1.265625 C 0.523438 -1.367188 0.675781 -1.421875 0.84375 -1.421875 C 0.84375 -1.046875 0.878906 -0.753906 0.953125 -0.546875 C 1.035156 -0.347656 1.144531 -0.207031 1.28125 -0.125 C 1.425781 -0.0390625 1.59375 0 1.78125 0 C 2.101562 0 2.335938 -0.125 2.484375 -0.375 C 2.628906 -0.625 2.703125 -0.984375 2.703125 -1.453125 C 2.703125 -1.785156 2.660156 -2.046875 2.578125 -2.234375 C 2.503906 -2.421875 2.375 -2.550781 2.1875 -2.625 C 2.007812 -2.695312 1.78125 -2.734375 1.5 -2.734375 L 1.0625 -2.734375 L 1.0625 -2.8125 L 1.5 -2.8125 C 1.757812 -2.8125 1.960938 -2.851562 2.109375 -2.9375 C 2.265625 -3.019531 2.367188 -3.15625 2.421875 -3.34375 C 2.484375 -3.539062 2.515625 -3.800781 2.515625 -4.125 C 2.515625 -4.582031 2.460938 -4.90625 2.359375 -5.09375 C 2.253906 -5.28125 2.097656 -5.375 1.890625 -5.375 C 1.617188 -5.375 1.441406 -5.238281 1.359375 -4.96875 C 1.285156 -4.695312 1.25 -4.316406 1.25 -3.828125 C 0.9375 -3.828125 0.691406 -3.878906 0.515625 -3.984375 C 0.347656 -4.097656 0.265625 -4.269531 0.265625 -4.5 C 0.265625 -4.757812 0.40625 -4.984375 0.6875 -5.171875 C 0.96875 -5.359375 1.382812 -5.453125 1.9375 -5.453125 C 2.46875 -5.453125 2.890625 -5.34375 3.203125 -5.125 C 3.515625 -4.914062 3.671875 -4.601562 3.671875 -4.1875 C 3.671875 -3.976562 3.617188 -3.773438 3.515625 -3.578125 C 3.410156 -3.378906 3.234375 -3.207031 2.984375 -3.0625 C 2.742188 -2.925781 2.414062 -2.835938 2 -2.796875 C 2.59375 -2.796875 3.050781 -2.679688 3.375 -2.453125 C 3.695312 -2.222656 3.859375 -1.882812 3.859375 -1.4375 C 3.859375 -1.070312 3.757812 -0.773438 3.5625 -0.546875 C 3.375 -0.328125 3.125 -0.164062 2.8125 -0.0625 C 2.5 0.03125 2.164062 0.078125 1.8125 0.078125 Z M 1.8125 0.078125 "/></g></g><g style="fill:#000000;fill-opacity:1;"><g transform="translate(154.878907, 145.799993)"><path style="stroke:none" d="M 0.734375 0 L 0.734375 -0.078125 L 1.34375 -0.078125 C 1.46875 -0.078125 1.5625 -0.109375 1.625 -0.171875 C 1.6875 -0.242188 1.71875 -0.375 1.71875 -0.5625 L 1.71875 -4.796875 C 1.488281 -4.472656 1.304688 -4.238281 1.171875 -4.09375 C 1.046875 -3.945312 0.910156 -3.875 0.765625 -3.875 C 0.640625 -3.875 0.53125 -3.914062 0.4375 -4 C 0.351562 -4.082031 0.3125 -4.207031 0.3125 -4.375 C 0.5625 -4.382812 0.769531 -4.40625 0.9375 -4.4375 C 1.101562 -4.476562 1.257812 -4.550781 1.40625 -4.65625 C 1.5625 -4.757812 1.742188 -4.921875 1.953125 -5.140625 L 2.234375 -5.40625 L 2.84375 -5.40625 L 2.84375 -0.5625 C 2.84375 -0.40625 2.867188 -0.285156 2.921875 -0.203125 C 2.972656 -0.117188 3.078125 -0.078125 3.234375 -0.078125 L 3.84375 -0.078125 L 3.84375 0 Z M 0.734375 0 "/></g></g><g style="fill:#000000;fill-opacity:1;"><g transform="translate(288.517751, 145.799993)"><path style="stroke:none" d="M 1.359375 0 L 1.359375 -0.078125 L 1.5625 -0.078125 C 1.738281 -0.078125 1.882812 -0.109375 2 -0.171875 C 2.125 -0.234375 2.1875 -0.382812 2.1875 -0.625 L 2.1875 -1.40625 L 0.09375 -1.40625 L 0.09375 -1.859375 L 2.234375 -5.375 L 3.28125 -5.375 L 3.28125 -1.890625 L 4.0625 -1.890625 L 4.0625 -1.40625 L 3.28125 -1.40625 L 3.28125 -0.625 C 3.28125 -0.382812 3.335938 -0.234375 3.453125 -0.171875 C 3.578125 -0.109375 3.726562 -0.078125 3.90625 -0.078125 L 4 -0.078125 L 4 0 Z M 0.203125 -1.890625 L 2.1875 -1.890625 L 2.1875 -3.5625 C 2.1875 -3.832031 2.1875 -4.113281 2.1875 -4.40625 C 2.1875 -4.707031 2.191406 -4.972656 2.203125 -5.203125 C 2.171875 -5.148438 2.125 -5.070312 2.0625 -4.96875 C 2 -4.863281 1.929688 -4.75 1.859375 -4.625 C 1.785156 -4.5 1.710938 -4.378906 1.640625 -4.265625 C 1.578125 -4.160156 1.53125 -4.078125 1.5 -4.015625 Z M 0.203125 -1.890625 "/></g></g><g clip-rule="nonzero" clip-path="url(#35fca86799)"><path style=" stroke:none;fill-rule:nonzero;fill:#004aad;fill-opacity:1;" d="M 203.40625 131.492188 C 197.011719 131.492188 191.78125 126.261719 191.78125 119.867188 C 191.78125 113.472656 197.011719 108.242188 203.40625 108.242188 C 209.800781 108.242188 215.03125 113.472656 215.03125 119.867188 C 215.03125 126.261719 209.800781 131.492188 203.40625 131.492188 Z M 203.40625 131.492188 "/></g><g clip-rule="nonzero" clip-path="url(#6dce6224a9)"><path style=" stroke:none;fill-rule:nonzero;fill:#ff3131;fill-opacity:1;" d="M 157.726562 130.574219 C 151.570312 130.574219 146.53125 125.535156 146.53125 119.375 C 146.53125 113.21875 151.570312 108.179688 157.726562 108.179688 C 163.886719 108.179688 168.925781 113.21875 168.925781 119.375 C 168.925781 125.535156 163.886719 130.574219 157.726562 130.574219 Z M 157.726562 130.574219 "/></g><g clip-rule="nonzero" clip-path="url(#6c2cb669dd)"><path style=" stroke:none;fill-rule:nonzero;fill:#ff3131;fill-opacity:1;" d="M 235.476562 108.601562 L 258.167969 108.601562 L 258.167969 130.941406 L 235.476562 130.941406 Z M 235.476562 108.601562 "/></g><g clip-rule="nonzero" clip-path="url(#5b7c94aa08)"><path style=" stroke:none;fill-rule:nonzero;fill:#004aad;fill-opacity:1;" d="M 278.980469 108.242188 L 301.671875 108.242188 L 301.671875 130.585938 L 278.980469 130.585938 Z M 278.980469 108.242188 "/></g></g></svg>