<svg xmlns="http://www.w3.org/2000/svg" xmlns:xlink="http://www.w3.org/1999/xlink" width="600" zoomAndPan="magnify" viewBox="0 0 450 149.999998" height="200" preserveAspectRatio="xMidYMid meet" version="1.2"><defs><clipPath id="ed280ca3f4"><path d="M 347.214844 34.082031 L 382.464844 34.082031 L 382.464844 75 L 347.214844 75 Z M 347.214844 34.082031 "/></clipPath><clipPath id="280e0097c8"><path d="M 357 78 L 370 78 L 370 91.082031 L 357 91.082031 Z M 357 78 "/></clipPath></defs><g id="73ca4b9257"><rect x="0" width="450" y="0" height="149.999998" style="fill:#ffffff;fill-opacity:1;stroke:none;"/><rect x="0" width="450" y="0" height="149.999998" style="fill:#ffffff;fill-opacity:1;stroke:none;"/><path style="fill-rule:nonzero;fill:#000000;fill-opacity:1;stroke-width:1;stroke-linecap:butt;stroke-linejoin:miter;stroke:#0c7b3b;stroke-opacity:1;stroke-miterlimit:4;" d="M 0.499995 0.999997 L 0.499995 199.000009 M 599.50003 0.999997 L 599.50003 199.000009 M -0.000005 0.499997 L 600.00003 0.499997 M -0.000005 199.500009 L 600.00003 199.500009 " transform="matrix(0.75,0,0,0.75,0.00000375,0.000002)"/><g style="fill:#0c7b3b;fill-opacity:1;"><g transform="translate(73.937087, 88.816957)"><path style="stroke:none" d="M 21.917969 -55.273438 C 11.679688 -55.273438 5.359375 -49.113281 5.359375 -40.472656 C 5.359375 -35.753906 7.199219 -31.835938 12.078125 -28.796875 C 6.800781 -26.636719 3.839844 -21.515625 3.839844 -15.519531 C 3.839844 -5.917969 11.4375 0.71875 21.996094 0.71875 C 33.355469 0.71875 40.394531 -6 40.394531 -15.597656 C 40.394531 -21.355469 37.515625 -26.316406 32.234375 -28.796875 C 37.355469 -31.753906 38.875 -36.234375 38.875 -40.632812 C 38.875 -47.511719 33.355469 -55.273438 21.917969 -55.273438 Z M 16.957031 -39.753906 C 16.957031 -44.074219 18.796875 -47.113281 22.078125 -47.113281 C 25.355469 -47.113281 27.195312 -44.554688 27.195312 -39.835938 C 27.195312 -34.957031 25.355469 -32.15625 22.15625 -32.15625 C 18.71875 -32.15625 16.957031 -35.433594 16.957031 -39.753906 Z M 28.078125 -15.597656 C 28.078125 -10.398438 25.757812 -7.117188 22.238281 -7.117188 C 18.71875 -7.117188 16.078125 -10.558594 16.078125 -15.835938 C 16.078125 -21.039062 18.316406 -24.398438 22.15625 -24.398438 C 25.757812 -24.398438 28.078125 -21.355469 28.078125 -15.597656 Z M 28.078125 -15.597656 "/></g></g><g style="fill:#0c7b3b;fill-opacity:1;"><g transform="translate(118.087695, 88.816957)"><path style="stroke:none" d=""/></g></g><g style="fill:#0c7b3b;fill-opacity:1;"><g transform="translate(140.322964, 88.816957)"><path style="stroke:none" d="M 18.15625 -47.273438 L 18.15625 -32.394531 L 3.28125 -32.394531 L 3.28125 -22.15625 L 18.15625 -22.15625 L 18.15625 -7.277344 L 28.476562 -7.277344 L 28.476562 -22.15625 L 43.355469 -22.15625 L 43.355469 -32.394531 L 28.476562 -32.394531 L 28.476562 -47.273438 Z M 18.15625 -47.273438 "/></g></g><g style="fill:#0c7b3b;fill-opacity:1;"><g transform="translate(186.953047, 88.816957)"><path style="stroke:none" d=""/></g></g><g style="fill:#0c7b3b;fill-opacity:1;"><g transform="translate(209.188316, 88.816957)"><path style="stroke:none" d="M 7.917969 -54.550781 L 7.917969 -23.4375 C 10.078125 -23.996094 12.316406 -24.238281 14.636719 -24.238281 C 20.957031 -24.238281 25.355469 -21.277344 25.355469 -16.398438 C 25.355469 -12.398438 22.15625 -8.878906 16.71875 -8.878906 C 13.839844 -8.878906 10 -9.519531 5.121094 -12.160156 L 5.121094 -2.238281 C 7.839844 -0.640625 13.757812 0.71875 18.316406 0.71875 C 31.355469 0.71875 38.074219 -6.640625 38.074219 -17.039062 C 38.074219 -26.554688 30.636719 -33.433594 20.957031 -33.433594 C 20.078125 -33.433594 19.4375 -33.355469 18.796875 -33.355469 L 18.796875 -43.59375 L 36.234375 -43.59375 L 36.234375 -54.550781 Z M 7.917969 -54.550781 "/></g></g><g style="fill:#0c7b3b;fill-opacity:1;"><g transform="translate(253.338923, 88.816957)"><path style="stroke:none" d=""/></g></g><g style="fill:#0c7b3b;fill-opacity:1;"><g transform="translate(275.574192, 88.816957)"><path style="stroke:none" d="M 3.28125 -41.113281 L 3.28125 -30.796875 L 43.355469 -30.796875 L 43.355469 -41.113281 Z M 3.28125 -23.757812 L 3.28125 -13.519531 L 43.355469 -13.519531 L 43.355469 -23.757812 Z M 3.28125 -23.757812 "/></g></g><g style="fill:#0c7b3b;fill-opacity:1;"><g transform="translate(322.210954, 88.816957)"><path style="stroke:none" d=""/></g></g><g clip-rule="nonzero" clip-path="url(#ed280ca3f4)"><path style=" stroke:none;fill-rule:nonzero;fill:#000000;fill-opacity:1;" d="M 380.132812 40.695312 C 378.617188 38.550781 376.527344 36.910156 373.863281 35.78125 C 371.210938 34.652344 368.140625 34.082031 364.671875 34.082031 C 361.515625 34.082031 358.632812 34.640625 356.023438 35.757812 C 353.417969 36.863281 351.316406 38.5625 349.730469 40.808594 C 348.464844 42.597656 347.683594 44.765625 347.363281 47.304688 C 347.226562 48.414062 348.109375 49.394531 349.234375 49.394531 L 356.21875 49.394531 C 357.117188 49.394531 357.875 48.765625 358.070312 47.898438 C 358.242188 47.125 358.527344 46.429688 358.929688 45.835938 C 359.574219 44.878906 360.402344 44.148438 361.410156 43.660156 C 362.421875 43.167969 363.492188 42.917969 364.628906 42.917969 C 365.800781 42.917969 366.855469 43.15625 367.832031 43.648438 C 368.796875 44.125 369.566406 44.820312 370.140625 45.722656 C 370.714844 46.621094 371.003906 47.660156 371.003906 48.855469 C 371.003906 49.984375 370.75 51 370.246094 51.902344 C 369.738281 52.800781 369.0625 53.632812 368.210938 54.375 C 367.351562 55.125 366.394531 55.832031 365.316406 56.527344 C 363.871094 57.429688 362.628906 58.433594 361.605469 59.539062 C 360.574219 60.644531 359.804688 62.09375 359.261719 63.894531 C 358.734375 65.695312 358.460938 68.101562 358.449219 71.121094 L 358.449219 72.625 C 358.449219 73.652344 359.285156 74.496094 360.332031 74.496094 L 366.476562 74.496094 C 367.511719 74.496094 368.359375 73.664062 368.359375 72.625 L 368.359375 71.121094 C 368.382812 69.421875 368.601562 67.996094 369.027344 66.847656 C 369.453125 65.695312 370.105469 64.667969 370.980469 63.789062 C 371.863281 62.914062 372.988281 62.070312 374.367188 61.25 C 376.011719 60.28125 377.421875 59.195312 378.628906 57.988281 C 379.824219 56.792969 380.765625 55.402344 381.441406 53.839844 C 382.109375 52.277344 382.453125 50.476562 382.453125 48.457031 C 382.417969 45.425781 381.648438 42.835938 380.132812 40.695312 Z M 380.132812 40.695312 "/></g><g clip-rule="nonzero" clip-path="url(#280e0097c8)"><path style=" stroke:none;fill-rule:nonzero;fill:#000000;fill-opacity:1;" d="M 363.59375 78.691406 C 361.847656 78.691406 360.367188 79.292969 359.136719 80.503906 C 357.90625 81.710938 357.300781 83.171875 357.320312 84.859375 C 357.300781 86.566406 357.90625 88.039062 359.136719 89.257812 C 360.367188 90.476562 361.847656 91.082031 363.59375 91.082031 C 364.707031 91.082031 365.742188 90.796875 366.671875 90.238281 C 367.613281 89.667969 368.371094 88.929688 368.957031 87.980469 C 369.542969 87.035156 369.84375 85.996094 369.855469 84.859375 C 369.832031 83.160156 369.199219 81.710938 367.945312 80.503906 C 366.707031 79.292969 365.246094 78.691406 363.59375 78.691406 Z M 363.59375 78.691406 "/></g></g></svg>