<svg xmlns="http://www.w3.org/2000/svg" xmlns:xlink="http://www.w3.org/1999/xlink" width="600" zoomAndPan="magnify" viewBox="0 0 450 149.999998" height="200" preserveAspectRatio="xMidYMid meet" version="1.2"><defs><clipPath id="696fc27766"><path d="M 168.523438 0.75 L 287.773438 0.75 L 287.773438 42.75 L 168.523438 42.75 Z M 168.523438 0.75 "/></clipPath><clipPath id="407191eafb"><path d="M 168.523438 47.265625 L 287.773438 47.265625 L 287.773438 89 L 168.523438 89 Z M 168.523438 47.265625 "/></clipPath><clipPath id="e627383149"><path d="M 251.105469 59.429688 L 261.605469 59.429688 L 261.605469 72 L 251.105469 72 Z M 251.105469 59.429688 "/></clipPath><clipPath id="10710a7e0d"><path d="M 254 72 L 258 72 L 258 76.679688 L 254 76.679688 Z M 254 72 "/></clipPath><clipPath id="de7091f559"><path d="M 240.257812 9.234375 L 273.503906 9.234375 L 273.503906 39.359375 L 240.257812 39.359375 Z M 240.257812 9.234375 "/></clipPath><clipPath id="bf54da5ed0"><path d="M 181.601562 8.867188 L 215.296875 8.867188 L 215.296875 39.726562 L 181.601562 39.726562 Z M 181.601562 8.867188 "/></clipPath><clipPath id="65fb87fdf5"><path d="M 134.335938 99.34375 L 324.835938 99.34375 L 324.835938 132 L 134.335938 132 Z M 134.335938 99.34375 "/></clipPath><clipPath id="cd39b2585b"><path d="M 134.335938 99.34375 L 324.835938 99.34375 L 324.835938 132.34375 L 134.335938 132.34375 Z M 134.335938 99.34375 "/></clipPath><clipPath id="f30e9a2979"><path d="M 134.335938 135 L 324.835938 135 L 324.835938 148 L 134.335938 148 Z M 134.335938 135 "/></clipPath><clipPath id="c0e5a89c60"><path d="M 287.773438 103.085938 L 313.273438 103.085938 L 313.273438 128.585938 L 287.773438 128.585938 Z M 287.773438 103.085938 "/></clipPath><clipPath id="de303672bc"><path d="M 193.007812 103.582031 L 217.757812 103.582031 L 217.757812 128 L 193.007812 128 Z M 193.007812 103.582031 "/></clipPath><clipPath id="4b0e146d44"><path d="M 241.695312 103.652344 L 266.394531 103.652344 L 266.394531 128 L 241.695312 128 Z M 241.695312 103.652344 "/></clipPath><clipPath id="83954e3ea0"><path d="M 144.964844 104.152344 L 169.664062 104.152344 L 169.664062 128.5 L 144.964844 128.5 Z M 144.964844 104.152344 "/></clipPath><clipPath id="88ca7d2d01"><path d="M 181.664062 54.371094 L 214.316406 54.371094 L 214.316406 85.046875 L 181.664062 85.046875 Z M 181.664062 54.371094 "/></clipPath></defs><g id="8ea48423bc"><rect x="0" width="450" y="0" height="149.999998" style="fill:#ffffff;fill-opacity:1;stroke:none;"/><rect x="0" width="450" y="0" height="149.999998" style="fill:#ffffff;fill-opacity:1;stroke:none;"/><g clip-rule="nonzero" clip-path="url(#696fc27766)"><path style="fill-rule:nonzero;fill:#000000;fill-opacity:1;stroke-width:0.545523;stroke-linecap:butt;stroke-linejoin:miter;stroke:#000000;stroke-opacity:1;stroke-miterlimit:4;" d="M 0.272176 0.546872 L 0.272176 54.989584 M 79.548222 0.546872 L 79.548222 54.989584 M 157.730518 0.546872 L 157.730518 54.989584 M 0.00134237 0.270831 L 158.001352 0.270831 M 0.00134237 55.260417 L 158.001352 55.260417 " transform="matrix(0.75,0,0,0.75,168.522431,0.750002)"/></g><g clip-rule="nonzero" clip-path="url(#407191eafb)"><path style="fill-rule:nonzero;fill:#000000;fill-opacity:1;stroke-width:0.545523;stroke-linecap:butt;stroke-linejoin:miter;stroke:#000000;stroke-opacity:1;stroke-miterlimit:4;" d="M 0.272176 0.545991 L 0.272176 54.988702 M 79.548222 0.545991 L 79.548222 54.988702 M 157.730518 0.545991 L 157.730518 54.988702 M 0.00134237 0.275158 L 158.001352 0.275158 M 0.00134237 55.259536 L 158.001352 55.259536 " transform="matrix(0.75,0,0,0.75,168.522431,47.266288)"/></g><g clip-rule="nonzero" clip-path="url(#e627383149)"><path style=" stroke:none;fill-rule:nonzero;fill:#000000;fill-opacity:1;" d="M 260.910156 61.433594 C 260.457031 60.785156 259.835938 60.285156 259.042969 59.945312 C 258.253906 59.601562 257.339844 59.429688 256.308594 59.429688 C 255.367188 59.429688 254.507812 59.601562 253.730469 59.9375 C 252.957031 60.273438 252.328125 60.785156 251.859375 61.464844 C 251.480469 62.007812 251.25 62.664062 251.152344 63.433594 C 251.113281 63.769531 251.375 64.0625 251.710938 64.0625 L 253.789062 64.0625 C 254.054688 64.0625 254.28125 63.875 254.339844 63.613281 C 254.390625 63.378906 254.476562 63.167969 254.597656 62.988281 C 254.789062 62.699219 255.035156 62.476562 255.335938 62.328125 C 255.636719 62.179688 255.953125 62.105469 256.292969 62.105469 C 256.640625 62.105469 256.957031 62.175781 257.246094 62.324219 C 257.535156 62.46875 257.761719 62.679688 257.933594 62.953125 C 258.105469 63.226562 258.191406 63.539062 258.191406 63.902344 C 258.191406 64.242188 258.117188 64.550781 257.964844 64.824219 C 257.816406 65.097656 257.613281 65.347656 257.359375 65.570312 C 257.101562 65.800781 256.820312 66.011719 256.5 66.222656 C 256.066406 66.496094 255.699219 66.800781 255.394531 67.136719 C 255.085938 67.46875 254.855469 67.90625 254.695312 68.453125 C 254.539062 68.996094 254.457031 69.726562 254.453125 70.640625 L 254.453125 71.09375 C 254.453125 71.40625 254.703125 71.660156 255.015625 71.660156 L 256.84375 71.660156 C 257.152344 71.660156 257.40625 71.410156 257.40625 71.09375 L 257.40625 70.640625 C 257.410156 70.125 257.476562 69.695312 257.601562 69.347656 C 257.730469 68.996094 257.925781 68.6875 258.183594 68.421875 C 258.449219 68.15625 258.78125 67.902344 259.191406 67.652344 C 259.683594 67.359375 260.101562 67.03125 260.460938 66.664062 C 260.816406 66.304688 261.097656 65.882812 261.300781 65.410156 C 261.496094 64.9375 261.601562 64.390625 261.601562 63.78125 C 261.589844 62.863281 261.359375 62.082031 260.910156 61.433594 Z M 260.910156 61.433594 "/></g><g clip-rule="nonzero" clip-path="url(#10710a7e0d)"><path style=" stroke:none;fill-rule:nonzero;fill:#000000;fill-opacity:1;" d="M 255.984375 72.929688 C 255.464844 72.929688 255.023438 73.113281 254.660156 73.480469 C 254.292969 73.84375 254.109375 74.285156 254.117188 74.796875 C 254.109375 75.316406 254.292969 75.761719 254.660156 76.128906 C 255.023438 76.5 255.464844 76.679688 255.984375 76.679688 C 256.316406 76.679688 256.625 76.59375 256.902344 76.425781 C 257.183594 76.253906 257.40625 76.027344 257.582031 75.742188 C 257.757812 75.457031 257.84375 75.140625 257.847656 74.796875 C 257.84375 74.285156 257.652344 73.84375 257.28125 73.480469 C 256.910156 73.113281 256.476562 72.929688 255.984375 72.929688 Z M 255.984375 72.929688 "/></g><g clip-rule="nonzero" clip-path="url(#de7091f559)"><path style=" stroke:none;fill-rule:nonzero;fill:#ff3131;fill-opacity:1;" d="M 240.257812 9.234375 L 273.558594 9.234375 L 273.558594 39.359375 L 240.257812 39.359375 Z M 240.257812 9.234375 "/></g><g clip-rule="nonzero" clip-path="url(#bf54da5ed0)"><path style=" stroke:none;fill-rule:nonzero;fill:#004aad;fill-opacity:1;" d="M 181.601562 8.867188 L 215.355469 8.867188 L 215.355469 39.726562 L 181.601562 39.726562 Z M 181.601562 8.867188 "/></g><g clip-rule="nonzero" clip-path="url(#65fb87fdf5)"><path style=" stroke:none;fill-rule:nonzero;fill:#000000;fill-opacity:1;" d="M 134.660156 100 L 134.660156 131.585938 M 181.796875 100 L 181.796875 131.585938 M 228.304688 100 L 228.304688 131.585938 M 276.070312 100 L 276.070312 131.585938 M 323.839844 100 L 323.839844 131.585938 M 134.335938 99.671875 L 324.164062 99.671875 M 134.335938 131.914062 L 324.164062 131.914062 "/></g><g clip-rule="nonzero" clip-path="url(#cd39b2585b)"><path style="fill:none;stroke-width:0.871773;stroke-linecap:butt;stroke-linejoin:miter;stroke:#000000;stroke-opacity:1;stroke-miterlimit:4;" d="M 0.434282 0.874199 L 0.434282 42.988785 M 63.283244 0.874199 L 63.283244 42.988785 M 125.293664 0.874199 L 125.293664 42.988785 M 188.981168 0.874199 L 188.981168 42.988785 M 252.67388 0.874199 L 252.67388 42.988785 M 0.00199038 0.436699 L 253.106172 0.436699 M 0.00199038 43.426285 L 253.106172 43.426285 " transform="matrix(0.75,0,0,0.75,134.334445,99.344351)"/></g><g clip-rule="nonzero" clip-path="url(#f30e9a2979)"><path style="fill-rule:nonzero;fill:#000000;fill-opacity:1;stroke-width:0.871773;stroke-linecap:butt;stroke-linejoin:miter;stroke:#000000;stroke-opacity:1;stroke-miterlimit:4;" d="M 0.434282 0.873446 L 0.434282 16.347406 M 63.585327 0.873446 L 63.585327 16.347406 M 124.694706 0.873446 L 124.694706 16.347406 M 188.949918 0.873446 L 188.949918 16.347406 M 252.67388 0.873446 L 252.67388 16.347406 M 0.00199038 0.435946 L 253.106172 0.435946 M 0.00199038 16.779697 L 253.106172 16.779697 " transform="matrix(0.75,0,0,0.75,134.334445,135.001165)"/></g><g style="fill:#000000;fill-opacity:1;"><g transform="translate(202.923566, 143.417864)"><path style="stroke:none" d="M 0.28125 0 L 0.28125 -0.765625 L 1.421875 -1.84375 C 1.765625 -2.175781 2.035156 -2.476562 2.234375 -2.75 C 2.429688 -3.03125 2.566406 -3.316406 2.640625 -3.609375 C 2.722656 -3.898438 2.765625 -4.234375 2.765625 -4.609375 C 2.765625 -5.046875 2.710938 -5.363281 2.609375 -5.5625 C 2.503906 -5.757812 2.328125 -5.859375 2.078125 -5.859375 C 1.890625 -5.859375 1.742188 -5.800781 1.640625 -5.6875 C 1.546875 -5.570312 1.476562 -5.378906 1.4375 -5.109375 C 1.394531 -4.847656 1.375 -4.484375 1.375 -4.015625 C 1.0625 -4.015625 0.804688 -4.078125 0.609375 -4.203125 C 0.410156 -4.328125 0.3125 -4.523438 0.3125 -4.796875 C 0.3125 -5.117188 0.460938 -5.390625 0.765625 -5.609375 C 1.078125 -5.828125 1.53125 -5.9375 2.125 -5.9375 C 2.738281 -5.9375 3.203125 -5.816406 3.515625 -5.578125 C 3.835938 -5.335938 4 -5 4 -4.5625 C 4 -4.375 3.960938 -4.191406 3.890625 -4.015625 C 3.828125 -3.835938 3.707031 -3.644531 3.53125 -3.4375 C 3.351562 -3.226562 3.113281 -2.988281 2.8125 -2.71875 C 2.519531 -2.457031 2.144531 -2.148438 1.6875 -1.796875 L 0.546875 -0.90625 L 3.3125 -0.90625 C 3.570312 -0.90625 3.757812 -0.941406 3.875 -1.015625 C 4 -1.097656 4.070312 -1.25 4.09375 -1.46875 L 4.125 -1.71875 L 4.203125 -1.71875 L 4.15625 0 Z M 0.28125 0 "/></g></g><g style="fill:#000000;fill-opacity:1;"><g transform="translate(251.140595, 143.417864)"><path style="stroke:none" d="M 1.984375 0.078125 C 1.378906 0.078125 0.9375 -0.0195312 0.65625 -0.21875 C 0.375 -0.414062 0.234375 -0.644531 0.234375 -0.90625 C 0.234375 -1.113281 0.300781 -1.269531 0.4375 -1.375 C 0.570312 -1.488281 0.734375 -1.546875 0.921875 -1.546875 C 0.921875 -1.140625 0.960938 -0.828125 1.046875 -0.609375 C 1.140625 -0.390625 1.257812 -0.234375 1.40625 -0.140625 C 1.5625 -0.046875 1.738281 0 1.9375 0 C 2.289062 0 2.546875 -0.132812 2.703125 -0.40625 C 2.859375 -0.675781 2.9375 -1.066406 2.9375 -1.578125 C 2.9375 -1.941406 2.894531 -2.222656 2.8125 -2.421875 C 2.726562 -2.628906 2.585938 -2.773438 2.390625 -2.859375 C 2.191406 -2.941406 1.9375 -2.984375 1.625 -2.984375 L 1.171875 -2.984375 L 1.171875 -3.0625 L 1.625 -3.0625 C 1.914062 -3.0625 2.140625 -3.109375 2.296875 -3.203125 C 2.460938 -3.296875 2.578125 -3.445312 2.640625 -3.65625 C 2.710938 -3.863281 2.75 -4.140625 2.75 -4.484375 C 2.75 -4.984375 2.6875 -5.335938 2.5625 -5.546875 C 2.445312 -5.753906 2.28125 -5.859375 2.0625 -5.859375 C 1.769531 -5.859375 1.578125 -5.707031 1.484375 -5.40625 C 1.398438 -5.113281 1.359375 -4.703125 1.359375 -4.171875 C 1.023438 -4.171875 0.765625 -4.226562 0.578125 -4.34375 C 0.390625 -4.457031 0.296875 -4.640625 0.296875 -4.890625 C 0.296875 -5.179688 0.445312 -5.425781 0.75 -5.625 C 1.0625 -5.832031 1.515625 -5.9375 2.109375 -5.9375 C 2.691406 -5.9375 3.148438 -5.816406 3.484375 -5.578125 C 3.828125 -5.347656 4 -5.007812 4 -4.5625 C 4 -4.332031 3.941406 -4.109375 3.828125 -3.890625 C 3.710938 -3.671875 3.519531 -3.484375 3.25 -3.328125 C 2.988281 -3.179688 2.628906 -3.085938 2.171875 -3.046875 C 2.828125 -3.046875 3.328125 -2.921875 3.671875 -2.671875 C 4.023438 -2.429688 4.203125 -2.0625 4.203125 -1.5625 C 4.203125 -1.164062 4.097656 -0.847656 3.890625 -0.609375 C 3.679688 -0.367188 3.40625 -0.191406 3.0625 -0.078125 C 2.726562 0.0234375 2.367188 0.078125 1.984375 0.078125 Z M 1.984375 0.078125 "/></g></g><g style="fill:#000000;fill-opacity:1;"><g transform="translate(155.022885, 143.417864)"><path style="stroke:none" d="M 0.796875 0 L 0.796875 -0.078125 L 1.46875 -0.078125 C 1.601562 -0.078125 1.703125 -0.113281 1.765625 -0.1875 C 1.835938 -0.269531 1.875 -0.410156 1.875 -0.609375 L 1.875 -5.21875 C 1.625 -4.863281 1.425781 -4.609375 1.28125 -4.453125 C 1.132812 -4.296875 0.988281 -4.21875 0.84375 -4.21875 C 0.695312 -4.21875 0.578125 -4.257812 0.484375 -4.34375 C 0.390625 -4.4375 0.34375 -4.578125 0.34375 -4.765625 C 0.613281 -4.773438 0.835938 -4.800781 1.015625 -4.84375 C 1.203125 -4.882812 1.375 -4.960938 1.53125 -5.078125 C 1.695312 -5.191406 1.894531 -5.363281 2.125 -5.59375 L 2.421875 -5.890625 L 3.09375 -5.890625 L 3.09375 -0.609375 C 3.09375 -0.441406 3.117188 -0.3125 3.171875 -0.21875 C 3.234375 -0.125 3.347656 -0.078125 3.515625 -0.078125 L 4.1875 -0.078125 L 4.1875 0 Z M 0.796875 0 "/></g></g><g style="fill:#000000;fill-opacity:1;"><g transform="translate(298.223982, 143.417864)"><path style="stroke:none" d="M 1.46875 0 L 1.46875 -0.078125 L 1.703125 -0.078125 C 1.890625 -0.078125 2.046875 -0.109375 2.171875 -0.171875 C 2.304688 -0.242188 2.375 -0.410156 2.375 -0.671875 L 2.375 -1.53125 L 0.109375 -1.53125 L 0.109375 -2.03125 L 2.4375 -5.859375 L 3.578125 -5.859375 L 3.578125 -2.0625 L 4.421875 -2.0625 L 4.421875 -1.53125 L 3.578125 -1.53125 L 3.578125 -0.671875 C 3.578125 -0.410156 3.640625 -0.242188 3.765625 -0.171875 C 3.898438 -0.109375 4.0625 -0.078125 4.25 -0.078125 L 4.359375 -0.078125 L 4.359375 0 Z M 0.234375 -2.0625 L 2.375 -2.0625 L 2.375 -3.875 C 2.375 -4.175781 2.375 -4.488281 2.375 -4.8125 C 2.375 -5.132812 2.378906 -5.414062 2.390625 -5.65625 C 2.359375 -5.601562 2.304688 -5.519531 2.234375 -5.40625 C 2.171875 -5.289062 2.097656 -5.164062 2.015625 -5.03125 C 1.941406 -4.894531 1.867188 -4.769531 1.796875 -4.65625 C 1.722656 -4.539062 1.664062 -4.445312 1.625 -4.375 Z M 0.234375 -2.0625 "/></g></g><g clip-rule="nonzero" clip-path="url(#c0e5a89c60)"><path style=" stroke:none;fill-rule:nonzero;fill:#004aad;fill-opacity:1;" d="M 300.511719 128.5625 C 293.507812 128.5625 287.773438 122.828125 287.773438 115.824219 C 287.773438 108.816406 293.507812 103.085938 300.511719 103.085938 C 307.519531 103.085938 313.25 108.816406 313.25 115.824219 C 313.25 122.828125 307.519531 128.5625 300.511719 128.5625 Z M 300.511719 128.5625 "/></g><g clip-rule="nonzero" clip-path="url(#de303672bc)"><path style=" stroke:none;fill-rule:nonzero;fill:#ff3131;fill-opacity:1;" d="M 205.214844 127.992188 C 198.5 127.992188 193.007812 122.5 193.007812 115.789062 C 193.007812 109.074219 198.5 103.582031 205.214844 103.582031 C 211.925781 103.582031 217.417969 109.074219 217.417969 115.789062 C 217.417969 122.5 211.925781 127.992188 205.214844 127.992188 Z M 205.214844 127.992188 "/></g><g clip-rule="nonzero" clip-path="url(#4b0e146d44)"><path style=" stroke:none;fill-rule:nonzero;fill:#ff3131;fill-opacity:1;" d="M 241.695312 103.652344 L 266.421875 103.652344 L 266.421875 128 L 241.695312 128 Z M 241.695312 103.652344 "/></g><g clip-rule="nonzero" clip-path="url(#83954e3ea0)"><path style=" stroke:none;fill-rule:nonzero;fill:#004aad;fill-opacity:1;" d="M 144.964844 104.152344 L 169.691406 104.152344 L 169.691406 128.5 L 144.964844 128.5 Z M 144.964844 104.152344 "/></g><g clip-rule="nonzero" clip-path="url(#88ca7d2d01)"><path style=" stroke:none;fill-rule:nonzero;fill:#004aad;fill-opacity:1;" d="M 181.664062 54.371094 L 214.375 54.371094 L 214.375 85.046875 L 181.664062 85.046875 Z M 181.664062 54.371094 "/></g></g></svg>