<svg xmlns="http://www.w3.org/2000/svg" xmlns:xlink="http://www.w3.org/1999/xlink" width="600" zoomAndPan="magnify" viewBox="0 0 450 149.999998" height="200" preserveAspectRatio="xMidYMid meet" version="1.2"><defs/><g id="c89214026c"><rect x="0" width="450" y="0" height="149.999998" style="fill:#ffffff;fill-opacity:1;stroke:none;"/><rect x="0" width="450" y="0" height="149.999998" style="fill:#ffffff;fill-opacity:1;stroke:none;"/><path style="fill-rule:nonzero;fill:#000000;fill-opacity:1;stroke-width:1;stroke-linecap:butt;stroke-linejoin:miter;stroke:#0c7b3b;stroke-opacity:1;stroke-miterlimit:4;" d="M 0.499995 0.999997 L 0.499995 199.000009 M 599.50003 0.999997 L 599.50003 199.000009 M -0.000005 0.499997 L 600.00003 0.499997 M -0.000005 199.500009 L 600.00003 199.500009 " transform="matrix(0.75,0,0,0.75,0.00000375,0.000002)"/><g style="fill:#0c7b3b;fill-opacity:1;"><g transform="translate(40.795837, 110.357998)"><path style="stroke:none" d="M 25.710938 -69.667969 L 13.8125 -50.410156 C 6.652344 -38.816406 4.4375 -31.457031 4.4375 -23.1875 C 4.4375 -7.460938 15.324219 0.90625 27.523438 0.90625 C 40.53125 0.90625 50.007812 -9.375 50.007812 -22.785156 C 50.007812 -34.480469 41.941406 -44.261719 30.75 -44.261719 C 29.539062 -44.261719 28.734375 -44.160156 26.71875 -43.65625 L 42.648438 -69.667969 Z M 19.960938 -21.878906 C 19.960938 -28.53125 22.988281 -32.261719 27.324219 -32.261719 C 32.363281 -32.261719 35.1875 -27.726562 35.1875 -22.179688 C 35.1875 -16.433594 32.464844 -11.898438 27.523438 -11.898438 C 22.785156 -11.898438 19.960938 -15.628906 19.960938 -21.878906 Z M 19.960938 -21.878906 "/></g></g><g style="fill:#0c7b3b;fill-opacity:1;"><g transform="translate(254.566366, 110.357998)"><path style="stroke:none" d="M 9.980469 -68.761719 L 9.980469 -29.539062 C 12.703125 -30.246094 15.527344 -30.550781 18.449219 -30.550781 C 26.414062 -30.550781 31.960938 -26.820312 31.960938 -20.667969 C 31.960938 -15.628906 27.929688 -11.191406 21.070312 -11.191406 C 17.441406 -11.191406 12.601562 -11.996094 6.453125 -15.324219 L 6.453125 -2.824219 C 9.878906 -0.804688 17.339844 0.90625 23.089844 0.90625 C 39.523438 0.90625 47.992188 -8.367188 47.992188 -21.476562 C 47.992188 -33.472656 38.613281 -42.144531 26.414062 -42.144531 C 25.304688 -42.144531 24.5 -42.042969 23.691406 -42.042969 L 23.691406 -54.949219 L 45.671875 -54.949219 L 45.671875 -68.761719 Z M 9.980469 -68.761719 "/></g></g><g style="fill:#0c7b3b;fill-opacity:1;"><g transform="translate(147.681103, 110.357998)"><path style="stroke:none" d="M 25.609375 -69.667969 C 18.046875 -69.667969 12.601562 -67.046875 6.351562 -63.113281 L 6.351562 -48.695312 C 11.898438 -54.039062 18.449219 -57.265625 22.886719 -57.265625 C 28.128906 -57.265625 32.164062 -52.730469 32.164062 -47.589844 C 32.164062 -41.136719 28.734375 -33.371094 18.351562 -19.15625 C 13.207031 -12.199219 8.871094 -6.351562 5.445312 -2.015625 L 5.445312 0 L 50.914062 0 L 50.914062 -14.015625 L 28.734375 -14.015625 C 38.109375 -26.113281 39.925781 -29.339844 44.363281 -38.109375 C 46.378906 -42.246094 47.386719 -46.175781 47.386719 -50.410156 C 47.386719 -60.695312 40.632812 -69.667969 25.609375 -69.667969 Z M 25.609375 -69.667969 "/></g></g><g style="fill:#0c7b3b;fill-opacity:1;"><g transform="translate(361.451613, 110.357998)"><path style="stroke:none" d="M 27.625 -69.667969 C 14.71875 -69.667969 6.753906 -61.90625 6.753906 -51.015625 C 6.753906 -45.066406 9.074219 -40.128906 15.222656 -36.296875 C 8.570312 -33.574219 4.839844 -27.121094 4.839844 -19.558594 C 4.839844 -7.460938 14.417969 0.90625 27.726562 0.90625 C 42.042969 0.90625 50.914062 -7.5625 50.914062 -19.660156 C 50.914062 -26.917969 47.285156 -33.171875 40.632812 -36.296875 C 47.085938 -40.027344 49 -45.671875 49 -51.21875 C 49 -59.886719 42.042969 -69.667969 27.625 -69.667969 Z M 21.375 -50.109375 C 21.375 -55.554688 23.691406 -59.382812 27.828125 -59.382812 C 31.960938 -59.382812 34.28125 -56.15625 34.28125 -50.210938 C 34.28125 -44.058594 31.960938 -40.53125 27.929688 -40.53125 C 23.59375 -40.53125 21.375 -44.664062 21.375 -50.109375 Z M 35.390625 -19.660156 C 35.390625 -13.105469 32.464844 -8.972656 28.027344 -8.972656 C 23.59375 -8.972656 20.265625 -13.308594 20.265625 -19.960938 C 20.265625 -26.515625 23.089844 -30.75 27.929688 -30.75 C 32.464844 -30.75 35.390625 -26.917969 35.390625 -19.660156 Z M 35.390625 -19.660156 "/></g></g></g></svg>