<svg xmlns="http://www.w3.org/2000/svg" xmlns:xlink="http://www.w3.org/1999/xlink" width="600" zoomAndPan="magnify" viewBox="0 0 450 149.999998" height="200" preserveAspectRatio="xMidYMid meet" version="1.2"><defs><clipPath id="0fbdecd832"><path d="M 368.628906 51.460938 L 393.378906 51.460938 L 393.378906 81 L 368.628906 81 Z M 368.628906 51.460938 "/></clipPath><clipPath id="7872c0ef82"><path d="M 375 83 L 385 83 L 385 91.960938 L 375 91.960938 Z M 375 83 "/></clipPath></defs><g id="f228729135"><rect x="0" width="450" y="0" height="149.999998" style="fill:#ffffff;fill-opacity:1;stroke:none;"/><rect x="0" width="450" y="0" height="149.999998" style="fill:#ffffff;fill-opacity:1;stroke:none;"/><path style="fill-rule:nonzero;fill:#000000;fill-opacity:1;stroke-width:1;stroke-linecap:butt;stroke-linejoin:miter;stroke:#0c7b3b;stroke-opacity:1;stroke-miterlimit:4;" d="M 0.499995 0.999997 L 0.499995 199.000009 M 599.50003 0.999997 L 599.50003 199.000009 M -0.000005 0.499997 L 600.00003 0.499997 M -0.000005 199.500009 L 600.00003 199.500009 " transform="matrix(0.75,0,0,0.75,0.00000375,0.000002)"/><g style="fill:#0c7b3b;fill-opacity:1;"><g transform="translate(42.243421, 91.728131)"><path style="stroke:none" d="M 14.796875 -40.257812 C 10.429688 -40.257812 7.28125 -38.746094 3.671875 -36.472656 L 3.671875 -28.140625 C 6.875 -31.226562 10.660156 -33.09375 13.226562 -33.09375 C 16.253906 -33.09375 18.585938 -30.472656 18.585938 -27.5 C 18.585938 -23.769531 16.605469 -19.285156 10.605469 -11.070312 C 7.632812 -7.050781 5.128906 -3.671875 3.144531 -1.164062 L 3.144531 0 L 29.421875 0 L 29.421875 -8.097656 L 16.605469 -8.097656 C 22.023438 -15.089844 23.070312 -16.953125 25.636719 -22.023438 C 26.800781 -24.410156 27.382812 -26.683594 27.382812 -29.132812 C 27.382812 -35.074219 23.480469 -40.257812 14.796875 -40.257812 Z M 14.796875 -40.257812 "/></g></g><g style="fill:#0c7b3b;fill-opacity:1;"><g transform="translate(74.401576, 91.728131)"><path style="stroke:none" d="M 5.769531 -39.734375 L 5.769531 -17.070312 C 7.339844 -17.480469 8.972656 -17.652344 10.660156 -17.652344 C 15.265625 -17.652344 18.46875 -15.496094 18.46875 -11.945312 C 18.46875 -9.03125 16.136719 -6.46875 12.175781 -6.46875 C 10.078125 -6.46875 7.28125 -6.933594 3.730469 -8.855469 L 3.730469 -1.632812 C 5.710938 -0.464844 10.019531 0.523438 13.34375 0.523438 C 22.839844 0.523438 27.734375 -4.835938 27.734375 -12.410156 C 27.734375 -19.34375 22.3125 -24.355469 15.265625 -24.355469 C 14.625 -24.355469 14.15625 -24.296875 13.691406 -24.296875 L 13.691406 -31.753906 L 26.394531 -31.753906 L 26.394531 -39.734375 Z M 5.769531 -39.734375 "/></g></g><g style="fill:#0c7b3b;fill-opacity:1;"><g transform="translate(106.559731, 91.728131)"><path style="stroke:none" d="M 14.855469 -40.257812 L 7.980469 -29.132812 C 3.84375 -22.429688 2.5625 -18.179688 2.5625 -13.398438 C 2.5625 -4.3125 8.855469 0.523438 15.90625 0.523438 C 23.421875 0.523438 28.898438 -5.417969 28.898438 -13.167969 C 28.898438 -19.925781 24.238281 -25.578125 17.769531 -25.578125 C 17.070312 -25.578125 16.605469 -25.519531 15.441406 -25.226562 L 24.644531 -40.257812 Z M 11.535156 -12.644531 C 11.535156 -16.488281 13.285156 -18.644531 15.789062 -18.644531 C 18.703125 -18.644531 20.332031 -16.023438 20.332031 -12.816406 C 20.332031 -9.496094 18.761719 -6.875 15.90625 -6.875 C 13.167969 -6.875 11.535156 -9.03125 11.535156 -12.644531 Z M 11.535156 -12.644531 "/></g></g><g style="fill:#0c7b3b;fill-opacity:1;"><g transform="translate(138.717886, 91.728131)"><path style="stroke:none" d=""/></g></g><g style="fill:#0c7b3b;fill-opacity:1;"><g transform="translate(154.913484, 91.728131)"><path style="stroke:none" d="M 13.226562 -34.433594 L 13.226562 -23.597656 L 2.390625 -23.597656 L 2.390625 -16.136719 L 13.226562 -16.136719 L 13.226562 -5.300781 L 20.742188 -5.300781 L 20.742188 -16.136719 L 31.578125 -16.136719 L 31.578125 -23.597656 L 20.742188 -23.597656 L 20.742188 -34.433594 Z M 13.226562 -34.433594 "/></g></g><g style="fill:#0c7b3b;fill-opacity:1;"><g transform="translate(188.877625, 91.728131)"><path style="stroke:none" d=""/></g></g><g style="fill:#0c7b3b;fill-opacity:1;"><g transform="translate(205.073204, 91.728131)"><path style="stroke:none" d="M 13.457031 -40.257812 C 10.488281 -40.257812 6.992188 -39.675781 4.371094 -38.511719 L 4.371094 -31.519531 C 7.457031 -33.09375 9.496094 -33.617188 11.828125 -33.617188 C 14.796875 -33.617188 17.363281 -31.695312 17.363281 -28.957031 C 17.363281 -26.683594 15.382812 -24.410156 11.886719 -24.121094 L 11.886719 -17.128906 C 15.964844 -16.722656 18.003906 -14.449219 18.003906 -11.59375 C 18.003906 -8.679688 15.496094 -6.410156 12.117188 -6.410156 C 9.148438 -6.410156 6.117188 -7.457031 3.378906 -9.4375 L 3.378906 -1.746094 C 6.175781 -0.234375 9.960938 0.523438 13.34375 0.523438 C 20.917969 0.523438 27.265625 -3.4375 27.265625 -11.070312 C 27.265625 -16.371094 24.820312 -19.460938 20.273438 -21.324219 C 23.945312 -23.070312 26.160156 -26.800781 26.160156 -30.53125 C 26.160156 -36.472656 20.800781 -40.257812 13.457031 -40.257812 Z M 13.457031 -40.257812 "/></g></g><g style="fill:#0c7b3b;fill-opacity:1;"><g transform="translate(237.231366, 91.728131)"><path style="stroke:none" d="M 21.089844 -40.257812 L 2.390625 -16.136719 L 2.390625 -9.789062 L 17.886719 -9.789062 L 17.886719 0 L 26.683594 0 L 26.683594 -9.789062 L 29.363281 -9.789062 L 29.363281 -16.136719 L 26.683594 -16.136719 L 26.683594 -40.257812 Z M 17.886719 -16.136719 L 9.378906 -16.136719 L 17.886719 -26.976562 Z M 17.886719 -16.136719 "/></g></g><g style="fill:#0c7b3b;fill-opacity:1;"><g transform="translate(269.389527, 91.728131)"><path style="stroke:none" d="M 3.730469 -39.734375 L 3.730469 -31.8125 L 18.410156 -31.8125 L 7.75 -2.503906 L 15.671875 0.523438 L 30.179688 -39.269531 L 30.179688 -39.734375 Z M 3.730469 -39.734375 "/></g></g><g style="fill:#0c7b3b;fill-opacity:1;"><g transform="translate(301.547688, 91.728131)"><path style="stroke:none" d=""/></g></g><g style="fill:#0c7b3b;fill-opacity:1;"><g transform="translate(317.743268, 91.728131)"><path style="stroke:none" d="M 2.390625 -29.945312 L 2.390625 -22.429688 L 31.578125 -22.429688 L 31.578125 -29.945312 Z M 2.390625 -17.304688 L 2.390625 -9.847656 L 31.578125 -9.847656 L 31.578125 -17.304688 Z M 2.390625 -17.304688 "/></g></g><g style="fill:#0c7b3b;fill-opacity:1;"><g transform="translate(351.709251, 91.728131)"><path style="stroke:none" d=""/></g></g><g clip-rule="nonzero" clip-path="url(#0fbdecd832)"><path style=" stroke:none;fill-rule:nonzero;fill:#000000;fill-opacity:1;" d="M 391.746094 56.15625 C 390.679688 54.636719 389.214844 53.46875 387.339844 52.667969 C 385.476562 51.863281 383.324219 51.460938 380.886719 51.460938 C 378.667969 51.460938 376.644531 51.855469 374.8125 52.648438 C 372.980469 53.4375 371.503906 54.644531 370.390625 56.238281 C 369.503906 57.511719 368.953125 59.050781 368.726562 60.855469 C 368.632812 61.640625 369.253906 62.339844 370.042969 62.339844 L 374.949219 62.339844 C 375.578125 62.339844 376.109375 61.890625 376.246094 61.277344 C 376.367188 60.726562 376.570312 60.230469 376.851562 59.8125 C 377.304688 59.128906 377.886719 58.613281 378.59375 58.261719 C 379.304688 57.914062 380.054688 57.738281 380.855469 57.738281 C 381.675781 57.738281 382.417969 57.90625 383.105469 58.253906 C 383.78125 58.59375 384.324219 59.089844 384.726562 59.730469 C 385.128906 60.371094 385.332031 61.105469 385.332031 61.957031 C 385.332031 62.757812 385.15625 63.480469 384.800781 64.121094 C 384.445312 64.761719 383.96875 65.351562 383.371094 65.878906 C 382.765625 66.414062 382.097656 66.914062 381.339844 67.410156 C 380.320312 68.046875 379.449219 68.761719 378.734375 69.546875 C 378.007812 70.332031 377.464844 71.359375 377.085938 72.640625 C 376.714844 73.921875 376.523438 75.628906 376.515625 77.777344 L 376.515625 78.84375 C 376.515625 79.574219 377.101562 80.175781 377.835938 80.175781 L 382.152344 80.175781 C 382.878906 80.175781 383.476562 79.582031 383.476562 78.84375 L 383.476562 77.777344 C 383.492188 76.570312 383.644531 75.558594 383.945312 74.738281 C 384.242188 73.921875 384.703125 73.191406 385.316406 72.566406 C 385.9375 71.945312 386.726562 71.34375 387.695312 70.761719 C 388.851562 70.074219 389.84375 69.304688 390.691406 68.445312 C 391.527344 67.59375 392.191406 66.605469 392.667969 65.496094 C 393.132812 64.386719 393.375 63.105469 393.375 61.671875 C 393.351562 59.519531 392.8125 57.679688 391.746094 56.15625 Z M 391.746094 56.15625 "/></g><g clip-rule="nonzero" clip-path="url(#7872c0ef82)"><path style=" stroke:none;fill-rule:nonzero;fill:#000000;fill-opacity:1;" d="M 380.128906 83.15625 C 378.902344 83.15625 377.859375 83.585938 376.996094 84.441406 C 376.132812 85.300781 375.707031 86.339844 375.722656 87.535156 C 375.707031 88.753906 376.132812 89.796875 376.996094 90.664062 C 377.859375 91.53125 378.902344 91.960938 380.128906 91.960938 C 380.910156 91.960938 381.636719 91.757812 382.289062 91.359375 C 382.953125 90.957031 383.484375 90.429688 383.894531 89.757812 C 384.308594 89.085938 384.515625 88.347656 384.527344 87.535156 C 384.507812 86.332031 384.066406 85.300781 383.1875 84.441406 C 382.316406 83.585938 381.289062 83.15625 380.128906 83.15625 Z M 380.128906 83.15625 "/></g></g></svg>