<svg xmlns="http://www.w3.org/2000/svg" xmlns:xlink="http://www.w3.org/1999/xlink" width="600" zoomAndPan="magnify" viewBox="0 0 450 149.999998" height="200" preserveAspectRatio="xMidYMid meet" version="1.2"><defs/><g id="c539bacc3f"><rect x="0" width="450" y="0" height="149.999998" style="fill:#ffffff;fill-opacity:1;stroke:none;"/><rect x="0" width="450" y="0" height="149.999998" style="fill:#ffffff;fill-opacity:1;stroke:none;"/><path style="fill-rule:nonzero;fill:#000000;fill-opacity:1;stroke-width:1;stroke-linecap:butt;stroke-linejoin:miter;stroke:#0c7b3b;stroke-opacity:1;stroke-miterlimit:4;" d="M 0.499995 0.999997 L 0.499995 199.000009 M 599.50003 0.999997 L 599.50003 199.000009 M -0.000005 0.499997 L 600.00003 0.499997 M -0.000005 199.500009 L 600.00003 199.500009 " transform="matrix(0.75,0,0,0.75,0.00000375,0.000002)"/><g style="fill:#0c7b3b;fill-opacity:1;"><g transform="translate(165.077162, 107.098296)"><path style="stroke:none" d="M 21.492188 -75.007812 L 21.492188 0 L 38.425781 0 L 38.425781 -75.007812 Z M 21.492188 -75.007812 "/></g></g><g style="fill:#0c7b3b;fill-opacity:1;"><g transform="translate(224.9973, 107.098296)"><path style="stroke:none" d="M 30.070312 -75.007812 C 16.933594 -75.007812 4.886719 -64.371094 4.886719 -37.015625 C 4.886719 -11.941406 14.761719 0.976562 30.285156 0.976562 C 45.484375 0.976562 55.035156 -12.59375 55.035156 -37.339844 C 55.035156 -65.457031 42.445312 -75.007812 30.070312 -75.007812 Z M 37.992188 -37.992188 C 37.992188 -17.800781 35.386719 -12.808594 30.070312 -12.808594 C 25.183594 -12.808594 22.035156 -17.695312 22.035156 -37.015625 C 22.035156 -55.578125 24.75 -61.113281 29.960938 -61.113281 C 36.039062 -61.113281 37.992188 -53.515625 37.992188 -37.992188 Z M 37.992188 -37.992188 "/></g></g></g></svg>