<svg xmlns="http://www.w3.org/2000/svg" xmlns:xlink="http://www.w3.org/1999/xlink" width="600" zoomAndPan="magnify" viewBox="0 0 450 149.999998" height="200" preserveAspectRatio="xMidYMid meet" version="1.2"><defs><clipPath id="fa4157bf82"><path d="M 334 37.082031 L 369.171875 37.082031 L 369.171875 78 L 334 78 Z M 334 37.082031 "/></clipPath><clipPath id="cb004de170"><path d="M 344 81 L 357 81 L 357 94.082031 L 344 94.082031 Z M 344 81 "/></clipPath></defs><g id="700d004f06"><rect x="0" width="450" y="0" height="149.999998" style="fill:#ffffff;fill-opacity:1;stroke:none;"/><rect x="0" width="450" y="0" height="149.999998" style="fill:#ffffff;fill-opacity:1;stroke:none;"/><path style="fill-rule:nonzero;fill:#000000;fill-opacity:1;stroke-width:1;stroke-linecap:butt;stroke-linejoin:miter;stroke:#0c7b3b;stroke-opacity:1;stroke-miterlimit:4;" d="M 0.499995 0.999997 L 0.499995 199.000009 M 599.50003 0.999997 L 599.50003 199.000009 M -0.000005 0.499997 L 600.00003 0.499997 M -0.000005 199.500009 L 600.00003 199.500009 " transform="matrix(0.75,0,0,0.75,0.00000375,0.000002)"/><g style="fill:#0c7b3b;fill-opacity:1;"><g transform="translate(66.644193, 94.441975)"><path style="stroke:none" d="M 7.917969 -54.550781 L 7.917969 -23.4375 C 10.078125 -23.996094 12.316406 -24.238281 14.636719 -24.238281 C 20.957031 -24.238281 25.355469 -21.277344 25.355469 -16.398438 C 25.355469 -12.398438 22.15625 -8.878906 16.71875 -8.878906 C 13.839844 -8.878906 10 -9.519531 5.121094 -12.160156 L 5.121094 -2.238281 C 7.839844 -0.640625 13.757812 0.71875 18.316406 0.71875 C 31.355469 0.71875 38.074219 -6.640625 38.074219 -17.039062 C 38.074219 -26.554688 30.636719 -33.433594 20.957031 -33.433594 C 20.078125 -33.433594 19.4375 -33.355469 18.796875 -33.355469 L 18.796875 -43.59375 L 36.234375 -43.59375 L 36.234375 -54.550781 Z M 7.917969 -54.550781 "/></g></g><g style="fill:#0c7b3b;fill-opacity:1;"><g transform="translate(110.794801, 94.441975)"><path style="stroke:none" d=""/></g></g><g style="fill:#0c7b3b;fill-opacity:1;"><g transform="translate(133.03007, 94.441975)"><path style="stroke:none" d="M 0.320312 -36.875 L 15.039062 -18.878906 L 0.320312 0 L 14.078125 0 L 22.15625 -10.71875 L 30.476562 0 L 44.632812 0 L 29.355469 -18.878906 L 43.515625 -36.875 L 29.355469 -36.875 L 22.15625 -26.957031 L 14.558594 -36.875 Z M 0.320312 -36.875 "/></g></g><g style="fill:#0c7b3b;fill-opacity:1;"><g transform="translate(177.900528, 94.441975)"><path style="stroke:none" d=""/></g></g><g style="fill:#0c7b3b;fill-opacity:1;"><g transform="translate(200.135797, 94.441975)"><path style="stroke:none" d="M 5.121094 -54.550781 L 5.121094 -43.675781 L 25.277344 -43.675781 L 10.636719 -3.441406 L 21.515625 0.71875 L 41.433594 -53.914062 L 41.433594 -54.550781 Z M 5.121094 -54.550781 "/></g></g><g style="fill:#0c7b3b;fill-opacity:1;"><g transform="translate(244.286404, 94.441975)"><path style="stroke:none" d=""/></g></g><g style="fill:#0c7b3b;fill-opacity:1;"><g transform="translate(266.521674, 94.441975)"><path style="stroke:none" d="M 3.28125 -41.113281 L 3.28125 -30.796875 L 43.355469 -30.796875 L 43.355469 -41.113281 Z M 3.28125 -23.757812 L 3.28125 -13.519531 L 43.355469 -13.519531 L 43.355469 -23.757812 Z M 3.28125 -23.757812 "/></g></g><g style="fill:#0c7b3b;fill-opacity:1;"><g transform="translate(313.156395, 94.441975)"><path style="stroke:none" d=""/></g></g><g clip-rule="nonzero" clip-path="url(#fa4157bf82)"><path style=" stroke:none;fill-rule:nonzero;fill:#000000;fill-opacity:1;" d="M 366.839844 43.695312 C 365.324219 41.550781 363.234375 39.910156 360.570312 38.78125 C 357.917969 37.652344 354.847656 37.082031 351.378906 37.082031 C 348.222656 37.082031 345.339844 37.640625 342.730469 38.757812 C 340.125 39.863281 338.023438 41.5625 336.4375 43.808594 C 335.171875 45.597656 334.390625 47.765625 334.070312 50.304688 C 333.933594 51.414062 334.816406 52.390625 335.941406 52.390625 L 342.925781 52.390625 C 343.824219 52.390625 344.582031 51.765625 344.777344 50.898438 C 344.949219 50.125 345.234375 49.429688 345.636719 48.835938 C 346.28125 47.878906 347.109375 47.148438 348.117188 46.660156 C 349.128906 46.167969 350.199219 45.917969 351.335938 45.917969 C 352.507812 45.917969 353.5625 46.15625 354.539062 46.648438 C 355.503906 47.125 356.273438 47.820312 356.847656 48.722656 C 357.421875 49.621094 357.710938 50.660156 357.710938 51.855469 C 357.710938 52.984375 357.457031 54 356.953125 54.902344 C 356.445312 55.800781 355.769531 56.632812 354.917969 57.375 C 354.058594 58.125 353.101562 58.832031 352.023438 59.527344 C 350.578125 60.429688 349.335938 61.433594 348.3125 62.539062 C 347.28125 63.644531 346.511719 65.09375 345.96875 66.894531 C 345.441406 68.695312 345.167969 71.101562 345.15625 74.121094 L 345.15625 75.625 C 345.15625 76.652344 345.992188 77.496094 347.039062 77.496094 L 353.183594 77.496094 C 354.21875 77.496094 355.066406 76.664062 355.066406 75.625 L 355.066406 74.121094 C 355.089844 72.421875 355.308594 70.996094 355.734375 69.847656 C 356.160156 68.695312 356.8125 67.667969 357.6875 66.789062 C 358.570312 65.914062 359.695312 65.070312 361.074219 64.25 C 362.71875 63.28125 364.128906 62.195312 365.335938 60.988281 C 366.53125 59.792969 367.472656 58.398438 368.148438 56.839844 C 368.816406 55.277344 369.160156 53.476562 369.160156 51.457031 C 369.125 48.425781 368.355469 45.835938 366.839844 43.695312 Z M 366.839844 43.695312 "/></g><g clip-rule="nonzero" clip-path="url(#cb004de170)"><path style=" stroke:none;fill-rule:nonzero;fill:#000000;fill-opacity:1;" d="M 350.300781 81.691406 C 348.554688 81.691406 347.074219 82.292969 345.84375 83.503906 C 344.613281 84.710938 344.007812 86.171875 344.027344 87.859375 C 344.007812 89.566406 344.613281 91.039062 345.84375 92.257812 C 347.074219 93.476562 348.554688 94.082031 350.300781 94.082031 C 351.414062 94.082031 352.449219 93.796875 353.378906 93.238281 C 354.320312 92.667969 355.078125 91.929688 355.664062 90.980469 C 356.25 90.035156 356.550781 88.996094 356.5625 87.859375 C 356.539062 86.160156 355.90625 84.710938 354.652344 83.503906 C 353.414062 82.292969 351.953125 81.691406 350.300781 81.691406 Z M 350.300781 81.691406 "/></g></g></svg>