<svg xmlns="http://www.w3.org/2000/svg" xmlns:xlink="http://www.w3.org/1999/xlink" width="600" zoomAndPan="magnify" viewBox="0 0 450 149.999998" height="200" preserveAspectRatio="xMidYMid meet" version="1.2"><defs><clipPath id="82e902571d"><path d="M 142 75 L 146 75 L 146 78.359375 L 142 78.359375 Z M 142 75 "/></clipPath><clipPath id="382c9df179"><path d="M 138.230469 57.359375 L 150.980469 57.359375 L 150.980469 73 L 138.230469 73 Z M 138.230469 57.359375 "/></clipPath><clipPath id="f07e3459b3"><path d="M 138.230469 57.359375 L 150.980469 57.359375 L 150.980469 78.359375 L 138.230469 78.359375 Z M 138.230469 57.359375 "/></clipPath><clipPath id="dc9f841b27"><path d="M 281 75 L 284 75 L 284 78.359375 L 281 78.359375 Z M 281 75 "/></clipPath><clipPath id="43fbbb9878"><path d="M 280 75 L 284 75 L 284 78.359375 L 280 78.359375 Z M 280 75 "/></clipPath><clipPath id="ce306afcb0"><path d="M 276.3125 57.359375 L 289 57.359375 L 289 73 L 276.3125 73 Z M 276.3125 57.359375 "/></clipPath><clipPath id="4b7e9c433e"><path d="M 276.3125 57.359375 L 289.0625 57.359375 L 289.0625 78.359375 L 276.3125 78.359375 Z M 276.3125 57.359375 "/></clipPath></defs><g id="a255eccaf1"><rect x="0" width="450" y="0" height="149.999998" style="fill:#ffffff;fill-opacity:1;stroke:none;"/><rect x="0" width="450" y="0" height="149.999998" style="fill:#ffffff;fill-opacity:1;stroke:none;"/><path style="fill-rule:nonzero;fill:#000000;fill-opacity:1;stroke-width:1;stroke-linecap:butt;stroke-linejoin:miter;stroke:#0c7b3b;stroke-opacity:1;stroke-miterlimit:4;" d="M 0.499995 0.999997 L 0.499995 199.000009 M 599.50003 0.999997 L 599.50003 199.000009 M -0.000005 0.499997 L 600.00003 0.499997 M -0.000005 199.500009 L 600.00003 199.500009 " transform="matrix(0.75,0,0,0.75,0.00000375,0.000002)"/><g style="fill:#0c7b3b;fill-opacity:1;"><g transform="translate(59.924347, 82.124992)"><path style="stroke:none" d="M 11.566406 -31.46875 C 8.152344 -31.46875 5.691406 -30.285156 2.867188 -28.507812 L 2.867188 -21.996094 C 5.375 -24.410156 8.332031 -25.867188 10.335938 -25.867188 C 12.707031 -25.867188 14.527344 -23.816406 14.527344 -21.496094 C 14.527344 -18.582031 12.980469 -15.074219 8.289062 -8.652344 C 5.964844 -5.511719 4.007812 -2.867188 2.460938 -0.910156 L 2.460938 0 L 22.996094 0 L 22.996094 -6.328125 L 12.980469 -6.328125 C 17.214844 -11.792969 18.035156 -13.253906 20.039062 -17.214844 C 20.949219 -19.082031 21.402344 -20.855469 21.402344 -22.769531 C 21.402344 -27.414062 18.351562 -31.46875 11.566406 -31.46875 Z M 11.566406 -31.46875 "/></g></g><g style="fill:#0c7b3b;fill-opacity:1;"><g transform="translate(85.061923, 82.124992)"><path style="stroke:none" d="M 10.519531 -31.46875 C 8.195312 -31.46875 5.464844 -31.011719 3.414062 -30.101562 L 3.414062 -24.636719 C 5.828125 -25.867188 7.421875 -26.277344 9.246094 -26.277344 C 11.566406 -26.277344 13.570312 -24.773438 13.570312 -22.632812 C 13.570312 -20.855469 12.023438 -19.082031 9.289062 -18.855469 L 9.289062 -13.390625 C 12.476562 -13.070312 14.070312 -11.292969 14.070312 -9.0625 C 14.070312 -6.785156 12.113281 -5.007812 9.472656 -5.007812 C 7.148438 -5.007812 4.78125 -5.828125 2.640625 -7.378906 L 2.640625 -1.367188 C 4.828125 -0.183594 7.789062 0.410156 10.429688 0.410156 C 16.347656 0.410156 21.3125 -2.6875 21.3125 -8.652344 C 21.3125 -12.796875 19.398438 -15.210938 15.847656 -16.667969 C 18.71875 -18.035156 20.449219 -20.949219 20.449219 -23.863281 C 20.449219 -28.507812 16.257812 -31.46875 10.519531 -31.46875 Z M 10.519531 -31.46875 "/></g></g><g style="fill:#0c7b3b;fill-opacity:1;"><g transform="translate(110.199498, 82.124992)"><path style="stroke:none" d="M 5.828125 -6.511719 C 4.097656 -6.511719 2.003906 -5.238281 2.003906 -3.003906 C 2.003906 -1.546875 2.824219 -0.226562 4.328125 0.410156 C 4.371094 0.636719 4.371094 0.867188 4.371094 1.09375 C 4.371094 2.867188 3.6875 4.691406 2.277344 6.285156 L 2.277344 7.695312 C 7.242188 7.195312 10.292969 2.6875 10.292969 -1.320312 C 10.292969 -5.511719 7.195312 -6.511719 5.828125 -6.511719 Z M 5.828125 -6.511719 "/></g></g><g style="fill:#0c7b3b;fill-opacity:1;"><g transform="translate(122.540588, 82.124992)"><path style="stroke:none" d="M -0.273438 3.414062 L -0.273438 5.691406 L 23.042969 5.691406 L 23.042969 3.414062 Z M -0.273438 3.414062 "/></g></g><g style="fill:#0c7b3b;fill-opacity:1;"><g transform="translate(145.31013, 82.124992)"><path style="stroke:none" d="M -0.273438 3.414062 L -0.273438 5.691406 L 23.042969 5.691406 L 23.042969 3.414062 Z M -0.273438 3.414062 "/></g></g><g style="fill:#0c7b3b;fill-opacity:1;"><g transform="translate(168.079671, 82.124992)"><path style="stroke:none" d="M 5.828125 -6.511719 C 4.097656 -6.511719 2.003906 -5.238281 2.003906 -3.003906 C 2.003906 -1.546875 2.824219 -0.226562 4.328125 0.410156 C 4.371094 0.636719 4.371094 0.867188 4.371094 1.09375 C 4.371094 2.867188 3.6875 4.691406 2.277344 6.285156 L 2.277344 7.695312 C 7.242188 7.195312 10.292969 2.6875 10.292969 -1.320312 C 10.292969 -5.511719 7.195312 -6.511719 5.828125 -6.511719 Z M 5.828125 -6.511719 "/></g></g><g style="fill:#0c7b3b;fill-opacity:1;"><g transform="translate(180.420761, 82.124992)"><path style="stroke:none" d=""/></g></g><g style="fill:#0c7b3b;fill-opacity:1;"><g transform="translate(193.080627, 82.124992)"><path style="stroke:none" d="M 11.566406 -31.46875 C 8.152344 -31.46875 5.691406 -30.285156 2.867188 -28.507812 L 2.867188 -21.996094 C 5.375 -24.410156 8.332031 -25.867188 10.335938 -25.867188 C 12.707031 -25.867188 14.527344 -23.816406 14.527344 -21.496094 C 14.527344 -18.582031 12.980469 -15.074219 8.289062 -8.652344 C 5.964844 -5.511719 4.007812 -2.867188 2.460938 -0.910156 L 2.460938 0 L 22.996094 0 L 22.996094 -6.328125 L 12.980469 -6.328125 C 17.214844 -11.792969 18.035156 -13.253906 20.039062 -17.214844 C 20.949219 -19.082031 21.402344 -20.855469 21.402344 -22.769531 C 21.402344 -27.414062 18.351562 -31.46875 11.566406 -31.46875 Z M 11.566406 -31.46875 "/></g></g><g style="fill:#0c7b3b;fill-opacity:1;"><g transform="translate(218.218202, 82.124992)"><path style="stroke:none" d="M 11.929688 -31.46875 C 6.328125 -31.46875 1.59375 -27.050781 1.59375 -20.765625 C 1.59375 -15.300781 5.464844 -10.929688 10.15625 -10.929688 C 10.929688 -10.929688 11.339844 -11.066406 12.160156 -11.25 L 5.007812 0.410156 L 12.613281 0.410156 L 18.035156 -8.378906 C 20.855469 -12.980469 22.179688 -16.757812 22.179688 -20.992188 C 22.179688 -27.277344 17.257812 -31.46875 11.929688 -31.46875 Z M 8.289062 -20.992188 C 8.289062 -23.726562 9.746094 -25.640625 11.75 -25.640625 C 13.796875 -25.640625 15.210938 -24.046875 15.210938 -20.992188 C 15.210938 -18.308594 13.796875 -16.394531 11.75 -16.394531 C 9.792969 -16.394531 8.289062 -18.125 8.289062 -20.992188 Z M 8.289062 -20.992188 "/></g></g><g style="fill:#0c7b3b;fill-opacity:1;"><g transform="translate(243.355778, 82.124992)"><path style="stroke:none" d="M 5.828125 -6.511719 C 4.097656 -6.511719 2.003906 -5.238281 2.003906 -3.003906 C 2.003906 -1.546875 2.824219 -0.226562 4.328125 0.410156 C 4.371094 0.636719 4.371094 0.867188 4.371094 1.09375 C 4.371094 2.867188 3.6875 4.691406 2.277344 6.285156 L 2.277344 7.695312 C 7.242188 7.195312 10.292969 2.6875 10.292969 -1.320312 C 10.292969 -5.511719 7.195312 -6.511719 5.828125 -6.511719 Z M 5.828125 -6.511719 "/></g></g><g style="fill:#0c7b3b;fill-opacity:1;"><g transform="translate(255.696857, 82.124992)"><path style="stroke:none" d="M -0.273438 3.414062 L -0.273438 5.691406 L 23.042969 5.691406 L 23.042969 3.414062 Z M -0.273438 3.414062 "/></g></g><g style="fill:#0c7b3b;fill-opacity:1;"><g transform="translate(278.46641, 82.124992)"><path style="stroke:none" d="M -0.273438 3.414062 L -0.273438 5.691406 L 23.042969 5.691406 L 23.042969 3.414062 Z M -0.273438 3.414062 "/></g></g><g style="fill:#0c7b3b;fill-opacity:1;"><g transform="translate(301.235963, 82.124992)"><path style="stroke:none" d="M 5.828125 -6.511719 C 4.097656 -6.511719 2.003906 -5.238281 2.003906 -3.003906 C 2.003906 -1.546875 2.824219 -0.226562 4.328125 0.410156 C 4.371094 0.636719 4.371094 0.867188 4.371094 1.09375 C 4.371094 2.867188 3.6875 4.691406 2.277344 6.285156 L 2.277344 7.695312 C 7.242188 7.195312 10.292969 2.6875 10.292969 -1.320312 C 10.292969 -5.511719 7.195312 -6.511719 5.828125 -6.511719 Z M 5.828125 -6.511719 "/></g></g><g style="fill:#0c7b3b;fill-opacity:1;"><g transform="translate(313.577042, 82.124992)"><path style="stroke:none" d=""/></g></g><g style="fill:#0c7b3b;fill-opacity:1;"><g transform="translate(326.236908, 82.124992)"><path style="stroke:none" d="M 10.519531 -31.46875 C 8.195312 -31.46875 5.464844 -31.011719 3.414062 -30.101562 L 3.414062 -24.636719 C 5.828125 -25.867188 7.421875 -26.277344 9.246094 -26.277344 C 11.566406 -26.277344 13.570312 -24.773438 13.570312 -22.632812 C 13.570312 -20.855469 12.023438 -19.082031 9.289062 -18.855469 L 9.289062 -13.390625 C 12.476562 -13.070312 14.070312 -11.292969 14.070312 -9.0625 C 14.070312 -6.785156 12.113281 -5.007812 9.472656 -5.007812 C 7.148438 -5.007812 4.78125 -5.828125 2.640625 -7.378906 L 2.640625 -1.367188 C 4.828125 -0.183594 7.789062 0.410156 10.429688 0.410156 C 16.347656 0.410156 21.3125 -2.6875 21.3125 -8.652344 C 21.3125 -12.796875 19.398438 -15.210938 15.847656 -16.667969 C 18.71875 -18.035156 20.449219 -20.949219 20.449219 -23.863281 C 20.449219 -28.507812 16.257812 -31.46875 10.519531 -31.46875 Z M 10.519531 -31.46875 "/></g></g><g style="fill:#0c7b3b;fill-opacity:1;"><g transform="translate(351.374495, 82.124992)"><path style="stroke:none" d="M 4.507812 -31.058594 L 4.507812 -13.34375 C 5.738281 -13.660156 7.011719 -13.796875 8.332031 -13.796875 C 11.929688 -13.796875 14.4375 -12.113281 14.4375 -9.335938 C 14.4375 -7.058594 12.613281 -5.054688 9.519531 -5.054688 C 7.878906 -5.054688 5.691406 -5.417969 2.914062 -6.921875 L 2.914062 -1.273438 C 4.464844 -0.363281 7.832031 0.410156 10.429688 0.410156 C 17.851562 0.410156 21.675781 -3.78125 21.675781 -9.699219 C 21.675781 -15.121094 17.441406 -19.035156 11.929688 -19.035156 C 11.429688 -19.035156 11.066406 -18.988281 10.703125 -18.988281 L 10.703125 -24.820312 L 20.628906 -24.820312 L 20.628906 -31.058594 Z M 4.507812 -31.058594 "/></g></g><g clip-rule="nonzero" clip-path="url(#82e902571d)"><path style="fill-rule:evenodd;fill:#000000;fill-opacity:1;stroke-width:2;stroke-linecap:butt;stroke-linejoin:miter;stroke:#000000;stroke-opacity:1;stroke-miterlimit:22.926001;" d="M 86.023348 163.79618 L 109.241731 163.79618 L 109.241731 186.989925 L 86.023348 186.989925 Z M 86.023348 163.79618 " transform="matrix(0.116758,0,0,0.118566,132.928722,56.044112)"/></g><g clip-rule="nonzero" clip-path="url(#382c9df179)"><path style=" stroke:none;fill-rule:evenodd;fill:#000000;fill-opacity:1;" d="M 143.402344 72.699219 C 143.394531 72.378906 143.390625 72.136719 143.390625 71.976562 C 143.390625 71.023438 143.523438 70.207031 143.789062 69.519531 C 143.984375 68.996094 144.296875 68.472656 144.730469 67.945312 C 145.046875 67.558594 145.621094 67 146.441406 66.261719 C 147.269531 65.523438 147.800781 64.933594 148.050781 64.496094 C 148.300781 64.050781 148.421875 63.570312 148.421875 63.050781 C 148.421875 62.105469 148.0625 61.273438 147.335938 60.558594 C 146.613281 59.839844 145.730469 59.484375 144.679688 59.484375 C 143.664062 59.484375 142.816406 59.808594 142.140625 60.457031 C 141.460938 61.109375 141.015625 62.121094 140.804688 63.503906 L 138.363281 63.199219 C 138.585938 61.359375 139.234375 59.945312 140.324219 58.96875 C 141.414062 57.992188 142.851562 57.5 144.640625 57.5 C 146.535156 57.5 148.042969 58.023438 149.171875 59.074219 C 150.296875 60.125 150.863281 61.394531 150.863281 62.886719 C 150.863281 63.75 150.664062 64.542969 150.265625 65.269531 C 149.867188 66 149.089844 66.882812 147.933594 67.921875 C 147.15625 68.621094 146.652344 69.132812 146.410156 69.464844 C 146.171875 69.792969 145.996094 70.175781 145.882812 70.605469 C 145.769531 71.035156 145.703125 71.730469 145.683594 72.699219 Z M 143.402344 72.699219 "/></g><g clip-rule="nonzero" clip-path="url(#f07e3459b3)"><path style="fill:none;stroke-width:2;stroke-linecap:butt;stroke-linejoin:miter;stroke:#000000;stroke-opacity:1;stroke-miterlimit:22.926001;" d="M 89.703496 140.470652 C 89.636584 137.769108 89.603128 135.726477 89.603128 134.375705 C 89.603128 126.336964 90.740628 119.451321 93.015628 113.652884 C 94.688422 109.238166 97.364893 104.823447 101.078496 100.375783 C 103.788422 97.114163 108.706437 92.402933 115.732173 86.176203 C 122.82482 79.949473 127.37482 74.974679 129.515997 71.284765 C 131.657173 67.528959 132.694305 63.476643 132.694305 59.09487 C 132.694305 51.12202 129.616364 44.104595 123.39357 38.075539 C 117.204232 32.013537 109.643202 29.015482 100.643569 29.015482 C 91.94504 29.015482 84.685113 31.749972 78.897245 37.218952 C 73.075922 42.720877 69.261951 51.253803 67.455333 62.916567 L 46.545406 60.346805 C 48.452392 44.829399 54.006068 32.90307 63.34026 24.666655 C 72.674451 16.43024 84.986216 12.279086 100.309011 12.279086 C 116.535114 12.279086 129.449085 16.693805 139.117835 25.556188 C 148.753129 34.41857 153.604232 45.12591 153.604232 57.711152 C 153.604232 64.992143 151.897982 71.680113 148.485482 77.808005 C 145.072982 83.968844 138.415261 91.414563 128.51232 100.178109 C 121.854599 106.075382 117.53879 110.391264 115.464526 113.191645 C 113.423717 115.959081 111.918202 119.187755 110.947981 122.811778 C 109.977761 126.435801 109.409011 132.300128 109.241731 140.470652 Z M 89.703496 140.470652 " transform="matrix(0.116758,0,0,0.118566,132.928722,56.044112)"/></g><g clip-rule="nonzero" clip-path="url(#dc9f841b27)"><path style=" stroke:none;fill-rule:evenodd;fill:#000000;fill-opacity:1;" d="M 281.050781 75.464844 L 283.761719 75.464844 L 283.761719 78.214844 L 281.050781 78.214844 Z M 281.050781 75.464844 "/></g><g clip-rule="nonzero" clip-path="url(#43fbbb9878)"><path style="fill:none;stroke-width:2;stroke-linecap:butt;stroke-linejoin:miter;stroke:#000000;stroke-opacity:1;stroke-miterlimit:22.926001;" d="M 85.995854 163.79618 L 109.214237 163.79618 L 109.214237 186.989925 L 85.995854 186.989925 Z M 85.995854 163.79618 " transform="matrix(0.116758,0,0,0.118566,271.010057,56.044112)"/></g><g clip-rule="nonzero" clip-path="url(#ce306afcb0)"><path style=" stroke:none;fill-rule:evenodd;fill:#000000;fill-opacity:1;" d="M 281.484375 72.699219 C 281.476562 72.378906 281.472656 72.136719 281.472656 71.976562 C 281.472656 71.023438 281.605469 70.207031 281.871094 69.519531 C 282.066406 68.996094 282.375 68.472656 282.8125 67.945312 C 283.128906 67.558594 283.703125 67 284.523438 66.261719 C 285.351562 65.523438 285.882812 64.933594 286.132812 64.496094 C 286.382812 64.050781 286.503906 63.570312 286.503906 63.050781 C 286.503906 62.105469 286.140625 61.273438 285.417969 60.558594 C 284.695312 59.839844 283.808594 59.484375 282.761719 59.484375 C 281.746094 59.484375 280.898438 59.808594 280.222656 60.457031 C 279.539062 61.109375 279.097656 62.121094 278.882812 63.503906 L 276.445312 63.199219 C 276.664062 61.359375 277.316406 59.945312 278.40625 58.96875 C 279.496094 57.992188 280.933594 57.5 282.722656 57.5 C 284.613281 57.5 286.125 58.023438 287.253906 59.074219 C 288.378906 60.125 288.945312 61.394531 288.945312 62.886719 C 288.945312 63.75 288.746094 64.542969 288.347656 65.269531 C 287.949219 66 287.171875 66.882812 286.015625 67.921875 C 285.238281 68.621094 284.734375 69.132812 284.492188 69.464844 C 284.253906 69.792969 284.078125 70.175781 283.964844 70.605469 C 283.851562 71.035156 283.785156 71.730469 283.765625 72.699219 Z M 281.484375 72.699219 "/></g><g clip-rule="nonzero" clip-path="url(#4b7e9c433e)"><path style="fill:none;stroke-width:2;stroke-linecap:butt;stroke-linejoin:miter;stroke:#000000;stroke-opacity:1;stroke-miterlimit:22.926001;" d="M 89.709457 140.470652 C 89.642546 137.769108 89.60909 135.726477 89.60909 134.375705 C 89.60909 126.336964 90.74659 119.451321 93.02159 113.652884 C 94.694384 109.238166 97.337399 104.823447 101.084458 100.375783 C 103.794384 97.114163 108.712399 92.402933 115.738135 86.176203 C 122.830782 79.949473 127.380782 74.974679 129.521958 71.284765 C 131.663135 67.528959 132.700267 63.476643 132.700267 59.09487 C 132.700267 51.12202 129.58887 44.104595 123.399532 38.075539 C 117.210193 32.013537 109.615708 29.015482 100.649531 29.015482 C 91.951002 29.015482 84.691075 31.749972 78.903207 37.218952 C 73.048428 42.720877 69.267913 51.253803 67.427839 62.916567 L 46.551368 60.346805 C 48.424898 44.829399 54.01203 32.90307 63.346222 24.666655 C 72.680413 16.43024 84.992178 12.279086 100.314972 12.279086 C 116.50762 12.279086 129.455047 16.693805 139.123797 25.556188 C 148.759091 34.41857 153.610194 45.12591 153.610194 57.711152 C 153.610194 64.992143 151.903944 71.680113 148.491444 77.808005 C 145.078944 83.968844 138.421223 91.414563 128.518282 100.178109 C 121.860561 106.075382 117.544752 110.391264 115.470488 113.191645 C 113.429679 115.959081 111.924164 119.187755 110.953943 122.811778 C 109.983723 126.435801 109.414973 132.300128 109.247693 140.470652 Z M 89.709457 140.470652 " transform="matrix(0.116758,0,0,0.118566,271.010057,56.044112)"/></g></g></svg>