<svg xmlns="http://www.w3.org/2000/svg" xmlns:xlink="http://www.w3.org/1999/xlink" width="600" zoomAndPan="magnify" viewBox="0 0 450 149.999998" height="200" preserveAspectRatio="xMidYMid meet" version="1.2"><defs><clipPath id="1b7ec73030"><path d="M 167.414062 0.75 L 286 0.75 L 286 42.75 L 167.414062 42.75 Z M 167.414062 0.75 "/></clipPath><clipPath id="1a8f305b41"><path d="M 167.414062 0.75 L 286.664062 0.75 L 286.664062 42.75 L 167.414062 42.75 Z M 167.414062 0.75 "/></clipPath><clipPath id="4652ff52ea"><path d="M 167.75 45.765625 L 287 45.765625 L 287 87.765625 L 167.75 87.765625 Z M 167.75 45.765625 "/></clipPath><clipPath id="378eac8547"><path d="M 251.558594 61.578125 L 260.558594 61.578125 L 260.558594 73 L 251.558594 73 Z M 251.558594 61.578125 "/></clipPath><clipPath id="2ba8710b79"><path d="M 254 73 L 258 73 L 258 76.578125 L 254 76.578125 Z M 254 73 "/></clipPath><clipPath id="6bb5b256dd"><path d="M 110.898438 99.34375 L 347.898438 99.34375 L 347.898438 132 L 110.898438 132 Z M 110.898438 99.34375 "/></clipPath><clipPath id="480e532fe8"><path d="M 110.898438 99.34375 L 347.898438 99.34375 L 347.898438 132.34375 L 110.898438 132.34375 Z M 110.898438 99.34375 "/></clipPath><clipPath id="91b833091b"><path d="M 110.898438 134.511719 L 347.898438 134.511719 L 347.898438 148 L 110.898438 148 Z M 110.898438 134.511719 "/></clipPath><clipPath id="8cf32e0662"><path d="M 187.691406 56.5 L 207.941406 56.5 L 207.941406 76.75 L 187.691406 76.75 Z M 187.691406 56.5 "/></clipPath><clipPath id="b09d40d958"><path d="M 187.355469 11.484375 L 207.605469 11.484375 L 207.605469 31.734375 L 187.355469 31.734375 Z M 187.355469 11.484375 "/></clipPath><clipPath id="a97870161b"><path d="M 235.542969 105.703125 L 255.792969 105.703125 L 255.792969 125.953125 L 235.542969 125.953125 Z M 235.542969 105.703125 "/></clipPath><clipPath id="cf202b15c3"><path d="M 260.308594 105.703125 L 280.558594 105.703125 L 280.558594 125.953125 L 260.308594 125.953125 Z M 260.308594 105.703125 "/></clipPath><clipPath id="fe1149cf42"><path d="M 236.0625 12.546875 L 253.476562 12.546875 L 253.476562 30.605469 L 236.0625 30.605469 Z M 236.0625 12.546875 "/></clipPath><clipPath id="319ac41296"><path d="M 260.828125 12.546875 L 278.238281 12.546875 L 278.238281 30.605469 L 260.828125 30.605469 Z M 260.828125 12.546875 "/></clipPath><clipPath id="bcf921a7c8"><path d="M 178.609375 107.824219 L 196.019531 107.824219 L 196.019531 125.882812 L 178.609375 125.882812 Z M 178.609375 107.824219 "/></clipPath><clipPath id="766bd92509"><path d="M 203.375 107.824219 L 220.785156 107.824219 L 220.785156 125.882812 L 203.375 125.882812 Z M 203.375 107.824219 "/></clipPath><clipPath id="d23f3249ed"><path d="M 295.542969 106.761719 L 315.792969 106.761719 L 315.792969 127 L 295.542969 127 Z M 295.542969 106.761719 "/></clipPath><clipPath id="386c4fc163"><path d="M 320.308594 106.761719 L 340.558594 106.761719 L 340.558594 127 L 320.308594 127 Z M 320.308594 106.761719 "/></clipPath><clipPath id="d41d78f3c2"><path d="M 120.019531 107.824219 L 137.429688 107.824219 L 137.429688 125.882812 L 120.019531 125.882812 Z M 120.019531 107.824219 "/></clipPath><clipPath id="b421f97263"><path d="M 144.785156 107.824219 L 162.195312 107.824219 L 162.195312 125.882812 L 144.785156 125.882812 Z M 144.785156 107.824219 "/></clipPath></defs><g id="7eeb397d03"><rect x="0" width="450" y="0" height="149.999998" style="fill:#ffffff;fill-opacity:1;stroke:none;"/><rect x="0" width="450" y="0" height="149.999998" style="fill:#ffffff;fill-opacity:1;stroke:none;"/><g clip-rule="nonzero" clip-path="url(#1b7ec73030)"><path style=" stroke:none;fill-rule:nonzero;fill:#000000;fill-opacity:1;" d="M 167.621094 1.160156 L 167.621094 41.992188 M 227.078125 1.160156 L 227.078125 41.992188 M 285.710938 1.160156 L 285.710938 41.992188 M 167.414062 0.953125 L 285.917969 0.953125 M 167.414062 42.195312 L 285.917969 42.195312 "/></g><g clip-rule="nonzero" clip-path="url(#1a8f305b41)"><path style="fill:none;stroke-width:0.545523;stroke-linecap:butt;stroke-linejoin:miter;stroke:#000000;stroke-opacity:1;stroke-miterlimit:4;" d="M 0.275033 0.546872 L 0.275033 54.989584 M 79.55108 0.546872 L 79.55108 54.989584 M 157.728167 0.546872 L 157.728167 54.989584 M -0.00100838 0.270831 L 158.004209 0.270831 M -0.00100838 55.260417 L 158.004209 55.260417 " transform="matrix(0.75,0,0,0.75,167.414819,0.750002)"/></g><g clip-rule="nonzero" clip-path="url(#4652ff52ea)"><path style="fill-rule:nonzero;fill:#000000;fill-opacity:1;stroke-width:0.545523;stroke-linecap:butt;stroke-linejoin:miter;stroke:#000000;stroke-opacity:1;stroke-miterlimit:4;" d="M 0.272001 0.545991 L 0.272001 54.988702 M 79.548047 0.545991 L 79.548047 54.988702 M 157.730343 0.545991 L 157.730343 54.988702 M 0.00116751 0.275158 L 158.001177 0.275158 M 0.00116751 55.259536 L 158.001177 55.259536 " transform="matrix(0.75,0,0,0.75,167.749124,45.766288)"/></g><g clip-rule="nonzero" clip-path="url(#378eac8547)"><path style=" stroke:none;fill-rule:nonzero;fill:#000000;fill-opacity:1;" d="M 259.964844 63.320312 C 259.578125 62.753906 259.046875 62.324219 258.363281 62.027344 C 257.6875 61.730469 256.902344 61.578125 256.015625 61.578125 C 255.210938 61.578125 254.472656 61.726562 253.808594 62.019531 C 253.140625 62.3125 252.605469 62.757812 252.199219 63.351562 C 251.875 63.820312 251.675781 64.390625 251.59375 65.058594 C 251.558594 65.351562 251.785156 65.609375 252.074219 65.609375 L 253.855469 65.609375 C 254.085938 65.609375 254.28125 65.445312 254.328125 65.214844 C 254.375 65.011719 254.445312 64.828125 254.550781 64.671875 C 254.714844 64.421875 254.925781 64.230469 255.183594 64.097656 C 255.441406 63.96875 255.714844 63.90625 256.003906 63.90625 C 256.304688 63.90625 256.574219 63.96875 256.824219 64.097656 C 257.070312 64.222656 257.265625 64.40625 257.414062 64.640625 C 257.558594 64.878906 257.632812 65.152344 257.632812 65.46875 C 257.632812 65.765625 257.570312 66.03125 257.441406 66.269531 C 257.3125 66.503906 257.136719 66.722656 256.921875 66.917969 C 256.699219 67.117188 256.457031 67.304688 256.179688 67.488281 C 255.8125 67.722656 255.496094 67.988281 255.234375 68.277344 C 254.96875 68.570312 254.773438 68.949219 254.632812 69.425781 C 254.5 69.898438 254.429688 70.53125 254.425781 71.324219 L 254.425781 71.722656 C 254.425781 71.992188 254.640625 72.214844 254.90625 72.214844 L 256.476562 72.214844 C 256.742188 72.214844 256.957031 71.996094 256.957031 71.722656 L 256.957031 71.324219 C 256.964844 70.878906 257.019531 70.503906 257.128906 70.199219 C 257.238281 69.898438 257.40625 69.628906 257.628906 69.398438 C 257.855469 69.167969 258.140625 68.945312 258.492188 68.726562 C 258.914062 68.472656 259.273438 68.1875 259.582031 67.871094 C 259.886719 67.554688 260.128906 67.1875 260.300781 66.777344 C 260.472656 66.367188 260.558594 65.894531 260.558594 65.363281 C 260.550781 64.566406 260.355469 63.882812 259.964844 63.320312 Z M 259.964844 63.320312 "/></g><g clip-rule="nonzero" clip-path="url(#2ba8710b79)"><path style=" stroke:none;fill-rule:nonzero;fill:#000000;fill-opacity:1;" d="M 255.742188 73.316406 C 255.292969 73.316406 254.917969 73.476562 254.601562 73.792969 C 254.289062 74.113281 254.132812 74.496094 254.140625 74.941406 C 254.132812 75.390625 254.289062 75.777344 254.601562 76.097656 C 254.917969 76.417969 255.292969 76.578125 255.742188 76.578125 C 256.027344 76.578125 256.289062 76.503906 256.527344 76.355469 C 256.769531 76.207031 256.960938 76.011719 257.113281 75.761719 C 257.261719 75.515625 257.335938 75.242188 257.339844 74.941406 C 257.335938 74.492188 257.171875 74.113281 256.851562 73.792969 C 256.535156 73.476562 256.164062 73.316406 255.742188 73.316406 Z M 255.742188 73.316406 "/></g><g clip-rule="nonzero" clip-path="url(#6bb5b256dd)"><path style=" stroke:none;fill-rule:nonzero;fill:#000000;fill-opacity:1;" d="M 111.222656 100 L 111.222656 131.585938 M 170.039062 100 L 170.039062 131.585938 M 228.070312 100 L 228.070312 131.585938 M 287.675781 100 L 287.675781 131.585938 M 347.277344 100 L 347.277344 131.585938 M 110.898438 99.671875 L 347.601562 99.671875 M 110.898438 131.914062 L 347.601562 131.914062 "/></g><g clip-rule="nonzero" clip-path="url(#480e532fe8)"><path style="fill:none;stroke-width:0.871773;stroke-linecap:butt;stroke-linejoin:miter;stroke:#000000;stroke-opacity:1;stroke-miterlimit:4;" d="M 0.43428 0.874199 L 0.43428 42.988785 M 78.85616 0.874199 L 78.85616 42.988785 M 156.231164 0.874199 L 156.231164 42.988785 M 235.705127 0.874199 L 235.705127 42.988785 M 315.173882 0.874199 L 315.173882 42.988785 M 0.00198856 0.436699 L 315.606174 0.436699 M 0.00198856 43.426285 L 315.606174 43.426285 " transform="matrix(0.75,0,0,0.75,110.896946,99.344351)"/></g><g clip-rule="nonzero" clip-path="url(#91b833091b)"><path style="fill-rule:nonzero;fill:#000000;fill-opacity:1;stroke-width:0.871773;stroke-linecap:butt;stroke-linejoin:miter;stroke:#000000;stroke-opacity:1;stroke-miterlimit:4;" d="M 0.43428 0.871491 L 0.43428 17.0017 M 79.23116 0.871491 L 79.23116 17.0017 M 155.486373 0.871491 L 155.486373 17.0017 M 235.658252 0.871491 L 235.658252 17.0017 M 315.173882 0.871491 L 315.173882 17.0017 M 0.00198856 0.433991 L 315.606174 0.433991 M 0.00198856 17.433992 L 315.606174 17.433992 " transform="matrix(0.75,0,0,0.75,110.896946,134.510445)"/></g><g style="fill:#000000;fill-opacity:1;"><g transform="translate(197.404197, 143.417864)"><path style="stroke:none" d="M 0.28125 0 L 0.28125 -0.765625 L 1.421875 -1.84375 C 1.765625 -2.175781 2.035156 -2.476562 2.234375 -2.75 C 2.429688 -3.03125 2.566406 -3.316406 2.640625 -3.609375 C 2.722656 -3.898438 2.765625 -4.234375 2.765625 -4.609375 C 2.765625 -5.046875 2.710938 -5.363281 2.609375 -5.5625 C 2.503906 -5.757812 2.328125 -5.859375 2.078125 -5.859375 C 1.890625 -5.859375 1.742188 -5.800781 1.640625 -5.6875 C 1.546875 -5.570312 1.476562 -5.378906 1.4375 -5.109375 C 1.394531 -4.847656 1.375 -4.484375 1.375 -4.015625 C 1.0625 -4.015625 0.804688 -4.078125 0.609375 -4.203125 C 0.410156 -4.328125 0.3125 -4.523438 0.3125 -4.796875 C 0.3125 -5.117188 0.460938 -5.390625 0.765625 -5.609375 C 1.078125 -5.828125 1.53125 -5.9375 2.125 -5.9375 C 2.738281 -5.9375 3.203125 -5.816406 3.515625 -5.578125 C 3.835938 -5.335938 4 -5 4 -4.5625 C 4 -4.375 3.960938 -4.191406 3.890625 -4.015625 C 3.828125 -3.835938 3.707031 -3.644531 3.53125 -3.4375 C 3.351562 -3.226562 3.113281 -2.988281 2.8125 -2.71875 C 2.519531 -2.457031 2.144531 -2.148438 1.6875 -1.796875 L 0.546875 -0.90625 L 3.3125 -0.90625 C 3.570312 -0.90625 3.757812 -0.941406 3.875 -1.015625 C 4 -1.097656 4.070312 -1.25 4.09375 -1.46875 L 4.125 -1.71875 L 4.203125 -1.71875 L 4.15625 0 Z M 0.28125 0 "/></g></g><g style="fill:#000000;fill-opacity:1;"><g transform="translate(258.024188, 143.417864)"><path style="stroke:none" d="M 1.984375 0.078125 C 1.378906 0.078125 0.9375 -0.0195312 0.65625 -0.21875 C 0.375 -0.414062 0.234375 -0.644531 0.234375 -0.90625 C 0.234375 -1.113281 0.300781 -1.269531 0.4375 -1.375 C 0.570312 -1.488281 0.734375 -1.546875 0.921875 -1.546875 C 0.921875 -1.140625 0.960938 -0.828125 1.046875 -0.609375 C 1.140625 -0.390625 1.257812 -0.234375 1.40625 -0.140625 C 1.5625 -0.046875 1.738281 0 1.9375 0 C 2.289062 0 2.546875 -0.132812 2.703125 -0.40625 C 2.859375 -0.675781 2.9375 -1.066406 2.9375 -1.578125 C 2.9375 -1.941406 2.894531 -2.222656 2.8125 -2.421875 C 2.726562 -2.628906 2.585938 -2.773438 2.390625 -2.859375 C 2.191406 -2.941406 1.9375 -2.984375 1.625 -2.984375 L 1.171875 -2.984375 L 1.171875 -3.0625 L 1.625 -3.0625 C 1.914062 -3.0625 2.140625 -3.109375 2.296875 -3.203125 C 2.460938 -3.296875 2.578125 -3.445312 2.640625 -3.65625 C 2.710938 -3.863281 2.75 -4.140625 2.75 -4.484375 C 2.75 -4.984375 2.6875 -5.335938 2.5625 -5.546875 C 2.445312 -5.753906 2.28125 -5.859375 2.0625 -5.859375 C 1.769531 -5.859375 1.578125 -5.707031 1.484375 -5.40625 C 1.398438 -5.113281 1.359375 -4.703125 1.359375 -4.171875 C 1.023438 -4.171875 0.765625 -4.226562 0.578125 -4.34375 C 0.390625 -4.457031 0.296875 -4.640625 0.296875 -4.890625 C 0.296875 -5.179688 0.445312 -5.425781 0.75 -5.625 C 1.0625 -5.832031 1.515625 -5.9375 2.109375 -5.9375 C 2.691406 -5.9375 3.148438 -5.816406 3.484375 -5.578125 C 3.828125 -5.347656 4 -5.007812 4 -4.5625 C 4 -4.332031 3.941406 -4.109375 3.828125 -3.890625 C 3.710938 -3.671875 3.519531 -3.484375 3.25 -3.328125 C 2.988281 -3.179688 2.628906 -3.085938 2.171875 -3.046875 C 2.828125 -3.046875 3.328125 -2.921875 3.671875 -2.671875 C 4.023438 -2.429688 4.203125 -2.0625 4.203125 -1.5625 C 4.203125 -1.164062 4.097656 -0.847656 3.890625 -0.609375 C 3.679688 -0.367188 3.40625 -0.191406 3.0625 -0.078125 C 2.726562 0.0234375 2.367188 0.078125 1.984375 0.078125 Z M 1.984375 0.078125 "/></g></g><g style="fill:#000000;fill-opacity:1;"><g transform="translate(136.522877, 143.417864)"><path style="stroke:none" d="M 0.796875 0 L 0.796875 -0.078125 L 1.46875 -0.078125 C 1.601562 -0.078125 1.703125 -0.113281 1.765625 -0.1875 C 1.835938 -0.269531 1.875 -0.410156 1.875 -0.609375 L 1.875 -5.21875 C 1.625 -4.863281 1.425781 -4.609375 1.28125 -4.453125 C 1.132812 -4.296875 0.988281 -4.21875 0.84375 -4.21875 C 0.695312 -4.21875 0.578125 -4.257812 0.484375 -4.34375 C 0.390625 -4.4375 0.34375 -4.578125 0.34375 -4.765625 C 0.613281 -4.773438 0.835938 -4.800781 1.015625 -4.84375 C 1.203125 -4.882812 1.375 -4.960938 1.53125 -5.078125 C 1.695312 -5.191406 1.894531 -5.363281 2.125 -5.59375 L 2.421875 -5.890625 L 3.09375 -5.890625 L 3.09375 -0.609375 C 3.09375 -0.441406 3.117188 -0.3125 3.171875 -0.21875 C 3.234375 -0.125 3.347656 -0.078125 3.515625 -0.078125 L 4.1875 -0.078125 L 4.1875 0 Z M 0.796875 0 "/></g></g><g style="fill:#000000;fill-opacity:1;"><g transform="translate(315.723969, 143.991204)"><path style="stroke:none" d="M 1.46875 0 L 1.46875 -0.078125 L 1.703125 -0.078125 C 1.890625 -0.078125 2.046875 -0.109375 2.171875 -0.171875 C 2.304688 -0.242188 2.375 -0.410156 2.375 -0.671875 L 2.375 -1.53125 L 0.109375 -1.53125 L 0.109375 -2.03125 L 2.4375 -5.859375 L 3.578125 -5.859375 L 3.578125 -2.0625 L 4.421875 -2.0625 L 4.421875 -1.53125 L 3.578125 -1.53125 L 3.578125 -0.671875 C 3.578125 -0.410156 3.640625 -0.242188 3.765625 -0.171875 C 3.898438 -0.109375 4.0625 -0.078125 4.25 -0.078125 L 4.359375 -0.078125 L 4.359375 0 Z M 0.234375 -2.0625 L 2.375 -2.0625 L 2.375 -3.875 C 2.375 -4.175781 2.375 -4.488281 2.375 -4.8125 C 2.375 -5.132812 2.378906 -5.414062 2.390625 -5.65625 C 2.359375 -5.601562 2.304688 -5.519531 2.234375 -5.40625 C 2.171875 -5.289062 2.097656 -5.164062 2.015625 -5.03125 C 1.941406 -4.894531 1.867188 -4.769531 1.796875 -4.65625 C 1.722656 -4.539062 1.664062 -4.445312 1.625 -4.375 Z M 0.234375 -2.0625 "/></g></g><g clip-rule="nonzero" clip-path="url(#8cf32e0662)"><path style=" stroke:none;fill-rule:nonzero;fill:#061bb0;fill-opacity:1;" d="M 197.78125 76.679688 C 192.230469 76.679688 187.691406 72.140625 187.691406 66.589844 C 187.691406 61.042969 192.230469 56.5 197.78125 56.5 C 203.328125 56.5 207.871094 61.042969 207.871094 66.589844 C 207.871094 72.140625 203.328125 76.679688 197.78125 76.679688 Z M 197.78125 76.679688 "/></g><g clip-rule="nonzero" clip-path="url(#b09d40d958)"><path style=" stroke:none;fill-rule:nonzero;fill:#ff3131;fill-opacity:1;" d="M 197.445312 31.664062 C 191.898438 31.664062 187.355469 27.125 187.355469 21.574219 C 187.355469 16.027344 191.898438 11.484375 197.445312 11.484375 C 202.996094 11.484375 207.535156 16.027344 207.535156 21.574219 C 207.535156 27.125 202.996094 31.664062 197.445312 31.664062 Z M 197.445312 31.664062 "/></g><g clip-rule="nonzero" clip-path="url(#a97870161b)"><path style=" stroke:none;fill-rule:nonzero;fill:#061bb0;fill-opacity:1;" d="M 245.632812 125.882812 C 240.085938 125.882812 235.542969 121.339844 235.542969 115.792969 C 235.542969 110.242188 240.085938 105.703125 245.632812 105.703125 C 251.183594 105.703125 255.722656 110.242188 255.722656 115.792969 C 255.722656 121.339844 251.183594 125.882812 245.632812 125.882812 Z M 245.632812 125.882812 "/></g><g clip-rule="nonzero" clip-path="url(#cf202b15c3)"><path style=" stroke:none;fill-rule:nonzero;fill:#061bb0;fill-opacity:1;" d="M 270.398438 125.882812 C 264.851562 125.882812 260.308594 121.339844 260.308594 115.792969 C 260.308594 110.242188 264.851562 105.703125 270.398438 105.703125 C 275.949219 105.703125 280.488281 110.242188 280.488281 115.792969 C 280.488281 121.339844 275.949219 125.882812 270.398438 125.882812 Z M 270.398438 125.882812 "/></g><g clip-rule="nonzero" clip-path="url(#fe1149cf42)"><path style=" stroke:none;fill-rule:nonzero;fill:#061bb0;fill-opacity:1;" d="M 236.0625 12.546875 L 253.476562 12.546875 L 253.476562 30.570312 L 236.0625 30.570312 Z M 236.0625 12.546875 "/></g><g clip-rule="nonzero" clip-path="url(#319ac41296)"><path style=" stroke:none;fill-rule:nonzero;fill:#061bb0;fill-opacity:1;" d="M 260.828125 12.546875 L 278.238281 12.546875 L 278.238281 30.570312 L 260.828125 30.570312 Z M 260.828125 12.546875 "/></g><g clip-rule="nonzero" clip-path="url(#bcf921a7c8)"><path style=" stroke:none;fill-rule:nonzero;fill:#061bb0;fill-opacity:1;" d="M 178.609375 107.824219 L 196.019531 107.824219 L 196.019531 125.847656 L 178.609375 125.847656 Z M 178.609375 107.824219 "/></g><g clip-rule="nonzero" clip-path="url(#766bd92509)"><path style=" stroke:none;fill-rule:nonzero;fill:#061bb0;fill-opacity:1;" d="M 203.375 107.824219 L 220.785156 107.824219 L 220.785156 125.847656 L 203.375 125.847656 Z M 203.375 107.824219 "/></g><g clip-rule="nonzero" clip-path="url(#d23f3249ed)"><path style=" stroke:none;fill-rule:nonzero;fill:#ff3131;fill-opacity:1;" d="M 305.632812 126.941406 C 300.085938 126.941406 295.542969 122.402344 295.542969 116.851562 C 295.542969 111.304688 300.085938 106.761719 305.632812 106.761719 C 311.183594 106.761719 315.722656 111.304688 315.722656 116.851562 C 315.722656 122.402344 311.183594 126.941406 305.632812 126.941406 Z M 305.632812 126.941406 "/></g><g clip-rule="nonzero" clip-path="url(#386c4fc163)"><path style=" stroke:none;fill-rule:nonzero;fill:#ff3131;fill-opacity:1;" d="M 330.398438 126.941406 C 324.847656 126.941406 320.308594 122.402344 320.308594 116.851562 C 320.308594 111.304688 324.847656 106.761719 330.398438 106.761719 C 335.949219 106.761719 340.488281 111.304688 340.488281 116.851562 C 340.488281 122.402344 335.949219 126.941406 330.398438 126.941406 Z M 330.398438 126.941406 "/></g><g clip-rule="nonzero" clip-path="url(#d41d78f3c2)"><path style=" stroke:none;fill-rule:nonzero;fill:#ff3131;fill-opacity:1;" d="M 120.019531 107.824219 L 137.429688 107.824219 L 137.429688 125.847656 L 120.019531 125.847656 Z M 120.019531 107.824219 "/></g><g clip-rule="nonzero" clip-path="url(#b421f97263)"><path style=" stroke:none;fill-rule:nonzero;fill:#ff3131;fill-opacity:1;" d="M 144.785156 107.824219 L 162.195312 107.824219 L 162.195312 125.847656 L 144.785156 125.847656 Z M 144.785156 107.824219 "/></g></g></svg>