<svg xmlns="http://www.w3.org/2000/svg" xmlns:xlink="http://www.w3.org/1999/xlink" width="600" zoomAndPan="magnify" viewBox="0 0 450 149.999998" height="200" preserveAspectRatio="xMidYMid meet" version="1.2"><defs/><g id="1a2837e080"><rect x="0" width="450" y="0" height="149.999998" style="fill:#ffffff;fill-opacity:1;stroke:none;"/><rect x="0" width="450" y="0" height="149.999998" style="fill:#ffffff;fill-opacity:1;stroke:none;"/><path style="fill-rule:nonzero;fill:#000000;fill-opacity:1;stroke-width:1;stroke-linecap:butt;stroke-linejoin:miter;stroke:#0c7b3b;stroke-opacity:1;stroke-miterlimit:4;" d="M 0.499995 0.999997 L 0.499995 199.000009 M 599.50003 0.999997 L 599.50003 199.000009 M -0.000005 0.499997 L 600.00003 0.499997 M -0.000005 199.500009 L 600.00003 199.500009 " transform="matrix(0.75,0,0,0.75,0.00000375,0.000002)"/><g style="fill:#0c7b3b;fill-opacity:1;"><g transform="translate(102.961546, 112.613563)"><path style="stroke:none" d="M 30.417969 -82.746094 C 21.433594 -82.746094 14.96875 -79.632812 7.542969 -74.964844 L 7.542969 -57.839844 C 14.128906 -64.1875 21.914062 -68.019531 27.183594 -68.019531 C 33.410156 -68.019531 38.199219 -62.628906 38.199219 -56.523438 C 38.199219 -48.859375 34.128906 -39.636719 21.792969 -22.753906 C 15.6875 -14.488281 10.539062 -7.542969 6.464844 -2.394531 L 6.464844 0 L 60.472656 0 L 60.472656 -16.644531 L 34.128906 -16.644531 C 45.265625 -31.015625 47.421875 -34.847656 52.691406 -45.265625 C 55.085938 -50.175781 56.28125 -54.847656 56.28125 -59.875 C 56.28125 -72.089844 48.257812 -82.746094 30.417969 -82.746094 Z M 30.417969 -82.746094 "/></g></g><g style="fill:#0c7b3b;fill-opacity:1;"><g transform="translate(273.204022, 112.613563)"><path style="stroke:none" d="M 30.535156 -82.746094 L 16.40625 -59.875 C 7.902344 -46.105469 5.269531 -37.363281 5.269531 -27.542969 C 5.269531 -8.863281 18.203125 1.078125 32.691406 1.078125 C 48.140625 1.078125 59.394531 -11.136719 59.394531 -27.0625 C 59.394531 -40.953125 49.816406 -52.570312 36.523438 -52.570312 C 35.085938 -52.570312 34.128906 -52.449219 31.734375 -51.851562 L 50.65625 -82.746094 Z M 23.710938 -25.984375 C 23.710938 -33.890625 27.304688 -38.320312 32.453125 -38.320312 C 38.441406 -38.320312 41.792969 -32.929688 41.792969 -26.34375 C 41.792969 -19.519531 38.558594 -14.128906 32.691406 -14.128906 C 27.0625 -14.128906 23.710938 -18.5625 23.710938 -25.984375 Z M 23.710938 -25.984375 "/></g></g></g></svg>