<svg xmlns="http://www.w3.org/2000/svg" xmlns:xlink="http://www.w3.org/1999/xlink" width="600" zoomAndPan="magnify" viewBox="0 0 450 149.999998" height="200" preserveAspectRatio="xMidYMid meet" version="1.2"><defs/><g id="54a6ef6875"><rect x="0" width="450" y="0" height="149.999998" style="fill:#ffffff;fill-opacity:1;stroke:none;"/><rect x="0" width="450" y="0" height="149.999998" style="fill:#ffffff;fill-opacity:1;stroke:none;"/><path style="fill-rule:nonzero;fill:#000000;fill-opacity:1;stroke-width:1;stroke-linecap:butt;stroke-linejoin:miter;stroke:#0c7b3b;stroke-opacity:1;stroke-miterlimit:4;" d="M 0.499995 0.999997 L 0.499995 199.000009 M 599.50003 0.999997 L 599.50003 199.000009 M -0.000005 0.499997 L 600.00003 0.499997 M -0.000005 199.500009 L 600.00003 199.500009 " transform="matrix(0.75,0,0,0.75,0.00000375,0.000002)"/><g style="fill:#0c7b3b;fill-opacity:1;"><g transform="translate(198.643492, 109.348325)"><path style="stroke:none" d="M 28.441406 -75.007812 C 15.089844 -75.007812 3.800781 -64.480469 3.800781 -49.5 C 3.800781 -36.472656 13.027344 -26.050781 24.207031 -26.050781 C 26.050781 -26.050781 27.027344 -26.378906 28.984375 -26.8125 L 11.941406 0.976562 L 30.070312 0.976562 L 42.984375 -19.972656 C 49.714844 -30.9375 52.863281 -39.945312 52.863281 -50.042969 C 52.863281 -65.023438 41.140625 -75.007812 28.441406 -75.007812 Z M 19.757812 -50.042969 C 19.757812 -56.554688 23.230469 -61.113281 28.007812 -61.113281 C 32.890625 -61.113281 36.257812 -57.316406 36.257812 -50.042969 C 36.257812 -43.636719 32.890625 -39.078125 28.007812 -39.078125 C 23.339844 -39.078125 19.757812 -43.203125 19.757812 -50.042969 Z M 19.757812 -50.042969 "/></g></g></g></svg>