<svg xmlns="http://www.w3.org/2000/svg" xmlns:xlink="http://www.w3.org/1999/xlink" width="600" zoomAndPan="magnify" viewBox="0 0 450 149.999998" height="200" preserveAspectRatio="xMidYMid meet" version="1.2"><defs><clipPath id="4501346aa7"><path d="M 167.441406 0.425781 L 289.691406 0.425781 L 289.691406 43.925781 L 167.441406 43.925781 Z M 167.441406 0.425781 "/></clipPath><clipPath id="29223b367d"><path d="M 167.441406 50.542969 L 289.691406 50.542969 L 289.691406 94 L 167.441406 94 Z M 167.441406 50.542969 "/></clipPath><clipPath id="ec21d1af38"><path d="M 253.414062 62.132812 L 264.664062 62.132812 L 264.664062 75 L 253.414062 75 Z M 253.414062 62.132812 "/></clipPath><clipPath id="4f56cfc8e2"><path d="M 256 76 L 261 76 L 261 80.132812 L 256 80.132812 Z M 256 76 "/></clipPath><clipPath id="49d4fd5663"><path d="M 179.992188 6.058594 L 213.570312 6.058594 L 213.570312 37.597656 L 179.992188 37.597656 Z M 179.992188 6.058594 "/></clipPath><clipPath id="e3bb028219"><path d="M 242.757812 4.898438 L 276.332031 4.898438 L 276.332031 36.4375 L 242.757812 36.4375 Z M 242.757812 4.898438 "/></clipPath><clipPath id="af3ceb39ea"><path d="M 180.878906 54.519531 L 215.378906 54.519531 L 215.378906 89.019531 L 180.878906 89.019531 Z M 180.878906 54.519531 "/></clipPath><clipPath id="caff345b95"><path d="M 134.335938 99.34375 L 324.835938 99.34375 L 324.835938 132 L 134.335938 132 Z M 134.335938 99.34375 "/></clipPath><clipPath id="6b8410766e"><path d="M 134.335938 99.34375 L 324.835938 99.34375 L 324.835938 132.34375 L 134.335938 132.34375 Z M 134.335938 99.34375 "/></clipPath><clipPath id="cda3f88eb1"><path d="M 134.335938 135 L 324.835938 135 L 324.835938 148 L 134.335938 148 Z M 134.335938 135 "/></clipPath><clipPath id="f3d99f2ef0"><path d="M 240.671875 103.582031 L 266.171875 103.582031 L 266.171875 129.082031 L 240.671875 129.082031 Z M 240.671875 103.582031 "/></clipPath><clipPath id="67a71e9f37"><path d="M 193.007812 103.582031 L 217.757812 103.582031 L 217.757812 128 L 193.007812 128 Z M 193.007812 103.582031 "/></clipPath><clipPath id="f05e708540"><path d="M 288.167969 104.152344 L 312.867188 104.152344 L 312.867188 128.5 L 288.167969 128.5 Z M 288.167969 104.152344 "/></clipPath><clipPath id="a4451e26fb"><path d="M 144.964844 104.152344 L 169.664062 104.152344 L 169.664062 128.5 L 144.964844 128.5 Z M 144.964844 104.152344 "/></clipPath></defs><g id="c48bfce2af"><rect x="0" width="450" y="0" height="149.999998" style="fill:#ffffff;fill-opacity:1;stroke:none;"/><rect x="0" width="450" y="0" height="149.999998" style="fill:#ffffff;fill-opacity:1;stroke:none;"/><g clip-rule="nonzero" clip-path="url(#4501346aa7)"><path style="fill-rule:nonzero;fill:#000000;fill-opacity:1;stroke-width:0.560612;stroke-linecap:butt;stroke-linejoin:miter;stroke:#000000;stroke-opacity:1;stroke-miterlimit:4;" d="M 0.278564 0.562256 L 0.278564 56.510176 M 81.747318 0.562256 L 81.747318 56.510176 M 162.091073 0.562256 L 162.091073 56.510176 M 0.00252196 0.281006 L 162.372323 0.281006 M 0.00252196 56.791426 L 162.372323 56.791426 " transform="matrix(0.75,0,0,0.75,167.439515,0.425964)"/></g><g clip-rule="nonzero" clip-path="url(#29223b367d)"><path style="fill-rule:nonzero;fill:#000000;fill-opacity:1;stroke-width:0.560612;stroke-linecap:butt;stroke-linejoin:miter;stroke:#000000;stroke-opacity:1;stroke-miterlimit:4;" d="M 0.278564 0.559691 L 0.278564 56.512819 M 81.747318 0.559691 L 81.747318 56.512819 M 162.091073 0.559691 L 162.091073 56.512819 M 0.00252196 0.278441 L 162.372323 0.278441 M 0.00252196 56.788861 L 162.372323 56.788861 " transform="matrix(0.75,0,0,0.75,167.439515,50.541169)"/></g><g clip-rule="nonzero" clip-path="url(#ec21d1af38)"><path style=" stroke:none;fill-rule:nonzero;fill:#000000;fill-opacity:1;" d="M 263.921875 64.21875 C 263.4375 63.542969 262.769531 63.023438 261.921875 62.667969 C 261.074219 62.3125 260.09375 62.132812 258.988281 62.132812 C 257.980469 62.132812 257.058594 62.308594 256.226562 62.660156 C 255.394531 63.007812 254.726562 63.546875 254.21875 64.253906 C 253.816406 64.820312 253.566406 65.503906 253.464844 66.308594 C 253.417969 66.65625 253.703125 66.964844 254.0625 66.964844 L 256.289062 66.964844 C 256.574219 66.964844 256.816406 66.769531 256.878906 66.496094 C 256.933594 66.25 257.027344 66.03125 257.15625 65.84375 C 257.359375 65.539062 257.625 65.308594 257.945312 65.15625 C 258.269531 65 258.609375 64.921875 258.972656 64.921875 C 259.347656 64.921875 259.683594 64.996094 259.996094 65.152344 C 260.304688 65.304688 260.550781 65.523438 260.730469 65.808594 C 260.914062 66.089844 261.007812 66.417969 261.007812 66.796875 C 261.007812 67.152344 260.925781 67.472656 260.765625 67.757812 C 260.605469 68.042969 260.386719 68.304688 260.117188 68.539062 C 259.839844 68.777344 259.539062 69 259.191406 69.21875 C 258.730469 69.503906 258.335938 69.820312 258.007812 70.171875 C 257.679688 70.519531 257.433594 70.976562 257.261719 71.546875 C 257.09375 72.113281 257.003906 72.875 257 73.828125 L 257 74.304688 C 257 74.625 257.269531 74.894531 257.601562 74.894531 L 259.5625 74.894531 C 259.894531 74.894531 260.164062 74.628906 260.164062 74.304688 L 260.164062 73.828125 C 260.171875 73.292969 260.242188 72.839844 260.375 72.476562 C 260.511719 72.113281 260.722656 71.789062 261 71.511719 C 261.28125 71.234375 261.640625 70.96875 262.082031 70.710938 C 262.605469 70.402344 263.054688 70.0625 263.441406 69.679688 C 263.824219 69.300781 264.121094 68.863281 264.339844 68.371094 C 264.550781 67.875 264.660156 67.308594 264.660156 66.671875 C 264.652344 65.714844 264.40625 64.894531 263.921875 64.21875 Z M 263.921875 64.21875 "/></g><g clip-rule="nonzero" clip-path="url(#4f56cfc8e2)"><path style=" stroke:none;fill-rule:nonzero;fill:#000000;fill-opacity:1;" d="M 258.644531 76.21875 C 258.085938 76.21875 257.613281 76.410156 257.222656 76.789062 C 256.828125 77.171875 256.632812 77.632812 256.640625 78.164062 C 256.632812 78.707031 256.828125 79.171875 257.222656 79.554688 C 257.613281 79.941406 258.085938 80.132812 258.644531 80.132812 C 259 80.132812 259.328125 80.042969 259.625 79.863281 C 259.925781 79.683594 260.167969 79.449219 260.355469 79.152344 C 260.542969 78.851562 260.636719 78.527344 260.640625 78.164062 C 260.632812 77.628906 260.433594 77.171875 260.03125 76.789062 C 259.636719 76.410156 259.171875 76.21875 258.644531 76.21875 Z M 258.644531 76.21875 "/></g><g clip-rule="nonzero" clip-path="url(#49d4fd5663)"><path style=" stroke:none;fill-rule:nonzero;fill:#004aad;fill-opacity:1;" d="M 179.992188 6.058594 L 213.628906 6.058594 L 213.628906 37.597656 L 179.992188 37.597656 Z M 179.992188 6.058594 "/></g><g clip-rule="nonzero" clip-path="url(#e3bb028219)"><path style=" stroke:none;fill-rule:nonzero;fill:#004aad;fill-opacity:1;" d="M 242.757812 4.898438 L 276.394531 4.898438 L 276.394531 36.4375 L 242.757812 36.4375 Z M 242.757812 4.898438 "/></g><g clip-rule="nonzero" clip-path="url(#af3ceb39ea)"><path style=" stroke:none;fill-rule:nonzero;fill:#004aad;fill-opacity:1;" d="M 198.128906 89.019531 C 188.640625 89.019531 180.878906 81.257812 180.878906 71.769531 C 180.878906 62.28125 188.640625 54.519531 198.128906 54.519531 C 207.617188 54.519531 215.378906 62.28125 215.378906 71.769531 C 215.378906 81.257812 207.617188 89.019531 198.128906 89.019531 Z M 198.128906 89.019531 "/></g><g clip-rule="nonzero" clip-path="url(#caff345b95)"><path style=" stroke:none;fill-rule:nonzero;fill:#000000;fill-opacity:1;" d="M 134.660156 100 L 134.660156 131.585938 M 181.796875 100 L 181.796875 131.585938 M 228.304688 100 L 228.304688 131.585938 M 276.070312 100 L 276.070312 131.585938 M 323.839844 100 L 323.839844 131.585938 M 134.335938 99.671875 L 324.164062 99.671875 M 134.335938 131.914062 L 324.164062 131.914062 "/></g><g clip-rule="nonzero" clip-path="url(#6b8410766e)"><path style="fill:none;stroke-width:0.871773;stroke-linecap:butt;stroke-linejoin:miter;stroke:#000000;stroke-opacity:1;stroke-miterlimit:4;" d="M 0.434282 0.874199 L 0.434282 42.988785 M 63.283244 0.874199 L 63.283244 42.988785 M 125.293664 0.874199 L 125.293664 42.988785 M 188.981168 0.874199 L 188.981168 42.988785 M 252.67388 0.874199 L 252.67388 42.988785 M 0.00199038 0.436699 L 253.106172 0.436699 M 0.00199038 43.426285 L 253.106172 43.426285 " transform="matrix(0.75,0,0,0.75,134.334445,99.344351)"/></g><g clip-rule="nonzero" clip-path="url(#cda3f88eb1)"><path style="fill-rule:nonzero;fill:#000000;fill-opacity:1;stroke-width:0.871773;stroke-linecap:butt;stroke-linejoin:miter;stroke:#000000;stroke-opacity:1;stroke-miterlimit:4;" d="M 0.434282 0.873427 L 0.434282 16.347386 M 63.585327 0.873427 L 63.585327 16.347386 M 124.694706 0.873427 L 124.694706 16.347386 M 188.949918 0.873427 L 188.949918 16.347386 M 252.67388 0.873427 L 252.67388 16.347386 M 0.00199038 0.435927 L 253.106172 0.435927 M 0.00199038 16.779678 L 253.106172 16.779678 " transform="matrix(0.75,0,0,0.75,134.334445,135.00118)"/></g><g style="fill:#000000;fill-opacity:1;"><g transform="translate(202.923566, 143.417878)"><path style="stroke:none" d="M 0.28125 0 L 0.28125 -0.765625 L 1.421875 -1.84375 C 1.765625 -2.175781 2.035156 -2.476562 2.234375 -2.75 C 2.429688 -3.03125 2.566406 -3.316406 2.640625 -3.609375 C 2.722656 -3.898438 2.765625 -4.234375 2.765625 -4.609375 C 2.765625 -5.046875 2.710938 -5.363281 2.609375 -5.5625 C 2.503906 -5.757812 2.328125 -5.859375 2.078125 -5.859375 C 1.890625 -5.859375 1.742188 -5.800781 1.640625 -5.6875 C 1.546875 -5.570312 1.476562 -5.378906 1.4375 -5.109375 C 1.394531 -4.847656 1.375 -4.484375 1.375 -4.015625 C 1.0625 -4.015625 0.804688 -4.078125 0.609375 -4.203125 C 0.410156 -4.328125 0.3125 -4.523438 0.3125 -4.796875 C 0.3125 -5.117188 0.460938 -5.390625 0.765625 -5.609375 C 1.078125 -5.828125 1.53125 -5.9375 2.125 -5.9375 C 2.738281 -5.9375 3.203125 -5.816406 3.515625 -5.578125 C 3.835938 -5.335938 4 -5 4 -4.5625 C 4 -4.375 3.960938 -4.191406 3.890625 -4.015625 C 3.828125 -3.835938 3.707031 -3.644531 3.53125 -3.4375 C 3.351562 -3.226562 3.113281 -2.988281 2.8125 -2.71875 C 2.519531 -2.457031 2.144531 -2.148438 1.6875 -1.796875 L 0.546875 -0.90625 L 3.3125 -0.90625 C 3.570312 -0.90625 3.757812 -0.941406 3.875 -1.015625 C 4 -1.097656 4.070312 -1.25 4.09375 -1.46875 L 4.125 -1.71875 L 4.203125 -1.71875 L 4.15625 0 Z M 0.28125 0 "/></g></g><g style="fill:#000000;fill-opacity:1;"><g transform="translate(251.140595, 143.417878)"><path style="stroke:none" d="M 1.984375 0.078125 C 1.378906 0.078125 0.9375 -0.0195312 0.65625 -0.21875 C 0.375 -0.414062 0.234375 -0.644531 0.234375 -0.90625 C 0.234375 -1.113281 0.300781 -1.269531 0.4375 -1.375 C 0.570312 -1.488281 0.734375 -1.546875 0.921875 -1.546875 C 0.921875 -1.140625 0.960938 -0.828125 1.046875 -0.609375 C 1.140625 -0.390625 1.257812 -0.234375 1.40625 -0.140625 C 1.5625 -0.046875 1.738281 0 1.9375 0 C 2.289062 0 2.546875 -0.132812 2.703125 -0.40625 C 2.859375 -0.675781 2.9375 -1.066406 2.9375 -1.578125 C 2.9375 -1.941406 2.894531 -2.222656 2.8125 -2.421875 C 2.726562 -2.628906 2.585938 -2.773438 2.390625 -2.859375 C 2.191406 -2.941406 1.9375 -2.984375 1.625 -2.984375 L 1.171875 -2.984375 L 1.171875 -3.0625 L 1.625 -3.0625 C 1.914062 -3.0625 2.140625 -3.109375 2.296875 -3.203125 C 2.460938 -3.296875 2.578125 -3.445312 2.640625 -3.65625 C 2.710938 -3.863281 2.75 -4.140625 2.75 -4.484375 C 2.75 -4.984375 2.6875 -5.335938 2.5625 -5.546875 C 2.445312 -5.753906 2.28125 -5.859375 2.0625 -5.859375 C 1.769531 -5.859375 1.578125 -5.707031 1.484375 -5.40625 C 1.398438 -5.113281 1.359375 -4.703125 1.359375 -4.171875 C 1.023438 -4.171875 0.765625 -4.226562 0.578125 -4.34375 C 0.390625 -4.457031 0.296875 -4.640625 0.296875 -4.890625 C 0.296875 -5.179688 0.445312 -5.425781 0.75 -5.625 C 1.0625 -5.832031 1.515625 -5.9375 2.109375 -5.9375 C 2.691406 -5.9375 3.148438 -5.816406 3.484375 -5.578125 C 3.828125 -5.347656 4 -5.007812 4 -4.5625 C 4 -4.332031 3.941406 -4.109375 3.828125 -3.890625 C 3.710938 -3.671875 3.519531 -3.484375 3.25 -3.328125 C 2.988281 -3.179688 2.628906 -3.085938 2.171875 -3.046875 C 2.828125 -3.046875 3.328125 -2.921875 3.671875 -2.671875 C 4.023438 -2.429688 4.203125 -2.0625 4.203125 -1.5625 C 4.203125 -1.164062 4.097656 -0.847656 3.890625 -0.609375 C 3.679688 -0.367188 3.40625 -0.191406 3.0625 -0.078125 C 2.726562 0.0234375 2.367188 0.078125 1.984375 0.078125 Z M 1.984375 0.078125 "/></g></g><g style="fill:#000000;fill-opacity:1;"><g transform="translate(155.022885, 143.417878)"><path style="stroke:none" d="M 0.796875 0 L 0.796875 -0.078125 L 1.46875 -0.078125 C 1.601562 -0.078125 1.703125 -0.113281 1.765625 -0.1875 C 1.835938 -0.269531 1.875 -0.410156 1.875 -0.609375 L 1.875 -5.21875 C 1.625 -4.863281 1.425781 -4.609375 1.28125 -4.453125 C 1.132812 -4.296875 0.988281 -4.21875 0.84375 -4.21875 C 0.695312 -4.21875 0.578125 -4.257812 0.484375 -4.34375 C 0.390625 -4.4375 0.34375 -4.578125 0.34375 -4.765625 C 0.613281 -4.773438 0.835938 -4.800781 1.015625 -4.84375 C 1.203125 -4.882812 1.375 -4.960938 1.53125 -5.078125 C 1.695312 -5.191406 1.894531 -5.363281 2.125 -5.59375 L 2.421875 -5.890625 L 3.09375 -5.890625 L 3.09375 -0.609375 C 3.09375 -0.441406 3.117188 -0.3125 3.171875 -0.21875 C 3.234375 -0.125 3.347656 -0.078125 3.515625 -0.078125 L 4.1875 -0.078125 L 4.1875 0 Z M 0.796875 0 "/></g></g><g style="fill:#000000;fill-opacity:1;"><g transform="translate(298.223982, 143.417878)"><path style="stroke:none" d="M 1.46875 0 L 1.46875 -0.078125 L 1.703125 -0.078125 C 1.890625 -0.078125 2.046875 -0.109375 2.171875 -0.171875 C 2.304688 -0.242188 2.375 -0.410156 2.375 -0.671875 L 2.375 -1.53125 L 0.109375 -1.53125 L 0.109375 -2.03125 L 2.4375 -5.859375 L 3.578125 -5.859375 L 3.578125 -2.0625 L 4.421875 -2.0625 L 4.421875 -1.53125 L 3.578125 -1.53125 L 3.578125 -0.671875 C 3.578125 -0.410156 3.640625 -0.242188 3.765625 -0.171875 C 3.898438 -0.109375 4.0625 -0.078125 4.25 -0.078125 L 4.359375 -0.078125 L 4.359375 0 Z M 0.234375 -2.0625 L 2.375 -2.0625 L 2.375 -3.875 C 2.375 -4.175781 2.375 -4.488281 2.375 -4.8125 C 2.375 -5.132812 2.378906 -5.414062 2.390625 -5.65625 C 2.359375 -5.601562 2.304688 -5.519531 2.234375 -5.40625 C 2.171875 -5.289062 2.097656 -5.164062 2.015625 -5.03125 C 1.941406 -4.894531 1.867188 -4.769531 1.796875 -4.65625 C 1.722656 -4.539062 1.664062 -4.445312 1.625 -4.375 Z M 0.234375 -2.0625 "/></g></g><g clip-rule="nonzero" clip-path="url(#f3d99f2ef0)"><path style=" stroke:none;fill-rule:nonzero;fill:#004aad;fill-opacity:1;" d="M 253.410156 129.058594 C 246.40625 129.058594 240.671875 123.328125 240.671875 116.320312 C 240.671875 109.316406 246.40625 103.582031 253.410156 103.582031 C 260.417969 103.582031 266.148438 109.316406 266.148438 116.320312 C 266.148438 123.328125 260.417969 129.058594 253.410156 129.058594 Z M 253.410156 129.058594 "/></g><g clip-rule="nonzero" clip-path="url(#67a71e9f37)"><path style=" stroke:none;fill-rule:nonzero;fill:#ff3131;fill-opacity:1;" d="M 205.214844 127.992188 C 198.5 127.992188 193.007812 122.5 193.007812 115.789062 C 193.007812 109.074219 198.5 103.582031 205.214844 103.582031 C 211.925781 103.582031 217.417969 109.074219 217.417969 115.789062 C 217.417969 122.5 211.925781 127.992188 205.214844 127.992188 Z M 205.214844 127.992188 "/></g><g clip-rule="nonzero" clip-path="url(#f05e708540)"><path style=" stroke:none;fill-rule:nonzero;fill:#ff3131;fill-opacity:1;" d="M 288.167969 104.152344 L 312.894531 104.152344 L 312.894531 128.5 L 288.167969 128.5 Z M 288.167969 104.152344 "/></g><g clip-rule="nonzero" clip-path="url(#a4451e26fb)"><path style=" stroke:none;fill-rule:nonzero;fill:#004aad;fill-opacity:1;" d="M 144.964844 104.152344 L 169.691406 104.152344 L 169.691406 128.5 L 144.964844 128.5 Z M 144.964844 104.152344 "/></g></g></svg>