<svg xmlns="http://www.w3.org/2000/svg" xmlns:xlink="http://www.w3.org/1999/xlink" width="600" zoomAndPan="magnify" viewBox="0 0 450 149.999998" height="200" preserveAspectRatio="xMidYMid meet" version="1.2"><defs/><g id="882ed81a34"><rect x="0" width="450" y="0" height="149.999998" style="fill:#ffffff;fill-opacity:1;stroke:none;"/><rect x="0" width="450" y="0" height="149.999998" style="fill:#ffffff;fill-opacity:1;stroke:none;"/><path style="fill-rule:nonzero;fill:#000000;fill-opacity:1;stroke-width:1;stroke-linecap:butt;stroke-linejoin:miter;stroke:#0c7b3b;stroke-opacity:1;stroke-miterlimit:4;" d="M 0.499995 0.999997 L 0.499995 199.000009 M 599.50003 0.999997 L 599.50003 199.000009 M -0.000005 0.499997 L 600.00003 0.499997 M -0.000005 199.500009 L 600.00003 199.500009 " transform="matrix(0.75,0,0,0.75,0.00000375,0.000002)"/><g style="fill:#0c7b3b;fill-opacity:1;"><g transform="translate(42.27125, 112.202266)"><path style="stroke:none" d="M 26.414062 -69.667969 C 14.015625 -69.667969 3.527344 -59.886719 3.527344 -45.976562 C 3.527344 -33.875 12.097656 -24.199219 22.484375 -24.199219 C 24.199219 -24.199219 25.105469 -24.5 26.917969 -24.902344 L 11.089844 0.90625 L 27.929688 0.90625 L 39.925781 -18.550781 C 46.175781 -28.734375 49.101562 -37.101562 49.101562 -46.480469 C 49.101562 -60.394531 38.210938 -69.667969 26.414062 -69.667969 Z M 18.351562 -46.480469 C 18.351562 -52.527344 21.574219 -56.761719 26.011719 -56.761719 C 30.550781 -56.761719 33.675781 -53.234375 33.675781 -46.480469 C 33.675781 -40.53125 30.550781 -36.296875 26.011719 -36.296875 C 21.675781 -36.296875 18.351562 -40.128906 18.351562 -46.480469 Z M 18.351562 -46.480469 "/></g></g><g style="fill:#0c7b3b;fill-opacity:1;"><g transform="translate(256.041757, 112.202266)"><path style="stroke:none" d="M 25.710938 -69.667969 L 13.8125 -50.410156 C 6.652344 -38.816406 4.4375 -31.457031 4.4375 -23.1875 C 4.4375 -7.460938 15.324219 0.90625 27.523438 0.90625 C 40.53125 0.90625 50.007812 -9.375 50.007812 -22.785156 C 50.007812 -34.480469 41.941406 -44.261719 30.75 -44.261719 C 29.539062 -44.261719 28.734375 -44.160156 26.71875 -43.65625 L 42.648438 -69.667969 Z M 19.960938 -21.878906 C 19.960938 -28.53125 22.988281 -32.261719 27.324219 -32.261719 C 32.363281 -32.261719 35.1875 -27.726562 35.1875 -22.179688 C 35.1875 -16.433594 32.464844 -11.898438 27.523438 -11.898438 C 22.785156 -11.898438 19.960938 -15.628906 19.960938 -21.878906 Z M 19.960938 -21.878906 "/></g></g><g style="fill:#0c7b3b;fill-opacity:1;"><g transform="translate(149.156508, 112.202266)"><path style="stroke:none" d="M 25.609375 -69.667969 C 18.046875 -69.667969 12.601562 -67.046875 6.351562 -63.113281 L 6.351562 -48.695312 C 11.898438 -54.039062 18.449219 -57.265625 22.886719 -57.265625 C 28.128906 -57.265625 32.164062 -52.730469 32.164062 -47.589844 C 32.164062 -41.136719 28.734375 -33.371094 18.351562 -19.15625 C 13.207031 -12.199219 8.871094 -6.351562 5.445312 -2.015625 L 5.445312 0 L 50.914062 0 L 50.914062 -14.015625 L 28.734375 -14.015625 C 38.109375 -26.113281 39.925781 -29.339844 44.363281 -38.109375 C 46.378906 -42.246094 47.386719 -46.175781 47.386719 -50.410156 C 47.386719 -60.695312 40.632812 -69.667969 25.609375 -69.667969 Z M 25.609375 -69.667969 "/></g></g><g style="fill:#0c7b3b;fill-opacity:1;"><g transform="translate(362.927034, 112.202266)"><path style="stroke:none" d="M 23.289062 -69.667969 C 18.148438 -69.667969 12.097656 -68.660156 7.5625 -66.644531 L 7.5625 -54.546875 C 12.90625 -57.265625 16.433594 -58.175781 20.46875 -58.175781 C 25.609375 -58.175781 30.046875 -54.847656 30.046875 -50.109375 C 30.046875 -46.175781 26.617188 -42.246094 20.566406 -41.742188 L 20.566406 -29.640625 C 27.625 -28.9375 31.152344 -25.003906 31.152344 -20.0625 C 31.152344 -15.023438 26.820312 -11.089844 20.972656 -11.089844 C 15.828125 -11.089844 10.585938 -12.90625 5.847656 -16.332031 L 5.847656 -3.023438 C 10.6875 -0.402344 17.242188 0.90625 23.089844 0.90625 C 36.195312 0.90625 47.183594 -5.949219 47.183594 -19.15625 C 47.183594 -28.332031 42.949219 -33.675781 35.085938 -36.902344 C 41.4375 -39.925781 45.269531 -46.378906 45.269531 -52.832031 C 45.269531 -63.113281 35.992188 -69.667969 23.289062 -69.667969 Z M 23.289062 -69.667969 "/></g></g></g></svg>