<svg xmlns="http://www.w3.org/2000/svg" xmlns:xlink="http://www.w3.org/1999/xlink" width="600" zoomAndPan="magnify" viewBox="0 0 450 149.999998" height="200" preserveAspectRatio="xMidYMid meet" version="1.2"><defs><clipPath id="73e8662745"><path d="M 336.546875 36.332031 L 371.796875 36.332031 L 371.796875 77 L 336.546875 77 Z M 336.546875 36.332031 "/></clipPath><clipPath id="f21e89f85d"><path d="M 346 80 L 360 80 L 360 93.332031 L 346 93.332031 Z M 346 80 "/></clipPath></defs><g id="a8fb9d50fd"><rect x="0" width="450" y="0" height="149.999998" style="fill:#ffffff;fill-opacity:1;stroke:none;"/><rect x="0" width="450" y="0" height="149.999998" style="fill:#ffffff;fill-opacity:1;stroke:none;"/><path style="fill-rule:nonzero;fill:#000000;fill-opacity:1;stroke-width:1;stroke-linecap:butt;stroke-linejoin:miter;stroke:#0c7b3b;stroke-opacity:1;stroke-miterlimit:4;" d="M 0.499995 0.999997 L 0.499995 199.000009 M 599.50003 0.999997 L 599.50003 199.000009 M -0.000005 0.499997 L 600.00003 0.499997 M -0.000005 199.500009 L 600.00003 199.500009 " transform="matrix(0.75,0,0,0.75,0.00000375,0.000002)"/><g style="fill:#0c7b3b;fill-opacity:1;"><g transform="translate(65.144194, 92.566957)"><path style="stroke:none" d="M 20.316406 -55.273438 C 14.316406 -55.273438 10 -53.191406 5.039062 -50.074219 L 5.039062 -38.636719 C 9.4375 -42.875 14.636719 -45.433594 18.15625 -45.433594 C 22.316406 -45.433594 25.515625 -41.835938 25.515625 -37.753906 C 25.515625 -32.636719 22.796875 -26.476562 14.558594 -15.199219 C 10.480469 -9.679688 7.039062 -5.039062 4.320312 -1.601562 L 4.320312 0 L 40.394531 0 L 40.394531 -11.117188 L 22.796875 -11.117188 C 30.234375 -20.71875 31.675781 -23.277344 35.195312 -30.234375 C 36.796875 -33.515625 37.59375 -36.636719 37.59375 -39.996094 C 37.59375 -48.152344 32.234375 -55.273438 20.316406 -55.273438 Z M 20.316406 -55.273438 "/></g></g><g style="fill:#0c7b3b;fill-opacity:1;"><g transform="translate(109.294801, 92.566957)"><path style="stroke:none" d=""/></g></g><g style="fill:#0c7b3b;fill-opacity:1;"><g transform="translate(131.53007, 92.566957)"><path style="stroke:none" d="M 0.320312 -36.875 L 15.039062 -18.878906 L 0.320312 0 L 14.078125 0 L 22.15625 -10.71875 L 30.476562 0 L 44.632812 0 L 29.355469 -18.878906 L 43.515625 -36.875 L 29.355469 -36.875 L 22.15625 -26.957031 L 14.558594 -36.875 Z M 0.320312 -36.875 "/></g></g><g style="fill:#0c7b3b;fill-opacity:1;"><g transform="translate(176.400528, 92.566957)"><path style="stroke:none" d=""/></g></g><g style="fill:#0c7b3b;fill-opacity:1;"><g transform="translate(198.635797, 92.566957)"><path style="stroke:none" d="M 18.476562 -55.273438 C 14.398438 -55.273438 9.597656 -54.472656 6 -52.871094 L 6 -43.273438 C 10.238281 -45.433594 13.039062 -46.152344 16.238281 -46.152344 C 20.316406 -46.152344 23.835938 -43.515625 23.835938 -39.753906 C 23.835938 -36.636719 21.117188 -33.515625 16.316406 -33.117188 L 16.316406 -23.515625 C 21.917969 -22.957031 24.714844 -19.835938 24.714844 -15.917969 C 24.714844 -11.917969 21.277344 -8.796875 16.636719 -8.796875 C 12.558594 -8.796875 8.398438 -10.238281 4.640625 -12.957031 L 4.640625 -2.398438 C 8.480469 -0.320312 13.679688 0.71875 18.316406 0.71875 C 28.714844 0.71875 37.433594 -4.71875 37.433594 -15.199219 C 37.433594 -22.476562 34.074219 -26.714844 27.835938 -29.277344 C 32.875 -31.675781 35.914062 -36.796875 35.914062 -41.914062 C 35.914062 -50.074219 28.554688 -55.273438 18.476562 -55.273438 Z M 18.476562 -55.273438 "/></g></g><g style="fill:#0c7b3b;fill-opacity:1;"><g transform="translate(242.786405, 92.566957)"><path style="stroke:none" d=""/></g></g><g style="fill:#0c7b3b;fill-opacity:1;"><g transform="translate(265.021674, 92.566957)"><path style="stroke:none" d="M 3.28125 -41.113281 L 3.28125 -30.796875 L 43.355469 -30.796875 L 43.355469 -41.113281 Z M 3.28125 -23.757812 L 3.28125 -13.519531 L 43.355469 -13.519531 L 43.355469 -23.757812 Z M 3.28125 -23.757812 "/></g></g><g style="fill:#0c7b3b;fill-opacity:1;"><g transform="translate(311.656395, 92.566957)"><path style="stroke:none" d=""/></g></g><g clip-rule="nonzero" clip-path="url(#73e8662745)"><path style=" stroke:none;fill-rule:nonzero;fill:#000000;fill-opacity:1;" d="M 369.464844 42.945312 C 367.949219 40.800781 365.859375 39.160156 363.195312 38.03125 C 360.542969 36.902344 357.472656 36.332031 354.003906 36.332031 C 350.847656 36.332031 347.964844 36.890625 345.355469 38.007812 C 342.75 39.113281 340.648438 40.8125 339.0625 43.058594 C 337.796875 44.847656 337.015625 47.015625 336.695312 49.554688 C 336.558594 50.664062 337.441406 51.644531 338.566406 51.644531 L 345.550781 51.644531 C 346.449219 51.644531 347.207031 51.015625 347.402344 50.148438 C 347.574219 49.375 347.859375 48.679688 348.261719 48.085938 C 348.90625 47.128906 349.734375 46.398438 350.742188 45.910156 C 351.753906 45.417969 352.824219 45.167969 353.960938 45.167969 C 355.132812 45.167969 356.1875 45.40625 357.164062 45.898438 C 358.128906 46.375 358.898438 47.070312 359.472656 47.972656 C 360.046875 48.871094 360.335938 49.910156 360.335938 51.105469 C 360.335938 52.234375 360.082031 53.25 359.578125 54.152344 C 359.070312 55.050781 358.394531 55.882812 357.542969 56.625 C 356.683594 57.375 355.726562 58.082031 354.648438 58.777344 C 353.203125 59.679688 351.960938 60.683594 350.9375 61.789062 C 349.90625 62.894531 349.136719 64.34375 348.59375 66.144531 C 348.066406 67.945312 347.792969 70.351562 347.78125 73.371094 L 347.78125 74.875 C 347.78125 75.902344 348.617188 76.746094 349.664062 76.746094 L 355.808594 76.746094 C 356.84375 76.746094 357.691406 75.914062 357.691406 74.875 L 357.691406 73.371094 C 357.714844 71.671875 357.933594 70.246094 358.359375 69.097656 C 358.785156 67.945312 359.4375 66.917969 360.3125 66.039062 C 361.195312 65.164062 362.320312 64.320312 363.699219 63.5 C 365.34375 62.53125 366.753906 61.445312 367.960938 60.238281 C 369.15625 59.042969 370.097656 57.652344 370.773438 56.089844 C 371.441406 54.527344 371.785156 52.726562 371.785156 50.707031 C 371.75 47.675781 370.980469 45.085938 369.464844 42.945312 Z M 369.464844 42.945312 "/></g><g clip-rule="nonzero" clip-path="url(#f21e89f85d)"><path style=" stroke:none;fill-rule:nonzero;fill:#000000;fill-opacity:1;" d="M 352.925781 80.941406 C 351.179688 80.941406 349.699219 81.542969 348.46875 82.753906 C 347.238281 83.960938 346.632812 85.421875 346.652344 87.109375 C 346.632812 88.816406 347.238281 90.289062 348.46875 91.507812 C 349.699219 92.726562 351.179688 93.332031 352.925781 93.332031 C 354.039062 93.332031 355.074219 93.046875 356.003906 92.488281 C 356.945312 91.917969 357.703125 91.179688 358.289062 90.230469 C 358.875 89.285156 359.175781 88.246094 359.1875 87.109375 C 359.164062 85.410156 358.53125 83.960938 357.277344 82.753906 C 356.039062 81.542969 354.578125 80.941406 352.925781 80.941406 Z M 352.925781 80.941406 "/></g></g></svg>