<svg xmlns="http://www.w3.org/2000/svg" xmlns:xlink="http://www.w3.org/1999/xlink" width="600" zoomAndPan="magnify" viewBox="0 0 450 149.999998" height="200" preserveAspectRatio="xMidYMid meet" version="1.2"><defs><clipPath id="d33d639bd6"><path d="M 344.421875 37.082031 L 379.671875 37.082031 L 379.671875 78 L 344.421875 78 Z M 344.421875 37.082031 "/></clipPath><clipPath id="fe73b4bf55"><path d="M 354 81 L 368 81 L 368 94.082031 L 354 94.082031 Z M 354 81 "/></clipPath></defs><g id="85bd17c53c"><rect x="0" width="450" y="0" height="149.999998" style="fill:#ffffff;fill-opacity:1;stroke:none;"/><rect x="0" width="450" y="0" height="149.999998" style="fill:#ffffff;fill-opacity:1;stroke:none;"/><path style="fill-rule:nonzero;fill:#000000;fill-opacity:1;stroke-width:1;stroke-linecap:butt;stroke-linejoin:miter;stroke:#0c7b3b;stroke-opacity:1;stroke-miterlimit:4;" d="M 0.499995 0.999997 L 0.499995 199.000009 M 599.50003 0.999997 L 599.50003 199.000009 M -0.000005 0.499997 L 600.00003 0.499997 M -0.000005 199.500009 L 600.00003 199.500009 " transform="matrix(0.75,0,0,0.75,0.00000375,0.000002)"/><g style="fill:#0c7b3b;fill-opacity:1;"><g transform="translate(60.269194, 92.191975)"><path style="stroke:none" d="M 18.476562 -55.273438 C 14.398438 -55.273438 9.597656 -54.472656 6 -52.871094 L 6 -43.273438 C 10.238281 -45.433594 13.039062 -46.152344 16.238281 -46.152344 C 20.316406 -46.152344 23.835938 -43.515625 23.835938 -39.753906 C 23.835938 -36.636719 21.117188 -33.515625 16.316406 -33.117188 L 16.316406 -23.515625 C 21.917969 -22.957031 24.714844 -19.835938 24.714844 -15.917969 C 24.714844 -11.917969 21.277344 -8.796875 16.636719 -8.796875 C 12.558594 -8.796875 8.398438 -10.238281 4.640625 -12.957031 L 4.640625 -2.398438 C 8.480469 -0.320312 13.679688 0.71875 18.316406 0.71875 C 28.714844 0.71875 37.433594 -4.71875 37.433594 -15.199219 C 37.433594 -22.476562 34.074219 -26.714844 27.835938 -29.277344 C 32.875 -31.675781 35.914062 -36.796875 35.914062 -41.914062 C 35.914062 -50.074219 28.554688 -55.273438 18.476562 -55.273438 Z M 18.476562 -55.273438 "/></g></g><g style="fill:#0c7b3b;fill-opacity:1;"><g transform="translate(104.419801, 92.191975)"><path style="stroke:none" d="M 20.316406 -55.273438 C 14.316406 -55.273438 10 -53.191406 5.039062 -50.074219 L 5.039062 -38.636719 C 9.4375 -42.875 14.636719 -45.433594 18.15625 -45.433594 C 22.316406 -45.433594 25.515625 -41.835938 25.515625 -37.753906 C 25.515625 -32.636719 22.796875 -26.476562 14.558594 -15.199219 C 10.480469 -9.679688 7.039062 -5.039062 4.320312 -1.601562 L 4.320312 0 L 40.394531 0 L 40.394531 -11.117188 L 22.796875 -11.117188 C 30.234375 -20.71875 31.675781 -23.277344 35.195312 -30.234375 C 36.796875 -33.515625 37.59375 -36.636719 37.59375 -39.996094 C 37.59375 -48.152344 32.234375 -55.273438 20.316406 -55.273438 Z M 20.316406 -55.273438 "/></g></g><g style="fill:#0c7b3b;fill-opacity:1;"><g transform="translate(148.570408, 92.191975)"><path style="stroke:none" d=""/></g></g><g style="fill:#0c7b3b;fill-opacity:1;"><g transform="translate(170.805678, 92.191975)"><path style="stroke:none" d="M 10.71875 -36.636719 C 6.960938 -36.636719 3.839844 -33.515625 3.839844 -29.675781 C 3.839844 -25.917969 6.878906 -22.796875 10.796875 -22.796875 C 14.71875 -22.796875 17.757812 -26.15625 17.757812 -29.914062 C 17.757812 -33.753906 14.558594 -36.636719 10.71875 -36.636719 Z M 10.878906 -13.199219 C 7.199219 -13.199219 3.839844 -9.917969 3.839844 -6.160156 C 3.839844 -2.480469 7.199219 0.71875 10.878906 0.71875 C 14.878906 0.71875 17.757812 -2.640625 17.757812 -6.238281 C 17.757812 -9.839844 14.796875 -13.199219 10.878906 -13.199219 Z M 10.878906 -13.199219 "/></g></g><g style="fill:#0c7b3b;fill-opacity:1;"><g transform="translate(192.481066, 92.191975)"><path style="stroke:none" d=""/></g></g><g style="fill:#0c7b3b;fill-opacity:1;"><g transform="translate(214.716335, 92.191975)"><path style="stroke:none" d="M 21.917969 -55.273438 C 11.679688 -55.273438 5.359375 -49.113281 5.359375 -40.472656 C 5.359375 -35.753906 7.199219 -31.835938 12.078125 -28.796875 C 6.800781 -26.636719 3.839844 -21.515625 3.839844 -15.519531 C 3.839844 -5.917969 11.4375 0.71875 21.996094 0.71875 C 33.355469 0.71875 40.394531 -6 40.394531 -15.597656 C 40.394531 -21.355469 37.515625 -26.316406 32.234375 -28.796875 C 37.355469 -31.753906 38.875 -36.234375 38.875 -40.632812 C 38.875 -47.511719 33.355469 -55.273438 21.917969 -55.273438 Z M 16.957031 -39.753906 C 16.957031 -44.074219 18.796875 -47.113281 22.078125 -47.113281 C 25.355469 -47.113281 27.195312 -44.554688 27.195312 -39.835938 C 27.195312 -34.957031 25.355469 -32.15625 22.15625 -32.15625 C 18.71875 -32.15625 16.957031 -35.433594 16.957031 -39.753906 Z M 28.078125 -15.597656 C 28.078125 -10.398438 25.757812 -7.117188 22.238281 -7.117188 C 18.71875 -7.117188 16.078125 -10.558594 16.078125 -15.835938 C 16.078125 -21.039062 18.316406 -24.398438 22.15625 -24.398438 C 25.757812 -24.398438 28.078125 -21.355469 28.078125 -15.597656 Z M 28.078125 -15.597656 "/></g></g><g style="fill:#0c7b3b;fill-opacity:1;"><g transform="translate(258.866934, 92.191975)"><path style="stroke:none" d=""/></g></g><g style="fill:#0c7b3b;fill-opacity:1;"><g transform="translate(281.10222, 92.191975)"><path style="stroke:none" d="M 3.28125 -41.113281 L 3.28125 -30.796875 L 43.355469 -30.796875 L 43.355469 -41.113281 Z M 3.28125 -23.757812 L 3.28125 -13.519531 L 43.355469 -13.519531 L 43.355469 -23.757812 Z M 3.28125 -23.757812 "/></g></g><g style="fill:#0c7b3b;fill-opacity:1;"><g transform="translate(327.74003, 92.191975)"><path style="stroke:none" d=""/></g></g><g clip-rule="nonzero" clip-path="url(#d33d639bd6)"><path style=" stroke:none;fill-rule:nonzero;fill:#000000;fill-opacity:1;" d="M 377.339844 43.695312 C 375.824219 41.550781 373.734375 39.910156 371.070312 38.78125 C 368.417969 37.652344 365.347656 37.082031 361.878906 37.082031 C 358.722656 37.082031 355.839844 37.640625 353.230469 38.757812 C 350.625 39.863281 348.523438 41.5625 346.9375 43.808594 C 345.671875 45.597656 344.890625 47.765625 344.570312 50.304688 C 344.433594 51.414062 345.316406 52.390625 346.441406 52.390625 L 353.425781 52.390625 C 354.324219 52.390625 355.082031 51.765625 355.277344 50.898438 C 355.449219 50.125 355.734375 49.429688 356.136719 48.835938 C 356.78125 47.878906 357.609375 47.148438 358.617188 46.660156 C 359.628906 46.167969 360.699219 45.917969 361.835938 45.917969 C 363.007812 45.917969 364.0625 46.15625 365.039062 46.648438 C 366.003906 47.125 366.773438 47.820312 367.347656 48.722656 C 367.921875 49.621094 368.210938 50.660156 368.210938 51.855469 C 368.210938 52.984375 367.957031 54 367.453125 54.902344 C 366.945312 55.800781 366.269531 56.632812 365.417969 57.375 C 364.558594 58.125 363.601562 58.832031 362.523438 59.527344 C 361.078125 60.429688 359.835938 61.433594 358.8125 62.539062 C 357.78125 63.644531 357.011719 65.09375 356.46875 66.894531 C 355.941406 68.695312 355.667969 71.101562 355.65625 74.121094 L 355.65625 75.625 C 355.65625 76.652344 356.492188 77.496094 357.539062 77.496094 L 363.683594 77.496094 C 364.71875 77.496094 365.566406 76.664062 365.566406 75.625 L 365.566406 74.121094 C 365.589844 72.421875 365.808594 70.996094 366.234375 69.847656 C 366.660156 68.695312 367.3125 67.667969 368.1875 66.789062 C 369.070312 65.914062 370.195312 65.070312 371.574219 64.25 C 373.21875 63.28125 374.628906 62.195312 375.835938 60.988281 C 377.03125 59.792969 377.972656 58.398438 378.648438 56.839844 C 379.316406 55.277344 379.660156 53.476562 379.660156 51.457031 C 379.625 48.425781 378.855469 45.835938 377.339844 43.695312 Z M 377.339844 43.695312 "/></g><g clip-rule="nonzero" clip-path="url(#fe73b4bf55)"><path style=" stroke:none;fill-rule:nonzero;fill:#000000;fill-opacity:1;" d="M 360.800781 81.691406 C 359.054688 81.691406 357.574219 82.292969 356.34375 83.503906 C 355.113281 84.710938 354.507812 86.171875 354.527344 87.859375 C 354.507812 89.566406 355.113281 91.039062 356.34375 92.257812 C 357.574219 93.476562 359.054688 94.082031 360.800781 94.082031 C 361.914062 94.082031 362.949219 93.796875 363.878906 93.238281 C 364.820312 92.667969 365.578125 91.929688 366.164062 90.980469 C 366.75 90.035156 367.050781 88.996094 367.0625 87.859375 C 367.039062 86.160156 366.40625 84.710938 365.152344 83.503906 C 363.914062 82.292969 362.453125 81.691406 360.800781 81.691406 Z M 360.800781 81.691406 "/></g></g></svg>