<svg xmlns="http://www.w3.org/2000/svg" xmlns:xlink="http://www.w3.org/1999/xlink" width="2268" zoomAndPan="magnify" viewBox="0 0 1700.88 283.499989" height="378" preserveAspectRatio="xMidYMid meet" version="1.2"><defs><clipPath id="a6f73b281a"><path d="M 1.4375 0 L 1699.324219 0 L 1699.324219 283 L 1.4375 283 Z M 1.4375 0 "/></clipPath><clipPath id="606a1130f0"><path d="M 231.363281 52 L 1469.679688 52 L 1469.679688 231 L 231.363281 231 Z M 231.363281 52 "/></clipPath><clipPath id="4f0b87f33f"><path d="M 231.363281 51.117188 L 1469.679688 51.117188 L 1469.679688 232 L 231.363281 232 Z M 231.363281 51.117188 "/></clipPath><clipPath id="5404f8dd5b"><path d="M 267.679688 87.402344 L 372.632812 87.402344 L 372.632812 192.355469 L 267.679688 192.355469 Z M 267.679688 87.402344 "/></clipPath><clipPath id="a19ef525e4"><path d="M 320.15625 192.332031 C 291.238281 192.332031 267.707031 168.800781 267.707031 139.878906 C 267.707031 110.957031 291.238281 87.425781 320.15625 87.425781 C 349.078125 87.425781 372.609375 110.957031 372.609375 139.878906 C 372.609375 168.800781 349.078125 192.332031 320.15625 192.332031 "/></clipPath><clipPath id="d8dbed1554"><path d="M 266.195312 86 L 374 86 L 374 193.839844 L 266.195312 193.839844 Z M 266.195312 86 "/></clipPath><clipPath id="87a69df51e"><path d="M 320.15625 86.382812 C 290.664062 86.382812 266.660156 110.386719 266.660156 139.878906 C 266.660156 169.371094 290.664062 193.375 320.15625 193.375 C 349.648438 193.375 373.65625 169.371094 373.65625 139.878906 C 373.65625 110.386719 349.648438 86.382812 320.15625 86.382812 M 320.15625 88.472656 C 348.542969 88.472656 371.5625 111.492188 371.5625 139.878906 C 371.5625 168.265625 348.542969 191.285156 320.15625 191.285156 C 291.769531 191.285156 268.75 168.265625 268.75 139.878906 C 268.75 111.492188 291.769531 88.472656 320.15625 88.472656 "/></clipPath><clipPath id="92723396d2"><path d="M 492.121094 96.054688 L 582.984375 96.054688 L 582.984375 186.917969 L 492.121094 186.917969 Z M 492.121094 96.054688 "/></clipPath><clipPath id="c7665a5be3"><path d="M 491.148438 95.082031 L 583.957031 95.082031 L 583.957031 97.023438 L 491.148438 97.023438 Z M 582.015625 97.023438 L 583.957031 97.023438 L 583.957031 185.945312 L 582.015625 185.945312 Z M 491.148438 97.023438 L 493.089844 97.023438 L 493.089844 185.945312 L 491.148438 185.945312 Z M 491.148438 185.945312 L 583.957031 185.945312 L 583.957031 187.890625 L 491.148438 187.890625 Z M 491.148438 185.945312 "/></clipPath><clipPath id="68707a7d5d"><path d="M 702.292969 89.972656 L 802.109375 89.972656 L 802.109375 189.785156 L 702.292969 189.785156 Z M 702.292969 89.972656 "/></clipPath><clipPath id="781fce5bcc"><path d="M 752.203125 189.761719 C 724.695312 189.761719 702.316406 167.382812 702.316406 139.878906 C 702.316406 112.375 724.695312 89.996094 752.203125 89.996094 C 779.707031 89.996094 802.085938 112.375 802.085938 139.878906 C 802.085938 167.382812 779.707031 189.761719 752.203125 189.761719 "/></clipPath><clipPath id="a24d7d1156"><path d="M 701 89 L 803.523438 89 L 803.523438 191 L 701 191 Z M 701 89 "/></clipPath><clipPath id="0ccd2e7058"><path d="M 752.203125 89 C 724.152344 89 701.324219 111.828125 701.324219 139.878906 C 701.324219 167.929688 724.152344 190.757812 752.203125 190.757812 C 780.25 190.757812 803.082031 167.929688 803.082031 139.878906 C 803.082031 111.828125 780.25 89 752.203125 89 M 752.203125 90.992188 C 779.199219 90.992188 801.089844 112.882812 801.089844 139.878906 C 801.089844 166.875 779.199219 188.769531 752.203125 188.769531 C 725.203125 188.769531 703.3125 166.875 703.3125 139.878906 C 703.3125 112.882812 725.203125 90.992188 752.203125 90.992188 "/></clipPath><clipPath id="6d804ac831"><path d="M 920.691406 95.320312 L 1004.996094 95.320312 L 1004.996094 179.625 L 920.691406 179.625 Z M 920.691406 95.320312 "/></clipPath><clipPath id="f74c7217ce"><path d="M 919.792969 94.421875 L 1005.894531 94.421875 L 1005.894531 96.222656 L 919.792969 96.222656 Z M 1004.09375 96.222656 L 1005.894531 96.222656 L 1005.894531 178.722656 L 1004.09375 178.722656 Z M 919.792969 96.222656 L 921.59375 96.222656 L 921.59375 178.722656 L 919.792969 178.722656 Z M 919.792969 178.722656 L 1005.894531 178.722656 L 1005.894531 180.523438 L 919.792969 180.523438 Z M 919.792969 178.722656 "/></clipPath><clipPath id="2816291a9c"><path d="M 1331.359375 88.933594 L 1414.953125 88.933594 L 1414.953125 172.523438 L 1331.359375 172.523438 Z M 1331.359375 88.933594 "/></clipPath><clipPath id="993cabd899"><path d="M 1330.46875 88.039062 L 1415.847656 88.039062 L 1415.847656 89.824219 L 1330.46875 89.824219 Z M 1414.058594 89.824219 L 1415.847656 89.824219 L 1415.847656 171.632812 L 1414.058594 171.632812 Z M 1330.46875 89.824219 L 1332.253906 89.824219 L 1332.253906 171.632812 L 1330.46875 171.632812 Z M 1330.46875 171.632812 L 1415.847656 171.632812 L 1415.847656 173.417969 L 1330.46875 173.417969 Z M 1330.46875 171.632812 "/></clipPath><clipPath id="0385b0f159"><path d="M 1126.773438 107.898438 L 1167.949219 107.898438 L 1167.949219 156 L 1126.773438 156 Z M 1126.773438 107.898438 "/></clipPath><clipPath id="dde4681cbc"><path d="M 1138 160 L 1154 160 L 1154 175.28125 L 1138 175.28125 Z M 1138 160 "/></clipPath></defs><g id="3fdd054409"><g clip-rule="nonzero" clip-path="url(#a6f73b281a)"><path style=" stroke:none;fill-rule:nonzero;fill:#ffffff;fill-opacity:1;" d="M 1.4375 0 L 1699.441406 0 L 1699.441406 283 L 1.4375 283 Z M 1.4375 0 "/><path style=" stroke:none;fill-rule:nonzero;fill:#ffffff;fill-opacity:1;" d="M 1.4375 0 L 1699.441406 0 L 1699.441406 283 L 1.4375 283 Z M 1.4375 0 "/></g><g clip-rule="nonzero" clip-path="url(#606a1130f0)"><path style=" stroke:none;fill-rule:nonzero;fill:#000000;fill-opacity:1;" d="M 232.5625 53.515625 L 232.5625 229.449219 M 438.484375 53.515625 L 438.484375 229.449219 M 644.410156 53.515625 L 644.410156 229.449219 M 850.332031 53.515625 L 850.332031 229.449219 M 1056.257812 53.515625 L 1056.257812 229.449219 M 1262.179688 53.515625 L 1262.179688 229.449219 M 1468.105469 53.515625 L 1468.105469 229.449219 M 231.363281 52.316406 L 1469.304688 52.316406 M 231.363281 230.648438 L 1469.304688 230.648438 "/></g><g clip-rule="nonzero" clip-path="url(#4f0b87f33f)"><path style="fill:none;stroke-width:3.205166;stroke-linecap:butt;stroke-linejoin:miter;stroke:#005c36;stroke-opacity:1;stroke-miterlimit:4;" d="M 1.602917 3.205253 L 1.602917 238.197115 M 276.649677 3.205253 L 276.649677 238.197115 M 551.701654 3.205253 L 551.701654 238.197115 M 826.748414 3.205253 L 826.748414 238.197115 M 1101.800392 3.205253 L 1101.800392 238.197115 M 1376.847151 3.205253 L 1376.847151 238.197115 M 1651.899129 3.205253 L 1651.899129 238.197115 M 0.0011387 1.603474 L 1653.500907 1.603474 M 0.0011387 239.798894 L 1653.500907 239.798894 " transform="matrix(0.74868,0,0,0.74868,231.362429,51.115918)"/></g><g clip-rule="nonzero" clip-path="url(#5404f8dd5b)"><g clip-rule="nonzero" clip-path="url(#a19ef525e4)"><path style=" stroke:none;fill-rule:nonzero;fill:#f9ed37;fill-opacity:1;" d="M 256.789062 76.511719 L 383.523438 76.511719 L 383.523438 203.246094 L 256.789062 203.246094 Z M 256.789062 76.511719 "/></g></g><g clip-rule="nonzero" clip-path="url(#d8dbed1554)"><g clip-rule="nonzero" clip-path="url(#87a69df51e)"><path style=" stroke:none;fill-rule:nonzero;fill:#231f20;fill-opacity:1;" d="M 256.789062 76.511719 L 383.523438 76.511719 L 383.523438 203.246094 L 256.789062 203.246094 Z M 256.789062 76.511719 "/></g></g><g clip-rule="nonzero" clip-path="url(#92723396d2)"><path style=" stroke:none;fill-rule:nonzero;fill:#4dab47;fill-opacity:1;" d="M 481.988281 85.921875 L 593.109375 85.921875 L 593.109375 197.042969 L 481.988281 197.042969 Z M 481.988281 85.921875 "/></g><g clip-rule="nonzero" clip-path="url(#c7665a5be3)"><path style=" stroke:none;fill-rule:nonzero;fill:#231f20;fill-opacity:1;" d="M 481.988281 85.921875 L 593.109375 85.921875 L 593.109375 197.042969 L 481.988281 197.042969 Z M 481.988281 85.921875 "/></g><g clip-rule="nonzero" clip-path="url(#68707a7d5d)"><g clip-rule="nonzero" clip-path="url(#781fce5bcc)"><path style=" stroke:none;fill-rule:nonzero;fill:#f9ed37;fill-opacity:1;" d="M 691.933594 79.613281 L 812.46875 79.613281 L 812.46875 200.144531 L 691.933594 200.144531 Z M 691.933594 79.613281 "/></g></g><g clip-rule="nonzero" clip-path="url(#a24d7d1156)"><g clip-rule="nonzero" clip-path="url(#0ccd2e7058)"><path style=" stroke:none;fill-rule:nonzero;fill:#231f20;fill-opacity:1;" d="M 691.933594 79.613281 L 812.46875 79.613281 L 812.46875 200.144531 L 691.933594 200.144531 Z M 691.933594 79.613281 "/></g></g><g clip-rule="nonzero" clip-path="url(#6d804ac831)"><path style=" stroke:none;fill-rule:nonzero;fill:#4dab47;fill-opacity:1;" d="M 911.292969 85.921875 L 1014.390625 85.921875 L 1014.390625 189.019531 L 911.292969 189.019531 Z M 911.292969 85.921875 "/></g><g clip-rule="nonzero" clip-path="url(#f74c7217ce)"><path style=" stroke:none;fill-rule:nonzero;fill:#231f20;fill-opacity:1;" d="M 911.292969 85.921875 L 1014.390625 85.921875 L 1014.390625 189.019531 L 911.292969 189.019531 Z M 911.292969 85.921875 "/></g><g clip-rule="nonzero" clip-path="url(#2816291a9c)"><path style=" stroke:none;fill-rule:nonzero;fill:#4dab47;fill-opacity:1;" d="M 1322.042969 79.613281 L 1424.265625 79.613281 L 1424.265625 181.839844 L 1322.042969 181.839844 Z M 1322.042969 79.613281 "/></g><g clip-rule="nonzero" clip-path="url(#993cabd899)"><path style=" stroke:none;fill-rule:nonzero;fill:#231f20;fill-opacity:1;" d="M 1322.042969 79.613281 L 1424.265625 79.613281 L 1424.265625 181.839844 L 1322.042969 181.839844 Z M 1322.042969 79.613281 "/></g><g clip-rule="nonzero" clip-path="url(#0385b0f159)"><path style=" stroke:none;fill-rule:nonzero;fill:#000000;fill-opacity:1;" d="M 1165.230469 115.714844 C 1163.457031 113.183594 1161.015625 111.242188 1157.902344 109.90625 C 1154.800781 108.574219 1151.21875 107.898438 1147.164062 107.898438 C 1143.476562 107.898438 1140.105469 108.558594 1137.058594 109.878906 C 1134.015625 111.1875 1131.558594 113.195312 1129.707031 115.851562 C 1128.230469 117.964844 1127.316406 120.527344 1126.941406 123.53125 C 1126.78125 124.839844 1127.8125 125.996094 1129.128906 125.996094 L 1137.289062 125.996094 C 1138.335938 125.996094 1139.222656 125.257812 1139.449219 124.230469 C 1139.648438 123.316406 1139.984375 122.492188 1140.457031 121.792969 C 1141.207031 120.660156 1142.171875 119.796875 1143.355469 119.21875 C 1144.535156 118.640625 1145.785156 118.34375 1147.113281 118.34375 C 1148.480469 118.34375 1149.714844 118.625 1150.855469 119.207031 C 1151.984375 119.773438 1152.882812 120.59375 1153.554688 121.660156 C 1154.226562 122.722656 1154.558594 123.949219 1154.558594 125.363281 C 1154.558594 126.699219 1154.265625 127.898438 1153.675781 128.960938 C 1153.085938 130.027344 1152.292969 131.011719 1151.300781 131.886719 C 1150.292969 132.777344 1149.179688 133.613281 1147.917969 134.433594 C 1146.226562 135.5 1144.777344 136.683594 1143.582031 137.992188 C 1142.375 139.296875 1141.476562 141.011719 1140.84375 143.140625 C 1140.226562 145.269531 1139.90625 148.113281 1139.890625 151.683594 L 1139.890625 153.460938 C 1139.890625 154.675781 1140.871094 155.671875 1142.09375 155.671875 L 1149.273438 155.671875 C 1150.480469 155.671875 1151.472656 154.6875 1151.472656 153.460938 L 1151.472656 151.683594 C 1151.5 149.675781 1151.753906 147.992188 1152.253906 146.628906 C 1152.75 145.269531 1153.511719 144.054688 1154.535156 143.019531 C 1155.566406 141.980469 1156.882812 140.984375 1158.492188 140.011719 C 1160.410156 138.867188 1162.0625 137.585938 1163.472656 136.160156 C 1164.867188 134.742188 1165.96875 133.097656 1166.757812 131.253906 C 1167.539062 129.40625 1167.941406 127.277344 1167.941406 124.890625 C 1167.898438 121.308594 1167 118.25 1165.230469 115.714844 Z M 1165.230469 115.714844 "/></g><g clip-rule="nonzero" clip-path="url(#dde4681cbc)"><path style=" stroke:none;fill-rule:nonzero;fill:#000000;fill-opacity:1;" d="M 1145.902344 160.632812 C 1143.863281 160.632812 1142.132812 161.347656 1140.695312 162.773438 C 1139.261719 164.203125 1138.550781 165.925781 1138.578125 167.921875 C 1138.550781 169.945312 1139.261719 171.683594 1140.695312 173.125 C 1142.132812 174.566406 1143.863281 175.28125 1145.902344 175.28125 C 1147.207031 175.28125 1148.414062 174.941406 1149.5 174.28125 C 1150.601562 173.609375 1151.488281 172.734375 1152.171875 171.613281 C 1152.855469 170.496094 1153.203125 169.269531 1153.21875 167.921875 C 1153.191406 165.914062 1152.453125 164.203125 1150.992188 162.773438 C 1149.542969 161.347656 1147.835938 160.632812 1145.902344 160.632812 Z M 1145.902344 160.632812 "/></g></g></svg>