<svg xmlns="http://www.w3.org/2000/svg" xmlns:xlink="http://www.w3.org/1999/xlink" width="756" zoomAndPan="magnify" viewBox="0 0 567 141.750002" height="189" preserveAspectRatio="xMidYMid meet" version="1.2"><defs><clipPath id="804898382d"><path d="M 0.5 0 L 566.5 0 L 566.5 141.5 L 0.5 141.5 Z M 0.5 0 "/></clipPath><clipPath id="448634376d"><path d="M 230.421875 38.167969 L 306.535156 38.167969 L 306.535156 103.960938 L 230.421875 103.960938 Z M 230.421875 38.167969 "/></clipPath><clipPath id="513251f2c7"><path d="M 268.574219 38.332031 L 230.703125 103.933594 L 306.449219 103.933594 Z M 268.574219 38.332031 "/></clipPath><clipPath id="f015113082"><path d="M 229.132812 36.554688 L 307.824219 36.554688 L 307.824219 104.925781 L 229.132812 104.925781 Z M 229.132812 36.554688 "/></clipPath><clipPath id="b91cb2a8ea"><path d="M 269.25 38.710938 L 231.375 104.3125 L 230.703125 103.933594 L 230.703125 103.15625 L 306.449219 103.15625 L 306.449219 103.933594 L 305.777344 104.3125 L 267.902344 38.710938 L 268.574219 38.332031 L 269.25 38.710938 M 267.902344 37.9375 L 268.574219 36.78125 L 269.25 37.9375 L 307.121094 103.539062 L 307.796875 104.695312 L 229.355469 104.695312 L 230.03125 103.539062 Z M 267.902344 37.9375 "/></clipPath></defs><g id="ec32886bed"><g clip-rule="nonzero" clip-path="url(#804898382d)"><path style=" stroke:none;fill-rule:nonzero;fill:#ffffff;fill-opacity:1;" d="M 0.5 0 L 566.5 0 L 566.5 141.5 L 0.5 141.5 Z M 0.5 0 "/><path style=" stroke:none;fill-rule:nonzero;fill:#ffffff;fill-opacity:1;" d="M 0.5 0 L 566.5 0 L 566.5 141.5 L 0.5 141.5 Z M 0.5 0 "/></g><g clip-rule="nonzero" clip-path="url(#448634376d)"><g clip-rule="nonzero" clip-path="url(#513251f2c7)"><path style=" stroke:none;fill-rule:nonzero;fill:#4dab47;fill-opacity:1;" d="M 222.035156 29.460938 L 315.242188 29.460938 L 315.242188 112.023438 L 222.035156 112.023438 Z M 222.035156 29.460938 "/></g></g><g clip-rule="nonzero" clip-path="url(#f015113082)"><g clip-rule="nonzero" clip-path="url(#b91cb2a8ea)"><path style=" stroke:none;fill-rule:nonzero;fill:#231f20;fill-opacity:1;" d="M 222.035156 29.460938 L 315.242188 29.460938 L 315.242188 112.023438 L 222.035156 112.023438 Z M 222.035156 29.460938 "/></g></g></g></svg>