<svg xmlns="http://www.w3.org/2000/svg" xmlns:xlink="http://www.w3.org/1999/xlink" width="600" zoomAndPan="magnify" viewBox="0 0 450 149.999998" height="200" preserveAspectRatio="xMidYMid meet" version="1.2"><defs><clipPath id="f7b7a69a1e"><path d="M 0 27.40625 L 215.277344 27.40625 L 215.277344 150 L 0 150 Z M 0 27.40625 "/></clipPath><clipPath id="bfb397b461"><path d="M 0 27.40625 L 214.675781 27.40625 L 214.675781 149.65625 L 0 149.65625 Z M 0 27.40625 "/></clipPath><clipPath id="53a5492a82"><path d="M 239.417969 27.40625 L 450 27.40625 L 450 150 L 239.417969 150 Z M 239.417969 27.40625 "/></clipPath><clipPath id="43470ef117"><path d="M 239.421875 27.40625 L 449.988281 27.40625 L 449.988281 150 L 239.421875 150 Z M 239.421875 27.40625 "/></clipPath><clipPath id="1d210fb06b"><path d="M 84.835938 0 L 121.585938 0 L 121.585938 36.75 L 84.835938 36.75 Z M 84.835938 0 "/></clipPath><clipPath id="51c7c3357b"><path d="M 332.078125 0 L 368.828125 0 L 368.828125 36.75 L 332.078125 36.75 Z M 332.078125 0 "/></clipPath></defs><g id="61e0309cdc"><rect x="0" width="450" y="0" height="149.999998" style="fill:#ffffff;fill-opacity:1;stroke:none;"/><rect x="0" width="450" y="0" height="149.999998" style="fill:#ffffff;fill-opacity:1;stroke:none;"/><g clip-rule="nonzero" clip-path="url(#f7b7a69a1e)"><path style=" stroke:none;fill-rule:nonzero;fill:#ffffff;fill-opacity:1;" d="M 0 27.40625 L 215.492188 27.40625 L 215.492188 150 L 0 150 Z M 0 27.40625 "/></g><g clip-rule="nonzero" clip-path="url(#bfb397b461)"><path style="fill:none;stroke-width:6;stroke-linecap:butt;stroke-linejoin:miter;stroke:#017f40;stroke-opacity:1;stroke-miterlimit:4;" d="M -0.00123657 -0.00209455 L 287.028839 -0.00209455 L 287.028839 163.451028 L -0.00123657 163.451028 Z M -0.00123657 -0.00209455 " transform="matrix(0.747921,0,0,0.747921,0.000924856,27.407817)"/></g><g clip-rule="nonzero" clip-path="url(#53a5492a82)"><path style=" stroke:none;fill-rule:nonzero;fill:#ffffff;fill-opacity:1;" d="M 239.417969 27.40625 L 449.875 27.40625 L 449.875 150.136719 L 239.417969 150.136719 Z M 239.417969 27.40625 "/></g><g clip-rule="nonzero" clip-path="url(#43470ef117)"><path style="fill:none;stroke-width:6;stroke-linecap:butt;stroke-linejoin:miter;stroke:#017f40;stroke-opacity:1;stroke-miterlimit:4;" d="M -0.000938112 -0.00208875 L 280.754287 -0.00208875 L 280.754287 163.622921 L -0.000938112 163.622921 Z M -0.000938112 -0.00208875 " transform="matrix(0.75,0,0,0.75,239.422579,27.407817)"/></g><g clip-rule="nonzero" clip-path="url(#1d210fb06b)"><path style=" stroke:none;fill-rule:nonzero;fill:#00a64d;fill-opacity:1;" d="M 103.101562 0 C 93.015625 0 84.835938 8.179688 84.835938 18.265625 C 84.835938 28.347656 93.015625 36.527344 103.101562 36.527344 C 113.183594 36.527344 121.363281 28.347656 121.363281 18.265625 C 121.363281 8.179688 113.183594 0 103.101562 0 Z M 103.101562 0 "/></g><path style=" stroke:none;fill-rule:nonzero;fill:#ffffff;fill-opacity:1;" d="M 105.359375 10.703125 C 105.132812 10.410156 104.824219 10.261719 104.441406 10.261719 C 104.101562 10.261719 103.871094 10.328125 103.746094 10.453125 C 103.621094 10.585938 103.363281 10.925781 102.960938 11.492188 C 102.554688 12.050781 102.097656 12.558594 101.574219 13.015625 C 101.054688 13.472656 100.359375 13.898438 99.492188 14.3125 C 98.910156 14.582031 98.507812 14.804688 98.269531 14.980469 C 98.042969 15.148438 97.925781 15.421875 97.925781 15.789062 C 97.925781 16.105469 98.042969 16.386719 98.277344 16.628906 C 98.511719 16.871094 98.777344 16.988281 99.082031 16.988281 C 99.714844 16.988281 100.941406 16.289062 102.769531 14.886719 L 102.769531 24.699219 C 102.769531 25.273438 102.902344 25.707031 103.164062 26 C 103.429688 26.296875 103.785156 26.441406 104.226562 26.441406 C 105.210938 26.441406 105.707031 25.722656 105.707031 24.277344 L 105.707031 11.925781 C 105.707031 11.410156 105.589844 10.996094 105.359375 10.703125 "/><g clip-rule="nonzero" clip-path="url(#51c7c3357b)"><path style=" stroke:none;fill-rule:nonzero;fill:#00a64d;fill-opacity:1;" d="M 350.34375 0 C 340.257812 0 332.078125 8.179688 332.078125 18.265625 C 332.078125 28.347656 340.257812 36.527344 350.34375 36.527344 C 360.429688 36.527344 368.605469 28.347656 368.605469 18.265625 C 368.605469 8.179688 360.429688 0 350.34375 0 Z M 350.34375 0 "/></g><path style=" stroke:none;fill-rule:nonzero;fill:#ffffff;fill-opacity:1;" d="M 355.621094 23.96875 C 355.328125 23.742188 354.898438 23.621094 354.339844 23.621094 L 348.707031 23.621094 C 348.886719 23.351562 349.0625 23.113281 349.238281 22.921875 C 349.644531 22.4375 350.386719 21.746094 351.460938 20.863281 C 352.542969 19.980469 353.316406 19.332031 353.773438 18.917969 C 354.230469 18.507812 354.6875 17.933594 355.128906 17.203125 C 355.570312 16.476562 355.789062 15.664062 355.789062 14.773438 C 355.789062 14.207031 355.6875 13.65625 355.472656 13.132812 C 355.261719 12.601562 354.964844 12.140625 354.582031 11.734375 C 354.199219 11.328125 353.757812 11.011719 353.257812 10.785156 C 352.484375 10.4375 351.542969 10.269531 350.445312 10.269531 C 349.53125 10.269531 348.738281 10.402344 348.0625 10.675781 C 347.382812 10.945312 346.824219 11.300781 346.375 11.734375 C 345.933594 12.175781 345.601562 12.660156 345.382812 13.199219 C 345.160156 13.738281 345.050781 14.257812 345.050781 14.753906 C 345.050781 15.164062 345.167969 15.488281 345.402344 15.722656 C 345.640625 15.960938 345.941406 16.078125 346.300781 16.078125 C 346.714844 16.078125 347.023438 15.945312 347.234375 15.6875 C 347.449219 15.429688 347.640625 15.0625 347.808594 14.574219 C 347.980469 14.097656 348.097656 13.800781 348.171875 13.691406 C 348.707031 12.867188 349.453125 12.457031 350.394531 12.457031 C 350.84375 12.457031 351.25 12.558594 351.632812 12.757812 C 352.007812 12.957031 352.308594 13.242188 352.527344 13.605469 C 352.75 13.964844 352.859375 14.375 352.859375 14.839844 C 352.859375 15.265625 352.757812 15.695312 352.550781 16.144531 C 352.34375 16.59375 352.050781 17.019531 351.652344 17.4375 C 351.261719 17.859375 350.769531 18.277344 350.179688 18.699219 C 349.847656 18.917969 349.296875 19.390625 348.53125 20.097656 C 347.757812 20.804688 346.898438 21.65625 345.941406 22.644531 C 345.710938 22.886719 345.5 23.226562 345.308594 23.652344 C 345.117188 24.078125 345.011719 24.425781 345.011719 24.683594 C 345.011719 25.085938 345.167969 25.433594 345.46875 25.734375 C 345.769531 26.039062 346.191406 26.183594 346.726562 26.183594 L 354.664062 26.183594 C 355.136719 26.183594 355.496094 26.058594 355.722656 25.816406 C 355.960938 25.574219 356.078125 25.273438 356.078125 24.917969 C 356.0625 24.511719 355.914062 24.195312 355.621094 23.96875 "/><g style="fill:#005c36;fill-opacity:1;"><g transform="translate(37.385458, 104.452992)"><path style="stroke:none" d="M 3.773438 -40.214844 L 3.773438 -32.195312 L 18.632812 -32.195312 L 7.84375 -2.535156 L 15.863281 0.53125 L 30.542969 -39.742188 L 30.542969 -40.214844 Z M 3.773438 -40.214844 "/></g></g><g style="fill:#005c36;fill-opacity:1;"><g transform="translate(70.048001, 104.452992)"><path style="stroke:none" d=""/></g></g><g style="fill:#005c36;fill-opacity:1;"><g transform="translate(86.556148, 104.452992)"><path style="stroke:none" d="M 0.234375 -27.183594 L 11.085938 -13.914062 L 0.234375 0 L 10.378906 0 L 16.332031 -7.902344 L 22.464844 0 L 32.902344 0 L 21.640625 -13.914062 L 32.078125 -27.183594 L 21.640625 -27.183594 L 16.332031 -19.871094 L 10.730469 -27.183594 Z M 0.234375 -27.183594 "/></g></g><g style="fill:#005c36;fill-opacity:1;"><g transform="translate(119.749312, 104.452992)"><path style="stroke:none" d=""/></g></g><g style="fill:#005c36;fill-opacity:1;"><g transform="translate(136.257459, 104.452992)"><path style="stroke:none" d="M 15.035156 -40.746094 L 8.078125 -29.480469 C 3.890625 -22.703125 2.59375 -18.398438 2.59375 -13.5625 C 2.59375 -4.363281 8.960938 0.53125 16.097656 0.53125 C 23.703125 0.53125 29.246094 -5.484375 29.246094 -13.324219 C 29.246094 -20.164062 24.53125 -25.886719 17.984375 -25.886719 C 17.277344 -25.886719 16.804688 -25.828125 15.625 -25.53125 L 24.941406 -40.746094 Z M 11.675781 -12.796875 C 11.675781 -16.6875 13.445312 -18.867188 15.980469 -18.867188 C 18.925781 -18.867188 20.578125 -16.214844 20.578125 -12.972656 C 20.578125 -9.609375 18.988281 -6.957031 16.097656 -6.957031 C 13.324219 -6.957031 11.675781 -9.140625 11.675781 -12.796875 Z M 11.675781 -12.796875 "/></g></g><g style="fill:#005c36;fill-opacity:1;"><g transform="translate(278.994979, 104.452992)"><path style="stroke:none" d="M 16.15625 -40.746094 C 8.609375 -40.746094 3.949219 -36.203125 3.949219 -29.835938 C 3.949219 -26.355469 5.308594 -23.46875 8.902344 -21.226562 C 5.011719 -19.636719 2.832031 -15.863281 2.832031 -11.4375 C 2.832031 -4.363281 8.433594 0.53125 16.214844 0.53125 C 24.589844 0.53125 29.777344 -4.421875 29.777344 -11.5 C 29.777344 -15.742188 27.65625 -19.398438 23.761719 -21.226562 C 27.535156 -23.410156 28.65625 -26.710938 28.65625 -29.953125 C 28.65625 -35.023438 24.589844 -40.746094 16.15625 -40.746094 Z M 12.5 -29.304688 C 12.5 -32.488281 13.855469 -34.730469 16.273438 -34.730469 C 18.691406 -34.730469 20.046875 -32.84375 20.046875 -29.363281 C 20.046875 -25.769531 18.691406 -23.703125 16.332031 -23.703125 C 13.796875 -23.703125 12.5 -26.121094 12.5 -29.304688 Z M 20.695312 -11.5 C 20.695312 -7.664062 18.988281 -5.246094 16.390625 -5.246094 C 13.796875 -5.246094 11.851562 -7.785156 11.851562 -11.675781 C 11.851562 -15.507812 13.503906 -17.984375 16.332031 -17.984375 C 18.988281 -17.984375 20.695312 -15.742188 20.695312 -11.5 Z M 20.695312 -11.5 "/></g></g><g style="fill:#005c36;fill-opacity:1;"><g transform="translate(311.657521, 104.452992)"><path style="stroke:none" d=""/></g></g><g style="fill:#005c36;fill-opacity:1;"><g transform="translate(328.165669, 104.452992)"><path style="stroke:none" d="M 0.234375 -27.183594 L 11.085938 -13.914062 L 0.234375 0 L 10.378906 0 L 16.332031 -7.902344 L 22.464844 0 L 32.902344 0 L 21.640625 -13.914062 L 32.078125 -27.183594 L 21.640625 -27.183594 L 16.332031 -19.871094 L 10.730469 -27.183594 Z M 0.234375 -27.183594 "/></g></g><g style="fill:#005c36;fill-opacity:1;"><g transform="translate(361.358832, 104.452992)"><path style="stroke:none" d=""/></g></g><g style="fill:#005c36;fill-opacity:1;"><g transform="translate(377.86698, 104.452992)"><path style="stroke:none" d="M 5.835938 -40.214844 L 5.835938 -17.277344 C 7.429688 -17.6875 9.082031 -17.867188 10.789062 -17.867188 C 15.449219 -17.867188 18.691406 -15.683594 18.691406 -12.085938 C 18.691406 -9.140625 16.332031 -6.546875 12.324219 -6.546875 C 10.199219 -6.546875 7.371094 -7.015625 3.773438 -8.960938 L 3.773438 -1.652344 C 5.777344 -0.472656 10.140625 0.53125 13.503906 0.53125 C 23.113281 0.53125 28.066406 -4.894531 28.066406 -12.558594 C 28.066406 -19.578125 22.582031 -24.648438 15.449219 -24.648438 C 14.800781 -24.648438 14.328125 -24.589844 13.855469 -24.589844 L 13.855469 -32.136719 L 26.710938 -32.136719 L 26.710938 -40.214844 Z M 5.835938 -40.214844 "/></g></g></g></svg>