<svg xmlns="http://www.w3.org/2000/svg" xmlns:xlink="http://www.w3.org/1999/xlink" width="600" zoomAndPan="magnify" viewBox="0 0 450 149.999998" height="200" preserveAspectRatio="xMidYMid meet" version="1.2"><defs/><g id="de0f913c4a"><rect x="0" width="450" y="0" height="149.999998" style="fill:#ffffff;fill-opacity:1;stroke:none;"/><rect x="0" width="450" y="0" height="149.999998" style="fill:#ffffff;fill-opacity:1;stroke:none;"/><path style="fill-rule:nonzero;fill:#000000;fill-opacity:1;stroke-width:1;stroke-linecap:butt;stroke-linejoin:miter;stroke:#0c7b3b;stroke-opacity:1;stroke-miterlimit:4;" d="M 0.499995 0.999997 L 0.499995 199.000009 M 599.50003 0.999997 L 599.50003 199.000009 M -0.000005 0.499997 L 600.00003 0.499997 M -0.000005 199.500009 L 600.00003 199.500009 " transform="matrix(0.75,0,0,0.75,0.00000375,0.000002)"/><g style="fill:#0c7b3b;fill-opacity:1;"><g transform="translate(198.643492, 109.348325)"><path style="stroke:none" d="M 29.742188 -75.007812 C 15.847656 -75.007812 7.273438 -66.652344 7.273438 -54.925781 C 7.273438 -48.523438 9.769531 -43.203125 16.390625 -39.078125 C 9.226562 -36.148438 5.210938 -29.199219 5.210938 -21.058594 C 5.210938 -8.03125 15.523438 0.976562 29.851562 0.976562 C 45.265625 0.976562 54.816406 -8.140625 54.816406 -21.167969 C 54.816406 -28.984375 50.910156 -35.714844 43.746094 -39.078125 C 50.695312 -43.09375 52.757812 -49.171875 52.757812 -55.144531 C 52.757812 -64.480469 45.265625 -75.007812 29.742188 -75.007812 Z M 23.011719 -53.949219 C 23.011719 -59.8125 25.507812 -63.9375 29.960938 -63.9375 C 34.410156 -63.9375 36.90625 -60.464844 36.90625 -54.058594 C 36.90625 -47.4375 34.410156 -43.636719 30.070312 -43.636719 C 25.402344 -43.636719 23.011719 -48.089844 23.011719 -53.949219 Z M 38.101562 -21.167969 C 38.101562 -14.113281 34.953125 -9.660156 30.175781 -9.660156 C 25.402344 -9.660156 21.820312 -14.328125 21.820312 -21.492188 C 21.820312 -28.550781 24.859375 -33.109375 30.070312 -33.109375 C 34.953125 -33.109375 38.101562 -28.984375 38.101562 -21.167969 Z M 38.101562 -21.167969 "/></g></g></g></svg>