<svg xmlns="http://www.w3.org/2000/svg" xmlns:xlink="http://www.w3.org/1999/xlink" width="600" zoomAndPan="magnify" viewBox="0 0 450 149.999998" height="200" preserveAspectRatio="xMidYMid meet" version="1.2"><defs/><g id="98dc60b761"><rect x="0" width="450" y="0" height="149.999998" style="fill:#ffffff;fill-opacity:1;stroke:none;"/><rect x="0" width="450" y="0" height="149.999998" style="fill:#ffffff;fill-opacity:1;stroke:none;"/><path style="fill-rule:nonzero;fill:#000000;fill-opacity:1;stroke-width:1;stroke-linecap:butt;stroke-linejoin:miter;stroke:#0c7b3b;stroke-opacity:1;stroke-miterlimit:4;" d="M 0.499995 0.999997 L 0.499995 199.000009 M 599.50003 0.999997 L 599.50003 199.000009 M -0.000005 0.499997 L 600.00003 0.499997 M -0.000005 199.500009 L 600.00003 199.500009 " transform="matrix(0.75,0,0,0.75,0.00000375,0.000002)"/><g style="fill:#0c7b3b;fill-opacity:1;"><g transform="translate(49.336547, 108.343281)"><path style="stroke:none" d="M 30.417969 -82.746094 C 21.433594 -82.746094 14.96875 -79.632812 7.542969 -74.964844 L 7.542969 -57.839844 C 14.128906 -64.1875 21.914062 -68.019531 27.183594 -68.019531 C 33.410156 -68.019531 38.199219 -62.628906 38.199219 -56.523438 C 38.199219 -48.859375 34.128906 -39.636719 21.792969 -22.753906 C 15.6875 -14.488281 10.539062 -7.542969 6.464844 -2.394531 L 6.464844 0 L 60.472656 0 L 60.472656 -16.644531 L 34.128906 -16.644531 C 45.265625 -31.015625 47.421875 -34.847656 52.691406 -45.265625 C 55.085938 -50.175781 56.28125 -54.847656 56.28125 -59.875 C 56.28125 -72.089844 48.257812 -82.746094 30.417969 -82.746094 Z M 30.417969 -82.746094 "/></g></g><g style="fill:#0c7b3b;fill-opacity:1;"><g transform="translate(191.945381, 108.343281)"><path style="stroke:none" d="M 27.664062 -82.746094 C 21.554688 -82.746094 14.371094 -81.550781 8.980469 -79.15625 L 8.980469 -64.785156 C 15.328125 -68.019531 19.519531 -69.097656 24.308594 -69.097656 C 30.417969 -69.097656 35.6875 -65.144531 35.6875 -59.515625 C 35.6875 -54.847656 31.613281 -50.175781 24.429688 -49.578125 L 24.429688 -35.207031 C 32.8125 -34.367188 37.003906 -29.699219 37.003906 -23.832031 C 37.003906 -17.84375 31.855469 -13.171875 24.90625 -13.171875 C 18.800781 -13.171875 12.574219 -15.328125 6.945312 -19.398438 L 6.945312 -3.59375 C 12.695312 -0.480469 20.476562 1.078125 27.421875 1.078125 C 42.992188 1.078125 56.042969 -7.066406 56.042969 -22.753906 C 56.042969 -33.648438 51.015625 -39.996094 41.671875 -43.828125 C 49.21875 -47.421875 53.769531 -55.085938 53.769531 -62.75 C 53.769531 -74.964844 42.75 -82.746094 27.664062 -82.746094 Z M 27.664062 -82.746094 "/></g></g><g style="fill:#0c7b3b;fill-opacity:1;"><g transform="translate(323.09525, 112.613593)"><path style="stroke:none" d="M 43.351562 -82.746094 L 4.910156 -33.171875 L 4.910156 -20.117188 L 36.761719 -20.117188 L 36.761719 0 L 54.847656 0 L 54.847656 -20.117188 L 60.355469 -20.117188 L 60.355469 -33.171875 L 54.847656 -33.171875 L 54.847656 -82.746094 Z M 36.761719 -33.171875 L 19.28125 -33.171875 L 36.761719 -55.445312 Z M 36.761719 -33.171875 "/></g></g></g></svg>