<svg xmlns="http://www.w3.org/2000/svg" xmlns:xlink="http://www.w3.org/1999/xlink" width="600" zoomAndPan="magnify" viewBox="0 0 450 149.999998" height="200" preserveAspectRatio="xMidYMid meet" version="1.2"><defs><clipPath id="bcdc8fb64b"><path d="M 238.835938 38.695312 L 265.085938 38.695312 L 265.085938 70 L 238.835938 70 Z M 238.835938 38.695312 "/></clipPath><clipPath id="d3ac575ba5"><path d="M 246 72 L 256 72 L 256 81.445312 L 246 81.445312 Z M 246 72 "/></clipPath></defs><g id="2e10568574"><rect x="0" width="450" y="0" height="149.999998" style="fill:#ffffff;fill-opacity:1;stroke:none;"/><rect x="0" width="450" y="0" height="149.999998" style="fill:#ffffff;fill-opacity:1;stroke:none;"/><path style="fill-rule:nonzero;fill:#000000;fill-opacity:1;stroke-width:1;stroke-linecap:butt;stroke-linejoin:miter;stroke:#0c7b3b;stroke-opacity:1;stroke-miterlimit:4;" d="M 0.499995 0.999997 L 0.499995 199.000009 M 599.50003 0.999997 L 599.50003 199.000009 M -0.000005 0.499997 L 600.00003 0.499997 M -0.000005 199.500009 L 600.00003 199.500009 " transform="matrix(0.75,0,0,0.75,0.00000375,0.000002)"/><g style="fill:#0c7b3b;fill-opacity:1;"><g transform="translate(93.788905, 85.014053)"><path style="stroke:none" d="M 16.671875 -45.179688 L 8.957031 -32.691406 C 4.316406 -25.171875 2.875 -20.398438 2.875 -15.039062 C 2.875 -4.839844 9.9375 0.589844 17.847656 0.589844 C 26.285156 0.589844 32.429688 -6.082031 32.429688 -14.777344 C 32.429688 -22.359375 27.199219 -28.703125 19.941406 -28.703125 C 19.15625 -28.703125 18.632812 -28.636719 17.328125 -28.3125 L 27.65625 -45.179688 Z M 12.945312 -14.1875 C 12.945312 -18.503906 14.90625 -20.921875 17.71875 -20.921875 C 20.988281 -20.921875 22.820312 -17.980469 22.820312 -14.382812 C 22.820312 -10.65625 21.054688 -7.714844 17.847656 -7.714844 C 14.777344 -7.714844 12.945312 -10.132812 12.945312 -14.1875 Z M 12.945312 -14.1875 "/></g></g><g style="fill:#0c7b3b;fill-opacity:1;"><g transform="translate(129.879943, 85.014053)"><path style="stroke:none" d="M 8.367188 -9.351562 C 5.882812 -9.351562 2.875 -7.519531 2.875 -4.316406 C 2.875 -2.222656 4.054688 -0.328125 6.210938 0.589844 C 6.277344 0.914062 6.277344 1.242188 6.277344 1.570312 C 6.277344 4.117188 5.296875 6.734375 3.269531 9.023438 L 3.269531 11.050781 C 10.394531 10.332031 14.777344 3.859375 14.777344 -1.894531 C 14.777344 -7.910156 10.332031 -9.351562 8.367188 -9.351562 Z M 8.367188 -9.351562 "/></g></g><g style="fill:#0c7b3b;fill-opacity:1;"><g transform="translate(147.598544, 85.014053)"><path style="stroke:none" d=""/></g></g><g style="fill:#0c7b3b;fill-opacity:1;"><g transform="translate(165.774831, 85.014053)"><path style="stroke:none" d="M 4.183594 -44.589844 L 4.183594 -35.699219 L 20.660156 -35.699219 L 8.695312 -2.8125 L 17.585938 0.589844 L 33.867188 -44.066406 L 33.867188 -44.589844 Z M 4.183594 -44.589844 "/></g></g><g style="fill:#0c7b3b;fill-opacity:1;"><g transform="translate(201.865868, 85.014053)"><path style="stroke:none" d="M 8.367188 -9.351562 C 5.882812 -9.351562 2.875 -7.519531 2.875 -4.316406 C 2.875 -2.222656 4.054688 -0.328125 6.210938 0.589844 C 6.277344 0.914062 6.277344 1.242188 6.277344 1.570312 C 6.277344 4.117188 5.296875 6.734375 3.269531 9.023438 L 3.269531 11.050781 C 10.394531 10.332031 14.777344 3.859375 14.777344 -1.894531 C 14.777344 -7.910156 10.332031 -9.351562 8.367188 -9.351562 Z M 8.367188 -9.351562 "/></g></g><g style="fill:#0c7b3b;fill-opacity:1;"><g transform="translate(219.584463, 85.014053)"><path style="stroke:none" d="M -0.390625 4.902344 L -0.390625 8.171875 L 33.082031 8.171875 L 33.082031 4.902344 Z M -0.390625 4.902344 "/></g></g><g style="fill:#0c7b3b;fill-opacity:1;"><g transform="translate(252.275612, 85.014053)"><path style="stroke:none" d="M -0.390625 4.902344 L -0.390625 8.171875 L 33.082031 8.171875 L 33.082031 4.902344 Z M -0.390625 4.902344 "/></g></g><g style="fill:#0c7b3b;fill-opacity:1;"><g transform="translate(284.966762, 85.014053)"><path style="stroke:none" d="M 8.367188 -9.351562 C 5.882812 -9.351562 2.875 -7.519531 2.875 -4.316406 C 2.875 -2.222656 4.054688 -0.328125 6.210938 0.589844 C 6.277344 0.914062 6.277344 1.242188 6.277344 1.570312 C 6.277344 4.117188 5.296875 6.734375 3.269531 9.023438 L 3.269531 11.050781 C 10.394531 10.332031 14.777344 3.859375 14.777344 -1.894531 C 14.777344 -7.910156 10.332031 -9.351562 8.367188 -9.351562 Z M 8.367188 -9.351562 "/></g></g><g style="fill:#0c7b3b;fill-opacity:1;"><g transform="translate(302.685369, 85.014053)"><path style="stroke:none" d=""/></g></g><g style="fill:#0c7b3b;fill-opacity:1;"><g transform="translate(320.86165, 85.014053)"><path style="stroke:none" d="M 17.128906 -45.179688 C 9.089844 -45.179688 2.289062 -38.835938 2.289062 -29.8125 C 2.289062 -21.96875 7.847656 -15.691406 14.582031 -15.691406 C 15.691406 -15.691406 16.28125 -15.886719 17.457031 -16.148438 L 7.191406 0.589844 L 18.109375 0.589844 L 25.890625 -12.03125 C 29.945312 -18.632812 31.839844 -24.0625 31.839844 -30.140625 C 31.839844 -39.164062 24.78125 -45.179688 17.128906 -45.179688 Z M 11.898438 -30.140625 C 11.898438 -34.0625 13.992188 -36.808594 16.867188 -36.808594 C 19.8125 -36.808594 21.835938 -34.523438 21.835938 -30.140625 C 21.835938 -26.285156 19.8125 -23.539062 16.867188 -23.539062 C 14.058594 -23.539062 11.898438 -26.023438 11.898438 -30.140625 Z M 11.898438 -30.140625 "/></g></g><g clip-rule="nonzero" clip-path="url(#bcdc8fb64b)"><path style=" stroke:none;fill-rule:nonzero;fill:#000000;fill-opacity:1;" d="M 263.347656 43.65625 C 262.21875 42.046875 260.660156 40.816406 258.675781 39.96875 C 256.703125 39.125 254.417969 38.695312 251.835938 38.695312 C 249.484375 38.695312 247.335938 39.113281 245.394531 39.953125 C 243.453125 40.78125 241.890625 42.054688 240.707031 43.742188 C 239.769531 45.082031 239.1875 46.707031 238.945312 48.613281 C 238.84375 49.445312 239.503906 50.179688 240.339844 50.179688 L 245.539062 50.179688 C 246.207031 50.179688 246.773438 49.707031 246.917969 49.058594 C 247.046875 48.476562 247.261719 47.957031 247.558594 47.511719 C 248.039062 46.792969 248.652344 46.246094 249.40625 45.878906 C 250.160156 45.511719 250.953125 45.324219 251.800781 45.324219 C 252.671875 45.324219 253.460938 45.503906 254.1875 45.871094 C 254.90625 46.230469 255.480469 46.75 255.90625 47.425781 C 256.332031 48.101562 256.546875 48.878906 256.546875 49.777344 C 256.546875 50.625 256.359375 51.382812 255.984375 52.058594 C 255.605469 52.734375 255.101562 53.359375 254.46875 53.914062 C 253.828125 54.480469 253.117188 55.007812 252.3125 55.53125 C 251.238281 56.207031 250.3125 56.960938 249.550781 57.789062 C 248.78125 58.617188 248.210938 59.703125 247.808594 61.054688 C 247.414062 62.40625 247.207031 64.210938 247.199219 66.476562 L 247.199219 67.605469 C 247.199219 68.375 247.824219 69.007812 248.601562 69.007812 L 253.179688 69.007812 C 253.949219 69.007812 254.582031 68.382812 254.582031 67.605469 L 254.582031 66.476562 C 254.597656 65.203125 254.761719 64.132812 255.078125 63.269531 C 255.394531 62.40625 255.878906 61.636719 256.53125 60.976562 C 257.1875 60.320312 258.027344 59.6875 259.054688 59.070312 C 260.277344 58.34375 261.328125 57.53125 262.226562 56.625 C 263.117188 55.726562 263.816406 54.683594 264.320312 53.511719 C 264.816406 52.34375 265.074219 50.992188 265.074219 49.476562 C 265.046875 47.203125 264.476562 45.261719 263.347656 43.65625 Z M 263.347656 43.65625 "/></g><g clip-rule="nonzero" clip-path="url(#d3ac575ba5)"><path style=" stroke:none;fill-rule:nonzero;fill:#000000;fill-opacity:1;" d="M 251.03125 72.152344 C 249.730469 72.152344 248.628906 72.605469 247.714844 73.511719 C 246.796875 74.417969 246.34375 75.511719 246.363281 76.777344 C 246.34375 78.058594 246.796875 79.164062 247.714844 80.078125 C 248.628906 80.992188 249.730469 81.445312 251.03125 81.445312 C 251.859375 81.445312 252.628906 81.234375 253.324219 80.8125 C 254.023438 80.386719 254.589844 79.832031 255.023438 79.121094 C 255.460938 78.410156 255.683594 77.632812 255.691406 76.777344 C 255.675781 75.503906 255.203125 74.417969 254.273438 73.511719 C 253.347656 72.605469 252.261719 72.152344 251.03125 72.152344 Z M 251.03125 72.152344 "/></g></g></svg>