<svg xmlns="http://www.w3.org/2000/svg" xmlns:xlink="http://www.w3.org/1999/xlink" width="600" zoomAndPan="magnify" viewBox="0 0 450 149.999998" height="200" preserveAspectRatio="xMidYMid meet" version="1.2"><defs><clipPath id="912d55ef7f"><path d="M 167.214844 9 L 283 9 L 283 51.578125 L 167.214844 51.578125 Z M 167.214844 9 "/></clipPath><clipPath id="c391c29bc8"><path d="M 167.214844 8.828125 L 283.464844 8.828125 L 283.464844 51.578125 L 167.214844 51.578125 Z M 167.214844 8.828125 "/></clipPath><clipPath id="c7ac9e73bc"><path d="M 178.871094 15 L 212.296875 15 L 212.296875 46.714844 L 178.871094 46.714844 Z M 178.871094 15 "/></clipPath><clipPath id="a8df7a95bd"><path d="M 167.214844 57.097656 L 283 57.097656 L 283 98 L 167.214844 98 Z M 167.214844 57.097656 "/></clipPath><clipPath id="f2608d13ef"><path d="M 167.214844 57.097656 L 283.464844 57.097656 L 283.464844 98.347656 L 167.214844 98.347656 Z M 167.214844 57.097656 "/></clipPath><clipPath id="275cd0db97"><path d="M 249.367188 71.882812 L 256.117188 71.882812 L 256.117188 80 L 249.367188 80 Z M 249.367188 71.882812 "/></clipPath><clipPath id="1df01855f9"><path d="M 251 80 L 254 80 L 254 83.132812 L 251 83.132812 Z M 251 80 "/></clipPath><clipPath id="fdd952318f"><path d="M 238.636719 15 L 271 15 L 271 46.714844 L 238.636719 46.714844 Z M 238.636719 15 "/></clipPath><clipPath id="f57c6ec0c9"><path d="M 178.871094 62.722656 L 212.296875 62.722656 L 212.296875 92.796875 L 178.871094 92.796875 Z M 178.871094 62.722656 "/></clipPath><clipPath id="428283bb04"><path d="M 139.175781 104.679688 L 313.925781 104.679688 L 313.925781 135 L 139.175781 135 Z M 139.175781 104.679688 "/></clipPath><clipPath id="8927593c61"><path d="M 139.175781 137.398438 L 313.925781 137.398438 L 313.925781 149 L 139.175781 149 Z M 139.175781 137.398438 "/></clipPath><clipPath id="a95178ea7c"><path d="M 139.175781 137.398438 L 313.925781 137.398438 L 313.925781 149.398438 L 139.175781 149.398438 Z M 139.175781 137.398438 "/></clipPath><clipPath id="a633c6acd5"><path d="M 191.78125 108.242188 L 215.03125 108.242188 L 215.03125 131.492188 L 191.78125 131.492188 Z M 191.78125 108.242188 "/></clipPath><clipPath id="7dc9bc3d72"><path d="M 146.53125 108.179688 L 169 108.179688 L 169 130.679688 L 146.53125 130.679688 Z M 146.53125 108.179688 "/></clipPath><clipPath id="ffa910fefd"><path d="M 235.476562 108.601562 L 258.144531 108.601562 L 258.144531 130.941406 L 235.476562 130.941406 Z M 235.476562 108.601562 "/></clipPath><clipPath id="ed8924f282"><path d="M 278.980469 108.242188 L 301.648438 108.242188 L 301.648438 130.585938 L 278.980469 130.585938 Z M 278.980469 108.242188 "/></clipPath></defs><g id="04e0012c6f"><rect x="0" width="450" y="0" height="149.999998" style="fill:#ffffff;fill-opacity:1;stroke:none;"/><rect x="0" width="450" y="0" height="149.999998" style="fill:#ffffff;fill-opacity:1;stroke:none;"/><g clip-rule="nonzero" clip-path="url(#912d55ef7f)"><path style=" stroke:none;fill-rule:nonzero;fill:#000000;fill-opacity:1;" d="M 167.453125 9.300781 L 167.453125 50.921875 M 228.449219 9.300781 L 228.449219 50.921875 M 282.546875 9.300781 L 282.546875 50.921875 M 167.214844 9.066406 L 282.785156 9.066406 M 167.214844 51.160156 L 282.785156 51.160156 "/></g><g clip-rule="nonzero" clip-path="url(#c391c29bc8)"><path style="fill:none;stroke-width:0.631105;stroke-linecap:butt;stroke-linejoin:miter;stroke:#000000;stroke-opacity:1;stroke-miterlimit:4;" d="M 0.318067 0.629885 L 0.318067 56.12468 M 81.646197 0.629885 L 81.646197 56.12468 M 153.776409 0.629885 L 153.776409 56.12468 M 0.000358606 0.317385 L 154.094118 0.317385 M 0.000358606 56.442388 L 154.094118 56.442388 " transform="matrix(0.75,0,0,0.75,167.214575,8.828368)"/></g><g clip-rule="nonzero" clip-path="url(#c7ac9e73bc)"><path style=" stroke:none;fill-rule:nonzero;fill:#004aad;fill-opacity:1;" d="M 178.871094 15 L 212.320312 15 L 212.320312 46.714844 L 178.871094 46.714844 Z M 178.871094 15 "/></g><g clip-rule="nonzero" clip-path="url(#a8df7a95bd)"><path style=" stroke:none;fill-rule:nonzero;fill:#000000;fill-opacity:1;" d="M 167.453125 57.570312 L 167.453125 97.707031 M 228.804688 57.570312 L 228.804688 97.707031 M 282.546875 57.570312 L 282.546875 97.707031 M 167.214844 57.332031 L 282.785156 57.332031 M 167.214844 97.941406 L 282.785156 97.941406 "/></g><g clip-rule="nonzero" clip-path="url(#f2608d13ef)"><path style="fill:none;stroke-width:0.631105;stroke-linecap:butt;stroke-linejoin:miter;stroke:#000000;stroke-opacity:1;stroke-miterlimit:4;" d="M 0.318067 0.631132 L 0.318067 54.14676 M 82.120155 0.631132 L 82.120155 54.14676 M 153.776409 0.631132 L 153.776409 54.14676 M 0.000358606 0.313424 L 154.094118 0.313424 M 0.000358606 54.45926 L 154.094118 54.45926 " transform="matrix(0.75,0,0,0.75,167.214575,57.096963)"/></g><g clip-rule="nonzero" clip-path="url(#275cd0db97)"><path style=" stroke:none;fill-rule:nonzero;fill:#000000;fill-opacity:1;" d="M 255.671875 73.191406 C 255.382812 72.765625 254.984375 72.441406 254.472656 72.21875 C 253.964844 71.996094 253.375 71.886719 252.710938 71.886719 C 252.105469 71.886719 251.554688 71.996094 251.054688 72.214844 C 250.554688 72.433594 250.152344 72.769531 249.847656 73.210938 C 249.605469 73.566406 249.457031 73.992188 249.394531 74.496094 C 249.367188 74.710938 249.539062 74.90625 249.753906 74.90625 L 251.089844 74.90625 C 251.261719 74.90625 251.410156 74.78125 251.445312 74.613281 C 251.480469 74.457031 251.535156 74.320312 251.609375 74.203125 C 251.734375 74.015625 251.894531 73.871094 252.085938 73.773438 C 252.28125 73.679688 252.484375 73.628906 252.703125 73.628906 C 252.925781 73.628906 253.128906 73.675781 253.316406 73.773438 C 253.5 73.867188 253.648438 74.003906 253.757812 74.183594 C 253.867188 74.359375 253.925781 74.5625 253.925781 74.800781 C 253.925781 75.023438 253.875 75.222656 253.777344 75.402344 C 253.683594 75.578125 253.550781 75.742188 253.390625 75.890625 C 253.222656 76.039062 253.042969 76.175781 252.835938 76.316406 C 252.558594 76.492188 252.320312 76.691406 252.125 76.910156 C 251.925781 77.125 251.777344 77.414062 251.675781 77.769531 C 251.574219 78.125 251.519531 78.597656 251.519531 79.195312 L 251.519531 79.492188 C 251.519531 79.695312 251.679688 79.859375 251.878906 79.859375 L 253.058594 79.859375 C 253.253906 79.859375 253.417969 79.695312 253.417969 79.492188 L 253.417969 79.195312 C 253.421875 78.859375 253.464844 78.578125 253.546875 78.351562 C 253.628906 78.125 253.753906 77.921875 253.917969 77.746094 C 254.089844 77.574219 254.304688 77.40625 254.570312 77.246094 C 254.882812 77.054688 255.15625 76.839844 255.386719 76.601562 C 255.613281 76.367188 255.792969 76.09375 255.925781 75.785156 C 256.050781 75.476562 256.117188 75.121094 256.117188 74.722656 C 256.113281 74.125 255.964844 73.613281 255.671875 73.191406 Z M 255.671875 73.191406 "/></g><g clip-rule="nonzero" clip-path="url(#1df01855f9)"><path style=" stroke:none;fill-rule:nonzero;fill:#000000;fill-opacity:1;" d="M 252.503906 80.6875 C 252.171875 80.6875 251.886719 80.808594 251.652344 81.046875 C 251.414062 81.285156 251.296875 81.570312 251.304688 81.90625 C 251.296875 82.242188 251.414062 82.53125 251.652344 82.773438 C 251.886719 83.015625 252.171875 83.132812 252.503906 83.132812 C 252.71875 83.132812 252.917969 83.078125 253.09375 82.96875 C 253.273438 82.855469 253.421875 82.707031 253.53125 82.523438 C 253.644531 82.335938 253.703125 82.128906 253.703125 81.90625 C 253.699219 81.570312 253.578125 81.285156 253.339844 81.046875 C 253.101562 80.808594 252.820312 80.6875 252.503906 80.6875 Z M 252.503906 80.6875 "/></g><g clip-rule="nonzero" clip-path="url(#fdd952318f)"><path style=" stroke:none;fill-rule:nonzero;fill:#004aad;fill-opacity:1;" d="M 238.636719 15 L 270.96875 15 L 270.96875 46.714844 L 238.636719 46.714844 Z M 238.636719 15 "/></g><g clip-rule="nonzero" clip-path="url(#f57c6ec0c9)"><path style=" stroke:none;fill-rule:nonzero;fill:#004aad;fill-opacity:1;" d="M 178.871094 62.722656 L 212.351562 62.722656 L 212.351562 92.796875 L 178.871094 92.796875 Z M 178.871094 62.722656 "/></g><g clip-rule="nonzero" clip-path="url(#428283bb04)"><path style="fill-rule:nonzero;fill:#000000;fill-opacity:1;stroke-width:0.8;stroke-linecap:butt;stroke-linejoin:miter;stroke:#000000;stroke-opacity:1;stroke-miterlimit:4;" d="M 0.398833 0.798098 L 0.398833 39.449142 M 58.075919 0.798098 L 58.075919 39.449142 M 114.976964 0.798098 L 114.976964 39.449142 M 173.424884 0.798098 L 173.424884 39.449142 M 231.867596 0.798098 L 231.867596 39.449142 M -0.00220904 0.402265 L 232.268638 0.402265 M -0.00220904 39.850184 L 232.268638 39.850184 " transform="matrix(0.75,0,0,0.75,139.177438,104.67877)"/></g><g clip-rule="nonzero" clip-path="url(#8927593c61)"><path style=" stroke:none;fill-rule:nonzero;fill:#000000;fill-opacity:1;" d="M 139.476562 138 L 139.476562 148.5 M 182.941406 138 L 182.941406 148.5 M 225 138 L 225 148.5 M 269.222656 138 L 269.222656 148.5 M 313.078125 138 L 313.078125 148.5 M 139.175781 137.699219 L 313.378906 137.699219 M 139.175781 148.800781 L 313.378906 148.800781 "/></g><g clip-rule="nonzero" clip-path="url(#a95178ea7c)"><path style="fill:none;stroke-width:0.8;stroke-linecap:butt;stroke-linejoin:miter;stroke:#000000;stroke-opacity:1;stroke-miterlimit:4;" d="M 0.398833 0.800008 L 0.398833 14.800009 M 58.351961 0.800008 L 58.351961 14.800009 M 114.430089 0.800008 L 114.430089 14.800009 M 173.393634 0.800008 L 173.393634 14.800009 M 231.867596 0.800008 L 231.867596 14.800009 M -0.00220904 0.398966 L 232.268638 0.398966 M -0.00220904 15.201051 L 232.268638 15.201051 " transform="matrix(0.75,0,0,0.75,139.177438,137.399994)"/></g><g style="fill:#000000;fill-opacity:1;"><g transform="translate(203.007122, 145.123748)"><path style="stroke:none" d="M 0.265625 0 L 0.265625 -0.703125 L 1.3125 -1.6875 C 1.625 -1.988281 1.867188 -2.265625 2.046875 -2.515625 C 2.222656 -2.773438 2.347656 -3.039062 2.421875 -3.3125 C 2.492188 -3.582031 2.53125 -3.890625 2.53125 -4.234375 C 2.53125 -4.628906 2.484375 -4.914062 2.390625 -5.09375 C 2.296875 -5.28125 2.132812 -5.375 1.90625 -5.375 C 1.738281 -5.375 1.609375 -5.320312 1.515625 -5.21875 C 1.421875 -5.113281 1.351562 -4.9375 1.3125 -4.6875 C 1.269531 -4.445312 1.25 -4.113281 1.25 -3.6875 C 0.96875 -3.6875 0.738281 -3.742188 0.5625 -3.859375 C 0.382812 -3.972656 0.296875 -4.15625 0.296875 -4.40625 C 0.296875 -4.695312 0.429688 -4.941406 0.703125 -5.140625 C 0.984375 -5.347656 1.398438 -5.453125 1.953125 -5.453125 C 2.515625 -5.453125 2.941406 -5.34375 3.234375 -5.125 C 3.523438 -4.90625 3.671875 -4.59375 3.671875 -4.1875 C 3.671875 -4.019531 3.640625 -3.851562 3.578125 -3.6875 C 3.515625 -3.519531 3.398438 -3.34375 3.234375 -3.15625 C 3.078125 -2.96875 2.863281 -2.75 2.59375 -2.5 C 2.320312 -2.257812 1.972656 -1.976562 1.546875 -1.65625 L 0.5 -0.828125 L 3.03125 -0.828125 C 3.269531 -0.828125 3.445312 -0.863281 3.5625 -0.9375 C 3.675781 -1.007812 3.742188 -1.144531 3.765625 -1.34375 L 3.78125 -1.578125 L 3.859375 -1.578125 L 3.8125 0 Z M 0.265625 0 "/></g></g><g style="fill:#000000;fill-opacity:1;"><g transform="translate(246.810721, 145.123748)"><path style="stroke:none" d="M 1.8125 0.078125 C 1.257812 0.078125 0.851562 -0.0078125 0.59375 -0.1875 C 0.332031 -0.375 0.203125 -0.59375 0.203125 -0.84375 C 0.203125 -1.019531 0.265625 -1.160156 0.390625 -1.265625 C 0.523438 -1.367188 0.675781 -1.421875 0.84375 -1.421875 C 0.84375 -1.046875 0.878906 -0.753906 0.953125 -0.546875 C 1.035156 -0.347656 1.144531 -0.207031 1.28125 -0.125 C 1.425781 -0.0390625 1.59375 0 1.78125 0 C 2.101562 0 2.335938 -0.125 2.484375 -0.375 C 2.628906 -0.625 2.703125 -0.984375 2.703125 -1.453125 C 2.703125 -1.785156 2.660156 -2.046875 2.578125 -2.234375 C 2.503906 -2.421875 2.375 -2.550781 2.1875 -2.625 C 2.007812 -2.695312 1.78125 -2.734375 1.5 -2.734375 L 1.0625 -2.734375 L 1.0625 -2.8125 L 1.5 -2.8125 C 1.757812 -2.8125 1.960938 -2.851562 2.109375 -2.9375 C 2.265625 -3.019531 2.367188 -3.15625 2.421875 -3.34375 C 2.484375 -3.539062 2.515625 -3.800781 2.515625 -4.125 C 2.515625 -4.582031 2.460938 -4.90625 2.359375 -5.09375 C 2.253906 -5.28125 2.097656 -5.375 1.890625 -5.375 C 1.617188 -5.375 1.441406 -5.238281 1.359375 -4.96875 C 1.285156 -4.695312 1.25 -4.316406 1.25 -3.828125 C 0.9375 -3.828125 0.691406 -3.878906 0.515625 -3.984375 C 0.347656 -4.097656 0.265625 -4.269531 0.265625 -4.5 C 0.265625 -4.757812 0.40625 -4.984375 0.6875 -5.171875 C 0.96875 -5.359375 1.382812 -5.453125 1.9375 -5.453125 C 2.46875 -5.453125 2.890625 -5.34375 3.203125 -5.125 C 3.515625 -4.914062 3.671875 -4.601562 3.671875 -4.1875 C 3.671875 -3.976562 3.617188 -3.773438 3.515625 -3.578125 C 3.410156 -3.378906 3.234375 -3.207031 2.984375 -3.0625 C 2.742188 -2.925781 2.414062 -2.835938 2 -2.796875 C 2.59375 -2.796875 3.050781 -2.679688 3.375 -2.453125 C 3.695312 -2.222656 3.859375 -1.882812 3.859375 -1.4375 C 3.859375 -1.070312 3.757812 -0.773438 3.5625 -0.546875 C 3.375 -0.328125 3.125 -0.164062 2.8125 -0.0625 C 2.5 0.03125 2.164062 0.078125 1.8125 0.078125 Z M 1.8125 0.078125 "/></g></g><g style="fill:#000000;fill-opacity:1;"><g transform="translate(159.203534, 145.123748)"><path style="stroke:none" d="M 0.734375 0 L 0.734375 -0.078125 L 1.34375 -0.078125 C 1.46875 -0.078125 1.5625 -0.109375 1.625 -0.171875 C 1.6875 -0.242188 1.71875 -0.375 1.71875 -0.5625 L 1.71875 -4.796875 C 1.488281 -4.472656 1.304688 -4.238281 1.171875 -4.09375 C 1.046875 -3.945312 0.910156 -3.875 0.765625 -3.875 C 0.640625 -3.875 0.53125 -3.914062 0.4375 -4 C 0.351562 -4.082031 0.3125 -4.207031 0.3125 -4.375 C 0.5625 -4.382812 0.769531 -4.40625 0.9375 -4.4375 C 1.101562 -4.476562 1.257812 -4.550781 1.40625 -4.65625 C 1.5625 -4.757812 1.742188 -4.921875 1.953125 -5.140625 L 2.234375 -5.40625 L 2.84375 -5.40625 L 2.84375 -0.5625 C 2.84375 -0.40625 2.867188 -0.285156 2.921875 -0.203125 C 2.972656 -0.117188 3.078125 -0.078125 3.234375 -0.078125 L 3.84375 -0.078125 L 3.84375 0 Z M 0.734375 0 "/></g></g><g style="fill:#000000;fill-opacity:1;"><g transform="translate(290.614324, 145.123748)"><path style="stroke:none" d="M 1.359375 0 L 1.359375 -0.078125 L 1.5625 -0.078125 C 1.738281 -0.078125 1.882812 -0.109375 2 -0.171875 C 2.125 -0.234375 2.1875 -0.382812 2.1875 -0.625 L 2.1875 -1.40625 L 0.09375 -1.40625 L 0.09375 -1.859375 L 2.234375 -5.375 L 3.28125 -5.375 L 3.28125 -1.890625 L 4.0625 -1.890625 L 4.0625 -1.40625 L 3.28125 -1.40625 L 3.28125 -0.625 C 3.28125 -0.382812 3.335938 -0.234375 3.453125 -0.171875 C 3.578125 -0.109375 3.726562 -0.078125 3.90625 -0.078125 L 4 -0.078125 L 4 0 Z M 0.203125 -1.890625 L 2.1875 -1.890625 L 2.1875 -3.5625 C 2.1875 -3.832031 2.1875 -4.113281 2.1875 -4.40625 C 2.1875 -4.707031 2.191406 -4.972656 2.203125 -5.203125 C 2.171875 -5.148438 2.125 -5.070312 2.0625 -4.96875 C 2 -4.863281 1.929688 -4.75 1.859375 -4.625 C 1.785156 -4.5 1.710938 -4.378906 1.640625 -4.265625 C 1.578125 -4.160156 1.53125 -4.078125 1.5 -4.015625 Z M 0.203125 -1.890625 "/></g></g><g clip-rule="nonzero" clip-path="url(#a633c6acd5)"><path style=" stroke:none;fill-rule:nonzero;fill:#004aad;fill-opacity:1;" d="M 203.40625 131.492188 C 197.011719 131.492188 191.78125 126.261719 191.78125 119.867188 C 191.78125 113.472656 197.011719 108.242188 203.40625 108.242188 C 209.800781 108.242188 215.03125 113.472656 215.03125 119.867188 C 215.03125 126.261719 209.800781 131.492188 203.40625 131.492188 Z M 203.40625 131.492188 "/></g><g clip-rule="nonzero" clip-path="url(#7dc9bc3d72)"><path style=" stroke:none;fill-rule:nonzero;fill:#ff3131;fill-opacity:1;" d="M 157.726562 130.574219 C 151.570312 130.574219 146.53125 125.535156 146.53125 119.375 C 146.53125 113.21875 151.570312 108.179688 157.726562 108.179688 C 163.886719 108.179688 168.925781 113.21875 168.925781 119.375 C 168.925781 125.535156 163.886719 130.574219 157.726562 130.574219 Z M 157.726562 130.574219 "/></g><g clip-rule="nonzero" clip-path="url(#ffa910fefd)"><path style=" stroke:none;fill-rule:nonzero;fill:#ff3131;fill-opacity:1;" d="M 235.476562 108.601562 L 258.167969 108.601562 L 258.167969 130.941406 L 235.476562 130.941406 Z M 235.476562 108.601562 "/></g><g clip-rule="nonzero" clip-path="url(#ed8924f282)"><path style=" stroke:none;fill-rule:nonzero;fill:#004aad;fill-opacity:1;" d="M 278.980469 108.242188 L 301.671875 108.242188 L 301.671875 130.585938 L 278.980469 130.585938 Z M 278.980469 108.242188 "/></g></g></svg>