<svg xmlns="http://www.w3.org/2000/svg" xmlns:xlink="http://www.w3.org/1999/xlink" width="189" zoomAndPan="magnify" viewBox="0 0 141.12 56.999996" height="76" preserveAspectRatio="xMidYMid meet" version="1.2"><defs><clipPath id="8e3bbd2559"><path d="M 0 0.175781 L 140.125 0.175781 L 140.125 56.53125 L 0 56.53125 Z M 0 0.175781 "/></clipPath><clipPath id="0cae566367"><path d="M 42.039062 0.175781 L 98.09375 0.175781 L 98.09375 56.230469 L 42.039062 56.230469 Z M 42.039062 0.175781 "/></clipPath><clipPath id="c8a23a0544"><path d="M 70.066406 0.175781 C 54.585938 0.175781 42.039062 12.722656 42.039062 28.203125 C 42.039062 43.679688 54.585938 56.230469 70.066406 56.230469 C 85.542969 56.230469 98.09375 43.679688 98.09375 28.203125 C 98.09375 12.722656 85.542969 0.175781 70.066406 0.175781 Z M 70.066406 0.175781 "/></clipPath></defs><g id="89a99876a3"><g clip-rule="nonzero" clip-path="url(#8e3bbd2559)"><path style=" stroke:none;fill-rule:nonzero;fill:#ffffff;fill-opacity:1;" d="M 0 0.175781 L 140.148438 0.175781 L 140.148438 56.53125 L 0 56.53125 Z M 0 0.175781 "/><path style=" stroke:none;fill-rule:nonzero;fill:#ffffff;fill-opacity:1;" d="M 0 0.175781 L 140.148438 0.175781 L 140.148438 56.53125 L 0 56.53125 Z M 0 0.175781 "/></g><g clip-rule="nonzero" clip-path="url(#0cae566367)"><g clip-rule="nonzero" clip-path="url(#c8a23a0544)"><path style=" stroke:none;fill-rule:nonzero;fill:#f9e830;fill-opacity:1;" d="M 42.039062 0.175781 L 98.09375 0.175781 L 98.09375 56.230469 L 42.039062 56.230469 Z M 42.039062 0.175781 "/></g></g></g></svg>