<svg xmlns="http://www.w3.org/2000/svg" xmlns:xlink="http://www.w3.org/1999/xlink" width="600" zoomAndPan="magnify" viewBox="0 0 450 149.999998" height="200" preserveAspectRatio="xMidYMid meet" version="1.2"><defs><clipPath id="548ad573c6"><path d="M 234 112 L 257 112 L 257 135.175781 L 234 135.175781 Z M 234 112 "/></clipPath><clipPath id="335efa2ffa"><path d="M 163 19 L 275.90625 19 L 275.90625 123 L 163 123 Z M 163 19 "/></clipPath><clipPath id="1f3a6ce27f"><path d="M 205 12.175781 L 234 12.175781 L 234 37 L 205 37 Z M 205 12.175781 "/></clipPath></defs><g id="515aa12d76"><rect x="0" width="450" y="0" height="149.999998" style="fill:#ffffff;fill-opacity:1;stroke:none;"/><rect x="0" width="450" y="0" height="149.999998" style="fill:#ffffff;fill-opacity:1;stroke:none;"/><path style="fill-rule:nonzero;fill:#000000;fill-opacity:1;stroke-width:1;stroke-linecap:butt;stroke-linejoin:miter;stroke:#0c7b3b;stroke-opacity:1;stroke-miterlimit:4;" d="M 0.499995 0.999997 L 0.499995 199.000009 M 599.50003 0.999997 L 599.50003 199.000009 M -0.000005 0.499997 L 600.00003 0.499997 M -0.000005 199.500009 L 600.00003 199.500009 " transform="matrix(0.75,0,0,0.75,0.00000375,0.000002)"/><g clip-rule="nonzero" clip-path="url(#548ad573c6)"><path style=" stroke:none;fill-rule:nonzero;fill:#e96532;fill-opacity:1;" d="M 250.085938 128.914062 C 250 129.339844 253.515625 129.65625 255.203125 131.820312 C 255.382812 132.050781 255.800781 132.59375 255.558594 132.855469 C 255.28125 133.160156 254.242188 132.945312 252.523438 132.4375 C 248.550781 131.261719 246.621094 130.191406 246.214844 130.554688 C 245.753906 130.964844 247.980469 132.597656 247.289062 134.441406 C 247.214844 134.746094 247.039062 134.960938 246.753906 135.089844 C 246.402344 135.199219 245.765625 135.042969 243.738281 132.886719 C 241.675781 130.691406 241.339844 129.792969 240.539062 129.84375 C 239.703125 129.902344 239.644531 130.910156 238.003906 131.855469 C 236.789062 132.554688 235.171875 132.953125 234.863281 132.613281 C 234.59375 132.320312 235.46875 131.636719 236.980469 129.691406 C 238.125 128.222656 238.925781 127.175781 239.347656 125.917969 C 239.824219 124.492188 239.625 123.347656 239.453125 122.34375 C 238.992188 119.683594 238.519531 116.761719 237.960938 113.410156 L 241.382812 112.6875 C 241.570312 114.609375 241.785156 116.585938 242.027344 118.613281 C 242.566406 123.132812 242.804688 124.160156 243.925781 124.957031 C 245.558594 126.125 248.148438 126.160156 249.324219 126.175781 C 251.5625 126.203125 252.605469 125.671875 254.375 126.203125 C 255.652344 126.582031 257.003906 127.410156 256.8125 127.917969 C 256.433594 128.914062 250.207031 128.34375 250.085938 128.914062 Z M 250.085938 128.914062 "/></g><path style=" stroke:none;fill-rule:nonzero;fill:#e96532;fill-opacity:1;" d="M 186.722656 128.554688 C 186.792969 128.988281 183.257812 129.105469 181.46875 131.167969 C 181.277344 131.386719 180.835938 131.90625 181.0625 132.179688 C 181.324219 132.5 182.375 132.34375 184.117188 131.933594 C 188.144531 130.984375 190.128906 130.027344 190.515625 130.410156 C 190.957031 130.84375 188.65625 132.347656 189.261719 134.226562 C 189.320312 134.535156 189.484375 134.757812 189.761719 134.902344 C 190.109375 135.03125 190.753906 134.910156 192.882812 132.875 C 195.050781 130.800781 195.425781 129.925781 196.226562 130.023438 C 197.058594 130.125 197.070312 131.136719 198.667969 132.171875 C 199.847656 132.9375 201.445312 133.425781 201.769531 133.105469 C 202.054688 132.828125 201.210938 132.097656 199.792969 130.070312 C 198.71875 128.539062 197.964844 127.449219 197.601562 126.175781 C 197.191406 124.722656 197.445312 123.59375 197.664062 122.605469 C 198.25 119.976562 198.859375 117.089844 199.578125 113.777344 L 196.1875 112.863281 C 195.910156 114.769531 195.605469 116.726562 195.265625 118.738281 C 194.511719 123.214844 194.226562 124.222656 193.070312 124.957031 C 191.382812 126.03125 188.792969 125.917969 187.617188 125.867188 C 185.375 125.773438 184.359375 125.183594 182.5625 125.609375 C 181.265625 125.917969 179.875 126.667969 180.042969 127.183594 C 180.375 128.199219 186.628906 127.984375 186.722656 128.554688 Z M 186.722656 128.554688 "/><g clip-rule="nonzero" clip-path="url(#335efa2ffa)"><path style=" stroke:none;fill-rule:nonzero;fill:#fbcf45;fill-opacity:1;" d="M 263.804688 62.496094 C 265.722656 62.898438 269.714844 64.042969 272.609375 67.597656 C 273.835938 69.101562 275.863281 71.59375 275.085938 74.351562 C 274.457031 76.597656 272.332031 77.738281 271.648438 78.074219 C 274.789062 83.089844 274.53125 87.820312 272.472656 89.242188 C 270.90625 90.320312 268.457031 89.371094 267.792969 89.101562 C 270.960938 94.40625 270.929688 99.121094 269.03125 100.40625 C 267.230469 101.625 263.863281 99.667969 263.253906 99.304688 C 264.976562 103.367188 264.226562 107.09375 262.304688 108.160156 C 260.761719 109.015625 258.460938 108.148438 258.027344 107.988281 C 256.753906 107.5 255.699219 106.71875 254.863281 105.644531 C 251.222656 109.554688 247.097656 112.847656 242.484375 115.527344 C 239.8125 117.074219 230.871094 122.132812 219.640625 122.597656 C 200.289062 123.402344 186.605469 110.035156 183.945312 107.332031 C 183.757812 107.382812 181.34375 107.992188 179.46875 106.332031 C 179.117188 106.011719 178.816406 105.648438 178.570312 105.238281 C 178.324219 104.828125 178.144531 104.394531 178.023438 103.929688 C 177.90625 103.46875 177.855469 103 177.875 102.523438 C 177.890625 102.046875 177.980469 101.582031 178.132812 101.128906 C 175.835938 102.617188 173.136719 102.941406 171.535156 101.808594 C 169.285156 100.214844 168.746094 95.410156 172.175781 91.722656 C 169.023438 92.914062 165.960938 93.03125 165 91.722656 C 163.859375 90.167969 165.324219 86.152344 169.695312 82.726562 C 168.789062 82.617188 164.96875 82.082031 163.921875 79.589844 C 162.667969 76.601562 166.214844 72.761719 168.1875 70.628906 C 169.832031 68.855469 171.710938 67.386719 173.828125 66.21875 C 174.121094 59.191406 175.636719 52.433594 178.371094 45.957031 C 179.613281 43.019531 183.375 34.136719 190.203125 28.171875 C 204.191406 15.957031 231.554688 15.566406 248.535156 30.515625 C 261.34375 41.796875 263.371094 57.515625 263.804688 62.496094 Z M 263.804688 62.496094 "/></g><path style=" stroke:none;fill-rule:nonzero;fill:#f1a620;fill-opacity:1;" d="M 251.011719 54.089844 C 251.261719 54.078125 254.527344 64.351562 249.171875 69.273438 C 245.8125 72.359375 240.558594 71.964844 240.503906 71.707031 C 240.449219 71.46875 244.964844 71.496094 248.066406 68.503906 C 253.167969 63.589844 250.765625 54.097656 251.011719 54.089844 Z M 251.011719 54.089844 "/><path style=" stroke:none;fill-rule:nonzero;fill:#fcfcfa;fill-opacity:1;" d="M 248.03125 59.117188 C 248.058594 61.65625 247.410156 64.007812 246.089844 66.175781 C 244.480469 68.730469 242.019531 70.367188 239.257812 70.367188 C 237.839844 70.359375 236.539062 69.964844 235.351562 69.1875 C 233.960938 68.261719 232.871094 67.0625 232.089844 65.582031 C 232.027344 65.472656 231.96875 65.363281 231.90625 65.25 C 231.894531 65.226562 231.886719 65.199219 231.871094 65.179688 C 231.871094 65.179688 231.820312 65.082031 231.738281 64.902344 C 231.699219 64.820312 231.652344 64.714844 231.605469 64.597656 C 231.238281 63.753906 230.960938 62.875 230.777344 61.972656 C 230.773438 61.949219 230.765625 61.929688 230.761719 61.914062 C 230.578125 60.988281 230.488281 60.058594 230.492188 59.117188 C 230.488281 58.222656 230.570312 57.335938 230.738281 56.457031 C 230.753906 56.382812 230.765625 56.3125 230.785156 56.234375 C 230.804688 56.144531 230.828125 56.046875 230.851562 55.953125 C 230.882812 55.8125 230.925781 55.652344 230.964844 55.480469 C 231.105469 54.957031 231.277344 54.445312 231.480469 53.941406 C 232.167969 52.144531 233.265625 50.648438 234.769531 49.449219 C 234.914062 49.347656 235.0625 49.242188 235.222656 49.140625 C 236.0625 48.5625 236.984375 48.175781 237.988281 47.984375 L 238.15625 47.949219 C 238.519531 47.894531 238.890625 47.863281 239.257812 47.863281 C 244.101562 47.863281 248.03125 52.902344 248.03125 59.117188 Z M 248.03125 59.117188 "/><path style=" stroke:none;fill-rule:nonzero;fill:#302224;fill-opacity:1;" d="M 248.667969 59.5 C 248.507812 61.996094 247.652344 64.222656 246.089844 66.175781 C 246.839844 64.527344 247.179688 62.800781 247.113281 60.992188 C 246.933594 56.753906 244.289062 52.722656 240.761719 51.605469 C 238.179688 50.785156 235.972656 51.792969 235.179688 52.167969 C 232.613281 53.390625 231.234375 55.589844 230.742188 56.457031 C 230.753906 56.382812 230.769531 56.3125 230.789062 56.234375 C 230.804688 56.144531 230.828125 56.046875 230.851562 55.953125 C 230.882812 55.8125 230.925781 55.652344 230.96875 55.480469 C 231.089844 54.992188 231.242188 54.511719 231.414062 54.039062 C 231.746094 53.125 232.191406 52.273438 232.75 51.480469 C 233.320312 50.695312 233.992188 50.019531 234.773438 49.449219 C 235.320312 49.046875 235.902344 48.710938 236.527344 48.445312 C 237 48.246094 237.488281 48.09375 237.992188 47.984375 L 238.15625 47.949219 C 238.585938 47.863281 239.019531 47.820312 239.457031 47.820312 C 240.496094 47.855469 241.496094 48.078125 242.453125 48.488281 C 245.203125 49.703125 248.976562 53.980469 248.667969 59.5 Z M 248.667969 59.5 "/><path style=" stroke:none;fill-rule:nonzero;fill:#302224;fill-opacity:1;" d="M 242.914062 63.203125 C 239.015625 67.179688 233.625 67.695312 232.976562 66.914062 C 232.644531 66.496094 232.347656 66.050781 232.089844 65.582031 C 231.996094 65.414062 231.921875 65.277344 231.878906 65.1875 C 231.832031 65.097656 231.789062 65.007812 231.738281 64.902344 C 231.292969 63.964844 230.972656 62.988281 230.777344 61.972656 C 230.773438 61.949219 230.769531 61.929688 230.761719 61.914062 C 230.578125 60.988281 230.488281 60.058594 230.492188 59.117188 C 230.488281 58.222656 230.570312 57.335938 230.742188 56.457031 C 230.753906 56.382812 230.769531 56.3125 230.785156 56.234375 C 230.804688 56.144531 230.828125 56.046875 230.851562 55.953125 C 230.882812 55.8125 230.925781 55.652344 230.964844 55.480469 C 231.089844 54.992188 231.238281 54.511719 231.414062 54.039062 C 231.433594 54.007812 231.457031 53.972656 231.480469 53.941406 C 231.933594 53.222656 232.558594 52.722656 233.359375 52.433594 C 233.476562 52.398438 233.628906 52.363281 233.628906 52.363281 C 234.9375 51.179688 236.464844 50.480469 238.210938 50.261719 C 241.40625 49.902344 245.21875 51.476562 246.375 54.488281 C 247.808594 58.21875 244.285156 61.808594 242.914062 63.203125 Z M 242.914062 63.203125 "/><path style=" stroke:none;fill-rule:nonzero;fill:#fdfdfc;fill-opacity:1;" d="M 235.507812 52.625 C 235.84375 52.660156 236.15625 52.785156 236.445312 52.996094 C 236.738281 53.203125 236.984375 53.484375 237.1875 53.839844 C 237.386719 54.191406 237.53125 54.589844 237.613281 55.027344 C 237.695312 55.46875 237.714844 55.921875 237.664062 56.386719 C 237.613281 56.847656 237.503906 57.285156 237.328125 57.699219 C 237.15625 58.113281 236.933594 58.472656 236.660156 58.773438 C 236.390625 59.074219 236.089844 59.296875 235.757812 59.441406 C 235.429688 59.585938 235.097656 59.640625 234.761719 59.605469 C 234.429688 59.566406 234.113281 59.445312 233.824219 59.234375 C 233.53125 59.023438 233.285156 58.742188 233.082031 58.390625 C 232.882812 58.039062 232.738281 57.640625 232.65625 57.199219 C 232.574219 56.757812 232.554688 56.308594 232.605469 55.84375 C 232.65625 55.382812 232.765625 54.941406 232.941406 54.53125 C 233.113281 54.117188 233.335938 53.757812 233.609375 53.457031 C 233.882812 53.15625 234.179688 52.929688 234.511719 52.789062 C 234.839844 52.644531 235.171875 52.589844 235.507812 52.625 Z M 235.507812 52.625 "/><path style=" stroke:none;fill-rule:nonzero;fill:#fcfcfa;fill-opacity:1;" d="M 188.238281 59.117188 C 188.214844 61.675781 188.898438 64.027344 190.285156 66.175781 C 191.976562 68.730469 194.570312 70.367188 197.480469 70.367188 C 198.960938 70.359375 200.332031 69.96875 201.59375 69.1875 C 203.046875 68.277344 204.191406 67.078125 205.03125 65.582031 C 205.097656 65.472656 205.160156 65.363281 205.222656 65.25 C 205.238281 65.226562 205.246094 65.199219 205.261719 65.179688 C 205.261719 65.179688 205.316406 65.082031 205.402344 64.902344 C 205.441406 64.820312 205.488281 64.714844 205.539062 64.597656 C 205.929688 63.753906 206.21875 62.878906 206.414062 61.972656 C 206.417969 61.949219 206.421875 61.929688 206.429688 61.914062 C 206.621094 60.992188 206.71875 60.058594 206.714844 59.117188 C 206.71875 58.222656 206.628906 57.335938 206.453125 56.457031 C 206.4375 56.382812 206.421875 56.3125 206.40625 56.234375 C 206.386719 56.144531 206.359375 56.046875 206.335938 55.953125 C 206.300781 55.8125 206.257812 55.652344 206.214844 55.480469 C 206.066406 54.957031 205.886719 54.441406 205.675781 53.941406 C 204.933594 52.125 203.777344 50.628906 202.207031 49.449219 C 202.058594 49.347656 201.898438 49.242188 201.730469 49.140625 C 200.835938 48.558594 199.867188 48.171875 198.816406 47.984375 L 198.640625 47.949219 C 198.253906 47.894531 197.867188 47.863281 197.480469 47.863281 C 192.378906 47.863281 188.238281 52.902344 188.238281 59.117188 Z M 188.238281 59.117188 "/><path style=" stroke:none;fill-rule:nonzero;fill:#302224;fill-opacity:1;" d="M 187.570312 59.5 C 187.65625 60.726562 187.933594 61.914062 188.398438 63.054688 C 188.859375 64.195312 189.492188 65.234375 190.285156 66.175781 C 189.5 64.535156 189.136719 62.808594 189.207031 60.992188 C 189.394531 56.753906 192.183594 52.722656 195.898438 51.605469 C 198.617188 50.785156 200.941406 51.792969 201.777344 52.167969 C 203.777344 53.117188 205.335938 54.546875 206.453125 56.457031 C 206.4375 56.382812 206.421875 56.3125 206.402344 56.234375 C 206.382812 56.144531 206.359375 56.046875 206.335938 55.953125 C 206.300781 55.8125 206.257812 55.652344 206.214844 55.480469 C 206.085938 54.992188 205.925781 54.511719 205.742188 54.039062 C 205.394531 53.121094 204.925781 52.265625 204.335938 51.480469 C 203.734375 50.691406 203.023438 50.015625 202.207031 49.453125 C 201.179688 48.722656 200.050781 48.234375 198.816406 47.984375 L 198.640625 47.949219 C 198.191406 47.863281 197.734375 47.820312 197.277344 47.820312 C 196.183594 47.855469 195.128906 48.078125 194.113281 48.488281 C 191.21875 49.703125 187.246094 53.980469 187.570312 59.5 Z M 187.570312 59.5 "/><path style=" stroke:none;fill-rule:nonzero;fill:#302224;fill-opacity:1;" d="M 193.628906 63.203125 C 197.738281 67.179688 203.414062 67.695312 204.097656 66.914062 C 204.445312 66.496094 204.757812 66.050781 205.03125 65.582031 C 205.132812 65.414062 205.207031 65.277344 205.253906 65.1875 C 205.304688 65.097656 205.351562 65.007812 205.402344 64.902344 C 205.871094 63.96875 206.207031 62.992188 206.414062 61.972656 C 206.421875 61.949219 206.425781 61.929688 206.429688 61.914062 C 206.625 60.992188 206.71875 60.058594 206.71875 59.117188 C 206.71875 58.222656 206.632812 57.335938 206.453125 56.457031 C 206.441406 56.382812 206.425781 56.3125 206.40625 56.234375 C 206.386719 56.144531 206.363281 56.046875 206.335938 55.953125 C 206.304688 55.8125 206.257812 55.652344 206.214844 55.480469 C 206.085938 54.992188 205.929688 54.511719 205.742188 54.039062 C 205.722656 54.003906 205.699219 53.972656 205.675781 53.941406 C 205.1875 53.214844 204.527344 52.714844 203.695312 52.433594 C 203.570312 52.398438 203.410156 52.363281 203.410156 52.363281 C 202.015625 51.171875 200.40625 50.472656 198.585938 50.261719 C 195.21875 49.902344 191.203125 51.476562 189.984375 54.488281 C 188.476562 58.21875 192.1875 61.808594 193.628906 63.203125 Z M 193.628906 63.203125 "/><path style=" stroke:none;fill-rule:nonzero;fill:#fdfdfc;fill-opacity:1;" d="M 204.480469 55.773438 C 204.539062 56.234375 204.527344 56.6875 204.449219 57.132812 C 204.367188 57.578125 204.222656 57.976562 204.015625 58.335938 C 203.808594 58.695312 203.554688 58.984375 203.25 59.203125 C 202.949219 59.421875 202.621094 59.550781 202.269531 59.597656 C 201.917969 59.640625 201.566406 59.597656 201.21875 59.460938 C 200.871094 59.328125 200.550781 59.113281 200.261719 58.816406 C 199.96875 58.523438 199.730469 58.171875 199.539062 57.761719 C 199.351562 57.351562 199.226562 56.917969 199.167969 56.453125 C 199.109375 55.992188 199.121094 55.539062 199.199219 55.097656 C 199.28125 54.652344 199.425781 54.25 199.632812 53.890625 C 199.839844 53.535156 200.09375 53.246094 200.398438 53.027344 C 200.699219 52.808594 201.027344 52.675781 201.378906 52.632812 C 201.730469 52.585938 202.082031 52.628906 202.429688 52.765625 C 202.777344 52.902344 203.097656 53.117188 203.386719 53.410156 C 203.679688 53.707031 203.917969 54.058594 204.109375 54.464844 C 204.296875 54.875 204.421875 55.3125 204.480469 55.773438 Z M 204.480469 55.773438 "/><path style=" stroke:none;fill-rule:nonzero;fill:#ea8514;fill-opacity:1;" d="M 226.753906 70.238281 C 225.195312 72.503906 223.808594 74.867188 222.59375 77.332031 C 221.136719 80.300781 219.921875 83.363281 218.945312 86.519531 C 218.054688 84.847656 217.136719 83.160156 216.199219 81.46875 C 213.914062 77.34375 211.625 73.394531 209.332031 69.625 C 209.882812 67.425781 210.707031 65.332031 211.804688 63.347656 C 212.871094 61.453125 214.765625 58.078125 216.945312 57.554688 C 220.089844 56.800781 224.339844 61.855469 226.753906 70.238281 Z M 226.753906 70.238281 "/><path style=" stroke:none;fill-rule:nonzero;fill:#fd8a35;fill-opacity:1;" d="M 226.753906 70.238281 C 220.984375 69.035156 215.175781 68.828125 209.332031 69.625 C 209.816406 67.023438 210.75 64.597656 212.136719 62.347656 C 213.046875 60.914062 215.035156 57.777344 217.375 57.410156 C 220.710938 56.886719 224.839844 61.984375 226.753906 70.238281 Z M 226.753906 70.238281 "/><path style=" stroke:none;fill-rule:nonzero;fill:#bf4505;fill-opacity:1;" d="M 224.695312 69.855469 C 223.460938 71.488281 222.34375 73.199219 221.339844 74.984375 C 220.167969 77.074219 219.148438 79.234375 218.28125 81.46875 C 217.320312 79.246094 216.234375 77.085938 215.023438 74.984375 C 213.90625 73.050781 212.683594 71.183594 211.347656 69.390625 C 211.910156 68.671875 213.980469 66.1875 217.222656 65.902344 C 221.515625 65.523438 224.320312 69.328125 224.695312 69.855469 Z M 224.695312 69.855469 "/><path style=" stroke:none;fill-rule:nonzero;fill:#a02901;fill-opacity:1;" d="M 224.695312 69.855469 L 211.347656 69.390625 C 211.84375 68.667969 213.765625 66.035156 216.902344 65.585938 C 221.449219 64.9375 224.449219 69.46875 224.695312 69.855469 Z M 224.695312 69.855469 "/><path style=" stroke:none;fill-rule:nonzero;fill:#f3cb8a;fill-opacity:1;" d="M 219.558594 60.257812 C 219.800781 60.308594 220.027344 60.390625 220.234375 60.507812 C 220.441406 60.625 220.617188 60.761719 220.761719 60.925781 C 220.90625 61.089844 221.003906 61.261719 221.0625 61.449219 C 221.121094 61.632812 221.128906 61.816406 221.089844 61.996094 C 221.054688 62.175781 220.96875 62.335938 220.84375 62.484375 C 220.714844 62.628906 220.554688 62.746094 220.355469 62.835938 C 220.160156 62.929688 219.941406 62.984375 219.703125 63.003906 C 219.46875 63.027344 219.226562 63.011719 218.988281 62.960938 C 218.746094 62.910156 218.519531 62.824219 218.3125 62.710938 C 218.105469 62.59375 217.929688 62.453125 217.785156 62.289062 C 217.640625 62.128906 217.542969 61.953125 217.484375 61.769531 C 217.425781 61.582031 217.417969 61.402344 217.457031 61.222656 C 217.492188 61.042969 217.574219 60.878906 217.703125 60.734375 C 217.832031 60.589844 217.992188 60.46875 218.191406 60.378906 C 218.386719 60.289062 218.605469 60.234375 218.84375 60.210938 C 219.078125 60.191406 219.320312 60.207031 219.558594 60.257812 Z M 219.558594 60.257812 "/><path style=" stroke:none;fill-rule:nonzero;fill:#fcee93;fill-opacity:1;" d="M 249.359375 104.402344 C 245.679688 115.277344 232.460938 121.113281 221.34375 121.382812 C 221.050781 121.390625 220.851562 121.390625 220.667969 121.390625 C 210.796875 121.433594 193.882812 118.09375 188.941406 106.09375 C 188.65625 105.402344 185.5625 97.574219 189.332031 90.929688 C 193.53125 83.53125 202.980469 83.328125 204.769531 83.289062 C 212.574219 83.117188 218.046875 87.527344 219.683594 88.960938 C 221.324219 87.308594 223.144531 85.882812 225.140625 84.683594 C 226.601562 83.820312 230.28125 81.839844 234.882812 82.046875 C 240.289062 82.296875 246.074219 85.496094 248.820312 90.929688 C 251.871094 96.972656 249.808594 103.070312 249.359375 104.402344 Z M 249.359375 104.402344 "/><path style=" stroke:none;fill-rule:nonzero;fill:#fee484;fill-opacity:1;" d="M 251.496094 74.179688 C 251.566406 74.453125 251.546875 74.742188 251.441406 75.039062 C 251.339844 75.335938 251.15625 75.621094 250.894531 75.894531 C 250.628906 76.167969 250.308594 76.410156 249.925781 76.621094 C 249.546875 76.832031 249.132812 76.992188 248.691406 77.105469 C 248.25 77.21875 247.8125 77.277344 247.375 77.273438 C 246.941406 77.273438 246.542969 77.21875 246.179688 77.105469 C 245.820312 76.992188 245.519531 76.828125 245.285156 76.617188 C 245.054688 76.40625 244.902344 76.164062 244.832031 75.890625 C 244.761719 75.617188 244.777344 75.332031 244.882812 75.035156 C 244.984375 74.738281 245.167969 74.449219 245.433594 74.175781 C 245.695312 73.902344 246.015625 73.660156 246.398438 73.449219 C 246.78125 73.242188 247.191406 73.078125 247.632812 72.964844 C 248.074219 72.851562 248.511719 72.796875 248.949219 72.796875 C 249.382812 72.796875 249.78125 72.855469 250.144531 72.96875 C 250.507812 73.082031 250.804688 73.242188 251.039062 73.453125 C 251.273438 73.664062 251.425781 73.90625 251.496094 74.179688 Z M 251.496094 74.179688 "/><path style=" stroke:none;fill-rule:nonzero;fill:#fbda6c;fill-opacity:1;" d="M 190.886719 34.929688 C 196.832031 27.808594 202.46875 25.046875 202.167969 24.589844 C 201.804688 24.039062 192.972656 27.105469 187.171875 34.929688 C 182.265625 41.546875 181.324219 49.15625 181.945312 49.402344 C 182.554688 49.644531 184.414062 42.683594 190.886719 34.929688 Z M 190.886719 34.929688 "/><g clip-rule="nonzero" clip-path="url(#1f3a6ce27f)"><path style=" stroke:none;fill-rule:nonzero;fill:#f8ad19;fill-opacity:1;" d="M 233.015625 21.707031 C 232.53125 23.9375 227.175781 22.523438 219.640625 26.246094 C 211.125 30.449219 208.0625 37.140625 206.640625 36.273438 C 205.40625 35.519531 206.800781 29.671875 210.253906 25.519531 C 212.140625 23.285156 214.445312 21.628906 217.164062 20.558594 C 215.957031 19.066406 214.515625 17.859375 212.832031 16.941406 C 210.445312 15.652344 207.902344 15.066406 205.195312 15.179688 C 207.835938 13.96875 212.757812 12.191406 218.714844 13.011719 C 226.242188 14.046875 233.609375 18.988281 233.015625 21.707031 Z M 233.015625 21.707031 "/></g></g></svg>