<?xml version="1.0" encoding="utf-8"?>
<!-- Generator: Adobe Illustrator 25.2.0, SVG Export Plug-In . SVG Version: 6.00 Build 0)  -->
<svg version="1.1" id="Layer_1" xmlns="http://www.w3.org/2000/svg" xmlns:xlink="http://www.w3.org/1999/xlink" x="0px" y="0px"
	 viewBox="0 0 595.3 420.9" style="enable-background:new 0 0 595.3 420.9;" xml:space="preserve">
<style type="text/css">
	.st0{fill:#231F20;}
	.st1{font-family:'SFCompactRounded-Medium';}
	.st2{font-size:33.3251px;}
	.st3{letter-spacing:-1;}
	.st4{fill:#008843;}
	.st5{font-family:'SFCompactRounded-Bold';}
	.st6{font-size:39.3584px;}
	.st7{fill:none;stroke:#007236;stroke-width:1.5138;stroke-linecap:round;stroke-miterlimit:10;stroke-dasharray:3.0277,4.0369;}
	.st8{fill:#007236;}
	.st9{fill:none;stroke:#007236;stroke-width:1.2693;stroke-linecap:round;stroke-miterlimit:10;stroke-dasharray:3.0277,4.0369;}
</style>
<image style="overflow:visible;" width="1948" height="2455" xlink:href="915407EE.png"  transform="matrix(1.353177e-17 -0.1866 0.221 1.142804e-17 13.0082 403.962)">
</image>
<g>
	<text transform="matrix(1 0 0 1 54.1069 228.6914)" class="st0 st1 st2 st3">1</text>
</g>
<g>
	<text transform="matrix(1 0 0 1 101.8648 284.5666)" class="st0 st1 st2 st3">7</text>
</g>
<g>
	<text transform="matrix(1 0 0 1 65.1021 315.9742)" class="st4 st5 st6 st3">0</text>
</g>
<g>
	<text transform="matrix(1 0 0 1 86.2695 105.108)" class="st0 st1 st2 st3">2</text>
</g>
<g>
	<text transform="matrix(1 0 0 1 167.7437 345.0058)" class="st0 st1 st2 st3">6</text>
</g>
<g>
	<text transform="matrix(1 0 0 1 276.4927 307.939)" class="st0 st1 st2 st3">4</text>
</g>
<g>
	<text transform="matrix(1 0 0 1 326.1997 235.0236)" class="st0 st1 st2 st3">5</text>
</g>
<g>
	<text transform="matrix(1 0 0 1 258.1646 186.7841)" class="st0 st1 st2 st3">7</text>
</g>
<g>
	<text transform="matrix(1 0 0 1 182.292 132.7689)" class="st0 st1 st2 st3">5</text>
</g>
<g>
	<text transform="matrix(1 0 0 1 208 91.206)" class="st0 st1 st2 st3">7</text>
</g>
<g>
	<text transform="matrix(1 0 0 1 418.5728 349.7863)" class="st0 st1 st2 st3">6</text>
</g>
<g>
	<text transform="matrix(1 0 0 1 307.0234 132.7687)" class="st0 st1 st2 st3">3</text>
</g>
<g>
	<text transform="matrix(1 0 0 1 350.5039 177.6184)" class="st0 st1 st2 st3">8</text>
</g>
<g>
	<text transform="matrix(1 0 0 1 508.4204 228.6917)" class="st0 st1 st2 st3">7</text>
</g>
<g>
	<text transform="matrix(1 0 0 1 378.6201 87.5635)" class="st0 st1 st2 st3">1</text>
</g>
<g>
	<text transform="matrix(1 0 0 1 436.4907 130.8339)" class="st0 st1 st2 st3">8</text>
</g>
<g>
	<text transform="matrix(1 0 0 1 162.2241 303.5848)" class="st0 st1 st2 st3">3</text>
</g>
<image style="overflow:visible;" width="255" height="233" xlink:href="915407F2.png"  transform="matrix(0.1661 0.1425 -0.1564 0.2555 119.8787 155.0644)">
</image>
<image style="overflow:visible;" width="255" height="233" xlink:href="915407F5.png"  transform="matrix(-0.1837 -8.152293e-02 0.1254 -0.2015 166.8004 117.3526)">
</image>
<g>
	<g>
		<path class="st7" d="M91.6,353.1c-11-16.3-5.3-18-6.8-33.2"/>
		<g>
			<polygon class="st8" points="87.5,322.7 84.8,320.4 82.4,323.1 82.3,320.9 84.6,318.2 87.4,320.5 			"/>
		</g>
	</g>
</g>
<image style="overflow:visible;" width="1346" height="1274" xlink:href="915407F6.png"  transform="matrix(7.919911e-02 0 0 9.377842e-02 482.0158 13.295)">
</image>
<image style="overflow:visible;" width="1343" height="1070" xlink:href="915407F4.png"  transform="matrix(5.356911e-02 0 0 6.343035e-02 290.2281 315.8511)">
</image>
<image style="overflow:visible;" width="1616" height="1950" xlink:href="915407F3.png"  transform="matrix(2.596341e-02 0 0 3.074286e-02 62.4562 349.7863)">
</image>
<g>
	<g>
		<path class="st9" d="M467.3,109.8c8.6-12.7,12.4-10.5,24.1-17.8"/>
		<g>
			<polygon class="st8" points="490.4,95.1 491.1,92.2 488.2,91.4 489.7,90.5 492.7,91.2 492,94.2 			"/>
		</g>
	</g>
</g>
<image style="overflow:visible;" width="255" height="286" xlink:href="915407FD.png"  transform="matrix(0.147 0 0 0.1741 220.6709 213.1193)">
</image>
<image style="overflow:visible;" width="588" height="673" xlink:href="915407FE.png"  transform="matrix(0.1086 0 0 0.1035 424.9908 335.3065)">
</image>
<image style="overflow:visible;" width="1380" height="709" xlink:href="915407FC.png"  transform="matrix(-6.219524e-02 0 0 7.364441e-02 464.4498 198.6564)">
</image>
</svg>
