<svg xmlns="http://www.w3.org/2000/svg" xmlns:xlink="http://www.w3.org/1999/xlink" width="600" zoomAndPan="magnify" viewBox="0 0 450 149.999998" height="200" preserveAspectRatio="xMidYMid meet" version="1.2"><defs><clipPath id="8efe2c1967"><path d="M 255.277344 35.234375 L 283.027344 35.234375 L 283.027344 68 L 255.277344 68 Z M 255.277344 35.234375 "/></clipPath><clipPath id="a1c9d42800"><path d="M 263 70 L 274 70 L 274 80.234375 L 263 80.234375 Z M 263 70 "/></clipPath></defs><g id="c806589512"><rect x="0" width="450" y="0" height="149.999998" style="fill:#ffffff;fill-opacity:1;stroke:none;"/><rect x="0" width="450" y="0" height="149.999998" style="fill:#ffffff;fill-opacity:1;stroke:none;"/><path style="fill-rule:nonzero;fill:#000000;fill-opacity:1;stroke-width:1;stroke-linecap:butt;stroke-linejoin:miter;stroke:#0c7b3b;stroke-opacity:1;stroke-miterlimit:4;" d="M 0.499995 0.999997 L 0.499995 199.000009 M 599.50003 0.999997 L 599.50003 199.000009 M -0.000005 0.499997 L 600.00003 0.499997 M -0.000005 199.500009 L 600.00003 199.500009 " transform="matrix(0.75,0,0,0.75,0.00000375,0.000002)"/><g style="fill:#0c7b3b;fill-opacity:1;"><g transform="translate(39.75016, 82.764054)"><path style="stroke:none" d="M 16.605469 -45.179688 C 11.703125 -45.179688 8.171875 -43.480469 4.117188 -40.929688 L 4.117188 -31.578125 C 7.714844 -35.046875 11.964844 -37.136719 14.84375 -37.136719 C 18.242188 -37.136719 20.855469 -34.195312 20.855469 -30.859375 C 20.855469 -26.675781 18.632812 -21.640625 11.898438 -12.421875 C 8.566406 -7.910156 5.753906 -4.117188 3.53125 -1.308594 L 3.53125 0 L 33.019531 0 L 33.019531 -9.089844 L 18.632812 -9.089844 C 24.714844 -16.933594 25.890625 -19.027344 28.769531 -24.714844 C 30.074219 -27.394531 30.730469 -29.945312 30.730469 -32.691406 C 30.730469 -39.359375 26.347656 -45.179688 16.605469 -45.179688 Z M 16.605469 -45.179688 "/></g></g><g style="fill:#0c7b3b;fill-opacity:1;"><g transform="translate(75.841198, 82.764054)"><path style="stroke:none" d="M 8.367188 -9.351562 C 5.882812 -9.351562 2.875 -7.519531 2.875 -4.316406 C 2.875 -2.222656 4.054688 -0.328125 6.210938 0.589844 C 6.277344 0.914062 6.277344 1.242188 6.277344 1.570312 C 6.277344 4.117188 5.296875 6.734375 3.269531 9.023438 L 3.269531 11.050781 C 10.394531 10.332031 14.777344 3.859375 14.777344 -1.894531 C 14.777344 -7.910156 10.332031 -9.351562 8.367188 -9.351562 Z M 8.367188 -9.351562 "/></g></g><g style="fill:#0c7b3b;fill-opacity:1;"><g transform="translate(93.559798, 82.764054)"><path style="stroke:none" d=""/></g></g><g style="fill:#0c7b3b;fill-opacity:1;"><g transform="translate(111.736085, 82.764054)"><path style="stroke:none" d="M 23.667969 -45.179688 L 2.679688 -18.109375 L 2.679688 -10.984375 L 20.074219 -10.984375 L 20.074219 0 L 29.945312 0 L 29.945312 -10.984375 L 32.953125 -10.984375 L 32.953125 -18.109375 L 29.945312 -18.109375 L 29.945312 -45.179688 Z M 20.074219 -18.109375 L 10.527344 -18.109375 L 20.074219 -30.273438 Z M 20.074219 -18.109375 "/></g></g><g style="fill:#0c7b3b;fill-opacity:1;"><g transform="translate(147.827123, 82.764054)"><path style="stroke:none" d="M 8.367188 -9.351562 C 5.882812 -9.351562 2.875 -7.519531 2.875 -4.316406 C 2.875 -2.222656 4.054688 -0.328125 6.210938 0.589844 C 6.277344 0.914062 6.277344 1.242188 6.277344 1.570312 C 6.277344 4.117188 5.296875 6.734375 3.269531 9.023438 L 3.269531 11.050781 C 10.394531 10.332031 14.777344 3.859375 14.777344 -1.894531 C 14.777344 -7.910156 10.332031 -9.351562 8.367188 -9.351562 Z M 8.367188 -9.351562 "/></g></g><g style="fill:#0c7b3b;fill-opacity:1;"><g transform="translate(165.545717, 82.764054)"><path style="stroke:none" d=""/></g></g><g style="fill:#0c7b3b;fill-opacity:1;"><g transform="translate(183.722011, 82.764054)"><path style="stroke:none" d="M 16.671875 -45.179688 L 8.957031 -32.691406 C 4.316406 -25.171875 2.875 -20.398438 2.875 -15.039062 C 2.875 -4.839844 9.9375 0.589844 17.847656 0.589844 C 26.285156 0.589844 32.429688 -6.082031 32.429688 -14.777344 C 32.429688 -22.359375 27.199219 -28.703125 19.941406 -28.703125 C 19.15625 -28.703125 18.632812 -28.636719 17.328125 -28.3125 L 27.65625 -45.179688 Z M 12.945312 -14.1875 C 12.945312 -18.503906 14.90625 -20.921875 17.71875 -20.921875 C 20.988281 -20.921875 22.820312 -17.980469 22.820312 -14.382812 C 22.820312 -10.65625 21.054688 -7.714844 17.847656 -7.714844 C 14.777344 -7.714844 12.945312 -10.132812 12.945312 -14.1875 Z M 12.945312 -14.1875 "/></g></g><g style="fill:#0c7b3b;fill-opacity:1;"><g transform="translate(219.813055, 82.764054)"><path style="stroke:none" d="M 8.367188 -9.351562 C 5.882812 -9.351562 2.875 -7.519531 2.875 -4.316406 C 2.875 -2.222656 4.054688 -0.328125 6.210938 0.589844 C 6.277344 0.914062 6.277344 1.242188 6.277344 1.570312 C 6.277344 4.117188 5.296875 6.734375 3.269531 9.023438 L 3.269531 11.050781 C 10.394531 10.332031 14.777344 3.859375 14.777344 -1.894531 C 14.777344 -7.910156 10.332031 -9.351562 8.367188 -9.351562 Z M 8.367188 -9.351562 "/></g></g><g style="fill:#0c7b3b;fill-opacity:1;"><g transform="translate(237.531649, 82.764054)"><path style="stroke:none" d="M -0.390625 4.902344 L -0.390625 8.171875 L 33.082031 8.171875 L 33.082031 4.902344 Z M -0.390625 4.902344 "/></g></g><g style="fill:#0c7b3b;fill-opacity:1;"><g transform="translate(270.222799, 82.764054)"><path style="stroke:none" d="M -0.390625 4.902344 L -0.390625 8.171875 L 33.082031 8.171875 L 33.082031 4.902344 Z M -0.390625 4.902344 "/></g></g><g style="fill:#0c7b3b;fill-opacity:1;"><g transform="translate(302.913949, 82.764054)"><path style="stroke:none" d="M 8.367188 -9.351562 C 5.882812 -9.351562 2.875 -7.519531 2.875 -4.316406 C 2.875 -2.222656 4.054688 -0.328125 6.210938 0.589844 C 6.277344 0.914062 6.277344 1.242188 6.277344 1.570312 C 6.277344 4.117188 5.296875 6.734375 3.269531 9.023438 L 3.269531 11.050781 C 10.394531 10.332031 14.777344 3.859375 14.777344 -1.894531 C 14.777344 -7.910156 10.332031 -9.351562 8.367188 -9.351562 Z M 8.367188 -9.351562 "/></g></g><g style="fill:#0c7b3b;fill-opacity:1;"><g transform="translate(320.632555, 82.764054)"><path style="stroke:none" d=""/></g></g><g style="fill:#0c7b3b;fill-opacity:1;"><g transform="translate(338.808836, 82.764054)"><path style="stroke:none" d="M 12.945312 -45.179688 L 12.945312 0 L 23.144531 0 L 23.144531 -45.179688 Z M 12.945312 -45.179688 "/></g></g><g style="fill:#0c7b3b;fill-opacity:1;"><g transform="translate(374.89988, 82.764054)"><path style="stroke:none" d="M 18.109375 -45.179688 C 10.199219 -45.179688 2.941406 -38.773438 2.941406 -22.296875 C 2.941406 -7.191406 8.890625 0.589844 18.242188 0.589844 C 27.394531 0.589844 33.148438 -7.585938 33.148438 -22.492188 C 33.148438 -39.425781 25.566406 -45.179688 18.109375 -45.179688 Z M 22.882812 -22.882812 C 22.882812 -10.722656 21.316406 -7.714844 18.109375 -7.714844 C 15.167969 -7.714844 13.273438 -10.65625 13.273438 -22.296875 C 13.273438 -33.476562 14.90625 -36.808594 18.046875 -36.808594 C 21.707031 -36.808594 22.882812 -32.234375 22.882812 -22.882812 Z M 22.882812 -22.882812 "/></g></g><g clip-rule="nonzero" clip-path="url(#8efe2c1967)"><path style=" stroke:none;fill-rule:nonzero;fill:#000000;fill-opacity:1;" d="M 281.191406 40.457031 C 280 38.765625 278.351562 37.46875 276.257812 36.578125 C 274.167969 35.6875 271.753906 35.234375 269.023438 35.234375 C 266.535156 35.234375 264.265625 35.675781 262.214844 36.558594 C 260.164062 37.433594 258.507812 38.773438 257.261719 40.546875 C 256.265625 41.960938 255.652344 43.667969 255.398438 45.675781 C 255.289062 46.550781 255.984375 47.324219 256.871094 47.324219 L 262.367188 47.324219 C 263.074219 47.324219 263.671875 46.828125 263.824219 46.144531 C 263.960938 45.53125 264.1875 44.984375 264.503906 44.515625 C 265.007812 43.757812 265.660156 43.183594 266.457031 42.796875 C 267.25 42.410156 268.089844 42.210938 268.988281 42.210938 C 269.910156 42.210938 270.742188 42.398438 271.507812 42.789062 C 272.269531 43.164062 272.875 43.714844 273.328125 44.425781 C 273.777344 45.136719 274.003906 45.957031 274.003906 46.898438 C 274.003906 47.792969 273.804688 48.59375 273.40625 49.304688 C 273.011719 50.015625 272.476562 50.671875 271.808594 51.257812 C 271.128906 51.851562 270.378906 52.410156 269.527344 52.957031 C 268.390625 53.667969 267.414062 54.460938 266.609375 55.332031 C 265.796875 56.207031 265.1875 57.347656 264.765625 58.769531 C 264.347656 60.191406 264.132812 62.09375 264.121094 64.476562 L 264.121094 65.664062 C 264.121094 66.476562 264.78125 67.140625 265.605469 67.140625 L 270.441406 67.140625 C 271.257812 67.140625 271.925781 66.484375 271.925781 65.664062 L 271.925781 64.476562 C 271.941406 63.136719 272.113281 62.011719 272.449219 61.101562 C 272.785156 60.191406 273.300781 59.382812 273.988281 58.691406 C 274.683594 57.996094 275.570312 57.332031 276.652344 56.683594 C 277.945312 55.917969 279.058594 55.0625 280.007812 54.109375 C 280.949219 53.164062 281.691406 52.066406 282.222656 50.832031 C 282.746094 49.601562 283.019531 48.179688 283.019531 46.585938 C 282.992188 44.191406 282.386719 42.148438 281.191406 40.457031 Z M 281.191406 40.457031 "/></g><g clip-rule="nonzero" clip-path="url(#a1c9d42800)"><path style=" stroke:none;fill-rule:nonzero;fill:#000000;fill-opacity:1;" d="M 268.171875 70.453125 C 266.796875 70.453125 265.632812 70.929688 264.664062 71.882812 C 263.699219 72.839844 263.21875 73.988281 263.238281 75.320312 C 263.21875 76.671875 263.699219 77.832031 264.664062 78.796875 C 265.632812 79.757812 266.796875 80.234375 268.171875 80.234375 C 269.050781 80.234375 269.863281 80.011719 270.597656 79.570312 C 271.335938 79.121094 271.933594 78.535156 272.394531 77.789062 C 272.855469 77.042969 273.089844 76.222656 273.101562 75.320312 C 273.082031 73.980469 272.585938 72.839844 271.601562 71.882812 C 270.625 70.929688 269.476562 70.453125 268.171875 70.453125 Z M 268.171875 70.453125 "/></g></g></svg>