<svg xmlns="http://www.w3.org/2000/svg" xmlns:xlink="http://www.w3.org/1999/xlink" width="600" zoomAndPan="magnify" viewBox="0 0 450 149.999998" height="200" preserveAspectRatio="xMidYMid meet" version="1.2"><defs/><g id="2a10fbaf6d"><rect x="0" width="450" y="0" height="149.999998" style="fill:#ffffff;fill-opacity:1;stroke:none;"/><rect x="0" width="450" y="0" height="149.999998" style="fill:#ffffff;fill-opacity:1;stroke:none;"/><path style="fill-rule:nonzero;fill:#000000;fill-opacity:1;stroke-width:1;stroke-linecap:butt;stroke-linejoin:miter;stroke:#0c7b3b;stroke-opacity:1;stroke-miterlimit:4;" d="M 0.499995 0.999997 L 0.499995 199.000009 M 599.50003 0.999997 L 599.50003 199.000009 M -0.000005 0.499997 L 600.00003 0.499997 M -0.000005 199.500009 L 600.00003 199.500009 " transform="matrix(0.75,0,0,0.75,0.00000375,0.000002)"/><g style="fill:#0c7b3b;fill-opacity:1;"><g transform="translate(108.437421, 113.618449)"><path style="stroke:none" d="M 24.121094 -84.175781 L 24.121094 0 L 43.125 0 L 43.125 -84.175781 Z M 24.121094 -84.175781 "/></g></g><g style="fill:#0c7b3b;fill-opacity:1;"><g transform="translate(175.684095, 113.618449)"><path style="stroke:none" d=""/></g></g><g style="fill:#0c7b3b;fill-opacity:1;"><g transform="translate(265.974544, 113.618795)"><path style="stroke:none" d="M 44.097656 -84.175781 L 4.996094 -33.742188 L 4.996094 -20.464844 L 37.398438 -20.464844 L 37.398438 0 L 55.792969 0 L 55.792969 -20.464844 L 61.398438 -20.464844 L 61.398438 -33.742188 L 55.792969 -33.742188 L 55.792969 -84.175781 Z M 37.398438 -33.742188 L 19.613281 -33.742188 L 37.398438 -56.402344 Z M 37.398438 -33.742188 "/></g></g></g></svg>