<svg xmlns="http://www.w3.org/2000/svg" xmlns:xlink="http://www.w3.org/1999/xlink" width="600" zoomAndPan="magnify" viewBox="0 0 450 149.999998" height="200" preserveAspectRatio="xMidYMid meet" version="1.2"><defs><clipPath id="76df248a32"><path d="M 238.835938 39.359375 L 265.085938 39.359375 L 265.085938 70 L 238.835938 70 Z M 238.835938 39.359375 "/></clipPath><clipPath id="146407974f"><path d="M 246 72 L 256 72 L 256 82.109375 L 246 82.109375 Z M 246 72 "/></clipPath></defs><g id="20e11be1cb"><rect x="0" width="450" y="0" height="149.999998" style="fill:#ffffff;fill-opacity:1;stroke:none;"/><rect x="0" width="450" y="0" height="149.999998" style="fill:#ffffff;fill-opacity:1;stroke:none;"/><path style="fill-rule:nonzero;fill:#000000;fill-opacity:1;stroke-width:1;stroke-linecap:butt;stroke-linejoin:miter;stroke:#0c7b3b;stroke-opacity:1;stroke-miterlimit:4;" d="M 0.499995 0.999997 L 0.499995 199.000009 M 599.50003 0.999997 L 599.50003 199.000009 M -0.000005 0.499997 L 600.00003 0.499997 M -0.000005 199.500009 L 600.00003 199.500009 " transform="matrix(0.75,0,0,0.75,0.00000375,0.000002)"/><g style="fill:#0c7b3b;fill-opacity:1;"><g transform="translate(75.611982, 82.764054)"><path style="stroke:none" d="M 12.945312 -45.179688 L 12.945312 0 L 23.144531 0 L 23.144531 -45.179688 Z M 12.945312 -45.179688 "/></g></g><g style="fill:#0c7b3b;fill-opacity:1;"><g transform="translate(111.70302, 82.764054)"><path style="stroke:none" d="M 8.367188 -9.351562 C 5.882812 -9.351562 2.875 -7.519531 2.875 -4.316406 C 2.875 -2.222656 4.054688 -0.328125 6.210938 0.589844 C 6.277344 0.914062 6.277344 1.242188 6.277344 1.570312 C 6.277344 4.117188 5.296875 6.734375 3.269531 9.023438 L 3.269531 11.050781 C 10.394531 10.332031 14.777344 3.859375 14.777344 -1.894531 C 14.777344 -7.910156 10.332031 -9.351562 8.367188 -9.351562 Z M 8.367188 -9.351562 "/></g></g><g style="fill:#0c7b3b;fill-opacity:1;"><g transform="translate(129.421621, 82.764054)"><path style="stroke:none" d=""/></g></g><g style="fill:#0c7b3b;fill-opacity:1;"><g transform="translate(147.597908, 82.764054)"><path style="stroke:none" d="M 16.605469 -45.179688 C 11.703125 -45.179688 8.171875 -43.480469 4.117188 -40.929688 L 4.117188 -31.578125 C 7.714844 -35.046875 11.964844 -37.136719 14.84375 -37.136719 C 18.242188 -37.136719 20.855469 -34.195312 20.855469 -30.859375 C 20.855469 -26.675781 18.632812 -21.640625 11.898438 -12.421875 C 8.566406 -7.910156 5.753906 -4.117188 3.53125 -1.308594 L 3.53125 0 L 33.019531 0 L 33.019531 -9.089844 L 18.632812 -9.089844 C 24.714844 -16.933594 25.890625 -19.027344 28.769531 -24.714844 C 30.074219 -27.394531 30.730469 -29.945312 30.730469 -32.691406 C 30.730469 -39.359375 26.347656 -45.179688 16.605469 -45.179688 Z M 16.605469 -45.179688 "/></g></g><g style="fill:#0c7b3b;fill-opacity:1;"><g transform="translate(183.688945, 82.764054)"><path style="stroke:none" d="M 8.367188 -9.351562 C 5.882812 -9.351562 2.875 -7.519531 2.875 -4.316406 C 2.875 -2.222656 4.054688 -0.328125 6.210938 0.589844 C 6.277344 0.914062 6.277344 1.242188 6.277344 1.570312 C 6.277344 4.117188 5.296875 6.734375 3.269531 9.023438 L 3.269531 11.050781 C 10.394531 10.332031 14.777344 3.859375 14.777344 -1.894531 C 14.777344 -7.910156 10.332031 -9.351562 8.367188 -9.351562 Z M 8.367188 -9.351562 "/></g></g><g style="fill:#0c7b3b;fill-opacity:1;"><g transform="translate(201.40754, 82.764054)"><path style="stroke:none" d=""/></g></g><g style="fill:#0c7b3b;fill-opacity:1;"><g transform="translate(219.583833, 82.764054)"><path style="stroke:none" d="M -0.390625 4.902344 L -0.390625 8.171875 L 33.082031 8.171875 L 33.082031 4.902344 Z M -0.390625 4.902344 "/></g></g><g style="fill:#0c7b3b;fill-opacity:1;"><g transform="translate(252.274983, 82.764054)"><path style="stroke:none" d="M -0.390625 4.902344 L -0.390625 8.171875 L 33.082031 8.171875 L 33.082031 4.902344 Z M -0.390625 4.902344 "/></g></g><g style="fill:#0c7b3b;fill-opacity:1;"><g transform="translate(284.966133, 82.764054)"><path style="stroke:none" d=""/></g></g><g style="fill:#0c7b3b;fill-opacity:1;"><g transform="translate(303.142426, 82.764054)"><path style="stroke:none" d="M 8.367188 -9.351562 C 5.882812 -9.351562 2.875 -7.519531 2.875 -4.316406 C 2.875 -2.222656 4.054688 -0.328125 6.210938 0.589844 C 6.277344 0.914062 6.277344 1.242188 6.277344 1.570312 C 6.277344 4.117188 5.296875 6.734375 3.269531 9.023438 L 3.269531 11.050781 C 10.394531 10.332031 14.777344 3.859375 14.777344 -1.894531 C 14.777344 -7.910156 10.332031 -9.351562 8.367188 -9.351562 Z M 8.367188 -9.351562 "/></g></g><g style="fill:#0c7b3b;fill-opacity:1;"><g transform="translate(320.861033, 82.764054)"><path style="stroke:none" d=""/></g></g><g style="fill:#0c7b3b;fill-opacity:1;"><g transform="translate(339.037313, 82.764054)"><path style="stroke:none" d="M 23.667969 -45.179688 L 2.679688 -18.109375 L 2.679688 -10.984375 L 20.074219 -10.984375 L 20.074219 0 L 29.945312 0 L 29.945312 -10.984375 L 32.953125 -10.984375 L 32.953125 -18.109375 L 29.945312 -18.109375 L 29.945312 -45.179688 Z M 20.074219 -18.109375 L 10.527344 -18.109375 L 20.074219 -30.273438 Z M 20.074219 -18.109375 "/></g></g><g clip-rule="nonzero" clip-path="url(#76df248a32)"><path style=" stroke:none;fill-rule:nonzero;fill:#000000;fill-opacity:1;" d="M 263.347656 44.320312 C 262.21875 42.710938 260.660156 41.480469 258.675781 40.632812 C 256.703125 39.789062 254.417969 39.359375 251.835938 39.359375 C 249.484375 39.359375 247.335938 39.777344 245.394531 40.617188 C 243.453125 41.445312 241.890625 42.71875 240.707031 44.40625 C 239.769531 45.746094 239.1875 47.371094 238.945312 49.277344 C 238.84375 50.109375 239.503906 50.84375 240.339844 50.84375 L 245.539062 50.84375 C 246.207031 50.84375 246.773438 50.371094 246.917969 49.722656 C 247.046875 49.140625 247.261719 48.621094 247.558594 48.175781 C 248.039062 47.457031 248.652344 46.910156 249.40625 46.542969 C 250.160156 46.175781 250.953125 45.988281 251.800781 45.988281 C 252.671875 45.988281 253.460938 46.164062 254.1875 46.535156 C 254.90625 46.894531 255.480469 47.414062 255.90625 48.089844 C 256.332031 48.765625 256.546875 49.542969 256.546875 50.441406 C 256.546875 51.289062 256.359375 52.046875 255.984375 52.722656 C 255.605469 53.398438 255.101562 54.023438 254.46875 54.578125 C 253.828125 55.144531 253.117188 55.671875 252.3125 56.195312 C 251.238281 56.871094 250.3125 57.621094 249.550781 58.453125 C 248.78125 59.28125 248.210938 60.367188 247.808594 61.71875 C 247.414062 63.070312 247.207031 64.875 247.199219 67.140625 L 247.199219 68.269531 C 247.199219 69.039062 247.824219 69.667969 248.601562 69.667969 L 253.179688 69.667969 C 253.949219 69.667969 254.582031 69.046875 254.582031 68.269531 L 254.582031 67.140625 C 254.597656 65.863281 254.761719 64.796875 255.078125 63.933594 C 255.394531 63.070312 255.878906 62.300781 256.53125 61.640625 C 257.1875 60.984375 258.027344 60.351562 259.054688 59.734375 C 260.277344 59.007812 261.328125 58.195312 262.226562 57.289062 C 263.117188 56.390625 263.816406 55.347656 264.320312 54.175781 C 264.816406 53.007812 265.074219 51.65625 265.074219 50.140625 C 265.046875 47.867188 264.476562 45.925781 263.347656 44.320312 Z M 263.347656 44.320312 "/></g><g clip-rule="nonzero" clip-path="url(#146407974f)"><path style=" stroke:none;fill-rule:nonzero;fill:#000000;fill-opacity:1;" d="M 251.03125 72.816406 C 249.730469 72.816406 248.628906 73.269531 247.714844 74.175781 C 246.796875 75.082031 246.34375 76.175781 246.363281 77.441406 C 246.34375 78.722656 246.796875 79.828125 247.714844 80.742188 C 248.628906 81.65625 249.730469 82.109375 251.03125 82.109375 C 251.859375 82.109375 252.628906 81.894531 253.324219 81.476562 C 254.023438 81.050781 254.589844 80.496094 255.023438 79.785156 C 255.460938 79.074219 255.683594 78.296875 255.691406 77.441406 C 255.675781 76.167969 255.203125 75.082031 254.273438 74.175781 C 253.347656 73.269531 252.261719 72.816406 251.03125 72.816406 Z M 251.03125 72.816406 "/></g></g></svg>