<svg xmlns="http://www.w3.org/2000/svg" xmlns:xlink="http://www.w3.org/1999/xlink" width="416" zoomAndPan="magnify" viewBox="0 0 312 170.249993" height="227" preserveAspectRatio="xMidYMid meet" version="1.2"><defs><clipPath id="41cc18d468"><path d="M 0.683594 0 L 311.316406 0 L 311.316406 169.503906 L 0.683594 169.503906 Z M 0.683594 0 "/></clipPath><clipPath id="e49b2763bb"><path d="M 15.074219 92.304688 L 35.140625 92.304688 L 35.140625 112.371094 L 15.074219 112.371094 Z M 15.074219 92.304688 "/></clipPath><clipPath id="33fab8cce4"><path d="M 35.066406 93.972656 L 35.066406 110.703125 C 35.066406 111.582031 34.34375 112.296875 33.472656 112.296875 L 16.738281 112.296875 C 15.863281 112.296875 15.148438 111.578125 15.148438 110.703125 L 15.148438 93.972656 C 15.148438 93.09375 15.867188 92.378906 16.738281 92.378906 L 33.472656 92.378906 C 34.347656 92.378906 35.066406 93.097656 35.066406 93.972656 "/></clipPath><clipPath id="6ca4447ec5"><path d="M 16.738281 93.972656 L 33.472656 93.972656 L 33.472656 110.703125 L 16.738281 110.703125 Z M 16.738281 93.972656 "/></clipPath><clipPath id="6add81c35e"><path d="M 16.679688 97.890625 L 33.53125 97.890625 L 33.53125 110.761719 L 16.679688 110.761719 Z M 16.679688 97.890625 "/></clipPath><clipPath id="5cad8ce193"><path d="M 29.484375 97.953125 C 30.675781 97.953125 31.078125 101.140625 31.078125 102.730469 C 31.078125 104.320312 30.355469 104.324219 29.484375 104.324219 C 28.609375 104.324219 27.890625 103.605469 27.890625 102.730469 C 27.890625 101.136719 28.285156 97.953125 29.484375 97.953125 M 29.484375 106.238281 C 30.160156 106.039062 30.960938 105.921875 31.875 105.921875 C 31.875 105.921875 32.671875 105.921875 33.46875 106.316406 L 33.46875 110.699219 L 16.738281 110.699219 C 16.738281 110.699219 18.730469 107.511719 21.519531 107.511719 C 24.304688 107.511719 25.902344 109.101562 25.902344 109.101562 C 25.902344 109.101562 26.699219 107.027344 29.488281 106.238281 Z M 29.484375 106.238281 "/></clipPath><clipPath id="139a0901ad"><path d="M 19.898438 97.132812 L 23.117188 97.132812 L 23.117188 100.351562 L 19.898438 100.351562 Z M 19.898438 97.132812 "/></clipPath><clipPath id="121e52d6d8"><path d="M 22.632812 97.636719 C 22.917969 97.917969 23.113281 98.3125 23.113281 98.75 C 23.113281 99.1875 22.953125 99.589844 22.632812 99.867188 C 22.351562 100.148438 21.957031 100.34375 21.519531 100.34375 C 21.082031 100.34375 20.679688 100.183594 20.402344 99.867188 C 20.121094 99.589844 19.925781 99.1875 19.925781 98.75 C 19.925781 98.3125 20.085938 97.914062 20.402344 97.636719 C 20.679688 97.355469 21.082031 97.15625 21.519531 97.15625 C 21.957031 97.15625 22.351562 97.359375 22.632812 97.636719 "/></clipPath><clipPath id="d7bcdbfc85"><path d="M 14.882812 92.117188 L 35.328125 92.117188 L 35.328125 112.558594 L 14.882812 112.558594 Z M 14.882812 92.117188 "/></clipPath><clipPath id="d97fa058a1"><path d="M 21.519531 100.144531 C 22.273438 100.144531 22.917969 99.507812 22.917969 98.746094 C 22.917969 97.988281 22.277344 97.351562 21.519531 97.351562 C 20.757812 97.351562 20.121094 97.988281 20.121094 98.746094 C 20.121094 99.507812 20.757812 100.144531 21.519531 100.144531 M 21.519531 102.136719 C 21.398438 102.136719 21.320312 102.058594 21.320312 101.9375 L 21.320312 100.539062 C 20.960938 100.496094 20.640625 100.378906 20.402344 100.144531 L 19.410156 101.136719 C 19.332031 101.21875 19.210938 101.21875 19.128906 101.136719 C 19.085938 101.09375 19.085938 101.058594 19.085938 100.976562 C 19.085938 100.894531 19.085938 100.855469 19.128906 100.816406 L 20.121094 99.824219 C 19.921875 99.585938 19.761719 99.269531 19.726562 98.90625 L 18.332031 98.90625 C 18.210938 98.90625 18.132812 98.828125 18.132812 98.707031 C 18.132812 98.585938 18.210938 98.507812 18.332031 98.507812 L 19.730469 98.507812 C 19.773438 98.148438 19.886719 97.832031 20.125 97.59375 L 19.132812 96.601562 C 19.089844 96.558594 19.089844 96.523438 19.089844 96.441406 C 19.089844 96.359375 19.089844 96.320312 19.132812 96.28125 C 19.210938 96.203125 19.332031 96.203125 19.414062 96.28125 L 20.40625 97.277344 C 20.644531 97.074219 20.964844 96.914062 21.324219 96.878906 L 21.324219 95.488281 C 21.324219 95.367188 21.402344 95.285156 21.523438 95.285156 C 21.644531 95.285156 21.722656 95.367188 21.722656 95.488281 L 21.722656 96.882812 C 22.082031 96.925781 22.398438 97.039062 22.636719 97.28125 L 23.632812 96.285156 C 23.710938 96.207031 23.832031 96.207031 23.914062 96.285156 C 23.957031 96.328125 23.957031 96.363281 23.957031 96.445312 C 23.957031 96.527344 23.957031 96.566406 23.914062 96.605469 L 22.921875 97.601562 C 23.121094 97.839844 23.28125 98.15625 23.316406 98.515625 L 24.710938 98.515625 C 24.832031 98.515625 24.914062 98.59375 24.914062 98.714844 C 24.914062 98.835938 24.832031 98.914062 24.710938 98.914062 L 23.3125 98.914062 C 23.269531 99.277344 23.15625 99.59375 22.917969 99.832031 L 23.910156 100.824219 C 23.953125 100.867188 23.953125 100.902344 23.953125 100.984375 C 23.953125 101.066406 23.953125 101.105469 23.910156 101.144531 C 23.832031 101.226562 23.710938 101.226562 23.628906 101.144531 L 22.632812 100.152344 C 22.394531 100.351562 22.078125 100.511719 21.71875 100.546875 L 21.71875 101.945312 C 21.71875 102.066406 21.640625 102.144531 21.519531 102.144531 M 29.484375 98.15625 C 28.566406 98.15625 28.085938 100.863281 28.085938 102.734375 C 28.085938 104.605469 28.722656 104.132812 29.484375 104.132812 C 30.242188 104.132812 30.882812 103.496094 30.882812 102.734375 C 30.882812 100.863281 30.402344 98.15625 29.484375 98.15625 M 33.472656 110.898438 L 18.332031 110.898438 C 18.210938 110.898438 18.132812 110.820312 18.132812 110.699219 C 18.132812 110.578125 18.210938 110.5 18.332031 110.5 L 33.273438 110.5 L 33.273438 94.167969 L 16.933594 94.167969 L 16.933594 109.746094 C 17.65625 108.945312 19.328125 107.316406 21.515625 107.316406 C 23.703125 107.316406 25.300781 108.351562 25.820312 108.789062 C 26.136719 108.191406 27.097656 106.757812 29.285156 106.082031 L 29.285156 104.527344 C 28.40625 104.40625 27.691406 103.652344 27.691406 102.734375 C 27.691406 101.339844 28.007812 97.753906 29.484375 97.753906 C 30.960938 97.753906 31.277344 101.339844 31.277344 102.734375 C 31.277344 104.132812 30.554688 104.40625 29.683594 104.527344 L 29.683594 106.003906 C 30.320312 105.847656 31.039062 105.765625 31.871094 105.765625 C 32.703125 105.765625 32.070312 105.84375 32.070312 105.964844 C 32.070312 106.085938 31.992188 106.164062 31.871094 106.164062 C 30.996094 106.164062 30.238281 106.285156 29.601562 106.441406 C 29.558594 106.441406 29.523438 106.484375 29.480469 106.484375 C 26.847656 107.285156 26.09375 109.195312 26.09375 109.234375 C 26.050781 109.3125 26.015625 109.355469 25.933594 109.355469 C 25.851562 109.355469 25.8125 109.355469 25.734375 109.3125 C 25.734375 109.3125 24.140625 107.757812 21.511719 107.757812 C 18.878906 107.757812 16.929688 110.425781 16.886719 110.464844 C 16.84375 110.542969 16.726562 110.585938 16.648438 110.542969 C 16.570312 110.5 16.527344 110.421875 16.527344 110.34375 L 16.527344 94.011719 C 16.527344 93.890625 16.605469 93.8125 16.726562 93.8125 L 33.46875 93.8125 C 33.589844 93.8125 33.667969 93.890625 33.667969 94.011719 L 33.667969 110.738281 C 33.667969 110.816406 33.589844 110.898438 33.46875 110.898438 Z M 16.738281 92.574219 C 15.984375 92.574219 15.34375 93.210938 15.34375 93.972656 L 15.34375 110.703125 C 15.34375 111.460938 15.980469 112.101562 16.738281 112.101562 L 33.472656 112.101562 C 34.226562 112.101562 34.871094 111.464844 34.871094 110.703125 L 34.871094 93.972656 C 34.871094 93.214844 34.230469 92.574219 33.472656 92.574219 Z M 33.472656 112.496094 L 16.738281 112.496094 C 15.746094 112.496094 14.945312 111.699219 14.945312 110.703125 L 14.945312 93.972656 C 14.945312 92.976562 15.746094 92.179688 16.738281 92.179688 L 33.472656 92.179688 C 34.464844 92.179688 35.265625 92.976562 35.265625 93.972656 L 35.265625 110.703125 C 35.265625 111.699219 34.464844 112.496094 33.472656 112.496094 "/></clipPath><clipPath id="1d89a432f9"><path d="M 14.789062 65.890625 L 34.40625 65.890625 L 34.40625 70.816406 L 14.789062 70.816406 Z M 14.789062 65.890625 "/></clipPath><clipPath id="ed13882628"><path d="M 34.351562 70.8125 L 14.789062 70.644531 L 14.828125 65.890625 L 34.394531 66.058594 Z M 34.351562 70.8125 "/></clipPath><clipPath id="a5495aa9d9"><path d="M 14.414062 65.519531 L 34.78125 65.519531 L 34.78125 71.1875 L 14.414062 71.1875 Z M 14.414062 65.519531 "/></clipPath><clipPath id="cb58ee5599"><path d="M 15.148438 70.292969 L 15.183594 66.253906 L 17.261719 66.269531 L 17.253906 67.019531 C 17.253906 67.117188 17.292969 67.207031 17.355469 67.273438 C 17.417969 67.339844 17.511719 67.378906 17.609375 67.378906 C 17.804688 67.378906 17.96875 67.222656 17.96875 67.027344 L 17.976562 66.273438 L 20.050781 66.292969 L 20.039062 67.703125 C 20.039062 67.800781 20.078125 67.890625 20.140625 67.957031 C 20.203125 68.023438 20.292969 68.0625 20.390625 68.0625 C 20.585938 68.066406 20.75 67.90625 20.75 67.710938 L 20.761719 66.300781 L 22.839844 66.320312 L 22.832031 67.074219 C 22.832031 67.171875 22.871094 67.261719 22.933594 67.328125 C 22.996094 67.394531 23.085938 67.433594 23.183594 67.433594 C 23.378906 67.433594 23.542969 67.277344 23.546875 67.082031 L 23.554688 66.332031 L 25.628906 66.351562 L 25.613281 68.214844 C 25.613281 68.3125 25.652344 68.402344 25.714844 68.46875 C 25.777344 68.535156 25.867188 68.574219 25.964844 68.574219 C 26.160156 68.578125 26.324219 68.417969 26.324219 68.222656 L 26.339844 66.359375 L 28.417969 66.378906 L 28.410156 67.128906 C 28.410156 67.226562 28.449219 67.316406 28.511719 67.382812 C 28.574219 67.449219 28.664062 67.488281 28.761719 67.488281 C 28.957031 67.488281 29.121094 67.332031 29.121094 67.136719 L 29.128906 66.386719 L 31.207031 66.402344 L 31.191406 68.265625 C 31.191406 68.363281 31.230469 68.453125 31.296875 68.519531 C 31.359375 68.585938 31.449219 68.625 31.546875 68.625 C 31.742188 68.625 31.902344 68.46875 31.90625 68.273438 L 31.921875 66.410156 L 34.03125 66.429688 L 33.996094 70.46875 Z M 34.707031 70.816406 L 34.746094 66.0625 C 34.75 65.867188 34.589844 65.707031 34.394531 65.703125 L 14.832031 65.535156 C 14.636719 65.535156 14.472656 65.691406 14.472656 65.886719 L 14.433594 70.644531 C 14.433594 70.742188 14.472656 70.832031 14.535156 70.898438 C 14.597656 70.964844 14.6875 71.003906 14.785156 71.003906 L 34.347656 71.171875 C 34.441406 71.171875 34.535156 71.136719 34.601562 71.070312 C 34.667969 71.003906 34.707031 70.914062 34.707031 70.820312 "/></clipPath><clipPath id="b08f39c6f1"><path d="M 20.011719 68.425781 L 20.757812 68.425781 L 20.757812 69.359375 L 20.011719 69.359375 Z M 20.011719 68.425781 "/></clipPath><clipPath id="638ebf7999"><path d="M 20.742188 68.824219 C 20.742188 68.628906 20.585938 68.46875 20.390625 68.464844 C 20.195312 68.460938 20.035156 68.621094 20.03125 68.816406 L 20.03125 68.988281 C 20.03125 69.085938 20.070312 69.175781 20.132812 69.242188 C 20.195312 69.308594 20.285156 69.347656 20.382812 69.347656 C 20.578125 69.347656 20.738281 69.191406 20.742188 68.996094 Z M 20.742188 68.824219 "/></clipPath><clipPath id="f06de8557f"><path d="M 14.617188 120.75 L 34.304688 120.75 L 34.304688 140.53125 L 14.617188 140.53125 Z M 14.617188 120.75 "/></clipPath><clipPath id="e33c403124"><path d="M 14.617188 130.652344 C 14.617188 136.089844 19.027344 140.496094 24.460938 140.496094 C 29.898438 140.496094 34.300781 136.089844 34.300781 130.652344 C 34.300781 125.21875 29.894531 120.8125 24.460938 120.8125 C 19.03125 120.8125 14.617188 125.222656 14.617188 130.652344 "/></clipPath><clipPath id="930612bb0f"><path d="M 14.238281 120.464844 L 34.683594 120.464844 L 34.683594 140.910156 L 14.238281 140.910156 Z M 14.238281 120.464844 "/></clipPath><clipPath id="baad786da9"><path d="M 24.460938 121.132812 C 19.207031 121.132812 14.9375 125.402344 14.9375 130.652344 C 14.9375 135.90625 19.207031 140.179688 24.460938 140.179688 C 29.71875 140.179688 33.984375 135.910156 33.984375 130.652344 C 33.984375 125.398438 29.714844 121.132812 24.460938 121.132812 M 24.460938 140.847656 C 18.859375 140.847656 14.300781 136.289062 14.300781 130.683594 C 14.300781 125.082031 18.859375 120.527344 24.460938 120.527344 C 30.066406 120.527344 34.621094 125.085938 34.621094 130.683594 C 34.585938 136.253906 30.0625 140.84375 24.457031 140.84375 Z M 24.460938 140.847656 "/></clipPath><clipPath id="5d036eda1d"><path d="M 16.792969 123.019531 L 32.03125 123.019531 L 32.03125 138.257812 L 16.792969 138.257812 Z M 16.792969 123.019531 "/></clipPath><clipPath id="44fddc405f"><path d="M 16.832031 130.652344 C 16.832031 134.847656 20.234375 138.25 24.425781 138.25 C 28.617188 138.25 32.023438 134.847656 32.023438 130.65625 C 32.023438 126.460938 28.621094 123.066406 24.429688 123.066406 C 20.238281 123.066406 16.839844 126.464844 16.839844 130.65625 "/></clipPath><clipPath id="618ff820b0"><path d="M 16.507812 122.734375 L 32.410156 122.734375 L 32.410156 138.636719 L 16.507812 138.636719 Z M 16.507812 122.734375 "/></clipPath><clipPath id="d68dfbccd6"><path d="M 24.425781 123.378906 C 20.40625 123.378906 17.148438 126.636719 17.148438 130.65625 C 17.148438 134.675781 20.40625 137.9375 24.425781 137.9375 C 28.445312 137.9375 31.707031 134.675781 31.707031 130.65625 C 31.707031 126.636719 28.445312 123.378906 24.425781 123.378906 M 24.425781 138.566406 C 20.058594 138.566406 16.515625 135.027344 16.515625 130.65625 C 16.515625 126.289062 20.0625 122.746094 24.425781 122.746094 C 28.792969 122.746094 32.335938 126.292969 32.335938 130.65625 C 32.335938 135.023438 28.792969 138.566406 24.425781 138.566406 "/></clipPath><clipPath id="8b5f06d649"><path d="M 17.457031 123.683594 L 31.371094 123.683594 L 31.371094 137.597656 L 17.457031 137.597656 Z M 17.457031 123.683594 "/></clipPath><clipPath id="ceb447a1f5"><path d="M 24.460938 130.023438 C 24.113281 130.023438 23.828125 130.308594 23.828125 130.65625 C 23.828125 131.007812 24.113281 131.292969 24.460938 131.292969 C 24.8125 131.292969 25.097656 131.007812 25.097656 130.65625 C 25.097656 130.308594 24.8125 130.023438 24.460938 130.023438 M 24.460938 131.890625 C 23.765625 131.890625 23.199219 131.324219 23.199219 130.625 C 23.199219 129.929688 23.769531 129.363281 24.460938 129.363281 C 25.15625 129.363281 25.726562 129.933594 25.726562 130.625 C 25.726562 131.320312 25.15625 131.890625 24.460938 131.890625 M 17.5 130.339844 L 18.382812 130.339844 L 18.382812 130.976562 L 17.5 130.976562 Z M 30.472656 130.339844 L 31.359375 130.339844 L 31.359375 130.976562 L 30.472656 130.976562 Z M 24.113281 136.699219 L 24.75 136.699219 L 24.75 137.585938 L 24.113281 137.585938 Z M 24.113281 123.726562 L 24.75 123.726562 L 24.75 124.609375 L 24.113281 124.609375 Z M 24.113281 123.726562 "/></clipPath><clipPath id="be96d4460c"><path d="M 24.839844 125.765625 L 29.382812 125.765625 L 29.382812 130.308594 L 24.839844 130.308594 Z M 24.839844 125.765625 "/></clipPath><clipPath id="ecec4c3aa7"><path d="M 24.90625 129.765625 L 28.84375 125.828125 L 29.289062 126.273438 L 25.351562 130.214844 Z M 24.90625 129.765625 "/></clipPath><clipPath id="1de2080c14"><path d="M 24.113281 131.574219 L 24.75 131.574219 L 24.75 134.734375 L 24.113281 134.734375 Z M 24.113281 131.574219 "/></clipPath><clipPath id="664ba45562"><path d="M 20.105469 126.332031 L 24.746094 126.332031 L 24.746094 130.875 L 20.105469 130.875 Z M 20.105469 126.332031 "/></clipPath><clipPath id="a77325aa23"><path d="M 20.183594 126.8125 L 20.628906 126.367188 L 24.679688 130.414062 L 24.234375 130.859375 Z M 20.183594 126.8125 "/></clipPath><clipPath id="05605fc16e"><path d="M 16.617188 25 L 31.921875 25 L 31.921875 45.328125 L 16.617188 45.328125 Z M 16.617188 25 "/></clipPath><clipPath id="29540d6ed9"><path d="M 24.269531 25 C 23.074219 25 22.101562 25.972656 22.101562 27.167969 C 22.101562 27.890625 22.464844 28.527344 23.011719 28.925781 L 16.660156 42.535156 L 16.65625 42.539062 L 16.65625 42.542969 C 16.632812 42.589844 16.625 42.636719 16.625 42.6875 L 16.625 44.96875 C 16.625 45.15625 16.777344 45.3125 16.96875 45.3125 L 31.574219 45.3125 C 31.761719 45.3125 31.917969 45.160156 31.917969 44.96875 L 31.917969 42.691406 C 31.917969 42.644531 31.90625 42.597656 31.890625 42.554688 C 31.890625 42.550781 31.886719 42.546875 31.886719 42.546875 L 31.886719 42.542969 L 25.53125 28.925781 C 26.078125 28.527344 26.441406 27.890625 26.441406 27.167969 C 26.4375 25.972656 25.464844 25 24.269531 25 Z M 24.269531 25 "/></clipPath><clipPath id="d49335f4df"><path d="M 17.441406 29.195312 L 31.097656 29.195312 L 31.097656 42.398438 L 17.441406 42.398438 Z M 17.441406 29.195312 "/></clipPath><clipPath id="81a9f44ddb"><path d="M 23.625 29.226562 C 23.828125 29.289062 24.042969 29.335938 24.265625 29.335938 C 24.488281 29.335938 24.703125 29.289062 24.910156 29.226562 L 28.921875 37.824219 C 28.316406 37.957031 27.816406 38.410156 27.640625 39.03125 C 27.433594 39.765625 27.738281 40.550781 28.382812 40.957031 C 28.992188 41.332031 29.769531 41.277344 30.324219 40.835938 L 31.03125 42.347656 L 21.726562 42.347656 C 21.816406 42.175781 21.871094 41.984375 21.871094 41.777344 C 21.871094 41.089844 21.304688 40.519531 20.613281 40.519531 C 19.925781 40.519531 19.363281 41.089844 19.363281 41.777344 C 19.363281 41.984375 19.417969 42.175781 19.507812 42.347656 L 17.503906 42.347656 Z M 23.625 29.226562 "/></clipPath><clipPath id="f07b1f5a7c"><path d="M 23.445312 32.269531 L 25.996094 32.269531 L 25.996094 34.820312 L 23.445312 34.820312 Z M 23.445312 32.269531 "/></clipPath><clipPath id="c212fb2eb9"><path d="M 24.722656 32.304688 C 24.035156 32.304688 23.46875 32.875 23.46875 33.5625 C 23.46875 34.25 24.035156 34.820312 24.722656 34.820312 C 25.414062 34.820312 25.980469 34.25 25.980469 33.5625 C 25.980469 32.875 25.414062 32.304688 24.722656 32.304688 "/></clipPath><clipPath id="51890bed90"><path d="M 24.117188 32.945312 L 25.320312 32.945312 L 25.320312 34.144531 L 24.117188 34.144531 Z M 24.117188 32.945312 "/></clipPath><clipPath id="9e5c255406"><path d="M 24.722656 32.992188 C 25.042969 32.992188 25.296875 33.242188 25.296875 33.5625 C 25.296875 33.882812 25.042969 34.132812 24.722656 34.132812 C 24.402344 34.132812 24.152344 33.882812 24.152344 33.5625 C 24.152344 33.242188 24.402344 32.992188 24.722656 32.992188 "/></clipPath><clipPath id="02f4c6ba2c"><path d="M 22.09375 35.945312 L 25.542969 35.945312 L 25.542969 39.398438 L 22.09375 39.398438 Z M 22.09375 35.945312 "/></clipPath><clipPath id="5c872f023d"><path d="M 23.8125 35.957031 C 22.871094 35.957031 22.101562 36.730469 22.101562 37.667969 C 22.101562 38.609375 22.871094 39.378906 23.8125 39.378906 C 24.75 39.378906 25.523438 38.609375 25.523438 37.667969 C 25.523438 36.730469 24.753906 35.957031 23.8125 35.957031 "/></clipPath><clipPath id="2f7323245c"><path d="M 22.769531 36.621094 L 24.871094 36.621094 L 24.871094 38.722656 L 22.769531 38.722656 Z M 22.769531 36.621094 "/></clipPath><clipPath id="801bdae22c"><path d="M 23.8125 36.644531 C 24.382812 36.644531 24.835938 37.097656 24.835938 37.667969 C 24.835938 38.238281 24.382812 38.699219 23.8125 38.699219 C 23.242188 38.699219 22.785156 38.238281 22.785156 37.671875 C 22.785156 37.105469 23.242188 36.648438 23.8125 36.648438 "/></clipPath><clipPath id="012614f292"><path d="M 28.246094 38.421875 L 30.046875 38.421875 L 30.046875 40.523438 L 28.246094 40.523438 Z M 28.246094 38.421875 "/></clipPath><clipPath id="20a63a3d66"><path d="M 29.226562 38.46875 L 30.03125 40.199219 C 30.007812 40.214844 29.984375 40.230469 29.964844 40.25 C 29.628906 40.5625 29.136719 40.613281 28.746094 40.371094 C 28.359375 40.132812 28.175781 39.660156 28.300781 39.21875 C 28.421875 38.792969 28.792969 38.496094 29.226562 38.472656 "/></clipPath><clipPath id="19f5f15ce1"><path d="M 20 41.199219 L 21.191406 41.199219 L 21.191406 42.398438 L 20 42.398438 Z M 20 41.199219 "/></clipPath><clipPath id="70efadc5ef"><path d="M 20.617188 41.207031 C 20.9375 41.207031 21.191406 41.457031 21.191406 41.777344 C 21.191406 42.097656 20.9375 42.347656 20.617188 42.347656 C 20.296875 42.347656 20.046875 42.097656 20.046875 41.777344 C 20.046875 41.457031 20.296875 41.207031 20.617188 41.207031 "/></clipPath><clipPath id="f33848ecce"><path d="M 22.769531 25.667969 L 25.769531 25.667969 L 25.769531 28.667969 L 22.769531 28.667969 Z M 22.769531 25.667969 "/></clipPath><clipPath id="1d38561f8a"><path d="M 24.269531 25.683594 C 25.09375 25.683594 25.753906 26.34375 25.753906 27.167969 C 25.753906 27.988281 25.09375 28.648438 24.269531 28.648438 C 23.449219 28.648438 22.785156 27.988281 22.785156 27.167969 C 22.785156 26.34375 23.449219 25.683594 24.269531 25.683594 "/></clipPath><clipPath id="7885767b6c"><path d="M 17.308594 43.035156 L 31.234375 43.035156 L 31.234375 44.632812 L 17.308594 44.632812 Z M 17.308594 43.035156 "/></clipPath><clipPath id="8da3658a72"><path d="M 23.894531 25.667969 L 25.769531 25.667969 L 25.769531 28.667969 L 23.894531 28.667969 Z M 23.894531 25.667969 "/></clipPath><clipPath id="a082bb1343"><path d="M 24.269531 25.683594 C 24.160156 25.683594 24.058594 25.695312 23.957031 25.71875 C 24.625 25.859375 25.128906 26.449219 25.128906 27.167969 C 25.128906 27.882812 24.628906 28.472656 23.957031 28.613281 C 24.058594 28.632812 24.164062 28.648438 24.269531 28.648438 C 25.09375 28.648438 25.753906 27.988281 25.753906 27.167969 C 25.753906 26.34375 25.09375 25.683594 24.269531 25.683594 Z M 24.269531 25.683594 "/></clipPath><clipPath id="4bea2a4bf0"><path d="M 24.269531 29.195312 L 28.996094 29.195312 L 28.996094 41.199219 L 24.269531 41.199219 Z M 24.269531 29.195312 "/></clipPath><clipPath id="cbaac15157"><path d="M 24.910156 29.226562 C 24.726562 29.285156 24.53125 29.320312 24.332031 29.328125 L 28.296875 37.820312 C 27.691406 37.953125 27.191406 38.40625 27.011719 39.027344 C 26.804688 39.761719 27.113281 40.546875 27.757812 40.953125 C 28.125 41.179688 28.554688 41.246094 28.957031 41.167969 C 28.757812 41.132812 28.5625 41.0625 28.386719 40.953125 C 27.742188 40.546875 27.4375 39.761719 27.644531 39.027344 C 27.816406 38.40625 28.320312 37.953125 28.925781 37.820312 Z M 24.910156 29.226562 "/></clipPath><clipPath id="21218f89f0"><path d="M 18.714844 40.449219 L 20.367188 40.449219 L 20.367188 42.398438 L 18.714844 42.398438 Z M 18.714844 40.449219 "/></clipPath><clipPath id="bc6c6fdafa"><path d="M 19.988281 40.519531 C 19.300781 40.519531 18.730469 41.089844 18.730469 41.777344 C 18.730469 41.984375 18.785156 42.175781 18.875 42.347656 L 19.503906 42.347656 C 19.414062 42.175781 19.359375 41.984375 19.359375 41.777344 C 19.359375 41.199219 19.761719 40.710938 20.300781 40.566406 C 20.199219 40.539062 20.097656 40.519531 19.988281 40.519531 Z M 19.988281 40.519531 "/></clipPath><clipPath id="cb38600b08"><path d="M 29.820312 40.824219 L 31.097656 40.824219 L 31.097656 42.398438 L 29.820312 42.398438 Z M 29.820312 40.824219 "/></clipPath><clipPath id="5d435a79a0"><path d="M 30.328125 40.835938 C 30.175781 40.957031 30.003906 41.046875 29.828125 41.109375 L 30.40625 42.347656 L 31.035156 42.347656 Z M 30.328125 40.835938 "/></clipPath><clipPath id="d94dc5fe45"><path d="M 30.601562 43.035156 L 31.230469 43.035156 L 31.230469 44.632812 L 30.601562 44.632812 Z M 30.601562 43.035156 "/></clipPath><clipPath id="f5ad5db58d"><path d="M 46.761719 33.984375 L 49.992188 33.984375 L 49.992188 37.214844 L 46.761719 37.214844 Z M 46.761719 33.984375 "/></clipPath><clipPath id="9330e8779f"><path d="M 49.992188 35.597656 C 49.992188 36.488281 49.265625 37.210938 48.378906 37.210938 C 47.488281 37.210938 46.761719 36.488281 46.761719 35.597656 C 46.761719 34.707031 47.484375 33.984375 48.375 33.984375 C 49.261719 33.984375 49.992188 34.710938 49.992188 35.597656 "/></clipPath><clipPath id="a22ec8ebde"><path d="M 47.085938 67.742188 L 50.3125 67.742188 L 50.3125 70.972656 L 47.085938 70.972656 Z M 47.085938 67.742188 "/></clipPath><clipPath id="30e19d91a1"><path d="M 50.3125 69.355469 C 50.3125 70.246094 49.589844 70.964844 48.703125 70.964844 C 47.8125 70.964844 47.085938 70.246094 47.085938 69.355469 C 47.085938 68.460938 47.808594 67.742188 48.699219 67.742188 C 49.585938 67.742188 50.3125 68.464844 50.3125 69.355469 "/></clipPath><clipPath id="c76cf679ec"><path d="M 47.085938 101.671875 L 50.3125 101.671875 L 50.3125 104.902344 L 47.085938 104.902344 Z M 47.085938 101.671875 "/></clipPath><clipPath id="389900a95b"><path d="M 50.3125 103.285156 C 50.3125 104.175781 49.589844 104.898438 48.703125 104.898438 C 47.8125 104.898438 47.085938 104.175781 47.085938 103.285156 C 47.085938 102.390625 47.808594 101.671875 48.699219 101.671875 C 49.585938 101.671875 50.3125 102.394531 50.3125 103.285156 "/></clipPath><clipPath id="1c550697b7"><path d="M 47.085938 131.859375 L 50.3125 131.859375 L 50.3125 135.089844 L 47.085938 135.089844 Z M 47.085938 131.859375 "/></clipPath><clipPath id="1ffb4b9f6f"><path d="M 50.3125 133.472656 C 50.3125 134.363281 49.589844 135.085938 48.703125 135.085938 C 47.8125 135.085938 47.085938 134.363281 47.085938 133.472656 C 47.085938 132.578125 47.808594 131.859375 48.699219 131.859375 C 49.585938 131.859375 50.3125 132.582031 50.3125 133.472656 "/></clipPath><clipPath id="f0dbdb3aa4"><path d="M 247.570312 35.25 L 250.800781 35.25 L 250.800781 38.480469 L 247.570312 38.480469 Z M 247.570312 35.25 "/></clipPath><clipPath id="7a4731fade"><path d="M 250.800781 36.863281 C 250.800781 37.757812 250.078125 38.476562 249.1875 38.476562 C 248.300781 38.476562 247.570312 37.757812 247.570312 36.863281 C 247.570312 35.972656 248.296875 35.25 249.183594 35.25 C 250.074219 35.25 250.800781 35.976562 250.800781 36.863281 "/></clipPath><clipPath id="0940cea173"><path d="M 247.894531 69.007812 L 251.125 69.007812 L 251.125 72.238281 L 247.894531 72.238281 Z M 247.894531 69.007812 "/></clipPath><clipPath id="56ed157dea"><path d="M 251.125 70.621094 C 251.125 71.511719 250.398438 72.234375 249.511719 72.234375 C 248.625 72.234375 247.894531 71.511719 247.894531 70.621094 C 247.894531 69.726562 248.621094 69.007812 249.507812 69.007812 C 250.394531 69.007812 251.125 69.730469 251.125 70.621094 "/></clipPath><clipPath id="cf1079f679"><path d="M 247.894531 102.9375 L 251.125 102.9375 L 251.125 106.167969 L 247.894531 106.167969 Z M 247.894531 102.9375 "/></clipPath><clipPath id="e5764d8b36"><path d="M 251.125 104.550781 C 251.125 105.441406 250.398438 106.164062 249.511719 106.164062 C 248.625 106.164062 247.894531 105.441406 247.894531 104.550781 C 247.894531 103.65625 248.621094 102.9375 249.507812 102.9375 C 250.394531 102.9375 251.125 103.660156 251.125 104.550781 "/></clipPath><clipPath id="23d83d58d0"><path d="M 247.894531 133.125 L 251.125 133.125 L 251.125 136.355469 L 247.894531 136.355469 Z M 247.894531 133.125 "/></clipPath><clipPath id="500c48546a"><path d="M 251.125 134.738281 C 251.125 135.628906 250.398438 136.351562 249.511719 136.351562 C 248.625 136.351562 247.894531 135.628906 247.894531 134.738281 C 247.894531 133.84375 248.621094 133.125 249.507812 133.125 C 250.394531 133.125 251.125 133.847656 251.125 134.738281 "/></clipPath><clipPath id="e615eb36f9"><path d="M 255.34375 125.0625 L 301.425781 125.0625 L 301.425781 142.914062 L 255.34375 142.914062 Z M 255.34375 125.0625 "/></clipPath><clipPath id="e8c223fef9"><path d="M 255.132812 124.855469 L 301.632812 124.855469 L 301.632812 125.269531 L 255.132812 125.269531 Z M 301.21875 125.269531 L 301.632812 125.269531 L 301.632812 142.707031 L 301.21875 142.707031 Z M 255.132812 125.269531 L 255.550781 125.269531 L 255.550781 142.707031 L 255.132812 142.707031 Z M 255.132812 142.707031 L 301.632812 142.707031 L 301.632812 143.121094 L 255.132812 143.121094 Z M 255.132812 142.707031 "/></clipPath><clipPath id="31f0f42780"><path d="M 266.210938 60.441406 L 286.5625 60.441406 L 286.5625 78.03125 L 266.210938 78.03125 Z M 266.210938 60.441406 "/></clipPath><clipPath id="f1e1affd3d"><path d="M 276.414062 60.484375 L 266.285156 78.023438 L 286.539062 78.023438 Z M 276.414062 60.484375 "/></clipPath><clipPath id="f69e87c564"><path d="M 265.867188 60.007812 L 286.90625 60.007812 L 286.90625 78.289062 L 265.867188 78.289062 Z M 265.867188 60.007812 "/></clipPath><clipPath id="98795e4853"><path d="M 276.59375 60.585938 L 266.46875 78.125 L 266.285156 78.023438 L 266.285156 77.816406 L 286.539062 77.816406 L 286.539062 78.023438 L 286.359375 78.125 L 276.230469 60.585938 L 276.414062 60.484375 L 276.59375 60.585938 M 276.230469 60.378906 L 276.414062 60.070312 L 276.59375 60.378906 L 286.71875 77.917969 L 286.898438 78.226562 L 265.925781 78.226562 L 266.105469 77.917969 Z M 276.230469 60.378906 "/></clipPath><clipPath id="e27da9c428"><path d="M 266.457031 94.03125 L 287.265625 94.03125 L 287.265625 114.839844 L 266.457031 114.839844 Z M 266.457031 94.03125 "/></clipPath><clipPath id="022bd9a719"><path d="M 276.859375 114.835938 C 271.125 114.835938 266.460938 110.171875 266.460938 104.4375 C 266.460938 98.703125 271.125 94.035156 276.859375 94.035156 C 282.59375 94.035156 287.261719 98.703125 287.261719 104.4375 C 287.261719 110.171875 282.59375 114.835938 276.859375 114.835938 "/></clipPath><clipPath id="41045e7d02"><path d="M 266.160156 93.738281 L 287.558594 93.738281 L 287.558594 115.136719 L 266.160156 115.136719 Z M 266.160156 93.738281 "/></clipPath><clipPath id="8cb3d87e6d"><path d="M 276.859375 93.828125 C 271.011719 93.828125 266.253906 98.589844 266.253906 104.4375 C 266.253906 110.285156 271.011719 115.042969 276.859375 115.042969 C 282.707031 115.042969 287.46875 110.285156 287.46875 104.4375 C 287.46875 98.589844 282.707031 93.828125 276.859375 93.828125 M 276.859375 94.242188 C 282.488281 94.242188 287.050781 98.808594 287.050781 104.4375 C 287.050781 110.066406 282.488281 114.628906 276.859375 114.628906 C 271.230469 114.628906 266.667969 110.066406 266.667969 104.4375 C 266.667969 98.808594 271.230469 94.242188 276.859375 94.242188 "/></clipPath><clipPath id="ad1c5e75dc"><path d="M 267.277344 26.523438 L 286.691406 26.523438 L 286.691406 45.9375 L 267.277344 45.9375 Z M 267.277344 26.523438 "/></clipPath><clipPath id="d014945be0"><path d="M 267.070312 26.316406 L 286.898438 26.316406 L 286.898438 26.730469 L 267.070312 26.730469 Z M 286.480469 26.730469 L 286.898438 26.730469 L 286.898438 45.726562 L 286.480469 45.726562 Z M 267.070312 26.730469 L 267.484375 26.730469 L 267.484375 45.726562 L 267.070312 45.726562 Z M 267.070312 45.726562 L 286.898438 45.726562 L 286.898438 46.144531 L 267.070312 46.144531 Z M 267.070312 45.726562 "/></clipPath></defs><g id="633d9c031f"><g clip-rule="nonzero" clip-path="url(#41cc18d468)"><path style=" stroke:none;fill-rule:nonzero;fill:#ffffff;fill-opacity:1;" d="M 0.683594 0 L 311.316406 0 L 311.316406 169.503906 L 0.683594 169.503906 Z M 0.683594 0 "/><path style=" stroke:none;fill-rule:nonzero;fill:#ffffff;fill-opacity:1;" d="M 0.683594 0 L 311.503906 0 L 311.503906 169.605469 L 0.683594 169.605469 Z M 0.683594 0 "/></g><g clip-rule="nonzero" clip-path="url(#e49b2763bb)"><g clip-rule="nonzero" clip-path="url(#33fab8cce4)"><path style=" stroke:none;fill-rule:nonzero;fill:#fed0a2;fill-opacity:1;" d="M 12.988281 90.222656 L 37.222656 90.222656 L 37.222656 114.453125 L 12.988281 114.453125 Z M 12.988281 90.222656 "/></g></g><g clip-rule="nonzero" clip-path="url(#6ca4447ec5)"><path style=" stroke:none;fill-rule:nonzero;fill:#edf5f7;fill-opacity:1;" d="M 12.988281 90.222656 L 37.222656 90.222656 L 37.222656 114.453125 L 12.988281 114.453125 Z M 12.988281 90.222656 "/></g><g clip-rule="nonzero" clip-path="url(#6add81c35e)"><g clip-rule="nonzero" clip-path="url(#5cad8ce193)"><path style=" stroke:none;fill-rule:nonzero;fill:#6dc387;fill-opacity:1;" d="M 12.988281 90.222656 L 37.222656 90.222656 L 37.222656 114.453125 L 12.988281 114.453125 Z M 12.988281 90.222656 "/></g></g><g clip-rule="nonzero" clip-path="url(#139a0901ad)"><g clip-rule="nonzero" clip-path="url(#121e52d6d8)"><path style=" stroke:none;fill-rule:nonzero;fill:#ffe17a;fill-opacity:1;" d="M 12.988281 90.222656 L 37.222656 90.222656 L 37.222656 114.453125 L 12.988281 114.453125 Z M 12.988281 90.222656 "/></g></g><g clip-rule="nonzero" clip-path="url(#d7bcdbfc85)"><g clip-rule="nonzero" clip-path="url(#d97fa058a1)"><path style=" stroke:none;fill-rule:nonzero;fill:#515760;fill-opacity:1;" d="M 12.988281 90.222656 L 37.222656 90.222656 L 37.222656 114.453125 L 12.988281 114.453125 Z M 12.988281 90.222656 "/></g></g><g clip-rule="nonzero" clip-path="url(#1d89a432f9)"><g clip-rule="nonzero" clip-path="url(#ed13882628)"><path style=" stroke:none;fill-rule:nonzero;fill:#fdb959;fill-opacity:1;" d="M 12.476562 63.578125 L 36.71875 63.578125 L 36.71875 73.128906 L 12.476562 73.128906 Z M 12.476562 63.578125 "/></g></g><g clip-rule="nonzero" clip-path="url(#a5495aa9d9)"><g clip-rule="nonzero" clip-path="url(#cb58ee5599)"><path style=" stroke:none;fill-rule:nonzero;fill:#603a16;fill-opacity:1;" d="M 12.476562 63.578125 L 36.71875 63.578125 L 36.71875 73.128906 L 12.476562 73.128906 Z M 12.476562 63.578125 "/></g></g><g clip-rule="nonzero" clip-path="url(#b08f39c6f1)"><g clip-rule="nonzero" clip-path="url(#638ebf7999)"><path style=" stroke:none;fill-rule:nonzero;fill:#603a16;fill-opacity:1;" d="M 12.476562 63.578125 L 36.71875 63.578125 L 36.71875 73.128906 L 12.476562 73.128906 Z M 12.476562 63.578125 "/></g></g><g clip-rule="nonzero" clip-path="url(#f06de8557f)"><g clip-rule="nonzero" clip-path="url(#e33c403124)"><path style=" stroke:none;fill-rule:nonzero;fill:#67ad9c;fill-opacity:1;" d="M 12.34375 118.570312 L 36.574219 118.570312 L 36.574219 142.800781 L 12.34375 142.800781 Z M 12.34375 118.570312 "/></g></g><g clip-rule="nonzero" clip-path="url(#930612bb0f)"><g clip-rule="nonzero" clip-path="url(#baad786da9)"><path style=" stroke:none;fill-rule:nonzero;fill:#211d1c;fill-opacity:1;" d="M 12.34375 118.570312 L 36.574219 118.570312 L 36.574219 142.800781 L 12.34375 142.800781 Z M 12.34375 118.570312 "/></g></g><g clip-rule="nonzero" clip-path="url(#5d036eda1d)"><g clip-rule="nonzero" clip-path="url(#44fddc405f)"><path style=" stroke:none;fill-rule:nonzero;fill:#e1e0a6;fill-opacity:1;" d="M 12.34375 118.570312 L 36.574219 118.570312 L 36.574219 142.800781 L 12.34375 142.800781 Z M 12.34375 118.570312 "/></g></g><g clip-rule="nonzero" clip-path="url(#618ff820b0)"><g clip-rule="nonzero" clip-path="url(#d68dfbccd6)"><path style=" stroke:none;fill-rule:nonzero;fill:#211d1c;fill-opacity:1;" d="M 12.34375 118.570312 L 36.574219 118.570312 L 36.574219 142.800781 L 12.34375 142.800781 Z M 12.34375 118.570312 "/></g></g><g clip-rule="nonzero" clip-path="url(#8b5f06d649)"><g clip-rule="nonzero" clip-path="url(#ceb447a1f5)"><path style=" stroke:none;fill-rule:nonzero;fill:#211d1c;fill-opacity:1;" d="M 12.34375 118.570312 L 36.574219 118.570312 L 36.574219 142.800781 L 12.34375 142.800781 Z M 12.34375 118.570312 "/></g></g><g clip-rule="nonzero" clip-path="url(#be96d4460c)"><g clip-rule="nonzero" clip-path="url(#ecec4c3aa7)"><path style=" stroke:none;fill-rule:nonzero;fill:#211d1c;fill-opacity:1;" d="M 12.34375 118.570312 L 36.574219 118.570312 L 36.574219 142.800781 L 12.34375 142.800781 Z M 12.34375 118.570312 "/></g></g><g clip-rule="nonzero" clip-path="url(#1de2080c14)"><path style=" stroke:none;fill-rule:nonzero;fill:#211d1c;fill-opacity:1;" d="M 12.34375 118.570312 L 36.574219 118.570312 L 36.574219 142.800781 L 12.34375 142.800781 Z M 12.34375 118.570312 "/></g><g clip-rule="nonzero" clip-path="url(#664ba45562)"><g clip-rule="nonzero" clip-path="url(#a77325aa23)"><path style=" stroke:none;fill-rule:nonzero;fill:#bc3526;fill-opacity:1;" d="M 12.34375 118.570312 L 36.574219 118.570312 L 36.574219 142.800781 L 12.34375 142.800781 Z M 12.34375 118.570312 "/></g></g><g clip-rule="nonzero" clip-path="url(#05605fc16e)"><g clip-rule="nonzero" clip-path="url(#29540d6ed9)"><path style=" stroke:none;fill-rule:nonzero;fill:#3b322d;fill-opacity:1;" d="M 14.664062 23.042969 L 33.875 23.042969 L 33.875 47.277344 L 14.664062 47.277344 Z M 14.664062 23.042969 "/></g></g><g clip-rule="nonzero" clip-path="url(#d49335f4df)"><g clip-rule="nonzero" clip-path="url(#81a9f44ddb)"><path style=" stroke:none;fill-rule:nonzero;fill:#58c2ad;fill-opacity:1;" d="M 14.664062 23.042969 L 33.875 23.042969 L 33.875 47.277344 L 14.664062 47.277344 Z M 14.664062 23.042969 "/></g></g><g clip-rule="nonzero" clip-path="url(#f07b1f5a7c)"><g clip-rule="nonzero" clip-path="url(#c212fb2eb9)"><path style=" stroke:none;fill-rule:nonzero;fill:#3b322d;fill-opacity:1;" d="M 14.664062 23.042969 L 33.875 23.042969 L 33.875 47.277344 L 14.664062 47.277344 Z M 14.664062 23.042969 "/></g></g><g clip-rule="nonzero" clip-path="url(#51890bed90)"><g clip-rule="nonzero" clip-path="url(#9e5c255406)"><path style=" stroke:none;fill-rule:nonzero;fill:#fbd119;fill-opacity:1;" d="M 14.664062 23.042969 L 33.875 23.042969 L 33.875 47.277344 L 14.664062 47.277344 Z M 14.664062 23.042969 "/></g></g><g clip-rule="nonzero" clip-path="url(#02f4c6ba2c)"><g clip-rule="nonzero" clip-path="url(#5c872f023d)"><path style=" stroke:none;fill-rule:nonzero;fill:#3b322d;fill-opacity:1;" d="M 14.664062 23.042969 L 33.875 23.042969 L 33.875 47.277344 L 14.664062 47.277344 Z M 14.664062 23.042969 "/></g></g><g clip-rule="nonzero" clip-path="url(#2f7323245c)"><g clip-rule="nonzero" clip-path="url(#801bdae22c)"><path style=" stroke:none;fill-rule:nonzero;fill:#fbd119;fill-opacity:1;" d="M 14.664062 23.042969 L 33.875 23.042969 L 33.875 47.277344 L 14.664062 47.277344 Z M 14.664062 23.042969 "/></g></g><g clip-rule="nonzero" clip-path="url(#012614f292)"><g clip-rule="nonzero" clip-path="url(#20a63a3d66)"><path style=" stroke:none;fill-rule:nonzero;fill:#fbd119;fill-opacity:1;" d="M 14.664062 23.042969 L 33.875 23.042969 L 33.875 47.277344 L 14.664062 47.277344 Z M 14.664062 23.042969 "/></g></g><g clip-rule="nonzero" clip-path="url(#19f5f15ce1)"><g clip-rule="nonzero" clip-path="url(#70efadc5ef)"><path style=" stroke:none;fill-rule:nonzero;fill:#fbd119;fill-opacity:1;" d="M 14.664062 23.042969 L 33.875 23.042969 L 33.875 47.277344 L 14.664062 47.277344 Z M 14.664062 23.042969 "/></g></g><g clip-rule="nonzero" clip-path="url(#f33848ecce)"><g clip-rule="nonzero" clip-path="url(#1d38561f8a)"><path style=" stroke:none;fill-rule:nonzero;fill:#f19f4c;fill-opacity:1;" d="M 14.664062 23.042969 L 33.875 23.042969 L 33.875 47.277344 L 14.664062 47.277344 Z M 14.664062 23.042969 "/></g></g><g clip-rule="nonzero" clip-path="url(#7885767b6c)"><path style=" stroke:none;fill-rule:nonzero;fill:#f19f4c;fill-opacity:1;" d="M 14.664062 23.042969 L 33.875 23.042969 L 33.875 47.277344 L 14.664062 47.277344 Z M 14.664062 23.042969 "/></g><g clip-rule="nonzero" clip-path="url(#8da3658a72)"><g clip-rule="nonzero" clip-path="url(#a082bb1343)"><path style=" stroke:none;fill-rule:nonzero;fill:#c2803b;fill-opacity:1;" d="M 14.664062 23.042969 L 33.875 23.042969 L 33.875 47.277344 L 14.664062 47.277344 Z M 14.664062 23.042969 "/></g></g><g clip-rule="nonzero" clip-path="url(#4bea2a4bf0)"><g clip-rule="nonzero" clip-path="url(#cbaac15157)"><path style=" stroke:none;fill-rule:nonzero;fill:#29ad93;fill-opacity:1;" d="M 14.664062 23.042969 L 33.875 23.042969 L 33.875 47.277344 L 14.664062 47.277344 Z M 14.664062 23.042969 "/></g></g><g clip-rule="nonzero" clip-path="url(#21218f89f0)"><g clip-rule="nonzero" clip-path="url(#bc6c6fdafa)"><path style=" stroke:none;fill-rule:nonzero;fill:#29ad93;fill-opacity:1;" d="M 14.664062 23.042969 L 33.875 23.042969 L 33.875 47.277344 L 14.664062 47.277344 Z M 14.664062 23.042969 "/></g></g><g clip-rule="nonzero" clip-path="url(#cb38600b08)"><g clip-rule="nonzero" clip-path="url(#5d435a79a0)"><path style=" stroke:none;fill-rule:nonzero;fill:#29ad93;fill-opacity:1;" d="M 14.664062 23.042969 L 33.875 23.042969 L 33.875 47.277344 L 14.664062 47.277344 Z M 14.664062 23.042969 "/></g></g><g clip-rule="nonzero" clip-path="url(#d94dc5fe45)"><path style=" stroke:none;fill-rule:nonzero;fill:#c2803b;fill-opacity:1;" d="M 14.664062 23.042969 L 33.875 23.042969 L 33.875 47.277344 L 14.664062 47.277344 Z M 14.664062 23.042969 "/></g><g clip-rule="nonzero" clip-path="url(#f5ad5db58d)"><g clip-rule="nonzero" clip-path="url(#9330e8779f)"><path style=" stroke:none;fill-rule:nonzero;fill:#00a64d;fill-opacity:1;" d="M 46.761719 33.984375 L 49.992188 33.984375 L 49.992188 37.214844 L 46.761719 37.214844 Z M 46.761719 33.984375 "/></g></g><g clip-rule="nonzero" clip-path="url(#a22ec8ebde)"><g clip-rule="nonzero" clip-path="url(#30e19d91a1)"><path style=" stroke:none;fill-rule:nonzero;fill:#00a64d;fill-opacity:1;" d="M 47.085938 67.742188 L 50.3125 67.742188 L 50.3125 70.972656 L 47.085938 70.972656 Z M 47.085938 67.742188 "/></g></g><g clip-rule="nonzero" clip-path="url(#c76cf679ec)"><g clip-rule="nonzero" clip-path="url(#389900a95b)"><path style=" stroke:none;fill-rule:nonzero;fill:#00a64d;fill-opacity:1;" d="M 47.085938 101.671875 L 50.3125 101.671875 L 50.3125 104.902344 L 47.085938 104.902344 Z M 47.085938 101.671875 "/></g></g><g clip-rule="nonzero" clip-path="url(#1c550697b7)"><g clip-rule="nonzero" clip-path="url(#1ffb4b9f6f)"><path style=" stroke:none;fill-rule:nonzero;fill:#00a64d;fill-opacity:1;" d="M 47.085938 131.859375 L 50.3125 131.859375 L 50.3125 135.089844 L 47.085938 135.089844 Z M 47.085938 131.859375 "/></g></g><g clip-rule="nonzero" clip-path="url(#f0dbdb3aa4)"><g clip-rule="nonzero" clip-path="url(#7a4731fade)"><path style=" stroke:none;fill-rule:nonzero;fill:#cd2028;fill-opacity:1;" d="M 247.570312 35.25 L 250.800781 35.25 L 250.800781 38.480469 L 247.570312 38.480469 Z M 247.570312 35.25 "/></g></g><g clip-rule="nonzero" clip-path="url(#0940cea173)"><g clip-rule="nonzero" clip-path="url(#56ed157dea)"><path style=" stroke:none;fill-rule:nonzero;fill:#cd2028;fill-opacity:1;" d="M 247.894531 69.007812 L 251.125 69.007812 L 251.125 72.238281 L 247.894531 72.238281 Z M 247.894531 69.007812 "/></g></g><g clip-rule="nonzero" clip-path="url(#cf1079f679)"><g clip-rule="nonzero" clip-path="url(#e5764d8b36)"><path style=" stroke:none;fill-rule:nonzero;fill:#cd2028;fill-opacity:1;" d="M 247.894531 102.9375 L 251.125 102.9375 L 251.125 106.167969 L 247.894531 106.167969 Z M 247.894531 102.9375 "/></g></g><g clip-rule="nonzero" clip-path="url(#23d83d58d0)"><g clip-rule="nonzero" clip-path="url(#500c48546a)"><path style=" stroke:none;fill-rule:nonzero;fill:#cd2028;fill-opacity:1;" d="M 247.894531 133.125 L 251.125 133.125 L 251.125 136.355469 L 247.894531 136.355469 Z M 247.894531 133.125 "/></g></g><g clip-rule="nonzero" clip-path="url(#e615eb36f9)"><path style=" stroke:none;fill-rule:nonzero;fill:#4dab47;fill-opacity:1;" d="M 253.175781 122.898438 L 303.601562 122.898438 L 303.601562 145.078125 L 253.175781 145.078125 Z M 253.175781 122.898438 "/></g><g clip-rule="nonzero" clip-path="url(#e8c223fef9)"><path style=" stroke:none;fill-rule:nonzero;fill:#231f20;fill-opacity:1;" d="M 253.175781 122.898438 L 303.601562 122.898438 L 303.601562 145.078125 L 253.175781 145.078125 Z M 253.175781 122.898438 "/></g><g clip-rule="nonzero" clip-path="url(#31f0f42780)"><g clip-rule="nonzero" clip-path="url(#f1e1affd3d)"><path style=" stroke:none;fill-rule:nonzero;fill:#4dab47;fill-opacity:1;" d="M 263.96875 58.113281 L 288.890625 58.113281 L 288.890625 80.1875 L 263.96875 80.1875 Z M 263.96875 58.113281 "/></g></g><g clip-rule="nonzero" clip-path="url(#f69e87c564)"><g clip-rule="nonzero" clip-path="url(#98795e4853)"><path style=" stroke:none;fill-rule:nonzero;fill:#231f20;fill-opacity:1;" d="M 263.96875 58.113281 L 288.890625 58.113281 L 288.890625 80.1875 L 263.96875 80.1875 Z M 263.96875 58.113281 "/></g></g><g clip-rule="nonzero" clip-path="url(#e27da9c428)"><g clip-rule="nonzero" clip-path="url(#022bd9a719)"><path style=" stroke:none;fill-rule:nonzero;fill:#4dab47;fill-opacity:1;" d="M 264.296875 91.871094 L 289.425781 91.871094 L 289.425781 117 L 264.296875 117 Z M 264.296875 91.871094 "/></g></g><g clip-rule="nonzero" clip-path="url(#41045e7d02)"><g clip-rule="nonzero" clip-path="url(#8cb3d87e6d)"><path style=" stroke:none;fill-rule:nonzero;fill:#231f20;fill-opacity:1;" d="M 264.296875 91.871094 L 289.425781 91.871094 L 289.425781 117 L 264.296875 117 Z M 264.296875 91.871094 "/></g></g><g clip-rule="nonzero" clip-path="url(#ad1c5e75dc)"><path style=" stroke:none;fill-rule:nonzero;fill:#4dab47;fill-opacity:1;" d="M 265.113281 24.359375 L 288.851562 24.359375 L 288.851562 48.097656 L 265.113281 48.097656 Z M 265.113281 24.359375 "/></g><g clip-rule="nonzero" clip-path="url(#d014945be0)"><path style=" stroke:none;fill-rule:nonzero;fill:#231f20;fill-opacity:1;" d="M 265.113281 24.359375 L 288.851562 24.359375 L 288.851562 48.097656 L 265.113281 48.097656 Z M 265.113281 24.359375 "/></g></g></svg>