<svg xmlns="http://www.w3.org/2000/svg" xmlns:xlink="http://www.w3.org/1999/xlink" width="600" zoomAndPan="magnify" viewBox="0 0 450 149.999998" height="200" preserveAspectRatio="xMidYMid meet" version="1.2"><defs><clipPath id="3b669c9a39"><path d="M 376.601562 29.578125 L 424.601562 29.578125 L 424.601562 85 L 376.601562 85 Z M 376.601562 29.578125 "/></clipPath><clipPath id="77938f409b"><path d="M 390 90 L 408 90 L 408 107.578125 L 390 107.578125 Z M 390 90 "/></clipPath></defs><g id="9ac7bcde96"><rect x="0" width="450" y="0" height="149.999998" style="fill:#ffffff;fill-opacity:1;stroke:none;"/><rect x="0" width="450" y="0" height="149.999998" style="fill:#ffffff;fill-opacity:1;stroke:none;"/><path style="fill-rule:nonzero;fill:#000000;fill-opacity:1;stroke-width:1;stroke-linecap:butt;stroke-linejoin:miter;stroke:#0c7b3b;stroke-opacity:1;stroke-miterlimit:4;" d="M 0.499995 0.999997 L 0.499995 199.000009 M 599.50003 0.999997 L 599.50003 199.000009 M -0.000005 0.499997 L 600.00003 0.499997 M -0.000005 199.500009 L 600.00003 199.500009 " transform="matrix(0.75,0,0,0.75,0.00000375,0.000002)"/><g style="fill:#0c7b3b;fill-opacity:1;"><g transform="translate(28.711203, 103.853082)"><path style="stroke:none" d="M 39.292969 -75.007812 L 4.449219 -30.066406 L 4.449219 -18.234375 L 33.324219 -18.234375 L 33.324219 0 L 49.714844 0 L 49.714844 -18.234375 L 54.707031 -18.234375 L 54.707031 -30.066406 L 49.714844 -30.066406 L 49.714844 -75.007812 Z M 33.324219 -30.066406 L 17.476562 -30.066406 L 33.324219 -50.257812 Z M 33.324219 -30.066406 "/></g></g><g style="fill:#0c7b3b;fill-opacity:1;"><g transform="translate(88.624717, 103.853082)"><path style="stroke:none" d=""/></g></g><g style="fill:#0c7b3b;fill-opacity:1;"><g transform="translate(118.798551, 103.853082)"><path style="stroke:none" d="M 24.640625 -64.152344 L 24.640625 -43.960938 L 4.449219 -43.960938 L 4.449219 -30.066406 L 24.640625 -30.066406 L 24.640625 -9.878906 L 38.644531 -9.878906 L 38.644531 -30.066406 L 58.832031 -30.066406 L 58.832031 -43.960938 L 38.644531 -43.960938 L 38.644531 -64.152344 Z M 24.640625 -64.152344 "/></g></g><g style="fill:#0c7b3b;fill-opacity:1;"><g transform="translate(182.076776, 103.853082)"><path style="stroke:none" d=""/></g></g><g style="fill:#0c7b3b;fill-opacity:1;"><g transform="translate(212.25061, 103.853082)"><path style="stroke:none" d="M 39.292969 -75.007812 L 4.449219 -30.066406 L 4.449219 -18.234375 L 33.324219 -18.234375 L 33.324219 0 L 49.714844 0 L 49.714844 -18.234375 L 54.707031 -18.234375 L 54.707031 -30.066406 L 49.714844 -30.066406 L 49.714844 -75.007812 Z M 33.324219 -30.066406 L 17.476562 -30.066406 L 33.324219 -50.257812 Z M 33.324219 -30.066406 "/></g></g><g style="fill:#0c7b3b;fill-opacity:1;"><g transform="translate(272.164123, 103.853082)"><path style="stroke:none" d=""/></g></g><g style="fill:#0c7b3b;fill-opacity:1;"><g transform="translate(302.337957, 103.853082)"><path style="stroke:none" d="M 4.449219 -55.792969 L 4.449219 -41.789062 L 58.832031 -41.789062 L 58.832031 -55.792969 Z M 4.449219 -32.238281 L 4.449219 -18.34375 L 58.832031 -18.34375 L 58.832031 -32.238281 Z M 4.449219 -32.238281 "/></g></g><g style="fill:#0c7b3b;fill-opacity:1;"><g transform="translate(365.625246, 103.853082)"><path style="stroke:none" d=""/></g></g><g clip-rule="nonzero" clip-path="url(#3b669c9a39)"><path style=" stroke:none;fill-rule:nonzero;fill:#000000;fill-opacity:1;" d="M 421.429688 38.625 C 419.367188 35.691406 416.519531 33.445312 412.890625 31.902344 C 409.277344 30.359375 405.101562 29.578125 400.375 29.578125 C 396.074219 29.578125 392.148438 30.34375 388.597656 31.871094 C 385.046875 33.382812 382.183594 35.707031 380.027344 38.78125 C 378.304688 41.230469 377.242188 44.195312 376.804688 47.675781 C 376.617188 49.1875 377.820312 50.527344 379.355469 50.527344 L 388.863281 50.527344 C 390.085938 50.527344 391.117188 49.671875 391.382812 48.484375 C 391.617188 47.425781 392.007812 46.472656 392.554688 45.660156 C 393.429688 44.351562 394.558594 43.351562 395.933594 42.683594 C 397.3125 42.011719 398.765625 41.667969 400.3125 41.667969 C 401.910156 41.667969 403.347656 41.996094 404.679688 42.667969 C 405.992188 43.320312 407.039062 44.273438 407.820312 45.503906 C 408.605469 46.738281 408.996094 48.15625 408.996094 49.796875 C 408.996094 51.339844 408.652344 52.726562 407.960938 53.960938 C 407.273438 55.191406 406.351562 56.332031 405.195312 57.347656 C 404.019531 58.375 402.722656 59.34375 401.253906 60.292969 C 399.28125 61.527344 397.59375 62.898438 396.199219 64.414062 C 394.792969 65.925781 393.746094 67.90625 393.007812 70.371094 C 392.289062 72.835938 391.914062 76.128906 391.898438 80.261719 L 391.898438 82.320312 C 391.898438 83.726562 393.039062 84.878906 394.464844 84.878906 L 402.832031 84.878906 C 404.238281 84.878906 405.398438 83.742188 405.398438 82.320312 L 405.398438 80.261719 C 405.429688 77.9375 405.726562 75.988281 406.304688 74.414062 C 406.882812 72.835938 407.773438 71.433594 408.964844 70.230469 C 410.167969 69.03125 411.699219 67.875 413.578125 66.753906 C 415.816406 65.425781 417.738281 63.945312 419.382812 62.292969 C 421.007812 60.652344 422.289062 58.75 423.214844 56.613281 C 424.121094 54.476562 424.589844 52.011719 424.589844 49.25 C 424.542969 45.101562 423.496094 41.558594 421.429688 38.625 Z M 421.429688 38.625 "/></g><g clip-rule="nonzero" clip-path="url(#77938f409b)"><path style=" stroke:none;fill-rule:nonzero;fill:#000000;fill-opacity:1;" d="M 398.90625 90.621094 C 396.527344 90.621094 394.511719 91.449219 392.835938 93.101562 C 391.164062 94.753906 390.335938 96.75 390.367188 99.058594 C 390.335938 101.398438 391.164062 103.414062 392.835938 105.082031 C 394.511719 106.75 396.527344 107.578125 398.90625 107.578125 C 400.421875 107.578125 401.832031 107.1875 403.097656 106.421875 C 404.378906 105.644531 405.414062 104.628906 406.210938 103.335938 C 407.007812 102.039062 407.414062 100.621094 407.429688 99.058594 C 407.398438 96.734375 406.539062 94.753906 404.835938 93.101562 C 403.144531 91.449219 401.160156 90.621094 398.90625 90.621094 Z M 398.90625 90.621094 "/></g></g></svg>