<svg xmlns="http://www.w3.org/2000/svg" xmlns:xlink="http://www.w3.org/1999/xlink" width="600" zoomAndPan="magnify" viewBox="0 0 450 149.999998" height="200" preserveAspectRatio="xMidYMid meet" version="1.2"><defs/><g id="c6d554a924"><rect x="0" width="450" y="0" height="149.999998" style="fill:#ffffff;fill-opacity:1;stroke:none;"/><rect x="0" width="450" y="0" height="149.999998" style="fill:#ffffff;fill-opacity:1;stroke:none;"/><path style="fill-rule:nonzero;fill:#000000;fill-opacity:1;stroke-width:1;stroke-linecap:butt;stroke-linejoin:miter;stroke:#0c7b3b;stroke-opacity:1;stroke-miterlimit:4;" d="M 0.499995 0.999997 L 0.499995 199.000009 M 599.50003 0.999997 L 599.50003 199.000009 M -0.000005 0.499997 L 600.00003 0.499997 M -0.000005 199.500009 L 600.00003 199.500009 " transform="matrix(0.75,0,0,0.75,0.00000375,0.000002)"/><g style="fill:#0c7b3b;fill-opacity:1;"><g transform="translate(33.821837, 97.930719)"><path style="stroke:none" d="M 18.878906 -65.878906 L 18.878906 0 L 33.75 0 L 33.75 -65.878906 Z M 18.878906 -65.878906 "/></g></g><g style="fill:#0c7b3b;fill-opacity:1;"><g transform="translate(139.844649, 97.930719)"><path style="stroke:none" d="M 24.214844 -65.878906 C 17.066406 -65.878906 11.917969 -63.402344 6.007812 -59.683594 L 6.007812 -46.050781 C 11.25 -51.101562 17.445312 -54.152344 21.640625 -54.152344 C 26.601562 -54.152344 30.414062 -49.863281 30.414062 -45 C 30.414062 -38.898438 27.171875 -31.558594 17.351562 -18.113281 C 12.488281 -11.535156 8.390625 -6.007812 5.148438 -1.90625 L 5.148438 0 L 48.148438 0 L 48.148438 -13.253906 L 27.171875 -13.253906 C 36.039062 -24.691406 37.753906 -27.742188 41.949219 -36.039062 C 43.855469 -39.949219 44.808594 -43.664062 44.808594 -47.667969 C 44.808594 -57.394531 38.421875 -65.878906 24.214844 -65.878906 Z M 24.214844 -65.878906 "/></g></g><g style="fill:#0c7b3b;fill-opacity:1;"><g transform="translate(254.696808, 97.930719)"><path style="stroke:none" d="M 26.125 -65.878906 C 13.917969 -65.878906 6.386719 -58.539062 6.386719 -48.242188 C 6.386719 -42.617188 8.582031 -37.945312 14.394531 -34.324219 C 8.105469 -31.75 4.578125 -25.644531 4.578125 -18.496094 C 4.578125 -7.054688 13.632812 0.859375 26.21875 0.859375 C 39.757812 0.859375 48.148438 -7.152344 48.148438 -18.589844 C 48.148438 -25.457031 44.714844 -31.367188 38.421875 -34.324219 C 44.523438 -37.851562 46.335938 -43.1875 46.335938 -48.433594 C 46.335938 -56.632812 39.757812 -65.878906 26.125 -65.878906 Z M 20.210938 -47.382812 C 20.210938 -52.53125 22.40625 -56.15625 26.3125 -56.15625 C 30.222656 -56.15625 32.414062 -53.105469 32.414062 -47.480469 C 32.414062 -41.664062 30.222656 -38.328125 26.410156 -38.328125 C 22.308594 -38.328125 20.210938 -42.234375 20.210938 -47.382812 Z M 33.464844 -18.589844 C 33.464844 -12.394531 30.699219 -8.484375 26.503906 -8.484375 C 22.308594 -8.484375 19.164062 -12.585938 19.164062 -18.878906 C 19.164062 -25.074219 21.832031 -29.078125 26.410156 -29.078125 C 30.699219 -29.078125 33.464844 -25.457031 33.464844 -18.589844 Z M 33.464844 -18.589844 "/></g></g><g style="fill:#0c7b3b;fill-opacity:1;"><g transform="translate(363.071816, 97.930719)"><path style="stroke:none" d="M 26.410156 -65.878906 C 14.871094 -65.878906 4.289062 -56.535156 4.289062 -32.511719 C 4.289062 -10.488281 12.964844 0.859375 26.601562 0.859375 C 39.949219 0.859375 48.335938 -11.058594 48.335938 -32.796875 C 48.335938 -57.488281 37.277344 -65.878906 26.410156 -65.878906 Z M 33.367188 -33.367188 C 33.367188 -15.636719 31.082031 -11.25 26.410156 -11.25 C 22.117188 -11.25 19.355469 -15.539062 19.355469 -32.511719 C 19.355469 -48.8125 21.738281 -53.675781 26.3125 -53.675781 C 31.652344 -53.675781 33.367188 -47.003906 33.367188 -33.367188 Z M 33.367188 -33.367188 "/></g></g></g></svg>