<svg xmlns="http://www.w3.org/2000/svg" xmlns:xlink="http://www.w3.org/1999/xlink" width="756" zoomAndPan="magnify" viewBox="0 0 567 141.750002" height="189" preserveAspectRatio="xMidYMid meet" version="1.2"><defs><clipPath id="47e211c277"><path d="M 0.5 0 L 566.5 0 L 566.5 141.5 L 0.5 141.5 Z M 0.5 0 "/></clipPath><clipPath id="7990a1ac95"><path d="M 227.914062 29.128906 L 316.890625 29.128906 L 316.890625 118.101562 L 227.914062 118.101562 Z M 227.914062 29.128906 "/></clipPath><clipPath id="dba9e66ea2"><path d="M 272.402344 118.078125 C 247.882812 118.078125 227.9375 98.132812 227.9375 73.613281 C 227.9375 49.097656 247.882812 29.148438 272.402344 29.148438 C 296.917969 29.148438 316.867188 49.097656 316.867188 73.613281 C 316.867188 98.132812 296.917969 118.078125 272.402344 118.078125 "/></clipPath><clipPath id="09671e12a1"><path d="M 227 28 L 318 28 L 318 119 L 227 119 Z M 227 28 "/></clipPath><clipPath id="04e1f2678b"><path d="M 272.402344 28.261719 C 247.398438 28.261719 227.050781 48.613281 227.050781 73.613281 C 227.050781 98.617188 247.398438 118.96875 272.402344 118.96875 C 297.40625 118.96875 317.753906 98.617188 317.753906 73.613281 C 317.753906 48.613281 297.40625 28.261719 272.402344 28.261719 M 272.402344 30.035156 C 296.46875 30.035156 315.980469 49.546875 315.980469 73.613281 C 315.980469 97.679688 296.46875 117.191406 272.402344 117.191406 C 248.335938 117.191406 228.824219 97.679688 228.824219 73.613281 C 228.824219 49.546875 248.335938 30.035156 272.402344 30.035156 "/></clipPath></defs><g id="91188ded31"><g clip-rule="nonzero" clip-path="url(#47e211c277)"><path style=" stroke:none;fill-rule:nonzero;fill:#ffffff;fill-opacity:1;" d="M 0.5 0 L 566.5 0 L 566.5 141.5 L 0.5 141.5 Z M 0.5 0 "/><path style=" stroke:none;fill-rule:nonzero;fill:#ffffff;fill-opacity:1;" d="M 0.5 0 L 566.5 0 L 566.5 141.5 L 0.5 141.5 Z M 0.5 0 "/></g><g clip-rule="nonzero" clip-path="url(#7990a1ac95)"><g clip-rule="nonzero" clip-path="url(#dba9e66ea2)"><path style=" stroke:none;fill-rule:nonzero;fill:#ffffff;fill-opacity:1;" d="M 218.679688 19.894531 L 326.121094 19.894531 L 326.121094 127.335938 L 218.679688 127.335938 Z M 218.679688 19.894531 "/></g></g><g clip-rule="nonzero" clip-path="url(#09671e12a1)"><g clip-rule="nonzero" clip-path="url(#04e1f2678b)"><path style=" stroke:none;fill-rule:nonzero;fill:#231f20;fill-opacity:1;" d="M 218.679688 19.894531 L 326.121094 19.894531 L 326.121094 127.335938 L 218.679688 127.335938 Z M 218.679688 19.894531 "/></g></g></g></svg>