<svg xmlns="http://www.w3.org/2000/svg" xmlns:xlink="http://www.w3.org/1999/xlink" width="600" zoomAndPan="magnify" viewBox="0 0 450 149.999998" height="200" preserveAspectRatio="xMidYMid meet" version="1.2"><defs><clipPath id="517e8b2f46"><path d="M 356.046875 34.082031 L 391.296875 34.082031 L 391.296875 75 L 356.046875 75 Z M 356.046875 34.082031 "/></clipPath><clipPath id="b6f5b20c2b"><path d="M 366 78 L 379 78 L 379 91.082031 L 366 91.082031 Z M 366 78 "/></clipPath></defs><g id="aa6ae04645"><rect x="0" width="450" y="0" height="149.999998" style="fill:#ffffff;fill-opacity:1;stroke:none;"/><rect x="0" width="450" y="0" height="149.999998" style="fill:#ffffff;fill-opacity:1;stroke:none;"/><path style="fill-rule:nonzero;fill:#000000;fill-opacity:1;stroke-width:1;stroke-linecap:butt;stroke-linejoin:miter;stroke:#0c7b3b;stroke-opacity:1;stroke-miterlimit:4;" d="M 0.499995 0.999997 L 0.499995 199.000009 M 599.50003 0.999997 L 599.50003 199.000009 M -0.000005 0.499997 L 600.00003 0.499997 M -0.000005 199.500009 L 600.00003 199.500009 " transform="matrix(0.75,0,0,0.75,0.00000375,0.000002)"/><g style="fill:#0c7b3b;fill-opacity:1;"><g transform="translate(58.769194, 88.816957)"><path style="stroke:none" d="M 15.835938 -55.273438 L 15.835938 0 L 28.316406 0 L 28.316406 -55.273438 Z M 15.835938 -55.273438 "/></g></g><g style="fill:#0c7b3b;fill-opacity:1;"><g transform="translate(102.919801, 88.816957)"><path style="stroke:none" d="M 21.917969 -55.273438 C 11.679688 -55.273438 5.359375 -49.113281 5.359375 -40.472656 C 5.359375 -35.753906 7.199219 -31.835938 12.078125 -28.796875 C 6.800781 -26.636719 3.839844 -21.515625 3.839844 -15.519531 C 3.839844 -5.917969 11.4375 0.71875 21.996094 0.71875 C 33.355469 0.71875 40.394531 -6 40.394531 -15.597656 C 40.394531 -21.355469 37.515625 -26.316406 32.234375 -28.796875 C 37.355469 -31.753906 38.875 -36.234375 38.875 -40.632812 C 38.875 -47.511719 33.355469 -55.273438 21.917969 -55.273438 Z M 16.957031 -39.753906 C 16.957031 -44.074219 18.796875 -47.113281 22.078125 -47.113281 C 25.355469 -47.113281 27.195312 -44.554688 27.195312 -39.835938 C 27.195312 -34.957031 25.355469 -32.15625 22.15625 -32.15625 C 18.71875 -32.15625 16.957031 -35.433594 16.957031 -39.753906 Z M 28.078125 -15.597656 C 28.078125 -10.398438 25.757812 -7.117188 22.238281 -7.117188 C 18.71875 -7.117188 16.078125 -10.558594 16.078125 -15.835938 C 16.078125 -21.039062 18.316406 -24.398438 22.15625 -24.398438 C 25.757812 -24.398438 28.078125 -21.355469 28.078125 -15.597656 Z M 28.078125 -15.597656 "/></g></g><g style="fill:#0c7b3b;fill-opacity:1;"><g transform="translate(147.070408, 88.816957)"><path style="stroke:none" d=""/></g></g><g style="fill:#0c7b3b;fill-opacity:1;"><g transform="translate(169.305678, 88.816957)"><path style="stroke:none" d="M 2.878906 -23.835938 L 2.878906 -13.199219 L 23.757812 -13.199219 L 23.757812 -23.835938 Z M 2.878906 -23.835938 "/></g></g><g style="fill:#0c7b3b;fill-opacity:1;"><g transform="translate(195.940016, 88.816957)"><path style="stroke:none" d=""/></g></g><g style="fill:#0c7b3b;fill-opacity:1;"><g transform="translate(218.175285, 88.816957)"><path style="stroke:none" d="M 20.957031 -55.273438 C 11.117188 -55.273438 2.800781 -47.511719 2.800781 -36.476562 C 2.800781 -26.875 9.597656 -19.199219 17.835938 -19.199219 C 19.199219 -19.199219 19.917969 -19.4375 21.355469 -19.757812 L 8.796875 0.71875 L 22.15625 0.71875 L 31.675781 -14.71875 C 36.636719 -22.796875 38.953125 -29.4375 38.953125 -36.875 C 38.953125 -47.914062 30.316406 -55.273438 20.957031 -55.273438 Z M 14.558594 -36.875 C 14.558594 -41.675781 17.117188 -45.035156 20.636719 -45.035156 C 24.238281 -45.035156 26.714844 -42.234375 26.714844 -36.875 C 26.714844 -32.15625 24.238281 -28.796875 20.636719 -28.796875 C 17.199219 -28.796875 14.558594 -31.835938 14.558594 -36.875 Z M 14.558594 -36.875 "/></g></g><g style="fill:#0c7b3b;fill-opacity:1;"><g transform="translate(262.325901, 88.816957)"><path style="stroke:none" d=""/></g></g><g style="fill:#0c7b3b;fill-opacity:1;"><g transform="translate(284.561153, 88.816957)"><path style="stroke:none" d="M 3.28125 -41.113281 L 3.28125 -30.796875 L 43.355469 -30.796875 L 43.355469 -41.113281 Z M 3.28125 -23.757812 L 3.28125 -13.519531 L 43.355469 -13.519531 L 43.355469 -23.757812 Z M 3.28125 -23.757812 "/></g></g><g style="fill:#0c7b3b;fill-opacity:1;"><g transform="translate(331.196872, 88.816957)"><path style="stroke:none" d=""/></g></g><g clip-rule="nonzero" clip-path="url(#517e8b2f46)"><path style=" stroke:none;fill-rule:nonzero;fill:#000000;fill-opacity:1;" d="M 388.964844 40.695312 C 387.449219 38.550781 385.359375 36.910156 382.695312 35.78125 C 380.042969 34.652344 376.972656 34.082031 373.503906 34.082031 C 370.347656 34.082031 367.464844 34.640625 364.855469 35.757812 C 362.25 36.863281 360.148438 38.5625 358.5625 40.808594 C 357.296875 42.597656 356.515625 44.765625 356.195312 47.304688 C 356.058594 48.414062 356.941406 49.390625 358.066406 49.390625 L 365.050781 49.390625 C 365.949219 49.390625 366.707031 48.765625 366.902344 47.898438 C 367.074219 47.125 367.359375 46.429688 367.761719 45.835938 C 368.40625 44.878906 369.234375 44.148438 370.242188 43.660156 C 371.253906 43.167969 372.324219 42.917969 373.460938 42.917969 C 374.632812 42.917969 375.6875 43.15625 376.664062 43.648438 C 377.628906 44.125 378.398438 44.820312 378.972656 45.722656 C 379.546875 46.621094 379.835938 47.660156 379.835938 48.855469 C 379.835938 49.984375 379.582031 51 379.078125 51.902344 C 378.570312 52.800781 377.894531 53.632812 377.042969 54.375 C 376.183594 55.125 375.226562 55.832031 374.148438 56.527344 C 372.703125 57.429688 371.460938 58.433594 370.4375 59.539062 C 369.40625 60.644531 368.636719 62.09375 368.09375 63.894531 C 367.566406 65.695312 367.292969 68.101562 367.28125 71.121094 L 367.28125 72.625 C 367.28125 73.652344 368.117188 74.496094 369.164062 74.496094 L 375.308594 74.496094 C 376.34375 74.496094 377.191406 73.664062 377.191406 72.625 L 377.191406 71.121094 C 377.214844 69.421875 377.433594 67.996094 377.859375 66.847656 C 378.285156 65.695312 378.9375 64.667969 379.8125 63.789062 C 380.695312 62.914062 381.820312 62.070312 383.199219 61.25 C 384.84375 60.28125 386.253906 59.195312 387.460938 57.988281 C 388.65625 56.792969 389.597656 55.398438 390.273438 53.839844 C 390.941406 52.277344 391.285156 50.476562 391.285156 48.457031 C 391.25 45.425781 390.480469 42.835938 388.964844 40.695312 Z M 388.964844 40.695312 "/></g><g clip-rule="nonzero" clip-path="url(#b6f5b20c2b)"><path style=" stroke:none;fill-rule:nonzero;fill:#000000;fill-opacity:1;" d="M 372.425781 78.691406 C 370.679688 78.691406 369.199219 79.292969 367.96875 80.503906 C 366.738281 81.710938 366.132812 83.171875 366.152344 84.859375 C 366.132812 86.566406 366.738281 88.039062 367.96875 89.257812 C 369.199219 90.476562 370.679688 91.082031 372.425781 91.082031 C 373.539062 91.082031 374.574219 90.796875 375.503906 90.238281 C 376.445312 89.667969 377.203125 88.929688 377.789062 87.980469 C 378.375 87.035156 378.675781 85.996094 378.6875 84.859375 C 378.664062 83.160156 378.03125 81.710938 376.777344 80.503906 C 375.539062 79.292969 374.078125 78.691406 372.425781 78.691406 Z M 372.425781 78.691406 "/></g></g></svg>