<svg xmlns="http://www.w3.org/2000/svg" xmlns:xlink="http://www.w3.org/1999/xlink" width="600" zoomAndPan="magnify" viewBox="0 0 450 149.999998" height="200" preserveAspectRatio="xMidYMid meet" version="1.2"><defs/><g id="7d0c04f792"><rect x="0" width="450" y="0" height="149.999998" style="fill:#ffffff;fill-opacity:1;stroke:none;"/><rect x="0" width="450" y="0" height="149.999998" style="fill:#ffffff;fill-opacity:1;stroke:none;"/><path style="fill-rule:nonzero;fill:#000000;fill-opacity:1;stroke-width:1;stroke-linecap:butt;stroke-linejoin:miter;stroke:#0c7b3b;stroke-opacity:1;stroke-miterlimit:4;" d="M 0.499995 0.999997 L 0.499995 199.000009 M 599.50003 0.999997 L 599.50003 199.000009 M -0.000005 0.499997 L 600.00003 0.499997 M -0.000005 199.500009 L 600.00003 199.500009 " transform="matrix(0.75,0,0,0.75,0.00000375,0.000002)"/><g style="fill:#0c7b3b;fill-opacity:1;"><g transform="translate(49.336547, 108.343273)"><path style="stroke:none" d="M 23.710938 -82.746094 L 23.710938 0 L 42.390625 0 L 42.390625 -82.746094 Z M 23.710938 -82.746094 "/></g></g><g style="fill:#0c7b3b;fill-opacity:1;"><g transform="translate(191.945381, 108.343273)"><path style="stroke:none" d="M 43.351562 -82.746094 L 4.910156 -33.171875 L 4.910156 -20.117188 L 36.761719 -20.117188 L 36.761719 0 L 54.847656 0 L 54.847656 -20.117188 L 60.355469 -20.117188 L 60.355469 -33.171875 L 54.847656 -33.171875 L 54.847656 -82.746094 Z M 36.761719 -33.171875 L 19.28125 -33.171875 L 36.761719 -55.445312 Z M 36.761719 -33.171875 "/></g></g><g style="fill:#0c7b3b;fill-opacity:1;"><g transform="translate(322.72025, 108.343273)"><path style="stroke:none" d="M 30.535156 -82.746094 L 16.40625 -59.875 C 7.902344 -46.105469 5.269531 -37.363281 5.269531 -27.542969 C 5.269531 -8.863281 18.203125 1.078125 32.691406 1.078125 C 48.140625 1.078125 59.394531 -11.136719 59.394531 -27.0625 C 59.394531 -40.953125 49.816406 -52.570312 36.523438 -52.570312 C 35.085938 -52.570312 34.128906 -52.449219 31.734375 -51.851562 L 50.65625 -82.746094 Z M 23.710938 -25.984375 C 23.710938 -33.890625 27.304688 -38.320312 32.453125 -38.320312 C 38.441406 -38.320312 41.792969 -32.929688 41.792969 -26.34375 C 41.792969 -19.519531 38.558594 -14.128906 32.691406 -14.128906 C 27.0625 -14.128906 23.710938 -18.5625 23.710938 -25.984375 Z M 23.710938 -25.984375 "/></g></g></g></svg>