<svg xmlns="http://www.w3.org/2000/svg" xmlns:xlink="http://www.w3.org/1999/xlink" width="600" zoomAndPan="magnify" viewBox="0 0 450 149.999998" height="200" preserveAspectRatio="xMidYMid meet" version="1.2"><defs><clipPath id="3986fbf556"><path d="M 337.25 43.707031 L 372.5 43.707031 L 372.5 85 L 337.25 85 Z M 337.25 43.707031 "/></clipPath><clipPath id="6e075b9e11"><path d="M 347 88 L 360 88 L 360 100.707031 L 347 100.707031 Z M 347 88 "/></clipPath></defs><g id="ea915b834c"><rect x="0" width="450" y="0" height="149.999998" style="fill:#ffffff;fill-opacity:1;stroke:none;"/><rect x="0" width="450" y="0" height="149.999998" style="fill:#ffffff;fill-opacity:1;stroke:none;"/><path style="fill-rule:nonzero;fill:#000000;fill-opacity:1;stroke-width:1;stroke-linecap:butt;stroke-linejoin:miter;stroke:#0c7b3b;stroke-opacity:1;stroke-miterlimit:4;" d="M 0.499995 0.999997 L 0.499995 199.000009 M 599.50003 0.999997 L 599.50003 199.000009 M -0.000005 0.499997 L 600.00003 0.499997 M -0.000005 199.500009 L 600.00003 199.500009 " transform="matrix(0.75,0,0,0.75,0.00000375,0.000002)"/><g style="fill:#0c7b3b;fill-opacity:1;"><g transform="translate(76.570809, 100.999945)"><path style="stroke:none" d="M 15.835938 -55.273438 L 15.835938 0 L 28.316406 0 L 28.316406 -55.273438 Z M 15.835938 -55.273438 "/></g></g><g style="fill:#0c7b3b;fill-opacity:1;"><g transform="translate(142.956685, 100.999945)"><path style="stroke:none" d="M 18.15625 -47.273438 L 18.15625 -32.394531 L 3.28125 -32.394531 L 3.28125 -22.15625 L 18.15625 -22.15625 L 18.15625 -7.277344 L 28.476562 -7.277344 L 28.476562 -22.15625 L 43.355469 -22.15625 L 43.355469 -32.394531 L 28.476562 -32.394531 L 28.476562 -47.273438 Z M 18.15625 -47.273438 "/></g></g><g style="fill:#0c7b3b;fill-opacity:1;"><g transform="translate(211.822037, 100.999945)"><path style="stroke:none" d="M 15.835938 -55.273438 L 15.835938 0 L 28.316406 0 L 28.316406 -55.273438 Z M 15.835938 -55.273438 "/></g></g><g style="fill:#0c7b3b;fill-opacity:1;"><g transform="translate(278.207914, 100.999945)"><path style="stroke:none" d="M 3.28125 -41.113281 L 3.28125 -30.796875 L 43.355469 -30.796875 L 43.355469 -41.113281 Z M 3.28125 -23.757812 L 3.28125 -13.519531 L 43.355469 -13.519531 L 43.355469 -23.757812 Z M 3.28125 -23.757812 "/></g></g><g clip-rule="nonzero" clip-path="url(#3986fbf556)"><path style=" stroke:none;fill-rule:nonzero;fill:#000000;fill-opacity:1;" d="M 370.167969 50.320312 C 368.652344 48.175781 366.5625 46.535156 363.898438 45.40625 C 361.242188 44.277344 358.175781 43.707031 354.707031 43.707031 C 351.550781 43.707031 348.667969 44.265625 346.058594 45.382812 C 343.453125 46.488281 341.347656 48.1875 339.765625 50.433594 C 338.5 52.222656 337.71875 54.390625 337.398438 56.933594 C 337.261719 58.039062 338.144531 59.019531 339.269531 59.019531 L 346.253906 59.019531 C 347.148438 59.019531 347.90625 58.390625 348.101562 57.523438 C 348.277344 56.75 348.5625 56.054688 348.964844 55.460938 C 349.609375 54.503906 350.433594 53.773438 351.445312 53.285156 C 352.457031 52.792969 353.523438 52.542969 354.660156 52.542969 C 355.832031 52.542969 356.890625 52.78125 357.867188 53.273438 C 358.832031 53.75 359.601562 54.449219 360.175781 55.347656 C 360.75 56.25 361.035156 57.285156 361.035156 58.484375 C 361.035156 59.613281 360.785156 60.625 360.277344 61.527344 C 359.773438 62.425781 359.097656 63.257812 358.246094 64 C 357.382812 64.753906 356.429688 65.460938 355.351562 66.15625 C 353.902344 67.054688 352.664062 68.058594 351.640625 69.164062 C 350.609375 70.269531 349.835938 71.71875 349.296875 73.519531 C 348.769531 75.320312 348.492188 77.726562 348.484375 80.746094 L 348.484375 82.25 C 348.484375 83.277344 349.320312 84.121094 350.367188 84.121094 L 356.511719 84.121094 C 357.546875 84.121094 358.394531 83.289062 358.394531 82.25 L 358.394531 80.746094 C 358.417969 79.046875 358.636719 77.625 359.0625 76.472656 C 359.484375 75.320312 360.140625 74.292969 361.015625 73.417969 C 361.898438 72.539062 363.023438 71.695312 364.402344 70.875 C 366.042969 69.90625 367.457031 68.824219 368.664062 67.613281 C 369.859375 66.417969 370.800781 65.027344 371.476562 63.464844 C 372.144531 61.902344 372.488281 60.101562 372.488281 58.082031 C 372.453125 55.050781 371.683594 52.464844 370.167969 50.320312 Z M 370.167969 50.320312 "/></g><g clip-rule="nonzero" clip-path="url(#6e075b9e11)"><path style=" stroke:none;fill-rule:nonzero;fill:#000000;fill-opacity:1;" d="M 353.628906 88.316406 C 351.882812 88.316406 350.402344 88.921875 349.171875 90.128906 C 347.941406 91.335938 347.332031 92.796875 347.355469 94.484375 C 347.332031 96.195312 347.941406 97.664062 349.171875 98.882812 C 350.402344 100.105469 351.882812 100.707031 353.628906 100.707031 C 354.742188 100.707031 355.777344 100.421875 356.707031 99.863281 C 357.648438 99.292969 358.40625 98.554688 358.992188 97.609375 C 359.578125 96.660156 359.875 95.625 359.886719 94.484375 C 359.867188 92.785156 359.234375 91.335938 357.980469 90.128906 C 356.742188 88.921875 355.28125 88.316406 353.628906 88.316406 Z M 353.628906 88.316406 "/></g></g></svg>