<svg xmlns="http://www.w3.org/2000/svg" xmlns:xlink="http://www.w3.org/1999/xlink" width="600" zoomAndPan="magnify" viewBox="0 0 450 149.999998" height="200" preserveAspectRatio="xMidYMid meet" version="1.2"><defs><clipPath id="c4b14e1c67"><path d="M 107 86 L 111 86 L 111 89.089844 L 107 89.089844 Z M 107 86 "/></clipPath><clipPath id="e06b3877eb"><path d="M 102.460938 68.089844 L 115.210938 68.089844 L 115.210938 84 L 102.460938 84 Z M 102.460938 68.089844 "/></clipPath><clipPath id="b2a20aecc1"><path d="M 102.460938 68.089844 L 115.210938 68.089844 L 115.210938 89.089844 L 102.460938 89.089844 Z M 102.460938 68.089844 "/></clipPath><clipPath id="c24ce59c88"><path d="M 309 86 L 313 86 L 313 89.089844 L 309 89.089844 Z M 309 86 "/></clipPath><clipPath id="c292927d95"><path d="M 305 68.089844 L 317.675781 68.089844 L 317.675781 84 L 305 84 Z M 305 68.089844 "/></clipPath><clipPath id="2b2d36c6f5"><path d="M 304.925781 68.089844 L 317.675781 68.089844 L 317.675781 89.089844 L 304.925781 89.089844 Z M 304.925781 68.089844 "/></clipPath></defs><g id="93fe111ab5"><rect x="0" width="450" y="0" height="149.999998" style="fill:#ffffff;fill-opacity:1;stroke:none;"/><rect x="0" width="450" y="0" height="149.999998" style="fill:#ffffff;fill-opacity:1;stroke:none;"/><path style="fill-rule:nonzero;fill:#000000;fill-opacity:1;stroke-width:1;stroke-linecap:butt;stroke-linejoin:miter;stroke:#0c7b3b;stroke-opacity:1;stroke-miterlimit:4;" d="M 0.499995 0.999997 L 0.499995 199.000009 M 599.50003 0.999997 L 599.50003 199.000009 M -0.000005 0.499997 L 600.00003 0.499997 M -0.000005 199.500009 L 600.00003 199.500009 " transform="matrix(0.75,0,0,0.75,0.00000375,0.000002)"/><g style="fill:#0c7b3b;fill-opacity:1;"><g transform="translate(28.52231, 90.823799)"><path style="stroke:none" d="M 11.929688 -31.46875 C 6.328125 -31.46875 1.59375 -27.050781 1.59375 -20.765625 C 1.59375 -15.300781 5.464844 -10.929688 10.15625 -10.929688 C 10.929688 -10.929688 11.339844 -11.066406 12.160156 -11.25 L 5.007812 0.410156 L 12.613281 0.410156 L 18.035156 -8.378906 C 20.855469 -12.980469 22.179688 -16.757812 22.179688 -20.992188 C 22.179688 -27.277344 17.257812 -31.46875 11.929688 -31.46875 Z M 8.289062 -20.992188 C 8.289062 -23.726562 9.746094 -25.640625 11.75 -25.640625 C 13.796875 -25.640625 15.210938 -24.046875 15.210938 -20.992188 C 15.210938 -18.308594 13.796875 -16.394531 11.75 -16.394531 C 9.792969 -16.394531 8.289062 -18.125 8.289062 -20.992188 Z M 8.289062 -20.992188 "/></g></g><g style="fill:#0c7b3b;fill-opacity:1;"><g transform="translate(53.659885, 90.823799)"><path style="stroke:none" d="M 11.613281 -31.46875 L 6.238281 -22.769531 C 3.003906 -17.53125 2.003906 -14.207031 2.003906 -10.472656 C 2.003906 -3.371094 6.921875 0.410156 12.433594 0.410156 C 18.308594 0.410156 22.585938 -4.234375 22.585938 -10.292969 C 22.585938 -15.574219 18.945312 -19.992188 13.890625 -19.992188 C 13.34375 -19.992188 12.980469 -19.945312 12.066406 -19.71875 L 19.261719 -31.46875 Z M 9.015625 -9.882812 C 9.015625 -12.886719 10.382812 -14.574219 12.339844 -14.574219 C 14.617188 -14.574219 15.894531 -12.523438 15.894531 -10.019531 C 15.894531 -7.421875 14.664062 -5.375 12.433594 -5.375 C 10.292969 -5.375 9.015625 -7.058594 9.015625 -9.882812 Z M 9.015625 -9.882812 "/></g></g><g style="fill:#0c7b3b;fill-opacity:1;"><g transform="translate(78.79746, 90.823799)"><path style="stroke:none" d="M 5.828125 -6.511719 C 4.097656 -6.511719 2.003906 -5.238281 2.003906 -3.003906 C 2.003906 -1.546875 2.824219 -0.226562 4.328125 0.410156 C 4.371094 0.636719 4.371094 0.867188 4.371094 1.09375 C 4.371094 2.867188 3.6875 4.691406 2.277344 6.285156 L 2.277344 7.695312 C 7.242188 7.195312 10.292969 2.6875 10.292969 -1.320312 C 10.292969 -5.511719 7.195312 -6.511719 5.828125 -6.511719 Z M 5.828125 -6.511719 "/></g></g><g style="fill:#0c7b3b;fill-opacity:1;"><g transform="translate(91.138551, 90.823799)"><path style="stroke:none" d="M -0.273438 3.414062 L -0.273438 5.691406 L 23.042969 5.691406 L 23.042969 3.414062 Z M -0.273438 3.414062 "/></g></g><g style="fill:#0c7b3b;fill-opacity:1;"><g transform="translate(113.908092, 90.823799)"><path style="stroke:none" d="M -0.273438 3.414062 L -0.273438 5.691406 L 23.042969 5.691406 L 23.042969 3.414062 Z M -0.273438 3.414062 "/></g></g><g style="fill:#0c7b3b;fill-opacity:1;"><g transform="translate(136.677633, 90.823799)"><path style="stroke:none" d="M 5.828125 -6.511719 C 4.097656 -6.511719 2.003906 -5.238281 2.003906 -3.003906 C 2.003906 -1.546875 2.824219 -0.226562 4.328125 0.410156 C 4.371094 0.636719 4.371094 0.867188 4.371094 1.09375 C 4.371094 2.867188 3.6875 4.691406 2.277344 6.285156 L 2.277344 7.695312 C 7.242188 7.195312 10.292969 2.6875 10.292969 -1.320312 C 10.292969 -5.511719 7.195312 -6.511719 5.828125 -6.511719 Z M 5.828125 -6.511719 "/></g></g><g style="fill:#0c7b3b;fill-opacity:1;"><g transform="translate(149.018724, 90.823799)"><path style="stroke:none" d=""/></g></g><g style="fill:#0c7b3b;fill-opacity:1;"><g transform="translate(161.678589, 90.823799)"><path style="stroke:none" d="M 11.929688 -31.46875 C 6.328125 -31.46875 1.59375 -27.050781 1.59375 -20.765625 C 1.59375 -15.300781 5.464844 -10.929688 10.15625 -10.929688 C 10.929688 -10.929688 11.339844 -11.066406 12.160156 -11.25 L 5.007812 0.410156 L 12.613281 0.410156 L 18.035156 -8.378906 C 20.855469 -12.980469 22.179688 -16.757812 22.179688 -20.992188 C 22.179688 -27.277344 17.257812 -31.46875 11.929688 -31.46875 Z M 8.289062 -20.992188 C 8.289062 -23.726562 9.746094 -25.640625 11.75 -25.640625 C 13.796875 -25.640625 15.210938 -24.046875 15.210938 -20.992188 C 15.210938 -18.308594 13.796875 -16.394531 11.75 -16.394531 C 9.792969 -16.394531 8.289062 -18.125 8.289062 -20.992188 Z M 8.289062 -20.992188 "/></g></g><g style="fill:#0c7b3b;fill-opacity:1;"><g transform="translate(186.816165, 90.823799)"><path style="stroke:none" d="M 16.484375 -31.46875 L 1.867188 -12.613281 L 1.867188 -7.652344 L 13.980469 -7.652344 L 13.980469 0 L 20.855469 0 L 20.855469 -7.652344 L 22.953125 -7.652344 L 22.953125 -12.613281 L 20.855469 -12.613281 L 20.855469 -31.46875 Z M 13.980469 -12.613281 L 7.332031 -12.613281 L 13.980469 -21.085938 Z M 13.980469 -12.613281 "/></g></g><g style="fill:#0c7b3b;fill-opacity:1;"><g transform="translate(211.95374, 90.823799)"><path style="stroke:none" d="M 5.828125 -6.511719 C 4.097656 -6.511719 2.003906 -5.238281 2.003906 -3.003906 C 2.003906 -1.546875 2.824219 -0.226562 4.328125 0.410156 C 4.371094 0.636719 4.371094 0.867188 4.371094 1.09375 C 4.371094 2.867188 3.6875 4.691406 2.277344 6.285156 L 2.277344 7.695312 C 7.242188 7.195312 10.292969 2.6875 10.292969 -1.320312 C 10.292969 -5.511719 7.195312 -6.511719 5.828125 -6.511719 Z M 5.828125 -6.511719 "/></g></g><g style="fill:#0c7b3b;fill-opacity:1;"><g transform="translate(224.294819, 90.823799)"><path style="stroke:none" d="M 11.929688 -31.46875 C 6.328125 -31.46875 1.59375 -27.050781 1.59375 -20.765625 C 1.59375 -15.300781 5.464844 -10.929688 10.15625 -10.929688 C 10.929688 -10.929688 11.339844 -11.066406 12.160156 -11.25 L 5.007812 0.410156 L 12.613281 0.410156 L 18.035156 -8.378906 C 20.855469 -12.980469 22.179688 -16.757812 22.179688 -20.992188 C 22.179688 -27.277344 17.257812 -31.46875 11.929688 -31.46875 Z M 8.289062 -20.992188 C 8.289062 -23.726562 9.746094 -25.640625 11.75 -25.640625 C 13.796875 -25.640625 15.210938 -24.046875 15.210938 -20.992188 C 15.210938 -18.308594 13.796875 -16.394531 11.75 -16.394531 C 9.792969 -16.394531 8.289062 -18.125 8.289062 -20.992188 Z M 8.289062 -20.992188 "/></g></g><g style="fill:#0c7b3b;fill-opacity:1;"><g transform="translate(249.432406, 90.823799)"><path style="stroke:none" d="M 10.519531 -31.46875 C 8.195312 -31.46875 5.464844 -31.011719 3.414062 -30.101562 L 3.414062 -24.636719 C 5.828125 -25.867188 7.421875 -26.277344 9.246094 -26.277344 C 11.566406 -26.277344 13.570312 -24.773438 13.570312 -22.632812 C 13.570312 -20.855469 12.023438 -19.082031 9.289062 -18.855469 L 9.289062 -13.390625 C 12.476562 -13.070312 14.070312 -11.292969 14.070312 -9.0625 C 14.070312 -6.785156 12.113281 -5.007812 9.472656 -5.007812 C 7.148438 -5.007812 4.78125 -5.828125 2.640625 -7.378906 L 2.640625 -1.367188 C 4.828125 -0.183594 7.789062 0.410156 10.429688 0.410156 C 16.347656 0.410156 21.3125 -2.6875 21.3125 -8.652344 C 21.3125 -12.796875 19.398438 -15.210938 15.847656 -16.667969 C 18.71875 -18.035156 20.449219 -20.949219 20.449219 -23.863281 C 20.449219 -28.507812 16.257812 -31.46875 10.519531 -31.46875 Z M 10.519531 -31.46875 "/></g></g><g style="fill:#0c7b3b;fill-opacity:1;"><g transform="translate(274.569993, 90.823799)"><path style="stroke:none" d="M 5.828125 -6.511719 C 4.097656 -6.511719 2.003906 -5.238281 2.003906 -3.003906 C 2.003906 -1.546875 2.824219 -0.226562 4.328125 0.410156 C 4.371094 0.636719 4.371094 0.867188 4.371094 1.09375 C 4.371094 2.867188 3.6875 4.691406 2.277344 6.285156 L 2.277344 7.695312 C 7.242188 7.195312 10.292969 2.6875 10.292969 -1.320312 C 10.292969 -5.511719 7.195312 -6.511719 5.828125 -6.511719 Z M 5.828125 -6.511719 "/></g></g><g style="fill:#0c7b3b;fill-opacity:1;"><g transform="translate(286.911072, 90.823799)"><path style="stroke:none" d="M -0.273438 3.414062 L -0.273438 5.691406 L 23.042969 5.691406 L 23.042969 3.414062 Z M -0.273438 3.414062 "/></g></g><g style="fill:#0c7b3b;fill-opacity:1;"><g transform="translate(309.680602, 90.823799)"><path style="stroke:none" d="M -0.273438 3.414062 L -0.273438 5.691406 L 23.042969 5.691406 L 23.042969 3.414062 Z M -0.273438 3.414062 "/></g></g><g style="fill:#0c7b3b;fill-opacity:1;"><g transform="translate(332.450156, 90.823799)"><path style="stroke:none" d="M 5.828125 -6.511719 C 4.097656 -6.511719 2.003906 -5.238281 2.003906 -3.003906 C 2.003906 -1.546875 2.824219 -0.226562 4.328125 0.410156 C 4.371094 0.636719 4.371094 0.867188 4.371094 1.09375 C 4.371094 2.867188 3.6875 4.691406 2.277344 6.285156 L 2.277344 7.695312 C 7.242188 7.195312 10.292969 2.6875 10.292969 -1.320312 C 10.292969 -5.511719 7.195312 -6.511719 5.828125 -6.511719 Z M 5.828125 -6.511719 "/></g></g><g style="fill:#0c7b3b;fill-opacity:1;"><g transform="translate(344.791257, 90.823799)"><path style="stroke:none" d="M 11.929688 -31.46875 C 6.328125 -31.46875 1.59375 -27.050781 1.59375 -20.765625 C 1.59375 -15.300781 5.464844 -10.929688 10.15625 -10.929688 C 10.929688 -10.929688 11.339844 -11.066406 12.160156 -11.25 L 5.007812 0.410156 L 12.613281 0.410156 L 18.035156 -8.378906 C 20.855469 -12.980469 22.179688 -16.757812 22.179688 -20.992188 C 22.179688 -27.277344 17.257812 -31.46875 11.929688 -31.46875 Z M 8.289062 -20.992188 C 8.289062 -23.726562 9.746094 -25.640625 11.75 -25.640625 C 13.796875 -25.640625 15.210938 -24.046875 15.210938 -20.992188 C 15.210938 -18.308594 13.796875 -16.394531 11.75 -16.394531 C 9.792969 -16.394531 8.289062 -18.125 8.289062 -20.992188 Z M 8.289062 -20.992188 "/></g></g><g style="fill:#0c7b3b;fill-opacity:1;"><g transform="translate(369.928821, 90.823799)"><path style="stroke:none" d="M 9.015625 -31.46875 L 9.015625 0 L 16.121094 0 L 16.121094 -31.46875 Z M 9.015625 -31.46875 "/></g></g><path style=" stroke:none;fill-rule:evenodd;fill:#000000;fill-opacity:1;" d="M 107.203125 86.191406 L 109.914062 86.191406 L 109.914062 88.945312 L 107.203125 88.945312 Z M 107.203125 86.191406 "/><g clip-rule="nonzero" clip-path="url(#c4b14e1c67)"><path style="fill:none;stroke-width:2;stroke-linecap:butt;stroke-linejoin:miter;stroke:#000000;stroke-opacity:1;stroke-miterlimit:22.926001;" d="M 86.00801 163.764427 L 109.226393 163.764427 L 109.226393 186.991117 L 86.00801 186.991117 Z M 86.00801 163.764427 " transform="matrix(0.116758,0,0,0.118566,97.160981,66.77444)"/></g><g clip-rule="nonzero" clip-path="url(#e06b3877eb)"><path style=" stroke:none;fill-rule:evenodd;fill:#000000;fill-opacity:1;" d="M 107.636719 83.429688 C 107.628906 83.109375 107.625 82.867188 107.625 82.703125 C 107.625 81.753906 107.753906 80.9375 108.023438 80.25 C 108.214844 79.726562 108.527344 79.203125 108.960938 78.675781 C 109.277344 78.289062 109.851562 77.730469 110.675781 76.992188 C 111.5 76.253906 112.035156 75.664062 112.285156 75.226562 C 112.53125 74.78125 112.65625 74.300781 112.65625 73.78125 C 112.65625 72.835938 112.292969 72.003906 111.570312 71.285156 C 110.847656 70.570312 109.960938 70.210938 108.914062 70.210938 C 107.894531 70.210938 107.050781 70.539062 106.375 71.1875 C 105.691406 71.839844 105.246094 72.851562 105.035156 74.234375 L 102.59375 73.929688 C 102.816406 72.089844 103.46875 70.675781 104.554688 69.699219 C 105.644531 68.722656 107.082031 68.230469 108.871094 68.230469 C 110.765625 68.230469 112.273438 68.753906 113.40625 69.804688 C 114.53125 70.855469 115.09375 72.125 115.09375 73.617188 C 115.09375 74.480469 114.894531 75.273438 114.5 76 C 114.101562 76.730469 113.324219 77.613281 112.167969 78.652344 C 111.390625 79.347656 110.882812 79.863281 110.644531 80.195312 C 110.40625 80.523438 110.230469 80.90625 110.117188 81.335938 C 110.003906 81.761719 109.933594 82.460938 109.917969 83.429688 Z M 107.636719 83.429688 "/></g><g clip-rule="nonzero" clip-path="url(#b2a20aecc1)"><path style="fill:none;stroke-width:2;stroke-linecap:butt;stroke-linejoin:miter;stroke:#000000;stroke-opacity:1;stroke-miterlimit:22.926001;" d="M 89.721613 140.471844 C 89.654701 137.7703 89.621245 135.727669 89.621245 134.343952 C 89.621245 126.338156 90.725289 119.452513 93.033745 113.654077 C 94.673083 109.239358 97.349554 104.82464 101.063157 100.376975 C 103.773084 97.115355 108.691098 92.404126 115.75029 86.177396 C 122.809481 79.950666 127.392937 74.975871 129.534114 71.285957 C 131.641834 67.530152 132.712423 63.477835 132.712423 59.096063 C 132.712423 51.123213 129.601025 44.105787 123.411687 38.043785 C 117.222349 32.014729 109.627863 28.983729 100.661686 28.983729 C 91.929701 28.983729 84.70323 31.751164 78.915362 37.220144 C 73.060583 42.722069 69.246612 51.254995 67.439994 62.917759 L 46.530067 60.347998 C 48.437053 44.830592 54.024185 32.904262 63.324921 24.667847 C 72.659112 16.431432 84.970877 12.280279 100.293672 12.280279 C 116.519775 12.280279 129.433746 16.694997 139.135952 25.55738 C 148.771246 34.419763 153.588894 45.127102 153.588894 57.712345 C 153.588894 64.993336 151.882644 71.681305 148.503599 77.809198 C 145.091099 83.970036 138.433379 91.415756 128.530437 100.179301 C 121.872716 106.043629 117.523452 110.392456 115.482643 113.192837 C 113.441834 115.960273 111.936319 119.188948 110.966098 122.81297 C 109.995878 126.404047 109.393672 132.301321 109.259848 140.471844 Z M 89.721613 140.471844 " transform="matrix(0.116758,0,0,0.118566,97.160981,66.77444)"/></g><path style=" stroke:none;fill-rule:evenodd;fill:#000000;fill-opacity:1;" d="M 309.667969 86.191406 L 312.378906 86.191406 L 312.378906 88.945312 L 309.667969 88.945312 Z M 309.667969 86.191406 "/><g clip-rule="nonzero" clip-path="url(#c24ce59c88)"><path style="fill:none;stroke-width:2;stroke-linecap:butt;stroke-linejoin:miter;stroke:#000000;stroke-opacity:1;stroke-miterlimit:22.926001;" d="M 86.021463 163.764427 L 109.239846 163.764427 L 109.239846 186.991117 L 86.021463 186.991117 Z M 86.021463 163.764427 " transform="matrix(0.116758,0,0,0.118566,299.624254,66.77444)"/></g><g clip-rule="nonzero" clip-path="url(#c292927d95)"><path style=" stroke:none;fill-rule:evenodd;fill:#000000;fill-opacity:1;" d="M 310.101562 83.429688 C 310.089844 83.109375 310.085938 82.867188 310.085938 82.703125 C 310.085938 81.753906 310.21875 80.9375 310.484375 80.25 C 310.679688 79.726562 310.992188 79.203125 311.425781 78.675781 C 311.742188 78.289062 312.316406 77.730469 313.136719 76.992188 C 313.964844 76.253906 314.5 75.664062 314.746094 75.226562 C 314.996094 74.78125 315.117188 74.300781 315.117188 73.78125 C 315.117188 72.835938 314.757812 72.003906 314.035156 71.285156 C 313.3125 70.570312 312.425781 70.210938 311.375 70.210938 C 310.359375 70.210938 309.515625 70.539062 308.835938 71.1875 C 308.15625 71.839844 307.710938 72.851562 307.5 74.234375 L 305.058594 73.929688 C 305.28125 72.089844 305.929688 70.675781 307.019531 69.699219 C 308.109375 68.722656 309.546875 68.230469 311.335938 68.230469 C 313.230469 68.230469 314.738281 68.753906 315.867188 69.804688 C 316.992188 70.855469 317.558594 72.125 317.558594 73.617188 C 317.558594 74.480469 317.359375 75.273438 316.960938 76 C 316.5625 76.730469 315.785156 77.613281 314.628906 78.652344 C 313.851562 79.347656 313.347656 79.863281 313.109375 80.195312 C 312.867188 80.523438 312.691406 80.90625 312.578125 81.335938 C 312.464844 81.761719 312.398438 82.460938 312.378906 83.429688 Z M 310.101562 83.429688 "/></g><g clip-rule="nonzero" clip-path="url(#2b2d36c6f5)"><path style="fill:none;stroke-width:2;stroke-linecap:butt;stroke-linejoin:miter;stroke:#000000;stroke-opacity:1;stroke-miterlimit:22.926001;" d="M 89.735066 140.471844 C 89.634698 137.7703 89.601242 135.727669 89.601242 134.343952 C 89.601242 126.338156 90.738742 119.452513 93.013742 113.654077 C 94.686536 109.239358 97.363007 104.82464 101.07661 100.376975 C 103.786537 97.115355 108.704551 92.404126 115.730287 86.177396 C 122.822934 79.950666 127.40639 74.975871 129.514111 71.285957 C 131.655287 67.530152 132.69242 63.477835 132.69242 59.096063 C 132.69242 51.123213 129.614478 44.105787 123.42514 38.043785 C 117.235802 32.014729 109.641316 28.983729 100.641684 28.983729 C 91.943154 28.983729 84.716683 31.751164 78.89536 37.220144 C 73.074036 42.722069 69.260065 51.254995 67.453447 62.917759 L 46.54352 60.347998 C 48.450506 44.830592 54.004182 32.904262 63.338374 24.667847 C 72.672565 16.431432 84.98433 12.280279 100.307125 12.280279 C 116.533228 12.280279 129.447199 16.694997 139.115949 25.55738 C 148.751244 34.419763 153.602347 45.127102 153.602347 57.712345 C 153.602347 64.993336 151.896097 71.681305 148.483597 77.809198 C 145.071097 83.970036 138.413376 91.415756 128.510434 100.179301 C 121.852714 106.043629 117.536905 110.392456 115.496096 113.192837 C 113.421831 115.960273 111.916316 119.188948 110.946096 122.81297 C 109.975875 126.404047 109.407125 132.301321 109.239846 140.471844 Z M 89.735066 140.471844 " transform="matrix(0.116758,0,0,0.118566,299.624254,66.77444)"/></g></g></svg>