<svg xmlns="http://www.w3.org/2000/svg" xmlns:xlink="http://www.w3.org/1999/xlink" width="600" zoomAndPan="magnify" viewBox="0 0 450 149.999998" height="200" preserveAspectRatio="xMidYMid meet" version="1.2"><defs/><g id="d24aee09e7"><rect x="0" width="450" y="0" height="149.999998" style="fill:#ffffff;fill-opacity:1;stroke:none;"/><rect x="0" width="450" y="0" height="149.999998" style="fill:#ffffff;fill-opacity:1;stroke:none;"/><path style="fill-rule:nonzero;fill:#000000;fill-opacity:1;stroke-width:1;stroke-linecap:butt;stroke-linejoin:miter;stroke:#0c7b3b;stroke-opacity:1;stroke-miterlimit:4;" d="M 0.499995 0.999997 L 0.499995 199.000009 M 599.50003 0.999997 L 599.50003 199.000009 M -0.000005 0.499997 L 600.00003 0.499997 M -0.000005 199.500009 L 600.00003 199.500009 " transform="matrix(0.75,0,0,0.75,0.00000375,0.000002)"/><g style="fill:#0c7b3b;fill-opacity:1;"><g transform="translate(146.056681, 99.498409)"><path style="stroke:none" d="M 18.878906 -65.878906 L 18.878906 0 L 33.75 0 L 33.75 -65.878906 Z M 18.878906 -65.878906 "/></g></g><g style="fill:#0c7b3b;fill-opacity:1;"><g transform="translate(198.684086, 99.498409)"><path style="stroke:none" d="M 24.214844 -65.878906 C 17.066406 -65.878906 11.917969 -63.402344 6.007812 -59.683594 L 6.007812 -46.050781 C 11.25 -51.101562 17.445312 -54.152344 21.640625 -54.152344 C 26.601562 -54.152344 30.414062 -49.863281 30.414062 -45 C 30.414062 -38.898438 27.171875 -31.558594 17.351562 -18.113281 C 12.488281 -11.535156 8.390625 -6.007812 5.148438 -1.90625 L 5.148438 0 L 48.148438 0 L 48.148438 -13.253906 L 27.171875 -13.253906 C 36.039062 -24.691406 37.753906 -27.742188 41.949219 -36.039062 C 43.855469 -39.949219 44.808594 -43.664062 44.808594 -47.667969 C 44.808594 -57.394531 38.421875 -65.878906 24.214844 -65.878906 Z M 24.214844 -65.878906 "/></g></g><g style="fill:#0c7b3b;fill-opacity:1;"><g transform="translate(251.311492, 99.498409)"><path style="stroke:none" d="M 9.4375 -65.023438 L 9.4375 -27.933594 C 12.011719 -28.601562 14.683594 -28.886719 17.445312 -28.886719 C 24.980469 -28.886719 30.222656 -25.359375 30.222656 -19.542969 C 30.222656 -14.777344 26.410156 -10.582031 19.925781 -10.582031 C 16.492188 -10.582031 11.917969 -11.34375 6.101562 -14.492188 L 6.101562 -2.667969 C 9.34375 -0.761719 16.398438 0.859375 21.832031 0.859375 C 37.375 0.859375 45.382812 -7.914062 45.382812 -20.308594 C 45.382812 -31.652344 36.515625 -39.851562 24.980469 -39.851562 C 23.929688 -39.851562 23.167969 -39.757812 22.40625 -39.757812 L 22.40625 -51.960938 L 43.1875 -51.960938 L 43.1875 -65.023438 Z M 9.4375 -65.023438 "/></g></g></g></svg>