<svg xmlns="http://www.w3.org/2000/svg" xmlns:xlink="http://www.w3.org/1999/xlink" width="600" zoomAndPan="magnify" viewBox="0 0 450 149.999998" height="200" preserveAspectRatio="xMidYMid meet" version="1.2"><defs><clipPath id="4400cccec5"><path d="M 358.648438 27.375 L 406.648438 27.375 L 406.648438 83 L 358.648438 83 Z M 358.648438 27.375 "/></clipPath><clipPath id="39e80548a3"><path d="M 372 88 L 390 88 L 390 105.375 L 372 105.375 Z M 372 88 "/></clipPath></defs><g id="33be6124aa"><rect x="0" width="450" y="0" height="149.999998" style="fill:#ffffff;fill-opacity:1;stroke:none;"/><rect x="0" width="450" y="0" height="149.999998" style="fill:#ffffff;fill-opacity:1;stroke:none;"/><path style="fill-rule:nonzero;fill:#000000;fill-opacity:1;stroke-width:1;stroke-linecap:butt;stroke-linejoin:miter;stroke:#0c7b3b;stroke-opacity:1;stroke-miterlimit:4;" d="M 0.499995 0.999997 L 0.499995 199.000009 M 599.50003 0.999997 L 599.50003 199.000009 M -0.000005 0.499997 L 600.00003 0.499997 M -0.000005 199.500009 L 600.00003 199.500009 " transform="matrix(0.75,0,0,0.75,0.00000375,0.000002)"/><g style="fill:#0c7b3b;fill-opacity:1;"><g transform="translate(24.843122, 103.40939)"><path style="stroke:none" d="M 21.492188 -75.007812 L 21.492188 0 L 38.425781 0 L 38.425781 -75.007812 Z M 21.492188 -75.007812 "/></g></g><g style="fill:#0c7b3b;fill-opacity:1;"><g transform="translate(84.756636, 103.40939)"><path style="stroke:none" d="M 24.640625 -64.152344 L 24.640625 -43.960938 L 4.449219 -43.960938 L 4.449219 -30.066406 L 24.640625 -30.066406 L 24.640625 -9.878906 L 38.644531 -9.878906 L 38.644531 -30.066406 L 58.832031 -30.066406 L 58.832031 -43.960938 L 38.644531 -43.960938 L 38.644531 -64.152344 Z M 24.640625 -64.152344 "/></g></g><g style="fill:#0c7b3b;fill-opacity:1;"><g transform="translate(148.034861, 103.40939)"><path style="stroke:none" d=""/></g></g><g style="fill:#0c7b3b;fill-opacity:1;"><g transform="translate(178.208695, 103.40939)"><path style="stroke:none" d="M 25.074219 -75.007812 C 19.539062 -75.007812 13.027344 -73.921875 8.140625 -71.75 L 8.140625 -58.722656 C 13.894531 -61.65625 17.691406 -62.632812 22.035156 -62.632812 C 27.570312 -62.632812 32.347656 -59.050781 32.347656 -53.949219 C 32.347656 -49.714844 28.65625 -45.480469 22.144531 -44.9375 L 22.144531 -31.914062 C 29.742188 -31.152344 33.542969 -26.917969 33.542969 -21.601562 C 33.542969 -16.171875 28.875 -11.941406 22.578125 -11.941406 C 17.042969 -11.941406 11.398438 -13.894531 6.296875 -17.585938 L 6.296875 -3.257812 C 11.507812 -0.433594 18.5625 0.976562 24.855469 0.976562 C 38.96875 0.976562 50.800781 -6.40625 50.800781 -20.625 C 50.800781 -30.5 46.242188 -36.253906 37.773438 -39.726562 C 44.613281 -42.984375 48.738281 -49.933594 48.738281 -56.878906 C 48.738281 -67.949219 38.75 -75.007812 25.074219 -75.007812 Z M 25.074219 -75.007812 "/></g></g><g style="fill:#0c7b3b;fill-opacity:1;"><g transform="translate(238.122208, 103.40939)"><path style="stroke:none" d=""/></g></g><g style="fill:#0c7b3b;fill-opacity:1;"><g transform="translate(268.296042, 103.40939)"><path style="stroke:none" d="M 4.449219 -55.792969 L 4.449219 -41.789062 L 58.832031 -41.789062 L 58.832031 -55.792969 Z M 4.449219 -32.238281 L 4.449219 -18.34375 L 58.832031 -18.34375 L 58.832031 -32.238281 Z M 4.449219 -32.238281 "/></g></g><g style="fill:#0c7b3b;fill-opacity:1;"><g transform="translate(331.581389, 103.40939)"><path style="stroke:none" d=""/></g></g><g clip-rule="nonzero" clip-path="url(#4400cccec5)"><path style=" stroke:none;fill-rule:nonzero;fill:#000000;fill-opacity:1;" d="M 403.472656 36.425781 C 401.410156 33.492188 398.5625 31.246094 394.933594 29.699219 C 391.320312 28.15625 387.144531 27.375 382.421875 27.375 C 378.121094 27.375 374.191406 28.140625 370.640625 29.667969 C 367.089844 31.183594 364.230469 33.507812 362.070312 36.582031 C 360.351562 39.03125 359.285156 41.992188 358.847656 45.472656 C 358.660156 46.984375 359.863281 48.328125 361.398438 48.328125 L 370.910156 48.328125 C 372.128906 48.328125 373.160156 47.46875 373.425781 46.285156 C 373.660156 45.222656 374.050781 44.269531 374.601562 43.460938 C 375.476562 42.148438 376.601562 41.152344 377.976562 40.480469 C 379.355469 39.808594 380.808594 39.464844 382.359375 39.464844 C 383.953125 39.464844 385.394531 39.792969 386.722656 40.464844 C 388.035156 41.121094 389.085938 42.070312 389.867188 43.304688 C 390.648438 44.535156 391.039062 45.957031 391.039062 47.59375 C 391.039062 49.136719 390.695312 50.527344 390.007812 51.757812 C 389.320312 52.992188 388.394531 54.128906 387.238281 55.144531 C 386.066406 56.175781 384.765625 57.140625 383.296875 58.09375 C 381.324219 59.324219 379.636719 60.699219 378.246094 62.210938 C 376.835938 63.722656 375.789062 65.707031 375.054688 68.171875 C 374.332031 70.636719 373.957031 73.925781 373.941406 78.0625 L 373.941406 80.121094 C 373.941406 81.523438 375.085938 82.679688 376.507812 82.679688 L 384.875 82.679688 C 386.285156 82.679688 387.441406 81.539062 387.441406 80.121094 L 387.441406 78.0625 C 387.472656 75.734375 387.769531 73.785156 388.347656 72.210938 C 388.925781 70.636719 389.820312 69.230469 391.007812 68.03125 C 392.210938 66.828125 393.746094 65.675781 395.621094 64.550781 C 397.859375 63.226562 399.78125 61.742188 401.425781 60.089844 C 403.050781 58.453125 404.335938 56.546875 405.257812 54.410156 C 406.164062 52.273438 406.632812 49.808594 406.632812 47.046875 C 406.585938 42.898438 405.539062 39.355469 403.472656 36.425781 Z M 403.472656 36.425781 "/></g><g clip-rule="nonzero" clip-path="url(#39e80548a3)"><path style=" stroke:none;fill-rule:nonzero;fill:#000000;fill-opacity:1;" d="M 380.949219 88.417969 C 378.574219 88.417969 376.554688 89.246094 374.882812 90.898438 C 373.207031 92.554688 372.378906 94.550781 372.410156 96.859375 C 372.378906 99.199219 373.207031 101.210938 374.882812 102.878906 C 376.554688 104.550781 378.574219 105.375 380.949219 105.375 C 382.46875 105.375 383.875 104.984375 385.140625 104.222656 C 386.425781 103.441406 387.457031 102.429688 388.253906 101.132812 C 389.054688 99.839844 389.460938 98.417969 389.476562 96.859375 C 389.445312 94.535156 388.582031 92.554688 386.878906 90.898438 C 385.1875 89.246094 383.203125 88.417969 380.949219 88.417969 Z M 380.949219 88.417969 "/></g></g></svg>