<svg xmlns="http://www.w3.org/2000/svg" xmlns:xlink="http://www.w3.org/1999/xlink" width="600" zoomAndPan="magnify" viewBox="0 0 450 149.999998" height="200" preserveAspectRatio="xMidYMid meet" version="1.2"><defs><clipPath id="5243eefc53"><path d="M 158.09375 13.296875 L 281.84375 13.296875 L 281.84375 137 L 158.09375 137 Z M 158.09375 13.296875 "/></clipPath></defs><g id="ca53a4da51"><rect x="0" width="450" y="0" height="149.999998" style="fill:#ffffff;fill-opacity:1;stroke:none;"/><rect x="0" width="450" y="0" height="149.999998" style="fill:#ffffff;fill-opacity:1;stroke:none;"/><path style="fill-rule:nonzero;fill:#000000;fill-opacity:1;stroke-width:1;stroke-linecap:butt;stroke-linejoin:miter;stroke:#0c7b3b;stroke-opacity:1;stroke-miterlimit:4;" d="M 0.499995 0.999997 L 0.499995 199.000009 M 599.50003 0.999997 L 599.50003 199.000009 M -0.000005 0.499997 L 600.00003 0.499997 M -0.000005 199.500009 L 600.00003 199.500009 " transform="matrix(0.75,0,0,0.75,0.00000375,0.000002)"/><g clip-rule="nonzero" clip-path="url(#5243eefc53)"><path style=" stroke:none;fill-rule:nonzero;fill:#ff3131;fill-opacity:1;" d="M 219.792969 136.695312 C 185.859375 136.695312 158.09375 108.929688 158.09375 74.996094 C 158.09375 41.0625 185.859375 13.296875 219.792969 13.296875 C 253.730469 13.296875 281.492188 41.0625 281.492188 74.996094 C 281.492188 108.929688 253.730469 136.695312 219.792969 136.695312 Z M 219.792969 136.695312 "/></g></g></svg>