<svg xmlns="http://www.w3.org/2000/svg" xmlns:xlink="http://www.w3.org/1999/xlink" width="600" zoomAndPan="magnify" viewBox="0 0 450 149.999998" height="200" preserveAspectRatio="xMidYMid meet" version="1.2"><defs/><g id="0c69c8c5ff"><rect x="0" width="450" y="0" height="149.999998" style="fill:#ffffff;fill-opacity:1;stroke:none;"/><rect x="0" width="450" y="0" height="149.999998" style="fill:#ffffff;fill-opacity:1;stroke:none;"/><path style="fill-rule:nonzero;fill:#000000;fill-opacity:1;stroke-width:1;stroke-linecap:butt;stroke-linejoin:miter;stroke:#0c7b3b;stroke-opacity:1;stroke-miterlimit:4;" d="M 0.499995 0.999997 L 0.499995 199.000009 M 599.50003 0.999997 L 599.50003 199.000009 M -0.000005 0.499997 L 600.00003 0.499997 M -0.000005 199.500009 L 600.00003 199.500009 " transform="matrix(0.75,0,0,0.75,0.00000375,0.000002)"/><g style="fill:#0c7b3b;fill-opacity:1;"><g transform="translate(39.689284, 107.582574)"><path style="stroke:none" d="M 6.453125 -68.761719 L 6.453125 -55.050781 L 31.859375 -55.050781 L 13.410156 -4.335938 L 27.121094 0.90625 L 52.226562 -67.953125 L 52.226562 -68.761719 Z M 6.453125 -68.761719 "/></g></g><g style="fill:#0c7b3b;fill-opacity:1;"><g transform="translate(253.459794, 107.582574)"><path style="stroke:none" d="M 26.414062 -69.667969 C 14.015625 -69.667969 3.527344 -59.886719 3.527344 -45.976562 C 3.527344 -33.875 12.097656 -24.199219 22.484375 -24.199219 C 24.199219 -24.199219 25.105469 -24.5 26.917969 -24.902344 L 11.089844 0.90625 L 27.929688 0.90625 L 39.925781 -18.550781 C 46.175781 -28.734375 49.101562 -37.101562 49.101562 -46.480469 C 49.101562 -60.394531 38.210938 -69.667969 26.414062 -69.667969 Z M 18.351562 -46.480469 C 18.351562 -52.527344 21.574219 -56.761719 26.011719 -56.761719 C 30.550781 -56.761719 33.675781 -53.234375 33.675781 -46.480469 C 33.675781 -40.53125 30.550781 -36.296875 26.011719 -36.296875 C 21.675781 -36.296875 18.351562 -40.128906 18.351562 -46.480469 Z M 18.351562 -46.480469 "/></g></g><g style="fill:#0c7b3b;fill-opacity:1;"><g transform="translate(146.574547, 107.582574)"><path style="stroke:none" d="M 23.289062 -69.667969 C 18.148438 -69.667969 12.097656 -68.660156 7.5625 -66.644531 L 7.5625 -54.546875 C 12.90625 -57.265625 16.433594 -58.175781 20.46875 -58.175781 C 25.609375 -58.175781 30.046875 -54.847656 30.046875 -50.109375 C 30.046875 -46.175781 26.617188 -42.246094 20.566406 -41.742188 L 20.566406 -29.640625 C 27.625 -28.9375 31.152344 -25.003906 31.152344 -20.0625 C 31.152344 -15.023438 26.820312 -11.089844 20.972656 -11.089844 C 15.828125 -11.089844 10.585938 -12.90625 5.847656 -16.332031 L 5.847656 -3.023438 C 10.6875 -0.402344 17.242188 0.90625 23.089844 0.90625 C 36.195312 0.90625 47.183594 -5.949219 47.183594 -19.15625 C 47.183594 -28.332031 42.949219 -33.675781 35.085938 -36.902344 C 41.4375 -39.925781 45.269531 -46.378906 45.269531 -52.832031 C 45.269531 -63.113281 35.992188 -69.667969 23.289062 -69.667969 Z M 23.289062 -69.667969 "/></g></g><g style="fill:#0c7b3b;fill-opacity:1;"><g transform="translate(360.345071, 107.582574)"><path style="stroke:none" d="M 36.496094 -69.667969 L 4.132812 -27.929688 L 4.132812 -16.9375 L 30.953125 -16.9375 L 30.953125 0 L 46.175781 0 L 46.175781 -16.9375 L 50.816406 -16.9375 L 50.816406 -27.929688 L 46.175781 -27.929688 L 46.175781 -69.667969 Z M 30.953125 -27.929688 L 16.230469 -27.929688 L 30.953125 -46.679688 Z M 30.953125 -27.929688 "/></g></g></g></svg>