<svg xmlns="http://www.w3.org/2000/svg" xmlns:xlink="http://www.w3.org/1999/xlink" width="600" zoomAndPan="magnify" viewBox="0 0 450 149.999998" height="200" preserveAspectRatio="xMidYMid meet" version="1.2"><defs/><g id="f5e9f96935"><rect x="0" width="450" y="0" height="149.999998" style="fill:#ffffff;fill-opacity:1;stroke:none;"/><rect x="0" width="450" y="0" height="149.999998" style="fill:#ffffff;fill-opacity:1;stroke:none;"/><path style="fill-rule:nonzero;fill:#000000;fill-opacity:1;stroke-width:1;stroke-linecap:butt;stroke-linejoin:miter;stroke:#0c7b3b;stroke-opacity:1;stroke-miterlimit:4;" d="M 0.499995 0.999997 L 0.499995 199.000009 M 599.50003 0.999997 L 599.50003 199.000009 M -0.000005 0.499997 L 600.00003 0.499997 M -0.000005 199.500009 L 600.00003 199.500009 " transform="matrix(0.75,0,0,0.75,0.00000375,0.000002)"/><g style="fill:#0c7b3b;fill-opacity:1;"><g transform="translate(16.490134, 90.101752)"><path style="stroke:none" d="M 16.019531 -47.917969 C 12.480469 -47.917969 8.320312 -47.222656 5.199219 -45.835938 L 5.199219 -37.515625 C 8.875 -39.386719 11.304688 -40.011719 14.078125 -40.011719 C 17.613281 -40.011719 20.664062 -37.722656 20.664062 -34.464844 C 20.664062 -31.761719 18.308594 -29.054688 14.144531 -28.707031 L 14.144531 -20.386719 C 19 -19.902344 21.425781 -17.199219 21.425781 -13.800781 C 21.425781 -10.332031 18.445312 -7.628906 14.421875 -7.628906 C 10.886719 -7.628906 7.28125 -8.875 4.023438 -11.234375 L 4.023438 -2.082031 C 7.351562 -0.277344 11.859375 0.625 15.878906 0.625 C 24.894531 0.625 32.453125 -4.089844 32.453125 -13.175781 C 32.453125 -19.484375 29.539062 -23.160156 24.132812 -25.378906 C 28.5 -27.460938 31.136719 -31.898438 31.136719 -36.335938 C 31.136719 -43.410156 24.757812 -47.917969 16.019531 -47.917969 Z M 16.019531 -47.917969 "/></g></g><g style="fill:#0c7b3b;fill-opacity:1;"><g transform="translate(54.765778, 90.101752)"><path style="stroke:none" d="M 6.863281 -47.292969 L 6.863281 -20.316406 C 8.738281 -20.804688 10.679688 -21.011719 12.691406 -21.011719 C 18.167969 -21.011719 21.980469 -18.445312 21.980469 -14.214844 C 21.980469 -10.75 19.207031 -7.699219 14.492188 -7.699219 C 11.996094 -7.699219 8.667969 -8.253906 4.4375 -10.539062 L 4.4375 -1.941406 C 6.796875 -0.554688 11.925781 0.625 15.878906 0.625 C 27.183594 0.625 33.007812 -5.753906 33.007812 -14.769531 C 33.007812 -23.023438 26.558594 -28.984375 18.167969 -28.984375 C 17.40625 -28.984375 16.851562 -28.917969 16.296875 -28.917969 L 16.296875 -37.792969 L 31.414062 -37.792969 L 31.414062 -47.292969 Z M 6.863281 -47.292969 "/></g></g><g style="fill:#0c7b3b;fill-opacity:1;"><g transform="translate(93.041422, 90.101752)"><path style="stroke:none" d="M 9.292969 -31.761719 C 6.03125 -31.761719 3.328125 -29.054688 3.328125 -25.726562 C 3.328125 -22.46875 5.964844 -19.761719 9.363281 -19.761719 C 12.757812 -19.761719 15.394531 -22.675781 15.394531 -25.933594 C 15.394531 -29.261719 12.621094 -31.761719 9.292969 -31.761719 Z M 8.875 -9.917969 C 6.242188 -9.917969 3.050781 -7.976562 3.050781 -4.578125 C 3.050781 -2.359375 4.300781 -0.347656 6.585938 0.625 C 6.65625 0.972656 6.65625 1.316406 6.65625 1.664062 C 6.65625 4.367188 5.617188 7.140625 3.46875 9.570312 L 3.46875 11.71875 C 11.027344 10.957031 15.671875 4.089844 15.671875 -2.011719 C 15.671875 -8.390625 10.957031 -9.917969 8.875 -9.917969 Z M 8.875 -9.917969 "/></g></g><g style="fill:#0c7b3b;fill-opacity:1;"><g transform="translate(127.167762, 90.101752)"><path style="stroke:none" d="M 17.613281 -47.917969 C 12.414062 -47.917969 8.667969 -46.113281 4.367188 -43.410156 L 4.367188 -33.492188 C 8.183594 -37.167969 12.691406 -39.386719 15.742188 -39.386719 C 19.347656 -39.386719 22.121094 -36.265625 22.121094 -32.730469 C 22.121094 -28.292969 19.761719 -22.953125 12.621094 -13.175781 C 9.085938 -8.390625 6.101562 -4.367188 3.746094 -1.386719 L 3.746094 0 L 35.019531 0 L 35.019531 -9.640625 L 19.761719 -9.640625 C 26.210938 -17.960938 27.460938 -20.179688 30.511719 -26.210938 C 31.898438 -29.054688 32.59375 -31.761719 32.59375 -34.671875 C 32.59375 -41.746094 27.945312 -47.917969 17.613281 -47.917969 Z M 17.613281 -47.917969 "/></g></g><g style="fill:#0c7b3b;fill-opacity:1;"><g transform="translate(165.443406, 90.101752)"><path style="stroke:none" d="M 4.4375 -47.292969 L 4.4375 -37.863281 L 21.914062 -37.863281 L 9.222656 -2.980469 L 18.652344 0.625 L 35.921875 -46.738281 L 35.921875 -47.292969 Z M 4.4375 -47.292969 "/></g></g><g style="fill:#0c7b3b;fill-opacity:1;"><g transform="translate(203.71905, 90.101752)"><path style="stroke:none" d="M 9.292969 -31.761719 C 6.03125 -31.761719 3.328125 -29.054688 3.328125 -25.726562 C 3.328125 -22.46875 5.964844 -19.761719 9.363281 -19.761719 C 12.757812 -19.761719 15.394531 -22.675781 15.394531 -25.933594 C 15.394531 -29.261719 12.621094 -31.761719 9.292969 -31.761719 Z M 8.875 -9.917969 C 6.242188 -9.917969 3.050781 -7.976562 3.050781 -4.578125 C 3.050781 -2.359375 4.300781 -0.347656 6.585938 0.625 C 6.65625 0.972656 6.65625 1.316406 6.65625 1.664062 C 6.65625 4.367188 5.617188 7.140625 3.46875 9.570312 L 3.46875 11.71875 C 11.027344 10.957031 15.671875 4.089844 15.671875 -2.011719 C 15.671875 -8.390625 10.957031 -9.917969 8.875 -9.917969 Z M 8.875 -9.917969 "/></g></g><g style="fill:#0c7b3b;fill-opacity:1;"><g transform="translate(237.84538, 90.101752)"><path style="stroke:none" d="M 25.101562 -47.917969 L 2.84375 -19.207031 L 2.84375 -11.648438 L 21.289062 -11.648438 L 21.289062 0 L 31.761719 0 L 31.761719 -11.648438 L 34.949219 -11.648438 L 34.949219 -19.207031 L 31.761719 -19.207031 L 31.761719 -47.917969 Z M 21.289062 -19.207031 L 11.164062 -19.207031 L 21.289062 -32.105469 Z M 21.289062 -19.207031 "/></g></g><g style="fill:#0c7b3b;fill-opacity:1;"><g transform="translate(276.121024, 90.101752)"><path style="stroke:none" d="M 18.167969 -47.917969 C 9.640625 -47.917969 2.425781 -41.191406 2.425781 -31.621094 C 2.425781 -23.300781 8.320312 -16.644531 15.464844 -16.644531 C 16.644531 -16.644531 17.265625 -16.851562 18.515625 -17.128906 L 7.628906 0.625 L 19.207031 0.625 L 27.460938 -12.757812 C 31.761719 -19.761719 33.769531 -25.519531 33.769531 -31.96875 C 33.769531 -41.539062 26.28125 -47.917969 18.167969 -47.917969 Z M 12.621094 -31.96875 C 12.621094 -36.128906 14.839844 -39.042969 17.890625 -39.042969 C 21.011719 -39.042969 23.160156 -36.613281 23.160156 -31.96875 C 23.160156 -27.875 21.011719 -24.964844 17.890625 -24.964844 C 14.910156 -24.964844 12.621094 -27.597656 12.621094 -31.96875 Z M 12.621094 -31.96875 "/></g></g><g style="fill:#0c7b3b;fill-opacity:1;"><g transform="translate(314.396668, 90.101752)"><path style="stroke:none" d="M 9.292969 -31.761719 C 6.03125 -31.761719 3.328125 -29.054688 3.328125 -25.726562 C 3.328125 -22.46875 5.964844 -19.761719 9.363281 -19.761719 C 12.757812 -19.761719 15.394531 -22.675781 15.394531 -25.933594 C 15.394531 -29.261719 12.621094 -31.761719 9.292969 -31.761719 Z M 8.875 -9.917969 C 6.242188 -9.917969 3.050781 -7.976562 3.050781 -4.578125 C 3.050781 -2.359375 4.300781 -0.347656 6.585938 0.625 C 6.65625 0.972656 6.65625 1.316406 6.65625 1.664062 C 6.65625 4.367188 5.617188 7.140625 3.46875 9.570312 L 3.46875 11.71875 C 11.027344 10.957031 15.671875 4.089844 15.671875 -2.011719 C 15.671875 -8.390625 10.957031 -9.917969 8.875 -9.917969 Z M 8.875 -9.917969 "/></g></g><g style="fill:#0c7b3b;fill-opacity:1;"><g transform="translate(342.807552, 90.101752)"><path style="stroke:none" d="M 13.730469 -47.917969 L 13.730469 0 L 24.546875 0 L 24.546875 -47.917969 Z M 13.730469 -47.917969 "/></g></g><g style="fill:#0c7b3b;fill-opacity:1;"><g transform="translate(381.083196, 90.101752)"><path style="stroke:none" d="M 19 -47.917969 C 10.125 -47.917969 4.644531 -42.578125 4.644531 -35.089844 C 4.644531 -30.996094 6.242188 -27.597656 10.472656 -24.964844 C 5.894531 -23.09375 3.328125 -18.652344 3.328125 -13.453125 C 3.328125 -5.132812 9.917969 0.625 19.070312 0.625 C 28.917969 0.625 35.019531 -5.199219 35.019531 -13.523438 C 35.019531 -18.515625 32.523438 -22.816406 27.945312 -24.964844 C 32.382812 -27.53125 33.703125 -31.414062 33.703125 -35.226562 C 33.703125 -41.191406 28.917969 -47.917969 19 -47.917969 Z M 14.699219 -34.464844 C 14.699219 -38.210938 16.296875 -40.84375 19.140625 -40.84375 C 21.980469 -40.84375 23.578125 -38.625 23.578125 -34.535156 C 23.578125 -30.304688 21.980469 -27.875 19.207031 -27.875 C 16.226562 -27.875 14.699219 -30.71875 14.699219 -34.464844 Z M 24.339844 -13.523438 C 24.339844 -9.015625 22.328125 -6.171875 19.277344 -6.171875 C 16.226562 -6.171875 13.9375 -9.152344 13.9375 -13.730469 C 13.9375 -18.238281 15.878906 -21.148438 19.207031 -21.148438 C 22.328125 -21.148438 24.339844 -18.515625 24.339844 -13.523438 Z M 24.339844 -13.523438 "/></g></g></g></svg>