<svg xmlns="http://www.w3.org/2000/svg" xmlns:xlink="http://www.w3.org/1999/xlink" width="756" zoomAndPan="magnify" viewBox="0 0 567 141.750002" height="189" preserveAspectRatio="xMidYMid meet" version="1.2"><defs><clipPath id="3fc5a46d3c"><path d="M 0.5 0 L 566.5 0 L 566.5 141.5 L 0.5 141.5 Z M 0.5 0 "/></clipPath><clipPath id="0f97c0d8ef"><path d="M 239.175781 36.597656 L 307.464844 36.597656 L 307.464844 104.886719 L 239.175781 104.886719 Z M 239.175781 36.597656 "/></clipPath><clipPath id="fdcbbfa01e"><path d="M 238.445312 35.867188 L 308.195312 35.867188 L 308.195312 37.328125 L 238.445312 37.328125 Z M 306.734375 37.328125 L 308.195312 37.328125 L 308.195312 104.160156 L 306.734375 104.160156 Z M 238.445312 37.328125 L 239.90625 37.328125 L 239.90625 104.160156 L 238.445312 104.160156 Z M 238.445312 104.160156 L 308.195312 104.160156 L 308.195312 105.617188 L 238.445312 105.617188 Z M 238.445312 104.160156 "/></clipPath></defs><g id="2b9d4f7090"><g clip-rule="nonzero" clip-path="url(#3fc5a46d3c)"><path style=" stroke:none;fill-rule:nonzero;fill:#ffffff;fill-opacity:1;" d="M 0.5 0 L 566.5 0 L 566.5 141.5 L 0.5 141.5 Z M 0.5 0 "/><path style=" stroke:none;fill-rule:nonzero;fill:#ffffff;fill-opacity:1;" d="M 0.5 0 L 566.5 0 L 566.5 141.5 L 0.5 141.5 Z M 0.5 0 "/></g><g clip-rule="nonzero" clip-path="url(#0f97c0d8ef)"><path style=" stroke:none;fill-rule:nonzero;fill:#4dab47;fill-opacity:1;" d="M 231.5625 28.984375 L 315.074219 28.984375 L 315.074219 112.496094 L 231.5625 112.496094 Z M 231.5625 28.984375 "/></g><g clip-rule="nonzero" clip-path="url(#fdcbbfa01e)"><path style=" stroke:none;fill-rule:nonzero;fill:#231f20;fill-opacity:1;" d="M 231.5625 28.984375 L 315.074219 28.984375 L 315.074219 112.496094 L 231.5625 112.496094 Z M 231.5625 28.984375 "/></g></g></svg>