<svg xmlns="http://www.w3.org/2000/svg" xmlns:xlink="http://www.w3.org/1999/xlink" width="600" zoomAndPan="magnify" viewBox="0 0 450 149.999998" height="200" preserveAspectRatio="xMidYMid meet" version="1.2"><defs><clipPath id="c1f8ae66e5"><path d="M 169.664062 5.234375 L 288.164062 5.234375 L 288.164062 47 L 169.664062 47 Z M 169.664062 5.234375 "/></clipPath><clipPath id="4b5274b2eb"><path d="M 169.664062 54 L 288.164062 54 L 288.164062 95.96875 L 169.664062 95.96875 Z M 169.664062 54 "/></clipPath><clipPath id="012053764a"><path d="M 169.664062 53.96875 L 288.164062 53.96875 L 288.164062 95.96875 L 169.664062 95.96875 Z M 169.664062 53.96875 "/></clipPath><clipPath id="e93e33cb57"><path d="M 252.910156 64.003906 L 267.910156 64.003906 L 267.910156 82 L 252.910156 82 Z M 252.910156 64.003906 "/></clipPath><clipPath id="49961b4667"><path d="M 257 82 L 263 82 L 263 88.003906 L 257 88.003906 Z M 257 82 "/></clipPath><clipPath id="d2474c4224"><path d="M 182.808594 9.105469 L 216.558594 9.105469 L 216.558594 42.855469 L 182.808594 42.855469 Z M 182.808594 9.105469 "/></clipPath><clipPath id="32b08a8c4d"><path d="M 243.316406 9.105469 L 277.066406 9.105469 L 277.066406 42.855469 L 243.316406 42.855469 Z M 243.316406 9.105469 "/></clipPath><clipPath id="386078141e"><path d="M 182.808594 60.019531 L 215.457031 60.019531 L 215.457031 90.695312 L 182.808594 90.695312 Z M 182.808594 60.019531 "/></clipPath><clipPath id="26f4c3ab48"><path d="M 134.335938 99.34375 L 324.835938 99.34375 L 324.835938 132 L 134.335938 132 Z M 134.335938 99.34375 "/></clipPath><clipPath id="13718794b9"><path d="M 134.335938 99.34375 L 324.835938 99.34375 L 324.835938 132.34375 L 134.335938 132.34375 Z M 134.335938 99.34375 "/></clipPath><clipPath id="c8f1b0e0a4"><path d="M 134.335938 135 L 324.835938 135 L 324.835938 148 L 134.335938 148 Z M 134.335938 135 "/></clipPath><clipPath id="9de3d73040"><path d="M 240.671875 103.582031 L 266.171875 103.582031 L 266.171875 129.082031 L 240.671875 129.082031 Z M 240.671875 103.582031 "/></clipPath><clipPath id="de90498563"><path d="M 193.007812 103.582031 L 217.757812 103.582031 L 217.757812 128 L 193.007812 128 Z M 193.007812 103.582031 "/></clipPath><clipPath id="d5b2e2e3dd"><path d="M 145.058594 104.152344 L 169.757812 104.152344 L 169.757812 128.5 L 145.058594 128.5 Z M 145.058594 104.152344 "/></clipPath><clipPath id="b3df7d2ce0"><path d="M 288.089844 103.652344 L 312.792969 103.652344 L 312.792969 128 L 288.089844 128 Z M 288.089844 103.652344 "/></clipPath></defs><g id="46a25b88ba"><rect x="0" width="450" y="0" height="149.999998" style="fill:#ffffff;fill-opacity:1;stroke:none;"/><rect x="0" width="450" y="0" height="149.999998" style="fill:#ffffff;fill-opacity:1;stroke:none;"/><g clip-rule="nonzero" clip-path="url(#c1f8ae66e5)"><path style="fill-rule:nonzero;fill:#000000;fill-opacity:1;stroke-width:0.545178;stroke-linecap:butt;stroke-linejoin:miter;stroke:#000000;stroke-opacity:1;stroke-miterlimit:4;" d="M 0.275033 0.547367 L 0.275033 54.953621 M 79.498996 0.547367 L 79.498996 54.953621 M 157.629209 0.547367 L 157.629209 54.953621 M -0.0010082 0.271326 L 157.900043 0.271326 M -0.0010082 55.229662 L 157.900043 55.229662 " transform="matrix(0.75,0,0,0.75,169.664819,5.234006)"/></g><g clip-rule="nonzero" clip-path="url(#4b5274b2eb)"><path style=" stroke:none;fill-rule:nonzero;fill:#000000;fill-opacity:1;" d="M 169.871094 54.378906 L 169.871094 95.183594 M 229.289062 54.378906 L 229.289062 95.183594 M 287.886719 54.378906 L 287.886719 95.183594 M 169.664062 54.175781 L 288.089844 54.175781 M 169.664062 95.390625 L 288.089844 95.390625 "/></g><g clip-rule="nonzero" clip-path="url(#012053764a)"><path style="fill:none;stroke-width:0.545178;stroke-linecap:butt;stroke-linejoin:miter;stroke:#000000;stroke-opacity:1;stroke-miterlimit:4;" d="M 0.275033 0.545795 L 0.275033 54.952049 M 79.498996 0.545795 L 79.498996 54.952049 M 157.629209 0.545795 L 157.629209 54.952049 M -0.0010082 0.274962 L 157.900043 0.274962 M -0.0010082 55.22809 L 157.900043 55.22809 " transform="matrix(0.75,0,0,0.75,169.664819,53.96956)"/></g><g clip-rule="nonzero" clip-path="url(#e93e33cb57)"><path style=" stroke:none;fill-rule:nonzero;fill:#000000;fill-opacity:1;" d="M 266.917969 66.789062 C 266.273438 65.886719 265.382812 65.195312 264.25 64.71875 C 263.121094 64.246094 261.816406 64.003906 260.339844 64.003906 C 258.996094 64.003906 257.769531 64.238281 256.660156 64.710938 C 255.550781 65.175781 254.65625 65.890625 253.980469 66.835938 C 253.441406 67.589844 253.109375 68.5 252.972656 69.570312 C 252.914062 70.039062 253.292969 70.449219 253.769531 70.449219 L 256.742188 70.449219 C 257.125 70.449219 257.445312 70.1875 257.527344 69.820312 C 257.601562 69.496094 257.722656 69.203125 257.894531 68.953125 C 258.167969 68.550781 258.519531 68.242188 258.953125 68.035156 C 259.382812 67.828125 259.835938 67.722656 260.320312 67.722656 C 260.816406 67.722656 261.269531 67.824219 261.683594 68.03125 C 262.09375 68.234375 262.421875 68.527344 262.664062 68.90625 C 262.910156 69.285156 263.03125 69.722656 263.03125 70.226562 C 263.03125 70.699219 262.925781 71.128906 262.710938 71.507812 C 262.496094 71.886719 262.207031 72.234375 261.84375 72.546875 C 261.476562 72.863281 261.074219 73.164062 260.613281 73.457031 C 259.996094 73.835938 259.46875 74.257812 259.035156 74.722656 C 258.59375 75.1875 258.265625 75.796875 258.039062 76.554688 C 257.8125 77.316406 257.695312 78.328125 257.691406 79.597656 L 257.691406 80.234375 C 257.691406 80.664062 258.046875 81.019531 258.492188 81.019531 L 261.105469 81.019531 C 261.546875 81.019531 261.910156 80.667969 261.910156 80.234375 L 261.910156 79.597656 C 261.917969 78.882812 262.011719 78.285156 262.191406 77.800781 C 262.371094 77.316406 262.652344 76.882812 263.023438 76.511719 C 263.398438 76.144531 263.878906 75.789062 264.464844 75.441406 C 265.164062 75.035156 265.765625 74.578125 266.277344 74.070312 C 266.785156 73.566406 267.1875 72.980469 267.476562 72.324219 C 267.757812 71.664062 267.90625 70.90625 267.90625 70.058594 C 267.890625 68.78125 267.5625 67.691406 266.917969 66.789062 Z M 266.917969 66.789062 "/></g><g clip-rule="nonzero" clip-path="url(#49961b4667)"><path style=" stroke:none;fill-rule:nonzero;fill:#000000;fill-opacity:1;" d="M 259.878906 82.785156 C 259.136719 82.785156 258.507812 83.042969 257.984375 83.550781 C 257.460938 84.058594 257.203125 84.671875 257.210938 85.382812 C 257.203125 86.101562 257.460938 86.722656 257.984375 87.234375 C 258.507812 87.75 259.136719 88.003906 259.878906 88.003906 C 260.355469 88.003906 260.792969 87.882812 261.191406 87.648438 C 261.589844 87.410156 261.914062 87.097656 262.164062 86.699219 C 262.410156 86.300781 262.539062 85.863281 262.542969 85.382812 C 262.535156 84.667969 262.265625 84.058594 261.730469 83.550781 C 261.203125 83.042969 260.582031 82.785156 259.878906 82.785156 Z M 259.878906 82.785156 "/></g><g clip-rule="nonzero" clip-path="url(#d2474c4224)"><path style=" stroke:none;fill-rule:nonzero;fill:#004aad;fill-opacity:1;" d="M 199.683594 42.855469 C 190.402344 42.855469 182.808594 35.261719 182.808594 25.980469 C 182.808594 16.699219 190.402344 9.105469 199.683594 9.105469 C 208.964844 9.105469 216.558594 16.699219 216.558594 25.980469 C 216.558594 35.261719 208.964844 42.855469 199.683594 42.855469 Z M 199.683594 42.855469 "/></g><g clip-rule="nonzero" clip-path="url(#32b08a8c4d)"><path style=" stroke:none;fill-rule:nonzero;fill:#004aad;fill-opacity:1;" d="M 260.191406 42.855469 C 250.910156 42.855469 243.316406 35.261719 243.316406 25.980469 C 243.316406 16.699219 250.910156 9.105469 260.191406 9.105469 C 269.472656 9.105469 277.066406 16.699219 277.066406 25.980469 C 277.066406 35.261719 269.472656 42.855469 260.191406 42.855469 Z M 260.191406 42.855469 "/></g><g clip-rule="nonzero" clip-path="url(#386078141e)"><path style=" stroke:none;fill-rule:nonzero;fill:#004aad;fill-opacity:1;" d="M 182.808594 60.019531 L 215.515625 60.019531 L 215.515625 90.695312 L 182.808594 90.695312 Z M 182.808594 60.019531 "/></g><g clip-rule="nonzero" clip-path="url(#26f4c3ab48)"><path style=" stroke:none;fill-rule:nonzero;fill:#000000;fill-opacity:1;" d="M 134.660156 100 L 134.660156 131.585938 M 181.796875 100 L 181.796875 131.585938 M 228.304688 100 L 228.304688 131.585938 M 276.070312 100 L 276.070312 131.585938 M 323.839844 100 L 323.839844 131.585938 M 134.335938 99.671875 L 324.164062 99.671875 M 134.335938 131.914062 L 324.164062 131.914062 "/></g><g clip-rule="nonzero" clip-path="url(#13718794b9)"><path style="fill:none;stroke-width:0.871773;stroke-linecap:butt;stroke-linejoin:miter;stroke:#000000;stroke-opacity:1;stroke-miterlimit:4;" d="M 0.434282 0.874238 L 0.434282 42.988823 M 63.283244 0.874238 L 63.283244 42.988823 M 125.293664 0.874238 L 125.293664 42.988823 M 188.981168 0.874238 L 188.981168 42.988823 M 252.67388 0.874238 L 252.67388 42.988823 M 0.00199038 0.436738 L 253.106172 0.436738 M 0.00199038 43.426323 L 253.106172 43.426323 " transform="matrix(0.75,0,0,0.75,134.334445,99.344322)"/></g><g clip-rule="nonzero" clip-path="url(#c8f1b0e0a4)"><path style="fill-rule:nonzero;fill:#000000;fill-opacity:1;stroke-width:0.871773;stroke-linecap:butt;stroke-linejoin:miter;stroke:#000000;stroke-opacity:1;stroke-miterlimit:4;" d="M 0.434282 0.873408 L 0.434282 16.347367 M 63.585327 0.873408 L 63.585327 16.347367 M 124.694706 0.873408 L 124.694706 16.347367 M 188.949918 0.873408 L 188.949918 16.347367 M 252.67388 0.873408 L 252.67388 16.347367 M 0.00199038 0.435908 L 253.106172 0.435908 M 0.00199038 16.779659 L 253.106172 16.779659 " transform="matrix(0.75,0,0,0.75,134.334445,135.001194)"/></g><g style="fill:#000000;fill-opacity:1;"><g transform="translate(202.923566, 143.417893)"><path style="stroke:none" d="M 0.28125 0 L 0.28125 -0.765625 L 1.421875 -1.84375 C 1.765625 -2.175781 2.035156 -2.476562 2.234375 -2.75 C 2.429688 -3.03125 2.566406 -3.316406 2.640625 -3.609375 C 2.722656 -3.898438 2.765625 -4.234375 2.765625 -4.609375 C 2.765625 -5.046875 2.710938 -5.363281 2.609375 -5.5625 C 2.503906 -5.757812 2.328125 -5.859375 2.078125 -5.859375 C 1.890625 -5.859375 1.742188 -5.800781 1.640625 -5.6875 C 1.546875 -5.570312 1.476562 -5.378906 1.4375 -5.109375 C 1.394531 -4.847656 1.375 -4.484375 1.375 -4.015625 C 1.0625 -4.015625 0.804688 -4.078125 0.609375 -4.203125 C 0.410156 -4.328125 0.3125 -4.523438 0.3125 -4.796875 C 0.3125 -5.117188 0.460938 -5.390625 0.765625 -5.609375 C 1.078125 -5.828125 1.53125 -5.9375 2.125 -5.9375 C 2.738281 -5.9375 3.203125 -5.816406 3.515625 -5.578125 C 3.835938 -5.335938 4 -5 4 -4.5625 C 4 -4.375 3.960938 -4.191406 3.890625 -4.015625 C 3.828125 -3.835938 3.707031 -3.644531 3.53125 -3.4375 C 3.351562 -3.226562 3.113281 -2.988281 2.8125 -2.71875 C 2.519531 -2.457031 2.144531 -2.148438 1.6875 -1.796875 L 0.546875 -0.90625 L 3.3125 -0.90625 C 3.570312 -0.90625 3.757812 -0.941406 3.875 -1.015625 C 4 -1.097656 4.070312 -1.25 4.09375 -1.46875 L 4.125 -1.71875 L 4.203125 -1.71875 L 4.15625 0 Z M 0.28125 0 "/></g></g><g style="fill:#000000;fill-opacity:1;"><g transform="translate(251.140595, 143.417893)"><path style="stroke:none" d="M 1.984375 0.078125 C 1.378906 0.078125 0.9375 -0.0195312 0.65625 -0.21875 C 0.375 -0.414062 0.234375 -0.644531 0.234375 -0.90625 C 0.234375 -1.113281 0.300781 -1.269531 0.4375 -1.375 C 0.570312 -1.488281 0.734375 -1.546875 0.921875 -1.546875 C 0.921875 -1.140625 0.960938 -0.828125 1.046875 -0.609375 C 1.140625 -0.390625 1.257812 -0.234375 1.40625 -0.140625 C 1.5625 -0.046875 1.738281 0 1.9375 0 C 2.289062 0 2.546875 -0.132812 2.703125 -0.40625 C 2.859375 -0.675781 2.9375 -1.066406 2.9375 -1.578125 C 2.9375 -1.941406 2.894531 -2.222656 2.8125 -2.421875 C 2.726562 -2.628906 2.585938 -2.773438 2.390625 -2.859375 C 2.191406 -2.941406 1.9375 -2.984375 1.625 -2.984375 L 1.171875 -2.984375 L 1.171875 -3.0625 L 1.625 -3.0625 C 1.914062 -3.0625 2.140625 -3.109375 2.296875 -3.203125 C 2.460938 -3.296875 2.578125 -3.445312 2.640625 -3.65625 C 2.710938 -3.863281 2.75 -4.140625 2.75 -4.484375 C 2.75 -4.984375 2.6875 -5.335938 2.5625 -5.546875 C 2.445312 -5.753906 2.28125 -5.859375 2.0625 -5.859375 C 1.769531 -5.859375 1.578125 -5.707031 1.484375 -5.40625 C 1.398438 -5.113281 1.359375 -4.703125 1.359375 -4.171875 C 1.023438 -4.171875 0.765625 -4.226562 0.578125 -4.34375 C 0.390625 -4.457031 0.296875 -4.640625 0.296875 -4.890625 C 0.296875 -5.179688 0.445312 -5.425781 0.75 -5.625 C 1.0625 -5.832031 1.515625 -5.9375 2.109375 -5.9375 C 2.691406 -5.9375 3.148438 -5.816406 3.484375 -5.578125 C 3.828125 -5.347656 4 -5.007812 4 -4.5625 C 4 -4.332031 3.941406 -4.109375 3.828125 -3.890625 C 3.710938 -3.671875 3.519531 -3.484375 3.25 -3.328125 C 2.988281 -3.179688 2.628906 -3.085938 2.171875 -3.046875 C 2.828125 -3.046875 3.328125 -2.921875 3.671875 -2.671875 C 4.023438 -2.429688 4.203125 -2.0625 4.203125 -1.5625 C 4.203125 -1.164062 4.097656 -0.847656 3.890625 -0.609375 C 3.679688 -0.367188 3.40625 -0.191406 3.0625 -0.078125 C 2.726562 0.0234375 2.367188 0.078125 1.984375 0.078125 Z M 1.984375 0.078125 "/></g></g><g style="fill:#000000;fill-opacity:1;"><g transform="translate(155.022885, 143.417893)"><path style="stroke:none" d="M 0.796875 0 L 0.796875 -0.078125 L 1.46875 -0.078125 C 1.601562 -0.078125 1.703125 -0.113281 1.765625 -0.1875 C 1.835938 -0.269531 1.875 -0.410156 1.875 -0.609375 L 1.875 -5.21875 C 1.625 -4.863281 1.425781 -4.609375 1.28125 -4.453125 C 1.132812 -4.296875 0.988281 -4.21875 0.84375 -4.21875 C 0.695312 -4.21875 0.578125 -4.257812 0.484375 -4.34375 C 0.390625 -4.4375 0.34375 -4.578125 0.34375 -4.765625 C 0.613281 -4.773438 0.835938 -4.800781 1.015625 -4.84375 C 1.203125 -4.882812 1.375 -4.960938 1.53125 -5.078125 C 1.695312 -5.191406 1.894531 -5.363281 2.125 -5.59375 L 2.421875 -5.890625 L 3.09375 -5.890625 L 3.09375 -0.609375 C 3.09375 -0.441406 3.117188 -0.3125 3.171875 -0.21875 C 3.234375 -0.125 3.347656 -0.078125 3.515625 -0.078125 L 4.1875 -0.078125 L 4.1875 0 Z M 0.796875 0 "/></g></g><g style="fill:#000000;fill-opacity:1;"><g transform="translate(298.223982, 143.417893)"><path style="stroke:none" d="M 1.46875 0 L 1.46875 -0.078125 L 1.703125 -0.078125 C 1.890625 -0.078125 2.046875 -0.109375 2.171875 -0.171875 C 2.304688 -0.242188 2.375 -0.410156 2.375 -0.671875 L 2.375 -1.53125 L 0.109375 -1.53125 L 0.109375 -2.03125 L 2.4375 -5.859375 L 3.578125 -5.859375 L 3.578125 -2.0625 L 4.421875 -2.0625 L 4.421875 -1.53125 L 3.578125 -1.53125 L 3.578125 -0.671875 C 3.578125 -0.410156 3.640625 -0.242188 3.765625 -0.171875 C 3.898438 -0.109375 4.0625 -0.078125 4.25 -0.078125 L 4.359375 -0.078125 L 4.359375 0 Z M 0.234375 -2.0625 L 2.375 -2.0625 L 2.375 -3.875 C 2.375 -4.175781 2.375 -4.488281 2.375 -4.8125 C 2.375 -5.132812 2.378906 -5.414062 2.390625 -5.65625 C 2.359375 -5.601562 2.304688 -5.519531 2.234375 -5.40625 C 2.171875 -5.289062 2.097656 -5.164062 2.015625 -5.03125 C 1.941406 -4.894531 1.867188 -4.769531 1.796875 -4.65625 C 1.722656 -4.539062 1.664062 -4.445312 1.625 -4.375 Z M 0.234375 -2.0625 "/></g></g><g clip-rule="nonzero" clip-path="url(#9de3d73040)"><path style=" stroke:none;fill-rule:nonzero;fill:#004aad;fill-opacity:1;" d="M 253.410156 129.058594 C 246.40625 129.058594 240.671875 123.328125 240.671875 116.320312 C 240.671875 109.316406 246.40625 103.582031 253.410156 103.582031 C 260.417969 103.582031 266.148438 109.316406 266.148438 116.320312 C 266.148438 123.328125 260.417969 129.058594 253.410156 129.058594 Z M 253.410156 129.058594 "/></g><g clip-rule="nonzero" clip-path="url(#de90498563)"><path style=" stroke:none;fill-rule:nonzero;fill:#ff3131;fill-opacity:1;" d="M 205.214844 127.992188 C 198.5 127.992188 193.007812 122.5 193.007812 115.789062 C 193.007812 109.074219 198.5 103.582031 205.214844 103.582031 C 211.925781 103.582031 217.417969 109.074219 217.417969 115.789062 C 217.417969 122.5 211.925781 127.992188 205.214844 127.992188 Z M 205.214844 127.992188 "/></g><g clip-rule="nonzero" clip-path="url(#d5b2e2e3dd)"><path style=" stroke:none;fill-rule:nonzero;fill:#ff3131;fill-opacity:1;" d="M 145.058594 104.152344 L 169.785156 104.152344 L 169.785156 128.5 L 145.058594 128.5 Z M 145.058594 104.152344 "/></g><g clip-rule="nonzero" clip-path="url(#b3df7d2ce0)"><path style=" stroke:none;fill-rule:nonzero;fill:#004aad;fill-opacity:1;" d="M 288.089844 103.652344 L 312.820312 103.652344 L 312.820312 128 L 288.089844 128 Z M 288.089844 103.652344 "/></g></g></svg>