<svg xmlns="http://www.w3.org/2000/svg" xmlns:xlink="http://www.w3.org/1999/xlink" width="600" zoomAndPan="magnify" viewBox="0 0 450 149.999998" height="200" preserveAspectRatio="xMidYMid meet" version="1.2"><defs/><g id="7a0d406902"><rect x="0" width="450" y="0" height="149.999998" style="fill:#ffffff;fill-opacity:1;stroke:none;"/><rect x="0" width="450" y="0" height="149.999998" style="fill:#ffffff;fill-opacity:1;stroke:none;"/><path style="fill-rule:nonzero;fill:#000000;fill-opacity:1;stroke-width:1;stroke-linecap:butt;stroke-linejoin:miter;stroke:#0c7b3b;stroke-opacity:1;stroke-miterlimit:4;" d="M 0.499995 0.999997 L 0.499995 199.000009 M 599.50003 0.999997 L 599.50003 199.000009 M -0.000005 0.499997 L 600.00003 0.499997 M -0.000005 199.500009 L 600.00003 199.500009 " transform="matrix(0.75,0,0,0.75,0.00000375,0.000002)"/><g style="fill:#0c7b3b;fill-opacity:1;"><g transform="translate(146.057995, 115.336094)"><path style="stroke:none" d="M 18.878906 -65.878906 L 18.878906 0 L 33.75 0 L 33.75 -65.878906 Z M 18.878906 -65.878906 "/></g></g><g style="fill:#0c7b3b;fill-opacity:1;"><g transform="translate(198.685401, 115.336094)"><path style="stroke:none" d="M 18.878906 -65.878906 L 18.878906 0 L 33.75 0 L 33.75 -65.878906 Z M 18.878906 -65.878906 "/></g></g><g style="fill:#0c7b3b;fill-opacity:1;"><g transform="translate(251.312806, 115.336094)"><path style="stroke:none" d="M 26.410156 -65.878906 C 14.871094 -65.878906 4.289062 -56.535156 4.289062 -32.511719 C 4.289062 -10.488281 12.964844 0.859375 26.601562 0.859375 C 39.949219 0.859375 48.335938 -11.058594 48.335938 -32.796875 C 48.335938 -57.488281 37.277344 -65.878906 26.410156 -65.878906 Z M 33.367188 -33.367188 C 33.367188 -15.636719 31.082031 -11.25 26.410156 -11.25 C 22.117188 -11.25 19.355469 -15.539062 19.355469 -32.511719 C 19.355469 -48.8125 21.738281 -53.675781 26.3125 -53.675781 C 31.652344 -53.675781 33.367188 -47.003906 33.367188 -33.367188 Z M 33.367188 -33.367188 "/></g></g></g></svg>