<svg xmlns="http://www.w3.org/2000/svg" xmlns:xlink="http://www.w3.org/1999/xlink" width="600" zoomAndPan="magnify" viewBox="0 0 450 149.999998" height="200" preserveAspectRatio="xMidYMid meet" version="1.2"><defs/><g id="208ace77b7"><rect x="0" width="450" y="0" height="149.999998" style="fill:#ffffff;fill-opacity:1;stroke:none;"/><rect x="0" width="450" y="0" height="149.999998" style="fill:#ffffff;fill-opacity:1;stroke:none;"/><path style="fill-rule:nonzero;fill:#000000;fill-opacity:1;stroke-width:1;stroke-linecap:butt;stroke-linejoin:miter;stroke:#0c7b3b;stroke-opacity:1;stroke-miterlimit:4;" d="M 0.499995 0.999997 L 0.499995 199.000009 M 599.50003 0.999997 L 599.50003 199.000009 M -0.000005 0.499997 L 600.00003 0.499997 M -0.000005 199.500009 L 600.00003 199.500009 " transform="matrix(0.75,0,0,0.75,0.00000375,0.000002)"/><g style="fill:#0c7b3b;fill-opacity:1;"><g transform="translate(162.20762, 105.292607)"><path style="stroke:none" d="M 9.4375 -65.023438 L 9.4375 -27.933594 C 12.011719 -28.601562 14.683594 -28.886719 17.445312 -28.886719 C 24.980469 -28.886719 30.222656 -25.359375 30.222656 -19.542969 C 30.222656 -14.777344 26.410156 -10.582031 19.925781 -10.582031 C 16.492188 -10.582031 11.917969 -11.34375 6.101562 -14.492188 L 6.101562 -2.667969 C 9.34375 -0.761719 16.398438 0.859375 21.832031 0.859375 C 37.375 0.859375 45.382812 -7.914062 45.382812 -20.308594 C 45.382812 -31.652344 36.515625 -39.851562 24.980469 -39.851562 C 23.929688 -39.851562 23.167969 -39.757812 22.40625 -39.757812 L 22.40625 -51.960938 L 43.1875 -51.960938 L 43.1875 -65.023438 Z M 9.4375 -65.023438 "/></g></g><g style="fill:#0c7b3b;fill-opacity:1;"><g transform="translate(214.835026, 105.292607)"><path style="stroke:none" d="M 26.410156 -65.878906 C 14.871094 -65.878906 4.289062 -56.535156 4.289062 -32.511719 C 4.289062 -10.488281 12.964844 0.859375 26.601562 0.859375 C 39.949219 0.859375 48.335938 -11.058594 48.335938 -32.796875 C 48.335938 -57.488281 37.277344 -65.878906 26.410156 -65.878906 Z M 33.367188 -33.367188 C 33.367188 -15.636719 31.082031 -11.25 26.410156 -11.25 C 22.117188 -11.25 19.355469 -15.539062 19.355469 -32.511719 C 19.355469 -48.8125 21.738281 -53.675781 26.3125 -53.675781 C 31.652344 -53.675781 33.367188 -47.003906 33.367188 -33.367188 Z M 33.367188 -33.367188 "/></g></g></g></svg>