<svg xmlns="http://www.w3.org/2000/svg" xmlns:xlink="http://www.w3.org/1999/xlink" width="189" zoomAndPan="magnify" viewBox="0 0 141.75 56.999997" height="76" preserveAspectRatio="xMidYMid meet" version="1.2"><defs><clipPath id="9b56cdce20"><path d="M 0 0.0507812 L 141.5 0.0507812 L 141.5 56.949219 L 0 56.949219 Z M 0 0.0507812 "/></clipPath><clipPath id="e89cca5871"><path d="M 59.574219 27 L 79 27 L 79 31 L 59.574219 31 Z M 59.574219 27 "/></clipPath><clipPath id="d412650e65"><path d="M 64 5.710938 L 75 5.710938 L 75 23 L 64 23 Z M 64 5.710938 "/></clipPath></defs><g id="2fe951650e"><g clip-rule="nonzero" clip-path="url(#9b56cdce20)"><path style=" stroke:none;fill-rule:nonzero;fill:#ffffff;fill-opacity:1;" d="M 0 0.0507812 L 141.5 0.0507812 L 141.5 56.949219 L 0 56.949219 Z M 0 0.0507812 "/><path style=" stroke:none;fill-rule:nonzero;fill:#ffffff;fill-opacity:1;" d="M 0 0.0507812 L 141.519531 0.0507812 L 141.519531 56.957031 L 0 56.957031 Z M 0 0.0507812 "/></g><path style=" stroke:none;fill-rule:nonzero;fill:#16a637;fill-opacity:1;" d="M 70.386719 42.40625 L 74.707031 38.042969 L 74.707031 35.390625 L 64.226562 35.390625 L 64.226562 37.628906 L 72.167969 37.628906 L 67.582031 42.296875 L 67.582031 44.296875 C 67.929688 44.269531 68.273438 44.269531 68.617188 44.296875 C 70.785156 44.296875 72.320312 45.359375 72.320312 47.625 C 72.339844 47.839844 72.339844 48.050781 72.316406 48.265625 C 72.292969 48.480469 72.246094 48.6875 72.175781 48.890625 C 72.105469 49.09375 72.015625 49.289062 71.90625 49.472656 C 71.796875 49.65625 71.667969 49.828125 71.519531 49.984375 C 71.371094 50.140625 71.210938 50.28125 71.03125 50.402344 C 70.855469 50.523438 70.667969 50.625 70.46875 50.707031 C 70.269531 50.785156 70.0625 50.84375 69.851562 50.882812 C 69.640625 50.917969 69.425781 50.933594 69.210938 50.925781 C 69.003906 50.9375 68.792969 50.925781 68.585938 50.894531 C 68.378906 50.863281 68.179688 50.808594 67.984375 50.734375 C 67.789062 50.65625 67.601562 50.5625 67.425781 50.445312 C 67.253906 50.328125 67.09375 50.195312 66.945312 50.042969 C 66.800781 49.894531 66.671875 49.726562 66.5625 49.550781 C 66.453125 49.371094 66.363281 49.183594 66.296875 48.984375 C 66.226562 48.785156 66.179688 48.582031 66.152344 48.375 C 66.128906 48.164062 66.128906 47.957031 66.148438 47.75 L 66.148438 47.210938 L 63.59375 47.210938 L 63.59375 47.816406 C 63.59375 50.773438 65.609375 52.925781 69.210938 52.925781 C 69.589844 52.953125 69.964844 52.941406 70.339844 52.890625 C 70.710938 52.839844 71.078125 52.753906 71.433594 52.625 C 71.789062 52.5 72.128906 52.335938 72.449219 52.140625 C 72.769531 51.941406 73.066406 51.710938 73.339844 51.453125 C 73.617188 51.191406 73.859375 50.90625 74.074219 50.59375 C 74.289062 50.285156 74.464844 49.953125 74.613281 49.605469 C 74.757812 49.257812 74.863281 48.898438 74.933594 48.527344 C 75.003906 48.15625 75.035156 47.78125 75.023438 47.402344 C 75.035156 47.085938 75.015625 46.773438 74.96875 46.460938 C 74.917969 46.148438 74.835938 45.84375 74.726562 45.546875 C 74.617188 45.25 74.480469 44.964844 74.3125 44.695312 C 74.148438 44.425781 73.957031 44.175781 73.742188 43.941406 C 73.527344 43.710938 73.289062 43.503906 73.03125 43.316406 C 72.777344 43.132812 72.503906 42.972656 72.214844 42.839844 C 71.929688 42.707031 71.628906 42.605469 71.324219 42.53125 C 71.015625 42.460938 70.703125 42.417969 70.386719 42.40625 Z M 70.386719 42.40625 "/><g clip-rule="nonzero" clip-path="url(#e89cca5871)"><path style=" stroke:none;fill-rule:nonzero;fill:#16a637;fill-opacity:1;" d="M 59.644531 27.839844 L 78.960938 27.839844 L 78.960938 30.601562 L 59.644531 30.601562 Z M 59.644531 27.839844 "/></g><g clip-rule="nonzero" clip-path="url(#d412650e65)"><path style=" stroke:none;fill-rule:nonzero;fill:#16a637;fill-opacity:1;" d="M 74.183594 20.6875 L 70.605469 20.6875 L 70.605469 5.65625 L 64.53125 5.65625 L 64.53125 7.90625 L 68.023438 7.90625 L 68.023438 20.6875 L 64.421875 20.6875 L 64.421875 22.914062 L 74.183594 22.914062 Z M 74.183594 20.6875 "/></g></g></svg>