<svg xmlns="http://www.w3.org/2000/svg" xmlns:xlink="http://www.w3.org/1999/xlink" width="600" zoomAndPan="magnify" viewBox="0 0 450 149.999998" height="200" preserveAspectRatio="xMidYMid meet" version="1.2"><defs><clipPath id="1fe2b63377"><path d="M 386.773438 24.613281 L 434.773438 24.613281 L 434.773438 80 L 386.773438 80 Z M 386.773438 24.613281 "/></clipPath><clipPath id="19ce2cf0ad"><path d="M 400 85 L 418 85 L 418 102.613281 L 400 102.613281 Z M 400 85 "/></clipPath></defs><g id="8ca8542d9f"><rect x="0" width="450" y="0" height="149.999998" style="fill:#ffffff;fill-opacity:1;stroke:none;"/><rect x="0" width="450" y="0" height="149.999998" style="fill:#ffffff;fill-opacity:1;stroke:none;"/><path style="fill-rule:nonzero;fill:#000000;fill-opacity:1;stroke-width:1;stroke-linecap:butt;stroke-linejoin:miter;stroke:#0c7b3b;stroke-opacity:1;stroke-miterlimit:4;" d="M 0.499995 0.999997 L 0.499995 199.000009 M 599.50003 0.999997 L 599.50003 199.000009 M -0.000005 0.499997 L 600.00003 0.499997 M -0.000005 199.500009 L 600.00003 199.500009 " transform="matrix(0.75,0,0,0.75,0.00000375,0.000002)"/><g style="fill:#0c7b3b;fill-opacity:1;"><g transform="translate(33.132523, 98.64483)"><path style="stroke:none" d="M 39.292969 -75.007812 L 4.449219 -30.066406 L 4.449219 -18.234375 L 33.324219 -18.234375 L 33.324219 0 L 49.714844 0 L 49.714844 -18.234375 L 54.707031 -18.234375 L 54.707031 -30.066406 L 49.714844 -30.066406 L 49.714844 -75.007812 Z M 33.324219 -30.066406 L 17.476562 -30.066406 L 33.324219 -50.257812 Z M 33.324219 -30.066406 "/></g></g><g style="fill:#0c7b3b;fill-opacity:1;"><g transform="translate(93.046036, 98.64483)"><path style="stroke:none" d=""/></g></g><g style="fill:#0c7b3b;fill-opacity:1;"><g transform="translate(123.21987, 98.64483)"><path style="stroke:none" d="M 24.640625 -64.152344 L 24.640625 -43.960938 L 4.449219 -43.960938 L 4.449219 -30.066406 L 24.640625 -30.066406 L 24.640625 -9.878906 L 38.644531 -9.878906 L 38.644531 -30.066406 L 58.832031 -30.066406 L 58.832031 -43.960938 L 38.644531 -43.960938 L 38.644531 -64.152344 Z M 24.640625 -64.152344 "/></g></g><g style="fill:#0c7b3b;fill-opacity:1;"><g transform="translate(186.498095, 98.64483)"><path style="stroke:none" d=""/></g></g><g style="fill:#0c7b3b;fill-opacity:1;"><g transform="translate(216.671929, 98.64483)"><path style="stroke:none" d="M 25.074219 -75.007812 C 19.539062 -75.007812 13.027344 -73.921875 8.140625 -71.75 L 8.140625 -58.722656 C 13.894531 -61.65625 17.691406 -62.632812 22.035156 -62.632812 C 27.570312 -62.632812 32.347656 -59.050781 32.347656 -53.949219 C 32.347656 -49.714844 28.65625 -45.480469 22.144531 -44.9375 L 22.144531 -31.914062 C 29.742188 -31.152344 33.542969 -26.917969 33.542969 -21.601562 C 33.542969 -16.171875 28.875 -11.941406 22.578125 -11.941406 C 17.042969 -11.941406 11.398438 -13.894531 6.296875 -17.585938 L 6.296875 -3.257812 C 11.507812 -0.433594 18.5625 0.976562 24.855469 0.976562 C 38.96875 0.976562 50.800781 -6.40625 50.800781 -20.625 C 50.800781 -30.5 46.242188 -36.253906 37.773438 -39.726562 C 44.613281 -42.984375 48.738281 -49.933594 48.738281 -56.878906 C 48.738281 -67.949219 38.75 -75.007812 25.074219 -75.007812 Z M 25.074219 -75.007812 "/></g></g><g style="fill:#0c7b3b;fill-opacity:1;"><g transform="translate(276.585442, 98.64483)"><path style="stroke:none" d=""/></g></g><g style="fill:#0c7b3b;fill-opacity:1;"><g transform="translate(306.759276, 98.64483)"><path style="stroke:none" d="M 4.449219 -55.792969 L 4.449219 -41.789062 L 58.832031 -41.789062 L 58.832031 -55.792969 Z M 4.449219 -32.238281 L 4.449219 -18.34375 L 58.832031 -18.34375 L 58.832031 -32.238281 Z M 4.449219 -32.238281 "/></g></g><g style="fill:#0c7b3b;fill-opacity:1;"><g transform="translate(370.046565, 98.64483)"><path style="stroke:none" d=""/></g></g><g clip-rule="nonzero" clip-path="url(#1fe2b63377)"><path style=" stroke:none;fill-rule:nonzero;fill:#000000;fill-opacity:1;" d="M 431.597656 33.660156 C 429.535156 30.726562 426.6875 28.480469 423.058594 26.9375 C 419.445312 25.390625 415.269531 24.613281 410.546875 24.613281 C 406.242188 24.613281 402.316406 25.375 398.765625 26.90625 C 395.214844 28.417969 392.355469 30.742188 390.195312 33.816406 C 388.476562 36.265625 387.410156 39.230469 386.972656 42.707031 C 386.785156 44.222656 387.988281 45.5625 389.523438 45.5625 L 399.035156 45.5625 C 400.253906 45.5625 401.285156 44.703125 401.550781 43.519531 C 401.785156 42.457031 402.175781 41.507812 402.726562 40.695312 C 403.601562 39.386719 404.726562 38.386719 406.101562 37.714844 C 407.480469 37.042969 408.933594 36.703125 410.484375 36.703125 C 412.078125 36.703125 413.519531 37.03125 414.847656 37.699219 C 416.160156 38.355469 417.210938 39.308594 417.992188 40.539062 C 418.773438 41.773438 419.164062 43.191406 419.164062 44.828125 C 419.164062 46.375 418.820312 47.761719 418.132812 48.996094 C 417.445312 50.226562 416.519531 51.367188 415.363281 52.378906 C 414.191406 53.410156 412.890625 54.375 411.421875 55.328125 C 409.449219 56.558594 407.761719 57.933594 406.371094 59.445312 C 404.960938 60.960938 403.914062 62.941406 403.179688 65.40625 C 402.457031 67.871094 402.082031 71.164062 402.066406 75.296875 L 402.066406 77.355469 C 402.066406 78.757812 403.210938 79.914062 404.632812 79.914062 L 413 79.914062 C 414.410156 79.914062 415.566406 78.773438 415.566406 77.355469 L 415.566406 75.296875 C 415.597656 72.972656 415.894531 71.023438 416.472656 69.445312 C 417.050781 67.871094 417.945312 66.464844 419.132812 65.265625 C 420.335938 64.0625 421.871094 62.910156 423.746094 61.785156 C 425.984375 60.460938 427.90625 58.980469 429.550781 57.324219 C 431.175781 55.6875 432.460938 53.785156 433.382812 51.648438 C 434.289062 49.507812 434.757812 47.042969 434.757812 44.285156 C 434.710938 40.132812 433.664062 36.59375 431.597656 33.660156 Z M 431.597656 33.660156 "/></g><g clip-rule="nonzero" clip-path="url(#19ce2cf0ad)"><path style=" stroke:none;fill-rule:nonzero;fill:#000000;fill-opacity:1;" d="M 409.074219 85.65625 C 406.699219 85.65625 404.679688 86.480469 403.007812 88.136719 C 401.332031 89.789062 400.503906 91.785156 400.535156 94.09375 C 400.503906 96.433594 401.332031 98.445312 403.007812 100.117188 C 404.679688 101.785156 406.699219 102.613281 409.074219 102.613281 C 410.59375 102.613281 412 102.222656 413.265625 101.457031 C 414.550781 100.675781 415.582031 99.664062 416.378906 98.367188 C 417.179688 97.074219 417.585938 95.652344 417.601562 94.09375 C 417.570312 91.769531 416.707031 89.789062 415.003906 88.136719 C 413.3125 86.480469 411.328125 85.65625 409.074219 85.65625 Z M 409.074219 85.65625 "/></g></g></svg>