<svg xmlns="http://www.w3.org/2000/svg" xmlns:xlink="http://www.w3.org/1999/xlink" width="600" zoomAndPan="magnify" viewBox="0 0 450 149.999998" height="200" preserveAspectRatio="xMidYMid meet" version="1.2"><defs><clipPath id="3d79159188"><path d="M 366.03125 27.683594 L 414.03125 27.683594 L 414.03125 83 L 366.03125 83 Z M 366.03125 27.683594 "/></clipPath><clipPath id="9e4d3ca657"><path d="M 379 88 L 397 88 L 397 105.683594 L 379 105.683594 Z M 379 88 "/></clipPath></defs><g id="30334563e8"><rect x="0" width="450" y="0" height="149.999998" style="fill:#ffffff;fill-opacity:1;stroke:none;"/><rect x="0" width="450" y="0" height="149.999998" style="fill:#ffffff;fill-opacity:1;stroke:none;"/><path style="fill-rule:nonzero;fill:#000000;fill-opacity:1;stroke-width:1;stroke-linecap:butt;stroke-linejoin:miter;stroke:#0c7b3b;stroke-opacity:1;stroke-miterlimit:4;" d="M 0.499995 0.999997 L 0.499995 199.000009 M 599.50003 0.999997 L 599.50003 199.000009 M -0.000005 0.499997 L 600.00003 0.499997 M -0.000005 199.500009 L 600.00003 199.500009 " transform="matrix(0.75,0,0,0.75,0.00000375,0.000002)"/><g style="fill:#0c7b3b;fill-opacity:1;"><g transform="translate(25.317955, 103.853082)"><path style="stroke:none" d="M 6.945312 -74.03125 L 6.945312 -59.265625 L 34.300781 -59.265625 L 14.4375 -4.667969 L 29.199219 0.976562 L 56.226562 -73.160156 L 56.226562 -74.03125 Z M 6.945312 -74.03125 "/></g></g><g style="fill:#0c7b3b;fill-opacity:1;"><g transform="translate(85.231468, 103.853082)"><path style="stroke:none" d="M 3.90625 -32.347656 L 3.90625 -17.910156 L 32.238281 -17.910156 L 32.238281 -32.347656 Z M 3.90625 -32.347656 "/></g></g><g style="fill:#0c7b3b;fill-opacity:1;"><g transform="translate(121.374952, 103.853082)"><path style="stroke:none" d=""/></g></g><g style="fill:#0c7b3b;fill-opacity:1;"><g transform="translate(151.548786, 103.853082)"><path style="stroke:none" d="M 10.746094 -74.03125 L 10.746094 -31.804688 C 13.675781 -32.5625 16.714844 -32.890625 19.863281 -32.890625 C 28.4375 -32.890625 34.410156 -28.875 34.410156 -22.253906 C 34.410156 -16.824219 30.066406 -12.046875 22.6875 -12.046875 C 18.777344 -12.046875 13.570312 -12.917969 6.945312 -16.5 L 6.945312 -3.039062 C 10.636719 -0.867188 18.671875 0.976562 24.855469 0.976562 C 42.550781 0.976562 51.667969 -9.007812 51.667969 -23.121094 C 51.667969 -36.039062 41.574219 -45.371094 28.4375 -45.371094 C 27.246094 -45.371094 26.378906 -45.265625 25.507812 -45.265625 L 25.507812 -59.160156 L 49.171875 -59.160156 L 49.171875 -74.03125 Z M 10.746094 -74.03125 "/></g></g><g style="fill:#0c7b3b;fill-opacity:1;"><g transform="translate(211.4623, 103.853082)"><path style="stroke:none" d=""/></g></g><g style="fill:#0c7b3b;fill-opacity:1;"><g transform="translate(241.636134, 103.853082)"><path style="stroke:none" d="M 4.449219 -55.792969 L 4.449219 -41.789062 L 58.832031 -41.789062 L 58.832031 -55.792969 Z M 4.449219 -32.238281 L 4.449219 -18.34375 L 58.832031 -18.34375 L 58.832031 -32.238281 Z M 4.449219 -32.238281 "/></g></g><g style="fill:#0c7b3b;fill-opacity:1;"><g transform="translate(304.915599, 103.853082)"><path style="stroke:none" d=""/></g></g><g clip-rule="nonzero" clip-path="url(#3d79159188)"><path style=" stroke:none;fill-rule:nonzero;fill:#000000;fill-opacity:1;" d="M 410.859375 36.730469 C 408.792969 33.796875 405.945312 31.550781 402.316406 30.007812 C 398.703125 28.460938 394.527344 27.683594 389.804688 27.683594 C 385.503906 27.683594 381.578125 28.445312 378.027344 29.976562 C 374.476562 31.488281 371.613281 33.8125 369.453125 36.886719 C 367.734375 39.335938 366.667969 42.300781 366.230469 45.777344 C 366.042969 47.292969 367.25 48.632812 368.78125 48.632812 L 378.292969 48.632812 C 379.511719 48.632812 380.542969 47.773438 380.808594 46.589844 C 381.042969 45.527344 381.4375 44.578125 381.984375 43.765625 C 382.859375 42.457031 383.984375 41.457031 385.363281 40.785156 C 386.738281 40.117188 388.191406 39.773438 389.742188 39.773438 C 391.335938 39.773438 392.777344 40.101562 394.105469 40.769531 C 395.417969 41.425781 396.46875 42.378906 397.25 43.609375 C 398.03125 44.84375 398.421875 46.261719 398.421875 47.898438 C 398.421875 49.445312 398.078125 50.832031 397.390625 52.066406 C 396.703125 53.296875 395.777344 54.4375 394.621094 55.449219 C 393.449219 56.480469 392.148438 57.449219 390.679688 58.398438 C 388.710938 59.632812 387.019531 61.003906 385.628906 62.515625 C 384.21875 64.03125 383.171875 66.011719 382.4375 68.476562 C 381.71875 70.941406 381.34375 74.234375 381.328125 78.367188 L 381.328125 80.425781 C 381.328125 81.832031 382.46875 82.984375 383.890625 82.984375 L 392.261719 82.984375 C 393.667969 82.984375 394.824219 81.84375 394.824219 80.425781 L 394.824219 78.367188 C 394.855469 76.042969 395.152344 74.09375 395.730469 72.515625 C 396.3125 70.941406 397.203125 69.539062 398.390625 68.335938 C 399.597656 67.136719 401.128906 65.980469 403.003906 64.855469 C 405.242188 63.53125 407.167969 62.050781 408.808594 60.394531 C 410.4375 58.757812 411.71875 56.855469 412.640625 54.71875 C 413.546875 52.582031 414.019531 50.117188 414.019531 47.355469 C 413.972656 43.203125 412.921875 39.664062 410.859375 36.730469 Z M 410.859375 36.730469 "/></g><g clip-rule="nonzero" clip-path="url(#9e4d3ca657)"><path style=" stroke:none;fill-rule:nonzero;fill:#000000;fill-opacity:1;" d="M 388.332031 88.726562 C 385.957031 88.726562 383.9375 89.550781 382.265625 91.207031 C 380.589844 92.859375 379.761719 94.855469 379.792969 97.164062 C 379.761719 99.503906 380.589844 101.515625 382.265625 103.1875 C 383.9375 104.855469 385.957031 105.683594 388.332031 105.683594 C 389.851562 105.683594 391.257812 105.292969 392.527344 104.527344 C 393.808594 103.75 394.839844 102.734375 395.636719 101.4375 C 396.4375 100.144531 396.84375 98.726562 396.859375 97.164062 C 396.828125 94.839844 395.96875 92.859375 394.261719 91.207031 C 392.574219 89.550781 390.585938 88.726562 388.332031 88.726562 Z M 388.332031 88.726562 "/></g></g></svg>