<svg xmlns="http://www.w3.org/2000/svg" xmlns:xlink="http://www.w3.org/1999/xlink" width="189" zoomAndPan="magnify" viewBox="0 0 141.12 56.999996" height="76" preserveAspectRatio="xMidYMid meet" version="1.2"><defs><clipPath id="5f8a77b7b6"><path d="M 0 0.175781 L 140.125 0.175781 L 140.125 56.53125 L 0 56.53125 Z M 0 0.175781 "/></clipPath><clipPath id="966dd80e4f"><path d="M 43.722656 0.175781 L 98.59375 0.175781 L 98.59375 55.050781 L 43.722656 55.050781 Z M 43.722656 0.175781 "/></clipPath></defs><g id="827f316825"><g clip-rule="nonzero" clip-path="url(#5f8a77b7b6)"><path style=" stroke:none;fill-rule:nonzero;fill:#ffffff;fill-opacity:1;" d="M 0 0.175781 L 140.148438 0.175781 L 140.148438 56.53125 L 0 56.53125 Z M 0 0.175781 "/><path style=" stroke:none;fill-rule:nonzero;fill:#ffffff;fill-opacity:1;" d="M 0 0.175781 L 140.148438 0.175781 L 140.148438 56.53125 L 0 56.53125 Z M 0 0.175781 "/></g><g clip-rule="nonzero" clip-path="url(#966dd80e4f)"><path style=" stroke:none;fill-rule:nonzero;fill:#004aad;fill-opacity:1;" d="M 71.152344 55.039062 C 56.066406 55.039062 43.722656 42.695312 43.722656 27.609375 C 43.722656 12.519531 56.066406 0.175781 71.152344 0.175781 C 86.238281 0.175781 98.582031 12.519531 98.582031 27.609375 C 98.582031 42.695312 86.238281 55.039062 71.152344 55.039062 Z M 71.152344 55.039062 "/></g></g></svg>