<svg xmlns="http://www.w3.org/2000/svg" xmlns:xlink="http://www.w3.org/1999/xlink" width="600" zoomAndPan="magnify" viewBox="0 0 450 149.999998" height="200" preserveAspectRatio="xMidYMid meet" version="1.2"><defs><clipPath id="76f317c438"><path d="M 374.40625 37.832031 L 409.65625 37.832031 L 409.65625 79 L 374.40625 79 Z M 374.40625 37.832031 "/></clipPath><clipPath id="c62678c9a8"><path d="M 384 82 L 398 82 L 398 94.832031 L 384 94.832031 Z M 384 82 "/></clipPath></defs><g id="095fe991dc"><rect x="0" width="450" y="0" height="149.999998" style="fill:#ffffff;fill-opacity:1;stroke:none;"/><rect x="0" width="450" y="0" height="149.999998" style="fill:#ffffff;fill-opacity:1;stroke:none;"/><path style="fill-rule:nonzero;fill:#000000;fill-opacity:1;stroke-width:1;stroke-linecap:butt;stroke-linejoin:miter;stroke:#0c7b3b;stroke-opacity:1;stroke-miterlimit:4;" d="M 0.499995 0.999997 L 0.499995 199.000009 M 599.50003 0.999997 L 599.50003 199.000009 M -0.000005 0.499997 L 600.00003 0.499997 M -0.000005 199.500009 L 600.00003 199.500009 " transform="matrix(0.75,0,0,0.75,0.00000375,0.000002)"/><g style="fill:#0c7b3b;fill-opacity:1;"><g transform="translate(40.410745, 91.816975)"><path style="stroke:none" d="M 20.957031 -55.273438 C 11.117188 -55.273438 2.800781 -47.511719 2.800781 -36.476562 C 2.800781 -26.875 9.597656 -19.199219 17.835938 -19.199219 C 19.199219 -19.199219 19.917969 -19.4375 21.355469 -19.757812 L 8.796875 0.71875 L 22.15625 0.71875 L 31.675781 -14.71875 C 36.636719 -22.796875 38.953125 -29.4375 38.953125 -36.875 C 38.953125 -47.914062 30.316406 -55.273438 20.957031 -55.273438 Z M 14.558594 -36.875 C 14.558594 -41.675781 17.117188 -45.035156 20.636719 -45.035156 C 24.238281 -45.035156 26.714844 -42.234375 26.714844 -36.875 C 26.714844 -32.15625 24.238281 -28.796875 20.636719 -28.796875 C 17.199219 -28.796875 14.558594 -31.835938 14.558594 -36.875 Z M 14.558594 -36.875 "/></g></g><g style="fill:#0c7b3b;fill-opacity:1;"><g transform="translate(84.561353, 91.816975)"><path style="stroke:none" d="M 21.917969 -55.273438 C 11.679688 -55.273438 5.359375 -49.113281 5.359375 -40.472656 C 5.359375 -35.753906 7.199219 -31.835938 12.078125 -28.796875 C 6.800781 -26.636719 3.839844 -21.515625 3.839844 -15.519531 C 3.839844 -5.917969 11.4375 0.71875 21.996094 0.71875 C 33.355469 0.71875 40.394531 -6 40.394531 -15.597656 C 40.394531 -21.355469 37.515625 -26.316406 32.234375 -28.796875 C 37.355469 -31.753906 38.875 -36.234375 38.875 -40.632812 C 38.875 -47.511719 33.355469 -55.273438 21.917969 -55.273438 Z M 16.957031 -39.753906 C 16.957031 -44.074219 18.796875 -47.113281 22.078125 -47.113281 C 25.355469 -47.113281 27.195312 -44.554688 27.195312 -39.835938 C 27.195312 -34.957031 25.355469 -32.15625 22.15625 -32.15625 C 18.71875 -32.15625 16.957031 -35.433594 16.957031 -39.753906 Z M 28.078125 -15.597656 C 28.078125 -10.398438 25.757812 -7.117188 22.238281 -7.117188 C 18.71875 -7.117188 16.078125 -10.558594 16.078125 -15.835938 C 16.078125 -21.039062 18.316406 -24.398438 22.15625 -24.398438 C 25.757812 -24.398438 28.078125 -21.355469 28.078125 -15.597656 Z M 28.078125 -15.597656 "/></g></g><g style="fill:#0c7b3b;fill-opacity:1;"><g transform="translate(128.71196, 91.816975)"><path style="stroke:none" d=""/></g></g><g style="fill:#0c7b3b;fill-opacity:1;"><g transform="translate(150.947229, 91.816975)"><path style="stroke:none" d="M 2.878906 -23.835938 L 2.878906 -13.199219 L 23.757812 -13.199219 L 23.757812 -23.835938 Z M 2.878906 -23.835938 "/></g></g><g style="fill:#0c7b3b;fill-opacity:1;"><g transform="translate(177.581567, 91.816975)"><path style="stroke:none" d=""/></g></g><g style="fill:#0c7b3b;fill-opacity:1;"><g transform="translate(199.816836, 91.816975)"><path style="stroke:none" d="M 20.398438 -55.273438 L 10.957031 -39.996094 C 5.277344 -30.796875 3.519531 -24.957031 3.519531 -18.398438 C 3.519531 -5.917969 12.160156 0.71875 21.835938 0.71875 C 32.15625 0.71875 39.675781 -7.4375 39.675781 -18.078125 C 39.675781 -27.355469 33.277344 -35.117188 24.398438 -35.117188 C 23.4375 -35.117188 22.796875 -35.035156 21.195312 -34.636719 L 33.835938 -55.273438 Z M 15.835938 -17.359375 C 15.835938 -22.636719 18.238281 -25.597656 21.675781 -25.597656 C 25.675781 -25.597656 27.917969 -21.996094 27.917969 -17.597656 C 27.917969 -13.039062 25.757812 -9.4375 21.835938 -9.4375 C 18.078125 -9.4375 15.835938 -12.398438 15.835938 -17.359375 Z M 15.835938 -17.359375 "/></g></g><g style="fill:#0c7b3b;fill-opacity:1;"><g transform="translate(243.967453, 91.816975)"><path style="stroke:none" d="M 20.316406 -55.273438 C 14.316406 -55.273438 10 -53.191406 5.039062 -50.074219 L 5.039062 -38.636719 C 9.4375 -42.875 14.636719 -45.433594 18.15625 -45.433594 C 22.316406 -45.433594 25.515625 -41.835938 25.515625 -37.753906 C 25.515625 -32.636719 22.796875 -26.476562 14.558594 -15.199219 C 10.480469 -9.679688 7.039062 -5.039062 4.320312 -1.601562 L 4.320312 0 L 40.394531 0 L 40.394531 -11.117188 L 22.796875 -11.117188 C 30.234375 -20.71875 31.675781 -23.277344 35.195312 -30.234375 C 36.796875 -33.515625 37.59375 -36.636719 37.59375 -39.996094 C 37.59375 -48.152344 32.234375 -55.273438 20.316406 -55.273438 Z M 20.316406 -55.273438 "/></g></g><g style="fill:#0c7b3b;fill-opacity:1;"><g transform="translate(288.118052, 91.816975)"><path style="stroke:none" d=""/></g></g><g style="fill:#0c7b3b;fill-opacity:1;"><g transform="translate(310.353321, 91.816975)"><path style="stroke:none" d="M 3.28125 -41.113281 L 3.28125 -30.796875 L 43.355469 -30.796875 L 43.355469 -41.113281 Z M 3.28125 -23.757812 L 3.28125 -13.519531 L 43.355469 -13.519531 L 43.355469 -23.757812 Z M 3.28125 -23.757812 "/></g></g><g style="fill:#0c7b3b;fill-opacity:1;"><g transform="translate(356.983676, 91.816975)"><path style="stroke:none" d=""/></g></g><g clip-rule="nonzero" clip-path="url(#76f317c438)"><path style=" stroke:none;fill-rule:nonzero;fill:#000000;fill-opacity:1;" d="M 407.324219 44.445312 C 405.808594 42.300781 403.71875 40.660156 401.054688 39.53125 C 398.398438 38.402344 395.332031 37.832031 391.863281 37.832031 C 388.707031 37.832031 385.820312 38.390625 383.214844 39.507812 C 380.609375 40.613281 378.503906 42.3125 376.921875 44.558594 C 375.65625 46.347656 374.875 48.515625 374.554688 51.054688 C 374.417969 52.164062 375.300781 53.140625 376.425781 53.140625 L 383.410156 53.140625 C 384.304688 53.140625 385.0625 52.515625 385.257812 51.648438 C 385.429688 50.875 385.71875 50.179688 386.121094 49.585938 C 386.765625 48.628906 387.589844 47.898438 388.601562 47.410156 C 389.613281 46.917969 390.679688 46.667969 391.816406 46.667969 C 392.988281 46.667969 394.046875 46.90625 395.023438 47.398438 C 395.988281 47.875 396.757812 48.570312 397.332031 49.472656 C 397.90625 50.371094 398.191406 51.410156 398.191406 52.605469 C 398.191406 53.734375 397.941406 54.75 397.433594 55.652344 C 396.929688 56.550781 396.25 57.382812 395.402344 58.125 C 394.539062 58.875 393.585938 59.582031 392.507812 60.277344 C 391.058594 61.179688 389.820312 62.183594 388.796875 63.289062 C 387.761719 64.394531 386.992188 65.84375 386.453125 67.644531 C 385.925781 69.445312 385.648438 71.851562 385.636719 74.871094 L 385.636719 76.375 C 385.636719 77.402344 386.476562 78.246094 387.523438 78.246094 L 393.667969 78.246094 C 394.699219 78.246094 395.550781 77.414062 395.550781 76.375 L 395.550781 74.871094 C 395.574219 73.171875 395.792969 71.746094 396.21875 70.597656 C 396.640625 69.445312 397.296875 68.417969 398.167969 67.539062 C 399.054688 66.664062 400.179688 65.820312 401.558594 65 C 403.199219 64.03125 404.613281 62.945312 405.820312 61.738281 C 407.015625 60.542969 407.957031 59.148438 408.632812 57.589844 C 409.300781 56.027344 409.644531 54.226562 409.644531 52.207031 C 409.609375 49.175781 408.839844 46.585938 407.324219 44.445312 Z M 407.324219 44.445312 "/></g><g clip-rule="nonzero" clip-path="url(#c62678c9a8)"><path style=" stroke:none;fill-rule:nonzero;fill:#000000;fill-opacity:1;" d="M 390.785156 82.441406 C 389.039062 82.441406 387.554688 83.042969 386.328125 84.253906 C 385.097656 85.460938 384.488281 86.921875 384.511719 88.609375 C 384.488281 90.316406 385.097656 91.789062 386.328125 93.007812 C 387.554688 94.226562 389.039062 94.832031 390.785156 94.832031 C 391.898438 94.832031 392.933594 94.546875 393.863281 93.988281 C 394.804688 93.417969 395.5625 92.679688 396.148438 91.730469 C 396.734375 90.785156 397.03125 89.746094 397.042969 88.609375 C 397.019531 86.910156 396.390625 85.460938 395.136719 84.253906 C 393.898438 83.042969 392.4375 82.441406 390.785156 82.441406 Z M 390.785156 82.441406 "/></g></g></svg>