<svg xmlns="http://www.w3.org/2000/svg" xmlns:xlink="http://www.w3.org/1999/xlink" width="189" zoomAndPan="magnify" viewBox="0 0 141.12 56.999996" height="76" preserveAspectRatio="xMidYMid meet" version="1.2"><defs><clipPath id="dc3ddeadd3"><path d="M 0 0.175781 L 140.125 0.175781 L 140.125 56.53125 L 0 56.53125 Z M 0 0.175781 "/></clipPath><clipPath id="65e99601ed"><path d="M 42.039062 0.175781 L 96.914062 0.175781 L 96.914062 55 L 42.039062 55 Z M 42.039062 0.175781 "/></clipPath></defs><g id="9734a7f54b"><g clip-rule="nonzero" clip-path="url(#dc3ddeadd3)"><path style=" stroke:none;fill-rule:nonzero;fill:#ffffff;fill-opacity:1;" d="M 0 0.175781 L 140.148438 0.175781 L 140.148438 56.53125 L 0 56.53125 Z M 0 0.175781 "/><path style=" stroke:none;fill-rule:nonzero;fill:#ffffff;fill-opacity:1;" d="M 0 0.175781 L 140.148438 0.175781 L 140.148438 56.53125 L 0 56.53125 Z M 0 0.175781 "/></g><g clip-rule="nonzero" clip-path="url(#65e99601ed)"><path style=" stroke:none;fill-rule:nonzero;fill:#ff3131;fill-opacity:1;" d="M 69.359375 54.816406 C 54.332031 54.816406 42.039062 42.523438 42.039062 27.496094 C 42.039062 12.472656 54.332031 0.175781 69.359375 0.175781 C 84.386719 0.175781 96.679688 12.472656 96.679688 27.496094 C 96.679688 42.523438 84.386719 54.816406 69.359375 54.816406 Z M 69.359375 54.816406 "/></g></g></svg>