<svg xmlns="http://www.w3.org/2000/svg" xmlns:xlink="http://www.w3.org/1999/xlink" width="600" zoomAndPan="magnify" viewBox="0 0 450 149.999998" height="200" preserveAspectRatio="xMidYMid meet" version="1.2"><defs/><g id="b35cac261d"><rect x="0" width="450" y="0" height="149.999998" style="fill:#ffffff;fill-opacity:1;stroke:none;"/><rect x="0" width="450" y="0" height="149.999998" style="fill:#ffffff;fill-opacity:1;stroke:none;"/><path style="fill-rule:nonzero;fill:#000000;fill-opacity:1;stroke-width:1;stroke-linecap:butt;stroke-linejoin:miter;stroke:#0c7b3b;stroke-opacity:1;stroke-miterlimit:4;" d="M 0.499995 0.999997 L 0.499995 199.000009 M 599.50003 0.999997 L 599.50003 199.000009 M -0.000005 0.499997 L 600.00003 0.499997 M -0.000005 199.500009 L 600.00003 199.500009 " transform="matrix(0.75,0,0,0.75,0.00000375,0.000002)"/><g style="fill:#0c7b3b;fill-opacity:1;"><g transform="translate(146.057114, 109.93072)"><path style="stroke:none" d="M 18.878906 -65.878906 L 18.878906 0 L 33.75 0 L 33.75 -65.878906 Z M 18.878906 -65.878906 "/></g></g><g style="fill:#0c7b3b;fill-opacity:1;"><g transform="translate(198.68452, 109.93072)"><path style="stroke:none" d="M 22.023438 -65.878906 C 17.160156 -65.878906 11.441406 -64.925781 7.152344 -63.019531 L 7.152344 -51.578125 C 12.203125 -54.152344 15.539062 -55.011719 19.355469 -55.011719 C 24.214844 -55.011719 28.410156 -51.863281 28.410156 -47.382812 C 28.410156 -43.664062 25.167969 -39.949219 19.449219 -39.46875 L 19.449219 -28.03125 C 26.125 -27.363281 29.460938 -23.644531 29.460938 -18.972656 C 29.460938 -14.207031 25.359375 -10.488281 19.832031 -10.488281 C 14.96875 -10.488281 10.011719 -12.203125 5.53125 -15.445312 L 5.53125 -2.859375 C 10.105469 -0.382812 16.304688 0.859375 21.832031 0.859375 C 34.226562 0.859375 44.617188 -5.625 44.617188 -18.113281 C 44.617188 -26.789062 40.613281 -31.84375 33.179688 -34.894531 C 39.183594 -37.753906 42.808594 -43.855469 42.808594 -49.957031 C 42.808594 -59.683594 34.035156 -65.878906 22.023438 -65.878906 Z M 22.023438 -65.878906 "/></g></g><g style="fill:#0c7b3b;fill-opacity:1;"><g transform="translate(251.311925, 109.93072)"><path style="stroke:none" d="M 9.4375 -65.023438 L 9.4375 -27.933594 C 12.011719 -28.601562 14.683594 -28.886719 17.445312 -28.886719 C 24.980469 -28.886719 30.222656 -25.359375 30.222656 -19.542969 C 30.222656 -14.777344 26.410156 -10.582031 19.925781 -10.582031 C 16.492188 -10.582031 11.917969 -11.34375 6.101562 -14.492188 L 6.101562 -2.667969 C 9.34375 -0.761719 16.398438 0.859375 21.832031 0.859375 C 37.375 0.859375 45.382812 -7.914062 45.382812 -20.308594 C 45.382812 -31.652344 36.515625 -39.851562 24.980469 -39.851562 C 23.929688 -39.851562 23.167969 -39.757812 22.40625 -39.757812 L 22.40625 -51.960938 L 43.1875 -51.960938 L 43.1875 -65.023438 Z M 9.4375 -65.023438 "/></g></g></g></svg>