<svg xmlns="http://www.w3.org/2000/svg" xmlns:xlink="http://www.w3.org/1999/xlink" width="600" zoomAndPan="magnify" viewBox="0 0 450 149.999998" height="200" preserveAspectRatio="xMidYMid meet" version="1.2"><defs><clipPath id="d2a03ef738"><path d="M 157.839844 12.675781 L 282.339844 12.675781 L 282.339844 137.175781 L 157.839844 137.175781 Z M 157.839844 12.675781 "/></clipPath></defs><g id="1942e9df04"><rect x="0" width="450" y="0" height="149.999998" style="fill:#ffffff;fill-opacity:1;stroke:none;"/><rect x="0" width="450" y="0" height="149.999998" style="fill:#ffffff;fill-opacity:1;stroke:none;"/><path style="fill-rule:nonzero;fill:#000000;fill-opacity:1;stroke-width:1;stroke-linecap:butt;stroke-linejoin:miter;stroke:#0c7b3b;stroke-opacity:1;stroke-miterlimit:4;" d="M 0.499995 0.999997 L 0.499995 199.000009 M 599.50003 0.999997 L 599.50003 199.000009 M -0.000005 0.499997 L 600.00003 0.499997 M -0.000005 199.500009 L 600.00003 199.500009 " transform="matrix(0.75,0,0,0.75,0.00000375,0.000002)"/><g clip-rule="nonzero" clip-path="url(#d2a03ef738)"><path style=" stroke:none;fill-rule:nonzero;fill:#004aad;fill-opacity:1;" d="M 220.089844 137.175781 C 185.855469 137.175781 157.839844 109.164062 157.839844 74.925781 C 157.839844 40.6875 185.855469 12.675781 220.089844 12.675781 C 254.328125 12.675781 282.339844 40.6875 282.339844 74.925781 C 282.339844 109.164062 254.328125 137.175781 220.089844 137.175781 Z M 220.089844 137.175781 "/></g></g></svg>