<svg xmlns="http://www.w3.org/2000/svg" xmlns:xlink="http://www.w3.org/1999/xlink" width="600" zoomAndPan="magnify" viewBox="0 0 450 149.999998" height="200" preserveAspectRatio="xMidYMid meet" version="1.2"><defs><clipPath id="fbcc6f71cd"><path d="M 168.914062 0.675781 L 288 0.675781 L 288 42.675781 L 168.914062 42.675781 Z M 168.914062 0.675781 "/></clipPath><clipPath id="d534d5a31a"><path d="M 168.914062 48 L 288 48 L 288 89.941406 L 168.914062 89.941406 Z M 168.914062 48 "/></clipPath><clipPath id="d2138d3a90"><path d="M 168.914062 47.941406 L 288 47.941406 L 288 89.941406 L 168.914062 89.941406 Z M 168.914062 47.941406 "/></clipPath><clipPath id="c84272ed54"><path d="M 252.828125 63.117188 L 263.328125 63.117188 L 263.328125 76 L 252.828125 76 Z M 252.828125 63.117188 "/></clipPath><clipPath id="c14a3ce45d"><path d="M 255 76 L 260 76 L 260 80.367188 L 255 80.367188 Z M 255 76 "/></clipPath><clipPath id="8b24b25df9"><path d="M 188.855469 11.414062 L 209.105469 11.414062 L 209.105469 31.664062 L 188.855469 31.664062 Z M 188.855469 11.414062 "/></clipPath><clipPath id="b93170d678"><path d="M 110.898438 99.34375 L 347.898438 99.34375 L 347.898438 132 L 110.898438 132 Z M 110.898438 99.34375 "/></clipPath><clipPath id="7b88c636d5"><path d="M 110.898438 99.34375 L 347.898438 99.34375 L 347.898438 132.34375 L 110.898438 132.34375 Z M 110.898438 99.34375 "/></clipPath><clipPath id="5dec1bdee8"><path d="M 110.898438 134.511719 L 347.898438 134.511719 L 347.898438 148 L 110.898438 148 Z M 110.898438 134.511719 "/></clipPath><clipPath id="db199d6526"><path d="M 234.792969 11.414062 L 255 11.414062 L 255 31.664062 L 234.792969 31.664062 Z M 234.792969 11.414062 "/></clipPath><clipPath id="b9b3e03d3a"><path d="M 259.566406 11.261719 L 279.816406 11.261719 L 279.816406 31.511719 L 259.566406 31.511719 Z M 259.566406 11.261719 "/></clipPath><clipPath id="652b66f5d3"><path d="M 188.855469 58.679688 L 209.105469 58.679688 L 209.105469 78.929688 L 188.855469 78.929688 Z M 188.855469 58.679688 "/></clipPath><clipPath id="3874847158"><path d="M 128.726562 105.703125 L 148.976562 105.703125 L 148.976562 125.953125 L 128.726562 125.953125 Z M 128.726562 105.703125 "/></clipPath><clipPath id="c72c027635"><path d="M 177.222656 105.703125 L 197.472656 105.703125 L 197.472656 125.953125 L 177.222656 125.953125 Z M 177.222656 105.703125 "/></clipPath><clipPath id="76b52106a5"><path d="M 201.988281 105.703125 L 222.238281 105.703125 L 222.238281 125.953125 L 201.988281 125.953125 Z M 201.988281 105.703125 "/></clipPath><clipPath id="10c8ab5c9e"><path d="M 305.632812 105.703125 L 325.882812 105.703125 L 325.882812 125.953125 L 305.632812 125.953125 Z M 305.632812 105.703125 "/></clipPath><clipPath id="b7ae8a6017"><path d="M 235.542969 105.703125 L 255.792969 105.703125 L 255.792969 125.953125 L 235.542969 125.953125 Z M 235.542969 105.703125 "/></clipPath><clipPath id="d50a0ffa47"><path d="M 260.308594 105.703125 L 280.558594 105.703125 L 280.558594 125.953125 L 260.308594 125.953125 Z M 260.308594 105.703125 "/></clipPath></defs><g id="0bb5e877d0"><rect x="0" width="450" y="0" height="149.999998" style="fill:#ffffff;fill-opacity:1;stroke:none;"/><rect x="0" width="450" y="0" height="149.999998" style="fill:#ffffff;fill-opacity:1;stroke:none;"/><g clip-rule="nonzero" clip-path="url(#fbcc6f71cd)"><path style="fill-rule:nonzero;fill:#000000;fill-opacity:1;stroke-width:0.545523;stroke-linecap:butt;stroke-linejoin:miter;stroke:#000000;stroke-opacity:1;stroke-miterlimit:4;" d="M 0.275033 0.545297 L 0.275033 54.988008 M 79.55108 0.545297 L 79.55108 54.988008 M 157.728168 0.545297 L 157.728168 54.988008 M -0.00100826 0.274464 L 158.004209 0.274464 M -0.00100826 55.26405 L 158.004209 55.26405 " transform="matrix(0.75,0,0,0.75,168.914819,0.676965)"/></g><g clip-rule="nonzero" clip-path="url(#d534d5a31a)"><path style=" stroke:none;fill-rule:nonzero;fill:#000000;fill-opacity:1;" d="M 169.121094 48.351562 L 169.121094 89.183594 M 228.578125 48.351562 L 228.578125 89.183594 M 287.210938 48.351562 L 287.210938 89.183594 M 168.914062 48.148438 L 287.417969 48.148438 M 168.914062 89.390625 L 287.417969 89.390625 "/></g><g clip-rule="nonzero" clip-path="url(#d2138d3a90)"><path style="fill:none;stroke-width:0.545523;stroke-linecap:butt;stroke-linejoin:miter;stroke:#000000;stroke-opacity:1;stroke-miterlimit:4;" d="M 0.275033 0.544377 L 0.275033 54.987088 M 79.55108 0.544377 L 79.55108 54.987088 M 157.728168 0.544377 L 157.728168 54.987088 M -0.00100826 0.273543 L 158.004209 0.273543 M -0.00100826 55.26313 L 158.004209 55.26313 " transform="matrix(0.75,0,0,0.75,168.914819,47.94328)"/></g><g clip-rule="nonzero" clip-path="url(#c84272ed54)"><path style=" stroke:none;fill-rule:nonzero;fill:#000000;fill-opacity:1;" d="M 262.632812 65.117188 C 262.179688 64.46875 261.558594 63.972656 260.761719 63.632812 C 259.972656 63.289062 259.058594 63.117188 258.027344 63.117188 C 257.085938 63.117188 256.226562 63.285156 255.449219 63.625 C 254.675781 63.957031 254.046875 64.472656 253.574219 65.152344 C 253.199219 65.695312 252.96875 66.351562 252.871094 67.117188 C 252.828125 67.453125 253.09375 67.75 253.429688 67.75 L 255.507812 67.75 C 255.777344 67.75 256 67.5625 256.058594 67.296875 C 256.109375 67.0625 256.195312 66.851562 256.316406 66.675781 C 256.507812 66.382812 256.753906 66.164062 257.054688 66.015625 C 257.355469 65.867188 257.675781 65.789062 258.011719 65.789062 C 258.363281 65.789062 258.675781 65.863281 258.96875 66.011719 C 259.253906 66.15625 259.484375 66.367188 259.65625 66.640625 C 259.824219 66.910156 259.910156 67.226562 259.910156 67.589844 C 259.910156 67.929688 259.835938 68.238281 259.6875 68.507812 C 259.535156 68.78125 259.332031 69.035156 259.082031 69.257812 C 258.824219 69.484375 258.539062 69.699219 258.21875 69.910156 C 257.789062 70.183594 257.417969 70.484375 257.113281 70.820312 C 256.804688 71.15625 256.574219 71.59375 256.414062 72.140625 C 256.257812 72.683594 256.175781 73.410156 256.171875 74.324219 L 256.171875 74.78125 C 256.171875 75.09375 256.421875 75.347656 256.734375 75.347656 L 258.5625 75.347656 C 258.871094 75.347656 259.125 75.09375 259.125 74.78125 L 259.125 74.324219 C 259.132812 73.8125 259.195312 73.378906 259.324219 73.03125 C 259.449219 72.683594 259.644531 72.375 259.90625 72.109375 C 260.167969 71.84375 260.503906 71.585938 260.914062 71.339844 C 261.402344 71.046875 261.824219 70.71875 262.183594 70.351562 C 262.539062 69.988281 262.820312 69.570312 263.019531 69.097656 C 263.21875 68.625 263.324219 68.078125 263.324219 67.46875 C 263.3125 66.550781 263.082031 65.765625 262.632812 65.117188 Z M 262.632812 65.117188 "/></g><g clip-rule="nonzero" clip-path="url(#c14a3ce45d)"><path style=" stroke:none;fill-rule:nonzero;fill:#000000;fill-opacity:1;" d="M 257.703125 76.617188 C 257.183594 76.617188 256.742188 76.800781 256.378906 77.164062 C 256.011719 77.53125 255.832031 77.972656 255.835938 78.484375 C 255.832031 79 256.011719 79.445312 256.378906 79.816406 C 256.742188 80.183594 257.183594 80.367188 257.703125 80.367188 C 258.035156 80.367188 258.34375 80.28125 258.621094 80.113281 C 258.902344 79.9375 259.128906 79.714844 259.300781 79.429688 C 259.476562 79.140625 259.566406 78.828125 259.570312 78.484375 C 259.5625 77.96875 259.375 77.53125 259 77.164062 C 258.632812 76.800781 258.199219 76.617188 257.703125 76.617188 Z M 257.703125 76.617188 "/></g><g clip-rule="nonzero" clip-path="url(#8b24b25df9)"><path style=" stroke:none;fill-rule:nonzero;fill:#ff3131;fill-opacity:1;" d="M 198.945312 31.59375 C 193.398438 31.59375 188.855469 27.050781 188.855469 21.503906 C 188.855469 15.953125 193.398438 11.414062 198.945312 11.414062 C 204.496094 11.414062 209.035156 15.953125 209.035156 21.503906 C 209.035156 27.050781 204.496094 31.59375 198.945312 31.59375 Z M 198.945312 31.59375 "/></g><g clip-rule="nonzero" clip-path="url(#b93170d678)"><path style=" stroke:none;fill-rule:nonzero;fill:#000000;fill-opacity:1;" d="M 111.222656 100 L 111.222656 131.585938 M 170.039062 100 L 170.039062 131.585938 M 228.070312 100 L 228.070312 131.585938 M 287.675781 100 L 287.675781 131.585938 M 347.277344 100 L 347.277344 131.585938 M 110.898438 99.671875 L 347.601562 99.671875 M 110.898438 131.914062 L 347.601562 131.914062 "/></g><g clip-rule="nonzero" clip-path="url(#7b88c636d5)"><path style="fill:none;stroke-width:0.871773;stroke-linecap:butt;stroke-linejoin:miter;stroke:#000000;stroke-opacity:1;stroke-miterlimit:4;" d="M 0.43428 0.874238 L 0.43428 42.988823 M 78.85616 0.874238 L 78.85616 42.988823 M 156.231164 0.874238 L 156.231164 42.988823 M 235.705127 0.874238 L 235.705127 42.988823 M 315.173882 0.874238 L 315.173882 42.988823 M 0.00198856 0.436738 L 315.606174 0.436738 M 0.00198856 43.426323 L 315.606174 43.426323 " transform="matrix(0.75,0,0,0.75,110.896946,99.344322)"/></g><g clip-rule="nonzero" clip-path="url(#5dec1bdee8)"><path style="fill-rule:nonzero;fill:#000000;fill-opacity:1;stroke-width:0.871773;stroke-linecap:butt;stroke-linejoin:miter;stroke:#000000;stroke-opacity:1;stroke-miterlimit:4;" d="M 0.43428 0.871452 L 0.43428 17.001662 M 79.23116 0.871452 L 79.23116 17.001662 M 155.486373 0.871452 L 155.486373 17.001662 M 235.658252 0.871452 L 235.658252 17.001662 M 315.173882 0.871452 L 315.173882 17.001662 M 0.00198856 0.433952 L 315.606174 0.433952 M 0.00198856 17.433953 L 315.606174 17.433953 " transform="matrix(0.75,0,0,0.75,110.896946,134.510473)"/></g><g style="fill:#000000;fill-opacity:1;"><g transform="translate(197.404197, 143.417893)"><path style="stroke:none" d="M 0.28125 0 L 0.28125 -0.765625 L 1.421875 -1.84375 C 1.765625 -2.175781 2.035156 -2.476562 2.234375 -2.75 C 2.429688 -3.03125 2.566406 -3.316406 2.640625 -3.609375 C 2.722656 -3.898438 2.765625 -4.234375 2.765625 -4.609375 C 2.765625 -5.046875 2.710938 -5.363281 2.609375 -5.5625 C 2.503906 -5.757812 2.328125 -5.859375 2.078125 -5.859375 C 1.890625 -5.859375 1.742188 -5.800781 1.640625 -5.6875 C 1.546875 -5.570312 1.476562 -5.378906 1.4375 -5.109375 C 1.394531 -4.847656 1.375 -4.484375 1.375 -4.015625 C 1.0625 -4.015625 0.804688 -4.078125 0.609375 -4.203125 C 0.410156 -4.328125 0.3125 -4.523438 0.3125 -4.796875 C 0.3125 -5.117188 0.460938 -5.390625 0.765625 -5.609375 C 1.078125 -5.828125 1.53125 -5.9375 2.125 -5.9375 C 2.738281 -5.9375 3.203125 -5.816406 3.515625 -5.578125 C 3.835938 -5.335938 4 -5 4 -4.5625 C 4 -4.375 3.960938 -4.191406 3.890625 -4.015625 C 3.828125 -3.835938 3.707031 -3.644531 3.53125 -3.4375 C 3.351562 -3.226562 3.113281 -2.988281 2.8125 -2.71875 C 2.519531 -2.457031 2.144531 -2.148438 1.6875 -1.796875 L 0.546875 -0.90625 L 3.3125 -0.90625 C 3.570312 -0.90625 3.757812 -0.941406 3.875 -1.015625 C 4 -1.097656 4.070312 -1.25 4.09375 -1.46875 L 4.125 -1.71875 L 4.203125 -1.71875 L 4.15625 0 Z M 0.28125 0 "/></g></g><g style="fill:#000000;fill-opacity:1;"><g transform="translate(258.024188, 143.417893)"><path style="stroke:none" d="M 1.984375 0.078125 C 1.378906 0.078125 0.9375 -0.0195312 0.65625 -0.21875 C 0.375 -0.414062 0.234375 -0.644531 0.234375 -0.90625 C 0.234375 -1.113281 0.300781 -1.269531 0.4375 -1.375 C 0.570312 -1.488281 0.734375 -1.546875 0.921875 -1.546875 C 0.921875 -1.140625 0.960938 -0.828125 1.046875 -0.609375 C 1.140625 -0.390625 1.257812 -0.234375 1.40625 -0.140625 C 1.5625 -0.046875 1.738281 0 1.9375 0 C 2.289062 0 2.546875 -0.132812 2.703125 -0.40625 C 2.859375 -0.675781 2.9375 -1.066406 2.9375 -1.578125 C 2.9375 -1.941406 2.894531 -2.222656 2.8125 -2.421875 C 2.726562 -2.628906 2.585938 -2.773438 2.390625 -2.859375 C 2.191406 -2.941406 1.9375 -2.984375 1.625 -2.984375 L 1.171875 -2.984375 L 1.171875 -3.0625 L 1.625 -3.0625 C 1.914062 -3.0625 2.140625 -3.109375 2.296875 -3.203125 C 2.460938 -3.296875 2.578125 -3.445312 2.640625 -3.65625 C 2.710938 -3.863281 2.75 -4.140625 2.75 -4.484375 C 2.75 -4.984375 2.6875 -5.335938 2.5625 -5.546875 C 2.445312 -5.753906 2.28125 -5.859375 2.0625 -5.859375 C 1.769531 -5.859375 1.578125 -5.707031 1.484375 -5.40625 C 1.398438 -5.113281 1.359375 -4.703125 1.359375 -4.171875 C 1.023438 -4.171875 0.765625 -4.226562 0.578125 -4.34375 C 0.390625 -4.457031 0.296875 -4.640625 0.296875 -4.890625 C 0.296875 -5.179688 0.445312 -5.425781 0.75 -5.625 C 1.0625 -5.832031 1.515625 -5.9375 2.109375 -5.9375 C 2.691406 -5.9375 3.148438 -5.816406 3.484375 -5.578125 C 3.828125 -5.347656 4 -5.007812 4 -4.5625 C 4 -4.332031 3.941406 -4.109375 3.828125 -3.890625 C 3.710938 -3.671875 3.519531 -3.484375 3.25 -3.328125 C 2.988281 -3.179688 2.628906 -3.085938 2.171875 -3.046875 C 2.828125 -3.046875 3.328125 -2.921875 3.671875 -2.671875 C 4.023438 -2.429688 4.203125 -2.0625 4.203125 -1.5625 C 4.203125 -1.164062 4.097656 -0.847656 3.890625 -0.609375 C 3.679688 -0.367188 3.40625 -0.191406 3.0625 -0.078125 C 2.726562 0.0234375 2.367188 0.078125 1.984375 0.078125 Z M 1.984375 0.078125 "/></g></g><g style="fill:#000000;fill-opacity:1;"><g transform="translate(136.522877, 143.417893)"><path style="stroke:none" d="M 0.796875 0 L 0.796875 -0.078125 L 1.46875 -0.078125 C 1.601562 -0.078125 1.703125 -0.113281 1.765625 -0.1875 C 1.835938 -0.269531 1.875 -0.410156 1.875 -0.609375 L 1.875 -5.21875 C 1.625 -4.863281 1.425781 -4.609375 1.28125 -4.453125 C 1.132812 -4.296875 0.988281 -4.21875 0.84375 -4.21875 C 0.695312 -4.21875 0.578125 -4.257812 0.484375 -4.34375 C 0.390625 -4.4375 0.34375 -4.578125 0.34375 -4.765625 C 0.613281 -4.773438 0.835938 -4.800781 1.015625 -4.84375 C 1.203125 -4.882812 1.375 -4.960938 1.53125 -5.078125 C 1.695312 -5.191406 1.894531 -5.363281 2.125 -5.59375 L 2.421875 -5.890625 L 3.09375 -5.890625 L 3.09375 -0.609375 C 3.09375 -0.441406 3.117188 -0.3125 3.171875 -0.21875 C 3.234375 -0.125 3.347656 -0.078125 3.515625 -0.078125 L 4.1875 -0.078125 L 4.1875 0 Z M 0.796875 0 "/></g></g><g style="fill:#000000;fill-opacity:1;"><g transform="translate(315.723969, 143.991176)"><path style="stroke:none" d="M 1.46875 0 L 1.46875 -0.078125 L 1.703125 -0.078125 C 1.890625 -0.078125 2.046875 -0.109375 2.171875 -0.171875 C 2.304688 -0.242188 2.375 -0.410156 2.375 -0.671875 L 2.375 -1.53125 L 0.109375 -1.53125 L 0.109375 -2.03125 L 2.4375 -5.859375 L 3.578125 -5.859375 L 3.578125 -2.0625 L 4.421875 -2.0625 L 4.421875 -1.53125 L 3.578125 -1.53125 L 3.578125 -0.671875 C 3.578125 -0.410156 3.640625 -0.242188 3.765625 -0.171875 C 3.898438 -0.109375 4.0625 -0.078125 4.25 -0.078125 L 4.359375 -0.078125 L 4.359375 0 Z M 0.234375 -2.0625 L 2.375 -2.0625 L 2.375 -3.875 C 2.375 -4.175781 2.375 -4.488281 2.375 -4.8125 C 2.375 -5.132812 2.378906 -5.414062 2.390625 -5.65625 C 2.359375 -5.601562 2.304688 -5.519531 2.234375 -5.40625 C 2.171875 -5.289062 2.097656 -5.164062 2.015625 -5.03125 C 1.941406 -4.894531 1.867188 -4.769531 1.796875 -4.65625 C 1.722656 -4.539062 1.664062 -4.445312 1.625 -4.375 Z M 0.234375 -2.0625 "/></g></g><g clip-rule="nonzero" clip-path="url(#db199d6526)"><path style=" stroke:none;fill-rule:nonzero;fill:#ff3131;fill-opacity:1;" d="M 244.882812 31.59375 C 239.335938 31.59375 234.792969 27.050781 234.792969 21.503906 C 234.792969 15.953125 239.335938 11.414062 244.882812 11.414062 C 250.433594 11.414062 254.972656 15.953125 254.972656 21.503906 C 254.972656 27.050781 250.433594 31.59375 244.882812 31.59375 Z M 244.882812 31.59375 "/></g><g clip-rule="nonzero" clip-path="url(#b9b3e03d3a)"><path style=" stroke:none;fill-rule:nonzero;fill:#ff3131;fill-opacity:1;" d="M 269.65625 31.441406 C 264.105469 31.441406 259.566406 26.902344 259.566406 21.351562 C 259.566406 15.804688 264.105469 11.261719 269.65625 11.261719 C 275.207031 11.261719 279.746094 15.804688 279.746094 21.351562 C 279.746094 26.902344 275.207031 31.441406 269.65625 31.441406 Z M 269.65625 31.441406 "/></g><g clip-rule="nonzero" clip-path="url(#652b66f5d3)"><path style=" stroke:none;fill-rule:nonzero;fill:#061bb0;fill-opacity:1;" d="M 198.945312 78.859375 C 193.398438 78.859375 188.855469 74.316406 188.855469 68.769531 C 188.855469 63.21875 193.398438 58.679688 198.945312 58.679688 C 204.496094 58.679688 209.035156 63.21875 209.035156 68.769531 C 209.035156 74.316406 204.496094 78.859375 198.945312 78.859375 Z M 198.945312 78.859375 "/></g><g clip-rule="nonzero" clip-path="url(#3874847158)"><path style=" stroke:none;fill-rule:nonzero;fill:#061bb0;fill-opacity:1;" d="M 138.816406 125.882812 C 133.265625 125.882812 128.726562 121.339844 128.726562 115.792969 C 128.726562 110.242188 133.265625 105.703125 138.816406 105.703125 C 144.363281 105.703125 148.90625 110.242188 148.90625 115.792969 C 148.90625 121.339844 144.363281 125.882812 138.816406 125.882812 Z M 138.816406 125.882812 "/></g><g clip-rule="nonzero" clip-path="url(#c72c027635)"><path style=" stroke:none;fill-rule:nonzero;fill:#ff3131;fill-opacity:1;" d="M 187.3125 125.882812 C 181.765625 125.882812 177.222656 121.339844 177.222656 115.792969 C 177.222656 110.242188 181.765625 105.703125 187.3125 105.703125 C 192.863281 105.703125 197.402344 110.242188 197.402344 115.792969 C 197.402344 121.339844 192.863281 125.882812 187.3125 125.882812 Z M 187.3125 125.882812 "/></g><g clip-rule="nonzero" clip-path="url(#76b52106a5)"><path style=" stroke:none;fill-rule:nonzero;fill:#ff3131;fill-opacity:1;" d="M 212.078125 125.882812 C 206.527344 125.882812 201.988281 121.339844 201.988281 115.792969 C 201.988281 110.242188 206.527344 105.703125 212.078125 105.703125 C 217.628906 105.703125 222.167969 110.242188 222.167969 115.792969 C 222.167969 121.339844 217.628906 125.882812 212.078125 125.882812 Z M 212.078125 125.882812 "/></g><g clip-rule="nonzero" clip-path="url(#10c8ab5c9e)"><path style=" stroke:none;fill-rule:nonzero;fill:#ff3131;fill-opacity:1;" d="M 315.722656 125.882812 C 310.175781 125.882812 305.632812 121.339844 305.632812 115.792969 C 305.632812 110.242188 310.175781 105.703125 315.722656 105.703125 C 321.273438 105.703125 325.8125 110.242188 325.8125 115.792969 C 325.8125 121.339844 321.273438 125.882812 315.722656 125.882812 Z M 315.722656 125.882812 "/></g><g clip-rule="nonzero" clip-path="url(#b7ae8a6017)"><path style=" stroke:none;fill-rule:nonzero;fill:#061bb0;fill-opacity:1;" d="M 245.632812 125.882812 C 240.085938 125.882812 235.542969 121.339844 235.542969 115.792969 C 235.542969 110.242188 240.085938 105.703125 245.632812 105.703125 C 251.183594 105.703125 255.722656 110.242188 255.722656 115.792969 C 255.722656 121.339844 251.183594 125.882812 245.632812 125.882812 Z M 245.632812 125.882812 "/></g><g clip-rule="nonzero" clip-path="url(#d50a0ffa47)"><path style=" stroke:none;fill-rule:nonzero;fill:#061bb0;fill-opacity:1;" d="M 270.398438 125.882812 C 264.851562 125.882812 260.308594 121.339844 260.308594 115.792969 C 260.308594 110.242188 264.851562 105.703125 270.398438 105.703125 C 275.949219 105.703125 280.488281 110.242188 280.488281 115.792969 C 280.488281 121.339844 275.949219 125.882812 270.398438 125.882812 Z M 270.398438 125.882812 "/></g></g></svg>