<svg xmlns="http://www.w3.org/2000/svg" xmlns:xlink="http://www.w3.org/1999/xlink" width="600" zoomAndPan="magnify" viewBox="0 0 450 149.999998" height="200" preserveAspectRatio="xMidYMid meet" version="1.2"><defs><clipPath id="4afef62646"><path d="M 168.914062 0.75 L 286.664062 0.75 L 286.664062 42 L 168.914062 42 Z M 168.914062 0.75 "/></clipPath><clipPath id="44b907d284"><path d="M 168.914062 0.75 L 286.664062 0.75 L 286.664062 42.75 L 168.914062 42.75 Z M 168.914062 0.75 "/></clipPath><clipPath id="e3d22eaa98"><path d="M 168.914062 47.589844 L 286.664062 47.589844 L 286.664062 89 L 168.914062 89 Z M 168.914062 47.589844 "/></clipPath><clipPath id="b0d40324c8"><path d="M 251.140625 60.554688 L 261.640625 60.554688 L 261.640625 73 L 251.140625 73 Z M 251.140625 60.554688 "/></clipPath><clipPath id="35c3ebf53e"><path d="M 254 73 L 258 73 L 258 77.054688 L 254 77.054688 Z M 254 73 "/></clipPath><clipPath id="9c68235f2a"><path d="M 181.878906 51.425781 L 215.628906 51.425781 L 215.628906 85.175781 L 181.878906 85.175781 Z M 181.878906 51.425781 "/></clipPath><clipPath id="296f91a64d"><path d="M 181.878906 4.589844 L 215.628906 4.589844 L 215.628906 38.339844 L 181.878906 38.339844 Z M 181.878906 4.589844 "/></clipPath><clipPath id="bb29902eea"><path d="M 241 6.953125 L 273.464844 6.953125 L 273.464844 35.832031 L 241 35.832031 Z M 241 6.953125 "/></clipPath><clipPath id="2fcbc60937"><path d="M 134.335938 99.34375 L 324.835938 99.34375 L 324.835938 132 L 134.335938 132 Z M 134.335938 99.34375 "/></clipPath><clipPath id="235e46cd77"><path d="M 134.335938 99.34375 L 324.835938 99.34375 L 324.835938 132.34375 L 134.335938 132.34375 Z M 134.335938 99.34375 "/></clipPath><clipPath id="6bfe68b134"><path d="M 134.335938 135 L 324.835938 135 L 324.835938 148 L 134.335938 148 Z M 134.335938 135 "/></clipPath><clipPath id="975a8928b0"><path d="M 287.832031 103.582031 L 313.332031 103.582031 L 313.332031 129.082031 L 287.832031 129.082031 Z M 287.832031 103.582031 "/></clipPath><clipPath id="49c072683a"><path d="M 145.25 104.652344 L 170 104.652344 L 170 129.402344 L 145.25 129.402344 Z M 145.25 104.652344 "/></clipPath><clipPath id="5f705a7491"><path d="M 239.882812 104.722656 L 264.582031 104.722656 L 264.582031 129.066406 L 239.882812 129.066406 Z M 239.882812 104.722656 "/></clipPath><clipPath id="8878d8c02a"><path d="M 192.867188 104.722656 L 217.566406 104.722656 L 217.566406 129.066406 L 192.867188 129.066406 Z M 192.867188 104.722656 "/></clipPath></defs><g id="1ee8ad5ea8"><rect x="0" width="450" y="0" height="149.999998" style="fill:#ffffff;fill-opacity:1;stroke:none;"/><rect x="0" width="450" y="0" height="149.999998" style="fill:#ffffff;fill-opacity:1;stroke:none;"/><g clip-rule="nonzero" clip-path="url(#4afef62646)"><path style=" stroke:none;fill-rule:nonzero;fill:#000000;fill-opacity:1;" d="M 169.117188 1.15625 L 169.117188 41.628906 M 228.050781 1.15625 L 228.050781 41.628906 M 286.171875 1.15625 L 286.171875 41.628906 M 168.914062 0.953125 L 286.375 0.953125 M 168.914062 41.832031 L 286.375 41.832031 "/></g><g clip-rule="nonzero" clip-path="url(#44b907d284)"><path style="fill:none;stroke-width:0.540731;stroke-linecap:butt;stroke-linejoin:miter;stroke:#000000;stroke-opacity:1;stroke-miterlimit:4;" d="M 0.269825 0.541664 L 0.269825 54.505209 M 78.847955 0.541664 L 78.847955 54.505209 M 156.342751 0.541664 L 156.342751 54.505209 M -0.00100826 0.270831 L 156.613584 0.270831 M -0.00100826 54.776042 L 156.613584 54.776042 " transform="matrix(0.75,0,0,0.75,168.914819,0.750002)"/></g><g clip-rule="nonzero" clip-path="url(#e3d22eaa98)"><path style="fill-rule:nonzero;fill:#000000;fill-opacity:1;stroke-width:0.540731;stroke-linecap:butt;stroke-linejoin:miter;stroke:#000000;stroke-opacity:1;stroke-miterlimit:4;" d="M 0.269825 0.53896 L 0.269825 54.507714 M 78.847955 0.53896 L 78.847955 54.507714 M 156.342751 0.53896 L 156.342751 54.507714 M -0.00100826 0.268127 L 156.613584 0.268127 M -0.00100826 54.778547 L 156.613584 54.778547 " transform="matrix(0.75,0,0,0.75,168.914819,47.587967)"/></g><g clip-rule="nonzero" clip-path="url(#b0d40324c8)"><path style=" stroke:none;fill-rule:nonzero;fill:#000000;fill-opacity:1;" d="M 260.949219 62.46875 C 260.496094 61.847656 259.875 61.375 259.078125 61.046875 C 258.289062 60.722656 257.375 60.554688 256.339844 60.554688 C 255.398438 60.554688 254.539062 60.71875 253.761719 61.039062 C 252.984375 61.359375 252.359375 61.851562 251.886719 62.503906 C 251.511719 63.019531 251.277344 63.648438 251.183594 64.382812 C 251.140625 64.703125 251.402344 64.988281 251.738281 64.988281 L 253.820312 64.988281 C 254.089844 64.988281 254.3125 64.804688 254.371094 64.554688 C 254.421875 64.332031 254.507812 64.128906 254.628906 63.957031 C 254.820312 63.679688 255.066406 63.46875 255.367188 63.328125 C 255.671875 63.1875 255.988281 63.113281 256.328125 63.113281 C 256.675781 63.113281 256.992188 63.183594 257.28125 63.324219 C 257.570312 63.464844 257.800781 63.664062 257.96875 63.925781 C 258.140625 64.1875 258.226562 64.484375 258.226562 64.832031 C 258.226562 65.160156 258.152344 65.453125 258 65.714844 C 257.851562 65.972656 257.648438 66.214844 257.394531 66.429688 C 257.136719 66.648438 256.855469 66.851562 256.53125 67.054688 C 256.101562 67.3125 255.730469 67.605469 255.425781 67.925781 C 255.117188 68.246094 254.890625 68.664062 254.726562 69.183594 C 254.570312 69.707031 254.488281 70.402344 254.484375 71.277344 L 254.484375 71.710938 C 254.484375 72.007812 254.734375 72.253906 255.046875 72.253906 L 256.878906 72.253906 C 257.1875 72.253906 257.441406 72.011719 257.441406 71.710938 L 257.441406 71.277344 C 257.445312 70.785156 257.511719 70.371094 257.636719 70.039062 C 257.765625 69.707031 257.960938 69.410156 258.21875 69.15625 C 258.484375 68.902344 258.820312 68.65625 259.230469 68.417969 C 259.71875 68.140625 260.140625 67.824219 260.5 67.476562 C 260.855469 67.128906 261.136719 66.726562 261.339844 66.273438 C 261.539062 65.824219 261.640625 65.300781 261.640625 64.71875 C 261.628906 63.839844 261.402344 63.089844 260.949219 62.46875 Z M 260.949219 62.46875 "/></g><g clip-rule="nonzero" clip-path="url(#35c3ebf53e)"><path style=" stroke:none;fill-rule:nonzero;fill:#000000;fill-opacity:1;" d="M 256.019531 73.46875 C 255.5 73.46875 255.058594 73.644531 254.691406 73.992188 C 254.324219 74.34375 254.144531 74.765625 254.148438 75.253906 C 254.144531 75.75 254.324219 76.175781 254.691406 76.527344 C 255.058594 76.878906 255.5 77.054688 256.019531 77.054688 C 256.351562 77.054688 256.660156 76.972656 256.9375 76.8125 C 257.21875 76.644531 257.441406 76.429688 257.617188 76.15625 C 257.792969 75.882812 257.882812 75.582031 257.886719 75.253906 C 257.878906 74.761719 257.691406 74.34375 257.316406 73.992188 C 256.945312 73.644531 256.511719 73.46875 256.019531 73.46875 Z M 256.019531 73.46875 "/></g><g clip-rule="nonzero" clip-path="url(#9c68235f2a)"><path style=" stroke:none;fill-rule:nonzero;fill:#ff3131;fill-opacity:1;" d="M 198.675781 85.023438 C 189.4375 85.023438 181.878906 77.464844 181.878906 68.226562 C 181.878906 58.984375 189.4375 51.425781 198.675781 51.425781 C 207.917969 51.425781 215.476562 58.984375 215.476562 68.226562 C 215.476562 77.464844 207.917969 85.023438 198.675781 85.023438 Z M 198.675781 85.023438 "/></g><g clip-rule="nonzero" clip-path="url(#296f91a64d)"><path style=" stroke:none;fill-rule:nonzero;fill:#061bb0;fill-opacity:1;" d="M 198.675781 38.1875 C 189.4375 38.1875 181.878906 30.625 181.878906 21.386719 C 181.878906 12.148438 189.4375 4.589844 198.675781 4.589844 C 207.917969 4.589844 215.476562 12.148438 215.476562 21.386719 C 215.476562 30.625 207.917969 38.1875 198.675781 38.1875 Z M 198.675781 38.1875 "/></g><g clip-rule="nonzero" clip-path="url(#bb29902eea)"><path style=" stroke:none;fill-rule:nonzero;fill:#061bb0;fill-opacity:1;" d="M 241 6.953125 L 273.488281 6.953125 L 273.488281 35.832031 L 241 35.832031 Z M 241 6.953125 "/></g><g clip-rule="nonzero" clip-path="url(#2fcbc60937)"><path style=" stroke:none;fill-rule:nonzero;fill:#000000;fill-opacity:1;" d="M 134.660156 100 L 134.660156 131.585938 M 181.796875 100 L 181.796875 131.585938 M 228.304688 100 L 228.304688 131.585938 M 276.070312 100 L 276.070312 131.585938 M 323.839844 100 L 323.839844 131.585938 M 134.335938 99.671875 L 324.164062 99.671875 M 134.335938 131.914062 L 324.164062 131.914062 "/></g><g clip-rule="nonzero" clip-path="url(#235e46cd77)"><path style="fill:none;stroke-width:0.871773;stroke-linecap:butt;stroke-linejoin:miter;stroke:#000000;stroke-opacity:1;stroke-miterlimit:4;" d="M 0.434282 0.874199 L 0.434282 42.988785 M 63.283244 0.874199 L 63.283244 42.988785 M 125.293664 0.874199 L 125.293664 42.988785 M 188.981168 0.874199 L 188.981168 42.988785 M 252.67388 0.874199 L 252.67388 42.988785 M 0.00199038 0.436699 L 253.106172 0.436699 M 0.00199038 43.426285 L 253.106172 43.426285 " transform="matrix(0.75,0,0,0.75,134.334445,99.344351)"/></g><g clip-rule="nonzero" clip-path="url(#6bfe68b134)"><path style="fill-rule:nonzero;fill:#000000;fill-opacity:1;stroke-width:0.871773;stroke-linecap:butt;stroke-linejoin:miter;stroke:#000000;stroke-opacity:1;stroke-miterlimit:4;" d="M 0.434282 0.873408 L 0.434282 16.347367 M 63.585327 0.873408 L 63.585327 16.347367 M 124.694706 0.873408 L 124.694706 16.347367 M 188.949918 0.873408 L 188.949918 16.347367 M 252.67388 0.873408 L 252.67388 16.347367 M 0.00199038 0.435908 L 253.106172 0.435908 M 0.00199038 16.779659 L 253.106172 16.779659 " transform="matrix(0.75,0,0,0.75,134.334445,135.001194)"/></g><g style="fill:#000000;fill-opacity:1;"><g transform="translate(202.923566, 143.417893)"><path style="stroke:none" d="M 0.28125 0 L 0.28125 -0.765625 L 1.421875 -1.84375 C 1.765625 -2.175781 2.035156 -2.476562 2.234375 -2.75 C 2.429688 -3.03125 2.566406 -3.316406 2.640625 -3.609375 C 2.722656 -3.898438 2.765625 -4.234375 2.765625 -4.609375 C 2.765625 -5.046875 2.710938 -5.363281 2.609375 -5.5625 C 2.503906 -5.757812 2.328125 -5.859375 2.078125 -5.859375 C 1.890625 -5.859375 1.742188 -5.800781 1.640625 -5.6875 C 1.546875 -5.570312 1.476562 -5.378906 1.4375 -5.109375 C 1.394531 -4.847656 1.375 -4.484375 1.375 -4.015625 C 1.0625 -4.015625 0.804688 -4.078125 0.609375 -4.203125 C 0.410156 -4.328125 0.3125 -4.523438 0.3125 -4.796875 C 0.3125 -5.117188 0.460938 -5.390625 0.765625 -5.609375 C 1.078125 -5.828125 1.53125 -5.9375 2.125 -5.9375 C 2.738281 -5.9375 3.203125 -5.816406 3.515625 -5.578125 C 3.835938 -5.335938 4 -5 4 -4.5625 C 4 -4.375 3.960938 -4.191406 3.890625 -4.015625 C 3.828125 -3.835938 3.707031 -3.644531 3.53125 -3.4375 C 3.351562 -3.226562 3.113281 -2.988281 2.8125 -2.71875 C 2.519531 -2.457031 2.144531 -2.148438 1.6875 -1.796875 L 0.546875 -0.90625 L 3.3125 -0.90625 C 3.570312 -0.90625 3.757812 -0.941406 3.875 -1.015625 C 4 -1.097656 4.070312 -1.25 4.09375 -1.46875 L 4.125 -1.71875 L 4.203125 -1.71875 L 4.15625 0 Z M 0.28125 0 "/></g></g><g style="fill:#000000;fill-opacity:1;"><g transform="translate(251.140595, 143.417893)"><path style="stroke:none" d="M 1.984375 0.078125 C 1.378906 0.078125 0.9375 -0.0195312 0.65625 -0.21875 C 0.375 -0.414062 0.234375 -0.644531 0.234375 -0.90625 C 0.234375 -1.113281 0.300781 -1.269531 0.4375 -1.375 C 0.570312 -1.488281 0.734375 -1.546875 0.921875 -1.546875 C 0.921875 -1.140625 0.960938 -0.828125 1.046875 -0.609375 C 1.140625 -0.390625 1.257812 -0.234375 1.40625 -0.140625 C 1.5625 -0.046875 1.738281 0 1.9375 0 C 2.289062 0 2.546875 -0.132812 2.703125 -0.40625 C 2.859375 -0.675781 2.9375 -1.066406 2.9375 -1.578125 C 2.9375 -1.941406 2.894531 -2.222656 2.8125 -2.421875 C 2.726562 -2.628906 2.585938 -2.773438 2.390625 -2.859375 C 2.191406 -2.941406 1.9375 -2.984375 1.625 -2.984375 L 1.171875 -2.984375 L 1.171875 -3.0625 L 1.625 -3.0625 C 1.914062 -3.0625 2.140625 -3.109375 2.296875 -3.203125 C 2.460938 -3.296875 2.578125 -3.445312 2.640625 -3.65625 C 2.710938 -3.863281 2.75 -4.140625 2.75 -4.484375 C 2.75 -4.984375 2.6875 -5.335938 2.5625 -5.546875 C 2.445312 -5.753906 2.28125 -5.859375 2.0625 -5.859375 C 1.769531 -5.859375 1.578125 -5.707031 1.484375 -5.40625 C 1.398438 -5.113281 1.359375 -4.703125 1.359375 -4.171875 C 1.023438 -4.171875 0.765625 -4.226562 0.578125 -4.34375 C 0.390625 -4.457031 0.296875 -4.640625 0.296875 -4.890625 C 0.296875 -5.179688 0.445312 -5.425781 0.75 -5.625 C 1.0625 -5.832031 1.515625 -5.9375 2.109375 -5.9375 C 2.691406 -5.9375 3.148438 -5.816406 3.484375 -5.578125 C 3.828125 -5.347656 4 -5.007812 4 -4.5625 C 4 -4.332031 3.941406 -4.109375 3.828125 -3.890625 C 3.710938 -3.671875 3.519531 -3.484375 3.25 -3.328125 C 2.988281 -3.179688 2.628906 -3.085938 2.171875 -3.046875 C 2.828125 -3.046875 3.328125 -2.921875 3.671875 -2.671875 C 4.023438 -2.429688 4.203125 -2.0625 4.203125 -1.5625 C 4.203125 -1.164062 4.097656 -0.847656 3.890625 -0.609375 C 3.679688 -0.367188 3.40625 -0.191406 3.0625 -0.078125 C 2.726562 0.0234375 2.367188 0.078125 1.984375 0.078125 Z M 1.984375 0.078125 "/></g></g><g style="fill:#000000;fill-opacity:1;"><g transform="translate(155.022885, 143.417893)"><path style="stroke:none" d="M 0.796875 0 L 0.796875 -0.078125 L 1.46875 -0.078125 C 1.601562 -0.078125 1.703125 -0.113281 1.765625 -0.1875 C 1.835938 -0.269531 1.875 -0.410156 1.875 -0.609375 L 1.875 -5.21875 C 1.625 -4.863281 1.425781 -4.609375 1.28125 -4.453125 C 1.132812 -4.296875 0.988281 -4.21875 0.84375 -4.21875 C 0.695312 -4.21875 0.578125 -4.257812 0.484375 -4.34375 C 0.390625 -4.4375 0.34375 -4.578125 0.34375 -4.765625 C 0.613281 -4.773438 0.835938 -4.800781 1.015625 -4.84375 C 1.203125 -4.882812 1.375 -4.960938 1.53125 -5.078125 C 1.695312 -5.191406 1.894531 -5.363281 2.125 -5.59375 L 2.421875 -5.890625 L 3.09375 -5.890625 L 3.09375 -0.609375 C 3.09375 -0.441406 3.117188 -0.3125 3.171875 -0.21875 C 3.234375 -0.125 3.347656 -0.078125 3.515625 -0.078125 L 4.1875 -0.078125 L 4.1875 0 Z M 0.796875 0 "/></g></g><g style="fill:#000000;fill-opacity:1;"><g transform="translate(298.223982, 143.417893)"><path style="stroke:none" d="M 1.46875 0 L 1.46875 -0.078125 L 1.703125 -0.078125 C 1.890625 -0.078125 2.046875 -0.109375 2.171875 -0.171875 C 2.304688 -0.242188 2.375 -0.410156 2.375 -0.671875 L 2.375 -1.53125 L 0.109375 -1.53125 L 0.109375 -2.03125 L 2.4375 -5.859375 L 3.578125 -5.859375 L 3.578125 -2.0625 L 4.421875 -2.0625 L 4.421875 -1.53125 L 3.578125 -1.53125 L 3.578125 -0.671875 C 3.578125 -0.410156 3.640625 -0.242188 3.765625 -0.171875 C 3.898438 -0.109375 4.0625 -0.078125 4.25 -0.078125 L 4.359375 -0.078125 L 4.359375 0 Z M 0.234375 -2.0625 L 2.375 -2.0625 L 2.375 -3.875 C 2.375 -4.175781 2.375 -4.488281 2.375 -4.8125 C 2.375 -5.132812 2.378906 -5.414062 2.390625 -5.65625 C 2.359375 -5.601562 2.304688 -5.519531 2.234375 -5.40625 C 2.171875 -5.289062 2.097656 -5.164062 2.015625 -5.03125 C 1.941406 -4.894531 1.867188 -4.769531 1.796875 -4.65625 C 1.722656 -4.539062 1.664062 -4.445312 1.625 -4.375 Z M 0.234375 -2.0625 "/></g></g><g clip-rule="nonzero" clip-path="url(#975a8928b0)"><path style=" stroke:none;fill-rule:nonzero;fill:#004aad;fill-opacity:1;" d="M 300.570312 129.058594 C 293.5625 129.058594 287.832031 123.328125 287.832031 116.320312 C 287.832031 109.316406 293.5625 103.582031 300.570312 103.582031 C 307.574219 103.582031 313.308594 109.316406 313.308594 116.320312 C 313.308594 123.328125 307.574219 129.058594 300.570312 129.058594 Z M 300.570312 129.058594 "/></g><g clip-rule="nonzero" clip-path="url(#49c072683a)"><path style=" stroke:none;fill-rule:nonzero;fill:#ff3131;fill-opacity:1;" d="M 157.453125 129.0625 C 150.742188 129.0625 145.25 123.570312 145.25 116.855469 C 145.25 110.144531 150.742188 104.652344 157.453125 104.652344 C 164.167969 104.652344 169.660156 110.144531 169.660156 116.855469 C 169.660156 123.570312 164.167969 129.0625 157.453125 129.0625 Z M 157.453125 129.0625 "/></g><g clip-rule="nonzero" clip-path="url(#5f705a7491)"><path style=" stroke:none;fill-rule:nonzero;fill:#ff3131;fill-opacity:1;" d="M 239.882812 104.722656 L 264.609375 104.722656 L 264.609375 129.066406 L 239.882812 129.066406 Z M 239.882812 104.722656 "/></g><g clip-rule="nonzero" clip-path="url(#8878d8c02a)"><path style=" stroke:none;fill-rule:nonzero;fill:#004aad;fill-opacity:1;" d="M 192.867188 104.722656 L 217.59375 104.722656 L 217.59375 129.066406 L 192.867188 129.066406 Z M 192.867188 104.722656 "/></g></g></svg>