<svg xmlns="http://www.w3.org/2000/svg" xmlns:xlink="http://www.w3.org/1999/xlink" width="600" zoomAndPan="magnify" viewBox="0 0 450 149.999998" height="200" preserveAspectRatio="xMidYMid meet" version="1.2"><defs><clipPath id="d83ecf9a71"><path d="M 197.078125 45 L 266.078125 45 L 266.078125 105 L 197.078125 105 Z M 197.078125 45 "/></clipPath><clipPath id="e3f916c84f"><path d="M 25.472656 37.566406 L 118.472656 37.566406 L 118.472656 118.566406 L 25.472656 118.566406 Z M 25.472656 37.566406 "/></clipPath><clipPath id="4a7e724bcc"><path d="M 175.421875 39.066406 L 268.421875 39.066406 L 268.421875 120 L 175.421875 120 Z M 175.421875 39.066406 "/></clipPath><clipPath id="f1bec999d4"><path d="M 329.023438 37.675781 L 422 37.675781 L 422 118.675781 L 329.023438 118.675781 Z M 329.023438 37.675781 "/></clipPath></defs><g id="586219dbdf"><rect x="0" width="450" y="0" height="149.999998" style="fill:#ffffff;fill-opacity:1;stroke:none;"/><rect x="0" width="450" y="0" height="149.999998" style="fill:#ffffff;fill-opacity:1;stroke:none;"/><g clip-rule="nonzero" clip-path="url(#d83ecf9a71)"><path style=" stroke:none;fill-rule:nonzero;fill:#ffffff;fill-opacity:1;" d="M 266.078125 104.988281 L 197.078125 104.988281 L 231.578125 45.011719 Z M 200.265625 103.144531 L 262.890625 103.144531 L 231.578125 48.710938 Z M 200.265625 103.144531 "/></g><g clip-rule="nonzero" clip-path="url(#e3f916c84f)"><path style=" stroke:none;fill-rule:nonzero;fill:#c1ff72;fill-opacity:1;" d="M 117.589844 111.023438 L 75.308594 39.886719 L 75.289062 39.882812 C 74.492188 38.503906 73.019531 37.566406 71.3125 37.566406 C 69.78125 37.566406 68.433594 38.320312 67.597656 39.46875 L 67.585938 39.46875 L 67.558594 39.515625 C 67.402344 39.734375 67.269531 39.96875 67.15625 40.214844 L 26.328125 111.054688 C 25.835938 111.789062 25.550781 112.667969 25.550781 113.613281 C 25.550781 116.160156 27.613281 118.222656 30.160156 118.222656 L 113.78125 118.222656 C 116.324219 118.222656 118.386719 116.160156 118.386719 113.613281 C 118.386719 112.652344 118.09375 111.761719 117.589844 111.023438 Z M 117.589844 111.023438 "/></g><g clip-rule="nonzero" clip-path="url(#4a7e724bcc)"><path style=" stroke:none;fill-rule:nonzero;fill:#c1ff72;fill-opacity:1;" d="M 267.539062 112.523438 L 225.257812 41.386719 L 225.238281 41.382812 C 224.441406 40.003906 222.96875 39.066406 221.261719 39.066406 C 219.730469 39.066406 218.382812 39.820312 217.546875 40.96875 L 217.535156 40.96875 L 217.507812 41.015625 C 217.351562 41.234375 217.21875 41.46875 217.105469 41.714844 L 176.277344 112.554688 C 175.785156 113.289062 175.5 114.167969 175.5 115.113281 C 175.5 117.660156 177.5625 119.722656 180.109375 119.722656 L 263.730469 119.722656 C 266.273438 119.722656 268.335938 117.660156 268.335938 115.113281 C 268.335938 114.152344 268.042969 113.261719 267.539062 112.523438 Z M 267.539062 112.523438 "/></g><g style="fill:#ff3131;fill-opacity:1;"><g transform="translate(268.730013, 121.714764)"><path style="stroke:none" d="M 4.015625 -2.21875 L 0.25 -2.21875 L 0.25 -4.125 L 3.859375 -9.09375 L 6.90625 -9.09375 L 6.90625 -4.09375 L 8.203125 -4.09375 L 8.203125 -2.203125 L 6.90625 -2.203125 L 6.90625 0 L 4.015625 0 Z M 4.015625 -4.09375 L 4.015625 -6.78125 L 2.25 -4.09375 Z M 4.015625 -4.09375 "/></g></g><g clip-rule="nonzero" clip-path="url(#f1bec999d4)"><path style=" stroke:none;fill-rule:nonzero;fill:#c1ff72;fill-opacity:1;" d="M 421.140625 111.132812 L 378.859375 39.992188 L 378.839844 39.992188 C 378.042969 38.613281 376.570312 37.675781 374.863281 37.675781 C 373.332031 37.675781 371.988281 38.429688 371.148438 39.574219 L 371.136719 39.574219 L 371.109375 39.625 C 370.953125 39.84375 370.824219 40.078125 370.707031 40.320312 L 329.878906 111.160156 L 329.878906 111.164062 C 329.390625 111.894531 329.101562 112.773438 329.101562 113.722656 C 329.101562 116.269531 331.164062 118.332031 333.710938 118.332031 L 417.332031 118.332031 C 419.875 118.332031 421.941406 116.269531 421.941406 113.722656 C 421.941406 112.761719 421.644531 111.871094 421.140625 111.132812 Z M 421.140625 111.132812 "/></g><g style="fill:#ff3131;fill-opacity:1;"><g transform="translate(68.544632, 35.59246)"><path style="stroke:none" d="M 3.171875 0.171875 C 2.347656 0.171875 1.5 -0.0195312 0.625 -0.40625 L 0.796875 -2.28125 C 1.148438 -2.144531 1.507812 -2.039062 1.875 -1.96875 C 2.25 -1.90625 2.578125 -1.875 2.859375 -1.875 C 3.273438 -1.875 3.59375 -1.96875 3.8125 -2.15625 C 4.039062 -2.351562 4.15625 -2.617188 4.15625 -2.953125 C 4.15625 -3.242188 4.070312 -3.476562 3.90625 -3.65625 C 3.75 -3.84375 3.539062 -3.9375 3.28125 -3.9375 C 2.914062 -3.9375 2.476562 -3.757812 1.96875 -3.40625 L 0.578125 -4 L 0.921875 -8.9375 L 6.078125 -8.9375 L 5.875 -7.03125 L 2.71875 -7.03125 L 2.546875 -5.546875 C 2.785156 -5.691406 3.019531 -5.796875 3.25 -5.859375 C 3.488281 -5.921875 3.757812 -5.953125 4.0625 -5.953125 C 4.582031 -5.953125 5.046875 -5.820312 5.453125 -5.5625 C 5.867188 -5.3125 6.191406 -4.957031 6.421875 -4.5 C 6.660156 -4.039062 6.78125 -3.523438 6.78125 -2.953125 C 6.78125 -2.359375 6.625 -1.820312 6.3125 -1.34375 C 6 -0.863281 5.566406 -0.488281 5.015625 -0.21875 C 4.472656 0.0390625 3.859375 0.171875 3.171875 0.171875 Z M 3.171875 0.171875 "/></g></g><g style="fill:#ff3131;fill-opacity:1;"><g transform="translate(17.18883, 120.988685)"><path style="stroke:none" d="M 0.5 -1.890625 C 1.550781 -2.828125 2.34375 -3.625 2.875 -4.28125 C 3.414062 -4.945312 3.6875 -5.5 3.6875 -5.9375 C 3.6875 -6.21875 3.597656 -6.429688 3.421875 -6.578125 C 3.253906 -6.734375 3.019531 -6.8125 2.71875 -6.8125 C 2.164062 -6.8125 1.59375 -6.640625 1 -6.296875 L 0.34375 -8.28125 C 0.832031 -8.53125 1.316406 -8.71875 1.796875 -8.84375 C 2.273438 -8.96875 2.773438 -9.03125 3.296875 -9.03125 C 3.921875 -9.03125 4.46875 -8.90625 4.9375 -8.65625 C 5.40625 -8.414062 5.765625 -8.082031 6.015625 -7.65625 C 6.265625 -7.238281 6.390625 -6.757812 6.390625 -6.21875 C 6.390625 -5.40625 6.113281 -4.648438 5.5625 -3.953125 C 5.019531 -3.253906 4.203125 -2.585938 3.109375 -1.953125 L 6.328125 -1.953125 L 6.328125 0 L 0.5 0 Z M 0.5 -1.890625 "/></g></g><g style="fill:#ff3131;fill-opacity:1;"><g transform="translate(119.672909, 120.068887)"><path style="stroke:none" d="M 3.171875 0.171875 C 2.347656 0.171875 1.5 -0.0195312 0.625 -0.40625 L 0.796875 -2.28125 C 1.148438 -2.144531 1.507812 -2.039062 1.875 -1.96875 C 2.25 -1.90625 2.578125 -1.875 2.859375 -1.875 C 3.273438 -1.875 3.59375 -1.96875 3.8125 -2.15625 C 4.039062 -2.351562 4.15625 -2.617188 4.15625 -2.953125 C 4.15625 -3.242188 4.070312 -3.476562 3.90625 -3.65625 C 3.75 -3.84375 3.539062 -3.9375 3.28125 -3.9375 C 2.914062 -3.9375 2.476562 -3.757812 1.96875 -3.40625 L 0.578125 -4 L 0.921875 -8.9375 L 6.078125 -8.9375 L 5.875 -7.03125 L 2.71875 -7.03125 L 2.546875 -5.546875 C 2.785156 -5.691406 3.019531 -5.796875 3.25 -5.859375 C 3.488281 -5.921875 3.757812 -5.953125 4.0625 -5.953125 C 4.582031 -5.953125 5.046875 -5.820312 5.453125 -5.5625 C 5.867188 -5.3125 6.191406 -4.957031 6.421875 -4.5 C 6.660156 -4.039062 6.78125 -3.523438 6.78125 -2.953125 C 6.78125 -2.359375 6.625 -1.820312 6.3125 -1.34375 C 6 -0.863281 5.566406 -0.488281 5.015625 -0.21875 C 4.472656 0.0390625 3.859375 0.171875 3.171875 0.171875 Z M 3.171875 0.171875 "/></g></g><g style="fill:#ff3131;fill-opacity:1;"><g transform="translate(216.536315, 35.327875)"><path style="stroke:none" d="M 4.1875 0.171875 C 3.425781 0.171875 2.757812 0.0664062 2.1875 -0.140625 C 1.613281 -0.359375 1.171875 -0.660156 0.859375 -1.046875 C 0.554688 -1.441406 0.40625 -1.90625 0.40625 -2.4375 C 0.40625 -3.425781 0.960938 -4.132812 2.078125 -4.5625 C 1.710938 -4.863281 1.453125 -5.171875 1.296875 -5.484375 C 1.140625 -5.796875 1.0625 -6.164062 1.0625 -6.59375 C 1.0625 -7.082031 1.195312 -7.507812 1.46875 -7.875 C 1.75 -8.25 2.132812 -8.539062 2.625 -8.75 C 3.113281 -8.957031 3.675781 -9.0625 4.3125 -9.0625 C 4.882812 -9.0625 5.394531 -8.972656 5.84375 -8.796875 C 6.289062 -8.617188 6.640625 -8.375 6.890625 -8.0625 C 7.148438 -7.75 7.28125 -7.390625 7.28125 -6.984375 C 7.28125 -6.566406 7.191406 -6.210938 7.015625 -5.921875 C 6.835938 -5.640625 6.554688 -5.398438 6.171875 -5.203125 C 6.785156 -4.890625 7.238281 -4.523438 7.53125 -4.109375 C 7.820312 -3.703125 7.96875 -3.210938 7.96875 -2.640625 C 7.96875 -1.765625 7.628906 -1.078125 6.953125 -0.578125 C 6.285156 -0.078125 5.363281 0.171875 4.1875 0.171875 Z M 4.765625 -5.6875 C 5.046875 -5.957031 5.1875 -6.28125 5.1875 -6.65625 C 5.1875 -6.96875 5.097656 -7.203125 4.921875 -7.359375 C 4.753906 -7.523438 4.507812 -7.609375 4.1875 -7.609375 C 3.851562 -7.609375 3.597656 -7.546875 3.421875 -7.421875 C 3.253906 -7.304688 3.171875 -7.140625 3.171875 -6.921875 C 3.171875 -6.703125 3.253906 -6.507812 3.421875 -6.34375 C 3.597656 -6.1875 3.894531 -6.023438 4.3125 -5.859375 Z M 4.203125 -1.671875 C 4.546875 -1.671875 4.820312 -1.734375 5.03125 -1.859375 C 5.238281 -1.992188 5.34375 -2.164062 5.34375 -2.375 C 5.34375 -2.601562 5.242188 -2.804688 5.046875 -2.984375 C 4.859375 -3.160156 4.546875 -3.332031 4.109375 -3.5 L 3.5 -3.734375 C 3.21875 -3.441406 3.078125 -3.078125 3.078125 -2.640625 C 3.078125 -2.347656 3.179688 -2.113281 3.390625 -1.9375 C 3.597656 -1.757812 3.867188 -1.671875 4.203125 -1.671875 Z M 4.203125 -1.671875 "/></g></g><g style="fill:#000000;fill-opacity:1;"><g transform="translate(65.135478, 90.297398)"><path style="stroke:none" d="M 0.578125 -1.96875 L 1.703125 -1.96875 L 1.703125 -6.40625 L 0.578125 -6.328125 L 0.578125 -8.0625 C 0.960938 -8.0625 1.382812 -8.132812 1.84375 -8.28125 C 2.300781 -8.4375 2.742188 -8.65625 3.171875 -8.9375 L 4.5625 -8.9375 L 4.5625 -1.96875 L 5.6875 -1.96875 L 5.6875 0 L 0.578125 0 Z M 0.578125 -1.96875 "/></g></g><g style="fill:#000000;fill-opacity:1;"><g transform="translate(71.168654, 90.297398)"><path style="stroke:none" d="M 3.171875 0.171875 C 2.347656 0.171875 1.5 -0.0195312 0.625 -0.40625 L 0.796875 -2.28125 C 1.148438 -2.144531 1.507812 -2.039062 1.875 -1.96875 C 2.25 -1.90625 2.578125 -1.875 2.859375 -1.875 C 3.273438 -1.875 3.59375 -1.96875 3.8125 -2.15625 C 4.039062 -2.351562 4.15625 -2.617188 4.15625 -2.953125 C 4.15625 -3.242188 4.070312 -3.476562 3.90625 -3.65625 C 3.75 -3.84375 3.539062 -3.9375 3.28125 -3.9375 C 2.914062 -3.9375 2.476562 -3.757812 1.96875 -3.40625 L 0.578125 -4 L 0.921875 -8.9375 L 6.078125 -8.9375 L 5.875 -7.03125 L 2.71875 -7.03125 L 2.546875 -5.546875 C 2.785156 -5.691406 3.019531 -5.796875 3.25 -5.859375 C 3.488281 -5.921875 3.757812 -5.953125 4.0625 -5.953125 C 4.582031 -5.953125 5.046875 -5.820312 5.453125 -5.5625 C 5.867188 -5.3125 6.191406 -4.957031 6.421875 -4.5 C 6.660156 -4.039062 6.78125 -3.523438 6.78125 -2.953125 C 6.78125 -2.359375 6.625 -1.820312 6.3125 -1.34375 C 6 -0.863281 5.566406 -0.488281 5.015625 -0.21875 C 4.472656 0.0390625 3.859375 0.171875 3.171875 0.171875 Z M 3.171875 0.171875 "/></g></g><g style="fill:#ff3131;fill-opacity:1;"><g transform="translate(167.988291, 120.537189)"><path style="stroke:none" d="M 0.5 -1.890625 C 1.550781 -2.828125 2.34375 -3.625 2.875 -4.28125 C 3.414062 -4.945312 3.6875 -5.5 3.6875 -5.9375 C 3.6875 -6.21875 3.597656 -6.429688 3.421875 -6.578125 C 3.253906 -6.734375 3.019531 -6.8125 2.71875 -6.8125 C 2.164062 -6.8125 1.59375 -6.640625 1 -6.296875 L 0.34375 -8.28125 C 0.832031 -8.53125 1.316406 -8.71875 1.796875 -8.84375 C 2.273438 -8.96875 2.773438 -9.03125 3.296875 -9.03125 C 3.921875 -9.03125 4.46875 -8.90625 4.9375 -8.65625 C 5.40625 -8.414062 5.765625 -8.082031 6.015625 -7.65625 C 6.265625 -7.238281 6.390625 -6.757812 6.390625 -6.21875 C 6.390625 -5.40625 6.113281 -4.648438 5.5625 -3.953125 C 5.019531 -3.253906 4.203125 -2.585938 3.109375 -1.953125 L 6.328125 -1.953125 L 6.328125 0 L 0.5 0 Z M 0.5 -1.890625 "/></g></g><g style="fill:#000000;fill-opacity:1;"><g transform="translate(212.786315, 91.589337)"><path style="stroke:none" d="M 0.546875 -2.03125 C 1.671875 -3.039062 2.519531 -3.898438 3.09375 -4.609375 C 3.675781 -5.316406 3.96875 -5.90625 3.96875 -6.375 C 3.96875 -6.675781 3.875 -6.910156 3.6875 -7.078125 C 3.5 -7.242188 3.242188 -7.328125 2.921875 -7.328125 C 2.328125 -7.328125 1.710938 -7.140625 1.078125 -6.765625 L 0.375 -8.90625 C 0.894531 -9.175781 1.410156 -9.375 1.921875 -9.5 C 2.441406 -9.632812 2.984375 -9.703125 3.546875 -9.703125 C 4.210938 -9.703125 4.796875 -9.570312 5.296875 -9.3125 C 5.804688 -9.050781 6.191406 -8.691406 6.453125 -8.234375 C 6.722656 -7.773438 6.859375 -7.253906 6.859375 -6.671875 C 6.859375 -5.804688 6.566406 -4.992188 5.984375 -4.234375 C 5.398438 -3.484375 4.519531 -2.769531 3.34375 -2.09375 L 6.8125 -2.09375 L 6.8125 0 L 0.546875 0 Z M 0.546875 -2.03125 "/></g></g><g style="fill:#000000;fill-opacity:1;"><g transform="translate(220.216368, 91.589337)"><path style="stroke:none" d="M 4.984375 0.109375 C 4.117188 0.109375 3.34375 -0.0976562 2.65625 -0.515625 C 1.976562 -0.941406 1.441406 -1.53125 1.046875 -2.28125 C 0.660156 -3.039062 0.46875 -3.898438 0.46875 -4.859375 C 0.46875 -5.804688 0.660156 -6.65625 1.046875 -7.40625 C 1.441406 -8.15625 1.976562 -8.742188 2.65625 -9.171875 C 3.34375 -9.597656 4.117188 -9.8125 4.984375 -9.8125 C 5.835938 -9.8125 6.601562 -9.597656 7.28125 -9.171875 C 7.96875 -8.742188 8.503906 -8.148438 8.890625 -7.390625 C 9.285156 -6.640625 9.484375 -5.796875 9.484375 -4.859375 C 9.484375 -3.910156 9.289062 -3.054688 8.90625 -2.296875 C 8.519531 -1.535156 7.984375 -0.941406 7.296875 -0.515625 C 6.617188 -0.0976562 5.847656 0.109375 4.984375 0.109375 Z M 4.984375 -2.265625 C 5.265625 -2.265625 5.519531 -2.375 5.75 -2.59375 C 5.988281 -2.820312 6.175781 -3.132812 6.3125 -3.53125 C 6.445312 -3.925781 6.515625 -4.367188 6.515625 -4.859375 C 6.515625 -5.609375 6.367188 -6.222656 6.078125 -6.703125 C 5.796875 -7.179688 5.429688 -7.421875 4.984375 -7.421875 C 4.515625 -7.421875 4.140625 -7.179688 3.859375 -6.703125 C 3.578125 -6.234375 3.4375 -5.617188 3.4375 -4.859375 C 3.4375 -4.097656 3.582031 -3.472656 3.875 -2.984375 C 4.164062 -2.503906 4.535156 -2.265625 4.984375 -2.265625 Z M 4.984375 -2.265625 "/></g></g><g style="fill:#ff3131;fill-opacity:1;"><g transform="translate(369.804768, 36.337251)"><path style="stroke:none" d="M 3.875 0.09375 C 2.800781 0.09375 1.773438 -0.222656 0.796875 -0.859375 L 1.484375 -2.75 C 1.847656 -2.53125 2.195312 -2.367188 2.53125 -2.265625 C 2.863281 -2.171875 3.203125 -2.125 3.546875 -2.125 C 4.171875 -2.125 4.644531 -2.320312 4.96875 -2.71875 C 5.300781 -3.125 5.503906 -3.765625 5.578125 -4.640625 C 5.046875 -3.972656 4.3125 -3.640625 3.375 -3.640625 C 2.445312 -3.640625 1.722656 -3.898438 1.203125 -4.421875 C 0.691406 -4.953125 0.4375 -5.660156 0.4375 -6.546875 C 0.4375 -7.128906 0.597656 -7.664062 0.921875 -8.15625 C 1.242188 -8.644531 1.6875 -9.03125 2.25 -9.3125 C 2.820312 -9.601562 3.453125 -9.75 4.140625 -9.75 C 4.992188 -9.75 5.742188 -9.554688 6.390625 -9.171875 C 7.035156 -8.796875 7.535156 -8.257812 7.890625 -7.5625 C 8.242188 -6.863281 8.421875 -6.046875 8.421875 -5.109375 C 8.421875 -4.117188 8.226562 -3.226562 7.84375 -2.4375 C 7.457031 -1.644531 6.921875 -1.023438 6.234375 -0.578125 C 5.546875 -0.128906 4.757812 0.09375 3.875 0.09375 Z M 4.328125 -5.421875 C 4.710938 -5.421875 5.113281 -5.507812 5.53125 -5.6875 C 5.507812 -6.34375 5.378906 -6.84375 5.140625 -7.1875 C 4.910156 -7.53125 4.582031 -7.703125 4.15625 -7.703125 C 3.8125 -7.703125 3.535156 -7.59375 3.328125 -7.375 C 3.117188 -7.15625 3.015625 -6.867188 3.015625 -6.515625 C 3.015625 -6.171875 3.128906 -5.898438 3.359375 -5.703125 C 3.585938 -5.515625 3.910156 -5.421875 4.328125 -5.421875 Z M 4.328125 -5.421875 "/></g></g><g style="fill:#000000;fill-opacity:1;"><g transform="translate(369.782882, 94.248695)"><path style="stroke:none" d="M 2.734375 -5.921875 C 2.460938 -6.671875 2.328125 -7.273438 2.328125 -7.734375 C 2.328125 -8.515625 2.554688 -9.113281 3.015625 -9.53125 C 3.472656 -9.957031 4.097656 -10.351562 4.890625 -10.71875 C 5.347656 -10.9375 5.660156 -11.109375 5.828125 -11.234375 C 5.992188 -11.359375 6.078125 -11.503906 6.078125 -11.671875 C 6.078125 -12.171875 5.46875 -12.421875 4.25 -12.421875 C 3.15625 -12.421875 2.144531 -12.21875 1.21875 -11.8125 L 0.890625 -15.359375 C 1.617188 -15.691406 2.398438 -15.945312 3.234375 -16.125 C 4.078125 -16.300781 4.859375 -16.390625 5.578125 -16.390625 C 6.679688 -16.390625 7.660156 -16.207031 8.515625 -15.84375 C 9.367188 -15.476562 10.03125 -14.960938 10.5 -14.296875 C 10.976562 -13.640625 11.21875 -12.890625 11.21875 -12.046875 C 11.21875 -11.304688 11.0625 -10.691406 10.75 -10.203125 C 10.4375 -9.710938 10.066406 -9.332031 9.640625 -9.0625 C 9.222656 -8.789062 8.675781 -8.503906 8 -8.203125 C 7.300781 -7.890625 6.789062 -7.609375 6.46875 -7.359375 C 6.144531 -7.117188 5.984375 -6.785156 5.984375 -6.359375 L 5.984375 -5.921875 Z M 4.34375 0.140625 C 3.539062 0.140625 2.898438 -0.078125 2.421875 -0.515625 C 1.941406 -0.953125 1.703125 -1.523438 1.703125 -2.234375 C 1.703125 -2.929688 1.945312 -3.5 2.4375 -3.9375 C 2.925781 -4.375 3.5625 -4.59375 4.34375 -4.59375 C 5.082031 -4.59375 5.703125 -4.363281 6.203125 -3.90625 C 6.703125 -3.457031 6.953125 -2.898438 6.953125 -2.234375 C 6.953125 -1.492188 6.722656 -0.910156 6.265625 -0.484375 C 5.804688 -0.0664062 5.164062 0.140625 4.34375 0.140625 Z M 4.34375 0.140625 "/></g></g><g style="fill:#ff3131;fill-opacity:1;"><g transform="translate(321.412748, 120.967092)"><path style="stroke:none" d="M 3.40625 0.1875 C 2.519531 0.1875 1.609375 -0.0195312 0.671875 -0.4375 L 0.859375 -2.453125 C 1.242188 -2.304688 1.628906 -2.195312 2.015625 -2.125 C 2.410156 -2.050781 2.765625 -2.015625 3.078125 -2.015625 C 3.523438 -2.015625 3.867188 -2.117188 4.109375 -2.328125 C 4.347656 -2.535156 4.46875 -2.816406 4.46875 -3.171875 C 4.46875 -3.484375 4.378906 -3.738281 4.203125 -3.9375 C 4.035156 -4.132812 3.8125 -4.234375 3.53125 -4.234375 C 3.132812 -4.234375 2.660156 -4.039062 2.109375 -3.65625 L 0.625 -4.3125 L 0.984375 -9.609375 L 6.53125 -9.609375 L 6.3125 -7.546875 L 2.921875 -7.546875 L 2.75 -5.953125 C 3 -6.117188 3.25 -6.234375 3.5 -6.296875 C 3.75 -6.367188 4.035156 -6.40625 4.359375 -6.40625 C 4.921875 -6.40625 5.421875 -6.265625 5.859375 -5.984375 C 6.304688 -5.710938 6.65625 -5.328125 6.90625 -4.828125 C 7.164062 -4.335938 7.296875 -3.785156 7.296875 -3.171875 C 7.296875 -2.535156 7.128906 -1.957031 6.796875 -1.4375 C 6.460938 -0.925781 6 -0.523438 5.40625 -0.234375 C 4.8125 0.046875 4.144531 0.1875 3.40625 0.1875 Z M 3.40625 0.1875 "/></g></g><g style="fill:#ff3131;fill-opacity:1;"><g transform="translate(422.578573, 117.364111)"><path style="stroke:none" d="M 0.484375 -1.671875 L 1.4375 -1.671875 L 1.4375 -5.453125 L 0.484375 -5.390625 L 0.484375 -6.859375 C 0.816406 -6.859375 1.175781 -6.921875 1.5625 -7.046875 C 1.945312 -7.171875 2.320312 -7.351562 2.6875 -7.59375 L 3.890625 -7.59375 L 3.890625 -1.671875 L 4.84375 -1.671875 L 4.84375 0 L 0.484375 0 Z M 0.484375 -1.671875 "/></g></g><g style="fill:#ff3131;fill-opacity:1;"><g transform="translate(427.592413, 117.364111)"><path style="stroke:none" d="M 3.9375 0.09375 C 3.257812 0.09375 2.648438 -0.0703125 2.109375 -0.40625 C 1.566406 -0.75 1.140625 -1.21875 0.828125 -1.8125 C 0.523438 -2.40625 0.375 -3.082031 0.375 -3.84375 C 0.375 -4.59375 0.523438 -5.265625 0.828125 -5.859375 C 1.140625 -6.453125 1.566406 -6.914062 2.109375 -7.25 C 2.648438 -7.59375 3.257812 -7.765625 3.9375 -7.765625 C 4.613281 -7.765625 5.222656 -7.59375 5.765625 -7.25 C 6.304688 -6.914062 6.726562 -6.445312 7.03125 -5.84375 C 7.34375 -5.25 7.5 -4.582031 7.5 -3.84375 C 7.5 -3.09375 7.347656 -2.414062 7.046875 -1.8125 C 6.742188 -1.21875 6.320312 -0.75 5.78125 -0.40625 C 5.238281 -0.0703125 4.625 0.09375 3.9375 0.09375 Z M 3.9375 -1.796875 C 4.164062 -1.796875 4.375 -1.882812 4.5625 -2.0625 C 4.75 -2.238281 4.894531 -2.484375 5 -2.796875 C 5.101562 -3.109375 5.15625 -3.457031 5.15625 -3.84375 C 5.15625 -4.4375 5.039062 -4.921875 4.8125 -5.296875 C 4.582031 -5.679688 4.289062 -5.875 3.9375 -5.875 C 3.570312 -5.875 3.273438 -5.6875 3.046875 -5.3125 C 2.828125 -4.9375 2.71875 -4.445312 2.71875 -3.84375 C 2.71875 -3.238281 2.832031 -2.742188 3.0625 -2.359375 C 3.289062 -1.984375 3.582031 -1.796875 3.9375 -1.796875 Z M 3.9375 -1.796875 "/></g></g></g></svg>