<svg xmlns="http://www.w3.org/2000/svg" xmlns:xlink="http://www.w3.org/1999/xlink" width="600" zoomAndPan="magnify" viewBox="0 0 450 149.999998" height="200" preserveAspectRatio="xMidYMid meet" version="1.2"><defs/><g id="e423cbde95"><rect x="0" width="450" y="0" height="149.999998" style="fill:#ffffff;fill-opacity:1;stroke:none;"/><rect x="0" width="450" y="0" height="149.999998" style="fill:#ffffff;fill-opacity:1;stroke:none;"/><path style="fill-rule:nonzero;fill:#000000;fill-opacity:1;stroke-width:1;stroke-linecap:butt;stroke-linejoin:miter;stroke:#0c7b3b;stroke-opacity:1;stroke-miterlimit:4;" d="M 0.499995 0.999997 L 0.499995 199.000009 M 599.50003 0.999997 L 599.50003 199.000009 M -0.000005 0.499997 L 600.00003 0.499997 M -0.000005 199.500009 L 600.00003 199.500009 " transform="matrix(0.75,0,0,0.75,0.00000375,0.000002)"/><g style="fill:#0c7b3b;fill-opacity:1;"><g transform="translate(150.923508, 91.710143)"><path style="stroke:none" d="M 14.320312 -38.957031 C 10.089844 -38.957031 7.046875 -37.492188 3.550781 -35.292969 L 3.550781 -27.230469 C 6.652344 -30.21875 10.316406 -32.023438 12.796875 -32.023438 C 15.730469 -32.023438 17.984375 -29.484375 17.984375 -26.609375 C 17.984375 -23.003906 16.066406 -18.660156 10.261719 -10.710938 C 7.386719 -6.820312 4.960938 -3.550781 3.042969 -1.128906 L 3.042969 0 L 28.46875 0 L 28.46875 -7.835938 L 16.066406 -7.835938 C 21.3125 -14.601562 22.324219 -16.40625 24.804688 -21.3125 C 25.933594 -23.621094 26.496094 -25.820312 26.496094 -28.1875 C 26.496094 -33.9375 22.71875 -38.957031 14.320312 -38.957031 Z M 14.320312 -38.957031 "/></g></g><g style="fill:#0c7b3b;fill-opacity:1;"><g transform="translate(182.038184, 91.710143)"><path style="stroke:none" d="M 5.582031 -38.449219 L 5.582031 -16.519531 C 7.105469 -16.914062 8.683594 -17.082031 10.316406 -17.082031 C 14.769531 -17.082031 17.871094 -14.996094 17.871094 -11.558594 C 17.871094 -8.738281 15.617188 -6.257812 11.78125 -6.257812 C 9.753906 -6.257812 7.046875 -6.707031 3.609375 -8.570312 L 3.609375 -1.578125 C 5.523438 -0.449219 9.695312 0.507812 12.910156 0.507812 C 22.101562 0.507812 26.835938 -4.679688 26.835938 -12.007812 C 26.835938 -18.71875 21.59375 -23.566406 14.769531 -23.566406 C 14.152344 -23.566406 13.699219 -23.507812 13.25 -23.507812 L 13.25 -30.726562 L 25.539062 -30.726562 L 25.539062 -38.449219 Z M 5.582031 -38.449219 "/></g></g><g style="fill:#0c7b3b;fill-opacity:1;"><g transform="translate(213.15286, 91.710143)"><path style="stroke:none" d="M 15.449219 -38.957031 C 8.230469 -38.957031 3.777344 -34.617188 3.777344 -28.527344 C 3.777344 -25.199219 5.074219 -22.4375 8.511719 -20.296875 C 4.792969 -18.773438 2.707031 -15.164062 2.707031 -10.9375 C 2.707031 -4.171875 8.0625 0.507812 15.503906 0.507812 C 23.507812 0.507812 28.46875 -4.226562 28.46875 -10.992188 C 28.46875 -15.054688 26.441406 -18.546875 22.71875 -20.296875 C 26.328125 -22.382812 27.398438 -25.539062 27.398438 -28.640625 C 27.398438 -33.488281 23.507812 -38.957031 15.449219 -38.957031 Z M 11.953125 -28.019531 C 11.953125 -31.0625 13.25 -33.207031 15.558594 -33.207031 C 17.871094 -33.207031 19.167969 -31.402344 19.167969 -28.074219 C 19.167969 -24.636719 17.871094 -22.664062 15.617188 -22.664062 C 13.191406 -22.664062 11.953125 -24.976562 11.953125 -28.019531 Z M 19.789062 -10.992188 C 19.789062 -7.328125 18.152344 -5.019531 15.671875 -5.019531 C 13.191406 -5.019531 11.332031 -7.441406 11.332031 -11.164062 C 11.332031 -14.828125 12.910156 -17.195312 15.617188 -17.195312 C 18.152344 -17.195312 19.789062 -15.054688 19.789062 -10.992188 Z M 19.789062 -10.992188 "/></g></g><g style="fill:#0c7b3b;fill-opacity:1;"><g transform="translate(244.267536, 91.710143)"><path style="stroke:none" d="M 15.617188 -38.957031 C 8.792969 -38.957031 2.535156 -33.433594 2.535156 -19.226562 C 2.535156 -6.203125 7.667969 0.507812 15.730469 0.507812 C 23.621094 0.507812 28.582031 -6.539062 28.582031 -19.394531 C 28.582031 -33.996094 22.042969 -38.957031 15.617188 -38.957031 Z M 19.730469 -19.730469 C 19.730469 -9.246094 18.378906 -6.652344 15.617188 -6.652344 C 13.078125 -6.652344 11.445312 -9.191406 11.445312 -19.226562 C 11.445312 -28.867188 12.855469 -31.742188 15.558594 -31.742188 C 18.71875 -31.742188 19.730469 -27.792969 19.730469 -19.730469 Z M 19.730469 -19.730469 "/></g></g></g></svg>