<svg xmlns="http://www.w3.org/2000/svg" xmlns:xlink="http://www.w3.org/1999/xlink" width="600" zoomAndPan="magnify" viewBox="0 0 450 149.999998" height="200" preserveAspectRatio="xMidYMid meet" version="1.2"><defs><clipPath id="8994c5dc06"><path d="M 168.523438 0.75 L 287.773438 0.75 L 287.773438 42.75 L 168.523438 42.75 Z M 168.523438 0.75 "/></clipPath><clipPath id="441bf3675b"><path d="M 168.523438 47 L 287.773438 47 L 287.773438 88.796875 L 168.523438 88.796875 Z M 168.523438 47 "/></clipPath><clipPath id="587ce6d3bf"><path d="M 168.523438 46.796875 L 287.773438 46.796875 L 287.773438 88.796875 L 168.523438 88.796875 Z M 168.523438 46.796875 "/></clipPath><clipPath id="a77782824a"><path d="M 251.140625 60.527344 L 260.140625 60.527344 L 260.140625 72 L 251.140625 72 Z M 251.140625 60.527344 "/></clipPath><clipPath id="0215f07d7f"><path d="M 253 72 L 257 72 L 257 75.527344 L 253 75.527344 Z M 253 72 "/></clipPath><clipPath id="f97f9dc95a"><path d="M 181.601562 50.667969 L 215.351562 50.667969 L 215.351562 84.417969 L 181.601562 84.417969 Z M 181.601562 50.667969 "/></clipPath><clipPath id="2ff84de0fd"><path d="M 240.257812 6.515625 L 273.503906 6.515625 L 273.503906 36.636719 L 240.257812 36.636719 Z M 240.257812 6.515625 "/></clipPath><clipPath id="1b2c9b1304"><path d="M 181.601562 6.144531 L 215.296875 6.144531 L 215.296875 37.007812 L 181.601562 37.007812 Z M 181.601562 6.144531 "/></clipPath><clipPath id="d75ee17950"><path d="M 134.335938 99.34375 L 324.835938 99.34375 L 324.835938 132 L 134.335938 132 Z M 134.335938 99.34375 "/></clipPath><clipPath id="e3a93b8c17"><path d="M 134.335938 99.34375 L 324.835938 99.34375 L 324.835938 132.34375 L 134.335938 132.34375 Z M 134.335938 99.34375 "/></clipPath><clipPath id="9fec905cb3"><path d="M 134.335938 135 L 324.835938 135 L 324.835938 148 L 134.335938 148 Z M 134.335938 135 "/></clipPath><clipPath id="dc8169915c"><path d="M 287.773438 103.085938 L 313.273438 103.085938 L 313.273438 128.585938 L 287.773438 128.585938 Z M 287.773438 103.085938 "/></clipPath><clipPath id="8d40374eb9"><path d="M 193.007812 103.582031 L 217.757812 103.582031 L 217.757812 128 L 193.007812 128 Z M 193.007812 103.582031 "/></clipPath><clipPath id="8e89539d04"><path d="M 241.695312 103.652344 L 266.394531 103.652344 L 266.394531 128 L 241.695312 128 Z M 241.695312 103.652344 "/></clipPath><clipPath id="51d5ae4477"><path d="M 144.964844 104.152344 L 169.664062 104.152344 L 169.664062 128.5 L 144.964844 128.5 Z M 144.964844 104.152344 "/></clipPath></defs><g id="8950e8595a"><rect x="0" width="450" y="0" height="149.999998" style="fill:#ffffff;fill-opacity:1;stroke:none;"/><rect x="0" width="450" y="0" height="149.999998" style="fill:#ffffff;fill-opacity:1;stroke:none;"/><g clip-rule="nonzero" clip-path="url(#8994c5dc06)"><path style="fill-rule:nonzero;fill:#000000;fill-opacity:1;stroke-width:0.545523;stroke-linecap:butt;stroke-linejoin:miter;stroke:#000000;stroke-opacity:1;stroke-miterlimit:4;" d="M 0.272176 0.546872 L 0.272176 54.989584 M 79.548222 0.546872 L 79.548222 54.989584 M 157.730518 0.546872 L 157.730518 54.989584 M 0.00134237 0.270831 L 158.001352 0.270831 M 0.00134237 55.260417 L 158.001352 55.260417 " transform="matrix(0.75,0,0,0.75,168.522431,0.750002)"/></g><g clip-rule="nonzero" clip-path="url(#441bf3675b)"><path style=" stroke:none;fill-rule:nonzero;fill:#000000;fill-opacity:1;" d="M 168.726562 47.203125 L 168.726562 88.039062 M 228.183594 47.203125 L 228.183594 88.039062 M 286.820312 47.203125 L 286.820312 88.039062 M 168.523438 47 L 287.023438 47 M 168.523438 88.242188 L 287.023438 88.242188 "/></g><g clip-rule="nonzero" clip-path="url(#587ce6d3bf)"><path style="fill:none;stroke-width:0.545523;stroke-linecap:butt;stroke-linejoin:miter;stroke:#000000;stroke-opacity:1;stroke-miterlimit:4;" d="M 0.272176 0.543674 L 0.272176 54.991594 M 79.548222 0.543674 L 79.548222 54.991594 M 157.730518 0.543674 L 157.730518 54.991594 M 0.00134237 0.27284 L 158.001352 0.27284 M 0.00134237 55.262427 L 158.001352 55.262427 " transform="matrix(0.75,0,0,0.75,168.522431,46.79537)"/></g><g clip-rule="nonzero" clip-path="url(#a77782824a)"><path style=" stroke:none;fill-rule:nonzero;fill:#000000;fill-opacity:1;" d="M 259.546875 62.265625 C 259.160156 61.703125 258.625 61.269531 257.945312 60.972656 C 257.265625 60.675781 256.484375 60.527344 255.597656 60.527344 C 254.792969 60.527344 254.054688 60.671875 253.390625 60.96875 C 252.722656 61.257812 252.1875 61.707031 251.78125 62.296875 C 251.457031 62.765625 251.257812 63.335938 251.175781 64.007812 C 251.140625 64.296875 251.367188 64.554688 251.65625 64.554688 L 253.4375 64.554688 C 253.667969 64.554688 253.859375 64.390625 253.910156 64.164062 C 253.957031 63.957031 254.027344 63.773438 254.132812 63.621094 C 254.296875 63.367188 254.507812 63.175781 254.765625 63.046875 C 255.023438 62.917969 255.296875 62.851562 255.585938 62.851562 C 255.886719 62.851562 256.15625 62.914062 256.40625 63.042969 C 256.652344 63.167969 256.847656 63.351562 256.996094 63.589844 C 257.140625 63.828125 257.214844 64.097656 257.214844 64.414062 C 257.214844 64.710938 257.148438 64.976562 257.019531 65.214844 C 256.890625 65.453125 256.71875 65.671875 256.5 65.867188 C 256.28125 66.0625 256.039062 66.25 255.761719 66.433594 C 255.394531 66.671875 255.074219 66.933594 254.816406 67.226562 C 254.550781 67.515625 254.355469 67.898438 254.214844 68.371094 C 254.082031 68.84375 254.011719 69.476562 254.007812 70.273438 L 254.007812 70.667969 C 254.007812 70.9375 254.222656 71.160156 254.488281 71.160156 L 256.058594 71.160156 C 256.324219 71.160156 256.539062 70.941406 256.539062 70.667969 L 256.539062 70.273438 C 256.546875 69.828125 256.601562 69.453125 256.710938 69.148438 C 256.820312 68.84375 256.984375 68.574219 257.207031 68.34375 C 257.433594 68.113281 257.722656 67.890625 258.074219 67.675781 C 258.492188 67.421875 258.855469 67.136719 259.164062 66.816406 C 259.46875 66.503906 259.707031 66.136719 259.882812 65.726562 C 260.050781 65.3125 260.140625 64.839844 260.140625 64.308594 C 260.128906 63.511719 259.933594 62.832031 259.546875 62.265625 Z M 259.546875 62.265625 "/></g><g clip-rule="nonzero" clip-path="url(#0215f07d7f)"><path style=" stroke:none;fill-rule:nonzero;fill:#000000;fill-opacity:1;" d="M 255.324219 72.265625 C 254.875 72.265625 254.496094 72.425781 254.183594 72.742188 C 253.871094 73.058594 253.714844 73.445312 253.71875 73.886719 C 253.714844 74.339844 253.871094 74.726562 254.183594 75.046875 C 254.496094 75.367188 254.875 75.527344 255.324219 75.527344 C 255.605469 75.527344 255.871094 75.453125 256.109375 75.304688 C 256.347656 75.152344 256.542969 74.960938 256.691406 74.710938 C 256.84375 74.460938 256.917969 74.1875 256.921875 73.886719 C 256.914062 73.441406 256.753906 73.058594 256.433594 72.742188 C 256.117188 72.425781 255.746094 72.265625 255.324219 72.265625 Z M 255.324219 72.265625 "/></g><g clip-rule="nonzero" clip-path="url(#f97f9dc95a)"><path style=" stroke:none;fill-rule:nonzero;fill:#004aad;fill-opacity:1;" d="M 198.476562 84.417969 C 189.195312 84.417969 181.601562 76.824219 181.601562 67.542969 C 181.601562 58.261719 189.195312 50.667969 198.476562 50.667969 C 207.757812 50.667969 215.351562 58.261719 215.351562 67.542969 C 215.351562 76.824219 207.757812 84.417969 198.476562 84.417969 Z M 198.476562 84.417969 "/></g><g clip-rule="nonzero" clip-path="url(#2ff84de0fd)"><path style=" stroke:none;fill-rule:nonzero;fill:#ff3131;fill-opacity:1;" d="M 240.257812 6.515625 L 273.558594 6.515625 L 273.558594 36.636719 L 240.257812 36.636719 Z M 240.257812 6.515625 "/></g><g clip-rule="nonzero" clip-path="url(#1b2c9b1304)"><path style=" stroke:none;fill-rule:nonzero;fill:#004aad;fill-opacity:1;" d="M 181.601562 6.144531 L 215.355469 6.144531 L 215.355469 37.007812 L 181.601562 37.007812 Z M 181.601562 6.144531 "/></g><g clip-rule="nonzero" clip-path="url(#d75ee17950)"><path style=" stroke:none;fill-rule:nonzero;fill:#000000;fill-opacity:1;" d="M 134.660156 100 L 134.660156 131.585938 M 181.796875 100 L 181.796875 131.585938 M 228.304688 100 L 228.304688 131.585938 M 276.070312 100 L 276.070312 131.585938 M 323.839844 100 L 323.839844 131.585938 M 134.335938 99.671875 L 324.164062 99.671875 M 134.335938 131.914062 L 324.164062 131.914062 "/></g><g clip-rule="nonzero" clip-path="url(#e3a93b8c17)"><path style="fill:none;stroke-width:0.871773;stroke-linecap:butt;stroke-linejoin:miter;stroke:#000000;stroke-opacity:1;stroke-miterlimit:4;" d="M 0.434282 0.874199 L 0.434282 42.988785 M 63.283244 0.874199 L 63.283244 42.988785 M 125.293664 0.874199 L 125.293664 42.988785 M 188.981168 0.874199 L 188.981168 42.988785 M 252.67388 0.874199 L 252.67388 42.988785 M 0.00199038 0.436699 L 253.106172 0.436699 M 0.00199038 43.426285 L 253.106172 43.426285 " transform="matrix(0.75,0,0,0.75,134.334445,99.344351)"/></g><g clip-rule="nonzero" clip-path="url(#9fec905cb3)"><path style="fill-rule:nonzero;fill:#000000;fill-opacity:1;stroke-width:0.871773;stroke-linecap:butt;stroke-linejoin:miter;stroke:#000000;stroke-opacity:1;stroke-miterlimit:4;" d="M 0.434282 0.873446 L 0.434282 16.347406 M 63.585327 0.873446 L 63.585327 16.347406 M 124.694706 0.873446 L 124.694706 16.347406 M 188.949918 0.873446 L 188.949918 16.347406 M 252.67388 0.873446 L 252.67388 16.347406 M 0.00199038 0.435946 L 253.106172 0.435946 M 0.00199038 16.779697 L 253.106172 16.779697 " transform="matrix(0.75,0,0,0.75,134.334445,135.001165)"/></g><g style="fill:#000000;fill-opacity:1;"><g transform="translate(202.923566, 143.417864)"><path style="stroke:none" d="M 0.28125 0 L 0.28125 -0.765625 L 1.421875 -1.84375 C 1.765625 -2.175781 2.035156 -2.476562 2.234375 -2.75 C 2.429688 -3.03125 2.566406 -3.316406 2.640625 -3.609375 C 2.722656 -3.898438 2.765625 -4.234375 2.765625 -4.609375 C 2.765625 -5.046875 2.710938 -5.363281 2.609375 -5.5625 C 2.503906 -5.757812 2.328125 -5.859375 2.078125 -5.859375 C 1.890625 -5.859375 1.742188 -5.800781 1.640625 -5.6875 C 1.546875 -5.570312 1.476562 -5.378906 1.4375 -5.109375 C 1.394531 -4.847656 1.375 -4.484375 1.375 -4.015625 C 1.0625 -4.015625 0.804688 -4.078125 0.609375 -4.203125 C 0.410156 -4.328125 0.3125 -4.523438 0.3125 -4.796875 C 0.3125 -5.117188 0.460938 -5.390625 0.765625 -5.609375 C 1.078125 -5.828125 1.53125 -5.9375 2.125 -5.9375 C 2.738281 -5.9375 3.203125 -5.816406 3.515625 -5.578125 C 3.835938 -5.335938 4 -5 4 -4.5625 C 4 -4.375 3.960938 -4.191406 3.890625 -4.015625 C 3.828125 -3.835938 3.707031 -3.644531 3.53125 -3.4375 C 3.351562 -3.226562 3.113281 -2.988281 2.8125 -2.71875 C 2.519531 -2.457031 2.144531 -2.148438 1.6875 -1.796875 L 0.546875 -0.90625 L 3.3125 -0.90625 C 3.570312 -0.90625 3.757812 -0.941406 3.875 -1.015625 C 4 -1.097656 4.070312 -1.25 4.09375 -1.46875 L 4.125 -1.71875 L 4.203125 -1.71875 L 4.15625 0 Z M 0.28125 0 "/></g></g><g style="fill:#000000;fill-opacity:1;"><g transform="translate(251.140595, 143.417864)"><path style="stroke:none" d="M 1.984375 0.078125 C 1.378906 0.078125 0.9375 -0.0195312 0.65625 -0.21875 C 0.375 -0.414062 0.234375 -0.644531 0.234375 -0.90625 C 0.234375 -1.113281 0.300781 -1.269531 0.4375 -1.375 C 0.570312 -1.488281 0.734375 -1.546875 0.921875 -1.546875 C 0.921875 -1.140625 0.960938 -0.828125 1.046875 -0.609375 C 1.140625 -0.390625 1.257812 -0.234375 1.40625 -0.140625 C 1.5625 -0.046875 1.738281 0 1.9375 0 C 2.289062 0 2.546875 -0.132812 2.703125 -0.40625 C 2.859375 -0.675781 2.9375 -1.066406 2.9375 -1.578125 C 2.9375 -1.941406 2.894531 -2.222656 2.8125 -2.421875 C 2.726562 -2.628906 2.585938 -2.773438 2.390625 -2.859375 C 2.191406 -2.941406 1.9375 -2.984375 1.625 -2.984375 L 1.171875 -2.984375 L 1.171875 -3.0625 L 1.625 -3.0625 C 1.914062 -3.0625 2.140625 -3.109375 2.296875 -3.203125 C 2.460938 -3.296875 2.578125 -3.445312 2.640625 -3.65625 C 2.710938 -3.863281 2.75 -4.140625 2.75 -4.484375 C 2.75 -4.984375 2.6875 -5.335938 2.5625 -5.546875 C 2.445312 -5.753906 2.28125 -5.859375 2.0625 -5.859375 C 1.769531 -5.859375 1.578125 -5.707031 1.484375 -5.40625 C 1.398438 -5.113281 1.359375 -4.703125 1.359375 -4.171875 C 1.023438 -4.171875 0.765625 -4.226562 0.578125 -4.34375 C 0.390625 -4.457031 0.296875 -4.640625 0.296875 -4.890625 C 0.296875 -5.179688 0.445312 -5.425781 0.75 -5.625 C 1.0625 -5.832031 1.515625 -5.9375 2.109375 -5.9375 C 2.691406 -5.9375 3.148438 -5.816406 3.484375 -5.578125 C 3.828125 -5.347656 4 -5.007812 4 -4.5625 C 4 -4.332031 3.941406 -4.109375 3.828125 -3.890625 C 3.710938 -3.671875 3.519531 -3.484375 3.25 -3.328125 C 2.988281 -3.179688 2.628906 -3.085938 2.171875 -3.046875 C 2.828125 -3.046875 3.328125 -2.921875 3.671875 -2.671875 C 4.023438 -2.429688 4.203125 -2.0625 4.203125 -1.5625 C 4.203125 -1.164062 4.097656 -0.847656 3.890625 -0.609375 C 3.679688 -0.367188 3.40625 -0.191406 3.0625 -0.078125 C 2.726562 0.0234375 2.367188 0.078125 1.984375 0.078125 Z M 1.984375 0.078125 "/></g></g><g style="fill:#000000;fill-opacity:1;"><g transform="translate(155.022885, 143.417864)"><path style="stroke:none" d="M 0.796875 0 L 0.796875 -0.078125 L 1.46875 -0.078125 C 1.601562 -0.078125 1.703125 -0.113281 1.765625 -0.1875 C 1.835938 -0.269531 1.875 -0.410156 1.875 -0.609375 L 1.875 -5.21875 C 1.625 -4.863281 1.425781 -4.609375 1.28125 -4.453125 C 1.132812 -4.296875 0.988281 -4.21875 0.84375 -4.21875 C 0.695312 -4.21875 0.578125 -4.257812 0.484375 -4.34375 C 0.390625 -4.4375 0.34375 -4.578125 0.34375 -4.765625 C 0.613281 -4.773438 0.835938 -4.800781 1.015625 -4.84375 C 1.203125 -4.882812 1.375 -4.960938 1.53125 -5.078125 C 1.695312 -5.191406 1.894531 -5.363281 2.125 -5.59375 L 2.421875 -5.890625 L 3.09375 -5.890625 L 3.09375 -0.609375 C 3.09375 -0.441406 3.117188 -0.3125 3.171875 -0.21875 C 3.234375 -0.125 3.347656 -0.078125 3.515625 -0.078125 L 4.1875 -0.078125 L 4.1875 0 Z M 0.796875 0 "/></g></g><g style="fill:#000000;fill-opacity:1;"><g transform="translate(298.223982, 143.417864)"><path style="stroke:none" d="M 1.46875 0 L 1.46875 -0.078125 L 1.703125 -0.078125 C 1.890625 -0.078125 2.046875 -0.109375 2.171875 -0.171875 C 2.304688 -0.242188 2.375 -0.410156 2.375 -0.671875 L 2.375 -1.53125 L 0.109375 -1.53125 L 0.109375 -2.03125 L 2.4375 -5.859375 L 3.578125 -5.859375 L 3.578125 -2.0625 L 4.421875 -2.0625 L 4.421875 -1.53125 L 3.578125 -1.53125 L 3.578125 -0.671875 C 3.578125 -0.410156 3.640625 -0.242188 3.765625 -0.171875 C 3.898438 -0.109375 4.0625 -0.078125 4.25 -0.078125 L 4.359375 -0.078125 L 4.359375 0 Z M 0.234375 -2.0625 L 2.375 -2.0625 L 2.375 -3.875 C 2.375 -4.175781 2.375 -4.488281 2.375 -4.8125 C 2.375 -5.132812 2.378906 -5.414062 2.390625 -5.65625 C 2.359375 -5.601562 2.304688 -5.519531 2.234375 -5.40625 C 2.171875 -5.289062 2.097656 -5.164062 2.015625 -5.03125 C 1.941406 -4.894531 1.867188 -4.769531 1.796875 -4.65625 C 1.722656 -4.539062 1.664062 -4.445312 1.625 -4.375 Z M 0.234375 -2.0625 "/></g></g><g clip-rule="nonzero" clip-path="url(#dc8169915c)"><path style=" stroke:none;fill-rule:nonzero;fill:#004aad;fill-opacity:1;" d="M 300.511719 128.5625 C 293.507812 128.5625 287.773438 122.828125 287.773438 115.824219 C 287.773438 108.816406 293.507812 103.085938 300.511719 103.085938 C 307.519531 103.085938 313.25 108.816406 313.25 115.824219 C 313.25 122.828125 307.519531 128.5625 300.511719 128.5625 Z M 300.511719 128.5625 "/></g><g clip-rule="nonzero" clip-path="url(#8d40374eb9)"><path style=" stroke:none;fill-rule:nonzero;fill:#ff3131;fill-opacity:1;" d="M 205.214844 127.992188 C 198.5 127.992188 193.007812 122.5 193.007812 115.789062 C 193.007812 109.074219 198.5 103.582031 205.214844 103.582031 C 211.925781 103.582031 217.417969 109.074219 217.417969 115.789062 C 217.417969 122.5 211.925781 127.992188 205.214844 127.992188 Z M 205.214844 127.992188 "/></g><g clip-rule="nonzero" clip-path="url(#8e89539d04)"><path style=" stroke:none;fill-rule:nonzero;fill:#ff3131;fill-opacity:1;" d="M 241.695312 103.652344 L 266.421875 103.652344 L 266.421875 128 L 241.695312 128 Z M 241.695312 103.652344 "/></g><g clip-rule="nonzero" clip-path="url(#51d5ae4477)"><path style=" stroke:none;fill-rule:nonzero;fill:#004aad;fill-opacity:1;" d="M 144.964844 104.152344 L 169.691406 104.152344 L 169.691406 128.5 L 144.964844 128.5 Z M 144.964844 104.152344 "/></g></g></svg>