<svg xmlns="http://www.w3.org/2000/svg" xmlns:xlink="http://www.w3.org/1999/xlink" width="600" zoomAndPan="magnify" viewBox="0 0 450 149.999998" height="200" preserveAspectRatio="xMidYMid meet" version="1.2"><defs><clipPath id="03e7973027"><path d="M 167.75 0.75 L 287 0.75 L 287 42.75 L 167.75 42.75 Z M 167.75 0.75 "/></clipPath><clipPath id="3babd05b84"><path d="M 167.75 46.515625 L 287 46.515625 L 287 88 L 167.75 88 Z M 167.75 46.515625 "/></clipPath><clipPath id="4e3376b365"><path d="M 167.75 46.515625 L 287 46.515625 L 287 88.515625 L 167.75 88.515625 Z M 167.75 46.515625 "/></clipPath><clipPath id="9ecb553906"><path d="M 249.945312 59.871094 L 260.445312 59.871094 L 260.445312 73 L 249.945312 73 Z M 249.945312 59.871094 "/></clipPath><clipPath id="010cc1f20a"><path d="M 252 73 L 257 73 L 257 77.121094 L 252 77.121094 Z M 252 73 "/></clipPath><clipPath id="f585a34ae4"><path d="M 187.691406 11.484375 L 207.941406 11.484375 L 207.941406 31.734375 L 187.691406 31.734375 Z M 187.691406 11.484375 "/></clipPath><clipPath id="92a61f404d"><path d="M 110.898438 99.34375 L 347.898438 99.34375 L 347.898438 132 L 110.898438 132 Z M 110.898438 99.34375 "/></clipPath><clipPath id="59498eb40d"><path d="M 110.898438 99.34375 L 347.898438 99.34375 L 347.898438 132.34375 L 110.898438 132.34375 Z M 110.898438 99.34375 "/></clipPath><clipPath id="37a3399c2d"><path d="M 110.898438 134.511719 L 347.898438 134.511719 L 347.898438 148 L 110.898438 148 Z M 110.898438 134.511719 "/></clipPath><clipPath id="8ecc105346"><path d="M 233.628906 11.484375 L 253.878906 11.484375 L 253.878906 31.734375 L 233.628906 31.734375 Z M 233.628906 11.484375 "/></clipPath><clipPath id="7abbf0faec"><path d="M 258.402344 11.335938 L 278.652344 11.335938 L 278.652344 31.585938 L 258.402344 31.585938 Z M 258.402344 11.335938 "/></clipPath><clipPath id="fd9afc4ffd"><path d="M 187.691406 57.25 L 207.941406 57.25 L 207.941406 77.5 L 187.691406 77.5 Z M 187.691406 57.25 "/></clipPath><clipPath id="580d6bab1f"><path d="M 128.726562 105.703125 L 148.976562 105.703125 L 148.976562 125.953125 L 128.726562 125.953125 Z M 128.726562 105.703125 "/></clipPath><clipPath id="868a2b32f6"><path d="M 177.222656 105.703125 L 197.472656 105.703125 L 197.472656 125.953125 L 177.222656 125.953125 Z M 177.222656 105.703125 "/></clipPath><clipPath id="59e3d2c249"><path d="M 201.988281 105.703125 L 222.238281 105.703125 L 222.238281 125.953125 L 201.988281 125.953125 Z M 201.988281 105.703125 "/></clipPath><clipPath id="f950446419"><path d="M 305.632812 105.703125 L 325.882812 105.703125 L 325.882812 125.953125 L 305.632812 125.953125 Z M 305.632812 105.703125 "/></clipPath><clipPath id="58fa9c34d9"><path d="M 235.542969 105.703125 L 255.792969 105.703125 L 255.792969 125.953125 L 235.542969 125.953125 Z M 235.542969 105.703125 "/></clipPath><clipPath id="4b81eaf579"><path d="M 260.308594 105.703125 L 280.558594 105.703125 L 280.558594 125.953125 L 260.308594 125.953125 Z M 260.308594 105.703125 "/></clipPath></defs><g id="67c1549a3f"><rect x="0" width="450" y="0" height="149.999998" style="fill:#ffffff;fill-opacity:1;stroke:none;"/><rect x="0" width="450" y="0" height="149.999998" style="fill:#ffffff;fill-opacity:1;stroke:none;"/><g clip-rule="nonzero" clip-path="url(#03e7973027)"><path style="fill-rule:nonzero;fill:#000000;fill-opacity:1;stroke-width:0.545523;stroke-linecap:butt;stroke-linejoin:miter;stroke:#000000;stroke-opacity:1;stroke-miterlimit:4;" d="M 0.272001 0.546872 L 0.272001 54.989584 M 79.548047 0.546872 L 79.548047 54.989584 M 157.730343 0.546872 L 157.730343 54.989584 M 0.00116751 0.270831 L 158.001177 0.270831 M 0.00116751 55.260417 L 158.001177 55.260417 " transform="matrix(0.75,0,0,0.75,167.749124,0.750002)"/></g><g clip-rule="nonzero" clip-path="url(#3babd05b84)"><path style=" stroke:none;fill-rule:nonzero;fill:#000000;fill-opacity:1;" d="M 167.953125 46.925781 L 167.953125 87.757812 M 227.410156 46.925781 L 227.410156 87.757812 M 286.046875 46.925781 L 286.046875 87.757812 M 167.75 46.722656 L 286.25 46.722656 M 167.75 87.960938 L 286.25 87.960938 "/></g><g clip-rule="nonzero" clip-path="url(#4e3376b365)"><path style="fill:none;stroke-width:0.545523;stroke-linecap:butt;stroke-linejoin:miter;stroke:#000000;stroke-opacity:1;stroke-miterlimit:4;" d="M 0.272001 0.545991 L 0.272001 54.988702 M 79.548047 0.545991 L 79.548047 54.988702 M 157.730343 0.545991 L 157.730343 54.988702 M 0.00116751 0.275158 L 158.001177 0.275158 M 0.00116751 55.259536 L 158.001177 55.259536 " transform="matrix(0.75,0,0,0.75,167.749124,46.516288)"/></g><g clip-rule="nonzero" clip-path="url(#9ecb553906)"><path style=" stroke:none;fill-rule:nonzero;fill:#000000;fill-opacity:1;" d="M 259.753906 61.875 C 259.300781 61.226562 258.675781 60.726562 257.882812 60.386719 C 257.09375 60.042969 256.179688 59.871094 255.144531 59.871094 C 254.203125 59.871094 253.34375 60.042969 252.566406 60.378906 C 251.789062 60.714844 251.164062 61.226562 250.691406 61.90625 C 250.316406 62.449219 250.082031 63.105469 249.984375 63.875 C 249.945312 64.207031 250.207031 64.503906 250.542969 64.503906 L 252.625 64.503906 C 252.890625 64.503906 253.117188 64.316406 253.175781 64.054688 C 253.226562 63.820312 253.3125 63.609375 253.433594 63.429688 C 253.625 63.140625 253.871094 62.917969 254.171875 62.769531 C 254.472656 62.621094 254.792969 62.546875 255.132812 62.546875 C 255.480469 62.546875 255.796875 62.617188 256.085938 62.765625 C 256.375 62.910156 256.601562 63.121094 256.773438 63.394531 C 256.945312 63.667969 257.03125 63.980469 257.03125 64.34375 C 257.03125 64.683594 256.957031 64.992188 256.804688 65.265625 C 256.652344 65.539062 256.453125 65.789062 256.199219 66.011719 C 255.941406 66.242188 255.65625 66.453125 255.335938 66.664062 C 254.90625 66.9375 254.535156 67.242188 254.230469 67.574219 C 253.921875 67.910156 253.691406 68.347656 253.53125 68.894531 C 253.375 69.4375 253.292969 70.167969 253.289062 71.082031 L 253.289062 71.535156 C 253.289062 71.847656 253.539062 72.101562 253.851562 72.101562 L 255.683594 72.101562 C 255.988281 72.101562 256.242188 71.851562 256.242188 71.535156 L 256.242188 71.082031 C 256.25 70.566406 256.316406 70.136719 256.441406 69.789062 C 256.570312 69.4375 256.765625 69.128906 257.023438 68.863281 C 257.289062 68.597656 257.625 68.34375 258.035156 68.09375 C 258.523438 67.800781 258.945312 67.472656 259.304688 67.105469 C 259.660156 66.746094 259.941406 66.324219 260.140625 65.851562 C 260.339844 65.378906 260.445312 64.832031 260.445312 64.222656 C 260.433594 63.304688 260.203125 62.523438 259.753906 61.875 Z M 259.753906 61.875 "/></g><g clip-rule="nonzero" clip-path="url(#010cc1f20a)"><path style=" stroke:none;fill-rule:nonzero;fill:#000000;fill-opacity:1;" d="M 254.824219 73.371094 C 254.300781 73.371094 253.859375 73.554688 253.496094 73.921875 C 253.128906 74.285156 252.945312 74.726562 252.953125 75.238281 C 252.945312 75.757812 253.128906 76.199219 253.496094 76.570312 C 253.859375 76.9375 254.300781 77.121094 254.824219 77.121094 C 255.15625 77.121094 255.464844 77.035156 255.742188 76.867188 C 256.019531 76.695312 256.246094 76.46875 256.421875 76.183594 C 256.597656 75.898438 256.683594 75.582031 256.6875 75.238281 C 256.683594 74.722656 256.492188 74.285156 256.121094 73.921875 C 255.75 73.554688 255.316406 73.371094 254.824219 73.371094 Z M 254.824219 73.371094 "/></g><g clip-rule="nonzero" clip-path="url(#f585a34ae4)"><path style=" stroke:none;fill-rule:nonzero;fill:#061bb0;fill-opacity:1;" d="M 197.78125 31.664062 C 192.230469 31.664062 187.691406 27.125 187.691406 21.574219 C 187.691406 16.027344 192.230469 11.484375 197.78125 11.484375 C 203.328125 11.484375 207.871094 16.027344 207.871094 21.574219 C 207.871094 27.125 203.328125 31.664062 197.78125 31.664062 Z M 197.78125 31.664062 "/></g><g clip-rule="nonzero" clip-path="url(#92a61f404d)"><path style=" stroke:none;fill-rule:nonzero;fill:#000000;fill-opacity:1;" d="M 111.222656 100 L 111.222656 131.585938 M 170.039062 100 L 170.039062 131.585938 M 228.070312 100 L 228.070312 131.585938 M 287.675781 100 L 287.675781 131.585938 M 347.277344 100 L 347.277344 131.585938 M 110.898438 99.671875 L 347.601562 99.671875 M 110.898438 131.914062 L 347.601562 131.914062 "/></g><g clip-rule="nonzero" clip-path="url(#59498eb40d)"><path style="fill:none;stroke-width:0.871773;stroke-linecap:butt;stroke-linejoin:miter;stroke:#000000;stroke-opacity:1;stroke-miterlimit:4;" d="M 0.43428 0.874199 L 0.43428 42.988785 M 78.85616 0.874199 L 78.85616 42.988785 M 156.231164 0.874199 L 156.231164 42.988785 M 235.705127 0.874199 L 235.705127 42.988785 M 315.173882 0.874199 L 315.173882 42.988785 M 0.00198856 0.436699 L 315.606174 0.436699 M 0.00198856 43.426285 L 315.606174 43.426285 " transform="matrix(0.75,0,0,0.75,110.896946,99.344351)"/></g><g clip-rule="nonzero" clip-path="url(#37a3399c2d)"><path style="fill-rule:nonzero;fill:#000000;fill-opacity:1;stroke-width:0.871773;stroke-linecap:butt;stroke-linejoin:miter;stroke:#000000;stroke-opacity:1;stroke-miterlimit:4;" d="M 0.43428 0.871491 L 0.43428 17.0017 M 79.23116 0.871491 L 79.23116 17.0017 M 155.486373 0.871491 L 155.486373 17.0017 M 235.658252 0.871491 L 235.658252 17.0017 M 315.173882 0.871491 L 315.173882 17.0017 M 0.00198856 0.433991 L 315.606174 0.433991 M 0.00198856 17.433992 L 315.606174 17.433992 " transform="matrix(0.75,0,0,0.75,110.896946,134.510445)"/></g><g style="fill:#000000;fill-opacity:1;"><g transform="translate(197.404197, 143.417864)"><path style="stroke:none" d="M 0.28125 0 L 0.28125 -0.765625 L 1.421875 -1.84375 C 1.765625 -2.175781 2.035156 -2.476562 2.234375 -2.75 C 2.429688 -3.03125 2.566406 -3.316406 2.640625 -3.609375 C 2.722656 -3.898438 2.765625 -4.234375 2.765625 -4.609375 C 2.765625 -5.046875 2.710938 -5.363281 2.609375 -5.5625 C 2.503906 -5.757812 2.328125 -5.859375 2.078125 -5.859375 C 1.890625 -5.859375 1.742188 -5.800781 1.640625 -5.6875 C 1.546875 -5.570312 1.476562 -5.378906 1.4375 -5.109375 C 1.394531 -4.847656 1.375 -4.484375 1.375 -4.015625 C 1.0625 -4.015625 0.804688 -4.078125 0.609375 -4.203125 C 0.410156 -4.328125 0.3125 -4.523438 0.3125 -4.796875 C 0.3125 -5.117188 0.460938 -5.390625 0.765625 -5.609375 C 1.078125 -5.828125 1.53125 -5.9375 2.125 -5.9375 C 2.738281 -5.9375 3.203125 -5.816406 3.515625 -5.578125 C 3.835938 -5.335938 4 -5 4 -4.5625 C 4 -4.375 3.960938 -4.191406 3.890625 -4.015625 C 3.828125 -3.835938 3.707031 -3.644531 3.53125 -3.4375 C 3.351562 -3.226562 3.113281 -2.988281 2.8125 -2.71875 C 2.519531 -2.457031 2.144531 -2.148438 1.6875 -1.796875 L 0.546875 -0.90625 L 3.3125 -0.90625 C 3.570312 -0.90625 3.757812 -0.941406 3.875 -1.015625 C 4 -1.097656 4.070312 -1.25 4.09375 -1.46875 L 4.125 -1.71875 L 4.203125 -1.71875 L 4.15625 0 Z M 0.28125 0 "/></g></g><g style="fill:#000000;fill-opacity:1;"><g transform="translate(258.024188, 143.417864)"><path style="stroke:none" d="M 1.984375 0.078125 C 1.378906 0.078125 0.9375 -0.0195312 0.65625 -0.21875 C 0.375 -0.414062 0.234375 -0.644531 0.234375 -0.90625 C 0.234375 -1.113281 0.300781 -1.269531 0.4375 -1.375 C 0.570312 -1.488281 0.734375 -1.546875 0.921875 -1.546875 C 0.921875 -1.140625 0.960938 -0.828125 1.046875 -0.609375 C 1.140625 -0.390625 1.257812 -0.234375 1.40625 -0.140625 C 1.5625 -0.046875 1.738281 0 1.9375 0 C 2.289062 0 2.546875 -0.132812 2.703125 -0.40625 C 2.859375 -0.675781 2.9375 -1.066406 2.9375 -1.578125 C 2.9375 -1.941406 2.894531 -2.222656 2.8125 -2.421875 C 2.726562 -2.628906 2.585938 -2.773438 2.390625 -2.859375 C 2.191406 -2.941406 1.9375 -2.984375 1.625 -2.984375 L 1.171875 -2.984375 L 1.171875 -3.0625 L 1.625 -3.0625 C 1.914062 -3.0625 2.140625 -3.109375 2.296875 -3.203125 C 2.460938 -3.296875 2.578125 -3.445312 2.640625 -3.65625 C 2.710938 -3.863281 2.75 -4.140625 2.75 -4.484375 C 2.75 -4.984375 2.6875 -5.335938 2.5625 -5.546875 C 2.445312 -5.753906 2.28125 -5.859375 2.0625 -5.859375 C 1.769531 -5.859375 1.578125 -5.707031 1.484375 -5.40625 C 1.398438 -5.113281 1.359375 -4.703125 1.359375 -4.171875 C 1.023438 -4.171875 0.765625 -4.226562 0.578125 -4.34375 C 0.390625 -4.457031 0.296875 -4.640625 0.296875 -4.890625 C 0.296875 -5.179688 0.445312 -5.425781 0.75 -5.625 C 1.0625 -5.832031 1.515625 -5.9375 2.109375 -5.9375 C 2.691406 -5.9375 3.148438 -5.816406 3.484375 -5.578125 C 3.828125 -5.347656 4 -5.007812 4 -4.5625 C 4 -4.332031 3.941406 -4.109375 3.828125 -3.890625 C 3.710938 -3.671875 3.519531 -3.484375 3.25 -3.328125 C 2.988281 -3.179688 2.628906 -3.085938 2.171875 -3.046875 C 2.828125 -3.046875 3.328125 -2.921875 3.671875 -2.671875 C 4.023438 -2.429688 4.203125 -2.0625 4.203125 -1.5625 C 4.203125 -1.164062 4.097656 -0.847656 3.890625 -0.609375 C 3.679688 -0.367188 3.40625 -0.191406 3.0625 -0.078125 C 2.726562 0.0234375 2.367188 0.078125 1.984375 0.078125 Z M 1.984375 0.078125 "/></g></g><g style="fill:#000000;fill-opacity:1;"><g transform="translate(136.522877, 143.417864)"><path style="stroke:none" d="M 0.796875 0 L 0.796875 -0.078125 L 1.46875 -0.078125 C 1.601562 -0.078125 1.703125 -0.113281 1.765625 -0.1875 C 1.835938 -0.269531 1.875 -0.410156 1.875 -0.609375 L 1.875 -5.21875 C 1.625 -4.863281 1.425781 -4.609375 1.28125 -4.453125 C 1.132812 -4.296875 0.988281 -4.21875 0.84375 -4.21875 C 0.695312 -4.21875 0.578125 -4.257812 0.484375 -4.34375 C 0.390625 -4.4375 0.34375 -4.578125 0.34375 -4.765625 C 0.613281 -4.773438 0.835938 -4.800781 1.015625 -4.84375 C 1.203125 -4.882812 1.375 -4.960938 1.53125 -5.078125 C 1.695312 -5.191406 1.894531 -5.363281 2.125 -5.59375 L 2.421875 -5.890625 L 3.09375 -5.890625 L 3.09375 -0.609375 C 3.09375 -0.441406 3.117188 -0.3125 3.171875 -0.21875 C 3.234375 -0.125 3.347656 -0.078125 3.515625 -0.078125 L 4.1875 -0.078125 L 4.1875 0 Z M 0.796875 0 "/></g></g><g style="fill:#000000;fill-opacity:1;"><g transform="translate(315.723969, 143.991204)"><path style="stroke:none" d="M 1.46875 0 L 1.46875 -0.078125 L 1.703125 -0.078125 C 1.890625 -0.078125 2.046875 -0.109375 2.171875 -0.171875 C 2.304688 -0.242188 2.375 -0.410156 2.375 -0.671875 L 2.375 -1.53125 L 0.109375 -1.53125 L 0.109375 -2.03125 L 2.4375 -5.859375 L 3.578125 -5.859375 L 3.578125 -2.0625 L 4.421875 -2.0625 L 4.421875 -1.53125 L 3.578125 -1.53125 L 3.578125 -0.671875 C 3.578125 -0.410156 3.640625 -0.242188 3.765625 -0.171875 C 3.898438 -0.109375 4.0625 -0.078125 4.25 -0.078125 L 4.359375 -0.078125 L 4.359375 0 Z M 0.234375 -2.0625 L 2.375 -2.0625 L 2.375 -3.875 C 2.375 -4.175781 2.375 -4.488281 2.375 -4.8125 C 2.375 -5.132812 2.378906 -5.414062 2.390625 -5.65625 C 2.359375 -5.601562 2.304688 -5.519531 2.234375 -5.40625 C 2.171875 -5.289062 2.097656 -5.164062 2.015625 -5.03125 C 1.941406 -4.894531 1.867188 -4.769531 1.796875 -4.65625 C 1.722656 -4.539062 1.664062 -4.445312 1.625 -4.375 Z M 0.234375 -2.0625 "/></g></g><g clip-rule="nonzero" clip-path="url(#8ecc105346)"><path style=" stroke:none;fill-rule:nonzero;fill:#061bb0;fill-opacity:1;" d="M 243.71875 31.664062 C 238.167969 31.664062 233.628906 27.125 233.628906 21.574219 C 233.628906 16.027344 238.167969 11.484375 243.71875 11.484375 C 249.269531 11.484375 253.808594 16.027344 253.808594 21.574219 C 253.808594 27.125 249.269531 31.664062 243.71875 31.664062 Z M 243.71875 31.664062 "/></g><g clip-rule="nonzero" clip-path="url(#7abbf0faec)"><path style=" stroke:none;fill-rule:nonzero;fill:#061bb0;fill-opacity:1;" d="M 268.492188 31.515625 C 262.941406 31.515625 258.402344 26.976562 258.402344 21.425781 C 258.402344 15.875 262.941406 11.335938 268.492188 11.335938 C 274.039062 11.335938 278.582031 15.875 278.582031 21.425781 C 278.582031 26.976562 274.039062 31.515625 268.492188 31.515625 Z M 268.492188 31.515625 "/></g><g clip-rule="nonzero" clip-path="url(#fd9afc4ffd)"><path style=" stroke:none;fill-rule:nonzero;fill:#ff3131;fill-opacity:1;" d="M 197.78125 77.429688 C 192.230469 77.429688 187.691406 72.890625 187.691406 67.339844 C 187.691406 61.792969 192.230469 57.25 197.78125 57.25 C 203.328125 57.25 207.871094 61.792969 207.871094 67.339844 C 207.871094 72.890625 203.328125 77.429688 197.78125 77.429688 Z M 197.78125 77.429688 "/></g><g clip-rule="nonzero" clip-path="url(#580d6bab1f)"><path style=" stroke:none;fill-rule:nonzero;fill:#061bb0;fill-opacity:1;" d="M 138.816406 125.882812 C 133.265625 125.882812 128.726562 121.339844 128.726562 115.792969 C 128.726562 110.242188 133.265625 105.703125 138.816406 105.703125 C 144.363281 105.703125 148.90625 110.242188 148.90625 115.792969 C 148.90625 121.339844 144.363281 125.882812 138.816406 125.882812 Z M 138.816406 125.882812 "/></g><g clip-rule="nonzero" clip-path="url(#868a2b32f6)"><path style=" stroke:none;fill-rule:nonzero;fill:#ff3131;fill-opacity:1;" d="M 187.3125 125.882812 C 181.765625 125.882812 177.222656 121.339844 177.222656 115.792969 C 177.222656 110.242188 181.765625 105.703125 187.3125 105.703125 C 192.863281 105.703125 197.402344 110.242188 197.402344 115.792969 C 197.402344 121.339844 192.863281 125.882812 187.3125 125.882812 Z M 187.3125 125.882812 "/></g><g clip-rule="nonzero" clip-path="url(#59e3d2c249)"><path style=" stroke:none;fill-rule:nonzero;fill:#ff3131;fill-opacity:1;" d="M 212.078125 125.882812 C 206.527344 125.882812 201.988281 121.339844 201.988281 115.792969 C 201.988281 110.242188 206.527344 105.703125 212.078125 105.703125 C 217.628906 105.703125 222.167969 110.242188 222.167969 115.792969 C 222.167969 121.339844 217.628906 125.882812 212.078125 125.882812 Z M 212.078125 125.882812 "/></g><g clip-rule="nonzero" clip-path="url(#f950446419)"><path style=" stroke:none;fill-rule:nonzero;fill:#ff3131;fill-opacity:1;" d="M 315.722656 125.882812 C 310.175781 125.882812 305.632812 121.339844 305.632812 115.792969 C 305.632812 110.242188 310.175781 105.703125 315.722656 105.703125 C 321.273438 105.703125 325.8125 110.242188 325.8125 115.792969 C 325.8125 121.339844 321.273438 125.882812 315.722656 125.882812 Z M 315.722656 125.882812 "/></g><g clip-rule="nonzero" clip-path="url(#58fa9c34d9)"><path style=" stroke:none;fill-rule:nonzero;fill:#061bb0;fill-opacity:1;" d="M 245.632812 125.882812 C 240.085938 125.882812 235.542969 121.339844 235.542969 115.792969 C 235.542969 110.242188 240.085938 105.703125 245.632812 105.703125 C 251.183594 105.703125 255.722656 110.242188 255.722656 115.792969 C 255.722656 121.339844 251.183594 125.882812 245.632812 125.882812 Z M 245.632812 125.882812 "/></g><g clip-rule="nonzero" clip-path="url(#4b81eaf579)"><path style=" stroke:none;fill-rule:nonzero;fill:#061bb0;fill-opacity:1;" d="M 270.398438 125.882812 C 264.851562 125.882812 260.308594 121.339844 260.308594 115.792969 C 260.308594 110.242188 264.851562 105.703125 270.398438 105.703125 C 275.949219 105.703125 280.488281 110.242188 280.488281 115.792969 C 280.488281 121.339844 275.949219 125.882812 270.398438 125.882812 Z M 270.398438 125.882812 "/></g></g></svg>