<svg xmlns="http://www.w3.org/2000/svg" xmlns:xlink="http://www.w3.org/1999/xlink" width="600" zoomAndPan="magnify" viewBox="0 0 450 149.999998" height="200" preserveAspectRatio="xMidYMid meet" version="1.2"><defs><clipPath id="6576e64e00"><path d="M 384.71875 42.332031 L 419.96875 42.332031 L 419.96875 83 L 384.71875 83 Z M 384.71875 42.332031 "/></clipPath><clipPath id="7fcd37e297"><path d="M 394 86 L 408 86 L 408 99.332031 L 394 99.332031 Z M 394 86 "/></clipPath></defs><g id="868ed8e19e"><rect x="0" width="450" y="0" height="149.999998" style="fill:#ffffff;fill-opacity:1;stroke:none;"/><rect x="0" width="450" y="0" height="149.999998" style="fill:#ffffff;fill-opacity:1;stroke:none;"/><path style="fill-rule:nonzero;fill:#000000;fill-opacity:1;stroke-width:1;stroke-linecap:butt;stroke-linejoin:miter;stroke:#0c7b3b;stroke-opacity:1;stroke-miterlimit:4;" d="M 0.499995 0.999997 L 0.499995 199.000009 M 599.50003 0.999997 L 599.50003 199.000009 M -0.000005 0.499997 L 600.00003 0.499997 M -0.000005 199.500009 L 600.00003 199.500009 " transform="matrix(0.75,0,0,0.75,0.00000375,0.000002)"/><g style="fill:#0c7b3b;fill-opacity:1;"><g transform="translate(30.098247, 97.066957)"><path style="stroke:none" d="M 28.957031 -55.273438 L 3.28125 -22.15625 L 3.28125 -13.4375 L 24.558594 -13.4375 L 24.558594 0 L 36.636719 0 L 36.636719 -13.4375 L 40.316406 -13.4375 L 40.316406 -22.15625 L 36.636719 -22.15625 L 36.636719 -55.273438 Z M 24.558594 -22.15625 L 12.878906 -22.15625 L 24.558594 -37.035156 Z M 24.558594 -22.15625 "/></g></g><g style="fill:#0c7b3b;fill-opacity:1;"><g transform="translate(74.248854, 97.066957)"><path style="stroke:none" d="M 20.398438 -55.273438 L 10.957031 -39.996094 C 5.277344 -30.796875 3.519531 -24.957031 3.519531 -18.398438 C 3.519531 -5.917969 12.160156 0.71875 21.835938 0.71875 C 32.15625 0.71875 39.675781 -7.4375 39.675781 -18.078125 C 39.675781 -27.355469 33.277344 -35.117188 24.398438 -35.117188 C 23.4375 -35.117188 22.796875 -35.035156 21.195312 -34.636719 L 33.835938 -55.273438 Z M 15.835938 -17.359375 C 15.835938 -22.636719 18.238281 -25.597656 21.675781 -25.597656 C 25.675781 -25.597656 27.917969 -21.996094 27.917969 -17.597656 C 27.917969 -13.039062 25.757812 -9.4375 21.835938 -9.4375 C 18.078125 -9.4375 15.835938 -12.398438 15.835938 -17.359375 Z M 15.835938 -17.359375 "/></g></g><g style="fill:#0c7b3b;fill-opacity:1;"><g transform="translate(118.399462, 97.066957)"><path style="stroke:none" d=""/></g></g><g style="fill:#0c7b3b;fill-opacity:1;"><g transform="translate(140.634731, 97.066957)"><path style="stroke:none" d="M 18.15625 -47.273438 L 18.15625 -32.394531 L 3.28125 -32.394531 L 3.28125 -22.15625 L 18.15625 -22.15625 L 18.15625 -7.277344 L 28.476562 -7.277344 L 28.476562 -22.15625 L 43.355469 -22.15625 L 43.355469 -32.394531 L 28.476562 -32.394531 L 28.476562 -47.273438 Z M 18.15625 -47.273438 "/></g></g><g style="fill:#0c7b3b;fill-opacity:1;"><g transform="translate(187.264814, 97.066957)"><path style="stroke:none" d=""/></g></g><g style="fill:#0c7b3b;fill-opacity:1;"><g transform="translate(209.500083, 97.066957)"><path style="stroke:none" d="M 7.917969 -54.550781 L 7.917969 -23.4375 C 10.078125 -23.996094 12.316406 -24.238281 14.636719 -24.238281 C 20.957031 -24.238281 25.355469 -21.277344 25.355469 -16.398438 C 25.355469 -12.398438 22.15625 -8.878906 16.71875 -8.878906 C 13.839844 -8.878906 10 -9.519531 5.121094 -12.160156 L 5.121094 -2.238281 C 7.839844 -0.640625 13.757812 0.71875 18.316406 0.71875 C 31.355469 0.71875 38.074219 -6.640625 38.074219 -17.039062 C 38.074219 -26.554688 30.636719 -33.433594 20.957031 -33.433594 C 20.078125 -33.433594 19.4375 -33.355469 18.796875 -33.355469 L 18.796875 -43.59375 L 36.234375 -43.59375 L 36.234375 -54.550781 Z M 7.917969 -54.550781 "/></g></g><g style="fill:#0c7b3b;fill-opacity:1;"><g transform="translate(253.650682, 97.066957)"><path style="stroke:none" d="M 18.476562 -55.273438 C 14.398438 -55.273438 9.597656 -54.472656 6 -52.871094 L 6 -43.273438 C 10.238281 -45.433594 13.039062 -46.152344 16.238281 -46.152344 C 20.316406 -46.152344 23.835938 -43.515625 23.835938 -39.753906 C 23.835938 -36.636719 21.117188 -33.515625 16.316406 -33.117188 L 16.316406 -23.515625 C 21.917969 -22.957031 24.714844 -19.835938 24.714844 -15.917969 C 24.714844 -11.917969 21.277344 -8.796875 16.636719 -8.796875 C 12.558594 -8.796875 8.398438 -10.238281 4.640625 -12.957031 L 4.640625 -2.398438 C 8.480469 -0.320312 13.679688 0.71875 18.316406 0.71875 C 28.714844 0.71875 37.433594 -4.71875 37.433594 -15.199219 C 37.433594 -22.476562 34.074219 -26.714844 27.835938 -29.277344 C 32.875 -31.675781 35.914062 -36.796875 35.914062 -41.914062 C 35.914062 -50.074219 28.554688 -55.273438 18.476562 -55.273438 Z M 18.476562 -55.273438 "/></g></g><g style="fill:#0c7b3b;fill-opacity:1;"><g transform="translate(297.801298, 97.066957)"><path style="stroke:none" d=""/></g></g><g style="fill:#0c7b3b;fill-opacity:1;"><g transform="translate(320.036584, 97.066957)"><path style="stroke:none" d="M 3.28125 -41.113281 L 3.28125 -30.796875 L 43.355469 -30.796875 L 43.355469 -41.113281 Z M 3.28125 -23.757812 L 3.28125 -13.519531 L 43.355469 -13.519531 L 43.355469 -23.757812 Z M 3.28125 -23.757812 "/></g></g><g style="fill:#0c7b3b;fill-opacity:1;"><g transform="translate(366.671257, 97.066957)"><path style="stroke:none" d=""/></g></g><g clip-rule="nonzero" clip-path="url(#6576e64e00)"><path style=" stroke:none;fill-rule:nonzero;fill:#000000;fill-opacity:1;" d="M 417.636719 48.945312 C 416.121094 46.800781 414.03125 45.160156 411.367188 44.03125 C 408.710938 42.902344 405.644531 42.332031 402.175781 42.332031 C 399.019531 42.332031 396.132812 42.890625 393.527344 44.007812 C 390.921875 45.113281 388.816406 46.8125 387.234375 49.058594 C 385.96875 50.847656 385.1875 53.015625 384.867188 55.554688 C 384.730469 56.664062 385.613281 57.644531 386.738281 57.644531 L 393.722656 57.644531 C 394.617188 57.644531 395.375 57.015625 395.570312 56.148438 C 395.742188 55.375 396.03125 54.679688 396.433594 54.085938 C 397.078125 53.128906 397.902344 52.398438 398.914062 51.910156 C 399.925781 51.417969 400.992188 51.167969 402.128906 51.167969 C 403.300781 51.167969 404.359375 51.40625 405.335938 51.898438 C 406.300781 52.375 407.070312 53.070312 407.644531 53.972656 C 408.21875 54.871094 408.503906 55.910156 408.503906 57.105469 C 408.503906 58.234375 408.253906 59.25 407.746094 60.152344 C 407.242188 61.050781 406.5625 61.882812 405.714844 62.625 C 404.851562 63.375 403.898438 64.082031 402.820312 64.777344 C 401.371094 65.679688 400.132812 66.683594 399.109375 67.789062 C 398.074219 68.894531 397.304688 70.34375 396.765625 72.144531 C 396.238281 73.945312 395.960938 76.351562 395.949219 79.371094 L 395.949219 80.875 C 395.949219 81.902344 396.789062 82.746094 397.835938 82.746094 L 403.980469 82.746094 C 405.011719 82.746094 405.863281 81.914062 405.863281 80.875 L 405.863281 79.371094 C 405.886719 77.671875 406.105469 76.246094 406.53125 75.097656 C 406.953125 73.945312 407.609375 72.917969 408.480469 72.039062 C 409.367188 71.164062 410.492188 70.320312 411.871094 69.5 C 413.511719 68.53125 414.925781 67.445312 416.132812 66.238281 C 417.328125 65.042969 418.269531 63.652344 418.945312 62.089844 C 419.613281 60.527344 419.957031 58.726562 419.957031 56.707031 C 419.921875 53.675781 419.152344 51.085938 417.636719 48.945312 Z M 417.636719 48.945312 "/></g><g clip-rule="nonzero" clip-path="url(#7fcd37e297)"><path style=" stroke:none;fill-rule:nonzero;fill:#000000;fill-opacity:1;" d="M 401.097656 86.941406 C 399.351562 86.941406 397.867188 87.542969 396.640625 88.753906 C 395.410156 89.960938 394.800781 91.421875 394.824219 93.109375 C 394.800781 94.816406 395.410156 96.289062 396.640625 97.507812 C 397.867188 98.726562 399.351562 99.332031 401.097656 99.332031 C 402.210938 99.332031 403.246094 99.046875 404.175781 98.488281 C 405.117188 97.917969 405.875 97.179688 406.460938 96.230469 C 407.046875 95.285156 407.34375 94.246094 407.355469 93.109375 C 407.332031 91.410156 406.703125 89.960938 405.449219 88.753906 C 404.210938 87.542969 402.75 86.941406 401.097656 86.941406 Z M 401.097656 86.941406 "/></g></g></svg>