<svg xmlns="http://www.w3.org/2000/svg" xmlns:xlink="http://www.w3.org/1999/xlink" width="600" zoomAndPan="magnify" viewBox="0 0 450 149.999998" height="200" preserveAspectRatio="xMidYMid meet" version="1.2"><defs><clipPath id="2260cc0281"><path d="M 168.445312 0.75 L 286.195312 0.75 L 286.195312 42 L 168.445312 42 Z M 168.445312 0.75 "/></clipPath><clipPath id="eb0059b361"><path d="M 168.445312 0.75 L 286.195312 0.75 L 286.195312 42.75 L 168.445312 42.75 Z M 168.445312 0.75 "/></clipPath><clipPath id="314659bf4d"><path d="M 168.445312 47.648438 L 286.195312 47.648438 L 286.195312 89 L 168.445312 89 Z M 168.445312 47.648438 "/></clipPath><clipPath id="2ac5b02d22"><path d="M 251.140625 61.171875 L 261.640625 61.171875 L 261.640625 74 L 251.140625 74 Z M 251.140625 61.171875 "/></clipPath><clipPath id="5da7bcf194"><path d="M 254 74 L 258 74 L 258 78.421875 L 254 78.421875 Z M 254 74 "/></clipPath><clipPath id="b717a4b616"><path d="M 239.453125 4.59375 L 273.203125 4.59375 L 273.203125 38.34375 L 239.453125 38.34375 Z M 239.453125 4.59375 "/></clipPath><clipPath id="3147169e5a"><path d="M 181.425781 4.59375 L 215.175781 4.59375 L 215.175781 38.34375 L 181.425781 38.34375 Z M 181.425781 4.59375 "/></clipPath><clipPath id="044d784169"><path d="M 181.425781 52.480469 L 213.933594 52.480469 L 213.933594 81.394531 L 181.425781 81.394531 Z M 181.425781 52.480469 "/></clipPath><clipPath id="18e5c85093"><path d="M 134.335938 99.34375 L 324.835938 99.34375 L 324.835938 132 L 134.335938 132 Z M 134.335938 99.34375 "/></clipPath><clipPath id="1b21cadc67"><path d="M 134.335938 99.34375 L 324.835938 99.34375 L 324.835938 132.34375 L 134.335938 132.34375 Z M 134.335938 99.34375 "/></clipPath><clipPath id="25813f4a66"><path d="M 134.335938 135 L 324.835938 135 L 324.835938 148 L 134.335938 148 Z M 134.335938 135 "/></clipPath><clipPath id="9bc13c310a"><path d="M 240.671875 103.582031 L 266.171875 103.582031 L 266.171875 129.082031 L 240.671875 129.082031 Z M 240.671875 103.582031 "/></clipPath><clipPath id="6510789e63"><path d="M 290.601562 103.582031 L 315.351562 103.582031 L 315.351562 128 L 290.601562 128 Z M 290.601562 103.582031 "/></clipPath><clipPath id="7370e02528"><path d="M 195.160156 103.582031 L 219.859375 103.582031 L 219.859375 127.929688 L 195.160156 127.929688 Z M 195.160156 103.582031 "/></clipPath><clipPath id="2cadbafd57"><path d="M 144.964844 104.152344 L 169.664062 104.152344 L 169.664062 128.5 L 144.964844 128.5 Z M 144.964844 104.152344 "/></clipPath></defs><g id="49ce6ff0bc"><rect x="0" width="450" y="0" height="149.999998" style="fill:#ffffff;fill-opacity:1;stroke:none;"/><rect x="0" width="450" y="0" height="149.999998" style="fill:#ffffff;fill-opacity:1;stroke:none;"/><g clip-rule="nonzero" clip-path="url(#2260cc0281)"><path style=" stroke:none;fill-rule:nonzero;fill:#000000;fill-opacity:1;" d="M 168.648438 1.15625 L 168.648438 41.679688 M 227.65625 1.15625 L 227.65625 41.679688 M 285.851562 1.15625 L 285.851562 41.679688 M 168.445312 0.953125 L 286.054688 0.953125 M 168.445312 41.882812 L 286.054688 41.882812 "/></g><g clip-rule="nonzero" clip-path="url(#eb0059b361)"><path style="fill:none;stroke-width:0.541408;stroke-linecap:butt;stroke-linejoin:miter;stroke:#000000;stroke-opacity:1;stroke-miterlimit:4;" d="M 0.269827 0.541664 L 0.269827 54.572917 M 78.946915 0.541664 L 78.946915 54.572917 M 156.540669 0.541664 L 156.540669 54.572917 M -0.0010067 0.270831 L 156.811502 0.270831 M -0.0010067 54.843751 L 156.811502 54.843751 " transform="matrix(0.75,0,0,0.75,168.446068,0.750002)"/></g><g clip-rule="nonzero" clip-path="url(#314659bf4d)"><path style="fill-rule:nonzero;fill:#000000;fill-opacity:1;stroke-width:0.541408;stroke-linecap:butt;stroke-linejoin:miter;stroke:#000000;stroke-opacity:1;stroke-miterlimit:4;" d="M 0.269827 0.541628 L 0.269827 54.572881 M 78.946915 0.541628 L 78.946915 54.572881 M 156.540669 0.541628 L 156.540669 54.572881 M -0.0010067 0.270795 L 156.811502 0.270795 M -0.0010067 54.843715 L 156.811502 54.843715 " transform="matrix(0.75,0,0,0.75,168.446068,47.648466)"/></g><g clip-rule="nonzero" clip-path="url(#2ac5b02d22)"><path style=" stroke:none;fill-rule:nonzero;fill:#000000;fill-opacity:1;" d="M 260.949219 63.175781 C 260.496094 62.527344 259.875 62.03125 259.078125 61.6875 C 258.289062 61.347656 257.375 61.175781 256.339844 61.175781 C 255.398438 61.175781 254.539062 61.34375 253.761719 61.683594 C 252.984375 62.015625 252.359375 62.53125 251.886719 63.210938 C 251.511719 63.75 251.277344 64.40625 251.183594 65.175781 C 251.140625 65.511719 251.402344 65.804688 251.738281 65.804688 L 253.820312 65.804688 C 254.089844 65.804688 254.3125 65.617188 254.371094 65.355469 C 254.421875 65.121094 254.507812 64.910156 254.628906 64.730469 C 254.820312 64.441406 255.066406 64.21875 255.367188 64.070312 C 255.671875 63.921875 255.988281 63.847656 256.328125 63.847656 C 256.675781 63.847656 256.992188 63.921875 257.28125 64.070312 C 257.570312 64.214844 257.800781 64.421875 257.96875 64.695312 C 258.140625 64.96875 258.226562 65.28125 258.226562 65.644531 C 258.226562 65.984375 258.152344 66.292969 258 66.566406 C 257.851562 66.835938 257.648438 67.089844 257.394531 67.3125 C 257.136719 67.542969 256.855469 67.753906 256.53125 67.964844 C 256.101562 68.238281 255.730469 68.542969 255.425781 68.875 C 255.117188 69.210938 254.890625 69.648438 254.726562 70.191406 C 254.570312 70.738281 254.488281 71.464844 254.484375 72.378906 L 254.484375 72.835938 C 254.484375 73.144531 254.734375 73.402344 255.046875 73.402344 L 256.878906 73.402344 C 257.1875 73.402344 257.441406 73.148438 257.441406 72.835938 L 257.441406 72.378906 C 257.445312 71.867188 257.511719 71.433594 257.636719 71.085938 C 257.765625 70.738281 257.960938 70.429688 258.21875 70.164062 C 258.484375 69.898438 258.820312 69.640625 259.230469 69.394531 C 259.71875 69.101562 260.140625 68.773438 260.5 68.40625 C 260.855469 68.042969 261.136719 67.625 261.339844 67.152344 C 261.539062 66.679688 261.640625 66.132812 261.640625 65.523438 C 261.628906 64.605469 261.402344 63.824219 260.949219 63.175781 Z M 260.949219 63.175781 "/></g><g clip-rule="nonzero" clip-path="url(#5da7bcf194)"><path style=" stroke:none;fill-rule:nonzero;fill:#000000;fill-opacity:1;" d="M 256.019531 74.667969 C 255.5 74.667969 255.058594 74.851562 254.691406 75.21875 C 254.324219 75.582031 254.144531 76.023438 254.148438 76.535156 C 254.144531 77.054688 254.324219 77.496094 254.691406 77.867188 C 255.058594 78.234375 255.5 78.417969 256.019531 78.417969 C 256.351562 78.417969 256.660156 78.332031 256.9375 78.164062 C 257.21875 77.992188 257.441406 77.765625 257.617188 77.480469 C 257.792969 77.195312 257.882812 76.878906 257.886719 76.535156 C 257.878906 76.023438 257.691406 75.582031 257.316406 75.21875 C 256.945312 74.851562 256.511719 74.667969 256.019531 74.667969 Z M 256.019531 74.667969 "/></g><g clip-rule="nonzero" clip-path="url(#b717a4b616)"><path style=" stroke:none;fill-rule:nonzero;fill:#004aad;fill-opacity:1;" d="M 256.277344 38.238281 C 247.023438 38.238281 239.453125 30.667969 239.453125 21.414062 C 239.453125 12.164062 247.023438 4.59375 256.277344 4.59375 C 265.53125 4.59375 273.097656 12.164062 273.097656 21.414062 C 273.097656 30.667969 265.53125 38.238281 256.277344 38.238281 Z M 256.277344 38.238281 "/></g><g clip-rule="nonzero" clip-path="url(#3147169e5a)"><path style=" stroke:none;fill-rule:nonzero;fill:#ff3131;fill-opacity:1;" d="M 198.25 38.238281 C 188.996094 38.238281 181.425781 30.667969 181.425781 21.414062 C 181.425781 12.164062 188.996094 4.59375 198.25 4.59375 C 207.5 4.59375 215.070312 12.164062 215.070312 21.414062 C 215.070312 30.667969 207.5 38.238281 198.25 38.238281 Z M 198.25 38.238281 "/></g><g clip-rule="nonzero" clip-path="url(#044d784169)"><path style=" stroke:none;fill-rule:nonzero;fill:#ff3131;fill-opacity:1;" d="M 181.425781 52.480469 L 213.957031 52.480469 L 213.957031 81.394531 L 181.425781 81.394531 Z M 181.425781 52.480469 "/></g><g clip-rule="nonzero" clip-path="url(#18e5c85093)"><path style=" stroke:none;fill-rule:nonzero;fill:#000000;fill-opacity:1;" d="M 134.660156 100 L 134.660156 131.585938 M 181.796875 100 L 181.796875 131.585938 M 228.304688 100 L 228.304688 131.585938 M 276.070312 100 L 276.070312 131.585938 M 323.839844 100 L 323.839844 131.585938 M 134.335938 99.671875 L 324.164062 99.671875 M 134.335938 131.914062 L 324.164062 131.914062 "/></g><g clip-rule="nonzero" clip-path="url(#1b21cadc67)"><path style="fill:none;stroke-width:0.871773;stroke-linecap:butt;stroke-linejoin:miter;stroke:#000000;stroke-opacity:1;stroke-miterlimit:4;" d="M 0.434282 0.874199 L 0.434282 42.988785 M 63.283244 0.874199 L 63.283244 42.988785 M 125.293664 0.874199 L 125.293664 42.988785 M 188.981168 0.874199 L 188.981168 42.988785 M 252.67388 0.874199 L 252.67388 42.988785 M 0.00199038 0.436699 L 253.106172 0.436699 M 0.00199038 43.426285 L 253.106172 43.426285 " transform="matrix(0.75,0,0,0.75,134.334445,99.344351)"/></g><g clip-rule="nonzero" clip-path="url(#25813f4a66)"><path style="fill-rule:nonzero;fill:#000000;fill-opacity:1;stroke-width:0.871773;stroke-linecap:butt;stroke-linejoin:miter;stroke:#000000;stroke-opacity:1;stroke-miterlimit:4;" d="M 0.434282 0.873408 L 0.434282 16.347367 M 63.585327 0.873408 L 63.585327 16.347367 M 124.694706 0.873408 L 124.694706 16.347367 M 188.949918 0.873408 L 188.949918 16.347367 M 252.67388 0.873408 L 252.67388 16.347367 M 0.00199038 0.435908 L 253.106172 0.435908 M 0.00199038 16.779659 L 253.106172 16.779659 " transform="matrix(0.75,0,0,0.75,134.334445,135.001194)"/></g><g style="fill:#000000;fill-opacity:1;"><g transform="translate(202.923566, 143.417893)"><path style="stroke:none" d="M 0.28125 0 L 0.28125 -0.765625 L 1.421875 -1.84375 C 1.765625 -2.175781 2.035156 -2.476562 2.234375 -2.75 C 2.429688 -3.03125 2.566406 -3.316406 2.640625 -3.609375 C 2.722656 -3.898438 2.765625 -4.234375 2.765625 -4.609375 C 2.765625 -5.046875 2.710938 -5.363281 2.609375 -5.5625 C 2.503906 -5.757812 2.328125 -5.859375 2.078125 -5.859375 C 1.890625 -5.859375 1.742188 -5.800781 1.640625 -5.6875 C 1.546875 -5.570312 1.476562 -5.378906 1.4375 -5.109375 C 1.394531 -4.847656 1.375 -4.484375 1.375 -4.015625 C 1.0625 -4.015625 0.804688 -4.078125 0.609375 -4.203125 C 0.410156 -4.328125 0.3125 -4.523438 0.3125 -4.796875 C 0.3125 -5.117188 0.460938 -5.390625 0.765625 -5.609375 C 1.078125 -5.828125 1.53125 -5.9375 2.125 -5.9375 C 2.738281 -5.9375 3.203125 -5.816406 3.515625 -5.578125 C 3.835938 -5.335938 4 -5 4 -4.5625 C 4 -4.375 3.960938 -4.191406 3.890625 -4.015625 C 3.828125 -3.835938 3.707031 -3.644531 3.53125 -3.4375 C 3.351562 -3.226562 3.113281 -2.988281 2.8125 -2.71875 C 2.519531 -2.457031 2.144531 -2.148438 1.6875 -1.796875 L 0.546875 -0.90625 L 3.3125 -0.90625 C 3.570312 -0.90625 3.757812 -0.941406 3.875 -1.015625 C 4 -1.097656 4.070312 -1.25 4.09375 -1.46875 L 4.125 -1.71875 L 4.203125 -1.71875 L 4.15625 0 Z M 0.28125 0 "/></g></g><g style="fill:#000000;fill-opacity:1;"><g transform="translate(251.140595, 143.417893)"><path style="stroke:none" d="M 1.984375 0.078125 C 1.378906 0.078125 0.9375 -0.0195312 0.65625 -0.21875 C 0.375 -0.414062 0.234375 -0.644531 0.234375 -0.90625 C 0.234375 -1.113281 0.300781 -1.269531 0.4375 -1.375 C 0.570312 -1.488281 0.734375 -1.546875 0.921875 -1.546875 C 0.921875 -1.140625 0.960938 -0.828125 1.046875 -0.609375 C 1.140625 -0.390625 1.257812 -0.234375 1.40625 -0.140625 C 1.5625 -0.046875 1.738281 0 1.9375 0 C 2.289062 0 2.546875 -0.132812 2.703125 -0.40625 C 2.859375 -0.675781 2.9375 -1.066406 2.9375 -1.578125 C 2.9375 -1.941406 2.894531 -2.222656 2.8125 -2.421875 C 2.726562 -2.628906 2.585938 -2.773438 2.390625 -2.859375 C 2.191406 -2.941406 1.9375 -2.984375 1.625 -2.984375 L 1.171875 -2.984375 L 1.171875 -3.0625 L 1.625 -3.0625 C 1.914062 -3.0625 2.140625 -3.109375 2.296875 -3.203125 C 2.460938 -3.296875 2.578125 -3.445312 2.640625 -3.65625 C 2.710938 -3.863281 2.75 -4.140625 2.75 -4.484375 C 2.75 -4.984375 2.6875 -5.335938 2.5625 -5.546875 C 2.445312 -5.753906 2.28125 -5.859375 2.0625 -5.859375 C 1.769531 -5.859375 1.578125 -5.707031 1.484375 -5.40625 C 1.398438 -5.113281 1.359375 -4.703125 1.359375 -4.171875 C 1.023438 -4.171875 0.765625 -4.226562 0.578125 -4.34375 C 0.390625 -4.457031 0.296875 -4.640625 0.296875 -4.890625 C 0.296875 -5.179688 0.445312 -5.425781 0.75 -5.625 C 1.0625 -5.832031 1.515625 -5.9375 2.109375 -5.9375 C 2.691406 -5.9375 3.148438 -5.816406 3.484375 -5.578125 C 3.828125 -5.347656 4 -5.007812 4 -4.5625 C 4 -4.332031 3.941406 -4.109375 3.828125 -3.890625 C 3.710938 -3.671875 3.519531 -3.484375 3.25 -3.328125 C 2.988281 -3.179688 2.628906 -3.085938 2.171875 -3.046875 C 2.828125 -3.046875 3.328125 -2.921875 3.671875 -2.671875 C 4.023438 -2.429688 4.203125 -2.0625 4.203125 -1.5625 C 4.203125 -1.164062 4.097656 -0.847656 3.890625 -0.609375 C 3.679688 -0.367188 3.40625 -0.191406 3.0625 -0.078125 C 2.726562 0.0234375 2.367188 0.078125 1.984375 0.078125 Z M 1.984375 0.078125 "/></g></g><g style="fill:#000000;fill-opacity:1;"><g transform="translate(155.022885, 143.417893)"><path style="stroke:none" d="M 0.796875 0 L 0.796875 -0.078125 L 1.46875 -0.078125 C 1.601562 -0.078125 1.703125 -0.113281 1.765625 -0.1875 C 1.835938 -0.269531 1.875 -0.410156 1.875 -0.609375 L 1.875 -5.21875 C 1.625 -4.863281 1.425781 -4.609375 1.28125 -4.453125 C 1.132812 -4.296875 0.988281 -4.21875 0.84375 -4.21875 C 0.695312 -4.21875 0.578125 -4.257812 0.484375 -4.34375 C 0.390625 -4.4375 0.34375 -4.578125 0.34375 -4.765625 C 0.613281 -4.773438 0.835938 -4.800781 1.015625 -4.84375 C 1.203125 -4.882812 1.375 -4.960938 1.53125 -5.078125 C 1.695312 -5.191406 1.894531 -5.363281 2.125 -5.59375 L 2.421875 -5.890625 L 3.09375 -5.890625 L 3.09375 -0.609375 C 3.09375 -0.441406 3.117188 -0.3125 3.171875 -0.21875 C 3.234375 -0.125 3.347656 -0.078125 3.515625 -0.078125 L 4.1875 -0.078125 L 4.1875 0 Z M 0.796875 0 "/></g></g><g style="fill:#000000;fill-opacity:1;"><g transform="translate(298.223982, 143.417893)"><path style="stroke:none" d="M 1.46875 0 L 1.46875 -0.078125 L 1.703125 -0.078125 C 1.890625 -0.078125 2.046875 -0.109375 2.171875 -0.171875 C 2.304688 -0.242188 2.375 -0.410156 2.375 -0.671875 L 2.375 -1.53125 L 0.109375 -1.53125 L 0.109375 -2.03125 L 2.4375 -5.859375 L 3.578125 -5.859375 L 3.578125 -2.0625 L 4.421875 -2.0625 L 4.421875 -1.53125 L 3.578125 -1.53125 L 3.578125 -0.671875 C 3.578125 -0.410156 3.640625 -0.242188 3.765625 -0.171875 C 3.898438 -0.109375 4.0625 -0.078125 4.25 -0.078125 L 4.359375 -0.078125 L 4.359375 0 Z M 0.234375 -2.0625 L 2.375 -2.0625 L 2.375 -3.875 C 2.375 -4.175781 2.375 -4.488281 2.375 -4.8125 C 2.375 -5.132812 2.378906 -5.414062 2.390625 -5.65625 C 2.359375 -5.601562 2.304688 -5.519531 2.234375 -5.40625 C 2.171875 -5.289062 2.097656 -5.164062 2.015625 -5.03125 C 1.941406 -4.894531 1.867188 -4.769531 1.796875 -4.65625 C 1.722656 -4.539062 1.664062 -4.445312 1.625 -4.375 Z M 0.234375 -2.0625 "/></g></g><g clip-rule="nonzero" clip-path="url(#9bc13c310a)"><path style=" stroke:none;fill-rule:nonzero;fill:#004aad;fill-opacity:1;" d="M 253.410156 129.058594 C 246.40625 129.058594 240.671875 123.328125 240.671875 116.320312 C 240.671875 109.316406 246.40625 103.582031 253.410156 103.582031 C 260.417969 103.582031 266.148438 109.316406 266.148438 116.320312 C 266.148438 123.328125 260.417969 129.058594 253.410156 129.058594 Z M 253.410156 129.058594 "/></g><g clip-rule="nonzero" clip-path="url(#6510789e63)"><path style=" stroke:none;fill-rule:nonzero;fill:#ff3131;fill-opacity:1;" d="M 302.804688 127.992188 C 296.09375 127.992188 290.601562 122.5 290.601562 115.789062 C 290.601562 109.074219 296.09375 103.582031 302.804688 103.582031 C 309.519531 103.582031 315.011719 109.074219 315.011719 115.789062 C 315.011719 122.5 309.519531 127.992188 302.804688 127.992188 Z M 302.804688 127.992188 "/></g><g clip-rule="nonzero" clip-path="url(#7370e02528)"><path style=" stroke:none;fill-rule:nonzero;fill:#ff3131;fill-opacity:1;" d="M 195.160156 103.582031 L 219.886719 103.582031 L 219.886719 127.929688 L 195.160156 127.929688 Z M 195.160156 103.582031 "/></g><g clip-rule="nonzero" clip-path="url(#2cadbafd57)"><path style=" stroke:none;fill-rule:nonzero;fill:#004aad;fill-opacity:1;" d="M 144.964844 104.152344 L 169.691406 104.152344 L 169.691406 128.5 L 144.964844 128.5 Z M 144.964844 104.152344 "/></g></g></svg>