<svg xmlns="http://www.w3.org/2000/svg" xmlns:xlink="http://www.w3.org/1999/xlink" width="600" zoomAndPan="magnify" viewBox="0 0 450 149.999998" height="200" preserveAspectRatio="xMidYMid meet" version="1.2"><defs/><g id="900e9c4428"><rect x="0" width="450" y="0" height="149.999998" style="fill:#ffffff;fill-opacity:1;stroke:none;"/><rect x="0" width="450" y="0" height="149.999998" style="fill:#ffffff;fill-opacity:1;stroke:none;"/><path style="fill-rule:nonzero;fill:#000000;fill-opacity:1;stroke-width:1;stroke-linecap:butt;stroke-linejoin:miter;stroke:#0c7b3b;stroke-opacity:1;stroke-miterlimit:4;" d="M 0.499995 0.999997 L 0.499995 199.000009 M 599.50003 0.999997 L 599.50003 199.000009 M -0.000005 0.499997 L 600.00003 0.499997 M -0.000005 199.500009 L 600.00003 199.500009 " transform="matrix(0.75,0,0,0.75,0.00000375,0.000002)"/><g style="fill:#0c7b3b;fill-opacity:1;"><g transform="translate(108.211546, 112.613578)"><path style="stroke:none" d="M 43.351562 -82.746094 L 4.910156 -33.171875 L 4.910156 -20.117188 L 36.761719 -20.117188 L 36.761719 0 L 54.847656 0 L 54.847656 -20.117188 L 60.355469 -20.117188 L 60.355469 -33.171875 L 54.847656 -33.171875 L 54.847656 -82.746094 Z M 36.761719 -33.171875 L 19.28125 -33.171875 L 36.761719 -55.445312 Z M 36.761719 -33.171875 "/></g></g><g style="fill:#0c7b3b;fill-opacity:1;"><g transform="translate(286.329021, 112.613578)"><path style="stroke:none" d="M 23.710938 -82.746094 L 23.710938 0 L 42.390625 0 L 42.390625 -82.746094 Z M 23.710938 -82.746094 "/></g></g></g></svg>