<?xml version="1.0" encoding="utf-8"?>
<!-- Generator: Adobe Illustrator 25.2.0, SVG Export Plug-In . SVG Version: 6.00 Build 0)  -->
<svg version="1.1" id="Layer_1" xmlns="http://www.w3.org/2000/svg" xmlns:xlink="http://www.w3.org/1999/xlink" x="0px" y="0px"
	 viewBox="0 0 595.3 420.9" style="enable-background:new 0 0 595.3 420.9;" xml:space="preserve">
<style type="text/css">
	.st0{fill:#FFFFFF;}
	.st1{fill:none;stroke:#020202;stroke-width:0.8889;stroke-miterlimit:10;}
	.st2{fill:#231F20;}
	.st3{font-family:'SFCompactRounded-Medium';}
	.st4{font-size:47.4093px;}
	.st5{fill:none;stroke:#99999A;stroke-width:0.7099;stroke-linecap:round;stroke-linejoin:round;stroke-dasharray:2.889,2.889;}
	.st6{fill:none;stroke:#6D6E70;stroke-width:0.7914;stroke-linecap:round;stroke-linejoin:round;}
	.st7{fill:#6D6E70;}
	.st8{fill:none;stroke:#99999A;stroke-width:0.5258;stroke-linecap:round;stroke-linejoin:round;}
	.st9{fill:none;stroke:#99999A;stroke-width:0.5258;stroke-linecap:round;stroke-linejoin:round;stroke-dasharray:2.0956,2.0956;}
	.st10{fill:none;stroke:#99999A;stroke-width:0.5258;stroke-linecap:round;stroke-linejoin:round;stroke-dasharray:2.0591,2.0591;}
	.st11{fill:none;stroke:#99999A;stroke-width:0.5419;stroke-linecap:round;stroke-linejoin:round;}
	.st12{fill:none;stroke:#99999A;stroke-width:0.5419;stroke-linecap:round;stroke-linejoin:round;stroke-dasharray:2.0308,2.0308;}
	.st13{fill:none;stroke:#99999A;stroke-width:0.5419;stroke-linecap:round;stroke-linejoin:round;stroke-dasharray:2.2736,2.2736;}
	.st14{fill:none;stroke:#6D6E70;stroke-width:0.8491;stroke-linecap:round;stroke-linejoin:round;}
	.st15{fill:none;stroke:#99999A;stroke-width:0.602;stroke-linecap:round;stroke-linejoin:round;}
	.st16{fill:none;stroke:#99999A;stroke-width:0.602;stroke-linecap:round;stroke-linejoin:round;stroke-dasharray:2.0597,2.0597;}
	.st17{fill:none;stroke:#99999A;stroke-width:0.602;stroke-linecap:round;stroke-linejoin:round;stroke-dasharray:2.2286,2.2286;}
	.st18{fill:none;stroke:#6D6E70;stroke-width:0.602;stroke-linecap:round;stroke-linejoin:round;}
	.st19{fill:none;stroke:#99999A;stroke-width:0.602;stroke-linecap:round;stroke-linejoin:round;stroke-dasharray:2.1746,2.1746;}
	.st20{fill:none;stroke:#99999A;stroke-width:0.602;stroke-linecap:round;stroke-linejoin:round;stroke-dasharray:2.1132,2.1132;}
	.st21{fill:none;stroke:#99999A;stroke-width:0.602;stroke-linecap:round;stroke-linejoin:round;stroke-dasharray:2.1779,2.1779;}
	.st22{fill:none;stroke:#99999A;stroke-width:0.5257;stroke-linecap:round;stroke-linejoin:round;}
	.st23{fill:none;stroke:#99999A;stroke-width:0.5257;stroke-linecap:round;stroke-linejoin:round;stroke-dasharray:2.0723,2.0723;}
	.st24{fill:none;stroke:#99999A;stroke-width:0.5257;stroke-linecap:round;stroke-linejoin:round;stroke-dasharray:2.203,2.203;}
	.st25{fill:none;stroke:#99999A;stroke-width:0.5257;stroke-linecap:round;stroke-linejoin:round;stroke-dasharray:2.1791,2.1791;}
	.st26{fill:none;stroke:#6D6E70;stroke-width:0.8034;stroke-linecap:round;stroke-linejoin:round;}
	.st27{fill:none;stroke:#99999A;stroke-width:0.6551;stroke-linecap:round;stroke-linejoin:round;stroke-dasharray:1.747,2.6206;}
	.st28{fill:none;stroke:#6D6E70;stroke-width:0.4368;stroke-linecap:round;stroke-linejoin:round;}
	.st29{fill:none;stroke:#99999A;stroke-width:0.4378;stroke-linecap:round;stroke-linejoin:round;stroke-dasharray:1.7805,1.7805;}
	.st30{fill:none;stroke:#6D6E70;stroke-width:0.488;stroke-linecap:round;stroke-linejoin:round;}
	.st31{fill:none;stroke:#99999A;stroke-width:0.5986;stroke-linecap:round;stroke-linejoin:round;}
	.st32{fill:none;stroke:#99999A;stroke-width:0.5986;stroke-linecap:round;stroke-linejoin:round;stroke-dasharray:2.4837,2.4837;}
	.st33{fill:none;stroke:#6D6E70;stroke-width:0.6673;stroke-linecap:round;stroke-linejoin:round;}
</style>
<g>
	
		<image style="overflow:visible;opacity:0.5;" width="301" height="302" xlink:href="A29297DC.png"  transform="matrix(0.24 0 0 0.24 110.1171 18.3388)">
	</image>
	<g>
		<path class="st0" d="M177.4,87.6h-63.8c-0.9,0-1.7-0.8-1.7-1.8V22.2c0-1,0.8-1.8,1.7-1.8h63.8c0.9,0,1.7,0.8,1.7,1.8v63.6
			C179.1,86.7,178.4,87.6,177.4,87.6z"/>
		<path class="st1" d="M177.4,87.6h-63.8c-0.9,0-1.7-0.8-1.7-1.8V22.2c0-1,0.8-1.8,1.7-1.8h63.8c0.9,0,1.7,0.8,1.7,1.8v63.6
			C179.1,86.7,178.4,87.6,177.4,87.6z"/>
	</g>
</g>
<g>
	
		<image style="overflow:visible;opacity:0.5;" width="305" height="302" xlink:href="A29297DD.png"  transform="matrix(0.24 0 0 0.24 193.877 18.3388)">
	</image>
	<g>
		<path class="st0" d="M262,87.6h-64.4c-0.9,0-1.7-0.8-1.7-1.8V22.2c0-1,0.8-1.8,1.7-1.8H262c0.9,0,1.7,0.8,1.7,1.8v63.6
			C263.7,86.7,263,87.6,262,87.6z"/>
		<path class="st1" d="M262,87.6h-64.4c-0.9,0-1.7-0.8-1.7-1.8V22.2c0-1,0.8-1.8,1.7-1.8H262c0.9,0,1.7,0.8,1.7,1.8v63.6
			C263.7,86.7,263,87.6,262,87.6z"/>
	</g>
</g>
<g>
	
		<image style="overflow:visible;opacity:0.5;" width="302" height="302" xlink:href="A29297DB.png"  transform="matrix(0.24 0 0 0.24 279.317 18.3388)">
	</image>
	<g>
		<path class="st0" d="M346.7,87.6h-63.8c-0.9,0-1.7-0.8-1.7-1.8V22.2c0-1,0.8-1.8,1.7-1.8h63.8c0.9,0,1.7,0.8,1.7,1.8v63.6
			C348.4,86.7,347.6,87.6,346.7,87.6z"/>
		<path class="st1" d="M346.7,87.6h-63.8c-0.9,0-1.7-0.8-1.7-1.8V22.2c0-1,0.8-1.8,1.7-1.8h63.8c0.9,0,1.7,0.8,1.7,1.8v63.6
			C348.4,86.7,347.6,87.6,346.7,87.6z"/>
	</g>
</g>
<g>
	
		<image style="overflow:visible;opacity:0.5;" width="302" height="302" xlink:href="A29297E4.png"  transform="matrix(0.24 0 0 0.24 446.3571 18.0988)">
	</image>
	<g>
		<path class="st0" d="M513.8,87.3H450c-0.9,0-1.7-0.8-1.7-1.8V21.9c0-1,0.8-1.8,1.7-1.8h63.8c0.9,0,1.7,0.8,1.7,1.8v63.6
			C515.5,86.5,514.7,87.3,513.8,87.3z"/>
		<path class="st1" d="M513.8,87.3H450c-0.9,0-1.7-0.8-1.7-1.8V21.9c0-1,0.8-1.8,1.7-1.8h63.8c0.9,0,1.7,0.8,1.7,1.8v63.6
			C515.5,86.5,514.7,87.3,513.8,87.3z"/>
	</g>
</g>
<g>
	
		<image style="overflow:visible;opacity:0.5;" width="302" height="302" xlink:href="A29297E7.png"  transform="matrix(0.24 0 0 0.24 363.557 18.0988)">
	</image>
	<g>
		<path class="st0" d="M431,87.3h-63.8c-0.9,0-1.7-0.8-1.7-1.8V21.9c0-1,0.8-1.8,1.7-1.8H431c0.9,0,1.7,0.8,1.7,1.8v63.6
			C432.7,86.5,431.9,87.3,431,87.3z"/>
		<path class="st1" d="M431,87.3h-63.8c-0.9,0-1.7-0.8-1.7-1.8V21.9c0-1,0.8-1.8,1.7-1.8H431c0.9,0,1.7,0.8,1.7,1.8v63.6
			C432.7,86.5,431.9,87.3,431,87.3z"/>
	</g>
</g>
<g>
	
		<image style="overflow:visible;opacity:0.5;" width="302" height="302" xlink:href="A29297E5.png"  transform="matrix(0.24 0 0 0.24 446.3571 104.7388)">
	</image>
	<g>
		<path class="st0" d="M513.8,173.8H450c-0.9,0-1.7-0.8-1.7-1.8v-63.6c0-1,0.8-1.8,1.7-1.8h63.8c0.9,0,1.7,0.8,1.7,1.8V172
			C515.5,173,514.7,173.8,513.8,173.8z"/>
		<path class="st1" d="M513.8,173.8H450c-0.9,0-1.7-0.8-1.7-1.8v-63.6c0-1,0.8-1.8,1.7-1.8h63.8c0.9,0,1.7,0.8,1.7,1.8V172
			C515.5,173,514.7,173.8,513.8,173.8z"/>
	</g>
</g>
<g>
	
		<image style="overflow:visible;opacity:0.5;" width="301" height="302" xlink:href="A29297EB.png"  transform="matrix(0.24 0 0 0.24 110.1171 104.7388)">
	</image>
	<g>
		<path class="st0" d="M177.4,173.8h-63.8c-0.9,0-1.7-0.8-1.7-1.8v-63.6c0-1,0.8-1.8,1.7-1.8h63.8c0.9,0,1.7,0.8,1.7,1.8V172
			C179.1,173,178.4,173.8,177.4,173.8z"/>
		<path class="st1" d="M177.4,173.8h-63.8c-0.9,0-1.7-0.8-1.7-1.8v-63.6c0-1,0.8-1.8,1.7-1.8h63.8c0.9,0,1.7,0.8,1.7,1.8V172
			C179.1,173,178.4,173.8,177.4,173.8z"/>
	</g>
</g>
<g>
	
		<image style="overflow:visible;opacity:0.5;" width="301" height="302" xlink:href="A29297EC.png"  transform="matrix(0.24 0 0 0.24 195.317 104.7388)">
	</image>
	<g>
		<path class="st0" d="M262.6,173.8h-63.8c-0.9,0-1.7-0.8-1.7-1.8v-63.6c0-1,0.8-1.8,1.7-1.8h63.8c0.9,0,1.7,0.8,1.7,1.8V172
			C264.3,173,263.6,173.8,262.6,173.8z"/>
		<path class="st1" d="M262.6,173.8h-63.8c-0.9,0-1.7-0.8-1.7-1.8v-63.6c0-1,0.8-1.8,1.7-1.8h63.8c0.9,0,1.7,0.8,1.7,1.8V172
			C264.3,173,263.6,173.8,262.6,173.8z"/>
	</g>
</g>
<g>
	
		<image style="overflow:visible;opacity:0.5;" width="302" height="302" xlink:href="A29297EF.png"  transform="matrix(0.24 0 0 0.24 279.317 104.7388)">
	</image>
	<g>
		<path class="st0" d="M346.8,173.8H283c-0.9,0-1.7-0.8-1.7-1.8v-63.6c0-1,0.8-1.8,1.7-1.8h63.8c0.9,0,1.7,0.8,1.7,1.8V172
			C348.5,173,347.7,173.8,346.8,173.8z"/>
		<path class="st1" d="M346.8,173.8H283c-0.9,0-1.7-0.8-1.7-1.8v-63.6c0-1,0.8-1.8,1.7-1.8h63.8c0.9,0,1.7,0.8,1.7,1.8V172
			C348.5,173,347.7,173.8,346.8,173.8z"/>
	</g>
</g>
<g>
	
		<image style="overflow:visible;opacity:0.5;" width="302" height="302" xlink:href="7F2FF32B.png"  transform="matrix(0.24 0 0 0.24 363.557 104.7388)">
	</image>
	<g>
		<path class="st0" d="M431,173.8h-63.8c-0.9,0-1.7-0.8-1.7-1.8v-63.6c0-1,0.8-1.8,1.7-1.8H431c0.9,0,1.7,0.8,1.7,1.8V172
			C432.7,173,431.9,173.8,431,173.8z"/>
		<path class="st1" d="M431,173.8h-63.8c-0.9,0-1.7-0.8-1.7-1.8v-63.6c0-1,0.8-1.8,1.7-1.8H431c0.9,0,1.7,0.8,1.7,1.8V172
			C432.7,173,431.9,173.8,431,173.8z"/>
	</g>
</g>
<g>
	<g>
		
			<image style="overflow:visible;opacity:0.5;" width="301" height="301" xlink:href="7F2FF329.png"  transform="matrix(0.24 0 0 0.24 282.1971 226.8988)">
		</image>
		<g>
			<path class="st0" d="M349.6,295.9h-63.8c-0.9,0-1.7-0.8-1.7-1.8v-63.6c0-1,0.8-1.8,1.7-1.8h63.8c0.9,0,1.7,0.8,1.7,1.8v63.6
				C351.3,295.1,350.5,295.9,349.6,295.9z"/>
			<path class="st1" d="M349.6,295.9h-63.8c-0.9,0-1.7-0.8-1.7-1.8v-63.6c0-1,0.8-1.8,1.7-1.8h63.8c0.9,0,1.7,0.8,1.7,1.8v63.6
				C351.3,295.1,350.5,295.9,349.6,295.9z"/>
		</g>
	</g>
	<g>
		
			<image style="overflow:visible;opacity:0.5;" width="301" height="301" xlink:href="7F2FF32F.png"  transform="matrix(0.24 0 0 0.24 367.3971 226.8988)">
		</image>
		<g>
			<path class="st0" d="M434.7,295.9h-63.8c-0.9,0-1.7-0.8-1.7-1.8v-63.6c0-1,0.8-1.8,1.7-1.8h63.8c0.9,0,1.7,0.8,1.7,1.8v63.6
				C436.4,295.1,435.6,295.9,434.7,295.9z"/>
			<path class="st1" d="M434.7,295.9h-63.8c-0.9,0-1.7-0.8-1.7-1.8v-63.6c0-1,0.8-1.8,1.7-1.8h63.8c0.9,0,1.7,0.8,1.7,1.8v63.6
				C436.4,295.1,435.6,295.9,434.7,295.9z"/>
		</g>
	</g>
	<g>
		
			<image style="overflow:visible;opacity:0.5;" width="302" height="301" xlink:href="7F2FF32A.png"  transform="matrix(0.24 0 0 0.24 198.677 227.8588)">
		</image>
		<g>
			<path class="st0" d="M266.1,296.9h-63.8c-0.9,0-1.7-0.8-1.7-1.8v-63.6c0-1,0.8-1.8,1.7-1.8h63.8c0.9,0,1.7,0.8,1.7,1.8v63.6
				C267.8,296.1,267,296.9,266.1,296.9z"/>
			<path class="st1" d="M266.1,296.9h-63.8c-0.9,0-1.7-0.8-1.7-1.8v-63.6c0-1,0.8-1.8,1.7-1.8h63.8c0.9,0,1.7,0.8,1.7,1.8v63.6
				C267.8,296.1,267,296.9,266.1,296.9z"/>
		</g>
	</g>
	<g>
		
			<image style="overflow:visible;opacity:0.5;" width="302" height="301" xlink:href="7F2FF335.png"  transform="matrix(0.24 0 0 0.24 451.3971 226.8988)">
		</image>
		<g>
			<path class="st0" d="M518.8,295.9H455c-0.9,0-1.7-0.8-1.7-1.8v-63.6c0-1,0.8-1.8,1.7-1.8h63.8c0.9,0,1.7,0.8,1.7,1.8v63.6
				C520.5,295.1,519.8,295.9,518.8,295.9z"/>
			<path class="st1" d="M518.8,295.9H455c-0.9,0-1.7-0.8-1.7-1.8v-63.6c0-1,0.8-1.8,1.7-1.8h63.8c0.9,0,1.7,0.8,1.7,1.8v63.6
				C520.5,295.1,519.8,295.9,518.8,295.9z"/>
		</g>
	</g>
</g>
<g>
	
		<image style="overflow:visible;opacity:0.5;" width="302" height="302" xlink:href="7F2FF336.png"  transform="matrix(0.24 0 0 0.24 198.9171 314.7388)">
	</image>
	<g>
		<path class="st0" d="M266.4,384h-63.8c-0.9,0-1.7-0.8-1.7-1.8v-63.6c0-1,0.8-1.8,1.7-1.8h63.8c0.9,0,1.7,0.8,1.7,1.8v63.6
			C268.1,383.1,267.4,384,266.4,384z"/>
		<path class="st1" d="M266.4,384h-63.8c-0.9,0-1.7-0.8-1.7-1.8v-63.6c0-1,0.8-1.8,1.7-1.8h63.8c0.9,0,1.7,0.8,1.7,1.8v63.6
			C268.1,383.1,267.4,384,266.4,384z"/>
	</g>
</g>
<g>
	
		<image style="overflow:visible;opacity:0.5;" width="301" height="302" xlink:href="7F2FF337.png"  transform="matrix(0.24 0 0 0.24 116.357 314.7388)">
	</image>
	<g>
		<path class="st0" d="M183.7,384h-63.8c-0.9,0-1.7-0.8-1.7-1.8v-63.6c0-1,0.8-1.8,1.7-1.8h63.8c0.9,0,1.7,0.8,1.7,1.8v63.6
			C185.4,383.1,184.6,384,183.7,384z"/>
		<path class="st1" d="M183.7,384h-63.8c-0.9,0-1.7-0.8-1.7-1.8v-63.6c0-1,0.8-1.8,1.7-1.8h63.8c0.9,0,1.7,0.8,1.7,1.8v63.6
			C185.4,383.1,184.6,384,183.7,384z"/>
	</g>
</g>
<g>
	
		<image style="overflow:visible;opacity:0.5;" width="302" height="302" xlink:href="7F2FF339.png"  transform="matrix(0.24 0 0 0.24 283.3971 314.7388)">
	</image>
	<g>
		<path class="st0" d="M350.8,384H287c-0.9,0-1.7-0.8-1.7-1.8v-63.6c0-1,0.8-1.8,1.7-1.8h63.8c0.9,0,1.7,0.8,1.7,1.8v63.6
			C352.5,383.1,351.8,384,350.8,384z"/>
		<path class="st1" d="M350.8,384H287c-0.9,0-1.7-0.8-1.7-1.8v-63.6c0-1,0.8-1.8,1.7-1.8h63.8c0.9,0,1.7,0.8,1.7,1.8v63.6
			C352.5,383.1,351.8,384,350.8,384z"/>
	</g>
</g>
<g>
	
		<image style="overflow:visible;opacity:0.5;" width="302" height="302" xlink:href="7F2FF33B.png"  transform="matrix(0.24 0 0 0.24 368.597 314.7388)">
	</image>
	<g>
		<path class="st0" d="M436,384h-63.8c-0.9,0-1.7-0.8-1.7-1.8v-63.6c0-1,0.8-1.8,1.7-1.8H436c0.9,0,1.7,0.8,1.7,1.8v63.6
			C437.7,383.1,436.9,384,436,384z"/>
		<path class="st1" d="M436,384h-63.8c-0.9,0-1.7-0.8-1.7-1.8v-63.6c0-1,0.8-1.8,1.7-1.8H436c0.9,0,1.7,0.8,1.7,1.8v63.6
			C437.7,383.1,436.9,384,436,384z"/>
	</g>
</g>
<g>
	
		<image style="overflow:visible;opacity:0.5;" width="302" height="302" xlink:href="7F2FF33E.png"  transform="matrix(0.24 0 0 0.24 452.597 314.7388)">
	</image>
	<g>
		<path class="st0" d="M520.1,384h-63.8c-0.9,0-1.7-0.8-1.7-1.8v-63.6c0-1,0.8-1.8,1.7-1.8h63.8c0.9,0,1.7,0.8,1.7,1.8v63.6
			C521.8,383.1,521,384,520.1,384z"/>
		<path class="st1" d="M520.1,384h-63.8c-0.9,0-1.7-0.8-1.7-1.8v-63.6c0-1,0.8-1.8,1.7-1.8h63.8c0.9,0,1.7,0.8,1.7,1.8v63.6
			C521.8,383.1,521,384,520.1,384z"/>
	</g>
</g>
<g>
	<text transform="matrix(1 0 0 1 224.3752 280.0759)" class="st2 st3 st4">1</text>
</g>
<g>
	<text transform="matrix(1 0 0 1 465.614 368.7087)" class="st2 st3 st4">10</text>
</g>
<g>
	
		<image style="overflow:visible;opacity:0.5;" width="301" height="302" xlink:href="7F2FF352.png"  transform="matrix(0.24 0 0 0.24 32.597 314.7388)">
	</image>
	<g>
		<path class="st0" d="M99.9,384H36.1c-0.9,0-1.7-0.8-1.7-1.8v-63.6c0-1,0.8-1.8,1.7-1.8h63.8c0.9,0,1.7,0.8,1.7,1.8v63.6
			C101.6,383.1,100.8,384,99.9,384z"/>
		<path class="st1" d="M99.9,384H36.1c-0.9,0-1.7-0.8-1.7-1.8v-63.6c0-1,0.8-1.8,1.7-1.8h63.8c0.9,0,1.7,0.8,1.7,1.8v63.6
			C101.6,383.1,100.8,384,99.9,384z"/>
	</g>
</g>
<image style="overflow:visible;" width="750" height="693" xlink:href="7F2FF351.png"  transform="matrix(9.038658e-02 1.039055e-02 -1.039055e-02 9.038658e-02 23.2975 57.3728)">
</image>
<image style="overflow:visible;" width="750" height="693" xlink:href="7F2FF35E.png"  transform="matrix(6.427576e-02 7.388932e-03 -7.388932e-03 6.427576e-02 63.718 77.2404)">
</image>
<image style="overflow:visible;" width="747" height="1255" xlink:href="7F2FF350.png"  transform="matrix(5.327892e-02 5.582914e-03 -5.582914e-03 5.327892e-02 533.4227 110.9306)">
</image>
<image style="overflow:visible;" width="1456" height="1243" xlink:href="7F2FF353.png"  transform="matrix(3.735976e-02 0 0 3.735976e-02 528.4842 342.6965)">
</image>
<g>
	
		<image style="overflow:visible;" width="826" height="358" xlink:href="7F2FF357.png"  transform="matrix(9.784721e-02 0 0 0.1022 113.5669 265.5249)">
	</image>
	
		<image style="overflow:visible;" width="302" height="229" xlink:href="7F2FF356.png"  transform="matrix(0.273 0 0 0.273 112.7478 237.0261)">
	</image>
</g>
<g>
	<g>
		<path class="st5" d="M156.2,114.7"/>
		<path class="st5" d="M155,116.1c-4.6-1.4-13.3-0.7-17.6,4.4c-6.9,8.2-8.7,21.1-6.5,31.5c2.2,10.7,9.3,13.7,16.3,13.9
			c6.9,0.1,13.6-5.1,13.3-15.3c-0.2-10.2-7.1-15.8-14.1-15.3c-7.1,0.4-11.3,4.3-14.9,11.8"/>
		<path class="st5" d="M132.8,144.1"/>
	</g>
	<g>
		<g>
			<path class="st6" d="M154.5,115.9c-1.8-0.3-4.2-0.6-7-0.4"/>
			<g>
				<path class="st7" d="M154.6,114.8c0.6,0.1,1.1,0.7,1,1.4c-0.1,0.6-0.7,1.1-1.4,1s-1.1-0.7-1-1.4
					C153.4,115.1,154,114.6,154.6,114.8z"/>
			</g>
			<g>
				<polygon class="st7" points="147.8,113.9 145.3,115.7 148.1,117.1 				"/>
			</g>
		</g>
	</g>
</g>
<g>
	<path class="st5" d="M501.4,120c-1.1-1.3-3-2.4-5.1-3.1c-3.8-1.4-8-1.3-11.6,0.3c-1.6,0.7-3.1,1.7-4.1,2.8
		c-6.9,8.2-7.3,21.1-5.1,31.5c2.1,10.2,8.7,13.4,15.3,13.8c6.6-0.4,13.2-3.6,15.3-13.8C508.2,141.1,508.3,128.2,501.4,120z"/>
	<g>
		<g>
			<path class="st6" d="M490.4,115.7c-1.8,0.3-4.2,0.8-6.7,1.8"/>
			<g>
				<path class="st7" d="M490.1,114.6c0.7-0.1,1.3,0.4,1.4,1s-0.4,1.3-1,1.4c-0.7,0.1-1.3-0.4-1.4-1
					C489,115.3,489.5,114.7,490.1,114.6z"/>
			</g>
			<g>
				<polygon class="st7" points="483.5,115.9 481.6,118.5 484.7,118.8 				"/>
			</g>
		</g>
	</g>
</g>
<g>
	<g>
		<path class="st8" d="M210.7,41.6c0-0.2,0.1-0.6,0.2-1"/>
		<path class="st9" d="M212,38.8c0.5-0.7,1.3-1.4,2.3-2.3c2.5-2.2,5.6-3.2,9.6-3.2c3.8,0,6.8,1.1,9,3.5c2.3,2.4,3.4,4.9,3.4,7.6
			c0,0.6,0,1.6-0.3,2.9c-0.7,3.2-2.4,6.5-2.4,6.5c-2.6,4.9-3.8,7.4-4.6,8.6c-4.5,7.1-11.2,14.4-14.3,17.7"/>
		<path class="st8" d="M213.9,80.8c-0.3,0.3-0.6,0.6-0.7,0.8h1.1"/>
		<polyline class="st10" points="216.3,81.5 223.5,81.5 240,81.5 		"/>
		<line class="st8" x1="241" y1="81.5" x2="242.1" y2="81.5"/>
	</g>
</g>
<g>
	<g>
		<g>
			<line class="st11" x1="220.8" y1="115.3" x2="221.9" y2="115.3"/>
			<line class="st12" x1="223.9" y1="115.3" x2="247.2" y2="115.3"/>
			<polyline class="st11" points="248.3,115.3 249.4,115.3 248.9,116.3 			"/>
			<line class="st13" x1="248.1" y1="118.4" x2="229.6" y2="163.7"/>
			<line class="st11" x1="229.2" y1="164.7" x2="228.8" y2="165.8"/>
		</g>
	</g>
	<g>
		<g>
			<line class="st14" x1="249.1" y1="115.9" x2="246.2" y2="123.1"/>
			<g>
				<path class="st7" d="M247.9,115.4c0.3-0.7,1-1,1.7-0.7c0.7,0.3,1,1,0.7,1.7c-0.3,0.7-1,1-1.7,0.7
					C248,116.8,247.7,116.1,247.9,115.4z"/>
			</g>
			<g>
				<polygon class="st7" points="244.8,122 245.3,125.3 248,123.2 				"/>
			</g>
		</g>
	</g>
	<g>
		<g>
			<line class="st14" x1="222" y1="115.3" x2="230.2" y2="115.3"/>
			<g>
				<path class="st7" d="M222,116.6c-0.7,0-1.3-0.6-1.3-1.3c0-0.7,0.6-1.3,1.3-1.3c0.7,0,1.3,0.6,1.3,1.3
					C223.3,116,222.7,116.6,222,116.6z"/>
			</g>
			<g>
				<polygon class="st7" points="229.7,117 232.6,115.3 229.7,113.6 				"/>
			</g>
		</g>
	</g>
</g>
<g>
	<g>
		<g>
			<path class="st15" d="M299.3,39.2c0.2-0.3,0.5-0.5,0.7-0.8"/>
			<path class="st16" d="M301.5,37c3.8-3.3,8.6-4.5,12.8-3.2c3.1,1,5.1,3.1,6.1,4.4c2.2,3.6,2.3,8.2,0.3,11.9
				c-1.7,3.1-4.7,5.3-8.2,5.9"/>
			<path class="st15" d="M311.5,56.1c-0.4,0-0.7,0.1-1.1,0.1c0.4,0,0.7,0,1.1,0.1"/>
			<path class="st17" d="M313.7,56.6c4.6,1.2,8.3,4.4,9.6,8.7c1.7,5.7-1.5,10.5-2,11.1c-0.7,0.9-3.8,4.4-9,5
				c-5.2,0.6-9.1-2.1-11.1-3.9"/>
			<path class="st15" d="M300.3,76.7c-0.4-0.4-0.6-0.7-0.7-0.8"/>
		</g>
	</g>
	<g>
		<g>
			<path class="st18" d="M311.3,56.2c2.8,0.2,5.3,1.2,7.4,2.7"/>
			<g>
				<path class="st7" d="M311.3,57.1c-0.5,0-0.9-0.5-0.8-1c0-0.5,0.5-0.9,1-0.8c0.5,0,0.9,0.5,0.8,1
					C312.2,56.8,311.8,57.2,311.3,57.1z"/>
			</g>
			<g>
				<polygon class="st7" points="317.6,59.7 320,60 319.1,57.8 				"/>
			</g>
		</g>
	</g>
	<g>
		<g>
			<path class="st18" d="M299.9,38.5c1.3-1.4,2.8-2.6,4.4-3.5"/>
			<g>
				
					<ellipse transform="matrix(0.9437 -0.3307 0.3307 0.9437 4.1369 101.3545)" class="st7" cx="299.9" cy="38.5" rx="0.9" ry="0.9"/>
			</g>
			<g>
				<polygon class="st7" points="304.5,36.3 305.9,34.3 303.5,34.1 				"/>
			</g>
		</g>
	</g>
</g>
<g>
	<g>
		<g>
			<line class="st15" x1="414.2" y1="66.9" x2="413.1" y2="66.9"/>
			<line class="st19" x1="410.9" y1="66.9" x2="381.6" y2="66.9"/>
			<polyline class="st15" points="380.5,66.9 379.4,66.9 380.1,66 			"/>
			<line class="st20" x1="381.4" y1="64.4" x2="404.3" y2="35.3"/>
			<polyline class="st15" points="404.9,34.5 405.6,33.7 405.6,34.7 			"/>
			<line class="st21" x1="405.6" y1="36.9" x2="405.6" y2="79.4"/>
			<line class="st15" x1="405.6" y1="80.5" x2="405.6" y2="81.5"/>
		</g>
	</g>
	<g>
		<g>
			<line class="st18" x1="405.3" y1="34" x2="401.2" y2="39.3"/>
			<g>
				<path class="st7" d="M404.6,33.5c0.3-0.4,0.9-0.5,1.3-0.2c0.4,0.3,0.5,0.9,0.2,1.3c-0.3,0.4-0.9,0.5-1.3,0.2
					C404.3,34.4,404.3,33.9,404.6,33.5z"/>
			</g>
			<g>
				<polygon class="st7" points="400.4,38.2 400.1,40.6 402.3,39.7 				"/>
			</g>
		</g>
	</g>
	<g>
		<g>
			<line class="st18" x1="405.6" y1="34.1" x2="405.6" y2="40.8"/>
			<g>
				<path class="st7" d="M404.7,34.1c0-0.5,0.4-0.9,0.9-0.9s0.9,0.4,0.9,0.9c0,0.5-0.4,0.9-0.9,0.9S404.7,34.6,404.7,34.1z"/>
			</g>
			<g>
				<polygon class="st7" points="404.4,40.4 405.6,42.5 406.8,40.4 				"/>
			</g>
		</g>
	</g>
	<g>
		<g>
			<line class="st18" x1="380.3" y1="66.9" x2="386.4" y2="66.9"/>
			<g>
				<path class="st7" d="M380.4,68c-0.6,0-1.1-0.5-1.1-1.1c0-0.6,0.5-1.1,1.1-1.1c0.6,0,1.1,0.5,1.1,1.1C381.5,67.5,381,68,380.4,68
					z"/>
			</g>
			<g>
				<polygon class="st7" points="385.9,68.4 388.5,66.9 385.9,65.4 				"/>
			</g>
		</g>
	</g>
</g>
<g>
	<g>
		<g>
			<line class="st22" x1="494.7" y1="33.9" x2="493.6" y2="33.9"/>
			<line class="st23" x1="491.5" y1="33.9" x2="471.8" y2="33.9"/>
			<polyline class="st22" points="470.8,33.9 469.7,33.9 469.7,35 			"/>
			<line class="st24" x1="469.7" y1="37.2" x2="469.7" y2="53.7"/>
			<path class="st22" d="M469.7,54.8v1.1c0.3-0.2,0.5-0.5,0.8-0.7"/>
			<path class="st25" d="M472.3,53.9c5.6-3.4,12.4-3.2,17,0.4c5.9,4.6,5.2,12.7,5.2,13.2c-0.1,1-0.8,7.7-6.5,11.5
				c-4.8,3.2-11.4,3.2-16.9,0"/>
			<path class="st22" d="M470.1,78.5c-0.3-0.2-0.6-0.4-0.9-0.6"/>
		</g>
	</g>
	<g>
		<g>
			<path class="st26" d="M470.1,55.4c2-1.6,4.4-2.7,6.7-3.3"/>
			<g>
				<path class="st7" d="M471,56.3c-0.5,0.4-1.3,0.4-1.7-0.2c-0.4-0.5-0.4-1.3,0.2-1.7c0.5-0.4,1.3-0.4,1.7,0.2
					C471.6,55.1,471.5,55.8,471,56.3z"/>
			</g>
			<g>
				<polygon class="st7" points="476.7,53.7 479.1,51.6 476,50.6 				"/>
			</g>
		</g>
	</g>
	<g>
		<g>
			<line class="st26" x1="470.2" y1="33.9" x2="476.3" y2="33.9"/>
			<g>
				<path class="st7" d="M470.3,35.1c-0.7,0-1.2-0.5-1.2-1.2c0-0.7,0.5-1.2,1.2-1.2c0.7,0,1.2,0.5,1.2,1.2
					C471.5,34.6,470.9,35.1,470.3,35.1z"/>
			</g>
			<g>
				<polygon class="st7" points="475.8,35.5 478.6,33.9 475.8,32.3 				"/>
			</g>
		</g>
	</g>
	<g>
		<g>
			<line class="st26" x1="469.7" y1="34.4" x2="469.7" y2="40.1"/>
			<g>
				<path class="st7" d="M468.5,34.4c0-0.7,0.5-1.2,1.2-1.2s1.2,0.5,1.2,1.2c0,0.7-0.5,1.2-1.2,1.2S468.5,35.1,468.5,34.4z"/>
			</g>
			<g>
				<polygon class="st7" points="468.1,39.6 469.7,42.4 471.4,39.6 				"/>
			</g>
		</g>
	</g>
</g>
<g>
	<g>
		<polyline class="st27" points="134.9,44.8 147.8,32.7 147.8,81.5 		"/>
		<g>
			<g>
				<line class="st28" x1="135" y1="44.6" x2="141.6" y2="38.5"/>
				<g>
					<path class="st7" d="M135.5,45.1c-0.3,0.2-0.7,0.2-0.9,0s-0.2-0.7,0-0.9s0.7-0.2,0.9,0C135.8,44.4,135.8,44.8,135.5,45.1z"/>
				</g>
				<g>
					<polygon class="st7" points="142,39.3 142.6,37.7 140.9,38.1 					"/>
				</g>
			</g>
		</g>
		<g>
			<g>
				<line class="st28" x1="147.8" y1="33.3" x2="147.8" y2="43.2"/>
				<g>
					<path class="st7" d="M147.2,33.4c0-0.4,0.3-0.7,0.7-0.7c0.4,0,0.7,0.3,0.7,0.7c0,0.4-0.3,0.7-0.7,0.7
						C147.5,34,147.2,33.7,147.2,33.4z"/>
				</g>
				<g>
					<polygon class="st7" points="147,42.9 147.8,44.4 148.7,42.9 					"/>
				</g>
			</g>
		</g>
	</g>
</g>
<g>
	<g>
		<polyline class="st27" points="453.5,127.7 466.5,115.6 466.5,164.4 		"/>
		<g>
			<g>
				<line class="st28" x1="453.7" y1="127.5" x2="460.3" y2="121.4"/>
				<g>
					<path class="st7" d="M454.1,127.9c-0.3,0.2-0.7,0.2-0.9,0c-0.2-0.3-0.2-0.7,0-0.9c0.3-0.2,0.7-0.2,0.9,0
						S454.4,127.7,454.1,127.9z"/>
				</g>
				<g>
					<polygon class="st7" points="460.7,122.2 461.2,120.5 459.5,120.9 					"/>
				</g>
			</g>
		</g>
		<g>
			<g>
				<line class="st28" x1="466.5" y1="116.2" x2="466.5" y2="126"/>
				<g>
					<circle class="st7" cx="466.5" cy="116.2" r="0.7"/>
				</g>
				<g>
					<polygon class="st7" points="465.6,125.8 466.5,127.3 467.3,125.8 					"/>
				</g>
			</g>
		</g>
	</g>
</g>
<g>
	<g>
		<path class="st29" d="M313.3,117.1c-3.4,1.4-7.7,4.2-7.7,9.9c0,9.6,11.1,10.8,11.1,10.8s13.9,1.9,13.6,14
			c-0.3,12.1-9.7,12.6-13.1,12.7c-3.5,0.1-10.1-2.9-11.7-8.8c-1.6-5.9-0.1-10.6,2.9-13.4c5.5-5.1,15.5-2.9,19.6-9.9
			c2.7-4.7,1.7-11-2.4-13.6C321.4,115.9,317.8,115.3,313.3,117.1z"/>
	</g>
	<g>
		<g>
			<path class="st30" d="M323.5,140.2c2.2,1.2,4.4,3.1,5.7,5.8"/>
			<g>
				<path class="st7" d="M323.2,140.8c-0.3-0.2-0.5-0.7-0.2-1c0.2-0.3,0.7-0.5,1-0.2c0.3,0.2,0.5,0.7,0.2,1
					C324,140.9,323.5,141.1,323.2,140.8z"/>
			</g>
			<g>
				<polygon class="st7" points="328.2,146.1 329.7,147.3 330,145.4 				"/>
			</g>
		</g>
	</g>
	<g>
		<g>
			<path class="st30" d="M316.9,116.1c-1.2,0.1-2.4,0.4-3.7,1c-0.9,0.4-2,0.9-2.9,1.5"/>
			<g>
				<path class="st7" d="M316.8,115.4c0.4,0,0.8,0.3,0.8,0.7s-0.3,0.8-0.7,0.8c-0.4,0-0.8-0.3-0.8-0.7
					C316.1,115.8,316.4,115.5,316.8,115.4z"/>
			</g>
			<g>
				<polygon class="st7" points="310,117.6 309.2,119.4 311.2,119.2 				"/>
			</g>
		</g>
	</g>
</g>
<g>
	<g>
		<g>
			<path class="st31" d="M418.4,134.7c-0.2,0.4-0.3,0.8-0.5,1.1"/>
			<path class="st32" d="M416.6,137.9c-2.9,4.2-7,5.7-10.9,6.2c-6.9,0.9-12.2-2.4-14.1-9.3c-1.5-5.4,0.3-11.7,4.1-15.8
				c2.3-2.4,5.4-3.8,9.4-3.5c3.7,0.3,7.5,2,9.6,4.6c7.4,9.1,2.5,23.3-1.7,31.6c-2.4,4.6-6.7,9.1-9.1,11.5"/>
			<path class="st31" d="M402.9,164.1c-0.6,0.5-0.9,0.8-0.9,0.8"/>
		</g>
	</g>
	<g>
		<g>
			<path class="st33" d="M413.5,119c2.2,2.3,3.6,5.1,4.6,8.2"/>
			<g>
				<polygon class="st7" points="412.9,120.3 412.1,117.7 414.7,118.4 				"/>
			</g>
			<g>
				<path class="st7" d="M417.1,127.5c0.2,0.5,0.7,0.8,1.3,0.6s0.8-0.7,0.6-1.3c-0.2-0.5-0.7-0.8-1.3-0.6S417,127,417.1,127.5z"/>
			</g>
		</g>
	</g>
</g>
</svg>
