<svg xmlns="http://www.w3.org/2000/svg" xmlns:xlink="http://www.w3.org/1999/xlink" width="600" zoomAndPan="magnify" viewBox="0 0 450 149.999998" height="200" preserveAspectRatio="xMidYMid meet" version="1.2"><defs/><g id="65c0f11f0e"><rect x="0" width="450" y="0" height="149.999998" style="fill:#ffffff;fill-opacity:1;stroke:none;"/><rect x="0" width="450" y="0" height="149.999998" style="fill:#ffffff;fill-opacity:1;stroke:none;"/><path style="fill-rule:nonzero;fill:#000000;fill-opacity:1;stroke-width:1;stroke-linecap:butt;stroke-linejoin:miter;stroke:#0c7b3b;stroke-opacity:1;stroke-miterlimit:4;" d="M 0.499995 0.999997 L 0.499995 199.000009 M 599.50003 0.999997 L 599.50003 199.000009 M -0.000005 0.499997 L 600.00003 0.499997 M -0.000005 199.500009 L 600.00003 199.500009 " transform="matrix(0.75,0,0,0.75,0.00000375,0.000002)"/><g style="fill:#0c7b3b;fill-opacity:1;"><g transform="translate(34.299023, 98.680704)"><path style="stroke:none" d="M 24.3125 -65.878906 L 13.0625 -47.667969 C 6.292969 -36.707031 4.195312 -29.746094 4.195312 -21.929688 C 4.195312 -7.054688 14.492188 0.859375 26.027344 0.859375 C 38.328125 0.859375 47.289062 -8.867188 47.289062 -21.546875 C 47.289062 -32.605469 39.660156 -41.855469 29.078125 -41.855469 C 27.933594 -41.855469 27.171875 -41.757812 25.265625 -41.28125 L 40.328125 -65.878906 Z M 18.878906 -20.6875 C 18.878906 -26.980469 21.738281 -30.507812 25.835938 -30.507812 C 30.605469 -30.507812 33.273438 -26.21875 33.273438 -20.976562 C 33.273438 -15.539062 30.699219 -11.25 26.027344 -11.25 C 21.546875 -11.25 18.878906 -14.777344 18.878906 -20.6875 Z M 18.878906 -20.6875 "/></g></g><g style="fill:#0c7b3b;fill-opacity:1;"><g transform="translate(109.571831, 98.680704)"><path style="stroke:none" d="M 24.980469 -65.878906 C 13.253906 -65.878906 3.335938 -56.632812 3.335938 -43.476562 C 3.335938 -32.035156 11.441406 -22.882812 21.261719 -22.882812 C 22.882812 -22.882812 23.738281 -23.167969 25.457031 -23.550781 L 10.488281 0.859375 L 26.410156 0.859375 L 37.753906 -17.542969 C 43.664062 -27.171875 46.429688 -35.085938 46.429688 -43.953125 C 46.429688 -57.109375 36.132812 -65.878906 24.980469 -65.878906 Z M 17.351562 -43.953125 C 17.351562 -49.671875 20.402344 -53.675781 24.597656 -53.675781 C 28.886719 -53.675781 31.84375 -50.339844 31.84375 -43.953125 C 31.84375 -38.328125 28.886719 -34.324219 24.597656 -34.324219 C 20.496094 -34.324219 17.351562 -37.945312 17.351562 -43.953125 Z M 17.351562 -43.953125 "/></g></g><g style="fill:#0c7b3b;fill-opacity:1;"><g transform="translate(190.537607, 98.680704)"><path style="stroke:none" d="M 9.4375 -65.023438 L 9.4375 -27.933594 C 12.011719 -28.601562 14.683594 -28.886719 17.445312 -28.886719 C 24.980469 -28.886719 30.222656 -25.359375 30.222656 -19.542969 C 30.222656 -14.777344 26.410156 -10.582031 19.925781 -10.582031 C 16.492188 -10.582031 11.917969 -11.34375 6.101562 -14.492188 L 6.101562 -2.667969 C 9.34375 -0.761719 16.398438 0.859375 21.832031 0.859375 C 37.375 0.859375 45.382812 -7.914062 45.382812 -20.308594 C 45.382812 -31.652344 36.515625 -39.851562 24.980469 -39.851562 C 23.929688 -39.851562 23.167969 -39.757812 22.40625 -39.757812 L 22.40625 -51.960938 L 43.1875 -51.960938 L 43.1875 -65.023438 Z M 9.4375 -65.023438 "/></g></g><g style="fill:#0c7b3b;fill-opacity:1;"><g transform="translate(275.049009, 98.680704)"><path style="stroke:none" d="M 26.125 -65.878906 C 13.917969 -65.878906 6.386719 -58.539062 6.386719 -48.242188 C 6.386719 -42.617188 8.582031 -37.945312 14.394531 -34.324219 C 8.105469 -31.75 4.578125 -25.644531 4.578125 -18.496094 C 4.578125 -7.054688 13.632812 0.859375 26.21875 0.859375 C 39.757812 0.859375 48.148438 -7.152344 48.148438 -18.589844 C 48.148438 -25.457031 44.714844 -31.367188 38.421875 -34.324219 C 44.523438 -37.851562 46.335938 -43.1875 46.335938 -48.433594 C 46.335938 -56.632812 39.757812 -65.878906 26.125 -65.878906 Z M 20.210938 -47.382812 C 20.210938 -52.53125 22.40625 -56.15625 26.3125 -56.15625 C 30.222656 -56.15625 32.414062 -53.105469 32.414062 -47.480469 C 32.414062 -41.664062 30.222656 -38.328125 26.410156 -38.328125 C 22.308594 -38.328125 20.210938 -42.234375 20.210938 -47.382812 Z M 33.464844 -18.589844 C 33.464844 -12.394531 30.699219 -8.484375 26.503906 -8.484375 C 22.308594 -8.484375 19.164062 -12.585938 19.164062 -18.878906 C 19.164062 -25.074219 21.832031 -29.078125 26.410156 -29.078125 C 30.699219 -29.078125 33.464844 -25.457031 33.464844 -18.589844 Z M 33.464844 -18.589844 "/></g></g><g style="fill:#0c7b3b;fill-opacity:1;"><g transform="translate(357.924004, 98.680704)"><path style="stroke:none" d="M 24.214844 -65.878906 C 17.066406 -65.878906 11.917969 -63.402344 6.007812 -59.683594 L 6.007812 -46.050781 C 11.25 -51.101562 17.445312 -54.152344 21.640625 -54.152344 C 26.601562 -54.152344 30.414062 -49.863281 30.414062 -45 C 30.414062 -38.898438 27.171875 -31.558594 17.351562 -18.113281 C 12.488281 -11.535156 8.390625 -6.007812 5.148438 -1.90625 L 5.148438 0 L 48.148438 0 L 48.148438 -13.253906 L 27.171875 -13.253906 C 36.039062 -24.691406 37.753906 -27.742188 41.949219 -36.039062 C 43.855469 -39.949219 44.808594 -43.664062 44.808594 -47.667969 C 44.808594 -57.394531 38.421875 -65.878906 24.214844 -65.878906 Z M 24.214844 -65.878906 "/></g></g></g></svg>