<svg xmlns="http://www.w3.org/2000/svg" xmlns:xlink="http://www.w3.org/1999/xlink" width="600" zoomAndPan="magnify" viewBox="0 0 450 149.999998" height="200" preserveAspectRatio="xMidYMid meet" version="1.2"><defs><clipPath id="716dd3c749"><path d="M 268.707031 37.367188 L 294.957031 37.367188 L 294.957031 68 L 268.707031 68 Z M 268.707031 37.367188 "/></clipPath><clipPath id="99e18226ac"><path d="M 276 70 L 286 70 L 286 80.117188 L 276 80.117188 Z M 276 70 "/></clipPath></defs><g id="e1d53ac454"><rect x="0" width="450" y="0" height="149.999998" style="fill:#ffffff;fill-opacity:1;stroke:none;"/><rect x="0" width="450" y="0" height="149.999998" style="fill:#ffffff;fill-opacity:1;stroke:none;"/><path style="fill-rule:nonzero;fill:#000000;fill-opacity:1;stroke-width:1;stroke-linecap:butt;stroke-linejoin:miter;stroke:#0c7b3b;stroke-opacity:1;stroke-miterlimit:4;" d="M 0.499995 0.999997 L 0.499995 199.000009 M 599.50003 0.999997 L 599.50003 199.000009 M -0.000005 0.499997 L 600.00003 0.499997 M -0.000005 199.500009 L 600.00003 199.500009 " transform="matrix(0.75,0,0,0.75,0.00000375,0.000002)"/><g style="fill:#0c7b3b;fill-opacity:1;"><g transform="translate(57.795438, 82.764054)"><path style="stroke:none" d="M 12.945312 -45.179688 L 12.945312 0 L 23.144531 0 L 23.144531 -45.179688 Z M 12.945312 -45.179688 "/></g></g><g style="fill:#0c7b3b;fill-opacity:1;"><g transform="translate(93.886476, 82.764054)"><path style="stroke:none" d="M 8.367188 -9.351562 C 5.882812 -9.351562 2.875 -7.519531 2.875 -4.316406 C 2.875 -2.222656 4.054688 -0.328125 6.210938 0.589844 C 6.277344 0.914062 6.277344 1.242188 6.277344 1.570312 C 6.277344 4.117188 5.296875 6.734375 3.269531 9.023438 L 3.269531 11.050781 C 10.394531 10.332031 14.777344 3.859375 14.777344 -1.894531 C 14.777344 -7.910156 10.332031 -9.351562 8.367188 -9.351562 Z M 8.367188 -9.351562 "/></g></g><g style="fill:#0c7b3b;fill-opacity:1;"><g transform="translate(111.605076, 82.764054)"><path style="stroke:none" d=""/></g></g><g style="fill:#0c7b3b;fill-opacity:1;"><g transform="translate(129.781363, 82.764054)"><path style="stroke:none" d="M 15.101562 -45.179688 C 11.769531 -45.179688 7.847656 -44.527344 4.902344 -43.21875 L 4.902344 -35.371094 C 8.367188 -37.136719 10.65625 -37.726562 13.273438 -37.726562 C 16.605469 -37.726562 19.484375 -35.566406 19.484375 -32.496094 C 19.484375 -29.945312 17.261719 -27.394531 13.339844 -27.066406 L 13.339844 -19.222656 C 17.914062 -18.765625 20.203125 -16.214844 20.203125 -13.011719 C 20.203125 -9.742188 17.390625 -7.191406 13.597656 -7.191406 C 10.265625 -7.191406 6.863281 -8.367188 3.792969 -10.59375 L 3.792969 -1.960938 C 6.929688 -0.261719 11.179688 0.589844 14.972656 0.589844 C 23.472656 0.589844 30.597656 -3.859375 30.597656 -12.421875 C 30.597656 -18.371094 27.851562 -21.835938 22.753906 -23.929688 C 26.871094 -25.890625 29.355469 -30.074219 29.355469 -34.261719 C 29.355469 -40.929688 23.339844 -45.179688 15.101562 -45.179688 Z M 15.101562 -45.179688 "/></g></g><g style="fill:#0c7b3b;fill-opacity:1;"><g transform="translate(165.872401, 82.764054)"><path style="stroke:none" d="M 8.367188 -9.351562 C 5.882812 -9.351562 2.875 -7.519531 2.875 -4.316406 C 2.875 -2.222656 4.054688 -0.328125 6.210938 0.589844 C 6.277344 0.914062 6.277344 1.242188 6.277344 1.570312 C 6.277344 4.117188 5.296875 6.734375 3.269531 9.023438 L 3.269531 11.050781 C 10.394531 10.332031 14.777344 3.859375 14.777344 -1.894531 C 14.777344 -7.910156 10.332031 -9.351562 8.367188 -9.351562 Z M 8.367188 -9.351562 "/></g></g><g style="fill:#0c7b3b;fill-opacity:1;"><g transform="translate(183.590995, 82.764054)"><path style="stroke:none" d=""/></g></g><g style="fill:#0c7b3b;fill-opacity:1;"><g transform="translate(201.767288, 82.764054)"><path style="stroke:none" d="M 6.472656 -44.589844 L 6.472656 -19.15625 C 8.238281 -19.613281 10.070312 -19.8125 11.964844 -19.8125 C 17.128906 -19.8125 20.726562 -17.390625 20.726562 -13.402344 C 20.726562 -10.132812 18.109375 -7.257812 13.664062 -7.257812 C 11.3125 -7.257812 8.171875 -7.78125 4.183594 -9.9375 L 4.183594 -1.832031 C 6.40625 -0.523438 11.246094 0.589844 14.972656 0.589844 C 25.628906 0.589844 31.121094 -5.425781 31.121094 -13.925781 C 31.121094 -21.707031 25.042969 -27.328125 17.128906 -27.328125 C 16.410156 -27.328125 15.886719 -27.265625 15.363281 -27.265625 L 15.363281 -35.632812 L 29.617188 -35.632812 L 29.617188 -44.589844 Z M 6.472656 -44.589844 "/></g></g><g style="fill:#0c7b3b;fill-opacity:1;"><g transform="translate(237.858332, 82.764054)"><path style="stroke:none" d="M 8.367188 -9.351562 C 5.882812 -9.351562 2.875 -7.519531 2.875 -4.316406 C 2.875 -2.222656 4.054688 -0.328125 6.210938 0.589844 C 6.277344 0.914062 6.277344 1.242188 6.277344 1.570312 C 6.277344 4.117188 5.296875 6.734375 3.269531 9.023438 L 3.269531 11.050781 C 10.394531 10.332031 14.777344 3.859375 14.777344 -1.894531 C 14.777344 -7.910156 10.332031 -9.351562 8.367188 -9.351562 Z M 8.367188 -9.351562 "/></g></g><g style="fill:#0c7b3b;fill-opacity:1;"><g transform="translate(255.576927, 82.764054)"><path style="stroke:none" d="M -0.390625 4.902344 L -0.390625 8.171875 L 33.082031 8.171875 L 33.082031 4.902344 Z M -0.390625 4.902344 "/></g></g><g style="fill:#0c7b3b;fill-opacity:1;"><g transform="translate(288.268076, 82.764054)"><path style="stroke:none" d="M -0.390625 4.902344 L -0.390625 8.171875 L 33.082031 8.171875 L 33.082031 4.902344 Z M -0.390625 4.902344 "/></g></g><g style="fill:#0c7b3b;fill-opacity:1;"><g transform="translate(320.959226, 82.764054)"><path style="stroke:none" d="M 8.367188 -9.351562 C 5.882812 -9.351562 2.875 -7.519531 2.875 -4.316406 C 2.875 -2.222656 4.054688 -0.328125 6.210938 0.589844 C 6.277344 0.914062 6.277344 1.242188 6.277344 1.570312 C 6.277344 4.117188 5.296875 6.734375 3.269531 9.023438 L 3.269531 11.050781 C 10.394531 10.332031 14.777344 3.859375 14.777344 -1.894531 C 14.777344 -7.910156 10.332031 -9.351562 8.367188 -9.351562 Z M 8.367188 -9.351562 "/></g></g><g style="fill:#0c7b3b;fill-opacity:1;"><g transform="translate(338.677833, 82.764054)"><path style="stroke:none" d=""/></g></g><g style="fill:#0c7b3b;fill-opacity:1;"><g transform="translate(356.854114, 82.764054)"><path style="stroke:none" d="M 17.128906 -45.179688 C 9.089844 -45.179688 2.289062 -38.835938 2.289062 -29.8125 C 2.289062 -21.96875 7.847656 -15.691406 14.582031 -15.691406 C 15.691406 -15.691406 16.28125 -15.886719 17.457031 -16.148438 L 7.191406 0.589844 L 18.109375 0.589844 L 25.890625 -12.03125 C 29.945312 -18.632812 31.839844 -24.0625 31.839844 -30.140625 C 31.839844 -39.164062 24.78125 -45.179688 17.128906 -45.179688 Z M 11.898438 -30.140625 C 11.898438 -34.0625 13.992188 -36.808594 16.867188 -36.808594 C 19.8125 -36.808594 21.835938 -34.523438 21.835938 -30.140625 C 21.835938 -26.285156 19.8125 -23.539062 16.867188 -23.539062 C 14.058594 -23.539062 11.898438 -26.023438 11.898438 -30.140625 Z M 11.898438 -30.140625 "/></g></g><g clip-rule="nonzero" clip-path="url(#716dd3c749)"><path style=" stroke:none;fill-rule:nonzero;fill:#000000;fill-opacity:1;" d="M 293.222656 42.328125 C 292.09375 40.71875 290.535156 39.488281 288.550781 38.640625 C 286.574219 37.796875 284.292969 37.367188 281.710938 37.367188 C 279.359375 37.367188 277.210938 37.789062 275.269531 38.625 C 273.328125 39.453125 271.761719 40.730469 270.582031 42.414062 C 269.640625 43.753906 269.0625 45.378906 268.820312 47.285156 C 268.71875 48.117188 269.378906 48.851562 270.214844 48.851562 L 275.414062 48.851562 C 276.082031 48.851562 276.648438 48.382812 276.792969 47.730469 C 276.921875 47.148438 277.132812 46.628906 277.433594 46.183594 C 277.914062 45.464844 278.527344 44.917969 279.28125 44.550781 C 280.035156 44.183594 280.828125 43.996094 281.675781 43.996094 C 282.546875 43.996094 283.335938 44.175781 284.0625 44.542969 C 284.78125 44.902344 285.351562 45.421875 285.78125 46.097656 C 286.207031 46.773438 286.421875 47.550781 286.421875 48.449219 C 286.421875 49.296875 286.234375 50.058594 285.859375 50.730469 C 285.480469 51.40625 284.976562 52.03125 284.34375 52.585938 C 283.703125 53.152344 282.992188 53.683594 282.1875 54.203125 C 281.109375 54.878906 280.1875 55.632812 279.425781 56.460938 C 278.65625 57.289062 278.082031 58.375 277.679688 59.726562 C 277.289062 61.078125 277.082031 62.882812 277.074219 65.148438 L 277.074219 66.277344 C 277.074219 67.046875 277.699219 67.679688 278.476562 67.679688 L 283.050781 67.679688 C 283.820312 67.679688 284.453125 67.054688 284.453125 66.277344 L 284.453125 65.148438 C 284.472656 63.875 284.632812 62.804688 284.949219 61.941406 C 285.265625 61.078125 285.753906 60.308594 286.40625 59.648438 C 287.0625 58.992188 287.902344 58.359375 288.925781 57.742188 C 290.152344 57.015625 291.203125 56.203125 292.101562 55.296875 C 292.988281 54.398438 293.691406 53.355469 294.195312 52.1875 C 294.691406 51.015625 294.949219 49.664062 294.949219 48.148438 C 294.921875 45.875 294.351562 43.933594 293.222656 42.328125 Z M 293.222656 42.328125 "/></g><g clip-rule="nonzero" clip-path="url(#99e18226ac)"><path style=" stroke:none;fill-rule:nonzero;fill:#000000;fill-opacity:1;" d="M 280.90625 70.824219 C 279.605469 70.824219 278.503906 71.277344 277.585938 72.183594 C 276.671875 73.089844 276.21875 74.183594 276.234375 75.449219 C 276.21875 76.734375 276.671875 77.835938 277.585938 78.75 C 278.503906 79.664062 279.605469 80.117188 280.90625 80.117188 C 281.734375 80.117188 282.503906 79.90625 283.199219 79.484375 C 283.898438 79.058594 284.464844 78.503906 284.898438 77.792969 C 285.335938 77.082031 285.558594 76.304688 285.566406 75.449219 C 285.550781 74.175781 285.078125 73.089844 284.148438 72.183594 C 283.222656 71.277344 282.136719 70.824219 280.90625 70.824219 Z M 280.90625 70.824219 "/></g></g></svg>