<svg xmlns="http://www.w3.org/2000/svg" xmlns:xlink="http://www.w3.org/1999/xlink" width="600" zoomAndPan="magnify" viewBox="0 0 450 149.999998" height="200" preserveAspectRatio="xMidYMid meet" version="1.2"><defs><clipPath id="e7b2eecf31"><path d="M 168.523438 0.75 L 287.773438 0.75 L 287.773438 42.75 L 168.523438 42.75 Z M 168.523438 0.75 "/></clipPath><clipPath id="bb8afe20f8"><path d="M 168.523438 47 L 287.773438 47 L 287.773438 88.796875 L 168.523438 88.796875 Z M 168.523438 47 "/></clipPath><clipPath id="2011c9c68a"><path d="M 168.523438 46.796875 L 287.773438 46.796875 L 287.773438 88.796875 L 168.523438 88.796875 Z M 168.523438 46.796875 "/></clipPath><clipPath id="d652ecd57f"><path d="M 251.429688 58.734375 L 262.679688 58.734375 L 262.679688 72 L 251.429688 72 Z M 251.429688 58.734375 "/></clipPath><clipPath id="95828156bf"><path d="M 254 72 L 259 72 L 259 76.734375 L 254 76.734375 Z M 254 72 "/></clipPath><clipPath id="4567aeb3e8"><path d="M 181.601562 50.667969 L 215.351562 50.667969 L 215.351562 84.417969 L 181.601562 84.417969 Z M 181.601562 50.667969 "/></clipPath><clipPath id="a56da4ba38"><path d="M 240.257812 6.515625 L 273.503906 6.515625 L 273.503906 36.636719 L 240.257812 36.636719 Z M 240.257812 6.515625 "/></clipPath><clipPath id="a21f37f5a5"><path d="M 181.601562 6.144531 L 215.296875 6.144531 L 215.296875 37.007812 L 181.601562 37.007812 Z M 181.601562 6.144531 "/></clipPath><clipPath id="ec9b9de7a0"><path d="M 134.335938 99.34375 L 324.835938 99.34375 L 324.835938 132 L 134.335938 132 Z M 134.335938 99.34375 "/></clipPath><clipPath id="e9be5b2f7b"><path d="M 134.335938 99.34375 L 324.835938 99.34375 L 324.835938 132.34375 L 134.335938 132.34375 Z M 134.335938 99.34375 "/></clipPath><clipPath id="d4f70ceac4"><path d="M 134.335938 135 L 324.835938 135 L 324.835938 148 L 134.335938 148 Z M 134.335938 135 "/></clipPath><clipPath id="002597c98b"><path d="M 287.773438 103.085938 L 313.273438 103.085938 L 313.273438 128.585938 L 287.773438 128.585938 Z M 287.773438 103.085938 "/></clipPath><clipPath id="558d406849"><path d="M 193.007812 103.582031 L 217.757812 103.582031 L 217.757812 128 L 193.007812 128 Z M 193.007812 103.582031 "/></clipPath><clipPath id="4c687931cd"><path d="M 241.695312 103.652344 L 266.394531 103.652344 L 266.394531 128 L 241.695312 128 Z M 241.695312 103.652344 "/></clipPath><clipPath id="6a2b603700"><path d="M 144.964844 104.152344 L 169.664062 104.152344 L 169.664062 128.5 L 144.964844 128.5 Z M 144.964844 104.152344 "/></clipPath></defs><g id="504959a80b"><rect x="0" width="450" y="0" height="149.999998" style="fill:#ffffff;fill-opacity:1;stroke:none;"/><rect x="0" width="450" y="0" height="149.999998" style="fill:#ffffff;fill-opacity:1;stroke:none;"/><g clip-rule="nonzero" clip-path="url(#e7b2eecf31)"><path style="fill-rule:nonzero;fill:#000000;fill-opacity:1;stroke-width:0.545523;stroke-linecap:butt;stroke-linejoin:miter;stroke:#000000;stroke-opacity:1;stroke-miterlimit:4;" d="M 0.272176 0.546872 L 0.272176 54.989584 M 79.548222 0.546872 L 79.548222 54.989584 M 157.730518 0.546872 L 157.730518 54.989584 M 0.00134237 0.270831 L 158.001352 0.270831 M 0.00134237 55.260417 L 158.001352 55.260417 " transform="matrix(0.75,0,0,0.75,168.522431,0.750002)"/></g><g clip-rule="nonzero" clip-path="url(#bb8afe20f8)"><path style=" stroke:none;fill-rule:nonzero;fill:#000000;fill-opacity:1;" d="M 168.726562 47.203125 L 168.726562 88.039062 M 228.183594 47.203125 L 228.183594 88.039062 M 286.820312 47.203125 L 286.820312 88.039062 M 168.523438 47 L 287.023438 47 M 168.523438 88.242188 L 287.023438 88.242188 "/></g><g clip-rule="nonzero" clip-path="url(#2011c9c68a)"><path style="fill:none;stroke-width:0.545523;stroke-linecap:butt;stroke-linejoin:miter;stroke:#000000;stroke-opacity:1;stroke-miterlimit:4;" d="M 0.272176 0.543639 L 0.272176 54.991558 M 79.548222 0.543639 L 79.548222 54.991558 M 157.730518 0.543639 L 157.730518 54.991558 M 0.00134237 0.272805 L 158.001352 0.272805 M 0.00134237 55.262392 L 158.001352 55.262392 " transform="matrix(0.75,0,0,0.75,168.522431,46.795396)"/></g><g clip-rule="nonzero" clip-path="url(#d652ecd57f)"><path style=" stroke:none;fill-rule:nonzero;fill:#000000;fill-opacity:1;" d="M 261.9375 60.824219 C 261.453125 60.148438 260.785156 59.628906 259.933594 59.273438 C 259.085938 58.914062 258.105469 58.734375 257 58.734375 C 255.992188 58.734375 255.070312 58.914062 254.238281 59.265625 C 253.40625 59.613281 252.734375 60.152344 252.226562 60.859375 C 251.824219 61.425781 251.574219 62.109375 251.472656 62.910156 C 251.429688 63.261719 251.710938 63.570312 252.070312 63.570312 L 254.300781 63.570312 C 254.585938 63.570312 254.828125 63.371094 254.890625 63.097656 C 254.945312 62.855469 255.039062 62.632812 255.164062 62.449219 C 255.371094 62.144531 255.636719 61.914062 255.957031 61.761719 C 256.28125 61.605469 256.621094 61.527344 256.984375 61.527344 C 257.359375 61.527344 257.695312 61.601562 258.007812 61.757812 C 258.316406 61.90625 258.5625 62.128906 258.746094 62.410156 C 258.929688 62.695312 259.019531 63.023438 259.019531 63.402344 C 259.019531 63.757812 258.941406 64.078125 258.777344 64.363281 C 258.617188 64.648438 258.402344 64.910156 258.128906 65.144531 C 257.855469 65.382812 257.550781 65.605469 257.207031 65.824219 C 256.742188 66.109375 256.347656 66.425781 256.019531 66.773438 C 255.691406 67.125 255.445312 67.582031 255.273438 68.148438 C 255.101562 68.71875 255.015625 69.476562 255.011719 70.433594 L 255.011719 70.90625 C 255.011719 71.230469 255.28125 71.496094 255.613281 71.496094 L 257.574219 71.496094 C 257.90625 71.496094 258.175781 71.234375 258.175781 70.90625 L 258.175781 70.433594 C 258.183594 69.894531 258.253906 69.445312 258.390625 69.082031 C 258.527344 68.71875 258.734375 68.394531 259.011719 68.117188 C 259.296875 67.839844 259.65625 67.574219 260.09375 67.316406 C 260.621094 67.007812 261.070312 66.667969 261.457031 66.285156 C 261.835938 65.90625 262.136719 65.46875 262.355469 64.976562 C 262.566406 64.480469 262.675781 63.914062 262.675781 63.277344 C 262.667969 62.316406 262.421875 61.5 261.9375 60.824219 Z M 261.9375 60.824219 "/></g><g clip-rule="nonzero" clip-path="url(#95828156bf)"><path style=" stroke:none;fill-rule:nonzero;fill:#000000;fill-opacity:1;" d="M 256.65625 72.824219 C 256.097656 72.824219 255.625 73.011719 255.230469 73.394531 C 254.839844 73.777344 254.644531 74.238281 254.652344 74.769531 C 254.644531 75.308594 254.839844 75.773438 255.230469 76.160156 C 255.625 76.546875 256.097656 76.734375 256.65625 76.734375 C 257.011719 76.734375 257.339844 76.644531 257.636719 76.46875 C 257.9375 76.289062 258.179688 76.054688 258.367188 75.757812 C 258.554688 75.457031 258.648438 75.128906 258.652344 74.769531 C 258.648438 74.234375 258.445312 73.777344 258.046875 73.394531 C 257.648438 73.011719 257.183594 72.824219 256.65625 72.824219 Z M 256.65625 72.824219 "/></g><g clip-rule="nonzero" clip-path="url(#4567aeb3e8)"><path style=" stroke:none;fill-rule:nonzero;fill:#ff3131;fill-opacity:1;" d="M 198.476562 84.417969 C 189.195312 84.417969 181.601562 76.824219 181.601562 67.542969 C 181.601562 58.261719 189.195312 50.667969 198.476562 50.667969 C 207.757812 50.667969 215.351562 58.261719 215.351562 67.542969 C 215.351562 76.824219 207.757812 84.417969 198.476562 84.417969 Z M 198.476562 84.417969 "/></g><g clip-rule="nonzero" clip-path="url(#a56da4ba38)"><path style=" stroke:none;fill-rule:nonzero;fill:#061bb0;fill-opacity:1;" d="M 240.257812 6.515625 L 273.558594 6.515625 L 273.558594 36.636719 L 240.257812 36.636719 Z M 240.257812 6.515625 "/></g><g clip-rule="nonzero" clip-path="url(#a21f37f5a5)"><path style=" stroke:none;fill-rule:nonzero;fill:#ff3131;fill-opacity:1;" d="M 181.601562 6.144531 L 215.355469 6.144531 L 215.355469 37.007812 L 181.601562 37.007812 Z M 181.601562 6.144531 "/></g><g clip-rule="nonzero" clip-path="url(#ec9b9de7a0)"><path style=" stroke:none;fill-rule:nonzero;fill:#000000;fill-opacity:1;" d="M 134.660156 100 L 134.660156 131.585938 M 181.796875 100 L 181.796875 131.585938 M 228.304688 100 L 228.304688 131.585938 M 276.070312 100 L 276.070312 131.585938 M 323.839844 100 L 323.839844 131.585938 M 134.335938 99.671875 L 324.164062 99.671875 M 134.335938 131.914062 L 324.164062 131.914062 "/></g><g clip-rule="nonzero" clip-path="url(#e9be5b2f7b)"><path style="fill:none;stroke-width:0.871773;stroke-linecap:butt;stroke-linejoin:miter;stroke:#000000;stroke-opacity:1;stroke-miterlimit:4;" d="M 0.434282 0.874199 L 0.434282 42.988785 M 63.283244 0.874199 L 63.283244 42.988785 M 125.293664 0.874199 L 125.293664 42.988785 M 188.981168 0.874199 L 188.981168 42.988785 M 252.67388 0.874199 L 252.67388 42.988785 M 0.00199038 0.436699 L 253.106172 0.436699 M 0.00199038 43.426285 L 253.106172 43.426285 " transform="matrix(0.75,0,0,0.75,134.334445,99.344351)"/></g><g clip-rule="nonzero" clip-path="url(#d4f70ceac4)"><path style="fill-rule:nonzero;fill:#000000;fill-opacity:1;stroke-width:0.871773;stroke-linecap:butt;stroke-linejoin:miter;stroke:#000000;stroke-opacity:1;stroke-miterlimit:4;" d="M 0.434282 0.873427 L 0.434282 16.347386 M 63.585327 0.873427 L 63.585327 16.347386 M 124.694706 0.873427 L 124.694706 16.347386 M 188.949918 0.873427 L 188.949918 16.347386 M 252.67388 0.873427 L 252.67388 16.347386 M 0.00199038 0.435927 L 253.106172 0.435927 M 0.00199038 16.779678 L 253.106172 16.779678 " transform="matrix(0.75,0,0,0.75,134.334445,135.00118)"/></g><g style="fill:#000000;fill-opacity:1;"><g transform="translate(202.923566, 143.417878)"><path style="stroke:none" d="M 0.28125 0 L 0.28125 -0.765625 L 1.421875 -1.84375 C 1.765625 -2.175781 2.035156 -2.476562 2.234375 -2.75 C 2.429688 -3.03125 2.566406 -3.316406 2.640625 -3.609375 C 2.722656 -3.898438 2.765625 -4.234375 2.765625 -4.609375 C 2.765625 -5.046875 2.710938 -5.363281 2.609375 -5.5625 C 2.503906 -5.757812 2.328125 -5.859375 2.078125 -5.859375 C 1.890625 -5.859375 1.742188 -5.800781 1.640625 -5.6875 C 1.546875 -5.570312 1.476562 -5.378906 1.4375 -5.109375 C 1.394531 -4.847656 1.375 -4.484375 1.375 -4.015625 C 1.0625 -4.015625 0.804688 -4.078125 0.609375 -4.203125 C 0.410156 -4.328125 0.3125 -4.523438 0.3125 -4.796875 C 0.3125 -5.117188 0.460938 -5.390625 0.765625 -5.609375 C 1.078125 -5.828125 1.53125 -5.9375 2.125 -5.9375 C 2.738281 -5.9375 3.203125 -5.816406 3.515625 -5.578125 C 3.835938 -5.335938 4 -5 4 -4.5625 C 4 -4.375 3.960938 -4.191406 3.890625 -4.015625 C 3.828125 -3.835938 3.707031 -3.644531 3.53125 -3.4375 C 3.351562 -3.226562 3.113281 -2.988281 2.8125 -2.71875 C 2.519531 -2.457031 2.144531 -2.148438 1.6875 -1.796875 L 0.546875 -0.90625 L 3.3125 -0.90625 C 3.570312 -0.90625 3.757812 -0.941406 3.875 -1.015625 C 4 -1.097656 4.070312 -1.25 4.09375 -1.46875 L 4.125 -1.71875 L 4.203125 -1.71875 L 4.15625 0 Z M 0.28125 0 "/></g></g><g style="fill:#000000;fill-opacity:1;"><g transform="translate(251.140595, 143.417878)"><path style="stroke:none" d="M 1.984375 0.078125 C 1.378906 0.078125 0.9375 -0.0195312 0.65625 -0.21875 C 0.375 -0.414062 0.234375 -0.644531 0.234375 -0.90625 C 0.234375 -1.113281 0.300781 -1.269531 0.4375 -1.375 C 0.570312 -1.488281 0.734375 -1.546875 0.921875 -1.546875 C 0.921875 -1.140625 0.960938 -0.828125 1.046875 -0.609375 C 1.140625 -0.390625 1.257812 -0.234375 1.40625 -0.140625 C 1.5625 -0.046875 1.738281 0 1.9375 0 C 2.289062 0 2.546875 -0.132812 2.703125 -0.40625 C 2.859375 -0.675781 2.9375 -1.066406 2.9375 -1.578125 C 2.9375 -1.941406 2.894531 -2.222656 2.8125 -2.421875 C 2.726562 -2.628906 2.585938 -2.773438 2.390625 -2.859375 C 2.191406 -2.941406 1.9375 -2.984375 1.625 -2.984375 L 1.171875 -2.984375 L 1.171875 -3.0625 L 1.625 -3.0625 C 1.914062 -3.0625 2.140625 -3.109375 2.296875 -3.203125 C 2.460938 -3.296875 2.578125 -3.445312 2.640625 -3.65625 C 2.710938 -3.863281 2.75 -4.140625 2.75 -4.484375 C 2.75 -4.984375 2.6875 -5.335938 2.5625 -5.546875 C 2.445312 -5.753906 2.28125 -5.859375 2.0625 -5.859375 C 1.769531 -5.859375 1.578125 -5.707031 1.484375 -5.40625 C 1.398438 -5.113281 1.359375 -4.703125 1.359375 -4.171875 C 1.023438 -4.171875 0.765625 -4.226562 0.578125 -4.34375 C 0.390625 -4.457031 0.296875 -4.640625 0.296875 -4.890625 C 0.296875 -5.179688 0.445312 -5.425781 0.75 -5.625 C 1.0625 -5.832031 1.515625 -5.9375 2.109375 -5.9375 C 2.691406 -5.9375 3.148438 -5.816406 3.484375 -5.578125 C 3.828125 -5.347656 4 -5.007812 4 -4.5625 C 4 -4.332031 3.941406 -4.109375 3.828125 -3.890625 C 3.710938 -3.671875 3.519531 -3.484375 3.25 -3.328125 C 2.988281 -3.179688 2.628906 -3.085938 2.171875 -3.046875 C 2.828125 -3.046875 3.328125 -2.921875 3.671875 -2.671875 C 4.023438 -2.429688 4.203125 -2.0625 4.203125 -1.5625 C 4.203125 -1.164062 4.097656 -0.847656 3.890625 -0.609375 C 3.679688 -0.367188 3.40625 -0.191406 3.0625 -0.078125 C 2.726562 0.0234375 2.367188 0.078125 1.984375 0.078125 Z M 1.984375 0.078125 "/></g></g><g style="fill:#000000;fill-opacity:1;"><g transform="translate(155.022885, 143.417878)"><path style="stroke:none" d="M 0.796875 0 L 0.796875 -0.078125 L 1.46875 -0.078125 C 1.601562 -0.078125 1.703125 -0.113281 1.765625 -0.1875 C 1.835938 -0.269531 1.875 -0.410156 1.875 -0.609375 L 1.875 -5.21875 C 1.625 -4.863281 1.425781 -4.609375 1.28125 -4.453125 C 1.132812 -4.296875 0.988281 -4.21875 0.84375 -4.21875 C 0.695312 -4.21875 0.578125 -4.257812 0.484375 -4.34375 C 0.390625 -4.4375 0.34375 -4.578125 0.34375 -4.765625 C 0.613281 -4.773438 0.835938 -4.800781 1.015625 -4.84375 C 1.203125 -4.882812 1.375 -4.960938 1.53125 -5.078125 C 1.695312 -5.191406 1.894531 -5.363281 2.125 -5.59375 L 2.421875 -5.890625 L 3.09375 -5.890625 L 3.09375 -0.609375 C 3.09375 -0.441406 3.117188 -0.3125 3.171875 -0.21875 C 3.234375 -0.125 3.347656 -0.078125 3.515625 -0.078125 L 4.1875 -0.078125 L 4.1875 0 Z M 0.796875 0 "/></g></g><g style="fill:#000000;fill-opacity:1;"><g transform="translate(298.223982, 143.417878)"><path style="stroke:none" d="M 1.46875 0 L 1.46875 -0.078125 L 1.703125 -0.078125 C 1.890625 -0.078125 2.046875 -0.109375 2.171875 -0.171875 C 2.304688 -0.242188 2.375 -0.410156 2.375 -0.671875 L 2.375 -1.53125 L 0.109375 -1.53125 L 0.109375 -2.03125 L 2.4375 -5.859375 L 3.578125 -5.859375 L 3.578125 -2.0625 L 4.421875 -2.0625 L 4.421875 -1.53125 L 3.578125 -1.53125 L 3.578125 -0.671875 C 3.578125 -0.410156 3.640625 -0.242188 3.765625 -0.171875 C 3.898438 -0.109375 4.0625 -0.078125 4.25 -0.078125 L 4.359375 -0.078125 L 4.359375 0 Z M 0.234375 -2.0625 L 2.375 -2.0625 L 2.375 -3.875 C 2.375 -4.175781 2.375 -4.488281 2.375 -4.8125 C 2.375 -5.132812 2.378906 -5.414062 2.390625 -5.65625 C 2.359375 -5.601562 2.304688 -5.519531 2.234375 -5.40625 C 2.171875 -5.289062 2.097656 -5.164062 2.015625 -5.03125 C 1.941406 -4.894531 1.867188 -4.769531 1.796875 -4.65625 C 1.722656 -4.539062 1.664062 -4.445312 1.625 -4.375 Z M 0.234375 -2.0625 "/></g></g><g clip-rule="nonzero" clip-path="url(#002597c98b)"><path style=" stroke:none;fill-rule:nonzero;fill:#004aad;fill-opacity:1;" d="M 300.511719 128.5625 C 293.507812 128.5625 287.773438 122.828125 287.773438 115.824219 C 287.773438 108.816406 293.507812 103.085938 300.511719 103.085938 C 307.519531 103.085938 313.25 108.816406 313.25 115.824219 C 313.25 122.828125 307.519531 128.5625 300.511719 128.5625 Z M 300.511719 128.5625 "/></g><g clip-rule="nonzero" clip-path="url(#558d406849)"><path style=" stroke:none;fill-rule:nonzero;fill:#ff3131;fill-opacity:1;" d="M 205.214844 127.992188 C 198.5 127.992188 193.007812 122.5 193.007812 115.789062 C 193.007812 109.074219 198.5 103.582031 205.214844 103.582031 C 211.925781 103.582031 217.417969 109.074219 217.417969 115.789062 C 217.417969 122.5 211.925781 127.992188 205.214844 127.992188 Z M 205.214844 127.992188 "/></g><g clip-rule="nonzero" clip-path="url(#4c687931cd)"><path style=" stroke:none;fill-rule:nonzero;fill:#ff3131;fill-opacity:1;" d="M 241.695312 103.652344 L 266.421875 103.652344 L 266.421875 128 L 241.695312 128 Z M 241.695312 103.652344 "/></g><g clip-rule="nonzero" clip-path="url(#6a2b603700)"><path style=" stroke:none;fill-rule:nonzero;fill:#004aad;fill-opacity:1;" d="M 144.964844 104.152344 L 169.691406 104.152344 L 169.691406 128.5 L 144.964844 128.5 Z M 144.964844 104.152344 "/></g></g></svg>