<svg xmlns="http://www.w3.org/2000/svg" xmlns:xlink="http://www.w3.org/1999/xlink" width="600" zoomAndPan="magnify" viewBox="0 0 450 149.999998" height="200" preserveAspectRatio="xMidYMid meet" version="1.2"><defs><clipPath id="193f74bba0"><path d="M 133 65 L 317.585938 65 L 317.585938 135 L 133 135 Z M 133 65 "/></clipPath></defs><g id="6a4537835d"><rect x="0" width="450" y="0" height="149.999998" style="fill:#ffffff;fill-opacity:1;stroke:none;"/><rect x="0" width="450" y="0" height="149.999998" style="fill:#ffffff;fill-opacity:1;stroke:none;"/><path style=" stroke:none;fill-rule:nonzero;fill:#fff37c;fill-opacity:1;" d="M 187.425781 98.738281 C 188.09375 98.539062 188.878906 98.523438 189.574219 98.449219 C 190.585938 98.339844 191.597656 98.203125 192.609375 98.070312 C 195.40625 97.703125 198.207031 97.242188 200.964844 96.652344 C 206.265625 95.519531 211.648438 94.34375 216.796875 92.628906 C 218.574219 92.039062 218.757812 89.34375 216.980469 88.605469 C 215.90625 88.160156 214.855469 88.703125 213.808594 88.980469 C 211.359375 89.628906 208.933594 90.347656 206.476562 90.960938 C 200.375 92.488281 194.222656 93.492188 187.984375 94.265625 C 185.78125 94.542969 183.570312 94.914062 181.355469 95.089844 C 179.421875 95.246094 177.492188 95.535156 175.566406 95.742188 C 174.113281 95.894531 172.539062 95.949219 171.128906 96.34375 C 169.980469 96.664062 168.917969 97.9375 169.035156 99.160156 C 169.195312 100.808594 170.78125 101.105469 172.109375 101.40625 C 175.335938 102.136719 178.6875 102.242188 181.960938 102.628906 C 191.578125 103.765625 201.117188 102.847656 210.679688 101.6875 C 212.941406 101.414062 215.214844 101.027344 217.449219 100.578125 C 218.523438 100.363281 219.589844 100.234375 220.097656 99.113281 C 220.753906 97.648438 219.542969 95.972656 217.960938 96.078125 C 217.179688 96.132812 216.398438 96.375 215.628906 96.519531 C 214.28125 96.773438 212.921875 96.984375 211.566406 97.183594 C 208.226562 97.675781 204.867188 97.945312 201.527344 98.382812 C 196.851562 99 192.113281 98.777344 187.425781 98.738281 Z M 187.425781 98.738281 "/><path style=" stroke:none;fill-rule:nonzero;fill:#494949;fill-opacity:1;" d="M 282.550781 97.074219 L 282.503906 97.074219 C 282.214844 96.320312 281.550781 95.585938 281.089844 94.925781 C 280.238281 93.707031 279.425781 92.460938 278.582031 91.234375 C 275.824219 87.234375 273.113281 83.203125 270.378906 79.183594 C 269.425781 77.78125 268.457031 76.390625 267.515625 74.980469 C 267.242188 74.570312 266.652344 73.644531 266.105469 74.335938 C 265.722656 74.824219 266.289062 75.382812 266.550781 75.773438 C 267.351562 76.980469 268.152344 78.191406 268.988281 79.371094 C 271.121094 82.382812 273.128906 85.488281 275.222656 88.527344 C 276.558594 90.464844 278.089844 92.402344 279.234375 94.457031 C 274.867188 90.09375 270.253906 85.972656 265.835938 81.660156 C 264.800781 80.652344 263.726562 79.6875 262.707031 78.671875 C 262.367188 78.335938 261.742188 77.761719 261.34375 78.390625 C 260.976562 78.976562 261.789062 79.535156 262.144531 79.882812 C 263.339844 81.050781 264.535156 82.25 265.789062 83.355469 C 267.832031 85.160156 269.746094 87.152344 271.71875 89.039062 C 274.859375 92.042969 278.078125 94.980469 281.148438 98.054688 C 278.726562 97.730469 276.300781 97.011719 273.910156 96.488281 C 269.433594 95.503906 264.933594 94.605469 260.464844 93.578125 C 258.820312 93.199219 257.160156 92.882812 255.515625 92.503906 C 255.03125 92.390625 254.15625 92.015625 253.839844 92.589844 C 253.472656 93.257812 254.308594 93.484375 254.769531 93.582031 C 256.214844 93.890625 257.667969 94.195312 259.109375 94.523438 C 265.164062 95.890625 271.242188 97.222656 277.320312 98.476562 L 277.320312 98.523438 C 271.128906 98.523438 264.925781 98.429688 258.738281 98.429688 L 254.347656 98.429688 C 253.875 98.429688 253.039062 98.363281 253.097656 99.082031 C 253.160156 99.8125 254.125 99.644531 254.628906 99.644531 L 259.671875 99.644531 C 266.8125 99.644531 273.960938 99.738281 281.101562 99.738281 L 281.101562 99.785156 C 280.488281 100.019531 279.921875 100.554688 279.375 100.921875 C 278.054688 101.800781 276.757812 102.714844 275.453125 103.613281 C 271.414062 106.398438 267.386719 109.199219 263.3125 111.929688 C 261.902344 112.875 260.519531 113.859375 259.109375 114.808594 C 258.703125 115.085938 257.796875 115.703125 258.507812 116.222656 C 259 116.574219 259.558594 116.03125 259.949219 115.753906 C 261.117188 114.921875 262.3125 114.117188 263.5 113.316406 C 266.941406 110.992188 270.355469 108.632812 273.773438 106.273438 C 275.363281 105.179688 276.941406 103.902344 278.628906 102.960938 C 274.238281 107.351562 270.152344 112.042969 265.789062 116.460938 C 264.785156 117.476562 263.777344 118.519531 262.832031 119.589844 C 262.527344 119.9375 261.894531 120.597656 262.566406 120.984375 C 263.160156 121.320312 263.6875 120.519531 264.019531 120.148438 C 265.144531 118.90625 266.375 117.761719 267.480469 116.507812 C 269.664062 114.03125 272.050781 111.699219 274.332031 109.3125 C 276.921875 106.601562 279.429688 103.792969 282.082031 101.136719 C 282.015625 102.007812 281.730469 102.902344 281.542969 103.753906 C 281.238281 105.136719 280.960938 106.527344 280.65625 107.910156 C 279.65625 112.464844 278.6875 117.03125 277.742188 121.597656 C 277.398438 123.25 277.054688 124.902344 276.683594 126.550781 C 276.574219 127.023438 276.183594 127.953125 276.589844 128.359375 C 277.132812 128.898438 277.574219 128.179688 277.675781 127.71875 C 278.003906 126.207031 278.316406 124.695312 278.636719 123.1875 C 279.476562 119.230469 280.300781 115.269531 281.167969 111.320312 C 281.46875 109.953125 281.753906 108.582031 282.046875 107.210938 C 282.203125 106.476562 282.445312 105.71875 282.503906 104.96875 L 282.550781 104.96875 L 282.550781 127.949219 C 282.550781 128.417969 282.492188 129.242188 283.203125 129.183594 C 283.945312 129.117188 283.765625 128.128906 283.765625 127.625 L 283.765625 101.089844 L 283.8125 101.089844 C 284.183594 101.882812 284.808594 102.613281 285.304688 103.332031 C 286.175781 104.605469 287.035156 105.886719 287.902344 107.164062 C 290.570312 111.085938 293.160156 115.074219 295.910156 118.933594 C 296.894531 120.316406 297.824219 121.738281 298.777344 123.140625 C 299.054688 123.546875 299.582031 124.492188 300.175781 123.914062 C 300.65625 123.449219 300.113281 122.894531 299.84375 122.484375 C 299.039062 121.28125 298.242188 120.066406 297.40625 118.886719 C 295.441406 116.128906 293.582031 113.285156 291.679688 110.480469 C 290.148438 108.230469 288.507812 106.023438 287.078125 103.707031 C 289.40625 106.035156 291.84375 108.253906 294.222656 110.527344 C 296.296875 112.515625 298.332031 114.546875 300.433594 116.503906 C 301.5 117.496094 302.511719 118.5625 303.609375 119.515625 C 303.992188 119.851562 304.585938 120.460938 305.007812 119.773438 C 305.363281 119.199219 304.527344 118.644531 304.167969 118.320312 C 302.957031 117.222656 301.789062 116.058594 300.621094 114.917969 C 295.546875 109.96875 290.269531 105.21875 285.257812 100.203125 C 287.351562 100.476562 289.449219 101.109375 291.515625 101.550781 C 296.28125 102.5625 301.03125 103.652344 305.804688 104.640625 C 307.4375 104.980469 309.078125 105.335938 310.707031 105.710938 C 311.160156 105.816406 312.082031 106.191406 312.441406 105.746094 C 312.960938 105.101562 312.117188 104.78125 311.640625 104.671875 C 310.164062 104.339844 308.679688 104.050781 307.203125 103.714844 C 303.292969 102.8125 299.355469 102.027344 295.4375 101.164062 C 293.332031 100.703125 291.175781 100.058594 289.039062 99.785156 L 289.039062 99.738281 C 295.230469 99.738281 301.429688 99.753906 307.625 99.785156 C 309.070312 99.792969 310.519531 99.832031 311.964844 99.832031 C 312.4375 99.832031 313.304688 99.898438 313.246094 99.175781 C 313.179688 98.4375 312.191406 98.617188 311.6875 98.617188 L 306.644531 98.617188 C 299.457031 98.617188 292.261719 98.523438 285.070312 98.523438 L 285.070312 98.476562 C 285.71875 98.230469 286.316406 97.660156 286.894531 97.277344 C 288.257812 96.367188 289.609375 95.433594 290.953125 94.492188 C 294.941406 91.707031 298.953125 88.9375 303 86.238281 C 304.414062 85.296875 305.792969 84.300781 307.203125 83.355469 C 307.621094 83.078125 308.503906 82.546875 307.925781 81.957031 C 307.496094 81.519531 306.867188 82.0625 306.503906 82.320312 C 305.335938 83.152344 304.128906 83.933594 302.953125 84.757812 C 297.929688 88.269531 292.847656 91.710938 287.78125 95.160156 C 288.210938 94.546875 288.847656 94.019531 289.367188 93.476562 C 290.269531 92.53125 291.179688 91.585938 292.070312 90.628906 C 294.816406 87.679688 297.574219 84.730469 300.386719 81.847656 C 301.394531 80.816406 302.359375 79.738281 303.375 78.71875 C 303.703125 78.390625 304.320312 77.878906 303.988281 77.363281 C 303.511719 76.625 302.832031 77.464844 302.484375 77.828125 C 301.328125 79.039062 300.148438 80.230469 299.023438 81.472656 C 296.820312 83.910156 294.460938 86.214844 292.21875 88.621094 C 289.589844 91.445312 286.960938 94.296875 284.230469 97.027344 C 284.535156 94.78125 285.171875 92.515625 285.660156 90.300781 C 286.671875 85.683594 287.660156 81.058594 288.621094 76.429688 C 288.960938 74.777344 289.34375 73.132812 289.675781 71.476562 C 289.769531 71 290.152344 70.148438 289.683594 69.78125 C 289.105469 69.320312 288.742188 70.03125 288.640625 70.496094 C 288.316406 71.972656 287.996094 73.453125 287.695312 74.933594 C 286.84375 79.128906 285.90625 83.308594 285.015625 87.5 C 284.761719 88.683594 284.519531 89.867188 284.257812 91.050781 C 284.101562 91.765625 283.871094 92.511719 283.8125 93.246094 C 283.644531 92.6875 283.765625 91.957031 283.765625 91.375 L 283.765625 70.636719 C 283.765625 70.1875 283.925781 69.390625 283.480469 69.105469 C 282.648438 68.574219 282.550781 69.765625 282.550781 70.261719 L 282.550781 97.074219 M 167.265625 98.148438 L 167.21875 98.148438 C 166.929688 97.394531 166.265625 96.664062 165.804688 96 C 164.953125 94.78125 164.140625 93.535156 163.296875 92.308594 C 160.550781 88.324219 157.871094 84.292969 155.125 80.304688 C 154.152344 78.894531 153.183594 77.480469 152.230469 76.054688 C 151.957031 75.644531 151.367188 74.71875 150.824219 75.410156 C 150.4375 75.898438 151.003906 76.457031 151.265625 76.847656 C 152.066406 78.054688 152.867188 79.265625 153.703125 80.445312 C 155.835938 83.460938 157.84375 86.5625 159.9375 89.601562 C 161.273438 91.539062 162.804688 93.476562 163.949219 95.535156 C 159.582031 91.167969 154.96875 87.046875 150.550781 82.734375 C 149.515625 81.726562 148.441406 80.761719 147.421875 79.746094 C 147.082031 79.410156 146.457031 78.835938 146.058594 79.464844 C 145.691406 80.050781 146.503906 80.609375 146.859375 80.960938 C 148.054688 82.125 149.25 83.324219 150.503906 84.429688 C 152.550781 86.234375 154.460938 88.226562 156.433594 90.113281 C 159.574219 93.117188 162.792969 96.054688 165.863281 99.128906 C 163.441406 98.804688 161.015625 98.085938 158.628906 97.5625 C 154.148438 96.578125 149.648438 95.679688 145.179688 94.652344 C 143.535156 94.273438 141.875 93.957031 140.230469 93.578125 C 139.746094 93.464844 138.871094 93.089844 138.554688 93.664062 C 138.191406 94.332031 139.023438 94.558594 139.484375 94.65625 C 140.929688 94.964844 142.382812 95.269531 143.824219 95.597656 C 149.878906 96.964844 155.957031 98.296875 162.035156 99.550781 L 162.035156 99.597656 C 155.84375 99.597656 149.640625 99.503906 143.453125 99.503906 L 139.0625 99.503906 C 138.589844 99.503906 137.753906 99.4375 137.8125 100.15625 C 137.875 100.886719 138.839844 100.71875 139.34375 100.71875 L 144.386719 100.71875 C 151.527344 100.71875 158.675781 100.8125 165.816406 100.8125 L 165.816406 100.859375 C 165.207031 101.09375 164.636719 101.628906 164.089844 101.996094 C 162.769531 102.875 161.472656 103.789062 160.167969 104.6875 C 156.132812 107.472656 152.101562 110.273438 148.027344 113.003906 C 146.617188 113.949219 145.234375 114.933594 143.824219 115.882812 C 143.417969 116.160156 142.511719 116.777344 143.222656 117.296875 C 143.714844 117.648438 144.273438 117.105469 144.664062 116.828125 C 145.832031 115.996094 147.027344 115.191406 148.214844 114.390625 C 151.65625 112.070312 155.070312 109.707031 158.488281 107.351562 C 160.078125 106.253906 161.65625 104.976562 163.34375 104.035156 C 158.96875 108.410156 154.914062 113.101562 150.550781 117.488281 C 149.527344 118.515625 148.503906 119.578125 147.546875 120.664062 C 147.242188 121.007812 146.640625 121.609375 147.238281 122.03125 C 147.808594 122.433594 148.371094 121.640625 148.695312 121.269531 C 149.800781 120.015625 151.058594 118.890625 152.15625 117.628906 C 154.070312 115.425781 156.214844 113.410156 158.203125 111.273438 C 161.035156 108.234375 163.859375 105.152344 166.796875 102.214844 C 166.730469 103.082031 166.445312 103.976562 166.257812 104.828125 C 165.953125 106.210938 165.675781 107.601562 165.371094 108.984375 C 164.371094 113.539062 163.402344 118.105469 162.457031 122.671875 C 162.113281 124.324219 161.769531 125.976562 161.398438 127.625 C 161.289062 128.097656 160.898438 129.027344 161.304688 129.433594 C 161.847656 129.972656 162.289062 129.253906 162.390625 128.792969 C 162.71875 127.28125 163.03125 125.769531 163.351562 124.261719 C 164.195312 120.304688 165.015625 116.34375 165.882812 112.394531 C 166.183594 111.027344 166.46875 109.65625 166.761719 108.285156 C 166.917969 107.550781 167.160156 106.792969 167.21875 106.042969 L 167.265625 106.042969 L 167.265625 129.023438 C 167.265625 129.492188 167.207031 130.316406 167.917969 130.257812 C 168.660156 130.191406 168.480469 129.203125 168.480469 128.699219 L 168.480469 102.167969 L 168.527344 102.167969 C 168.898438 102.957031 169.523438 103.6875 170.019531 104.410156 C 170.890625 105.679688 171.75 106.964844 172.617188 108.238281 C 175.285156 112.160156 177.875 116.148438 180.625 120.007812 C 181.609375 121.390625 182.539062 122.8125 183.492188 124.214844 C 183.769531 124.621094 184.296875 125.566406 184.894531 124.988281 C 185.371094 124.523438 184.828125 123.96875 184.558594 123.558594 C 183.753906 122.355469 182.957031 121.140625 182.121094 119.964844 C 180.15625 117.203125 178.296875 114.359375 176.394531 111.554688 C 174.863281 109.304688 173.222656 107.097656 171.792969 104.78125 C 174.121094 107.109375 176.558594 109.328125 178.9375 111.605469 C 181.011719 113.589844 183.046875 115.621094 185.148438 117.578125 C 186.214844 118.570312 187.226562 119.636719 188.324219 120.589844 C 188.707031 120.925781 189.300781 121.535156 189.722656 120.847656 C 190.078125 120.273438 189.242188 119.71875 188.882812 119.394531 C 187.671875 118.296875 186.503906 117.132812 185.335938 115.992188 C 180.261719 111.042969 174.984375 106.292969 169.972656 101.277344 C 172.070312 101.550781 174.164062 102.183594 176.230469 102.625 C 180.996094 103.636719 185.746094 104.726562 190.519531 105.714844 C 192.15625 106.054688 193.792969 106.410156 195.421875 106.785156 C 195.875 106.890625 196.796875 107.265625 197.15625 106.820312 C 197.675781 106.175781 196.832031 105.855469 196.355469 105.746094 C 194.878906 105.414062 193.394531 105.125 191.917969 104.789062 C 188.007812 103.886719 184.070312 103.101562 180.152344 102.238281 C 178.046875 101.777344 175.894531 101.132812 173.753906 100.859375 L 173.753906 100.8125 C 179.945312 100.8125 186.144531 100.828125 192.339844 100.859375 C 193.785156 100.867188 195.234375 100.90625 196.683594 100.90625 C 197.152344 100.90625 198.019531 100.976562 197.960938 100.25 C 197.894531 99.511719 196.910156 99.691406 196.402344 99.691406 L 191.359375 99.691406 C 184.171875 99.691406 176.976562 99.597656 169.785156 99.597656 L 169.785156 99.550781 C 170.433594 99.304688 171.03125 98.734375 171.609375 98.351562 C 172.972656 97.441406 174.324219 96.507812 175.671875 95.566406 C 179.65625 92.78125 183.667969 90.011719 187.714844 87.3125 C 189.128906 86.371094 190.507812 85.375 191.917969 84.429688 C 192.335938 84.152344 193.21875 83.621094 192.640625 83.03125 C 192.210938 82.59375 191.582031 83.136719 191.21875 83.394531 C 190.050781 84.226562 188.847656 85.007812 187.671875 85.832031 C 182.644531 89.34375 177.5625 92.785156 172.496094 96.234375 C 172.925781 95.621094 173.5625 95.09375 174.082031 94.550781 C 174.984375 93.605469 175.894531 92.660156 176.785156 91.703125 C 179.53125 88.753906 182.289062 85.804688 185.101562 82.921875 C 186.109375 81.890625 187.074219 80.8125 188.089844 79.792969 C 188.417969 79.464844 189.035156 78.953125 188.703125 78.4375 C 188.226562 77.699219 187.546875 78.539062 187.203125 78.90625 C 186.042969 80.113281 184.863281 81.304688 183.738281 82.546875 C 181.535156 84.984375 179.175781 87.289062 176.933594 89.695312 C 174.304688 92.519531 171.675781 95.371094 168.945312 98.101562 C 169.25 95.855469 169.886719 93.589844 170.375 91.375 C 171.386719 86.757812 172.378906 82.132812 173.335938 77.503906 C 173.675781 75.851562 174.058594 74.207031 174.390625 72.550781 C 174.488281 72.074219 174.867188 71.222656 174.402344 70.855469 C 173.796875 70.375 173.445312 71.148438 173.34375 71.617188 C 173.03125 73.097656 172.707031 74.574219 172.402344 76.054688 C 171.535156 80.234375 170.617188 84.398438 169.730469 88.574219 C 169.480469 89.757812 169.234375 90.941406 168.972656 92.125 C 168.816406 92.839844 168.585938 93.585938 168.527344 94.320312 C 168.363281 93.761719 168.480469 93.03125 168.480469 92.449219 L 168.480469 71.757812 C 168.480469 71.300781 168.644531 70.46875 168.195312 70.179688 C 167.363281 69.652344 167.265625 70.839844 167.265625 71.335938 L 167.265625 98.148438 M 279.28125 94.457031 L 279.234375 94.503906 L 279.28125 94.457031 M 287.78125 95.160156 L 287.734375 95.207031 L 287.78125 95.160156 M 163.996094 95.535156 L 163.949219 95.578125 L 163.996094 95.535156 M 172.496094 96.234375 L 172.449219 96.28125 L 172.496094 96.234375 M 282.128906 101.09375 L 282.082031 101.136719 L 282.128906 101.09375 M 166.84375 102.167969 L 166.796875 102.214844 Z M 166.84375 102.167969 "/><g clip-rule="nonzero" clip-path="url(#193f74bba0)"><path style=" stroke:none;fill-rule:nonzero;fill:#b18743;fill-opacity:1;" d="M 168.089844 65.066406 C 166.910156 65.222656 165.6875 65.171875 164.496094 65.289062 C 162.820312 65.449219 161.171875 65.78125 159.546875 66.210938 C 150.828125 68.503906 143.335938 74.199219 138.683594 81.910156 C 132.304688 92.476562 132.359375 106.183594 138.460938 116.847656 C 141.699219 122.507812 146.714844 127.210938 152.496094 130.195312 C 158.851562 133.480469 166.121094 134.582031 173.179688 133.652344 C 183.851562 132.25 193.503906 125.460938 198.613281 116.007812 C 201.742188 110.222656 203.132812 103.585938 202.6875 97.042969 C 201.734375 83.164062 191.96875 70.808594 178.691406 66.679688 C 176.082031 65.871094 173.425781 65.371094 170.707031 65.183594 C 169.859375 65.125 168.933594 64.957031 168.089844 65.066406 M 282.488281 65.300781 C 281.304688 65.457031 280.082031 65.40625 278.894531 65.523438 C 277.21875 65.683594 275.570312 66.015625 273.945312 66.441406 C 265.226562 68.734375 257.734375 74.433594 253.082031 82.144531 C 246.703125 92.710938 246.753906 106.417969 252.859375 117.082031 C 256.09375 122.742188 261.113281 127.445312 266.894531 130.429688 C 273.25 133.710938 280.519531 134.8125 287.578125 133.886719 C 298.25 132.480469 307.898438 125.695312 313.011719 116.242188 C 316.136719 110.457031 317.53125 103.820312 317.082031 97.277344 C 316.132812 83.398438 306.367188 71.042969 293.085938 66.914062 C 290.480469 66.101562 287.824219 65.601562 285.101562 65.417969 C 284.257812 65.359375 283.332031 65.1875 282.488281 65.300781 M 167.949219 69.636719 C 168.835938 69.535156 169.824219 69.671875 170.707031 69.757812 C 172.949219 69.96875 175.128906 70.355469 177.289062 71.023438 C 184.890625 73.386719 191.566406 78.976562 195.066406 86.160156 C 197 90.128906 198.011719 94.375 198.207031 98.773438 C 198.863281 113.789062 186.796875 127.769531 171.824219 129.21875 C 165.765625 129.804688 159.625 128.867188 154.222656 125.941406 C 149.390625 123.328125 145.359375 119.457031 142.523438 114.746094 C 136.050781 103.992188 137.449219 89.621094 145.558594 80.132812 C 149.964844 74.980469 155.929688 71.597656 162.535156 70.195312 C 164.332031 69.8125 166.140625 69.851562 167.949219 69.636719 M 282.347656 69.871094 C 283.234375 69.765625 284.21875 69.90625 285.101562 69.992188 C 287.347656 70.203125 289.527344 70.585938 291.6875 71.257812 C 299.289062 73.621094 305.964844 79.210938 309.464844 86.394531 C 311.398438 90.363281 312.410156 94.609375 312.601562 99.003906 C 313.261719 114.023438 301.191406 128.003906 286.222656 129.453125 C 280.164062 130.039062 274.023438 129.097656 268.621094 126.175781 C 263.789062 123.5625 259.753906 119.691406 256.921875 114.980469 C 250.449219 104.226562 251.847656 89.851562 259.957031 80.367188 C 264.363281 75.210938 270.328125 71.832031 276.933594 70.429688 C 278.730469 70.046875 280.539062 70.085938 282.347656 69.871094 Z M 282.347656 69.871094 "/></g><path style=" stroke:none;fill-rule:nonzero;fill:#b1afaf;fill-opacity:1;" d="M 166.960938 68.667969 C 165.878906 68.808594 164.78125 68.839844 163.691406 68.988281 C 161.941406 69.222656 160.1875 69.667969 158.511719 70.21875 C 151.0625 72.671875 144.78125 78.070312 141.0625 84.949219 C 135.660156 94.9375 136.382812 107.695312 142.824219 117.039062 C 145.476562 120.890625 149.039062 124.105469 153.09375 126.421875 C 155.605469 127.855469 158.347656 128.957031 161.171875 129.585938 C 164.761719 130.382812 168.453125 130.632812 172.097656 130.152344 C 175.378906 129.71875 178.53125 128.882812 181.53125 127.464844 C 191.945312 122.542969 198.675781 112.035156 199.179688 100.597656 C 199.578125 91.472656 195.546875 82.488281 188.8125 76.410156 C 185.320312 73.253906 181.007812 71.003906 176.488281 69.75 C 174.308594 69.140625 172.105469 68.84375 169.855469 68.6875 C 168.925781 68.625 167.890625 68.542969 166.960938 68.667969 M 281.359375 68.898438 C 280.277344 69.042969 279.175781 69.074219 278.089844 69.21875 C 276.339844 69.457031 274.585938 69.902344 272.90625 70.453125 C 265.460938 72.90625 259.179688 78.304688 255.460938 85.183594 C 250.058594 95.171875 250.78125 107.929688 257.21875 117.273438 C 259.859375 121.101562 263.40625 124.332031 267.445312 126.628906 C 269.976562 128.066406 272.722656 129.183594 275.570312 129.816406 C 279.15625 130.613281 282.851562 130.863281 286.496094 130.386719 C 289.773438 129.953125 292.929688 129.117188 295.925781 127.699219 C 306.34375 122.777344 313.074219 112.269531 313.574219 100.832031 C 313.976562 91.707031 309.945312 82.722656 303.210938 76.640625 C 299.714844 73.484375 295.40625 71.238281 290.882812 69.980469 C 288.707031 69.375 286.503906 69.078125 284.253906 68.921875 C 283.324219 68.859375 282.289062 68.777344 281.359375 68.898438 M 166.726562 71.136719 C 167.351562 71.0625 168.015625 71.121094 168.644531 71.121094 C 170.96875 71.121094 173.304688 71.441406 175.554688 72.050781 C 179.738281 73.183594 183.667969 75.191406 186.945312 78.050781 C 193.460938 83.734375 197.082031 92.25 196.703125 100.878906 C 196.3125 109.820312 191.457031 118.386719 183.957031 123.28125 C 180.121094 125.785156 175.804688 127.289062 171.257812 127.773438 C 167.542969 128.171875 163.746094 127.808594 160.144531 126.78125 C 157.226562 125.949219 154.394531 124.53125 151.925781 122.769531 C 149.136719 120.78125 146.589844 118.273438 144.6875 115.402344 C 141.851562 111.121094 140.105469 105.976562 139.882812 100.832031 C 139.503906 92.222656 143.226562 83.566406 149.777344 77.960938 C 153.34375 74.910156 157.667969 72.761719 162.246094 71.75 C 163.730469 71.421875 165.226562 71.3125 166.726562 71.136719 M 281.125 71.371094 C 281.75 71.296875 282.414062 71.355469 283.039062 71.355469 C 285.367188 71.355469 287.703125 71.675781 289.949219 72.285156 C 294.132812 73.417969 298.066406 75.421875 301.34375 78.28125 C 307.859375 83.96875 311.476562 92.480469 311.101562 101.109375 C 310.710938 110.054688 305.851562 118.621094 298.355469 123.515625 C 294.519531 126.019531 290.203125 127.519531 285.65625 128.007812 C 281.941406 128.40625 278.140625 128.042969 274.542969 127.015625 C 271.601562 126.175781 268.765625 124.742188 266.277344 122.972656 C 263.503906 120.996094 260.972656 118.484375 259.085938 115.636719 C 256.25 111.355469 254.503906 106.210938 254.28125 101.0625 C 253.902344 92.457031 257.625 83.800781 264.175781 78.195312 C 267.742188 75.144531 272.066406 72.996094 276.644531 71.984375 C 278.128906 71.65625 279.625 71.546875 281.125 71.371094 Z M 281.125 71.371094 "/><path style=" stroke:none;fill-rule:nonzero;fill:#6e6e6e;fill-opacity:1;" d="M 282.992188 96.328125 C 282.574219 96.390625 282.175781 96.53125 281.828125 96.777344 C 279.761719 98.238281 281.027344 101.796875 283.601562 101.425781 C 284.058594 101.363281 284.484375 101.214844 284.859375 100.9375 C 286.929688 99.410156 285.558594 95.960938 282.992188 96.328125 Z M 282.992188 96.328125 "/><path style=" stroke:none;fill-rule:nonzero;fill:#b5b7bd;fill-opacity:1;" d="M 258.238281 18.339844 C 258.152344 18.507812 258.058594 18.667969 258.019531 18.855469 C 257.910156 19.359375 258.105469 19.871094 258.519531 20.179688 C 258.867188 20.441406 259.292969 20.605469 259.683594 20.792969 C 260.1875 21.03125 260.695312 21.289062 261.179688 21.5625 C 261.46875 21.726562 262.03125 21.886719 262.207031 22.179688 C 262.28125 22.308594 262.253906 22.496094 262.253906 22.636719 C 262.253906 22.746094 262.257812 22.863281 262.21875 22.964844 C 262.09375 23.292969 261.683594 23.515625 261.414062 23.71875 C 260.824219 24.160156 260.253906 24.628906 259.683594 25.09375 C 258.066406 26.425781 256.476562 27.8125 254.921875 29.214844 C 254.472656 29.625 254.046875 30.054688 253.613281 30.484375 C 253.265625 30.835938 252.886719 31.191406 252.675781 31.652344 C 252.402344 32.261719 252.53125 32.820312 252.707031 33.429688 C 252.921875 34.15625 253.210938 34.863281 253.472656 35.578125 C 254.597656 38.660156 255.707031 41.757812 256.742188 44.871094 C 256.910156 45.375 257.09375 45.871094 257.273438 46.367188 C 257.394531 46.710938 257.492188 47.097656 257.714844 47.390625 C 258.066406 47.859375 258.753906 47.980469 259.265625 47.730469 C 259.742188 47.5 260.011719 46.984375 259.957031 46.460938 C 259.925781 46.167969 259.78125 45.894531 259.683594 45.621094 C 259.476562 45.011719 259.25 44.40625 259.046875 43.796875 C 258.160156 41.136719 257.179688 38.507812 256.261719 35.855469 C 256.011719 35.136719 255.742188 34.421875 255.472656 33.707031 C 255.367188 33.429688 255.125 32.980469 255.140625 32.679688 C 255.15625 32.367188 255.695312 32 255.902344 31.792969 C 256.703125 30.992188 257.566406 30.257812 258.425781 29.523438 C 259.757812 28.386719 261.074219 27.234375 262.441406 26.140625 C 263.191406 25.539062 264.128906 25.007812 264.519531 24.085938 C 264.75 23.554688 264.773438 22.972656 264.773438 22.402344 C 264.773438 21.359375 264.625 20.300781 264.417969 19.273438 C 264.359375 18.976562 264.285156 18.679688 264.199219 18.386719 C 263.835938 17.117188 263.289062 15.160156 261.644531 15.210938 C 260.804688 15.238281 259.9375 15.5625 259.125 15.765625 C 258.699219 15.871094 258.214844 15.933594 257.867188 16.214844 C 257.160156 16.789062 257.359375 18.058594 258.238281 18.339844 M 261.738281 18.996094 L 260.574219 18.421875 L 260.058594 18.105469 L 260.851562 17.925781 L 261.261719 17.863281 L 261.472656 18.152344 L 261.738281 18.996094 M 198.144531 45.6875 C 197.527344 45.78125 197.042969 46.285156 197.039062 46.925781 C 197.039062 47.242188 197.179688 47.523438 197.269531 47.816406 C 197.453125 48.421875 197.648438 49.027344 197.824219 49.636719 C 198.976562 53.648438 200.261719 57.628906 201.695312 61.546875 C 201.96875 62.296875 202.238281 63.050781 202.53125 63.789062 C 202.675781 64.144531 202.789062 64.542969 203.003906 64.863281 C 203.277344 65.269531 203.777344 65.492188 204.261719 65.410156 C 204.976562 65.289062 205.339844 64.65625 205.285156 63.976562 C 205.261719 63.695312 205.109375 63.441406 205.011719 63.183594 C 204.804688 62.652344 204.601562 62.125 204.402344 61.59375 C 202.9375 57.664062 201.632812 53.664062 200.457031 49.636719 C 200.234375 48.871094 200.007812 48.105469 199.761719 47.347656 C 199.652344 47.003906 199.578125 46.636719 199.402344 46.320312 C 199.164062 45.886719 198.636719 45.609375 198.144531 45.6875 Z M 198.144531 45.6875 "/><path style=" stroke:none;fill-rule:nonzero;fill:#fff37b;fill-opacity:1;" d="M 214.046875 85.753906 C 213.636719 83.972656 212.855469 82.191406 212.230469 80.476562 C 210.6875 76.257812 208.953125 72.105469 207.480469 67.863281 C 207.199219 67.054688 206.925781 66.25 206.671875 65.433594 C 206.523438 64.953125 206.425781 64.414062 206.152344 63.984375 C 205.625 63.164062 204.617188 62.820312 203.683594 63.074219 C 203.394531 63.152344 203.117188 63.316406 202.890625 63.511719 C 201.917969 64.347656 202.132812 65.476562 202.46875 66.554688 C 202.5625 66.855469 202.863281 67.410156 202.796875 67.722656 C 202.722656 68.101562 201.960938 68.53125 201.675781 68.769531 C 200.597656 69.667969 199.5 70.539062 198.40625 71.414062 L 197.472656 72.160156 C 197.363281 72.246094 197.207031 72.425781 197.050781 72.40625 C 196.871094 72.382812 196.703125 72.140625 196.585938 72.019531 C 196.238281 71.671875 195.875 71.328125 195.511719 71 C 194.207031 69.820312 192.832031 68.75 191.402344 67.730469 C 187.636719 65.042969 183.265625 63.175781 178.792969 62.042969 C 171.410156 60.171875 163.445312 60.574219 156.289062 63.1875 C 154.214844 63.949219 152.046875 64.828125 150.171875 66.007812 C 148.382812 67.136719 146.636719 68.261719 144.988281 69.589844 C 144.363281 70.097656 143.457031 70.628906 143.363281 71.507812 C 143.242188 72.621094 144.449219 73.464844 145.457031 72.953125 C 146.433594 72.457031 147.277344 71.453125 148.164062 70.800781 C 150 69.445312 151.972656 68.238281 154.046875 67.289062 C 156.449219 66.183594 158.886719 65.261719 161.472656 64.671875 C 169.914062 62.734375 178.886719 64 186.5 68.128906 C 188.6875 69.316406 190.707031 70.75 192.617188 72.34375 C 193.132812 72.773438 193.632812 73.226562 194.109375 73.703125 C 194.269531 73.863281 194.570312 74.0625 194.667969 74.265625 C 194.738281 74.417969 194.484375 74.5625 194.390625 74.636719 L 193.222656 75.570312 L 188.226562 79.578125 C 182.71875 83.992188 177.339844 88.613281 172.164062 93.410156 C 171 94.488281 169.832031 95.558594 168.710938 96.683594 C 168.105469 97.285156 167.472656 97.847656 167.726562 98.785156 C 167.96875 99.679688 169.113281 100.074219 169.875 99.574219 C 170.453125 99.195312 170.917969 98.566406 171.414062 98.089844 C 172.53125 97.015625 173.660156 95.941406 174.824219 94.929688 C 180.242188 90.222656 185.5625 85.4375 191.167969 80.949219 L 195.277344 77.664062 L 196.304688 76.839844 C 196.414062 76.753906 196.570312 76.578125 196.722656 76.59375 C 196.960938 76.617188 197.21875 77.082031 197.359375 77.25 C 197.914062 77.949219 198.425781 78.671875 198.9375 79.398438 C 201.140625 82.515625 202.75 86.109375 203.796875 89.769531 C 204.035156 90.613281 204.09375 91.777344 204.546875 92.527344 C 204.984375 93.253906 206 93.402344 206.671875 92.910156 C 207.488281 92.308594 207.167969 91.332031 206.980469 90.515625 C 206.507812 88.460938 205.835938 86.433594 205.007812 84.492188 C 203.894531 81.878906 202.515625 79.378906 200.867188 77.066406 C 200.433594 76.460938 199.980469 75.871094 199.515625 75.289062 C 199.402344 75.148438 199.054688 74.84375 199.113281 74.640625 C 199.234375 74.257812 200.101562 73.792969 200.414062 73.542969 C 201.582031 72.605469 202.71875 71.613281 203.914062 70.710938 C 204.109375 71.554688 204.523438 72.378906 204.828125 73.1875 C 205.570312 75.152344 206.363281 77.101562 207.089844 79.074219 C 208.996094 84.277344 210.769531 89.519531 212.414062 94.816406 C 212.980469 96.644531 213.550781 98.480469 214.074219 100.328125 C 214.351562 101.300781 214.570312 102.339844 215.636719 102.746094 C 216.179688 102.953125 216.625 102.855469 217.175781 102.785156 C 217.570312 102.730469 217.949219 102.847656 218.34375 102.734375 C 219.226562 102.488281 220.011719 101.695312 220.726562 101.140625 C 223.542969 98.957031 226.273438 96.683594 228.988281 94.367188 C 238.636719 86.144531 247.757812 77.410156 256.25 68.003906 C 257.722656 66.371094 259.183594 64.71875 260.5625 63.003906 C 261.328125 62.058594 262.007812 61.03125 262.796875 60.109375 C 263.277344 62.199219 264.328125 64.191406 264.988281 66.226562 C 264.226562 66.554688 263.535156 67.066406 262.84375 67.519531 C 261.296875 68.527344 259.828125 69.664062 258.453125 70.890625 C 252.597656 76.121094 248.574219 82.941406 246.585938 90.515625 C 246.183594 92.050781 245.992188 93.667969 245.765625 95.234375 C 245.171875 99.351562 245.558594 103.496094 246.292969 107.566406 C 246.519531 108.820312 246.808594 111.628906 248.742188 110.972656 C 250.398438 110.40625 249.375 108.308594 249.152344 107.148438 C 248.382812 103.15625 248.113281 99.125 248.707031 95.09375 C 249.898438 87.007812 253.542969 79.570312 259.480469 73.890625 C 261.476562 71.980469 263.714844 70.375 266.0625 68.9375 C 266.296875 69.917969 266.820312 70.902344 267.210938 71.832031 C 267.953125 73.601562 268.703125 75.359375 269.480469 77.113281 C 272.179688 83.222656 275.226562 89.21875 278.40625 95.09375 C 279.125 96.425781 279.828125 97.769531 280.605469 99.066406 C 280.953125 99.648438 281.273438 100.359375 281.800781 100.800781 C 282.910156 101.730469 284.640625 101.335938 285.214844 100 C 285.71875 98.824219 284.972656 97.886719 284.394531 96.917969 C 283.265625 95.007812 282.261719 93.027344 281.207031 91.078125 C 278.238281 85.585938 275.4375 79.945312 272.953125 74.214844 C 272.226562 72.539062 271.496094 70.867188 270.816406 69.171875 C 270.523438 68.4375 270.148438 67.691406 269.9375 66.929688 C 270.371094 66.855469 270.792969 66.609375 271.199219 66.453125 C 271.921875 66.171875 272.65625 65.925781 273.394531 65.683594 C 275.160156 65.097656 276.980469 64.742188 278.8125 64.433594 C 279.75 64.277344 280.882812 64.136719 280.910156 62.910156 C 280.945312 61.183594 279.050781 61.425781 277.925781 61.640625 C 274.921875 62.214844 271.640625 62.8125 268.910156 64.265625 C 266.898438 59.042969 265.296875 53.65625 263.167969 48.476562 C 262.9375 47.914062 262.613281 47.335938 262.453125 46.75 C 262.339844 46.347656 262.371094 45.96875 262.175781 45.582031 C 262.007812 45.25 261.734375 45.035156 261.515625 44.742188 C 261.0625 44.132812 260.644531 43.671875 259.855469 43.546875 C 258.804688 43.382812 257.71875 44.082031 257.457031 45.113281 C 257.359375 45.503906 257.359375 45.890625 257.457031 46.28125 C 257.515625 46.511719 257.699219 46.742188 257.632812 46.984375 C 257.53125 47.355469 257.261719 47.722656 257.070312 48.058594 C 256.625 48.835938 256.136719 49.589844 255.652344 50.347656 C 253.960938 53.019531 252.042969 55.582031 250.066406 58.054688 C 244.402344 65.140625 237.949219 71.90625 230.484375 77.125 C 228.101562 78.792969 225.570312 80.226562 223.011719 81.609375 C 220.136719 83.167969 217.152344 84.703125 214.046875 85.753906 M 259.855469 51.886719 C 260.105469 52.660156 260.410156 53.414062 260.679688 54.175781 C 260.765625 54.421875 261.027344 54.847656 260.976562 55.109375 C 260.925781 55.386719 260.519531 55.714844 260.355469 55.953125 C 259.855469 56.664062 259.390625 57.394531 258.886719 58.101562 C 256.792969 61.027344 254.320312 63.734375 251.875 66.367188 C 248.726562 69.753906 245.601562 73.171875 242.296875 76.410156 C 238.050781 80.574219 233.636719 84.539062 229.175781 88.46875 C 226.855469 90.515625 224.503906 92.527344 222.125 94.507812 C 220.765625 95.640625 219.382812 96.914062 217.875 97.851562 L 217.082031 95.28125 L 215.402344 89.863281 C 218.582031 88.828125 221.664062 87.261719 224.601562 85.675781 C 227.523438 84.09375 230.429688 82.472656 233.144531 80.546875 C 239.34375 76.160156 244.890625 70.753906 249.894531 65.058594 C 252.421875 62.183594 254.742188 59.136719 257 56.046875 C 257.65625 55.144531 258.285156 54.21875 258.90625 53.289062 C 259.207031 52.835938 259.476562 52.28125 259.855469 51.886719 Z M 259.855469 51.886719 "/><path style=" stroke:none;fill-rule:nonzero;fill:#e3c193;fill-opacity:1;" d="M 247.992188 19.933594 C 246.902344 20.417969 245.714844 20.75 244.582031 21.132812 C 243.84375 21.382812 242.957031 21.570312 242.507812 22.269531 C 241.753906 23.429688 242.390625 25.238281 243.882812 25.347656 C 244.539062 25.394531 245.09375 25.160156 245.703125 24.945312 C 246.574219 24.644531 247.445312 24.339844 248.316406 24.042969 C 250.515625 23.292969 252.707031 22.53125 254.902344 21.769531 C 255.902344 21.421875 256.949219 21.152344 257.9375 20.769531 C 258.929688 20.386719 259.367188 19.222656 259.023438 18.25 C 258.945312 18.027344 258.832031 17.820312 258.675781 17.644531 C 258.542969 17.492188 258.390625 17.351562 258.214844 17.246094 C 257.242188 16.644531 256.332031 17.269531 255.320312 17.269531 C 254.375 17.269531 253.417969 17.367188 252.472656 17.410156 C 250.832031 17.480469 249.167969 17.410156 247.523438 17.410156 C 246.585938 17.410156 245.609375 17.492188 244.675781 17.398438 C 243.996094 17.328125 243.304688 17.363281 242.621094 17.363281 C 242.230469 17.363281 241.785156 17.304688 241.40625 17.40625 C 241.019531 17.511719 240.683594 17.820312 240.554688 18.203125 C 240.300781 18.972656 240.792969 19.757812 241.59375 19.871094 C 242.359375 19.980469 243.203125 19.886719 243.976562 19.886719 C 245.316406 19.886719 246.648438 19.933594 247.992188 19.933594 M 184.019531 39.242188 C 183.632812 39.296875 183.238281 39.308594 182.855469 39.394531 C 181.480469 39.703125 179.734375 40.671875 179.507812 42.214844 C 179.449219 42.589844 179.453125 43.066406 179.574219 43.429688 C 179.648438 43.652344 179.796875 43.851562 179.847656 44.082031 C 179.886719 44.265625 179.855469 44.457031 179.886719 44.640625 C 179.957031 45.09375 180.175781 45.519531 180.523438 45.820312 C 180.859375 46.109375 181.28125 46.265625 181.6875 46.4375 C 182.265625 46.683594 182.835938 46.9375 183.414062 47.183594 C 186.300781 48.421875 189.398438 49.332031 192.566406 48.925781 C 193.949219 48.75 195.226562 48.183594 196.488281 47.625 C 198.042969 46.9375 199.597656 46.21875 201.25 45.804688 C 202.125 45.585938 203.011719 45.410156 203.914062 45.347656 C 204.453125 45.308594 205.003906 45.34375 205.546875 45.34375 C 206.46875 45.34375 207.445312 45.515625 208.347656 45.261719 C 209.582031 44.914062 210.136719 43.667969 209.808594 42.492188 C 209.59375 41.730469 208.933594 41.175781 208.253906 40.824219 C 206.957031 40.152344 205.398438 39.894531 203.960938 39.78125 C 200.621094 39.511719 197.265625 39.777344 193.921875 39.546875 C 191.835938 39.402344 189.75 39.359375 187.664062 39.269531 C 186.871094 39.234375 186.078125 39.222656 185.28125 39.222656 C 184.867188 39.222656 184.433594 39.1875 184.019531 39.242188 Z M 184.019531 39.242188 "/><path style=" stroke:none;fill-rule:nonzero;fill:#020202;fill-opacity:1;" d="M 168.949219 101.792969 C 168.503906 101.917969 168.382812 102.515625 168.726562 102.820312 C 168.886719 102.964844 169.117188 102.984375 169.320312 103.027344 C 169.679688 103.101562 170.039062 103.179688 170.394531 103.265625 C 173.082031 103.902344 175.78125 104.480469 178.472656 105.097656 C 182.636719 106.054688 186.835938 106.894531 191.035156 107.679688 C 196.027344 108.617188 201.085938 109.484375 206.164062 109.707031 C 208.75 109.820312 211.320312 109.988281 213.914062 109.988281 C 214.597656 109.988281 215.285156 109.96875 215.96875 109.902344 C 216.226562 109.875 216.542969 109.90625 216.757812 109.734375 C 217.195312 109.375 216.945312 108.675781 216.386719 108.660156 C 215.679688 108.636719 214.957031 108.773438 214.242188 108.773438 C 211.804688 108.773438 209.382812 108.710938 206.957031 108.542969 C 204.507812 108.375 202.0625 108.191406 199.625 107.871094 C 193.085938 107.011719 186.59375 105.644531 180.15625 104.222656 C 177.539062 103.644531 174.914062 103.09375 172.308594 102.460938 C 171.535156 102.273438 170.757812 102.082031 169.976562 101.925781 C 169.660156 101.859375 169.269531 101.699219 168.949219 101.792969 Z M 168.949219 101.792969 "/><path style=" stroke:none;fill-rule:nonzero;fill:#b5b7bd;fill-opacity:1;" d="M 214.640625 92.183594 C 213.054688 92.394531 211.578125 92.914062 210.25 93.816406 C 209.34375 94.429688 208.53125 95.238281 207.902344 96.136719 C 205.601562 99.414062 205.597656 103.863281 207.871094 107.160156 C 208.375 107.890625 209 108.539062 209.691406 109.097656 C 210.710938 109.929688 211.882812 110.496094 213.144531 110.855469 C 214.214844 111.160156 215.445312 111.296875 216.554688 111.164062 C 218.167969 110.96875 219.683594 110.492188 221.035156 109.570312 C 221.945312 108.953125 222.753906 108.195312 223.398438 107.300781 C 224.5625 105.675781 225.238281 103.652344 225.238281 101.648438 C 225.238281 98.953125 224 96.234375 221.96875 94.46875 C 220.875 93.511719 219.578125 92.859375 218.1875 92.472656 C 217.070312 92.160156 215.796875 92.03125 214.640625 92.183594 M 215.152344 94.652344 C 215.972656 94.558594 216.839844 94.695312 217.628906 94.921875 C 218.59375 95.199219 219.464844 95.65625 220.242188 96.296875 C 222.679688 98.304688 223.351562 101.914062 222.023438 104.730469 C 221.476562 105.882812 220.597656 106.847656 219.542969 107.546875 C 218.609375 108.167969 217.566406 108.507812 216.460938 108.640625 C 215.570312 108.746094 214.558594 108.675781 213.707031 108.402344 C 212.410156 107.992188 211.257812 107.304688 210.355469 106.269531 C 208.347656 103.960938 208.136719 100.492188 209.738281 97.910156 C 210.242188 97.101562 210.921875 96.417969 211.699219 95.875 C 212.726562 95.152344 213.917969 94.800781 215.152344 94.652344 M 215.105469 95.6875 C 214.023438 95.832031 212.957031 96.167969 212.070312 96.832031 C 209.210938 98.972656 208.707031 103.363281 211.238281 105.988281 C 212.054688 106.832031 213.050781 107.371094 214.171875 107.667969 C 214.867188 107.851562 215.601562 107.933594 216.320312 107.847656 C 217.34375 107.71875 218.316406 107.375 219.167969 106.800781 C 222.261719 104.714844 222.640625 100.089844 220.035156 97.464844 C 219.234375 96.65625 218.257812 96.136719 217.160156 95.859375 C 216.488281 95.691406 215.800781 95.59375 215.105469 95.6875 M 166.871094 96.390625 C 166.460938 96.453125 166.058594 96.621094 165.703125 96.839844 C 165.367188 97.050781 165.050781 97.351562 164.820312 97.675781 C 163.554688 99.46875 164.523438 102.125 166.6875 102.609375 C 167.070312 102.695312 167.511719 102.714844 167.898438 102.652344 C 168.347656 102.582031 168.777344 102.421875 169.160156 102.175781 C 169.511719 101.945312 169.796875 101.664062 170.039062 101.320312 C 170.902344 100.082031 170.730469 98.257812 169.625 97.21875 C 168.894531 96.527344 167.863281 96.234375 166.871094 96.390625 M 215.199219 98.203125 C 215.667969 98.144531 216.152344 98.183594 216.601562 98.3125 C 217.226562 98.488281 217.765625 98.75 218.234375 99.21875 C 219.824219 100.8125 219.511719 103.523438 217.675781 104.773438 C 217.214844 105.089844 216.636719 105.261719 216.085938 105.335938 C 215.640625 105.398438 215.164062 105.339844 214.734375 105.214844 C 214.070312 105.027344 213.5 104.71875 213.027344 104.207031 C 211.507812 102.582031 211.929688 99.863281 213.796875 98.707031 C 214.21875 98.449219 214.710938 98.265625 215.199219 98.203125 Z M 215.199219 98.203125 "/><path style=" stroke:none;fill-rule:nonzero;fill:#020202;fill-opacity:1;" d="M 230.148438 103.015625 C 229.820312 104.132812 230.953125 105.074219 232.015625 104.734375 C 232.511719 104.574219 232.851562 104.074219 233.230469 103.742188 C 233.640625 103.386719 234.007812 102.976562 234.398438 102.59375 C 234.734375 102.265625 235.082031 101.941406 235.425781 101.617188 C 236.050781 101.035156 236.6875 100.386719 236.28125 99.464844 C 236.191406 99.265625 236.058594 99.085938 235.886719 98.945312 C 235.75 98.832031 235.59375 98.746094 235.425781 98.6875 C 235.285156 98.640625 235.152344 98.625 235.003906 98.625 C 233.933594 98.617188 233.613281 99.65625 232.765625 100.070312 C 232.429688 100.234375 231.824219 100.121094 231.457031 100.121094 L 216.746094 100.121094 C 216.183594 100.121094 215.519531 100.023438 214.972656 100.1875 C 213.765625 100.546875 213.609375 102.289062 214.738281 102.859375 C 215.207031 103.09375 215.777344 103.015625 216.28125 103.015625 L 230.148438 103.015625 "/><path style=" stroke:none;fill-rule:nonzero;fill:#b5b7bd;fill-opacity:1;" d="M 261.789062 37.683594 L 258.921875 37.683594 C 258.460938 37.683594 257.902344 37.597656 257.464844 37.746094 C 256.679688 38.007812 256.382812 39.054688 256.925781 39.6875 C 257.359375 40.183594 257.957031 40.140625 258.554688 40.140625 L 261.878906 40.140625 C 261.886719 41.113281 262.023438 42.085938 262.09375 43.054688 C 262.109375 43.316406 261.996094 43.5625 262.023438 43.832031 C 262.058594 44.132812 262.222656 44.394531 262.269531 44.695312 C 262.464844 45.941406 262.617188 47.191406 262.863281 48.429688 C 263.136719 49.792969 263.390625 51.296875 264.3125 52.390625 C 265.046875 53.261719 266.105469 53.722656 267.207031 53.921875 C 267.613281 53.996094 268.027344 54.003906 268.433594 54.058594 C 269.160156 54.152344 269.933594 54.121094 270.664062 54.121094 C 272.046875 54.121094 273.429688 54.089844 274.808594 54.125 C 277.621094 54.191406 280.917969 54.960938 283.183594 52.796875 C 284.691406 51.355469 285.273438 49.121094 285.707031 47.15625 C 286.234375 44.769531 286.453125 42.292969 286.742188 39.867188 C 286.964844 38.015625 287.160156 36.171875 287.285156 34.3125 C 287.339844 33.527344 287.410156 32.734375 287.371094 31.945312 C 287.34375 31.398438 286.863281 30.839844 286.324219 30.730469 C 285.953125 30.65625 285.519531 30.714844 285.140625 30.714844 L 263.382812 30.714844 C 262.855469 30.714844 262.371094 30.683594 262 31.128906 C 261.574219 31.644531 261.789062 32.421875 261.789062 33.039062 C 261.789062 33.417969 261.742188 33.792969 261.742188 34.175781 C 261.742188 35.34375 261.789062 36.511719 261.789062 37.683594 M 266.886719 33.128906 L 266.9375 35.449219 L 266.976562 37.226562 L 265.792969 37.183594 L 264.246094 37.136719 L 264.203125 34.175781 L 264.203125 33.449219 L 264.273438 33.175781 L 264.976562 33.128906 L 266.886719 33.128906 M 273.441406 33.128906 L 273.578125 36.316406 L 273.597656 37.046875 L 273.550781 37.363281 L 273.214844 37.394531 L 272.488281 37.363281 L 269.4375 37.273438 L 269.34375 33.128906 L 273.441406 33.128906 M 279.632812 37.546875 L 276.039062 37.453125 L 275.992188 34.722656 L 275.902344 33.128906 L 278.449219 33.128906 L 279.378906 33.175781 L 279.488281 33.492188 L 279.542969 34.3125 L 279.632812 37.546875 M 284.550781 37.636719 L 282.09375 37.589844 L 282 34.265625 L 281.910156 33.128906 L 284.050781 33.128906 L 284.839844 33.175781 L 284.878906 33.539062 L 284.835938 34.359375 L 284.769531 35.449219 L 284.550781 37.636719 M 267.070312 39.640625 L 267.113281 42.375 L 265.15625 42.417969 L 264.519531 42.390625 L 264.425781 41.554688 L 264.34375 40.460938 L 264.292969 39.640625 L 265.476562 39.636719 L 267.070312 39.640625 M 273.625 39.824219 L 273.671875 42.28125 L 269.574219 42.328125 L 269.527344 39.730469 L 273.625 39.824219 M 279.632812 40.003906 L 279.589844 42.328125 L 276.128906 42.28125 L 276.082031 39.914062 L 279.632812 40.003906 M 283.957031 42.554688 L 282 42.464844 L 282.09375 40.050781 L 283.640625 40.050781 L 284.183594 40.125 L 284.160156 40.78125 L 283.957031 42.554688 M 279.40625 44.789062 L 279.226562 46.789062 L 279.105469 47.472656 L 278.40625 47.546875 L 277.449219 47.566406 L 276.039062 47.609375 L 276.082031 45.46875 L 276.15625 44.742188 L 276.449219 44.695312 L 277.175781 44.726562 L 278.542969 44.742188 L 279.40625 44.785156 M 273.671875 44.742188 L 273.578125 47.65625 L 269.617188 47.65625 L 269.617188 45.605469 L 269.621094 44.859375 L 269.890625 44.789062 L 270.664062 44.789062 L 273.671875 44.742188 M 267.160156 44.832031 L 267.160156 47.609375 L 265.703125 47.546875 L 265.230469 47.472656 L 265.046875 46.789062 L 264.792969 44.878906 L 267.160156 44.832031 M 283.59375 44.878906 L 283.140625 47.429688 C 282.675781 47.3125 282.105469 47.339844 281.636719 47.429688 L 281.863281 44.921875 L 283.59375 44.878906 M 282.273438 49.84375 C 282.039062 50.402344 281.648438 50.960938 281.136719 51.300781 L 281.316406 49.886719 L 282.273438 49.84375 M 278.8125 49.980469 L 278.585938 51.847656 L 275.855469 51.710938 L 275.945312 50.070312 L 278.8125 49.980469 M 267.160156 50.070312 L 267.160156 51.390625 C 266.507812 51.234375 265.914062 50.703125 265.792969 50.023438 L 267.160156 50.070312 M 273.441406 51.664062 L 269.617188 51.664062 L 269.574219 50.570312 L 269.621094 50.144531 L 270.390625 50.070312 L 272.625 50.070312 L 273.441406 50.144531 L 273.484375 50.570312 Z M 273.441406 51.664062 "/><path style=" stroke:none;fill-rule:nonzero;fill:#ffffff;fill-opacity:1;" d="M 262.507812 23.746094 C 262.230469 23.8125 262.007812 24.019531 261.78125 24.183594 C 261.339844 24.496094 260.894531 24.796875 260.460938 25.117188 C 259.148438 26.085938 257.933594 27.164062 256.773438 28.300781 C 256.289062 28.773438 255.707031 29.203125 255.316406 29.757812 C 255.546875 29.765625 255.71875 29.582031 255.90625 29.453125 L 257.136719 28.605469 C 258.585938 27.605469 259.988281 26.496094 261.234375 25.25 C 261.546875 24.9375 261.859375 24.628906 262.148438 24.292969 C 262.296875 24.121094 262.449219 23.96875 262.507812 23.746094 Z M 254.996094 34.175781 C 255.09375 36.421875 255.855469 38.644531 256.738281 40.6875 C 256.945312 41.164062 257.167969 41.636719 257.398438 42.101562 C 257.496094 42.292969 257.554688 42.53125 257.773438 42.601562 C 257.117188 39.734375 256.191406 36.917969 255.132812 34.175781 Z M 201.234375 48.019531 C 201.242188 48.460938 201.351562 48.910156 201.433594 49.339844 C 201.554688 50 201.6875 50.652344 201.863281 51.300781 C 202.398438 53.277344 203.0625 55.238281 203.855469 57.128906 C 204.121094 57.769531 204.394531 58.40625 204.671875 59.042969 C 204.785156 59.300781 204.898438 59.714844 205.148438 59.859375 L 204.894531 58.949219 L 204.316406 56.945312 L 202.613281 51.527344 L 201.746094 49.113281 L 201.367188 48.019531 Z M 261.277344 48.292969 L 261.140625 48.339844 C 261.5625 49.960938 261.929688 51.582031 262.476562 53.167969 C 263.625 56.464844 265.230469 59.671875 267.058594 62.640625 L 267.152344 62.640625 L 267.195312 62.59375 L 266.847656 61.910156 L 266.03125 60.042969 L 263.574219 54.03125 L 262.0625 50.296875 Z M 251.628906 59.222656 C 251.324219 59.382812 251.160156 59.847656 250.980469 60.132812 C 250.605469 60.742188 250.160156 61.3125 249.703125 61.863281 C 248.175781 63.714844 246.414062 65.375 244.664062 67.007812 C 242.246094 69.257812 239.621094 71.289062 236.96875 73.246094 C 234.523438 75.046875 232.066406 76.828125 229.59375 78.589844 C 228.097656 79.660156 226.597656 80.722656 225.085938 81.765625 C 224.660156 82.058594 224.234375 82.355469 223.8125 82.65625 C 223.601562 82.808594 223.339844 82.941406 223.222656 83.179688 C 223.542969 83.117188 223.816406 82.886719 224.085938 82.707031 C 224.503906 82.425781 224.933594 82.160156 225.359375 81.890625 C 226.863281 80.921875 228.375 79.972656 229.867188 78.988281 C 233.667969 76.480469 237.484375 73.957031 241.019531 71.082031 C 242.871094 69.578125 244.617188 67.96875 246.300781 66.28125 C 247.8125 64.769531 249.296875 63.144531 250.488281 61.363281 C 250.785156 60.921875 251.070312 60.46875 251.320312 59.996094 C 251.449219 59.753906 251.597656 59.503906 251.628906 59.222656 Z M 253.585938 66.007812 L 252.847656 66.648438 L 251.5625 68.011719 L 250.722656 68.878906 L 247.300781 72.382812 L 240.019531 79.488281 L 233.921875 85.585938 L 229.730469 89.691406 L 228.59375 90.875 L 227.910156 91.648438 C 228.226562 91.5625 228.457031 91.28125 228.683594 91.058594 C 229.019531 90.71875 229.371094 90.386719 229.730469 90.074219 C 231.371094 88.648438 232.945312 87.148438 234.554688 85.691406 C 236.539062 83.894531 238.449219 82.023438 240.382812 80.175781 C 243.074219 77.597656 245.726562 74.976562 248.261719 72.25 C 249.515625 70.898438 250.726562 69.507812 251.921875 68.105469 C 252.265625 67.695312 252.609375 67.285156 252.953125 66.875 C 253.171875 66.609375 253.445312 66.324219 253.585938 66.007812 Z M 264.328125 67.421875 C 263.761719 67.554688 263.246094 67.933594 262.78125 68.265625 C 262.015625 68.816406 261.269531 69.402344 260.597656 70.0625 C 258.628906 71.980469 256.691406 73.90625 254.9375 76.027344 C 254.472656 76.59375 254.03125 77.171875 253.589844 77.757812 C 253.347656 78.082031 253.046875 78.425781 252.902344 78.804688 C 253.246094 78.707031 253.492188 78.246094 253.722656 77.988281 C 254.34375 77.289062 254.972656 76.597656 255.632812 75.9375 C 257.335938 74.230469 259.0625 72.535156 260.730469 70.792969 C 261.453125 70.035156 262.175781 69.289062 262.964844 68.597656 C 263.394531 68.21875 263.847656 67.804688 264.375 67.558594 L 264.375 67.464844 Z M 151.546875 67.777344 C 151.472656 67.847656 151.414062 67.925781 151.382812 68.011719 C 151.5 67.992188 151.609375 67.941406 151.71875 67.890625 C 151.664062 67.851562 151.605469 67.8125 151.546875 67.777344 Z M 194.121094 68.585938 C 194.109375 68.609375 194.097656 68.636719 194.085938 68.664062 C 194.101562 68.675781 194.113281 68.6875 194.128906 68.695312 C 194.132812 68.65625 194.128906 68.621094 194.121094 68.585938 Z M 269.699219 69.789062 C 269.859375 70.457031 270.203125 71.109375 270.457031 71.746094 C 270.960938 73.007812 271.472656 74.265625 271.96875 75.527344 C 273.914062 80.480469 276.082031 85.3125 278.675781 89.964844 C 279.527344 91.492188 280.414062 92.992188 281.351562 94.472656 C 281.574219 94.824219 281.800781 95.175781 282.039062 95.519531 C 282.164062 95.703125 282.273438 95.90625 282.492188 95.976562 L 282.046875 95.15625 L 281.300781 93.878906 L 279.179688 89.828125 L 272.832031 76.121094 L 270.601562 71.335938 L 270.074219 70.246094 Z M 193.8125 77.484375 C 193.238281 77.734375 192.722656 78.195312 192.21875 78.558594 C 191.199219 79.292969 190.203125 80.0625 189.214844 80.835938 C 186.179688 83.199219 183.1875 85.644531 180.335938 88.230469 C 179.359375 89.117188 178.371094 89.996094 177.378906 90.863281 C 177.121094 91.085938 176.863281 91.316406 176.605469 91.539062 C 176.4375 91.679688 176.257812 91.800781 176.195312 92.011719 C 176.667969 91.890625 177.132812 91.382812 177.515625 91.085938 C 178.429688 90.382812 179.34375 89.679688 180.246094 88.960938 C 183.492188 86.386719 186.710938 83.800781 189.851562 81.101562 C 190.859375 80.234375 191.851562 79.347656 192.855469 78.476562 C 193.082031 78.277344 193.308594 78.078125 193.539062 77.882812 C 193.683594 77.761719 193.816406 77.679688 193.8125 77.484375 Z M 213.121094 82.238281 C 213.082031 82.347656 213.035156 82.457031 212.984375 82.558594 C 213.085938 82.804688 213.210938 83.03125 213.386719 83.132812 C 213.363281 82.863281 213.246094 82.613281 213.160156 82.359375 C 213.144531 82.316406 213.132812 82.277344 213.121094 82.238281 Z M 251.308594 82.632812 C 250.859375 83.09375 250.601562 83.691406 250.339844 84.269531 C 250.050781 84.910156 249.78125 85.566406 249.546875 86.230469 C 248.363281 89.566406 247.765625 93.125 247.757812 96.65625 C 247.753906 97.773438 247.578125 98.960938 247.738281 100.074219 C 247.777344 100.335938 247.675781 100.984375 247.984375 101.074219 C 247.855469 99.429688 248.121094 97.75 248.296875 96.113281 C 248.605469 93.242188 249.011719 90.347656 249.75 87.550781 C 250.070312 86.328125 250.390625 85.085938 250.84375 83.90625 C 250.960938 83.609375 251.082031 83.320312 251.230469 83.042969 C 251.308594 82.894531 251.402344 82.78125 251.308594 82.632812 Z M 196.359375 94.835938 L 194.996094 95.007812 L 192.308594 95.328125 L 184.753906 96.390625 L 182.019531 96.84375 L 180.65625 97.066406 L 180.65625 97.203125 C 181.230469 97.203125 181.8125 97.109375 182.386719 97.070312 C 183.585938 96.988281 184.785156 96.917969 185.980469 96.800781 C 189.46875 96.464844 193.015625 96.015625 196.359375 94.929688 Z M 177.96875 99.9375 L 177.925781 100.074219 C 178.371094 100.214844 178.871094 100.25 179.335938 100.320312 C 180.214844 100.449219 181.09375 100.566406 181.976562 100.671875 C 184.730469 101.003906 187.488281 101.304688 190.261719 101.304688 C 191.222656 101.304688 192.222656 101.382812 193.175781 101.269531 C 193.449219 101.238281 193.914062 101.339844 194.085938 101.074219 L 190.578125 100.765625 L 184.84375 100.304688 L 179.925781 100.078125 Z M 177.96875 99.9375 "/><path style=" stroke:none;fill-rule:nonzero;fill:#ffffff;fill-opacity:1;" d="M 255.277344 17.355469 C 255.070312 17.371094 254.859375 17.457031 254.664062 17.511719 C 254.019531 17.6875 253.382812 17.90625 252.753906 18.125 C 250.660156 18.851562 248.609375 19.664062 246.605469 20.609375 C 246.09375 20.851562 245.574219 21.078125 245.058594 21.3125 C 244.820312 21.421875 244.550781 21.492188 244.375 21.691406 L 245.378906 21.464844 L 247.425781 20.8125 L 252.113281 19.058594 L 255.484375 17.457031 L 255.484375 17.367188 C 255.417969 17.351562 255.347656 17.347656 255.277344 17.355469 Z M 259.351562 24.609375 C 259.074219 24.671875 258.855469 24.882812 258.625 25.042969 C 258.183594 25.355469 257.738281 25.660156 257.304688 25.980469 C 255.996094 26.945312 254.78125 28.027344 253.617188 29.160156 C 253.132812 29.632812 252.550781 30.0625 252.160156 30.617188 C 252.394531 30.628906 252.566406 30.445312 252.753906 30.316406 L 253.980469 29.464844 C 255.433594 28.46875 256.832031 27.355469 258.078125 26.109375 C 258.390625 25.796875 258.707031 25.488281 258.996094 25.152344 C 259.140625 24.984375 259.292969 24.828125 259.351562 24.609375 Z M 194.96875 37.96875 C 193.40625 37.972656 191.84375 38.070312 190.292969 38.175781 C 188.429688 38.300781 186.53125 38.460938 184.695312 38.816406 C 184.789062 38.957031 184.898438 38.925781 185.058594 38.910156 C 185.34375 38.886719 185.636719 38.882812 185.921875 38.847656 C 187.085938 38.710938 188.304688 38.726562 189.472656 38.726562 C 193.011719 38.726562 196.550781 38.625 200.082031 38.867188 C 201.265625 38.945312 202.453125 39.003906 203.632812 39.148438 C 203.996094 39.191406 204.359375 39.230469 204.722656 39.285156 C 204.941406 39.316406 205.144531 39.375 205.363281 39.316406 C 205.054688 39.027344 204.359375 38.972656 203.949219 38.890625 C 202.730469 38.644531 201.503906 38.441406 200.261719 38.308594 C 199.019531 38.175781 197.777344 38.054688 196.53125 38 C 196.011719 37.976562 195.492188 37.964844 194.96875 37.96875 Z M 198.078125 48.882812 C 198.085938 49.320312 198.195312 49.769531 198.277344 50.203125 C 198.402344 50.859375 198.535156 51.511719 198.707031 52.160156 C 199.246094 54.140625 199.90625 56.097656 200.699219 57.988281 C 200.96875 58.628906 201.242188 59.265625 201.519531 59.902344 C 201.632812 60.160156 201.742188 60.578125 201.992188 60.722656 L 201.738281 59.8125 L 201.160156 57.808594 L 199.457031 52.386719 L 198.59375 49.972656 L 198.214844 48.882812 Z M 174.09375 62.367188 C 173.996094 62.371094 173.902344 62.382812 173.8125 62.40625 L 173.8125 62.453125 C 174.097656 62.570312 174.421875 62.585938 174.722656 62.652344 C 175.230469 62.765625 175.726562 62.90625 176.226562 63.039062 C 177.761719 63.445312 179.277344 63.945312 180.777344 64.457031 C 183.886719 65.515625 186.960938 66.976562 189.746094 68.710938 C 190.171875 68.972656 190.5625 69.28125 190.976562 69.554688 C 191.011719 69.183594 190.503906 68.902344 190.246094 68.6875 C 189.390625 67.976562 188.457031 67.367188 187.515625 66.777344 C 184.433594 64.84375 180.964844 63.636719 177.410156 62.925781 C 176.609375 62.765625 175.804688 62.605469 174.996094 62.480469 C 174.730469 62.4375 174.394531 62.359375 174.09375 62.367188 Z M 166.070312 62.476562 C 165.894531 62.476562 165.714844 62.496094 165.574219 62.496094 C 164.675781 62.496094 163.777344 62.597656 162.886719 62.71875 C 160.511719 63.050781 158.183594 63.679688 155.96875 64.59375 C 154.59375 65.160156 153.285156 65.863281 151.960938 66.539062 C 151 67.03125 150.050781 67.582031 149.140625 68.160156 C 148.859375 68.335938 148.335938 68.546875 148.230469 68.875 C 148.558594 68.808594 148.84375 68.578125 149.140625 68.429688 C 149.789062 68.101562 150.445312 67.789062 151.097656 67.472656 C 153.003906 66.550781 154.984375 65.71875 156.96875 64.976562 C 159.007812 64.214844 161.125 63.597656 163.253906 63.144531 C 163.929688 63 164.613281 62.871094 165.300781 62.777344 C 165.699219 62.722656 166.152344 62.730469 166.53125 62.589844 C 166.414062 62.5 166.246094 62.476562 166.070312 62.476562 Z M 203.859375 65.414062 L 203.8125 65.457031 C 203.902344 65.894531 204.0625 66.308594 204.191406 66.734375 C 204.4375 67.550781 204.675781 68.375 204.917969 69.191406 C 205.320312 70.527344 205.6875 71.875 206.121094 73.199219 C 206.789062 75.25 207.546875 77.269531 208.261719 79.300781 C 208.664062 80.453125 209.125 81.585938 209.578125 82.71875 C 209.722656 83.082031 209.882812 83.792969 210.234375 83.992188 C 210.210938 83.722656 210.089844 83.476562 210.003906 83.21875 C 209.859375 82.78125 209.722656 82.339844 209.582031 81.898438 C 209.21875 80.785156 208.917969 79.648438 208.582031 78.527344 C 207.253906 74.097656 205.835938 69.644531 203.949219 65.414062 Z M 193.207031 95.695312 L 192.339844 95.804688 C 192.394531 95.867188 192.441406 95.933594 192.488281 96.003906 C 192.730469 95.933594 192.96875 95.867188 193.207031 95.789062 Z M 244.8125 101.527344 C 244.746094 101.550781 244.683594 101.574219 244.617188 101.589844 C 244.644531 101.757812 244.699219 101.898438 244.832031 101.9375 C 244.820312 101.800781 244.816406 101.664062 244.8125 101.527344 Z M 244.8125 101.527344 "/><path style="fill-rule:nonzero;fill:#000000;fill-opacity:1;stroke-width:1;stroke-linecap:butt;stroke-linejoin:miter;stroke:#0c7b3b;stroke-opacity:1;stroke-miterlimit:4;" d="M 0.499995 0.999997 L 0.499995 199.000009 M 599.50003 0.999997 L 599.50003 199.000009 M -0.000005 0.499997 L 600.00003 0.499997 M -0.000005 199.500009 L 600.00003 199.500009 " transform="matrix(0.75,0,0,0.75,0.00000375,0.000002)"/></g></svg>