<svg xmlns="http://www.w3.org/2000/svg" xmlns:xlink="http://www.w3.org/1999/xlink" width="600" zoomAndPan="magnify" viewBox="0 0 450 149.999998" height="200" preserveAspectRatio="xMidYMid meet" version="1.2"><defs/><g id="838782ba79"><rect x="0" width="450" y="0" height="149.999998" style="fill:#ffffff;fill-opacity:1;stroke:none;"/><rect x="0" width="450" y="0" height="149.999998" style="fill:#ffffff;fill-opacity:1;stroke:none;"/><path style="fill-rule:nonzero;fill:#000000;fill-opacity:1;stroke-width:1;stroke-linecap:butt;stroke-linejoin:miter;stroke:#0c7b3b;stroke-opacity:1;stroke-miterlimit:4;" d="M 0.499995 0.999997 L 0.499995 199.000009 M 599.50003 0.999997 L 599.50003 199.000009 M -0.000005 0.499997 L 600.00003 0.499997 M -0.000005 199.500009 L 600.00003 199.500009 " transform="matrix(0.75,0,0,0.75,0.00000375,0.000002)"/><g style="fill:#0c7b3b;fill-opacity:1;"><g transform="translate(198.643492, 109.348325)"><path style="stroke:none" d="M 25.074219 -75.007812 C 19.539062 -75.007812 13.027344 -73.921875 8.140625 -71.753906 L 8.140625 -58.726562 C 13.894531 -61.65625 17.695312 -62.632812 22.035156 -62.632812 C 27.570312 -62.632812 32.347656 -59.050781 32.347656 -53.949219 C 32.347656 -49.714844 28.65625 -45.484375 22.144531 -44.941406 L 22.144531 -31.914062 C 29.742188 -31.152344 33.542969 -26.921875 33.542969 -21.601562 C 33.542969 -16.175781 28.875 -11.941406 22.578125 -11.941406 C 17.042969 -11.941406 11.398438 -13.894531 6.296875 -17.585938 L 6.296875 -3.257812 C 11.507812 -0.433594 18.5625 0.976562 24.859375 0.976562 C 38.96875 0.976562 50.800781 -6.40625 50.800781 -20.625 C 50.800781 -30.503906 46.242188 -36.257812 37.777344 -39.730469 C 44.613281 -42.984375 48.738281 -49.933594 48.738281 -56.878906 C 48.738281 -67.953125 38.753906 -75.007812 25.074219 -75.007812 Z M 25.074219 -75.007812 "/></g></g></g></svg>