<svg xmlns="http://www.w3.org/2000/svg" xmlns:xlink="http://www.w3.org/1999/xlink" width="600" zoomAndPan="magnify" viewBox="0 0 450 149.999998" height="200" preserveAspectRatio="xMidYMid meet" version="1.2"><defs/><g id="0063870f42"><rect x="0" width="450" y="0" height="149.999998" style="fill:#ffffff;fill-opacity:1;stroke:none;"/><rect x="0" width="450" y="0" height="149.999998" style="fill:#ffffff;fill-opacity:1;stroke:none;"/><path style="fill-rule:nonzero;fill:#000000;fill-opacity:1;stroke-width:1;stroke-linecap:butt;stroke-linejoin:miter;stroke:#0c7b3b;stroke-opacity:1;stroke-miterlimit:4;" d="M 0.499995 0.999997 L 0.499995 199.000009 M 599.50003 0.999997 L 599.50003 199.000009 M -0.000005 0.499997 L 600.00003 0.499997 M -0.000005 199.500009 L 600.00003 199.500009 " transform="matrix(0.75,0,0,0.75,0.00000375,0.000002)"/><g style="fill:#0c7b3b;fill-opacity:1;"><g transform="translate(49.336547, 108.343266)"><path style="stroke:none" d="M 30.535156 -82.746094 L 16.40625 -59.875 C 7.902344 -46.105469 5.269531 -37.363281 5.269531 -27.542969 C 5.269531 -8.863281 18.203125 1.078125 32.691406 1.078125 C 48.140625 1.078125 59.394531 -11.136719 59.394531 -27.0625 C 59.394531 -40.953125 49.816406 -52.570312 36.523438 -52.570312 C 35.085938 -52.570312 34.128906 -52.449219 31.734375 -51.851562 L 50.65625 -82.746094 Z M 23.710938 -25.984375 C 23.710938 -33.890625 27.304688 -38.320312 32.453125 -38.320312 C 38.441406 -38.320312 41.792969 -32.929688 41.792969 -26.34375 C 41.792969 -19.519531 38.558594 -14.128906 32.691406 -14.128906 C 27.0625 -14.128906 23.710938 -18.5625 23.710938 -25.984375 Z M 23.710938 -25.984375 "/></g></g><g style="fill:#0c7b3b;fill-opacity:1;"><g transform="translate(188.570381, 108.343266)"><path style="stroke:none" d="M 32.8125 -82.746094 C 17.484375 -82.746094 8.023438 -73.527344 8.023438 -60.59375 C 8.023438 -53.527344 10.777344 -47.660156 18.082031 -43.109375 C 10.179688 -39.875 5.746094 -32.210938 5.746094 -23.230469 C 5.746094 -8.863281 17.125 1.078125 32.929688 1.078125 C 49.9375 1.078125 60.472656 -8.980469 60.472656 -23.351562 C 60.472656 -31.972656 56.164062 -39.398438 48.257812 -43.109375 C 55.921875 -47.539062 58.199219 -54.246094 58.199219 -60.832031 C 58.199219 -71.132812 49.9375 -82.746094 32.8125 -82.746094 Z M 25.386719 -59.515625 C 25.386719 -65.984375 28.140625 -70.53125 33.050781 -70.53125 C 37.960938 -70.53125 40.714844 -66.699219 40.714844 -59.636719 C 40.714844 -52.332031 37.960938 -48.140625 33.171875 -48.140625 C 28.023438 -48.140625 25.386719 -53.050781 25.386719 -59.515625 Z M 42.03125 -23.351562 C 42.03125 -15.566406 38.558594 -10.65625 33.289062 -10.65625 C 28.023438 -10.65625 24.070312 -15.808594 24.070312 -23.710938 C 24.070312 -31.496094 27.421875 -36.523438 33.171875 -36.523438 C 38.558594 -36.523438 42.03125 -31.972656 42.03125 -23.351562 Z M 42.03125 -23.351562 "/></g></g><g style="fill:#0c7b3b;fill-opacity:1;"><g transform="translate(322.72025, 108.343266)"><path style="stroke:none" d="M 23.710938 -82.746094 L 23.710938 0 L 42.390625 0 L 42.390625 -82.746094 Z M 23.710938 -82.746094 "/></g></g></g></svg>