<svg xmlns="http://www.w3.org/2000/svg" xmlns:xlink="http://www.w3.org/1999/xlink" width="756" zoomAndPan="magnify" viewBox="0 0 567 141.750002" height="189" preserveAspectRatio="xMidYMid meet" version="1.2"><defs><clipPath id="b6394ed4f8"><path d="M 0.5 0 L 566.5 0 L 566.5 141.5 L 0.5 141.5 Z M 0.5 0 "/></clipPath><clipPath id="9016a95731"><path d="M 236.011719 32.34375 L 312.804688 32.34375 L 312.804688 109.136719 L 236.011719 109.136719 Z M 236.011719 32.34375 "/></clipPath><clipPath id="482e6b6983"><path d="M 274.40625 109.117188 C 253.246094 109.117188 236.03125 91.902344 236.03125 70.742188 C 236.03125 49.582031 253.246094 32.363281 274.40625 32.363281 C 295.566406 32.363281 312.785156 49.582031 312.785156 70.742188 C 312.785156 91.902344 295.566406 109.117188 274.40625 109.117188 "/></clipPath><clipPath id="8d7ba101ed"><path d="M 235 31.257812 L 313.890625 31.257812 L 313.890625 110 L 235 110 Z M 235 31.257812 "/></clipPath><clipPath id="4bd1aa2a04"><path d="M 274.40625 31.597656 C 252.828125 31.597656 235.265625 49.164062 235.265625 70.742188 C 235.265625 92.320312 252.828125 109.882812 274.40625 109.882812 C 295.988281 109.882812 313.550781 92.320312 313.550781 70.742188 C 313.550781 49.164062 295.988281 31.597656 274.40625 31.597656 M 274.40625 33.128906 C 295.179688 33.128906 312.019531 49.972656 312.019531 70.742188 C 312.019531 91.511719 295.179688 108.351562 274.40625 108.351562 C 253.636719 108.351562 236.796875 91.511719 236.796875 70.742188 C 236.796875 49.972656 253.636719 33.128906 274.40625 33.128906 "/></clipPath></defs><g id="9e68e18bf4"><g clip-rule="nonzero" clip-path="url(#b6394ed4f8)"><path style=" stroke:none;fill-rule:nonzero;fill:#ffffff;fill-opacity:1;" d="M 0.5 0 L 566.5 0 L 566.5 141.5 L 0.5 141.5 Z M 0.5 0 "/><path style=" stroke:none;fill-rule:nonzero;fill:#ffffff;fill-opacity:1;" d="M 0.5 0 L 566.5 0 L 566.5 141.5 L 0.5 141.5 Z M 0.5 0 "/></g><g clip-rule="nonzero" clip-path="url(#9016a95731)"><g clip-rule="nonzero" clip-path="url(#482e6b6983)"><path style=" stroke:none;fill-rule:nonzero;fill:#f9ed37;fill-opacity:1;" d="M 228.042969 24.375 L 320.773438 24.375 L 320.773438 117.105469 L 228.042969 117.105469 Z M 228.042969 24.375 "/></g></g><g clip-rule="nonzero" clip-path="url(#8d7ba101ed)"><g clip-rule="nonzero" clip-path="url(#4bd1aa2a04)"><path style=" stroke:none;fill-rule:nonzero;fill:#231f20;fill-opacity:1;" d="M 228.042969 24.375 L 320.773438 24.375 L 320.773438 117.105469 L 228.042969 117.105469 Z M 228.042969 24.375 "/></g></g></g></svg>