<svg xmlns="http://www.w3.org/2000/svg" xmlns:xlink="http://www.w3.org/1999/xlink" width="600" zoomAndPan="magnify" viewBox="0 0 450 149.999998" height="200" preserveAspectRatio="xMidYMid meet" version="1.2"><defs/><g id="950e021a4a"><rect x="0" width="450" y="0" height="149.999998" style="fill:#ffffff;fill-opacity:1;stroke:none;"/><rect x="0" width="450" y="0" height="149.999998" style="fill:#ffffff;fill-opacity:1;stroke:none;"/><path style="fill-rule:nonzero;fill:#000000;fill-opacity:1;stroke-width:1;stroke-linecap:butt;stroke-linejoin:miter;stroke:#0c7b3b;stroke-opacity:1;stroke-miterlimit:4;" d="M 0.499995 0.999997 L 0.499995 199.000009 M 599.50003 0.999997 L 599.50003 199.000009 M -0.000005 0.499997 L 600.00003 0.499997 M -0.000005 199.500009 L 600.00003 199.500009 " transform="matrix(0.75,0,0,0.75,0.00000375,0.000002)"/><g style="fill:#0c7b3b;fill-opacity:1;"><g transform="translate(31.457126, 93.417785)"><path style="stroke:none" d="M 21.421875 -58.277344 C 15.097656 -58.277344 10.542969 -56.085938 5.3125 -52.796875 L 5.3125 -40.734375 C 9.953125 -45.203125 15.433594 -47.902344 19.144531 -47.902344 C 23.53125 -47.902344 26.902344 -44.109375 26.902344 -39.808594 C 26.902344 -34.410156 24.035156 -27.914062 15.347656 -16.023438 C 11.046875 -10.203125 7.421875 -5.3125 4.554688 -1.6875 L 4.554688 0 L 42.589844 0 L 42.589844 -11.722656 L 24.035156 -11.722656 C 31.878906 -21.84375 33.398438 -24.542969 37.109375 -31.878906 C 38.796875 -35.335938 39.636719 -38.625 39.636719 -42.167969 C 39.636719 -50.769531 33.988281 -58.277344 21.421875 -58.277344 Z M 21.421875 -58.277344 "/></g></g><g style="fill:#0c7b3b;fill-opacity:1;"><g transform="translate(92.070716, 93.417785)"><path style="stroke:none" d="M 8.347656 -57.519531 L 8.347656 -24.710938 C 10.625 -25.300781 12.988281 -25.554688 15.433594 -25.554688 C 22.097656 -25.554688 26.734375 -22.433594 26.734375 -17.289062 C 26.734375 -13.074219 23.363281 -9.363281 17.625 -9.363281 C 14.589844 -9.363281 10.542969 -10.035156 5.398438 -12.820312 L 5.398438 -2.363281 C 8.265625 -0.675781 14.507812 0.757812 19.3125 0.757812 C 33.058594 0.757812 40.144531 -7 40.144531 -17.964844 C 40.144531 -28 32.300781 -35.253906 22.097656 -35.253906 C 21.167969 -35.253906 20.492188 -35.167969 19.820312 -35.167969 L 19.820312 -45.964844 L 38.203125 -45.964844 L 38.203125 -57.519531 Z M 8.347656 -57.519531 "/></g></g><g style="fill:#0c7b3b;fill-opacity:1;"><g transform="translate(157.855233, 93.417785)"><path style="stroke:none" d="M 22.097656 -58.277344 C 11.722656 -58.277344 2.953125 -50.097656 2.953125 -38.457031 C 2.953125 -28.335938 10.121094 -20.242188 18.808594 -20.242188 C 20.242188 -20.242188 21 -20.492188 22.519531 -20.832031 L 9.277344 0.757812 L 23.363281 0.757812 L 33.398438 -15.519531 C 38.625 -24.035156 41.074219 -31.035156 41.074219 -38.878906 C 41.074219 -50.519531 31.964844 -58.277344 22.097656 -58.277344 Z M 15.347656 -38.878906 C 15.347656 -43.941406 18.046875 -47.480469 21.757812 -47.480469 C 25.554688 -47.480469 28.167969 -44.53125 28.167969 -38.878906 C 28.167969 -33.902344 25.554688 -30.363281 21.757812 -30.363281 C 18.132812 -30.363281 15.347656 -33.566406 15.347656 -38.878906 Z M 15.347656 -38.878906 "/></g></g><g style="fill:#0c7b3b;fill-opacity:1;"><g transform="translate(223.634067, 93.417785)"><path style="stroke:none" d="M 5.398438 -57.519531 L 5.398438 -46.046875 L 26.652344 -46.046875 L 11.21875 -3.625 L 22.6875 0.757812 L 43.6875 -56.84375 L 43.6875 -57.519531 Z M 5.398438 -57.519531 "/></g></g><g style="fill:#0c7b3b;fill-opacity:1;"><g transform="translate(289.407234, 93.417785)"><path style="stroke:none" d="M 30.53125 -58.277344 L 3.457031 -23.363281 L 3.457031 -14.167969 L 25.890625 -14.167969 L 25.890625 0 L 38.625 0 L 38.625 -14.167969 L 42.507812 -14.167969 L 42.507812 -23.363281 L 38.625 -23.363281 L 38.625 -58.277344 Z M 25.890625 -23.363281 L 13.578125 -23.363281 L 25.890625 -39.046875 Z M 25.890625 -23.363281 "/></g></g><g style="fill:#0c7b3b;fill-opacity:1;"><g transform="translate(355.525677, 93.417785)"><path style="stroke:none" d="M 16.699219 -58.277344 L 16.699219 0 L 29.855469 0 L 29.855469 -58.277344 Z M 16.699219 -58.277344 "/></g></g></g></svg>