<svg xmlns="http://www.w3.org/2000/svg" xmlns:xlink="http://www.w3.org/1999/xlink" width="600" zoomAndPan="magnify" viewBox="0 0 450 149.999998" height="200" preserveAspectRatio="xMidYMid meet" version="1.2"><defs/><g id="739cfe737f"><rect x="0" width="450" y="0" height="149.999998" style="fill:#ffffff;fill-opacity:1;stroke:none;"/><rect x="0" width="450" y="0" height="149.999998" style="fill:#ffffff;fill-opacity:1;stroke:none;"/><path style="fill-rule:nonzero;fill:#000000;fill-opacity:1;stroke-width:1;stroke-linecap:butt;stroke-linejoin:miter;stroke:#0c7b3b;stroke-opacity:1;stroke-miterlimit:4;" d="M 0.499995 0.999997 L 0.499995 199.000009 M 599.50003 0.999997 L 599.50003 199.000009 M -0.000005 0.499997 L 600.00003 0.499997 M -0.000005 199.500009 L 600.00003 199.500009 " transform="matrix(0.75,0,0,0.75,0.00000375,0.000002)"/><g style="fill:#0c7b3b;fill-opacity:1;"><g transform="translate(163.24328, 105.862426)"><path style="stroke:none" d="M 24.3125 -65.878906 L 13.0625 -47.667969 C 6.292969 -36.707031 4.195312 -29.746094 4.195312 -21.929688 C 4.195312 -7.054688 14.492188 0.859375 26.027344 0.859375 C 38.328125 0.859375 47.289062 -8.867188 47.289062 -21.546875 C 47.289062 -32.605469 39.660156 -41.855469 29.078125 -41.855469 C 27.933594 -41.855469 27.171875 -41.757812 25.265625 -41.28125 L 40.328125 -65.878906 Z M 18.878906 -20.6875 C 18.878906 -26.980469 21.738281 -30.507812 25.835938 -30.507812 C 30.605469 -30.507812 33.273438 -26.21875 33.273438 -20.976562 C 33.273438 -15.539062 30.699219 -11.25 26.027344 -11.25 C 21.546875 -11.25 18.878906 -14.777344 18.878906 -20.6875 Z M 18.878906 -20.6875 "/></g></g><g style="fill:#0c7b3b;fill-opacity:1;"><g transform="translate(215.870686, 105.862426)"><path style="stroke:none" d="M 26.410156 -65.878906 C 14.871094 -65.878906 4.289062 -56.535156 4.289062 -32.511719 C 4.289062 -10.488281 12.964844 0.859375 26.601562 0.859375 C 39.949219 0.859375 48.335938 -11.058594 48.335938 -32.796875 C 48.335938 -57.488281 37.277344 -65.878906 26.410156 -65.878906 Z M 33.367188 -33.367188 C 33.367188 -15.636719 31.082031 -11.25 26.410156 -11.25 C 22.117188 -11.25 19.355469 -15.539062 19.355469 -32.511719 C 19.355469 -48.8125 21.738281 -53.675781 26.3125 -53.675781 C 31.652344 -53.675781 33.367188 -47.003906 33.367188 -33.367188 Z M 33.367188 -33.367188 "/></g></g></g></svg>