<svg xmlns="http://www.w3.org/2000/svg" xmlns:xlink="http://www.w3.org/1999/xlink" width="756" zoomAndPan="magnify" viewBox="0 0 567 141.750002" height="189" preserveAspectRatio="xMidYMid meet" version="1.2"><defs><clipPath id="f7e14abafc"><path d="M 0.5 0 L 566.5 0 L 566.5 141.5 L 0.5 141.5 Z M 0.5 0 "/></clipPath><clipPath id="f0462a680d"><path d="M 227.035156 23.171875 L 313.976562 23.171875 L 313.976562 110.113281 L 227.035156 110.113281 Z M 227.035156 23.171875 "/></clipPath><clipPath id="4e5f09f828"><path d="M 270.507812 110.09375 C 246.550781 110.09375 227.054688 90.597656 227.054688 66.640625 C 227.054688 42.683594 246.550781 23.191406 270.507812 23.191406 C 294.464844 23.191406 313.957031 42.683594 313.957031 66.640625 C 313.957031 90.597656 294.464844 110.09375 270.507812 110.09375 "/></clipPath><clipPath id="471ca2f5bc"><path d="M 226 22 L 315 22 L 315 111 L 226 111 Z M 226 22 "/></clipPath><clipPath id="cfe428b4a2"><path d="M 270.507812 22.324219 C 246.074219 22.324219 226.1875 42.210938 226.1875 66.640625 C 226.1875 91.074219 246.074219 110.957031 270.507812 110.957031 C 294.9375 110.957031 314.824219 91.074219 314.824219 66.640625 C 314.824219 42.210938 294.9375 22.324219 270.507812 22.324219 M 270.507812 24.058594 C 294.023438 24.058594 313.089844 43.125 313.089844 66.640625 C 313.089844 90.15625 294.023438 109.226562 270.507812 109.226562 C 246.992188 109.226562 227.921875 90.15625 227.921875 66.640625 C 227.921875 43.125 246.992188 24.058594 270.507812 24.058594 "/></clipPath></defs><g id="8f78302be2"><g clip-rule="nonzero" clip-path="url(#f7e14abafc)"><path style=" stroke:none;fill-rule:nonzero;fill:#ffffff;fill-opacity:1;" d="M 0.5 0 L 566.5 0 L 566.5 141.5 L 0.5 141.5 Z M 0.5 0 "/><path style=" stroke:none;fill-rule:nonzero;fill:#ffffff;fill-opacity:1;" d="M 0.5 0 L 566.5 0 L 566.5 141.5 L 0.5 141.5 Z M 0.5 0 "/></g><g clip-rule="nonzero" clip-path="url(#f0462a680d)"><g clip-rule="nonzero" clip-path="url(#4e5f09f828)"><path style=" stroke:none;fill-rule:nonzero;fill:#4dab47;fill-opacity:1;" d="M 218.011719 14.148438 L 323 14.148438 L 323 119.136719 L 218.011719 119.136719 Z M 218.011719 14.148438 "/></g></g><g clip-rule="nonzero" clip-path="url(#471ca2f5bc)"><g clip-rule="nonzero" clip-path="url(#cfe428b4a2)"><path style=" stroke:none;fill-rule:nonzero;fill:#231f20;fill-opacity:1;" d="M 218.011719 14.148438 L 323 14.148438 L 323 119.136719 L 218.011719 119.136719 Z M 218.011719 14.148438 "/></g></g></g></svg>