<svg xmlns="http://www.w3.org/2000/svg" xmlns:xlink="http://www.w3.org/1999/xlink" width="600" zoomAndPan="magnify" viewBox="0 0 450 149.999998" height="200" preserveAspectRatio="xMidYMid meet" version="1.2"><defs><clipPath id="ce0d9888bd"><path d="M 169.316406 4.238281 L 289.316406 4.238281 L 289.316406 46.988281 L 169.316406 46.988281 Z M 169.316406 4.238281 "/></clipPath><clipPath id="5afbc1fb47"><path d="M 169.316406 53.511719 L 289.316406 53.511719 L 289.316406 96 L 169.316406 96 Z M 169.316406 53.511719 "/></clipPath><clipPath id="c0a3f19629"><path d="M 253.476562 63.65625 L 268.476562 63.65625 L 268.476562 81 L 253.476562 81 Z M 253.476562 63.65625 "/></clipPath><clipPath id="631d13053b"><path d="M 257 82 L 264 82 L 264 87.65625 L 257 87.65625 Z M 257 82 "/></clipPath><clipPath id="5865749bb4"><path d="M 181.660156 9.777344 L 214.667969 9.777344 L 214.667969 40.785156 L 181.660156 40.785156 Z M 181.660156 9.777344 "/></clipPath><clipPath id="1a956e99ea"><path d="M 243.367188 8.636719 L 276.375 8.636719 L 276.375 39.644531 L 243.367188 39.644531 Z M 243.367188 8.636719 "/></clipPath><clipPath id="b67e1dab95"><path d="M 182.53125 57.425781 L 217 57.425781 L 217 91.925781 L 182.53125 91.925781 Z M 182.53125 57.425781 "/></clipPath><clipPath id="006a94cbdf"><path d="M 134.335938 99.34375 L 324.835938 99.34375 L 324.835938 132 L 134.335938 132 Z M 134.335938 99.34375 "/></clipPath><clipPath id="053d8e4b57"><path d="M 134.335938 99.34375 L 324.835938 99.34375 L 324.835938 132.34375 L 134.335938 132.34375 Z M 134.335938 99.34375 "/></clipPath><clipPath id="f0864469ae"><path d="M 134.335938 135 L 324.835938 135 L 324.835938 148 L 134.335938 148 Z M 134.335938 135 "/></clipPath><clipPath id="779f35dbe9"><path d="M 240.671875 103.582031 L 266.171875 103.582031 L 266.171875 129.082031 L 240.671875 129.082031 Z M 240.671875 103.582031 "/></clipPath><clipPath id="b4ac202f09"><path d="M 145.105469 104.082031 L 169.855469 104.082031 L 169.855469 128.832031 L 145.105469 128.832031 Z M 145.105469 104.082031 "/></clipPath><clipPath id="07549849d9"><path d="M 288.167969 104.152344 L 312.867188 104.152344 L 312.867188 128.5 L 288.167969 128.5 Z M 288.167969 104.152344 "/></clipPath><clipPath id="c77a6f9b23"><path d="M 192.867188 104.082031 L 217.566406 104.082031 L 217.566406 128.429688 L 192.867188 128.429688 Z M 192.867188 104.082031 "/></clipPath></defs><g id="3398006e8f"><rect x="0" width="450" y="0" height="149.999998" style="fill:#ffffff;fill-opacity:1;stroke:none;"/><rect x="0" width="450" y="0" height="149.999998" style="fill:#ffffff;fill-opacity:1;stroke:none;"/><g clip-rule="nonzero" clip-path="url(#ce0d9888bd)"><path style="fill-rule:nonzero;fill:#000000;fill-opacity:1;stroke-width:0.551176;stroke-linecap:butt;stroke-linejoin:miter;stroke:#000000;stroke-opacity:1;stroke-miterlimit:4;" d="M 0.277313 0.549959 L 0.277313 55.560378 M 80.371067 0.549959 L 80.371067 55.560378 M 159.365864 0.549959 L 159.365864 55.560378 M 0.0012709 0.273917 L 159.641905 0.273917 M 0.0012709 55.83642 L 159.641905 55.83642 " transform="matrix(0.75,0,0,0.75,169.315453,4.239875)"/></g><g clip-rule="nonzero" clip-path="url(#5afbc1fb47)"><path style="fill-rule:nonzero;fill:#000000;fill-opacity:1;stroke-width:0.551176;stroke-linecap:butt;stroke-linejoin:miter;stroke:#000000;stroke-opacity:1;stroke-miterlimit:4;" d="M 0.277313 0.552253 L 0.277313 55.557464 M 80.371067 0.552253 L 80.371067 55.557464 M 159.365864 0.552253 L 159.365864 55.557464 M 0.0012709 0.276211 L 159.641905 0.276211 M 0.0012709 55.833506 L 159.641905 55.833506 " transform="matrix(0.75,0,0,0.75,169.315453,53.511592)"/></g><g clip-rule="nonzero" clip-path="url(#c0a3f19629)"><path style=" stroke:none;fill-rule:nonzero;fill:#000000;fill-opacity:1;" d="M 267.484375 66.441406 C 266.839844 65.539062 265.949219 64.847656 264.816406 64.371094 C 263.6875 63.898438 262.382812 63.65625 260.90625 63.65625 C 259.5625 63.65625 258.335938 63.890625 257.226562 64.363281 C 256.117188 64.828125 255.222656 65.542969 254.546875 66.488281 C 254.007812 67.242188 253.675781 68.152344 253.539062 69.226562 C 253.480469 69.691406 253.855469 70.101562 254.335938 70.101562 L 257.308594 70.101562 C 257.691406 70.101562 258.011719 69.839844 258.09375 69.472656 C 258.167969 69.148438 258.289062 68.855469 258.460938 68.605469 C 258.734375 68.203125 259.085938 67.894531 259.519531 67.6875 C 259.949219 67.480469 260.402344 67.375 260.886719 67.375 C 261.386719 67.375 261.835938 67.476562 262.25 67.683594 C 262.660156 67.886719 262.988281 68.179688 263.234375 68.558594 C 263.476562 68.9375 263.597656 69.375 263.597656 69.878906 C 263.597656 70.351562 263.492188 70.78125 263.277344 71.160156 C 263.0625 71.539062 262.773438 71.890625 262.410156 72.199219 C 262.042969 72.515625 261.640625 72.816406 261.179688 73.109375 C 260.5625 73.488281 260.035156 73.910156 259.601562 74.375 C 259.160156 74.839844 258.832031 75.449219 258.605469 76.207031 C 258.378906 76.96875 258.261719 77.980469 258.257812 79.25 L 258.257812 79.886719 C 258.257812 80.316406 258.613281 80.671875 259.058594 80.671875 L 261.671875 80.671875 C 262.113281 80.671875 262.476562 80.324219 262.476562 79.886719 L 262.476562 79.25 C 262.484375 78.535156 262.578125 77.9375 262.757812 77.453125 C 262.9375 76.96875 263.21875 76.535156 263.589844 76.164062 C 263.964844 75.796875 264.445312 75.441406 265.03125 75.09375 C 265.730469 74.6875 266.332031 74.230469 266.84375 73.722656 C 267.351562 73.21875 267.753906 72.632812 268.042969 71.976562 C 268.324219 71.316406 268.472656 70.558594 268.472656 69.710938 C 268.457031 68.433594 268.128906 67.34375 267.484375 66.441406 Z M 267.484375 66.441406 "/></g><g clip-rule="nonzero" clip-path="url(#631d13053b)"><path style=" stroke:none;fill-rule:nonzero;fill:#000000;fill-opacity:1;" d="M 260.445312 82.4375 C 259.703125 82.4375 259.074219 82.695312 258.550781 83.203125 C 258.027344 83.710938 257.769531 84.324219 257.777344 85.035156 C 257.769531 85.757812 258.027344 86.375 258.550781 86.890625 C 259.074219 87.402344 259.703125 87.65625 260.445312 87.65625 C 260.921875 87.65625 261.359375 87.535156 261.757812 87.300781 C 262.15625 87.0625 262.480469 86.75 262.730469 86.351562 C 262.976562 85.953125 263.105469 85.515625 263.109375 85.035156 C 263.101562 84.320312 262.832031 83.710938 262.300781 83.203125 C 261.769531 82.695312 261.148438 82.4375 260.445312 82.4375 Z M 260.445312 82.4375 "/></g><g clip-rule="nonzero" clip-path="url(#5865749bb4)"><path style=" stroke:none;fill-rule:nonzero;fill:#ff3131;fill-opacity:1;" d="M 181.660156 9.777344 L 214.726562 9.777344 L 214.726562 40.785156 L 181.660156 40.785156 Z M 181.660156 9.777344 "/></g><g clip-rule="nonzero" clip-path="url(#1a956e99ea)"><path style=" stroke:none;fill-rule:nonzero;fill:#ff3131;fill-opacity:1;" d="M 243.367188 8.636719 L 276.433594 8.636719 L 276.433594 39.644531 L 243.367188 39.644531 Z M 243.367188 8.636719 "/></g><g clip-rule="nonzero" clip-path="url(#b67e1dab95)"><path style=" stroke:none;fill-rule:nonzero;fill:#ff3131;fill-opacity:1;" d="M 199.65625 91.679688 C 190.238281 91.679688 182.53125 83.972656 182.53125 74.550781 C 182.53125 65.132812 190.238281 57.425781 199.65625 57.425781 C 209.078125 57.425781 216.785156 65.132812 216.785156 74.550781 C 216.785156 83.972656 209.078125 91.679688 199.65625 91.679688 Z M 199.65625 91.679688 "/></g><g clip-rule="nonzero" clip-path="url(#006a94cbdf)"><path style=" stroke:none;fill-rule:nonzero;fill:#000000;fill-opacity:1;" d="M 134.660156 100 L 134.660156 131.585938 M 181.796875 100 L 181.796875 131.585938 M 228.304688 100 L 228.304688 131.585938 M 276.070312 100 L 276.070312 131.585938 M 323.839844 100 L 323.839844 131.585938 M 134.335938 99.671875 L 324.164062 99.671875 M 134.335938 131.914062 L 324.164062 131.914062 "/></g><g clip-rule="nonzero" clip-path="url(#053d8e4b57)"><path style="fill:none;stroke-width:0.871773;stroke-linecap:butt;stroke-linejoin:miter;stroke:#000000;stroke-opacity:1;stroke-miterlimit:4;" d="M 0.434282 0.874199 L 0.434282 42.988785 M 63.283244 0.874199 L 63.283244 42.988785 M 125.293664 0.874199 L 125.293664 42.988785 M 188.981168 0.874199 L 188.981168 42.988785 M 252.67388 0.874199 L 252.67388 42.988785 M 0.00199038 0.436699 L 253.106172 0.436699 M 0.00199038 43.426285 L 253.106172 43.426285 " transform="matrix(0.75,0,0,0.75,134.334445,99.344351)"/></g><g clip-rule="nonzero" clip-path="url(#f0864469ae)"><path style="fill-rule:nonzero;fill:#000000;fill-opacity:1;stroke-width:0.871773;stroke-linecap:butt;stroke-linejoin:miter;stroke:#000000;stroke-opacity:1;stroke-miterlimit:4;" d="M 0.434282 0.873408 L 0.434282 16.347367 M 63.585327 0.873408 L 63.585327 16.347367 M 124.694706 0.873408 L 124.694706 16.347367 M 188.949918 0.873408 L 188.949918 16.347367 M 252.67388 0.873408 L 252.67388 16.347367 M 0.00199038 0.435908 L 253.106172 0.435908 M 0.00199038 16.779659 L 253.106172 16.779659 " transform="matrix(0.75,0,0,0.75,134.334445,135.001194)"/></g><g style="fill:#000000;fill-opacity:1;"><g transform="translate(202.923566, 143.417893)"><path style="stroke:none" d="M 0.28125 0 L 0.28125 -0.765625 L 1.421875 -1.84375 C 1.765625 -2.175781 2.035156 -2.476562 2.234375 -2.75 C 2.429688 -3.03125 2.566406 -3.316406 2.640625 -3.609375 C 2.722656 -3.898438 2.765625 -4.234375 2.765625 -4.609375 C 2.765625 -5.046875 2.710938 -5.363281 2.609375 -5.5625 C 2.503906 -5.757812 2.328125 -5.859375 2.078125 -5.859375 C 1.890625 -5.859375 1.742188 -5.800781 1.640625 -5.6875 C 1.546875 -5.570312 1.476562 -5.378906 1.4375 -5.109375 C 1.394531 -4.847656 1.375 -4.484375 1.375 -4.015625 C 1.0625 -4.015625 0.804688 -4.078125 0.609375 -4.203125 C 0.410156 -4.328125 0.3125 -4.523438 0.3125 -4.796875 C 0.3125 -5.117188 0.460938 -5.390625 0.765625 -5.609375 C 1.078125 -5.828125 1.53125 -5.9375 2.125 -5.9375 C 2.738281 -5.9375 3.203125 -5.816406 3.515625 -5.578125 C 3.835938 -5.335938 4 -5 4 -4.5625 C 4 -4.375 3.960938 -4.191406 3.890625 -4.015625 C 3.828125 -3.835938 3.707031 -3.644531 3.53125 -3.4375 C 3.351562 -3.226562 3.113281 -2.988281 2.8125 -2.71875 C 2.519531 -2.457031 2.144531 -2.148438 1.6875 -1.796875 L 0.546875 -0.90625 L 3.3125 -0.90625 C 3.570312 -0.90625 3.757812 -0.941406 3.875 -1.015625 C 4 -1.097656 4.070312 -1.25 4.09375 -1.46875 L 4.125 -1.71875 L 4.203125 -1.71875 L 4.15625 0 Z M 0.28125 0 "/></g></g><g style="fill:#000000;fill-opacity:1;"><g transform="translate(251.140595, 143.417893)"><path style="stroke:none" d="M 1.984375 0.078125 C 1.378906 0.078125 0.9375 -0.0195312 0.65625 -0.21875 C 0.375 -0.414062 0.234375 -0.644531 0.234375 -0.90625 C 0.234375 -1.113281 0.300781 -1.269531 0.4375 -1.375 C 0.570312 -1.488281 0.734375 -1.546875 0.921875 -1.546875 C 0.921875 -1.140625 0.960938 -0.828125 1.046875 -0.609375 C 1.140625 -0.390625 1.257812 -0.234375 1.40625 -0.140625 C 1.5625 -0.046875 1.738281 0 1.9375 0 C 2.289062 0 2.546875 -0.132812 2.703125 -0.40625 C 2.859375 -0.675781 2.9375 -1.066406 2.9375 -1.578125 C 2.9375 -1.941406 2.894531 -2.222656 2.8125 -2.421875 C 2.726562 -2.628906 2.585938 -2.773438 2.390625 -2.859375 C 2.191406 -2.941406 1.9375 -2.984375 1.625 -2.984375 L 1.171875 -2.984375 L 1.171875 -3.0625 L 1.625 -3.0625 C 1.914062 -3.0625 2.140625 -3.109375 2.296875 -3.203125 C 2.460938 -3.296875 2.578125 -3.445312 2.640625 -3.65625 C 2.710938 -3.863281 2.75 -4.140625 2.75 -4.484375 C 2.75 -4.984375 2.6875 -5.335938 2.5625 -5.546875 C 2.445312 -5.753906 2.28125 -5.859375 2.0625 -5.859375 C 1.769531 -5.859375 1.578125 -5.707031 1.484375 -5.40625 C 1.398438 -5.113281 1.359375 -4.703125 1.359375 -4.171875 C 1.023438 -4.171875 0.765625 -4.226562 0.578125 -4.34375 C 0.390625 -4.457031 0.296875 -4.640625 0.296875 -4.890625 C 0.296875 -5.179688 0.445312 -5.425781 0.75 -5.625 C 1.0625 -5.832031 1.515625 -5.9375 2.109375 -5.9375 C 2.691406 -5.9375 3.148438 -5.816406 3.484375 -5.578125 C 3.828125 -5.347656 4 -5.007812 4 -4.5625 C 4 -4.332031 3.941406 -4.109375 3.828125 -3.890625 C 3.710938 -3.671875 3.519531 -3.484375 3.25 -3.328125 C 2.988281 -3.179688 2.628906 -3.085938 2.171875 -3.046875 C 2.828125 -3.046875 3.328125 -2.921875 3.671875 -2.671875 C 4.023438 -2.429688 4.203125 -2.0625 4.203125 -1.5625 C 4.203125 -1.164062 4.097656 -0.847656 3.890625 -0.609375 C 3.679688 -0.367188 3.40625 -0.191406 3.0625 -0.078125 C 2.726562 0.0234375 2.367188 0.078125 1.984375 0.078125 Z M 1.984375 0.078125 "/></g></g><g style="fill:#000000;fill-opacity:1;"><g transform="translate(155.022885, 143.417893)"><path style="stroke:none" d="M 0.796875 0 L 0.796875 -0.078125 L 1.46875 -0.078125 C 1.601562 -0.078125 1.703125 -0.113281 1.765625 -0.1875 C 1.835938 -0.269531 1.875 -0.410156 1.875 -0.609375 L 1.875 -5.21875 C 1.625 -4.863281 1.425781 -4.609375 1.28125 -4.453125 C 1.132812 -4.296875 0.988281 -4.21875 0.84375 -4.21875 C 0.695312 -4.21875 0.578125 -4.257812 0.484375 -4.34375 C 0.390625 -4.4375 0.34375 -4.578125 0.34375 -4.765625 C 0.613281 -4.773438 0.835938 -4.800781 1.015625 -4.84375 C 1.203125 -4.882812 1.375 -4.960938 1.53125 -5.078125 C 1.695312 -5.191406 1.894531 -5.363281 2.125 -5.59375 L 2.421875 -5.890625 L 3.09375 -5.890625 L 3.09375 -0.609375 C 3.09375 -0.441406 3.117188 -0.3125 3.171875 -0.21875 C 3.234375 -0.125 3.347656 -0.078125 3.515625 -0.078125 L 4.1875 -0.078125 L 4.1875 0 Z M 0.796875 0 "/></g></g><g style="fill:#000000;fill-opacity:1;"><g transform="translate(298.223982, 143.417893)"><path style="stroke:none" d="M 1.46875 0 L 1.46875 -0.078125 L 1.703125 -0.078125 C 1.890625 -0.078125 2.046875 -0.109375 2.171875 -0.171875 C 2.304688 -0.242188 2.375 -0.410156 2.375 -0.671875 L 2.375 -1.53125 L 0.109375 -1.53125 L 0.109375 -2.03125 L 2.4375 -5.859375 L 3.578125 -5.859375 L 3.578125 -2.0625 L 4.421875 -2.0625 L 4.421875 -1.53125 L 3.578125 -1.53125 L 3.578125 -0.671875 C 3.578125 -0.410156 3.640625 -0.242188 3.765625 -0.171875 C 3.898438 -0.109375 4.0625 -0.078125 4.25 -0.078125 L 4.359375 -0.078125 L 4.359375 0 Z M 0.234375 -2.0625 L 2.375 -2.0625 L 2.375 -3.875 C 2.375 -4.175781 2.375 -4.488281 2.375 -4.8125 C 2.375 -5.132812 2.378906 -5.414062 2.390625 -5.65625 C 2.359375 -5.601562 2.304688 -5.519531 2.234375 -5.40625 C 2.171875 -5.289062 2.097656 -5.164062 2.015625 -5.03125 C 1.941406 -4.894531 1.867188 -4.769531 1.796875 -4.65625 C 1.722656 -4.539062 1.664062 -4.445312 1.625 -4.375 Z M 0.234375 -2.0625 "/></g></g><g clip-rule="nonzero" clip-path="url(#779f35dbe9)"><path style=" stroke:none;fill-rule:nonzero;fill:#004aad;fill-opacity:1;" d="M 253.410156 129.058594 C 246.40625 129.058594 240.671875 123.328125 240.671875 116.320312 C 240.671875 109.316406 246.40625 103.582031 253.410156 103.582031 C 260.417969 103.582031 266.148438 109.316406 266.148438 116.320312 C 266.148438 123.328125 260.417969 129.058594 253.410156 129.058594 Z M 253.410156 129.058594 "/></g><g clip-rule="nonzero" clip-path="url(#b4ac202f09)"><path style=" stroke:none;fill-rule:nonzero;fill:#ff3131;fill-opacity:1;" d="M 157.3125 128.492188 C 150.597656 128.492188 145.105469 123 145.105469 116.289062 C 145.105469 109.574219 150.597656 104.082031 157.3125 104.082031 C 164.023438 104.082031 169.515625 109.574219 169.515625 116.289062 C 169.515625 123 164.023438 128.492188 157.3125 128.492188 Z M 157.3125 128.492188 "/></g><g clip-rule="nonzero" clip-path="url(#07549849d9)"><path style=" stroke:none;fill-rule:nonzero;fill:#ff3131;fill-opacity:1;" d="M 288.167969 104.152344 L 312.894531 104.152344 L 312.894531 128.5 L 288.167969 128.5 Z M 288.167969 104.152344 "/></g><g clip-rule="nonzero" clip-path="url(#c77a6f9b23)"><path style=" stroke:none;fill-rule:nonzero;fill:#004aad;fill-opacity:1;" d="M 192.867188 104.082031 L 217.59375 104.082031 L 217.59375 128.429688 L 192.867188 128.429688 Z M 192.867188 104.082031 "/></g></g></svg>