<svg xmlns="http://www.w3.org/2000/svg" xmlns:xlink="http://www.w3.org/1999/xlink" width="794" zoomAndPan="magnify" viewBox="0 0 595.5 283.499996" height="378" preserveAspectRatio="xMidYMid meet" version="1.2"><defs><clipPath id="d06a92a861"><path d="M 0.273438 0 L 594.726562 0 L 594.726562 283 L 0.273438 283 Z M 0.273438 0 "/></clipPath><clipPath id="c2608cb211"><path d="M 7.191406 189.390625 L 43.617188 189.390625 L 43.617188 225.8125 L 7.191406 225.8125 Z M 7.191406 189.390625 "/></clipPath><clipPath id="fd97d0ed6d"><path d="M 43.480469 192.414062 L 43.480469 222.789062 C 43.480469 224.378906 42.175781 225.679688 40.589844 225.679688 L 10.21875 225.679688 C 8.625 225.679688 7.324219 224.371094 7.324219 222.789062 L 7.324219 192.414062 C 7.324219 190.824219 8.632812 189.523438 10.21875 189.523438 L 40.589844 189.523438 C 42.179688 189.523438 43.480469 190.832031 43.480469 192.414062 "/></clipPath><clipPath id="3b6e8deb5c"><path d="M 10.21875 192.414062 L 40.589844 192.414062 L 40.589844 222.789062 L 10.21875 222.789062 Z M 10.21875 192.414062 "/></clipPath><clipPath id="43a5ecebaf"><path d="M 10.113281 199.527344 L 40.695312 199.527344 L 40.695312 222.890625 L 10.113281 222.890625 Z M 10.113281 199.527344 "/></clipPath><clipPath id="a5bd63c98f"><path d="M 33.351562 199.640625 C 35.515625 199.640625 36.242188 205.429688 36.242188 208.316406 C 36.242188 211.199219 34.933594 211.207031 33.351562 211.207031 C 31.765625 211.207031 30.457031 209.898438 30.457031 208.316406 C 30.457031 205.425781 31.175781 199.640625 33.351562 199.640625 M 33.351562 214.679688 C 34.578125 214.320312 36.027344 214.105469 37.691406 214.105469 C 37.691406 214.105469 39.140625 214.105469 40.582031 214.824219 L 40.582031 222.78125 L 10.21875 222.78125 C 10.21875 222.78125 13.832031 216.992188 18.890625 216.992188 C 23.949219 216.992188 26.847656 219.882812 26.847656 219.882812 C 26.847656 219.882812 28.296875 216.117188 33.355469 214.679688 Z M 33.351562 214.679688 "/></clipPath><clipPath id="666aa59465"><path d="M 16 198.152344 L 21.796875 198.152344 L 21.796875 203.992188 L 16 203.992188 Z M 16 198.152344 "/></clipPath><clipPath id="419c4c1b53"><path d="M 20.917969 199.066406 C 21.429688 199.578125 21.785156 200.292969 21.785156 201.089844 C 21.785156 201.886719 21.492188 202.609375 20.917969 203.113281 C 20.40625 203.625 19.6875 203.980469 18.890625 203.980469 C 18.097656 203.980469 17.371094 203.691406 16.867188 203.113281 C 16.355469 202.609375 16 201.886719 16 201.089844 C 16 200.292969 16.292969 199.570312 16.867188 199.066406 C 17.371094 198.554688 18.097656 198.199219 18.890625 198.199219 C 19.6875 198.199219 20.40625 198.5625 20.917969 199.066406 "/></clipPath><clipPath id="2e380cc6d0"><path d="M 6.847656 189.046875 L 43.957031 189.046875 L 43.957031 226.15625 L 6.847656 226.15625 Z M 6.847656 189.046875 "/></clipPath><clipPath id="8c5ddff37c"><path d="M 18.890625 203.621094 C 20.261719 203.621094 21.429688 202.460938 21.429688 201.082031 C 21.429688 199.703125 20.269531 198.546875 18.890625 198.546875 C 17.515625 198.546875 16.355469 199.703125 16.355469 201.082031 C 16.355469 202.460938 17.515625 203.621094 18.890625 203.621094 M 18.890625 207.234375 C 18.671875 207.234375 18.53125 207.09375 18.53125 206.875 L 18.53125 204.335938 C 17.875 204.257812 17.300781 204.046875 16.867188 203.621094 L 15.0625 205.425781 C 14.921875 205.566406 14.699219 205.566406 14.550781 205.425781 C 14.472656 205.347656 14.472656 205.28125 14.472656 205.132812 C 14.472656 204.984375 14.472656 204.914062 14.550781 204.839844 L 16.355469 203.035156 C 15.992188 202.601562 15.703125 202.027344 15.636719 201.375 L 13.109375 201.375 C 12.890625 201.375 12.746094 201.230469 12.746094 201.011719 C 12.746094 200.792969 12.890625 200.648438 13.109375 200.648438 L 15.644531 200.648438 C 15.722656 199.996094 15.929688 199.421875 16.363281 198.988281 L 14.558594 197.191406 C 14.480469 197.113281 14.480469 197.046875 14.480469 196.898438 C 14.480469 196.75 14.480469 196.679688 14.558594 196.605469 C 14.699219 196.464844 14.921875 196.464844 15.070312 196.605469 L 16.875 198.410156 C 17.308594 198.050781 17.882812 197.757812 18.535156 197.695312 L 18.535156 195.164062 C 18.535156 194.945312 18.679688 194.800781 18.898438 194.800781 C 19.121094 194.800781 19.261719 194.945312 19.261719 195.164062 L 19.261719 197.703125 C 19.914062 197.78125 20.492188 197.984375 20.925781 198.417969 L 22.730469 196.613281 C 22.871094 196.472656 23.089844 196.472656 23.238281 196.613281 C 23.316406 196.691406 23.316406 196.757812 23.316406 196.90625 C 23.316406 197.054688 23.316406 197.125 23.238281 197.195312 L 21.4375 199 C 21.796875 199.433594 22.089844 200.011719 22.152344 200.664062 L 24.691406 200.664062 C 24.910156 200.664062 25.050781 200.804688 25.050781 201.027344 C 25.050781 201.246094 24.910156 201.386719 24.691406 201.386719 L 22.144531 201.386719 C 22.066406 202.042969 21.863281 202.617188 21.429688 203.050781 L 23.234375 204.855469 C 23.3125 204.933594 23.3125 204.996094 23.3125 205.148438 C 23.3125 205.296875 23.3125 205.367188 23.234375 205.4375 C 23.089844 205.582031 22.871094 205.582031 22.722656 205.4375 L 20.917969 203.632812 C 20.484375 203.996094 19.90625 204.289062 19.253906 204.351562 L 19.253906 206.886719 C 19.253906 207.109375 19.113281 207.25 18.890625 207.25 M 33.351562 200.011719 C 31.6875 200.011719 30.8125 204.925781 30.8125 208.324219 C 30.8125 211.71875 31.972656 210.859375 33.351562 210.859375 C 34.726562 210.859375 35.886719 209.699219 35.886719 208.324219 C 35.886719 204.925781 35.019531 200.011719 33.351562 200.011719 M 40.589844 223.144531 L 13.109375 223.144531 C 12.890625 223.144531 12.746094 223 12.746094 222.78125 C 12.746094 222.558594 12.890625 222.417969 13.109375 222.417969 L 40.226562 222.417969 L 40.226562 192.769531 L 10.574219 192.769531 L 10.574219 221.046875 C 11.878906 219.597656 14.914062 216.636719 18.886719 216.636719 C 22.855469 216.636719 25.753906 218.519531 26.699219 219.3125 C 27.277344 218.226562 29.015625 215.625 32.988281 214.398438 L 32.988281 211.578125 C 31.394531 211.355469 30.097656 209.984375 30.097656 208.324219 C 30.097656 205.785156 30.671875 199.277344 33.351562 199.277344 C 36.027344 199.277344 36.605469 205.785156 36.605469 208.324219 C 36.605469 210.859375 35.296875 211.355469 33.710938 211.578125 L 33.710938 214.253906 C 34.871094 213.972656 36.171875 213.820312 37.683594 213.820312 C 39.195312 213.820312 38.046875 213.964844 38.046875 214.183594 C 38.046875 214.402344 37.902344 214.546875 37.683594 214.546875 C 36.09375 214.546875 34.722656 214.765625 33.5625 215.050781 C 33.484375 215.050781 33.421875 215.128906 33.34375 215.128906 C 28.570312 216.578125 27.199219 220.046875 27.199219 220.117188 C 27.121094 220.257812 27.054688 220.335938 26.90625 220.335938 C 26.757812 220.335938 26.6875 220.335938 26.542969 220.257812 C 26.542969 220.257812 23.652344 217.4375 18.878906 217.4375 C 14.105469 217.4375 10.566406 222.285156 10.488281 222.355469 C 10.410156 222.496094 10.195312 222.574219 10.054688 222.496094 C 9.910156 222.417969 9.832031 222.277344 9.832031 222.132812 L 9.832031 192.488281 C 9.832031 192.265625 9.976562 192.125 10.195312 192.125 L 40.582031 192.125 C 40.804688 192.125 40.945312 192.265625 40.945312 192.488281 L 40.945312 222.851562 C 40.945312 222.992188 40.804688 223.144531 40.582031 223.144531 Z M 10.21875 189.878906 C 8.847656 189.878906 7.679688 191.035156 7.679688 192.414062 L 7.679688 222.789062 C 7.679688 224.160156 8.839844 225.324219 10.21875 225.324219 L 40.589844 225.324219 C 41.960938 225.324219 43.125 224.164062 43.125 222.789062 L 43.125 192.414062 C 43.125 191.042969 41.96875 189.878906 40.589844 189.878906 Z M 40.589844 226.042969 L 10.21875 226.042969 C 8.414062 226.042969 6.964844 224.59375 6.964844 222.789062 L 6.964844 192.414062 C 6.964844 190.609375 8.414062 189.160156 10.21875 189.160156 L 40.589844 189.160156 C 42.394531 189.160156 43.84375 190.609375 43.84375 192.414062 L 43.84375 222.789062 C 43.84375 224.59375 42.394531 226.042969 40.589844 226.042969 "/></clipPath><clipPath id="b9ee7fe96e"><path d="M 6.675781 141.445312 L 42.289062 141.445312 L 42.289062 150.378906 L 6.675781 150.378906 Z M 6.675781 141.445312 "/></clipPath><clipPath id="352a1b2f4e"><path d="M 42.1875 150.375 L 6.675781 150.070312 L 6.75 141.445312 L 42.265625 141.75 Z M 42.1875 150.375 "/></clipPath><clipPath id="a598626eff"><path d="M 6 140.765625 L 42.964844 140.765625 L 42.964844 151.058594 L 6 151.058594 Z M 6 140.765625 "/></clipPath><clipPath id="b843ecf382"><path d="M 7.332031 149.429688 L 7.394531 142.097656 L 11.167969 142.128906 L 11.152344 143.492188 C 11.152344 143.667969 11.222656 143.832031 11.339844 143.953125 C 11.453125 144.074219 11.613281 144.144531 11.792969 144.144531 C 12.148438 144.144531 12.445312 143.859375 12.445312 143.503906 L 12.460938 142.132812 L 16.226562 142.167969 L 16.203125 144.734375 C 16.203125 144.910156 16.277344 145.074219 16.390625 145.195312 C 16.503906 145.316406 16.667969 145.386719 16.84375 145.386719 C 17.199219 145.394531 17.496094 145.105469 17.496094 144.75 L 17.519531 142.183594 L 21.292969 142.21875 L 21.277344 143.589844 C 21.277344 143.769531 21.347656 143.933594 21.460938 144.050781 C 21.574219 144.171875 21.738281 144.246094 21.917969 144.246094 C 22.273438 144.246094 22.5625 143.960938 22.570312 143.605469 L 22.585938 142.242188 L 26.351562 142.277344 L 26.320312 145.65625 C 26.320312 145.835938 26.394531 146 26.507812 146.121094 C 26.621094 146.242188 26.785156 146.3125 26.960938 146.3125 C 27.316406 146.320312 27.613281 146.027344 27.613281 145.671875 L 27.644531 142.289062 L 31.414062 142.324219 L 31.402344 143.691406 C 31.402344 143.867188 31.472656 144.03125 31.585938 144.152344 C 31.699219 144.273438 31.863281 144.34375 32.039062 144.34375 C 32.394531 144.34375 32.695312 144.058594 32.695312 143.703125 L 32.707031 142.339844 L 36.480469 142.367188 L 36.453125 145.75 C 36.453125 145.929688 36.523438 146.089844 36.636719 146.210938 C 36.75 146.332031 36.914062 146.402344 37.09375 146.402344 C 37.449219 146.402344 37.738281 146.121094 37.746094 145.765625 L 37.773438 142.382812 L 41.605469 142.417969 L 41.539062 149.75 Z M 42.832031 150.382812 L 42.902344 141.757812 C 42.910156 141.402344 42.621094 141.109375 42.265625 141.105469 L 6.753906 140.796875 C 6.398438 140.796875 6.101562 141.082031 6.101562 141.4375 L 6.03125 150.070312 C 6.03125 150.246094 6.101562 150.410156 6.214844 150.53125 C 6.328125 150.652344 6.492188 150.722656 6.671875 150.722656 L 42.179688 151.027344 C 42.351562 151.027344 42.519531 150.964844 42.640625 150.84375 C 42.761719 150.722656 42.832031 150.558594 42.832031 150.390625 "/></clipPath><clipPath id="ceb3b005a7"><path d="M 16.15625 146.046875 L 17.507812 146.046875 L 17.507812 147.738281 L 16.15625 147.738281 Z M 16.15625 146.046875 "/></clipPath><clipPath id="eecf479bb9"><path d="M 17.484375 146.765625 C 17.484375 146.410156 17.199219 146.121094 16.84375 146.113281 C 16.488281 146.105469 16.199219 146.398438 16.191406 146.753906 L 16.191406 147.066406 C 16.191406 147.242188 16.261719 147.40625 16.375 147.527344 C 16.488281 147.648438 16.652344 147.71875 16.828125 147.71875 C 17.183594 147.71875 17.476562 147.433594 17.484375 147.078125 Z M 17.484375 146.765625 "/></clipPath><clipPath id="f5ba1fd5d9"><path d="M 6.363281 241.019531 L 42.101562 241.019531 L 42.101562 276.929688 L 6.363281 276.929688 Z M 6.363281 241.019531 "/></clipPath><clipPath id="723af1c62c"><path d="M 6.367188 259 C 6.367188 268.867188 14.367188 276.867188 24.234375 276.867188 C 34.105469 276.867188 42.097656 268.867188 42.097656 259 C 42.097656 249.132812 34.097656 241.136719 24.234375 241.136719 C 14.375 241.136719 6.367188 249.136719 6.367188 259 "/></clipPath><clipPath id="e10a5cebd8"><path d="M 5.675781 240.503906 L 42.789062 240.503906 L 42.789062 277.617188 L 5.675781 277.617188 Z M 5.675781 240.503906 "/></clipPath><clipPath id="fb8e2b042b"><path d="M 24.234375 241.714844 C 14.695312 241.714844 6.941406 249.464844 6.941406 259 C 6.941406 268.535156 14.695312 276.292969 24.234375 276.292969 C 33.777344 276.292969 41.519531 268.539062 41.519531 259 C 41.519531 249.457031 33.769531 241.714844 24.234375 241.714844 M 24.234375 277.5 C 14.0625 277.5 5.792969 269.230469 5.792969 259.054688 C 5.792969 248.882812 14.0625 240.621094 24.234375 240.621094 C 34.410156 240.621094 42.671875 248.890625 42.671875 259.054688 C 42.613281 269.167969 34.402344 277.492188 24.226562 277.492188 Z M 24.234375 277.5 "/></clipPath><clipPath id="290ae82973"><path d="M 10.316406 245.144531 L 37.976562 245.144531 L 37.976562 272.804688 L 10.316406 272.804688 Z M 10.316406 245.144531 "/></clipPath><clipPath id="9f2ef81322"><path d="M 10.386719 259 C 10.386719 266.617188 16.5625 272.789062 24.171875 272.789062 C 31.78125 272.789062 37.960938 266.617188 37.960938 259.007812 C 37.960938 251.390625 31.789062 245.222656 24.179688 245.222656 C 16.570312 245.222656 10.394531 251.398438 10.394531 259.007812 "/></clipPath><clipPath id="317d7f8e02"><path d="M 9.800781 244.628906 L 38.664062 244.628906 L 38.664062 273.492188 L 9.800781 273.492188 Z M 9.800781 244.628906 "/></clipPath><clipPath id="de1b7618c6"><path d="M 24.171875 245.792969 C 16.875 245.792969 10.957031 251.710938 10.957031 259.007812 C 10.957031 266.304688 16.875 272.222656 24.171875 272.222656 C 31.46875 272.222656 37.386719 266.304688 37.386719 259.007812 C 37.386719 251.710938 31.46875 245.792969 24.171875 245.792969 M 24.171875 273.363281 C 16.242188 273.363281 9.8125 266.933594 9.8125 259.007812 C 9.8125 251.078125 16.25 244.648438 24.171875 244.648438 C 32.09375 244.648438 38.53125 251.085938 38.53125 259.007812 C 38.53125 266.929688 32.09375 273.363281 24.171875 273.363281 "/></clipPath><clipPath id="a23950cc7f"><path d="M 11.515625 246.34375 L 36.773438 246.34375 L 36.773438 271.601562 L 11.515625 271.601562 Z M 11.515625 246.34375 "/></clipPath><clipPath id="c713e9d63a"><path d="M 24.234375 257.855469 C 23.601562 257.855469 23.085938 258.375 23.085938 259.007812 C 23.085938 259.640625 23.601562 260.15625 24.234375 260.15625 C 24.867188 260.15625 25.386719 259.640625 25.386719 259.007812 C 25.386719 258.375 24.867188 257.855469 24.234375 257.855469 M 24.234375 261.246094 C 22.96875 261.246094 21.941406 260.214844 21.941406 258.949219 C 21.941406 257.683594 22.976562 256.65625 24.234375 256.65625 C 25.492188 256.65625 26.53125 257.691406 26.53125 258.949219 C 26.53125 260.207031 25.492188 261.246094 24.234375 261.246094 M 11.597656 258.429688 L 13.203125 258.429688 L 13.203125 259.582031 L 11.597656 259.582031 Z M 35.148438 258.429688 L 36.753906 258.429688 L 36.753906 259.582031 L 35.148438 259.582031 Z M 23.601562 269.976562 L 24.753906 269.976562 L 24.753906 271.582031 L 23.601562 271.582031 Z M 23.601562 246.425781 L 24.753906 246.425781 L 24.753906 248.03125 L 23.601562 248.03125 Z M 23.601562 246.425781 "/></clipPath><clipPath id="a13242ffe9"><path d="M 25 250.125 L 33 250.125 L 33 258.371094 L 25 258.371094 Z M 25 250.125 "/></clipPath><clipPath id="a4294f4595"><path d="M 25.039062 257.386719 L 32.183594 250.238281 L 32.996094 251.050781 L 25.847656 258.203125 Z M 25.039062 257.386719 "/></clipPath><clipPath id="35daa625a3"><path d="M 23.601562 260.667969 L 24.753906 260.667969 L 24.753906 266.410156 L 23.601562 266.410156 Z M 23.601562 260.667969 "/></clipPath><clipPath id="1b0f811cbb"><path d="M 16.328125 251.15625 L 24.746094 251.15625 L 24.746094 259.402344 L 16.328125 259.402344 Z M 16.328125 251.15625 "/></clipPath><clipPath id="c56d9c3993"><path d="M 16.46875 252.03125 L 17.28125 251.21875 L 24.632812 258.566406 L 23.824219 259.375 Z M 16.46875 252.03125 "/></clipPath><clipPath id="a11cba7b74"><path d="M 10 67.203125 L 37.777344 67.203125 L 37.777344 104.113281 L 10 104.113281 Z M 10 67.203125 "/></clipPath><clipPath id="c765f52336"><path d="M 23.886719 67.214844 C 21.71875 67.214844 19.949219 68.984375 19.949219 71.152344 C 19.949219 72.464844 20.609375 73.625 21.605469 74.339844 L 10.074219 99.042969 L 10.066406 99.050781 L 10.066406 99.058594 C 10.023438 99.144531 10.011719 99.230469 10.011719 99.320312 L 10.011719 103.464844 C 10.011719 103.804688 10.289062 104.089844 10.636719 104.089844 L 37.144531 104.089844 C 37.484375 104.089844 37.769531 103.8125 37.769531 103.464844 L 37.769531 99.328125 C 37.769531 99.242188 37.746094 99.15625 37.71875 99.078125 C 37.71875 99.074219 37.710938 99.066406 37.710938 99.066406 L 37.710938 99.058594 L 26.171875 74.339844 C 27.167969 73.625 27.828125 72.464844 27.828125 71.152344 C 27.820312 68.984375 26.054688 67.214844 23.886719 67.214844 Z M 23.886719 67.214844 "/></clipPath><clipPath id="38ba3f5640"><path d="M 11.492188 74.832031 L 36.277344 74.832031 L 36.277344 98.800781 L 11.492188 98.800781 Z M 11.492188 74.832031 "/></clipPath><clipPath id="f104237575"><path d="M 22.714844 74.886719 C 23.082031 75.003906 23.472656 75.085938 23.878906 75.085938 C 24.285156 75.085938 24.675781 75.003906 25.050781 74.886719 L 32.332031 90.496094 C 31.230469 90.738281 30.324219 91.5625 30.003906 92.6875 C 29.625 94.019531 30.179688 95.449219 31.351562 96.179688 C 32.460938 96.863281 33.867188 96.765625 34.875 95.960938 L 36.15625 98.710938 L 19.269531 98.710938 C 19.429688 98.398438 19.53125 98.050781 19.53125 97.671875 C 19.53125 96.421875 18.5 95.394531 17.25 95.394531 C 16 95.394531 14.976562 96.421875 14.976562 97.671875 C 14.976562 98.050781 15.074219 98.398438 15.238281 98.710938 L 11.601562 98.710938 Z M 22.714844 74.886719 "/></clipPath><clipPath id="7475e90665"><path d="M 22.386719 80.414062 L 27 80.414062 L 27 85.046875 L 22.386719 85.046875 Z M 22.386719 80.414062 "/></clipPath><clipPath id="a0a90412f4"><path d="M 24.710938 80.480469 C 23.460938 80.480469 22.429688 81.511719 22.429688 82.761719 C 22.429688 84.011719 23.460938 85.042969 24.710938 85.042969 C 25.960938 85.042969 26.992188 84.011719 26.992188 82.761719 C 26.992188 81.511719 25.960938 80.480469 24.710938 80.480469 "/></clipPath><clipPath id="65464628eb"><path d="M 23.613281 81.640625 L 25.792969 81.640625 L 25.792969 83.820312 L 23.613281 83.820312 Z M 23.613281 81.640625 "/></clipPath><clipPath id="ae237b3e60"><path d="M 24.710938 81.722656 C 25.292969 81.722656 25.746094 82.179688 25.746094 82.761719 C 25.746094 83.34375 25.292969 83.796875 24.710938 83.796875 C 24.128906 83.796875 23.671875 83.34375 23.671875 82.761719 C 23.671875 82.179688 24.128906 81.722656 24.710938 81.722656 "/></clipPath><clipPath id="17de93a2b0"><path d="M 19.933594 87.089844 L 26.199219 87.089844 L 26.199219 93.355469 L 19.933594 93.355469 Z M 19.933594 87.089844 "/></clipPath><clipPath id="1410bcb368"><path d="M 23.054688 87.109375 C 21.347656 87.109375 19.949219 88.507812 19.949219 90.214844 C 19.949219 91.917969 21.347656 93.316406 23.054688 93.316406 C 24.761719 93.316406 26.160156 91.917969 26.160156 90.214844 C 26.160156 88.507812 24.765625 87.109375 23.054688 87.109375 "/></clipPath><clipPath id="df6af4215d"><path d="M 21.160156 88.316406 L 24.972656 88.316406 L 24.972656 92.128906 L 21.160156 92.128906 Z M 21.160156 88.316406 "/></clipPath><clipPath id="dd4f2f1ae7"><path d="M 23.054688 88.351562 C 24.09375 88.351562 24.917969 89.175781 24.917969 90.214844 C 24.917969 91.25 24.09375 92.082031 23.054688 92.082031 C 22.015625 92.082031 21.191406 91.25 21.191406 90.21875 C 21.191406 89.191406 22.015625 88.359375 23.054688 88.359375 "/></clipPath><clipPath id="6b84d0a8a7"><path d="M 31.101562 91.582031 L 34.371094 91.582031 L 34.371094 95.398438 L 31.101562 95.398438 Z M 31.101562 91.582031 "/></clipPath><clipPath id="3107f5f37f"><path d="M 32.878906 91.667969 L 34.34375 94.808594 C 34.300781 94.839844 34.257812 94.867188 34.222656 94.902344 C 33.613281 95.472656 32.71875 95.554688 32.015625 95.121094 C 31.308594 94.6875 30.976562 93.828125 31.203125 93.027344 C 31.425781 92.253906 32.097656 91.71875 32.878906 91.675781 "/></clipPath><clipPath id="9d533219dd"><path d="M 16.121094 96.625 L 18.300781 96.625 L 18.300781 98.800781 L 16.121094 98.800781 Z M 16.121094 96.625 "/></clipPath><clipPath id="926d3a81e6"><path d="M 17.257812 96.636719 C 17.839844 96.636719 18.292969 97.089844 18.292969 97.671875 C 18.292969 98.253906 17.839844 98.710938 17.257812 98.710938 C 16.675781 98.710938 16.21875 98.253906 16.21875 97.671875 C 16.21875 97.089844 16.675781 96.636719 17.257812 96.636719 "/></clipPath><clipPath id="20359a14e0"><path d="M 21.160156 68.429688 L 26.609375 68.429688 L 26.609375 73.878906 L 21.160156 73.878906 Z M 21.160156 68.429688 "/></clipPath><clipPath id="834b0f857f"><path d="M 23.886719 68.457031 C 25.378906 68.457031 26.578125 69.660156 26.578125 71.152344 C 26.578125 72.644531 25.378906 73.84375 23.886719 73.84375 C 22.394531 73.84375 21.191406 72.644531 21.191406 71.152344 C 21.191406 69.660156 22.394531 68.457031 23.886719 68.457031 "/></clipPath><clipPath id="83b2dca5b8"><path d="M 11.246094 99.953125 L 36.523438 99.953125 L 36.523438 102.851562 L 11.246094 102.851562 Z M 11.246094 99.953125 "/></clipPath><clipPath id="2951236234"><path d="M 23.203125 68.429688 L 26.609375 68.429688 L 26.609375 73.878906 L 23.203125 73.878906 Z M 23.203125 68.429688 "/></clipPath><clipPath id="fff0a63416"><path d="M 23.886719 68.457031 C 23.6875 68.457031 23.503906 68.480469 23.316406 68.523438 C 24.53125 68.777344 25.441406 69.851562 25.441406 71.152344 C 25.441406 72.453125 24.539062 73.523438 23.316406 73.78125 C 23.503906 73.816406 23.695312 73.84375 23.886719 73.84375 C 25.378906 73.84375 26.578125 72.644531 26.578125 71.152344 C 26.578125 69.660156 25.378906 68.457031 23.886719 68.457031 Z M 23.886719 68.457031 "/></clipPath><clipPath id="51f7552638"><path d="M 24 74.832031 L 32.464844 74.832031 L 32.464844 96.625 L 24 96.625 Z M 24 74.832031 "/></clipPath><clipPath id="7391176009"><path d="M 25.050781 74.886719 C 24.71875 74.996094 24.363281 75.058594 24 75.074219 L 31.195312 90.492188 C 30.09375 90.730469 29.1875 91.554688 28.867188 92.679688 C 28.488281 94.015625 29.042969 95.441406 30.214844 96.175781 C 30.882812 96.585938 31.664062 96.707031 32.398438 96.566406 C 32.035156 96.5 31.679688 96.375 31.359375 96.175781 C 30.1875 95.441406 29.632812 94.015625 30.011719 92.679688 C 30.324219 91.554688 31.238281 90.730469 32.339844 90.492188 Z M 25.050781 74.886719 "/></clipPath><clipPath id="c45239457b"><path d="M 13.804688 95.261719 L 16.800781 95.261719 L 16.800781 98.800781 L 13.804688 98.800781 Z M 13.804688 95.261719 "/></clipPath><clipPath id="0759eb4746"><path d="M 16.113281 95.394531 C 14.863281 95.394531 13.832031 96.421875 13.832031 97.671875 C 13.832031 98.050781 13.933594 98.398438 14.09375 98.710938 L 15.230469 98.710938 C 15.070312 98.398438 14.96875 98.050781 14.96875 97.671875 C 14.96875 96.621094 15.703125 95.734375 16.683594 95.476562 C 16.496094 95.429688 16.3125 95.394531 16.113281 95.394531 Z M 16.113281 95.394531 "/></clipPath><clipPath id="056daa9372"><path d="M 33.964844 95.941406 L 36.277344 95.941406 L 36.277344 98.800781 L 33.964844 98.800781 Z M 33.964844 95.941406 "/></clipPath><clipPath id="84549f415b"><path d="M 34.882812 95.960938 C 34.605469 96.179688 34.292969 96.34375 33.972656 96.457031 L 35.027344 98.710938 L 36.164062 98.710938 Z M 34.882812 95.960938 "/></clipPath><clipPath id="256f2e5847"><path d="M 35.382812 99.953125 L 36.519531 99.953125 L 36.519531 102.851562 L 35.382812 102.851562 Z M 35.382812 99.953125 "/></clipPath><clipPath id="1a210c912f"><path d="M 64.710938 83.527344 L 70.574219 83.527344 L 70.574219 89.390625 L 64.710938 89.390625 Z M 64.710938 83.527344 "/></clipPath><clipPath id="d2ab822bb7"><path d="M 70.574219 86.457031 C 70.574219 88.074219 69.257812 89.382812 67.648438 89.382812 C 66.035156 89.382812 64.710938 88.074219 64.710938 86.457031 C 64.710938 84.835938 66.027344 83.527344 67.640625 83.527344 C 69.253906 83.527344 70.574219 84.84375 70.574219 86.457031 "/></clipPath><clipPath id="47f04c9861"><path d="M 65.300781 144.800781 L 71.160156 144.800781 L 71.160156 150.664062 L 65.300781 150.664062 Z M 65.300781 144.800781 "/></clipPath><clipPath id="76b64c9136"><path d="M 71.160156 147.730469 C 71.160156 149.347656 69.847656 150.65625 68.234375 150.65625 C 66.621094 150.65625 65.300781 149.347656 65.300781 147.730469 C 65.300781 146.109375 66.613281 144.800781 68.226562 144.800781 C 69.839844 144.800781 71.160156 146.117188 71.160156 147.730469 "/></clipPath><clipPath id="d2e520bb80"><path d="M 65.300781 206.390625 L 71.160156 206.390625 L 71.160156 212.253906 L 65.300781 212.253906 Z M 65.300781 206.390625 "/></clipPath><clipPath id="fcf93901db"><path d="M 71.160156 209.320312 C 71.160156 210.9375 69.847656 212.246094 68.234375 212.246094 C 66.621094 212.246094 65.300781 210.9375 65.300781 209.320312 C 65.300781 207.699219 66.613281 206.390625 68.226562 206.390625 C 69.839844 206.390625 71.160156 207.707031 71.160156 209.320312 "/></clipPath><clipPath id="6ed5f51959"><path d="M 65.300781 261.1875 L 71.160156 261.1875 L 71.160156 267.046875 L 65.300781 267.046875 Z M 65.300781 261.1875 "/></clipPath><clipPath id="2f2c21bf0a"><path d="M 71.160156 264.113281 C 71.160156 265.734375 69.847656 267.042969 68.234375 267.042969 C 66.621094 267.042969 65.300781 265.734375 65.300781 264.113281 C 65.300781 262.496094 66.613281 261.1875 68.226562 261.1875 C 69.839844 261.1875 71.160156 262.5 71.160156 264.113281 "/></clipPath><clipPath id="8e1a8653b9"><path d="M 492.894531 79.011719 L 498.757812 79.011719 L 498.757812 84.875 L 492.894531 84.875 Z M 492.894531 79.011719 "/></clipPath><clipPath id="96019e885c"><path d="M 498.757812 81.941406 C 498.757812 83.558594 497.441406 84.867188 495.828125 84.867188 C 494.21875 84.867188 492.894531 83.558594 492.894531 81.941406 C 492.894531 80.320312 494.210938 79.011719 495.824219 79.011719 C 497.433594 79.011719 498.757812 80.328125 498.757812 81.941406 "/></clipPath><clipPath id="474db9b325"><path d="M 493.480469 140.289062 L 499.34375 140.289062 L 499.34375 146.148438 L 493.480469 146.148438 Z M 493.480469 140.289062 "/></clipPath><clipPath id="992015cfd5"><path d="M 499.34375 143.214844 C 499.34375 144.835938 498.027344 146.140625 496.417969 146.140625 C 494.804688 146.140625 493.480469 144.835938 493.480469 143.214844 C 493.480469 141.59375 494.796875 140.289062 496.410156 140.289062 C 498.023438 140.289062 499.34375 141.601562 499.34375 143.214844 "/></clipPath><clipPath id="24d6b057be"><path d="M 493.480469 201.878906 L 499.34375 201.878906 L 499.34375 207.738281 L 493.480469 207.738281 Z M 493.480469 201.878906 "/></clipPath><clipPath id="3ebf25ca33"><path d="M 499.34375 204.804688 C 499.34375 206.425781 498.027344 207.730469 496.417969 207.730469 C 494.804688 207.730469 493.480469 206.425781 493.480469 204.804688 C 493.480469 203.183594 494.796875 201.878906 496.410156 201.878906 C 498.023438 201.878906 499.34375 203.191406 499.34375 204.804688 "/></clipPath><clipPath id="e9bb5ac9d3"><path d="M 493.480469 256.671875 L 499.34375 256.671875 L 499.34375 262.535156 L 493.480469 262.535156 Z M 493.480469 256.671875 "/></clipPath><clipPath id="7542eb8eb6"><path d="M 499.34375 259.601562 C 499.34375 261.21875 498.027344 262.527344 496.417969 262.527344 C 494.804688 262.527344 493.480469 261.21875 493.480469 259.601562 C 493.480469 257.980469 494.796875 256.671875 496.410156 256.671875 C 498.023438 256.671875 499.34375 257.988281 499.34375 259.601562 "/></clipPath><clipPath id="64746e9628"><path d="M 503.273438 244.71875 L 586.921875 244.71875 L 586.921875 277.125 L 503.273438 277.125 Z M 503.273438 244.71875 "/></clipPath><clipPath id="9375b17811"><path d="M 502.894531 244.34375 L 587.300781 244.34375 L 587.300781 245.09375 L 502.894531 245.09375 Z M 586.546875 245.09375 L 587.300781 245.09375 L 587.300781 276.746094 L 586.546875 276.746094 Z M 502.894531 245.09375 L 503.648438 245.09375 L 503.648438 276.746094 L 502.894531 276.746094 Z M 502.894531 276.746094 L 587.300781 276.746094 L 587.300781 277.5 L 502.894531 277.5 Z M 502.894531 276.746094 "/></clipPath><clipPath id="567fc2829b"><path d="M 523.003906 127.417969 L 559.941406 127.417969 L 559.941406 159.347656 L 523.003906 159.347656 Z M 523.003906 127.417969 "/></clipPath><clipPath id="60380b255b"><path d="M 541.519531 127.5 L 523.140625 159.335938 L 559.898438 159.335938 Z M 541.519531 127.5 "/></clipPath><clipPath id="17a159fec8"><path d="M 522.375 126.636719 L 560.566406 126.636719 L 560.566406 159.816406 L 522.375 159.816406 Z M 522.375 126.636719 "/></clipPath><clipPath id="7d9aa3a1f3"><path d="M 541.84375 127.683594 L 523.464844 159.519531 L 523.140625 159.335938 L 523.140625 158.957031 L 559.898438 158.957031 L 559.898438 159.335938 L 559.570312 159.519531 L 541.191406 127.683594 L 541.519531 127.5 L 541.84375 127.683594 M 541.191406 127.304688 L 541.519531 126.746094 L 541.84375 127.304688 L 560.226562 159.140625 L 560.550781 159.703125 L 522.484375 159.703125 L 522.8125 159.140625 Z M 541.191406 127.304688 "/></clipPath><clipPath id="648628eab8"><path d="M 523.445312 188.394531 L 561.21875 188.394531 L 561.21875 226.164062 L 523.445312 226.164062 Z M 523.445312 188.394531 "/></clipPath><clipPath id="aadd38b5d0"><path d="M 542.332031 226.15625 C 531.921875 226.15625 523.453125 217.6875 523.453125 207.28125 C 523.453125 196.871094 531.921875 188.402344 542.332031 188.402344 C 552.742188 188.402344 561.210938 196.871094 561.210938 207.28125 C 561.210938 217.6875 552.742188 226.15625 542.332031 226.15625 "/></clipPath><clipPath id="ec434c9877"><path d="M 523 188 L 561.753906 188 L 561.753906 226.699219 L 523 226.699219 Z M 523 188 "/></clipPath><clipPath id="9230263c86"><path d="M 542.332031 188.027344 C 531.71875 188.027344 523.078125 196.664062 523.078125 207.28125 C 523.078125 217.894531 531.71875 226.535156 542.332031 226.535156 C 552.945312 226.535156 561.585938 217.894531 561.585938 207.28125 C 561.585938 196.664062 552.945312 188.027344 542.332031 188.027344 M 542.332031 188.777344 C 552.546875 188.777344 560.832031 197.0625 560.832031 207.28125 C 560.832031 217.496094 552.546875 225.78125 542.332031 225.78125 C 532.117188 225.78125 523.832031 217.496094 523.832031 207.28125 C 523.832031 197.0625 532.117188 188.777344 542.332031 188.777344 "/></clipPath><clipPath id="ee8cb6a7c1"><path d="M 524.933594 65.851562 L 560.171875 65.851562 L 560.171875 101.089844 L 524.933594 101.089844 Z M 524.933594 65.851562 "/></clipPath><clipPath id="dfa3b05027"><path d="M 524.558594 65.472656 L 560.550781 65.472656 L 560.550781 66.226562 L 524.558594 66.226562 Z M 559.796875 66.226562 L 560.550781 66.226562 L 560.550781 100.714844 L 559.796875 100.714844 Z M 524.558594 66.226562 L 525.3125 66.226562 L 525.3125 100.714844 L 524.558594 100.714844 Z M 524.558594 100.714844 L 560.550781 100.714844 L 560.550781 101.464844 L 524.558594 101.464844 Z M 524.558594 100.714844 "/></clipPath></defs><g id="450311b528"><g clip-rule="nonzero" clip-path="url(#d06a92a861)"><path style=" stroke:none;fill-rule:nonzero;fill:#ffffff;fill-opacity:1;" d="M 0.273438 0 L 594.726562 0 L 594.726562 283 L 0.273438 283 Z M 0.273438 0 "/><path style=" stroke:none;fill-rule:nonzero;fill:#ffffff;fill-opacity:1;" d="M 0.273438 0 L 594.800781 0 L 594.800781 283.035156 L 0.273438 283.035156 Z M 0.273438 0 "/></g><g clip-rule="nonzero" clip-path="url(#c2608cb211)"><g clip-rule="nonzero" clip-path="url(#fd97d0ed6d)"><path style=" stroke:none;fill-rule:nonzero;fill:#fed0a2;fill-opacity:1;" d="M 3.410156 185.609375 L 47.394531 185.609375 L 47.394531 229.59375 L 3.410156 229.59375 Z M 3.410156 185.609375 "/></g></g><g clip-rule="nonzero" clip-path="url(#3b6e8deb5c)"><path style=" stroke:none;fill-rule:nonzero;fill:#edf5f7;fill-opacity:1;" d="M 3.410156 185.609375 L 47.394531 185.609375 L 47.394531 229.59375 L 3.410156 229.59375 Z M 3.410156 185.609375 "/></g><g clip-rule="nonzero" clip-path="url(#43a5ecebaf)"><g clip-rule="nonzero" clip-path="url(#a5bd63c98f)"><path style=" stroke:none;fill-rule:nonzero;fill:#6dc387;fill-opacity:1;" d="M 3.410156 185.609375 L 47.394531 185.609375 L 47.394531 229.59375 L 3.410156 229.59375 Z M 3.410156 185.609375 "/></g></g><g clip-rule="nonzero" clip-path="url(#666aa59465)"><g clip-rule="nonzero" clip-path="url(#419c4c1b53)"><path style=" stroke:none;fill-rule:nonzero;fill:#ffe17a;fill-opacity:1;" d="M 3.410156 185.609375 L 47.394531 185.609375 L 47.394531 229.59375 L 3.410156 229.59375 Z M 3.410156 185.609375 "/></g></g><g clip-rule="nonzero" clip-path="url(#2e380cc6d0)"><g clip-rule="nonzero" clip-path="url(#8c5ddff37c)"><path style=" stroke:none;fill-rule:nonzero;fill:#515760;fill-opacity:1;" d="M 3.410156 185.609375 L 47.394531 185.609375 L 47.394531 229.59375 L 3.410156 229.59375 Z M 3.410156 185.609375 "/></g></g><g clip-rule="nonzero" clip-path="url(#b9ee7fe96e)"><g clip-rule="nonzero" clip-path="url(#352a1b2f4e)"><path style=" stroke:none;fill-rule:nonzero;fill:#fdb959;fill-opacity:1;" d="M 2.480469 137.246094 L 46.484375 137.246094 L 46.484375 154.578125 L 2.480469 154.578125 Z M 2.480469 137.246094 "/></g></g><g clip-rule="nonzero" clip-path="url(#a598626eff)"><g clip-rule="nonzero" clip-path="url(#b843ecf382)"><path style=" stroke:none;fill-rule:nonzero;fill:#603a16;fill-opacity:1;" d="M 2.480469 137.246094 L 46.484375 137.246094 L 46.484375 154.578125 L 2.480469 154.578125 Z M 2.480469 137.246094 "/></g></g><g clip-rule="nonzero" clip-path="url(#ceb3b005a7)"><g clip-rule="nonzero" clip-path="url(#eecf479bb9)"><path style=" stroke:none;fill-rule:nonzero;fill:#603a16;fill-opacity:1;" d="M 2.480469 137.246094 L 46.484375 137.246094 L 46.484375 154.578125 L 2.480469 154.578125 Z M 2.480469 137.246094 "/></g></g><g clip-rule="nonzero" clip-path="url(#f5ba1fd5d9)"><g clip-rule="nonzero" clip-path="url(#723af1c62c)"><path style=" stroke:none;fill-rule:nonzero;fill:#67ad9c;fill-opacity:1;" d="M 2.238281 237.066406 L 46.222656 237.066406 L 46.222656 281.050781 L 2.238281 281.050781 Z M 2.238281 237.066406 "/></g></g><g clip-rule="nonzero" clip-path="url(#e10a5cebd8)"><g clip-rule="nonzero" clip-path="url(#fb8e2b042b)"><path style=" stroke:none;fill-rule:nonzero;fill:#211d1c;fill-opacity:1;" d="M 2.238281 237.066406 L 46.222656 237.066406 L 46.222656 281.050781 L 2.238281 281.050781 Z M 2.238281 237.066406 "/></g></g><g clip-rule="nonzero" clip-path="url(#290ae82973)"><g clip-rule="nonzero" clip-path="url(#9f2ef81322)"><path style=" stroke:none;fill-rule:nonzero;fill:#e1e0a6;fill-opacity:1;" d="M 2.238281 237.066406 L 46.222656 237.066406 L 46.222656 281.050781 L 2.238281 281.050781 Z M 2.238281 237.066406 "/></g></g><g clip-rule="nonzero" clip-path="url(#317d7f8e02)"><g clip-rule="nonzero" clip-path="url(#de1b7618c6)"><path style=" stroke:none;fill-rule:nonzero;fill:#211d1c;fill-opacity:1;" d="M 2.238281 237.066406 L 46.222656 237.066406 L 46.222656 281.050781 L 2.238281 281.050781 Z M 2.238281 237.066406 "/></g></g><g clip-rule="nonzero" clip-path="url(#a23950cc7f)"><g clip-rule="nonzero" clip-path="url(#c713e9d63a)"><path style=" stroke:none;fill-rule:nonzero;fill:#211d1c;fill-opacity:1;" d="M 2.238281 237.066406 L 46.222656 237.066406 L 46.222656 281.050781 L 2.238281 281.050781 Z M 2.238281 237.066406 "/></g></g><g clip-rule="nonzero" clip-path="url(#a13242ffe9)"><g clip-rule="nonzero" clip-path="url(#a4294f4595)"><path style=" stroke:none;fill-rule:nonzero;fill:#211d1c;fill-opacity:1;" d="M 2.238281 237.066406 L 46.222656 237.066406 L 46.222656 281.050781 L 2.238281 281.050781 Z M 2.238281 237.066406 "/></g></g><g clip-rule="nonzero" clip-path="url(#35daa625a3)"><path style=" stroke:none;fill-rule:nonzero;fill:#211d1c;fill-opacity:1;" d="M 2.238281 237.066406 L 46.222656 237.066406 L 46.222656 281.050781 L 2.238281 281.050781 Z M 2.238281 237.066406 "/></g><g clip-rule="nonzero" clip-path="url(#1b0f811cbb)"><g clip-rule="nonzero" clip-path="url(#c56d9c3993)"><path style=" stroke:none;fill-rule:nonzero;fill:#bc3526;fill-opacity:1;" d="M 2.238281 237.066406 L 46.222656 237.066406 L 46.222656 281.050781 L 2.238281 281.050781 Z M 2.238281 237.066406 "/></g></g><g clip-rule="nonzero" clip-path="url(#a11cba7b74)"><g clip-rule="nonzero" clip-path="url(#c765f52336)"><path style=" stroke:none;fill-rule:nonzero;fill:#3b322d;fill-opacity:1;" d="M 6.449219 63.664062 L 41.316406 63.664062 L 41.316406 107.65625 L 6.449219 107.65625 Z M 6.449219 63.664062 "/></g></g><g clip-rule="nonzero" clip-path="url(#38ba3f5640)"><g clip-rule="nonzero" clip-path="url(#f104237575)"><path style=" stroke:none;fill-rule:nonzero;fill:#58c2ad;fill-opacity:1;" d="M 6.449219 63.664062 L 41.316406 63.664062 L 41.316406 107.65625 L 6.449219 107.65625 Z M 6.449219 63.664062 "/></g></g><g clip-rule="nonzero" clip-path="url(#7475e90665)"><g clip-rule="nonzero" clip-path="url(#a0a90412f4)"><path style=" stroke:none;fill-rule:nonzero;fill:#3b322d;fill-opacity:1;" d="M 6.449219 63.664062 L 41.316406 63.664062 L 41.316406 107.65625 L 6.449219 107.65625 Z M 6.449219 63.664062 "/></g></g><g clip-rule="nonzero" clip-path="url(#65464628eb)"><g clip-rule="nonzero" clip-path="url(#ae237b3e60)"><path style=" stroke:none;fill-rule:nonzero;fill:#fbd119;fill-opacity:1;" d="M 6.449219 63.664062 L 41.316406 63.664062 L 41.316406 107.65625 L 6.449219 107.65625 Z M 6.449219 63.664062 "/></g></g><g clip-rule="nonzero" clip-path="url(#17de93a2b0)"><g clip-rule="nonzero" clip-path="url(#1410bcb368)"><path style=" stroke:none;fill-rule:nonzero;fill:#3b322d;fill-opacity:1;" d="M 6.449219 63.664062 L 41.316406 63.664062 L 41.316406 107.65625 L 6.449219 107.65625 Z M 6.449219 63.664062 "/></g></g><g clip-rule="nonzero" clip-path="url(#df6af4215d)"><g clip-rule="nonzero" clip-path="url(#dd4f2f1ae7)"><path style=" stroke:none;fill-rule:nonzero;fill:#fbd119;fill-opacity:1;" d="M 6.449219 63.664062 L 41.316406 63.664062 L 41.316406 107.65625 L 6.449219 107.65625 Z M 6.449219 63.664062 "/></g></g><g clip-rule="nonzero" clip-path="url(#6b84d0a8a7)"><g clip-rule="nonzero" clip-path="url(#3107f5f37f)"><path style=" stroke:none;fill-rule:nonzero;fill:#fbd119;fill-opacity:1;" d="M 6.449219 63.664062 L 41.316406 63.664062 L 41.316406 107.65625 L 6.449219 107.65625 Z M 6.449219 63.664062 "/></g></g><g clip-rule="nonzero" clip-path="url(#9d533219dd)"><g clip-rule="nonzero" clip-path="url(#926d3a81e6)"><path style=" stroke:none;fill-rule:nonzero;fill:#fbd119;fill-opacity:1;" d="M 6.449219 63.664062 L 41.316406 63.664062 L 41.316406 107.65625 L 6.449219 107.65625 Z M 6.449219 63.664062 "/></g></g><g clip-rule="nonzero" clip-path="url(#20359a14e0)"><g clip-rule="nonzero" clip-path="url(#834b0f857f)"><path style=" stroke:none;fill-rule:nonzero;fill:#f19f4c;fill-opacity:1;" d="M 6.449219 63.664062 L 41.316406 63.664062 L 41.316406 107.65625 L 6.449219 107.65625 Z M 6.449219 63.664062 "/></g></g><g clip-rule="nonzero" clip-path="url(#83b2dca5b8)"><path style=" stroke:none;fill-rule:nonzero;fill:#f19f4c;fill-opacity:1;" d="M 6.449219 63.664062 L 41.316406 63.664062 L 41.316406 107.65625 L 6.449219 107.65625 Z M 6.449219 63.664062 "/></g><g clip-rule="nonzero" clip-path="url(#2951236234)"><g clip-rule="nonzero" clip-path="url(#fff0a63416)"><path style=" stroke:none;fill-rule:nonzero;fill:#c2803b;fill-opacity:1;" d="M 6.449219 63.664062 L 41.316406 63.664062 L 41.316406 107.65625 L 6.449219 107.65625 Z M 6.449219 63.664062 "/></g></g><g clip-rule="nonzero" clip-path="url(#51f7552638)"><g clip-rule="nonzero" clip-path="url(#7391176009)"><path style=" stroke:none;fill-rule:nonzero;fill:#29ad93;fill-opacity:1;" d="M 6.449219 63.664062 L 41.316406 63.664062 L 41.316406 107.65625 L 6.449219 107.65625 Z M 6.449219 63.664062 "/></g></g><g clip-rule="nonzero" clip-path="url(#c45239457b)"><g clip-rule="nonzero" clip-path="url(#0759eb4746)"><path style=" stroke:none;fill-rule:nonzero;fill:#29ad93;fill-opacity:1;" d="M 6.449219 63.664062 L 41.316406 63.664062 L 41.316406 107.65625 L 6.449219 107.65625 Z M 6.449219 63.664062 "/></g></g><g clip-rule="nonzero" clip-path="url(#056daa9372)"><g clip-rule="nonzero" clip-path="url(#84549f415b)"><path style=" stroke:none;fill-rule:nonzero;fill:#29ad93;fill-opacity:1;" d="M 6.449219 63.664062 L 41.316406 63.664062 L 41.316406 107.65625 L 6.449219 107.65625 Z M 6.449219 63.664062 "/></g></g><g clip-rule="nonzero" clip-path="url(#256f2e5847)"><path style=" stroke:none;fill-rule:nonzero;fill:#c2803b;fill-opacity:1;" d="M 6.449219 63.664062 L 41.316406 63.664062 L 41.316406 107.65625 L 6.449219 107.65625 Z M 6.449219 63.664062 "/></g><g clip-rule="nonzero" clip-path="url(#1a210c912f)"><g clip-rule="nonzero" clip-path="url(#d2ab822bb7)"><path style=" stroke:none;fill-rule:nonzero;fill:#00a64d;fill-opacity:1;" d="M 64.710938 83.527344 L 70.574219 83.527344 L 70.574219 89.390625 L 64.710938 89.390625 Z M 64.710938 83.527344 "/></g></g><g clip-rule="nonzero" clip-path="url(#47f04c9861)"><g clip-rule="nonzero" clip-path="url(#76b64c9136)"><path style=" stroke:none;fill-rule:nonzero;fill:#00a64d;fill-opacity:1;" d="M 65.300781 144.800781 L 71.160156 144.800781 L 71.160156 150.664062 L 65.300781 150.664062 Z M 65.300781 144.800781 "/></g></g><g clip-rule="nonzero" clip-path="url(#d2e520bb80)"><g clip-rule="nonzero" clip-path="url(#fcf93901db)"><path style=" stroke:none;fill-rule:nonzero;fill:#00a64d;fill-opacity:1;" d="M 65.300781 206.390625 L 71.160156 206.390625 L 71.160156 212.253906 L 65.300781 212.253906 Z M 65.300781 206.390625 "/></g></g><g clip-rule="nonzero" clip-path="url(#6ed5f51959)"><g clip-rule="nonzero" clip-path="url(#2f2c21bf0a)"><path style=" stroke:none;fill-rule:nonzero;fill:#00a64d;fill-opacity:1;" d="M 65.300781 261.1875 L 71.160156 261.1875 L 71.160156 267.046875 L 65.300781 267.046875 Z M 65.300781 261.1875 "/></g></g><g clip-rule="nonzero" clip-path="url(#8e1a8653b9)"><g clip-rule="nonzero" clip-path="url(#96019e885c)"><path style=" stroke:none;fill-rule:nonzero;fill:#cd2028;fill-opacity:1;" d="M 492.894531 79.011719 L 498.757812 79.011719 L 498.757812 84.875 L 492.894531 84.875 Z M 492.894531 79.011719 "/></g></g><g clip-rule="nonzero" clip-path="url(#474db9b325)"><g clip-rule="nonzero" clip-path="url(#992015cfd5)"><path style=" stroke:none;fill-rule:nonzero;fill:#cd2028;fill-opacity:1;" d="M 493.480469 140.289062 L 499.34375 140.289062 L 499.34375 146.148438 L 493.480469 146.148438 Z M 493.480469 140.289062 "/></g></g><g clip-rule="nonzero" clip-path="url(#24d6b057be)"><g clip-rule="nonzero" clip-path="url(#3ebf25ca33)"><path style=" stroke:none;fill-rule:nonzero;fill:#cd2028;fill-opacity:1;" d="M 493.480469 201.878906 L 499.34375 201.878906 L 499.34375 207.738281 L 493.480469 207.738281 Z M 493.480469 201.878906 "/></g></g><g clip-rule="nonzero" clip-path="url(#e9bb5ac9d3)"><g clip-rule="nonzero" clip-path="url(#7542eb8eb6)"><path style=" stroke:none;fill-rule:nonzero;fill:#cd2028;fill-opacity:1;" d="M 493.480469 256.671875 L 499.34375 256.671875 L 499.34375 262.535156 L 493.480469 262.535156 Z M 493.480469 256.671875 "/></g></g><g clip-rule="nonzero" clip-path="url(#64746e9628)"><path style=" stroke:none;fill-rule:nonzero;fill:#4dab47;fill-opacity:1;" d="M 499.34375 240.789062 L 590.875 240.789062 L 590.875 281.050781 L 499.34375 281.050781 Z M 499.34375 240.789062 "/></g><g clip-rule="nonzero" clip-path="url(#9375b17811)"><path style=" stroke:none;fill-rule:nonzero;fill:#231f20;fill-opacity:1;" d="M 499.34375 240.789062 L 590.875 240.789062 L 590.875 281.050781 L 499.34375 281.050781 Z M 499.34375 240.789062 "/></g><g clip-rule="nonzero" clip-path="url(#567fc2829b)"><g clip-rule="nonzero" clip-path="url(#60380b255b)"><path style=" stroke:none;fill-rule:nonzero;fill:#4dab47;fill-opacity:1;" d="M 518.933594 123.191406 L 564.164062 123.191406 L 564.164062 163.261719 L 518.933594 163.261719 Z M 518.933594 123.191406 "/></g></g><g clip-rule="nonzero" clip-path="url(#17a159fec8)"><g clip-rule="nonzero" clip-path="url(#7d9aa3a1f3)"><path style=" stroke:none;fill-rule:nonzero;fill:#231f20;fill-opacity:1;" d="M 518.933594 123.191406 L 564.164062 123.191406 L 564.164062 163.261719 L 518.933594 163.261719 Z M 518.933594 123.191406 "/></g></g><g clip-rule="nonzero" clip-path="url(#648628eab8)"><g clip-rule="nonzero" clip-path="url(#aadd38b5d0)"><path style=" stroke:none;fill-rule:nonzero;fill:#4dab47;fill-opacity:1;" d="M 519.527344 184.472656 L 565.136719 184.472656 L 565.136719 230.085938 L 519.527344 230.085938 Z M 519.527344 184.472656 "/></g></g><g clip-rule="nonzero" clip-path="url(#ec434c9877)"><g clip-rule="nonzero" clip-path="url(#9230263c86)"><path style=" stroke:none;fill-rule:nonzero;fill:#231f20;fill-opacity:1;" d="M 519.527344 184.472656 L 565.136719 184.472656 L 565.136719 230.085938 L 519.527344 230.085938 Z M 519.527344 184.472656 "/></g></g><g clip-rule="nonzero" clip-path="url(#ee8cb6a7c1)"><path style=" stroke:none;fill-rule:nonzero;fill:#4dab47;fill-opacity:1;" d="M 521.003906 61.921875 L 564.101562 61.921875 L 564.101562 105.015625 L 521.003906 105.015625 Z M 521.003906 61.921875 "/></g><g clip-rule="nonzero" clip-path="url(#dfa3b05027)"><path style=" stroke:none;fill-rule:nonzero;fill:#231f20;fill-opacity:1;" d="M 521.003906 61.921875 L 564.101562 61.921875 L 564.101562 105.015625 L 521.003906 105.015625 Z M 521.003906 61.921875 "/></g></g></svg>