<svg xmlns="http://www.w3.org/2000/svg" xmlns:xlink="http://www.w3.org/1999/xlink" width="600" zoomAndPan="magnify" viewBox="0 0 450 149.999998" height="200" preserveAspectRatio="xMidYMid meet" version="1.2"><defs/><g id="9ac95df337"><rect x="0" width="450" y="0" height="149.999998" style="fill:#ffffff;fill-opacity:1;stroke:none;"/><rect x="0" width="450" y="0" height="149.999998" style="fill:#ffffff;fill-opacity:1;stroke:none;"/><path style="fill-rule:nonzero;fill:#000000;fill-opacity:1;stroke-width:1;stroke-linecap:butt;stroke-linejoin:miter;stroke:#0c7b3b;stroke-opacity:1;stroke-miterlimit:4;" d="M 0.499995 0.999997 L 0.499995 199.000009 M 599.50003 0.999997 L 599.50003 199.000009 M -0.000005 0.499997 L 600.00003 0.499997 M -0.000005 199.500009 L 600.00003 199.500009 " transform="matrix(0.75,0,0,0.75,0.00000375,0.000002)"/><g style="fill:#0c7b3b;fill-opacity:1;"><g transform="translate(163.24328, 105.862422)"><path style="stroke:none" d="M 24.214844 -65.878906 C 17.066406 -65.878906 11.917969 -63.402344 6.007812 -59.683594 L 6.007812 -46.050781 C 11.25 -51.101562 17.445312 -54.152344 21.640625 -54.152344 C 26.601562 -54.152344 30.414062 -49.863281 30.414062 -45 C 30.414062 -38.898438 27.171875 -31.558594 17.351562 -18.113281 C 12.488281 -11.535156 8.390625 -6.007812 5.148438 -1.90625 L 5.148438 0 L 48.148438 0 L 48.148438 -13.253906 L 27.171875 -13.253906 C 36.039062 -24.691406 37.753906 -27.742188 41.949219 -36.039062 C 43.855469 -39.949219 44.808594 -43.664062 44.808594 -47.667969 C 44.808594 -57.394531 38.421875 -65.878906 24.214844 -65.878906 Z M 24.214844 -65.878906 "/></g></g><g style="fill:#0c7b3b;fill-opacity:1;"><g transform="translate(215.870686, 105.862422)"><path style="stroke:none" d="M 24.980469 -65.878906 C 13.253906 -65.878906 3.335938 -56.632812 3.335938 -43.476562 C 3.335938 -32.035156 11.441406 -22.882812 21.261719 -22.882812 C 22.882812 -22.882812 23.738281 -23.167969 25.457031 -23.550781 L 10.488281 0.859375 L 26.410156 0.859375 L 37.753906 -17.542969 C 43.664062 -27.171875 46.429688 -35.085938 46.429688 -43.953125 C 46.429688 -57.109375 36.132812 -65.878906 24.980469 -65.878906 Z M 17.351562 -43.953125 C 17.351562 -49.671875 20.402344 -53.675781 24.597656 -53.675781 C 28.886719 -53.675781 31.84375 -50.339844 31.84375 -43.953125 C 31.84375 -38.328125 28.886719 -34.324219 24.597656 -34.324219 C 20.496094 -34.324219 17.351562 -37.945312 17.351562 -43.953125 Z M 17.351562 -43.953125 "/></g></g></g></svg>