<svg xmlns="http://www.w3.org/2000/svg" xmlns:xlink="http://www.w3.org/1999/xlink" width="600" zoomAndPan="magnify" viewBox="0 0 450 149.999998" height="200" preserveAspectRatio="xMidYMid meet" version="1.2"><defs><clipPath id="c00fac96f6"><path d="M 150.609375 74 L 253.003906 74 L 253.003906 120.992188 L 150.609375 120.992188 Z M 150.609375 74 "/></clipPath></defs><g id="6afb01160e"><rect x="0" width="450" y="0" height="149.999998" style="fill:#ffffff;fill-opacity:1;stroke:none;"/><rect x="0" width="450" y="0" height="149.999998" style="fill:#ffffff;fill-opacity:1;stroke:none;"/><path style=" stroke:none;fill-rule:nonzero;fill:#110f0d;fill-opacity:1;" d="M 153.644531 56.199219 C 153.085938 56.199219 152.585938 56.507812 152.34375 57.011719 C 152.171875 57.359375 152.148438 57.753906 152.273438 58.117188 C 152.398438 58.484375 152.660156 58.777344 153.007812 58.949219 L 173.679688 69.035156 L 174.003906 68.675781 C 174.351562 68.292969 174.710938 67.867188 175.097656 67.367188 L 175.585938 66.742188 L 154.277344 56.34375 C 154.078125 56.246094 153.867188 56.199219 153.644531 56.199219 Z M 271.617188 102.171875 L 218.523438 81.109375 C 218.351562 81.042969 218.171875 81.007812 217.988281 81.007812 C 217.390625 81.007812 216.863281 81.367188 216.640625 81.921875 C 216.503906 82.265625 216.503906 82.648438 216.644531 82.996094 C 216.792969 83.363281 217.085938 83.660156 217.453125 83.804688 L 270.550781 104.863281 C 270.722656 104.933594 270.902344 104.96875 271.085938 104.96875 C 271.683594 104.96875 272.210938 104.609375 272.429688 104.050781 C 272.726562 103.308594 272.363281 102.464844 271.617188 102.171875 Z M 249.332031 99.617188 L 247.199219 107.359375 C 247.789062 107.175781 248.378906 107.085938 248.941406 107.101562 L 250.851562 100.160156 C 250.402344 99.996094 249.953125 99.835938 249.503906 99.675781 C 249.445312 99.65625 249.386719 99.636719 249.332031 99.617188 Z M 165.4375 66.851562 L 164.035156 70.589844 L 162.089844 65.40625 C 161.402344 65.105469 160.714844 64.808594 160.03125 64.507812 L 162.980469 72.359375 C 163.78125 72.101562 164.578125 71.871094 165.351562 71.664062 L 166.917969 67.492188 C 166.796875 67.4375 166.671875 67.386719 166.550781 67.332031 C 166.179688 67.171875 165.808594 67.011719 165.4375 66.851562 Z M 236.15625 94.988281 L 244.257812 109.070312 C 243.839844 109.441406 243.453125 109.855469 243.109375 110.304688 L 233.828125 94.171875 C 234.605469 94.445312 235.378906 94.714844 236.15625 94.988281 "/><path style=" stroke:none;fill-rule:nonzero;fill:#f8e505;fill-opacity:1;" d="M 200.101562 63.101562 C 199.988281 62.089844 199.835938 60.707031 198.359375 60.324219 C 198.03125 60.238281 197.664062 60.199219 197.207031 60.199219 C 196.914062 60.199219 196.617188 60.21875 196.335938 60.234375 C 196.0625 60.246094 195.808594 60.261719 195.570312 60.261719 C 195.496094 60.261719 195.421875 60.257812 195.351562 60.257812 C 194.082031 60.199219 192.839844 60.078125 191.660156 59.898438 C 189.433594 59.558594 187.207031 58.992188 184.84375 58.160156 C 184.707031 58.109375 184.566406 58.085938 184.429688 58.085938 C 184.085938 58.085938 183.769531 58.238281 183.550781 58.507812 C 182.984375 59.03125 182.421875 59.59375 181.832031 60.226562 C 179.796875 62.398438 178.0625 64.828125 176.671875 67.449219 C 176.519531 67.738281 176.484375 68.089844 176.574219 68.414062 C 176.667969 68.753906 176.886719 69.015625 177.1875 69.152344 L 177.617188 69.347656 C 178.171875 69.597656 178.726562 69.847656 179.28125 70.09375 C 181.886719 71.230469 184.992188 72.453125 188.3125 72.867188 C 189.253906 72.984375 190.21875 73.042969 191.171875 73.042969 C 194.113281 73.042969 197.054688 72.492188 199.914062 71.40625 C 200.445312 71.203125 200.78125 70.734375 200.765625 70.210938 C 200.691406 67.933594 200.496094 65.726562 200.167969 63.652344 C 200.140625 63.472656 200.121094 63.285156 200.101562 63.101562 Z M 261.117188 53.21875 C 260.871094 53.21875 260.601562 53.238281 260.292969 53.277344 C 259.886719 53.328125 259.507812 53.351562 259.140625 53.375 C 257.628906 53.472656 256.0625 53.570312 256.0625 56.074219 C 256.0625 58.367188 256.289062 60.136719 259.121094 60.296875 C 259.296875 60.304688 259.472656 60.3125 259.648438 60.3125 C 260.988281 60.3125 261.988281 59.984375 262.621094 59.34375 C 263.132812 58.820312 263.386719 58.113281 263.371094 57.238281 C 263.367188 56.976562 263.367188 56.726562 263.367188 56.492188 C 263.363281 54.882812 263.359375 53.21875 261.117188 53.21875 Z M 254.136719 56.910156 C 254.035156 55.074219 253.148438 54.140625 251.507812 54.140625 C 250.863281 54.140625 250.183594 54.269531 249.460938 54.410156 C 248.96875 54.503906 248.457031 54.601562 247.976562 54.648438 C 244.921875 54.949219 244.886719 56.414062 244.835938 58.269531 C 244.824219 58.78125 244.808594 59.363281 244.734375 60.015625 C 244.574219 61.453125 244.710938 62.296875 245.191406 62.835938 C 245.683594 63.386719 246.410156 63.449219 246.914062 63.449219 C 247.511719 63.449219 248.230469 63.347656 249.132812 63.21875 L 249.238281 63.207031 C 249.367188 63.1875 249.515625 63.167969 249.679688 63.148438 C 251.355469 62.941406 253.046875 62.660156 253.75 61.761719 C 254.414062 60.910156 254.335938 59.273438 254.183594 57.527344 C 254.164062 57.289062 254.144531 57.078125 254.136719 56.910156 Z M 238.589844 55.816406 C 238.28125 55.816406 237.941406 55.839844 237.550781 55.890625 C 237.023438 55.957031 236.53125 55.988281 236.058594 56.019531 C 234.109375 56.140625 232.269531 56.257812 232.269531 59.304688 C 232.269531 62.257812 232.539062 64.359375 236.027344 64.554688 C 236.253906 64.566406 236.476562 64.574219 236.699219 64.574219 C 238.375 64.574219 239.617188 64.175781 240.390625 63.386719 C 241.015625 62.746094 241.324219 61.878906 241.304688 60.808594 C 241.300781 60.46875 241.300781 60.148438 241.296875 59.84375 C 241.296875 57.683594 241.292969 55.816406 238.589844 55.816406 Z M 229.421875 60.390625 C 229.292969 58.109375 228.246094 57.003906 226.21875 57.003906 C 225.410156 57.003906 224.542969 57.167969 223.625 57.34375 C 222.980469 57.464844 222.320312 57.59375 221.695312 57.652344 C 217.925781 58.027344 217.882812 59.75 217.820312 62.132812 C 217.804688 62.800781 217.785156 63.554688 217.6875 64.398438 C 217.488281 66.191406 217.648438 67.234375 218.230469 67.886719 C 218.8125 68.535156 219.695312 68.613281 220.308594 68.613281 C 221.066406 68.613281 221.980469 68.484375 223.140625 68.320312 L 223.277344 68.300781 C 223.4375 68.277344 223.632812 68.253906 223.84375 68.226562 C 225.960938 67.964844 228.101562 67.613281 228.964844 66.511719 C 229.777344 65.472656 229.675781 63.402344 229.484375 61.191406 C 229.457031 60.882812 229.433594 60.609375 229.421875 60.390625 Z M 292.746094 68.628906 C 290.691406 67.800781 288.671875 66.902344 286.683594 65.921875 C 285.203125 65.191406 283.648438 64.0625 282.015625 63.644531 C 281.914062 63.488281 281.769531 63.355469 281.601562 63.261719 C 281.339844 63.113281 281.015625 63.070312 280.679688 63.214844 C 278.359375 64.210938 275.828125 64.214844 273.496094 65.21875 C 272.128906 65.804688 268.992188 66.527344 268.546875 68.117188 C 268.453125 68.457031 268.550781 68.835938 268.800781 69.082031 C 269.273438 69.542969 269.730469 69.683594 270.269531 69.703125 C 270.296875 69.714844 271.148438 69.765625 271.503906 69.855469 C 271.6875 69.964844 271.863281 70.003906 272.027344 69.988281 C 273.8125 70.425781 275.785156 70.75 277.847656 70.976562 C 283.617188 71.601562 290.085938 71.402344 295.175781 70.449219 C 296.246094 70.25 293.546875 68.953125 292.746094 68.628906 Z M 276.566406 54.25 C 277.328125 54.351562 280.984375 55.429688 281.632812 54.925781 C 281.660156 54.90625 281.699219 54.832031 281.746094 54.714844 C 282.578125 52.613281 285.992188 36.121094 285.007812 34.722656 C 281.863281 30.253906 276.273438 41.289062 274.863281 43.449219 C 274.269531 44.359375 271.214844 48.117188 269.617188 50.421875 C 269.003906 51.308594 268.601562 51.980469 268.644531 52.191406 C 269.027344 54.238281 274.710938 54 276.566406 54.25 Z M 252.15625 114.042969 C 252.226562 114.925781 251.964844 115.871094 251.453125 116.589844 C 250.894531 117.378906 249.847656 117.933594 248.921875 117.371094 C 247.378906 116.429688 248.1875 114.15625 249.160156 112.992188 C 249.167969 112.984375 249.171875 112.976562 249.179688 112.96875 C 249.261719 112.871094 249.34375 112.777344 249.429688 112.699219 C 249.566406 112.566406 249.726562 112.484375 249.894531 112.429688 C 250.03125 112.371094 250.171875 112.320312 250.324219 112.292969 C 251.441406 112.113281 252.078125 113.058594 252.15625 114.042969 "/><path style=" stroke:none;fill-rule:nonzero;fill:#45b83a;fill-opacity:1;" d="M 158.757812 74 C 158.757812 74 158.761719 74 158.761719 74 C 158.730469 74.015625 158.699219 74.03125 158.671875 74.042969 C 158.699219 74.03125 158.730469 74.011719 158.757812 74 Z M 259.15625 59.652344 C 256.929688 59.527344 256.707031 58.394531 256.707031 56.074219 C 256.707031 53.71875 258.183594 54.195312 260.371094 53.914062 C 263.007812 53.582031 262.683594 54.839844 262.726562 57.25 C 262.765625 59.394531 260.886719 59.75 259.15625 59.652344 Z M 253.246094 61.363281 C 252.558594 62.242188 250.167969 62.425781 249.148438 62.566406 C 246.136719 62.992188 245.027344 63.183594 245.375 60.085938 C 245.71875 57.050781 244.835938 55.605469 248.039062 55.289062 C 250.5 55.046875 253.308594 53.640625 253.496094 56.945312 C 253.550781 57.972656 253.921875 60.496094 253.246094 61.363281 Z M 236.066406 63.914062 C 233.199219 63.75 232.914062 62.292969 232.914062 59.304688 C 232.910156 56.273438 234.8125 56.882812 237.632812 56.527344 C 241.027344 56.097656 240.605469 57.71875 240.660156 60.816406 C 240.710938 63.578125 238.296875 64.039062 236.066406 63.914062 Z M 228.457031 66.113281 C 227.574219 67.242188 224.492188 67.476562 223.1875 67.664062 C 219.304688 68.210938 217.878906 68.457031 218.328125 64.472656 C 218.769531 60.558594 217.632812 58.699219 221.757812 58.292969 C 224.921875 57.980469 228.542969 56.171875 228.777344 60.425781 C 228.851562 61.75 229.328125 65 228.457031 66.113281 Z M 199.683594 70.800781 C 196.078125 72.175781 192.230469 72.707031 188.390625 72.226562 C 185.289062 71.839844 182.382812 70.746094 179.539062 69.503906 C 178.984375 69.261719 178.433594 69.011719 177.882812 68.761719 C 177.738281 68.695312 177.597656 68.632812 177.453125 68.566406 C 177.316406 68.503906 177.230469 68.378906 177.195312 68.242188 C 177.148438 68.078125 177.167969 67.894531 177.242188 67.753906 C 178.617188 65.15625 180.308594 62.792969 182.300781 60.667969 C 182.847656 60.082031 183.414062 59.515625 184.003906 58.964844 C 184.011719 58.960938 184.015625 58.957031 184.023438 58.953125 C 184.144531 58.773438 184.359375 58.671875 184.628906 58.765625 C 186.886719 59.5625 189.195312 60.175781 191.5625 60.535156 C 192.808594 60.726562 194.0625 60.84375 195.320312 60.902344 C 196.226562 60.941406 197.328125 60.722656 198.199219 60.949219 C 199.457031 61.273438 199.359375 62.632812 199.53125 63.75 C 199.871094 65.898438 200.054688 68.058594 200.121094 70.230469 C 200.128906 70.507812 199.925781 70.710938 199.683594 70.800781 Z M 281.746094 54.714844 C 281.699219 54.832031 281.660156 54.90625 281.632812 54.925781 C 280.984375 55.429688 277.328125 54.351562 276.566406 54.25 C 274.710938 54 269.027344 54.238281 268.644531 52.191406 C 268.601562 51.980469 269.003906 51.308594 269.617188 50.421875 C 268.816406 50.402344 268.023438 50.382812 267.253906 50.339844 C 261.753906 50.050781 256.25 49.503906 250.753906 49.074219 C 239.867188 48.222656 228.988281 47.234375 218.09375 46.476562 C 207.601562 45.742188 197.632812 46.351562 188.726562 52.527344 C 185.574219 54.714844 182.738281 57.324219 180.121094 60.128906 C 179.339844 60.96875 178.578125 61.820312 177.835938 62.683594 C 176.753906 63.945312 175.707031 65.539062 174.589844 66.972656 C 174.246094 67.417969 173.890625 67.84375 173.527344 68.246094 C 173.03125 68.796875 172.511719 69.289062 171.96875 69.6875 C 171.3125 70.167969 170.621094 70.511719 169.875 70.648438 C 168.574219 70.894531 167.011719 71.222656 165.351562 71.664062 C 164.578125 71.871094 163.78125 72.101562 162.980469 72.359375 C 161.5625 72.816406 160.125 73.359375 158.761719 74 C 163.253906 76.113281 170.210938 81.753906 163.007812 95.109375 C 167.691406 96.558594 172.648438 97.277344 175.761719 97.671875 C 186.296875 99.011719 197.496094 96 207.78125 93.929688 C 212.984375 92.878906 218.171875 91.734375 223.335938 90.488281 C 221.390625 89.804688 219.445312 89.121094 217.5 88.4375 C 217.261719 88.550781 216.980469 88.578125 216.691406 88.457031 C 215.339844 87.894531 213.691406 86.652344 214.519531 84.882812 C 214.957031 83.941406 216.039062 83.273438 217.242188 82.757812 C 217.167969 82.570312 217.160156 82.359375 217.242188 82.160156 C 217.402344 81.746094 217.871094 81.542969 218.285156 81.710938 L 219.15625 82.054688 C 219.839844 81.832031 220.476562 81.640625 220.957031 81.460938 C 227.109375 79.136719 233.40625 77.308594 239.765625 75.976562 C 242.386719 75.425781 245.203125 74.65625 247.789062 75.171875 C 250.167969 75.644531 252.222656 77.050781 254.226562 78.253906 C 255.472656 78.996094 256.703125 79.757812 257.929688 80.53125 C 263.078125 78.78125 268.148438 76.828125 272.941406 74.5 C 274.949219 73.527344 276.558594 72.378906 277.847656 70.976562 C 275.785156 70.75 273.8125 70.425781 272.027344 69.988281 C 271.863281 70.003906 271.6875 69.964844 271.503906 69.855469 C 271.148438 69.765625 270.296875 69.714844 270.269531 69.703125 C 269.730469 69.683594 269.273438 69.542969 268.800781 69.082031 C 268.550781 68.835938 268.453125 68.457031 268.546875 68.117188 C 268.992188 66.527344 272.128906 65.804688 273.496094 65.21875 C 275.828125 64.214844 278.359375 64.210938 280.679688 63.214844 C 281.015625 63.070312 281.339844 63.113281 281.601562 63.261719 C 282.300781 60.558594 282.925781 57.191406 281.746094 54.714844 "/><path style=" stroke:none;fill-rule:nonzero;fill:#ea7e16;fill-opacity:1;" d="M 280.652344 96.386719 C 276.195312 93.09375 271.726562 89.816406 267.167969 86.660156 C 264.132812 84.554688 261.058594 82.503906 257.929688 80.53125 C 256.703125 79.757812 255.472656 78.996094 254.226562 78.253906 C 252.222656 77.050781 250.167969 75.644531 247.789062 75.171875 C 245.203125 74.65625 242.386719 75.425781 239.765625 75.976562 C 233.40625 77.308594 227.109375 79.136719 220.957031 81.460938 C 220.476562 81.640625 219.839844 81.832031 219.15625 82.054688 L 233.699219 87.824219 L 250.71875 94.574219 L 252.222656 95.171875 L 271.382812 102.769531 C 271.792969 102.933594 271.996094 103.402344 271.832031 103.816406 C 271.707031 104.132812 271.40625 104.324219 271.085938 104.324219 C 270.984375 104.324219 270.886719 104.304688 270.789062 104.265625 L 251.792969 96.734375 L 250.289062 96.136719 L 232.832031 89.210938 L 231.464844 88.667969 L 231.09375 88.519531 L 217.691406 83.207031 C 217.476562 83.121094 217.324219 82.953125 217.242188 82.757812 C 216.039062 83.273438 214.957031 83.941406 214.519531 84.882812 C 213.691406 86.652344 215.339844 87.894531 216.691406 88.457031 C 216.980469 88.578125 217.261719 88.550781 217.5 88.4375 C 219.445312 89.121094 221.390625 89.804688 223.335938 90.488281 C 226.832031 91.714844 230.332031 92.941406 233.828125 94.171875 C 234.605469 94.445312 235.378906 94.714844 236.15625 94.988281 C 240.546875 96.53125 244.941406 98.074219 249.332031 99.617188 C 249.386719 99.636719 249.445312 99.65625 249.503906 99.675781 C 249.953125 99.835938 250.402344 99.996094 250.851562 100.160156 C 255.613281 101.867188 260.351562 103.730469 265.234375 105.105469 C 269.824219 106.398438 274.6875 106.316406 279.3125 104.09375 C 280.730469 103.410156 283.3125 102.277344 283.929688 100.695312 C 284.75 98.582031 281.898438 97.304688 280.652344 96.386719 Z M 170.097656 57.636719 C 173.476562 58.453125 176.789062 59.304688 180.121094 60.128906 C 179.339844 60.96875 178.578125 61.820312 177.835938 62.683594 C 176.753906 63.945312 175.707031 65.539062 174.589844 66.972656 L 168.269531 63.886719 L 166.816406 63.179688 L 160.007812 59.855469 L 157.949219 58.851562 L 153.996094 56.921875 C 153.597656 56.730469 153.117188 56.894531 152.921875 57.292969 C 152.726562 57.691406 152.890625 58.175781 153.292969 58.371094 L 158.722656 61.023438 L 160.828125 62.046875 L 166.25 64.691406 L 167.703125 65.402344 L 173.527344 68.246094 C 173.03125 68.796875 172.511719 69.289062 171.96875 69.6875 C 171.808594 69.613281 171.652344 69.539062 171.496094 69.472656 C 169.96875 68.8125 168.441406 68.152344 166.917969 67.492188 C 166.796875 67.4375 166.671875 67.386719 166.550781 67.332031 C 166.179688 67.171875 165.808594 67.011719 165.4375 66.851562 C 164.320312 66.371094 163.203125 65.886719 162.089844 65.40625 C 161.402344 65.105469 160.714844 64.808594 160.03125 64.507812 C 159.367188 64.214844 158.703125 63.917969 158.046875 63.621094 C 155.410156 62.429688 152.917969 61.164062 151.117188 59.660156 C 149.933594 58.667969 147.882812 57.09375 150.207031 55.945312 C 155.167969 53.492188 166.019531 56.648438 170.097656 57.636719 "/><g clip-rule="nonzero" clip-path="url(#c00fac96f6)"><path style=" stroke:none;fill-rule:nonzero;fill:#397dc9;fill-opacity:1;" d="M 163.007812 95.109375 C 160.140625 94.226562 157.371094 93.066406 155.195312 91.542969 C 155.191406 91.539062 155.183594 91.535156 155.175781 91.527344 C 155.050781 91.441406 154.929688 91.351562 154.808594 91.265625 C 154.792969 91.253906 154.78125 91.238281 154.761719 91.226562 C 154.652344 91.144531 154.542969 91.058594 154.433594 90.972656 C 154.414062 90.957031 154.394531 90.945312 154.375 90.929688 C 154.273438 90.84375 154.167969 90.757812 154.070312 90.671875 C 154.050781 90.65625 154.03125 90.640625 154.007812 90.621094 C 153.910156 90.535156 153.808594 90.445312 153.710938 90.355469 C 153.695312 90.339844 153.679688 90.328125 153.660156 90.3125 C 153.554688 90.210938 153.453125 90.113281 153.347656 90.011719 C 153.34375 90.003906 153.339844 90 153.332031 89.992188 C 153.117188 89.777344 152.910156 89.550781 152.714844 89.320312 C 152.707031 89.308594 152.695312 89.296875 152.6875 89.285156 C 152.605469 89.1875 152.523438 89.085938 152.445312 88.980469 C 152.417969 88.949219 152.394531 88.917969 152.371094 88.882812 C 152.308594 88.800781 152.25 88.71875 152.191406 88.636719 C 152.160156 88.59375 152.132812 88.550781 152.105469 88.511719 C 152.054688 88.433594 152.003906 88.355469 151.953125 88.277344 C 151.925781 88.230469 151.898438 88.183594 151.867188 88.136719 C 151.824219 88.0625 151.78125 87.988281 151.738281 87.914062 C 151.710938 87.863281 151.683594 87.8125 151.65625 87.761719 C 151.617188 87.6875 151.578125 87.613281 151.539062 87.535156 C 151.515625 87.484375 151.488281 87.433594 151.464844 87.378906 C 151.429688 87.304688 151.394531 87.226562 151.363281 87.148438 C 151.339844 87.09375 151.316406 87.042969 151.296875 86.988281 C 151.261719 86.910156 151.234375 86.824219 151.203125 86.742188 C 151.183594 86.691406 151.164062 86.640625 151.148438 86.589844 C 151.117188 86.5 151.089844 86.40625 151.0625 86.316406 C 151.050781 86.269531 151.035156 86.226562 151.023438 86.183594 C 150.984375 86.046875 150.949219 85.90625 150.921875 85.765625 C 150.882812 85.597656 150.851562 85.429688 150.824219 85.261719 C 150.816406 85.210938 150.808594 85.15625 150.800781 85.101562 C 150.785156 84.992188 150.769531 84.878906 150.757812 84.769531 C 150.75 84.707031 150.746094 84.644531 150.742188 84.585938 C 150.730469 84.484375 150.722656 84.386719 150.71875 84.285156 C 150.714844 84.222656 150.710938 84.160156 150.707031 84.097656 C 150.703125 84 150.699219 83.90625 150.699219 83.808594 C 150.699219 83.75 150.699219 83.6875 150.699219 83.625 C 150.703125 83.53125 150.707031 83.4375 150.710938 83.339844 C 150.714844 83.28125 150.714844 83.222656 150.71875 83.164062 C 150.726562 83.066406 150.734375 82.96875 150.746094 82.867188 C 150.753906 82.816406 150.753906 82.769531 150.761719 82.71875 C 150.777344 82.589844 150.796875 82.464844 150.820312 82.339844 C 150.824219 82.320312 150.824219 82.300781 150.828125 82.285156 C 150.855469 82.136719 150.886719 81.992188 150.917969 81.851562 C 150.925781 81.816406 150.9375 81.78125 150.945312 81.746094 C 150.972656 81.640625 151 81.539062 151.03125 81.433594 C 151.042969 81.386719 151.0625 81.339844 151.074219 81.292969 C 151.105469 81.203125 151.132812 81.113281 151.164062 81.027344 C 151.183594 80.976562 151.203125 80.925781 151.222656 80.878906 C 151.253906 80.792969 151.285156 80.707031 151.320312 80.625 C 151.34375 80.574219 151.363281 80.527344 151.382812 80.476562 C 151.421875 80.394531 151.460938 80.308594 151.5 80.226562 C 151.523438 80.179688 151.542969 80.136719 151.566406 80.089844 C 151.613281 80.003906 151.65625 79.914062 151.707031 79.828125 C 151.726562 79.789062 151.746094 79.753906 151.765625 79.714844 C 151.828125 79.605469 151.894531 79.5 151.960938 79.390625 C 151.96875 79.378906 151.976562 79.363281 151.984375 79.351562 C 152.0625 79.226562 152.144531 79.101562 152.230469 78.980469 C 152.234375 78.976562 152.238281 78.972656 152.238281 78.96875 C 152.320312 78.851562 152.402344 78.742188 152.488281 78.632812 C 152.507812 78.601562 152.53125 78.578125 152.550781 78.550781 C 152.621094 78.460938 152.6875 78.375 152.761719 78.289062 C 152.789062 78.257812 152.816406 78.226562 152.84375 78.191406 C 152.914062 78.113281 152.984375 78.03125 153.054688 77.953125 C 153.082031 77.921875 153.113281 77.890625 153.140625 77.859375 C 153.214844 77.777344 153.292969 77.699219 153.371094 77.621094 C 153.398438 77.589844 153.425781 77.5625 153.453125 77.535156 C 153.535156 77.449219 153.621094 77.367188 153.710938 77.285156 C 153.730469 77.265625 153.753906 77.246094 153.773438 77.222656 C 153.882812 77.121094 153.996094 77.019531 154.109375 76.921875 C 154.347656 76.714844 154.597656 76.511719 154.855469 76.3125 C 154.855469 76.3125 154.859375 76.308594 154.863281 76.308594 C 154.984375 76.214844 155.109375 76.121094 155.234375 76.03125 C 155.25 76.019531 155.265625 76.007812 155.285156 76 C 155.398438 75.914062 155.511719 75.835938 155.628906 75.757812 C 155.648438 75.742188 155.667969 75.730469 155.6875 75.714844 C 155.808594 75.636719 155.921875 75.558594 156.042969 75.484375 C 156.058594 75.472656 156.078125 75.460938 156.097656 75.449219 C 156.222656 75.371094 156.351562 75.289062 156.484375 75.207031 C 156.492188 75.203125 156.5 75.199219 156.507812 75.195312 C 157.222656 74.761719 157.980469 74.363281 158.757812 74 C 163.25 76.113281 170.214844 81.75 163.007812 95.109375 Z M 251.453125 116.589844 C 250.894531 117.378906 249.847656 117.933594 248.921875 117.371094 C 247.378906 116.429688 248.1875 114.15625 249.160156 112.992188 C 249.167969 112.984375 249.171875 112.976562 249.179688 112.96875 C 249.261719 112.871094 249.34375 112.777344 249.429688 112.699219 C 249.566406 112.566406 249.726562 112.484375 249.894531 112.429688 C 250.03125 112.371094 250.171875 112.320312 250.324219 112.292969 C 251.441406 112.113281 252.078125 113.058594 252.15625 114.042969 C 252.226562 114.925781 251.964844 115.871094 251.453125 116.589844 Z M 252.710938 111.503906 C 252.398438 108.433594 250.816406 107.164062 248.941406 107.101562 C 248.378906 107.085938 247.789062 107.175781 247.199219 107.359375 C 246.175781 107.679688 245.148438 108.277344 244.257812 109.070312 C 243.839844 109.441406 243.453125 109.855469 243.109375 110.304688 C 242.121094 111.585938 241.488281 113.148438 241.53125 114.792969 C 241.832031 125.59375 255.121094 120.894531 252.710938 111.503906 "/></g><path style="fill-rule:nonzero;fill:#000000;fill-opacity:1;stroke-width:1;stroke-linecap:butt;stroke-linejoin:miter;stroke:#0c7b3b;stroke-opacity:1;stroke-miterlimit:4;" d="M 0.499995 0.999997 L 0.499995 199.000009 M 599.50003 0.999997 L 599.50003 199.000009 M -0.000005 0.499997 L 600.00003 0.499997 M -0.000005 199.500009 L 600.00003 199.500009 " transform="matrix(0.75,0,0,0.75,0.00000375,0.000002)"/></g></svg>