<svg xmlns="http://www.w3.org/2000/svg" xmlns:xlink="http://www.w3.org/1999/xlink" width="600" zoomAndPan="magnify" viewBox="0 0 450 149.999998" height="200" preserveAspectRatio="xMidYMid meet" version="1.2"><defs><clipPath id="e3003d29cd"><path d="M 168.015625 3.734375 L 288.765625 3.734375 L 288.765625 46 L 168.015625 46 Z M 168.015625 3.734375 "/></clipPath><clipPath id="ef2c54c025"><path d="M 168.015625 3.734375 L 288.765625 3.734375 L 288.765625 46.484375 L 168.015625 46.484375 Z M 168.015625 3.734375 "/></clipPath><clipPath id="e5f83d1003"><path d="M 168.015625 53.285156 L 288.765625 53.285156 L 288.765625 96 L 168.015625 96 Z M 168.015625 53.285156 "/></clipPath><clipPath id="c474848c39"><path d="M 252.660156 63.488281 L 267.660156 63.488281 L 267.660156 81 L 252.660156 81 Z M 252.660156 63.488281 "/></clipPath><clipPath id="86d7570ee9"><path d="M 256 82 L 263 82 L 263 87.488281 L 256 87.488281 Z M 256 82 "/></clipPath><clipPath id="8392b9978b"><path d="M 181.378906 7.667969 L 215.878906 7.667969 L 215.878906 42.167969 L 181.378906 42.167969 Z M 181.378906 7.667969 "/></clipPath><clipPath id="83adb414cc"><path d="M 242.90625 7.667969 L 277.40625 7.667969 L 277.40625 42.167969 L 242.90625 42.167969 Z M 242.90625 7.667969 "/></clipPath><clipPath id="ff5961ca78"><path d="M 181.378906 59.4375 L 214.578125 59.4375 L 214.578125 90.625 L 181.378906 90.625 Z M 181.378906 59.4375 "/></clipPath><clipPath id="e70fac49fd"><path d="M 134.335938 99.34375 L 324.835938 99.34375 L 324.835938 132 L 134.335938 132 Z M 134.335938 99.34375 "/></clipPath><clipPath id="61cd795b1d"><path d="M 134.335938 99.34375 L 324.835938 99.34375 L 324.835938 132.34375 L 134.335938 132.34375 Z M 134.335938 99.34375 "/></clipPath><clipPath id="31922d0a7f"><path d="M 134.335938 135 L 324.835938 135 L 324.835938 148 L 134.335938 148 Z M 134.335938 135 "/></clipPath><clipPath id="91e626c02a"><path d="M 240.671875 103.582031 L 266.171875 103.582031 L 266.171875 129.082031 L 240.671875 129.082031 Z M 240.671875 103.582031 "/></clipPath><clipPath id="16de8f48bd"><path d="M 193.007812 103.582031 L 217.757812 103.582031 L 217.757812 128 L 193.007812 128 Z M 193.007812 103.582031 "/></clipPath><clipPath id="36e9772a20"><path d="M 288.167969 104.152344 L 312.867188 104.152344 L 312.867188 128.5 L 288.167969 128.5 Z M 288.167969 104.152344 "/></clipPath><clipPath id="dff6c8edb7"><path d="M 144.964844 104.152344 L 169.664062 104.152344 L 169.664062 128.5 L 144.964844 128.5 Z M 144.964844 104.152344 "/></clipPath></defs><g id="d6909e5c7c"><rect x="0" width="450" y="0" height="149.999998" style="fill:#ffffff;fill-opacity:1;stroke:none;"/><rect x="0" width="450" y="0" height="149.999998" style="fill:#ffffff;fill-opacity:1;stroke:none;"/><g clip-rule="nonzero" clip-path="url(#e3003d29cd)"><path style=" stroke:none;fill-rule:nonzero;fill:#000000;fill-opacity:1;" d="M 168.226562 4.148438 L 168.226562 45.640625 M 228.640625 4.148438 L 228.640625 45.640625 M 288.222656 4.148438 L 288.222656 45.640625 M 168.015625 3.941406 L 288.433594 3.941406 M 168.015625 45.847656 L 288.433594 45.847656 "/></g><g clip-rule="nonzero" clip-path="url(#ef2c54c025)"><path style="fill:none;stroke-width:0.554329;stroke-linecap:butt;stroke-linejoin:miter;stroke:#000000;stroke-opacity:1;stroke-miterlimit:4;" d="M 0.278965 0.553982 L 0.278965 55.876902 M 80.831053 0.553982 L 80.831053 55.876902 M 160.273766 0.553982 L 160.273766 55.876902 M -0.002285 0.27794 L 160.555016 0.27794 M -0.002285 56.152944 L 160.555016 56.152944 " transform="matrix(0.75,0,0,0.75,168.017339,3.732951)"/></g><g clip-rule="nonzero" clip-path="url(#e5f83d1003)"><path style="fill-rule:nonzero;fill:#000000;fill-opacity:1;stroke-width:0.554329;stroke-linecap:butt;stroke-linejoin:miter;stroke:#000000;stroke-opacity:1;stroke-miterlimit:4;" d="M 0.278965 0.555496 L 0.278965 55.878416 M 80.831053 0.555496 L 80.831053 55.878416 M 160.273766 0.555496 L 160.273766 55.878416 M -0.002285 0.279454 L 160.555016 0.279454 M -0.002285 56.154458 L 160.555016 56.154458 " transform="matrix(0.75,0,0,0.75,168.017339,53.286503)"/></g><g clip-rule="nonzero" clip-path="url(#c474848c39)"><path style=" stroke:none;fill-rule:nonzero;fill:#000000;fill-opacity:1;" d="M 266.667969 66.273438 C 266.023438 65.371094 265.132812 64.679688 264 64.203125 C 262.871094 63.730469 261.566406 63.488281 260.089844 63.488281 C 258.746094 63.488281 257.519531 63.726562 256.410156 64.195312 C 255.300781 64.660156 254.40625 65.375 253.730469 66.320312 C 253.195312 67.074219 252.859375 67.988281 252.722656 69.058594 C 252.664062 69.523438 253.042969 69.9375 253.519531 69.9375 L 256.492188 69.9375 C 256.875 69.9375 257.195312 69.671875 257.277344 69.308594 C 257.351562 68.980469 257.472656 68.6875 257.644531 68.4375 C 257.917969 68.035156 258.269531 67.726562 258.703125 67.523438 C 259.132812 67.316406 259.585938 67.210938 260.070312 67.210938 C 260.566406 67.210938 261.019531 67.308594 261.433594 67.515625 C 261.84375 67.71875 262.171875 68.011719 262.414062 68.390625 C 262.660156 68.769531 262.78125 69.207031 262.78125 69.710938 C 262.78125 70.1875 262.675781 70.613281 262.460938 70.992188 C 262.246094 71.371094 261.957031 71.722656 261.59375 72.035156 C 261.226562 72.351562 260.820312 72.648438 260.363281 72.941406 C 259.746094 73.320312 259.21875 73.742188 258.785156 74.207031 C 258.34375 74.671875 258.015625 75.285156 257.789062 76.042969 C 257.5625 76.800781 257.445312 77.8125 257.441406 79.085938 L 257.441406 79.71875 C 257.441406 80.152344 257.796875 80.503906 258.242188 80.503906 L 260.855469 80.503906 C 261.296875 80.503906 261.65625 80.15625 261.65625 79.71875 L 261.65625 79.085938 C 261.667969 78.371094 261.761719 77.769531 261.941406 77.285156 C 262.121094 76.800781 262.402344 76.367188 262.773438 76 C 263.148438 75.628906 263.628906 75.273438 264.214844 74.929688 C 264.914062 74.519531 265.515625 74.0625 266.027344 73.554688 C 266.535156 73.050781 266.9375 72.464844 267.222656 71.808594 C 267.507812 71.152344 267.652344 70.390625 267.652344 69.542969 C 267.640625 68.265625 267.3125 67.175781 266.667969 66.273438 Z M 266.667969 66.273438 "/></g><g clip-rule="nonzero" clip-path="url(#86d7570ee9)"><path style=" stroke:none;fill-rule:nonzero;fill:#000000;fill-opacity:1;" d="M 259.628906 82.273438 C 258.886719 82.273438 258.257812 82.527344 257.734375 83.035156 C 257.210938 83.542969 256.953125 84.160156 256.960938 84.867188 C 256.953125 85.589844 257.210938 86.207031 257.734375 86.722656 C 258.257812 87.234375 258.886719 87.488281 259.628906 87.488281 C 260.105469 87.488281 260.542969 87.371094 260.941406 87.132812 C 261.339844 86.894531 261.664062 86.582031 261.910156 86.183594 C 262.160156 85.785156 262.289062 85.347656 262.292969 84.867188 C 262.285156 84.152344 262.015625 83.542969 261.480469 83.035156 C 260.953125 82.527344 260.332031 82.273438 259.628906 82.273438 Z M 259.628906 82.273438 "/></g><g clip-rule="nonzero" clip-path="url(#8392b9978b)"><path style=" stroke:none;fill-rule:nonzero;fill:#ff3131;fill-opacity:1;" d="M 198.605469 42.121094 C 189.132812 42.121094 181.378906 34.367188 181.378906 24.894531 C 181.378906 15.417969 189.132812 7.667969 198.605469 7.667969 C 208.082031 7.667969 215.832031 15.417969 215.832031 24.894531 C 215.832031 34.367188 208.082031 42.121094 198.605469 42.121094 Z M 198.605469 42.121094 "/></g><g clip-rule="nonzero" clip-path="url(#83adb414cc)"><path style=" stroke:none;fill-rule:nonzero;fill:#ff3131;fill-opacity:1;" d="M 260.132812 42.121094 C 250.65625 42.121094 242.90625 34.367188 242.90625 24.894531 C 242.90625 15.417969 250.65625 7.667969 260.132812 7.667969 C 269.605469 7.667969 277.359375 15.417969 277.359375 24.894531 C 277.359375 34.367188 269.605469 42.121094 260.132812 42.121094 Z M 260.132812 42.121094 "/></g><g clip-rule="nonzero" clip-path="url(#ff5961ca78)"><path style=" stroke:none;fill-rule:nonzero;fill:#ff3131;fill-opacity:1;" d="M 181.378906 59.4375 L 214.640625 59.4375 L 214.640625 90.625 L 181.378906 90.625 Z M 181.378906 59.4375 "/></g><g clip-rule="nonzero" clip-path="url(#e70fac49fd)"><path style=" stroke:none;fill-rule:nonzero;fill:#000000;fill-opacity:1;" d="M 134.660156 100 L 134.660156 131.585938 M 181.796875 100 L 181.796875 131.585938 M 228.304688 100 L 228.304688 131.585938 M 276.070312 100 L 276.070312 131.585938 M 323.839844 100 L 323.839844 131.585938 M 134.335938 99.671875 L 324.164062 99.671875 M 134.335938 131.914062 L 324.164062 131.914062 "/></g><g clip-rule="nonzero" clip-path="url(#61cd795b1d)"><path style="fill:none;stroke-width:0.871773;stroke-linecap:butt;stroke-linejoin:miter;stroke:#000000;stroke-opacity:1;stroke-miterlimit:4;" d="M 0.434282 0.874199 L 0.434282 42.988785 M 63.283244 0.874199 L 63.283244 42.988785 M 125.293664 0.874199 L 125.293664 42.988785 M 188.981168 0.874199 L 188.981168 42.988785 M 252.67388 0.874199 L 252.67388 42.988785 M 0.00199038 0.436699 L 253.106172 0.436699 M 0.00199038 43.426285 L 253.106172 43.426285 " transform="matrix(0.75,0,0,0.75,134.334445,99.344351)"/></g><g clip-rule="nonzero" clip-path="url(#31922d0a7f)"><path style="fill-rule:nonzero;fill:#000000;fill-opacity:1;stroke-width:0.871773;stroke-linecap:butt;stroke-linejoin:miter;stroke:#000000;stroke-opacity:1;stroke-miterlimit:4;" d="M 0.434282 0.873446 L 0.434282 16.347406 M 63.585327 0.873446 L 63.585327 16.347406 M 124.694706 0.873446 L 124.694706 16.347406 M 188.949918 0.873446 L 188.949918 16.347406 M 252.67388 0.873446 L 252.67388 16.347406 M 0.00199038 0.435946 L 253.106172 0.435946 M 0.00199038 16.779697 L 253.106172 16.779697 " transform="matrix(0.75,0,0,0.75,134.334445,135.001165)"/></g><g style="fill:#000000;fill-opacity:1;"><g transform="translate(202.923566, 143.417864)"><path style="stroke:none" d="M 0.28125 0 L 0.28125 -0.765625 L 1.421875 -1.84375 C 1.765625 -2.175781 2.035156 -2.476562 2.234375 -2.75 C 2.429688 -3.03125 2.566406 -3.316406 2.640625 -3.609375 C 2.722656 -3.898438 2.765625 -4.234375 2.765625 -4.609375 C 2.765625 -5.046875 2.710938 -5.363281 2.609375 -5.5625 C 2.503906 -5.757812 2.328125 -5.859375 2.078125 -5.859375 C 1.890625 -5.859375 1.742188 -5.800781 1.640625 -5.6875 C 1.546875 -5.570312 1.476562 -5.378906 1.4375 -5.109375 C 1.394531 -4.847656 1.375 -4.484375 1.375 -4.015625 C 1.0625 -4.015625 0.804688 -4.078125 0.609375 -4.203125 C 0.410156 -4.328125 0.3125 -4.523438 0.3125 -4.796875 C 0.3125 -5.117188 0.460938 -5.390625 0.765625 -5.609375 C 1.078125 -5.828125 1.53125 -5.9375 2.125 -5.9375 C 2.738281 -5.9375 3.203125 -5.816406 3.515625 -5.578125 C 3.835938 -5.335938 4 -5 4 -4.5625 C 4 -4.375 3.960938 -4.191406 3.890625 -4.015625 C 3.828125 -3.835938 3.707031 -3.644531 3.53125 -3.4375 C 3.351562 -3.226562 3.113281 -2.988281 2.8125 -2.71875 C 2.519531 -2.457031 2.144531 -2.148438 1.6875 -1.796875 L 0.546875 -0.90625 L 3.3125 -0.90625 C 3.570312 -0.90625 3.757812 -0.941406 3.875 -1.015625 C 4 -1.097656 4.070312 -1.25 4.09375 -1.46875 L 4.125 -1.71875 L 4.203125 -1.71875 L 4.15625 0 Z M 0.28125 0 "/></g></g><g style="fill:#000000;fill-opacity:1;"><g transform="translate(251.140595, 143.417864)"><path style="stroke:none" d="M 1.984375 0.078125 C 1.378906 0.078125 0.9375 -0.0195312 0.65625 -0.21875 C 0.375 -0.414062 0.234375 -0.644531 0.234375 -0.90625 C 0.234375 -1.113281 0.300781 -1.269531 0.4375 -1.375 C 0.570312 -1.488281 0.734375 -1.546875 0.921875 -1.546875 C 0.921875 -1.140625 0.960938 -0.828125 1.046875 -0.609375 C 1.140625 -0.390625 1.257812 -0.234375 1.40625 -0.140625 C 1.5625 -0.046875 1.738281 0 1.9375 0 C 2.289062 0 2.546875 -0.132812 2.703125 -0.40625 C 2.859375 -0.675781 2.9375 -1.066406 2.9375 -1.578125 C 2.9375 -1.941406 2.894531 -2.222656 2.8125 -2.421875 C 2.726562 -2.628906 2.585938 -2.773438 2.390625 -2.859375 C 2.191406 -2.941406 1.9375 -2.984375 1.625 -2.984375 L 1.171875 -2.984375 L 1.171875 -3.0625 L 1.625 -3.0625 C 1.914062 -3.0625 2.140625 -3.109375 2.296875 -3.203125 C 2.460938 -3.296875 2.578125 -3.445312 2.640625 -3.65625 C 2.710938 -3.863281 2.75 -4.140625 2.75 -4.484375 C 2.75 -4.984375 2.6875 -5.335938 2.5625 -5.546875 C 2.445312 -5.753906 2.28125 -5.859375 2.0625 -5.859375 C 1.769531 -5.859375 1.578125 -5.707031 1.484375 -5.40625 C 1.398438 -5.113281 1.359375 -4.703125 1.359375 -4.171875 C 1.023438 -4.171875 0.765625 -4.226562 0.578125 -4.34375 C 0.390625 -4.457031 0.296875 -4.640625 0.296875 -4.890625 C 0.296875 -5.179688 0.445312 -5.425781 0.75 -5.625 C 1.0625 -5.832031 1.515625 -5.9375 2.109375 -5.9375 C 2.691406 -5.9375 3.148438 -5.816406 3.484375 -5.578125 C 3.828125 -5.347656 4 -5.007812 4 -4.5625 C 4 -4.332031 3.941406 -4.109375 3.828125 -3.890625 C 3.710938 -3.671875 3.519531 -3.484375 3.25 -3.328125 C 2.988281 -3.179688 2.628906 -3.085938 2.171875 -3.046875 C 2.828125 -3.046875 3.328125 -2.921875 3.671875 -2.671875 C 4.023438 -2.429688 4.203125 -2.0625 4.203125 -1.5625 C 4.203125 -1.164062 4.097656 -0.847656 3.890625 -0.609375 C 3.679688 -0.367188 3.40625 -0.191406 3.0625 -0.078125 C 2.726562 0.0234375 2.367188 0.078125 1.984375 0.078125 Z M 1.984375 0.078125 "/></g></g><g style="fill:#000000;fill-opacity:1;"><g transform="translate(155.022885, 143.417864)"><path style="stroke:none" d="M 0.796875 0 L 0.796875 -0.078125 L 1.46875 -0.078125 C 1.601562 -0.078125 1.703125 -0.113281 1.765625 -0.1875 C 1.835938 -0.269531 1.875 -0.410156 1.875 -0.609375 L 1.875 -5.21875 C 1.625 -4.863281 1.425781 -4.609375 1.28125 -4.453125 C 1.132812 -4.296875 0.988281 -4.21875 0.84375 -4.21875 C 0.695312 -4.21875 0.578125 -4.257812 0.484375 -4.34375 C 0.390625 -4.4375 0.34375 -4.578125 0.34375 -4.765625 C 0.613281 -4.773438 0.835938 -4.800781 1.015625 -4.84375 C 1.203125 -4.882812 1.375 -4.960938 1.53125 -5.078125 C 1.695312 -5.191406 1.894531 -5.363281 2.125 -5.59375 L 2.421875 -5.890625 L 3.09375 -5.890625 L 3.09375 -0.609375 C 3.09375 -0.441406 3.117188 -0.3125 3.171875 -0.21875 C 3.234375 -0.125 3.347656 -0.078125 3.515625 -0.078125 L 4.1875 -0.078125 L 4.1875 0 Z M 0.796875 0 "/></g></g><g style="fill:#000000;fill-opacity:1;"><g transform="translate(298.223982, 143.417864)"><path style="stroke:none" d="M 1.46875 0 L 1.46875 -0.078125 L 1.703125 -0.078125 C 1.890625 -0.078125 2.046875 -0.109375 2.171875 -0.171875 C 2.304688 -0.242188 2.375 -0.410156 2.375 -0.671875 L 2.375 -1.53125 L 0.109375 -1.53125 L 0.109375 -2.03125 L 2.4375 -5.859375 L 3.578125 -5.859375 L 3.578125 -2.0625 L 4.421875 -2.0625 L 4.421875 -1.53125 L 3.578125 -1.53125 L 3.578125 -0.671875 C 3.578125 -0.410156 3.640625 -0.242188 3.765625 -0.171875 C 3.898438 -0.109375 4.0625 -0.078125 4.25 -0.078125 L 4.359375 -0.078125 L 4.359375 0 Z M 0.234375 -2.0625 L 2.375 -2.0625 L 2.375 -3.875 C 2.375 -4.175781 2.375 -4.488281 2.375 -4.8125 C 2.375 -5.132812 2.378906 -5.414062 2.390625 -5.65625 C 2.359375 -5.601562 2.304688 -5.519531 2.234375 -5.40625 C 2.171875 -5.289062 2.097656 -5.164062 2.015625 -5.03125 C 1.941406 -4.894531 1.867188 -4.769531 1.796875 -4.65625 C 1.722656 -4.539062 1.664062 -4.445312 1.625 -4.375 Z M 0.234375 -2.0625 "/></g></g><g clip-rule="nonzero" clip-path="url(#91e626c02a)"><path style=" stroke:none;fill-rule:nonzero;fill:#004aad;fill-opacity:1;" d="M 253.410156 129.058594 C 246.40625 129.058594 240.671875 123.328125 240.671875 116.320312 C 240.671875 109.316406 246.40625 103.582031 253.410156 103.582031 C 260.417969 103.582031 266.148438 109.316406 266.148438 116.320312 C 266.148438 123.328125 260.417969 129.058594 253.410156 129.058594 Z M 253.410156 129.058594 "/></g><g clip-rule="nonzero" clip-path="url(#16de8f48bd)"><path style=" stroke:none;fill-rule:nonzero;fill:#ff3131;fill-opacity:1;" d="M 205.214844 127.992188 C 198.5 127.992188 193.007812 122.5 193.007812 115.789062 C 193.007812 109.074219 198.5 103.582031 205.214844 103.582031 C 211.925781 103.582031 217.417969 109.074219 217.417969 115.789062 C 217.417969 122.5 211.925781 127.992188 205.214844 127.992188 Z M 205.214844 127.992188 "/></g><g clip-rule="nonzero" clip-path="url(#36e9772a20)"><path style=" stroke:none;fill-rule:nonzero;fill:#ff3131;fill-opacity:1;" d="M 288.167969 104.152344 L 312.894531 104.152344 L 312.894531 128.5 L 288.167969 128.5 Z M 288.167969 104.152344 "/></g><g clip-rule="nonzero" clip-path="url(#dff6c8edb7)"><path style=" stroke:none;fill-rule:nonzero;fill:#004aad;fill-opacity:1;" d="M 144.964844 104.152344 L 169.691406 104.152344 L 169.691406 128.5 L 144.964844 128.5 Z M 144.964844 104.152344 "/></g></g></svg>