<svg xmlns="http://www.w3.org/2000/svg" xmlns:xlink="http://www.w3.org/1999/xlink" width="600" zoomAndPan="magnify" viewBox="0 0 450 149.999998" height="200" preserveAspectRatio="xMidYMid meet" version="1.2"><defs/><g id="713f117b55"><rect x="0" width="450" y="0" height="149.999998" style="fill:#ffffff;fill-opacity:1;stroke:none;"/><rect x="0" width="450" y="0" height="149.999998" style="fill:#ffffff;fill-opacity:1;stroke:none;"/><path style="fill-rule:nonzero;fill:#000000;fill-opacity:1;stroke-width:1;stroke-linecap:butt;stroke-linejoin:miter;stroke:#0c7b3b;stroke-opacity:1;stroke-miterlimit:4;" d="M 0.499995 0.999997 L 0.499995 199.000009 M 599.50003 0.999997 L 599.50003 199.000009 M -0.000005 0.499997 L 600.00003 0.499997 M -0.000005 199.500009 L 600.00003 199.500009 " transform="matrix(0.75,0,0,0.75,0.00000375,0.000002)"/><g style="fill:#0c7b3b;fill-opacity:1;"><g transform="translate(31.46281, 93.41777)"><path style="stroke:none" d="M 30.53125 -58.277344 L 3.457031 -23.363281 L 3.457031 -14.167969 L 25.890625 -14.167969 L 25.890625 0 L 38.625 0 L 38.625 -14.167969 L 42.507812 -14.167969 L 42.507812 -23.363281 L 38.625 -23.363281 L 38.625 -58.277344 Z M 25.890625 -23.363281 L 13.578125 -23.363281 L 25.890625 -39.046875 Z M 25.890625 -23.363281 "/></g></g><g style="fill:#0c7b3b;fill-opacity:1;"><g transform="translate(92.070716, 93.41777)"><path style="stroke:none" d="M 22.097656 -58.277344 C 11.722656 -58.277344 2.953125 -50.097656 2.953125 -38.457031 C 2.953125 -28.335938 10.121094 -20.242188 18.808594 -20.242188 C 20.242188 -20.242188 21 -20.492188 22.519531 -20.832031 L 9.277344 0.757812 L 23.363281 0.757812 L 33.398438 -15.519531 C 38.625 -24.035156 41.074219 -31.035156 41.074219 -38.878906 C 41.074219 -50.519531 31.964844 -58.277344 22.097656 -58.277344 Z M 15.347656 -38.878906 C 15.347656 -43.941406 18.046875 -47.480469 21.757812 -47.480469 C 25.554688 -47.480469 28.167969 -44.53125 28.167969 -38.878906 C 28.167969 -33.902344 25.554688 -30.363281 21.757812 -30.363281 C 18.132812 -30.363281 15.347656 -33.566406 15.347656 -38.878906 Z M 15.347656 -38.878906 "/></g></g><g style="fill:#0c7b3b;fill-opacity:1;"><g transform="translate(157.855233, 93.41777)"><path style="stroke:none" d="M 21.507812 -58.277344 L 11.554688 -42.167969 C 5.566406 -32.46875 3.710938 -26.3125 3.710938 -19.398438 C 3.710938 -6.242188 12.820312 0.757812 23.023438 0.757812 C 33.902344 0.757812 41.832031 -7.84375 41.832031 -19.058594 C 41.832031 -28.84375 35.085938 -37.023438 25.722656 -37.023438 C 24.710938 -37.023438 24.035156 -36.941406 22.347656 -36.519531 L 35.675781 -58.277344 Z M 16.699219 -18.300781 C 16.699219 -23.867188 19.230469 -26.988281 22.855469 -26.988281 C 27.074219 -26.988281 29.433594 -23.191406 29.433594 -18.554688 C 29.433594 -13.746094 27.15625 -9.953125 23.023438 -9.953125 C 19.058594 -9.953125 16.699219 -13.074219 16.699219 -18.300781 Z M 16.699219 -18.300781 "/></g></g><g style="fill:#0c7b3b;fill-opacity:1;"><g transform="translate(223.634067, 93.41777)"><path style="stroke:none" d="M 19.480469 -58.277344 C 15.179688 -58.277344 10.121094 -57.433594 6.324219 -55.746094 L 6.324219 -45.625 C 10.796875 -47.902344 13.746094 -48.664062 17.121094 -48.664062 C 21.421875 -48.664062 25.132812 -45.878906 25.132812 -41.914062 C 25.132812 -38.625 22.265625 -35.335938 17.203125 -34.914062 L 17.203125 -24.796875 C 23.109375 -24.203125 26.058594 -20.914062 26.058594 -16.78125 C 26.058594 -12.566406 22.433594 -9.277344 17.542969 -9.277344 C 13.242188 -9.277344 8.855469 -10.796875 4.890625 -13.664062 L 4.890625 -2.53125 C 8.941406 -0.335938 14.421875 0.757812 19.3125 0.757812 C 30.277344 0.757812 39.46875 -4.976562 39.46875 -16.023438 C 39.46875 -23.699219 35.929688 -28.167969 29.347656 -30.867188 C 34.664062 -33.398438 37.867188 -38.796875 37.867188 -44.191406 C 37.867188 -52.796875 30.109375 -58.277344 19.480469 -58.277344 Z M 19.480469 -58.277344 "/></g></g><g style="fill:#0c7b3b;fill-opacity:1;"><g transform="translate(289.412886, 93.41777)"><path style="stroke:none" d="M 8.347656 -57.519531 L 8.347656 -24.710938 C 10.625 -25.300781 12.988281 -25.554688 15.433594 -25.554688 C 22.097656 -25.554688 26.734375 -22.433594 26.734375 -17.289062 C 26.734375 -13.074219 23.363281 -9.363281 17.625 -9.363281 C 14.589844 -9.363281 10.542969 -10.035156 5.398438 -12.820312 L 5.398438 -2.363281 C 8.265625 -0.675781 14.507812 0.757812 19.3125 0.757812 C 33.058594 0.757812 40.144531 -7 40.144531 -17.964844 C 40.144531 -28 32.300781 -35.253906 22.097656 -35.253906 C 21.167969 -35.253906 20.492188 -35.167969 19.820312 -35.167969 L 19.820312 -45.964844 L 38.203125 -45.964844 L 38.203125 -57.519531 Z M 8.347656 -57.519531 "/></g></g><g style="fill:#0c7b3b;fill-opacity:1;"><g transform="translate(355.525677, 93.41777)"><path style="stroke:none" d="M 23.109375 -58.277344 C 12.3125 -58.277344 5.652344 -51.785156 5.652344 -42.675781 C 5.652344 -37.699219 7.589844 -33.566406 12.734375 -30.363281 C 7.167969 -28.085938 4.046875 -22.6875 4.046875 -16.363281 C 4.046875 -6.242188 12.058594 0.757812 23.191406 0.757812 C 35.167969 0.757812 42.589844 -6.324219 42.589844 -16.445312 C 42.589844 -22.519531 39.554688 -27.746094 33.988281 -30.363281 C 39.386719 -33.480469 40.988281 -38.203125 40.988281 -42.84375 C 40.988281 -50.097656 35.167969 -58.277344 23.109375 -58.277344 Z M 17.878906 -41.914062 C 17.878906 -46.46875 19.820312 -49.675781 23.277344 -49.675781 C 26.734375 -49.675781 28.675781 -46.976562 28.675781 -42 C 28.675781 -36.855469 26.734375 -33.902344 23.363281 -33.902344 C 19.734375 -33.902344 17.878906 -37.363281 17.878906 -41.914062 Z M 29.601562 -16.445312 C 29.601562 -10.964844 27.15625 -7.507812 23.445312 -7.507812 C 19.734375 -7.507812 16.953125 -11.132812 16.953125 -16.699219 C 16.953125 -22.179688 19.3125 -25.722656 23.363281 -25.722656 C 27.15625 -25.722656 29.601562 -22.519531 29.601562 -16.445312 Z M 29.601562 -16.445312 "/></g></g></g></svg>