<svg xmlns="http://www.w3.org/2000/svg" xmlns:xlink="http://www.w3.org/1999/xlink" width="600" zoomAndPan="magnify" viewBox="0 0 450 149.999998" height="200" preserveAspectRatio="xMidYMid meet" version="1.2"><defs/><g id="4a2b5652f8"><rect x="0" width="450" y="0" height="149.999998" style="fill:#ffffff;fill-opacity:1;stroke:none;"/><rect x="0" width="450" y="0" height="149.999998" style="fill:#ffffff;fill-opacity:1;stroke:none;"/><path style="fill-rule:nonzero;fill:#000000;fill-opacity:1;stroke-width:1;stroke-linecap:butt;stroke-linejoin:miter;stroke:#0c7b3b;stroke-opacity:1;stroke-miterlimit:4;" d="M 0.499995 0.999997 L 0.499995 199.000009 M 599.50003 0.999997 L 599.50003 199.000009 M -0.000005 0.499997 L 600.00003 0.499997 M -0.000005 199.500009 L 600.00003 199.500009 " transform="matrix(0.75,0,0,0.75,0.00000375,0.000002)"/><g style="fill:#0c7b3b;fill-opacity:1;"><g transform="translate(0.351566, 90.423966)"><path style="stroke:none" d="M 10.964844 -38.265625 L 10.964844 0 L 19.605469 0 L 19.605469 -38.265625 Z M 10.964844 -38.265625 "/></g></g><g style="fill:#0c7b3b;fill-opacity:1;"><g transform="translate(30.916445, 90.423966)"><path style="stroke:none" d="M 15.339844 -38.265625 C 8.640625 -38.265625 2.492188 -32.839844 2.492188 -18.882812 C 2.492188 -6.09375 7.53125 0.5 15.449219 0.5 C 23.203125 0.5 28.078125 -6.425781 28.078125 -19.050781 C 28.078125 -33.394531 21.652344 -38.265625 15.339844 -38.265625 Z M 19.382812 -19.382812 C 19.382812 -9.082031 18.054688 -6.535156 15.339844 -6.535156 C 12.847656 -6.535156 11.242188 -9.027344 11.242188 -18.882812 C 11.242188 -28.355469 12.625 -31.179688 15.285156 -31.179688 C 18.386719 -31.179688 19.382812 -27.300781 19.382812 -19.382812 Z M 19.382812 -19.382812 "/></g></g><g style="fill:#0c7b3b;fill-opacity:1;"><g transform="translate(61.481324, 90.423966)"><path style="stroke:none" d="M 15.339844 -38.265625 C 8.640625 -38.265625 2.492188 -32.839844 2.492188 -18.882812 C 2.492188 -6.09375 7.53125 0.5 15.449219 0.5 C 23.203125 0.5 28.078125 -6.425781 28.078125 -19.050781 C 28.078125 -33.394531 21.652344 -38.265625 15.339844 -38.265625 Z M 19.382812 -19.382812 C 19.382812 -9.082031 18.054688 -6.535156 15.339844 -6.535156 C 12.847656 -6.535156 11.242188 -9.027344 11.242188 -18.882812 C 11.242188 -28.355469 12.625 -31.179688 15.285156 -31.179688 C 18.386719 -31.179688 19.382812 -27.300781 19.382812 -19.382812 Z M 19.382812 -19.382812 "/></g></g><g style="fill:#0c7b3b;fill-opacity:1;"><g transform="translate(92.046202, 90.423966)"><path style="stroke:none" d="M 10.964844 -38.265625 L 10.964844 0 L 19.605469 0 L 19.605469 -38.265625 Z M 10.964844 -38.265625 "/></g></g><g style="fill:#0c7b3b;fill-opacity:1;"><g transform="translate(122.611081, 90.423966)"><path style="stroke:none" d="M 7.089844 -7.917969 C 4.984375 -7.917969 2.4375 -6.367188 2.4375 -3.65625 C 2.4375 -1.882812 3.433594 -0.277344 5.261719 0.5 C 5.316406 0.773438 5.316406 1.050781 5.316406 1.328125 C 5.316406 3.488281 4.484375 5.703125 2.769531 7.640625 L 2.769531 9.359375 C 8.804688 8.75 12.515625 3.265625 12.515625 -1.605469 C 12.515625 -6.699219 8.75 -7.917969 7.089844 -7.917969 Z M 7.089844 -7.917969 "/></g></g><g style="fill:#0c7b3b;fill-opacity:1;"><g transform="translate(137.616665, 90.423966)"><path style="stroke:none" d=""/></g></g><g style="fill:#0c7b3b;fill-opacity:1;"><g transform="translate(153.009848, 90.423966)"><path style="stroke:none" d="M 10.964844 -38.265625 L 10.964844 0 L 19.605469 0 L 19.605469 -38.265625 Z M 10.964844 -38.265625 "/></g></g><g style="fill:#0c7b3b;fill-opacity:1;"><g transform="translate(183.574727, 90.423966)"><path style="stroke:none" d="M 15.339844 -38.265625 C 8.640625 -38.265625 2.492188 -32.839844 2.492188 -18.882812 C 2.492188 -6.09375 7.53125 0.5 15.449219 0.5 C 23.203125 0.5 28.078125 -6.425781 28.078125 -19.050781 C 28.078125 -33.394531 21.652344 -38.265625 15.339844 -38.265625 Z M 19.382812 -19.382812 C 19.382812 -9.082031 18.054688 -6.535156 15.339844 -6.535156 C 12.847656 -6.535156 11.242188 -9.027344 11.242188 -18.882812 C 11.242188 -28.355469 12.625 -31.179688 15.285156 -31.179688 C 18.386719 -31.179688 19.382812 -27.300781 19.382812 -19.382812 Z M 19.382812 -19.382812 "/></g></g><g style="fill:#0c7b3b;fill-opacity:1;"><g transform="translate(214.139595, 90.423966)"><path style="stroke:none" d="M 10.964844 -38.265625 L 10.964844 0 L 19.605469 0 L 19.605469 -38.265625 Z M 10.964844 -38.265625 "/></g></g><g style="fill:#0c7b3b;fill-opacity:1;"><g transform="translate(244.704473, 90.423966)"><path style="stroke:none" d="M 15.339844 -38.265625 C 8.640625 -38.265625 2.492188 -32.839844 2.492188 -18.882812 C 2.492188 -6.09375 7.53125 0.5 15.449219 0.5 C 23.203125 0.5 28.078125 -6.425781 28.078125 -19.050781 C 28.078125 -33.394531 21.652344 -38.265625 15.339844 -38.265625 Z M 19.382812 -19.382812 C 19.382812 -9.082031 18.054688 -6.535156 15.339844 -6.535156 C 12.847656 -6.535156 11.242188 -9.027344 11.242188 -18.882812 C 11.242188 -28.355469 12.625 -31.179688 15.285156 -31.179688 C 18.386719 -31.179688 19.382812 -27.300781 19.382812 -19.382812 Z M 19.382812 -19.382812 "/></g></g><g style="fill:#0c7b3b;fill-opacity:1;"><g transform="translate(275.269352, 90.423966)"><path style="stroke:none" d=""/></g></g><g style="fill:#0c7b3b;fill-opacity:1;"><g transform="translate(290.662547, 90.423966)"><path style="stroke:none" d="M 7.089844 -7.917969 C 4.984375 -7.917969 2.4375 -6.367188 2.4375 -3.65625 C 2.4375 -1.882812 3.433594 -0.277344 5.261719 0.5 C 5.316406 0.773438 5.316406 1.050781 5.316406 1.328125 C 5.316406 3.488281 4.484375 5.703125 2.769531 7.640625 L 2.769531 9.359375 C 8.804688 8.75 12.515625 3.265625 12.515625 -1.605469 C 12.515625 -6.699219 8.75 -7.917969 7.089844 -7.917969 Z M 7.089844 -7.917969 "/></g></g><g style="fill:#0c7b3b;fill-opacity:1;"><g transform="translate(305.66813, 90.423966)"><path style="stroke:none" d=""/></g></g><g style="fill:#0c7b3b;fill-opacity:1;"><g transform="translate(321.061325, 90.423966)"><path style="stroke:none" d="M 10.964844 -38.265625 L 10.964844 0 L 19.605469 0 L 19.605469 -38.265625 Z M 10.964844 -38.265625 "/></g></g><g style="fill:#0c7b3b;fill-opacity:1;"><g transform="translate(351.626204, 90.423966)"><path style="stroke:none" d="M 10.964844 -38.265625 L 10.964844 0 L 19.605469 0 L 19.605469 -38.265625 Z M 10.964844 -38.265625 "/></g></g><g style="fill:#0c7b3b;fill-opacity:1;"><g transform="translate(382.191083, 90.423966)"><path style="stroke:none" d="M 10.964844 -38.265625 L 10.964844 0 L 19.605469 0 L 19.605469 -38.265625 Z M 10.964844 -38.265625 "/></g></g><g style="fill:#0c7b3b;fill-opacity:1;"><g transform="translate(412.755961, 90.423966)"><path style="stroke:none" d="M 15.339844 -38.265625 C 8.640625 -38.265625 2.492188 -32.839844 2.492188 -18.882812 C 2.492188 -6.09375 7.53125 0.5 15.449219 0.5 C 23.203125 0.5 28.078125 -6.425781 28.078125 -19.050781 C 28.078125 -33.394531 21.652344 -38.265625 15.339844 -38.265625 Z M 19.382812 -19.382812 C 19.382812 -9.082031 18.054688 -6.535156 15.339844 -6.535156 C 12.847656 -6.535156 11.242188 -9.027344 11.242188 -18.882812 C 11.242188 -28.355469 12.625 -31.179688 15.285156 -31.179688 C 18.386719 -31.179688 19.382812 -27.300781 19.382812 -19.382812 Z M 19.382812 -19.382812 "/></g></g></g></svg>