<svg xmlns="http://www.w3.org/2000/svg" xmlns:xlink="http://www.w3.org/1999/xlink" width="600" zoomAndPan="magnify" viewBox="0 0 450 149.999998" height="200" preserveAspectRatio="xMidYMid meet" version="1.2"><defs><clipPath id="7776f3ea92"><path d="M 170.269531 5.054688 L 285 5.054688 L 285 45.554688 L 170.269531 45.554688 Z M 170.269531 5.054688 "/></clipPath><clipPath id="2582571fe9"><path d="M 170.269531 5.054688 L 285.019531 5.054688 L 285.019531 45.554688 L 170.269531 45.554688 Z M 170.269531 5.054688 "/></clipPath><clipPath id="d63807c5d2"><path d="M 183 10.042969 L 214.484375 10.042969 L 214.484375 40.394531 L 183 40.394531 Z M 183 10.042969 "/></clipPath><clipPath id="4f16618b5f"><path d="M 170.269531 52.269531 L 285 52.269531 L 285 92.769531 L 170.269531 92.769531 Z M 170.269531 52.269531 "/></clipPath><clipPath id="0af5187905"><path d="M 170.269531 52.269531 L 285.019531 52.269531 L 285.019531 92.769531 L 170.269531 92.769531 Z M 170.269531 52.269531 "/></clipPath><clipPath id="bf4c5d499a"><path d="M 250.914062 61.992188 L 265.164062 61.992188 L 265.164062 79 L 250.914062 79 Z M 250.914062 61.992188 "/></clipPath><clipPath id="36e1a72119"><path d="M 255 80 L 261 80 L 261 85.242188 L 255 85.242188 Z M 255 80 "/></clipPath><clipPath id="101f1bb64f"><path d="M 240.128906 10.042969 L 271.613281 10.042969 L 271.613281 40.394531 L 240.128906 40.394531 Z M 240.128906 10.042969 "/></clipPath><clipPath id="52f2c8e099"><path d="M 183 57.253906 L 214.484375 57.253906 L 214.484375 87.609375 L 183 87.609375 Z M 183 57.253906 "/></clipPath><clipPath id="965de2d12f"><path d="M 134.335938 99.34375 L 324.835938 99.34375 L 324.835938 132 L 134.335938 132 Z M 134.335938 99.34375 "/></clipPath><clipPath id="27a1522d2d"><path d="M 134.335938 99.34375 L 324.835938 99.34375 L 324.835938 132.34375 L 134.335938 132.34375 Z M 134.335938 99.34375 "/></clipPath><clipPath id="e64ce05bd0"><path d="M 134.335938 135 L 324.835938 135 L 324.835938 148 L 134.335938 148 Z M 134.335938 135 "/></clipPath><clipPath id="aaa733086e"><path d="M 239.40625 103.050781 L 264.90625 103.050781 L 264.90625 128.550781 L 239.40625 128.550781 Z M 239.40625 103.050781 "/></clipPath><clipPath id="8ba926d5fa"><path d="M 190.714844 103.582031 L 215.464844 103.582031 L 215.464844 128 L 190.714844 128 Z M 190.714844 103.582031 "/></clipPath><clipPath id="98a5c0ff5e"><path d="M 147.257812 104.1875 L 171.957031 104.1875 L 171.957031 128.535156 L 147.257812 128.535156 Z M 147.257812 104.1875 "/></clipPath><clipPath id="f1a4285e44"><path d="M 287.5 103.226562 L 312.199219 103.226562 L 312.199219 127.574219 L 287.5 127.574219 Z M 287.5 103.226562 "/></clipPath></defs><g id="8cf174f68f"><rect x="0" width="450" y="0" height="149.999998" style="fill:#ffffff;fill-opacity:1;stroke:none;"/><rect x="0" width="450" y="0" height="149.999998" style="fill:#ffffff;fill-opacity:1;stroke:none;"/><g clip-rule="nonzero" clip-path="url(#7776f3ea92)"><path style=" stroke:none;fill-rule:nonzero;fill:#000000;fill-opacity:1;" d="M 170.464844 5.449219 L 170.464844 44.984375 M 228.03125 5.449219 L 228.03125 44.984375 M 284.800781 5.449219 L 284.800781 44.984375 M 170.269531 5.253906 L 285 5.253906 M 170.269531 45.183594 L 285 45.183594 "/></g><g clip-rule="nonzero" clip-path="url(#2582571fe9)"><path style="fill:none;stroke-width:0.528162;stroke-linecap:butt;stroke-linejoin:miter;stroke:#000000;stroke-opacity:1;stroke-miterlimit:4;" d="M 0.262716 0.526404 L 0.262716 53.239949 M 77.017929 0.526404 L 77.017929 53.239949 M 152.710642 0.526404 L 152.710642 53.239949 M 0.00229951 0.265987 L 152.976267 0.265987 M 0.00229951 53.505574 L 152.976267 53.505574 " transform="matrix(0.75,0,0,0.75,170.267807,5.054416)"/></g><g clip-rule="nonzero" clip-path="url(#d63807c5d2)"><path style=" stroke:none;fill-rule:nonzero;fill:#ff3131;fill-opacity:1;" d="M 183 10.042969 L 214.539062 10.042969 L 214.539062 40.394531 L 183 40.394531 Z M 183 10.042969 "/></g><g clip-rule="nonzero" clip-path="url(#4f16618b5f)"><path style=" stroke:none;fill-rule:nonzero;fill:#000000;fill-opacity:1;" d="M 170.464844 52.664062 L 170.464844 92.199219 M 228.03125 52.664062 L 228.03125 92.199219 M 284.800781 52.664062 L 284.800781 92.199219 M 170.269531 52.46875 L 285 52.46875 M 170.269531 92.394531 L 285 92.394531 "/></g><g clip-rule="nonzero" clip-path="url(#0af5187905)"><path style="fill:none;stroke-width:0.528162;stroke-linecap:butt;stroke-linejoin:miter;stroke:#000000;stroke-opacity:1;stroke-miterlimit:4;" d="M 0.262716 0.527033 L 0.262716 53.240578 M 77.017929 0.527033 L 77.017929 53.240578 M 152.710642 0.527033 L 152.710642 53.240578 M 0.00229951 0.266616 L 152.976267 0.266616 M 0.00229951 53.500994 L 152.976267 53.500994 " transform="matrix(0.75,0,0,0.75,170.267807,52.268788)"/></g><g clip-rule="nonzero" clip-path="url(#bf4c5d499a)"><path style=" stroke:none;fill-rule:nonzero;fill:#000000;fill-opacity:1;" d="M 264.222656 64.6875 C 263.609375 63.8125 262.761719 63.144531 261.6875 62.683594 C 260.613281 62.222656 259.375 61.992188 257.972656 61.992188 C 256.695312 61.992188 255.53125 62.21875 254.476562 62.671875 C 253.421875 63.125 252.574219 63.816406 251.933594 64.734375 C 251.421875 65.464844 251.105469 66.347656 250.976562 67.382812 C 250.921875 67.835938 251.277344 68.234375 251.734375 68.234375 L 254.554688 68.234375 C 254.917969 68.234375 255.222656 67.980469 255.304688 67.625 C 255.371094 67.308594 255.488281 67.027344 255.652344 66.785156 C 255.910156 66.394531 256.246094 66.097656 256.652344 65.894531 C 257.0625 65.695312 257.496094 65.59375 257.953125 65.59375 C 258.425781 65.59375 258.855469 65.691406 259.25 65.890625 C 259.640625 66.085938 259.949219 66.371094 260.183594 66.738281 C 260.414062 67.105469 260.53125 67.527344 260.53125 68.015625 C 260.53125 68.476562 260.429688 68.890625 260.222656 69.257812 C 260.019531 69.625 259.746094 69.964844 259.402344 70.265625 C 259.054688 70.574219 258.667969 70.863281 258.234375 71.144531 C 257.648438 71.511719 257.144531 71.921875 256.734375 72.375 C 256.316406 72.824219 256.003906 73.414062 255.785156 74.148438 C 255.574219 74.882812 255.460938 75.867188 255.457031 77.097656 L 255.457031 77.710938 C 255.457031 78.128906 255.796875 78.472656 256.21875 78.472656 L 258.703125 78.472656 C 259.117188 78.472656 259.460938 78.136719 259.460938 77.710938 L 259.460938 77.097656 C 259.472656 76.40625 259.558594 75.824219 259.730469 75.355469 C 259.902344 74.882812 260.167969 74.464844 260.519531 74.109375 C 260.878906 73.75 261.332031 73.40625 261.890625 73.070312 C 262.554688 72.675781 263.125 72.234375 263.613281 71.742188 C 264.09375 71.253906 264.476562 70.6875 264.75 70.046875 C 265.019531 69.410156 265.160156 68.675781 265.160156 67.855469 C 265.144531 66.617188 264.832031 65.5625 264.222656 64.6875 Z M 264.222656 64.6875 "/></g><g clip-rule="nonzero" clip-path="url(#36e1a72119)"><path style=" stroke:none;fill-rule:nonzero;fill:#000000;fill-opacity:1;" d="M 257.535156 80.1875 C 256.832031 80.1875 256.230469 80.433594 255.734375 80.925781 C 255.238281 81.417969 254.992188 82.011719 255 82.703125 C 254.992188 83.398438 255.238281 84 255.734375 84.496094 C 256.230469 84.992188 256.832031 85.242188 257.535156 85.242188 C 257.988281 85.242188 258.402344 85.125 258.78125 84.894531 C 259.160156 84.664062 259.46875 84.363281 259.703125 83.976562 C 259.941406 83.589844 260.0625 83.167969 260.066406 82.703125 C 260.058594 82.007812 259.800781 81.417969 259.296875 80.925781 C 258.792969 80.433594 258.203125 80.1875 257.535156 80.1875 Z M 257.535156 80.1875 "/></g><g clip-rule="nonzero" clip-path="url(#101f1bb64f)"><path style=" stroke:none;fill-rule:nonzero;fill:#ff3131;fill-opacity:1;" d="M 240.128906 10.042969 L 271.667969 10.042969 L 271.667969 40.394531 L 240.128906 40.394531 Z M 240.128906 10.042969 "/></g><g clip-rule="nonzero" clip-path="url(#52f2c8e099)"><path style=" stroke:none;fill-rule:nonzero;fill:#ff3131;fill-opacity:1;" d="M 183 57.253906 L 214.539062 57.253906 L 214.539062 87.609375 L 183 87.609375 Z M 183 57.253906 "/></g><g clip-rule="nonzero" clip-path="url(#965de2d12f)"><path style=" stroke:none;fill-rule:nonzero;fill:#000000;fill-opacity:1;" d="M 134.660156 100 L 134.660156 131.585938 M 181.796875 100 L 181.796875 131.585938 M 228.304688 100 L 228.304688 131.585938 M 276.070312 100 L 276.070312 131.585938 M 323.839844 100 L 323.839844 131.585938 M 134.335938 99.671875 L 324.164062 99.671875 M 134.335938 131.914062 L 324.164062 131.914062 "/></g><g clip-rule="nonzero" clip-path="url(#27a1522d2d)"><path style="fill:none;stroke-width:0.871773;stroke-linecap:butt;stroke-linejoin:miter;stroke:#000000;stroke-opacity:1;stroke-miterlimit:4;" d="M 0.434282 0.874238 L 0.434282 42.988823 M 63.283244 0.874238 L 63.283244 42.988823 M 125.293664 0.874238 L 125.293664 42.988823 M 188.981168 0.874238 L 188.981168 42.988823 M 252.67388 0.874238 L 252.67388 42.988823 M 0.00199038 0.436738 L 253.106172 0.436738 M 0.00199038 43.426323 L 253.106172 43.426323 " transform="matrix(0.75,0,0,0.75,134.334445,99.344322)"/></g><g clip-rule="nonzero" clip-path="url(#e64ce05bd0)"><path style="fill-rule:nonzero;fill:#000000;fill-opacity:1;stroke-width:0.871773;stroke-linecap:butt;stroke-linejoin:miter;stroke:#000000;stroke-opacity:1;stroke-miterlimit:4;" d="M 0.434282 0.873408 L 0.434282 16.347367 M 63.585327 0.873408 L 63.585327 16.347367 M 124.694706 0.873408 L 124.694706 16.347367 M 188.949918 0.873408 L 188.949918 16.347367 M 252.67388 0.873408 L 252.67388 16.347367 M 0.00199038 0.435908 L 253.106172 0.435908 M 0.00199038 16.779659 L 253.106172 16.779659 " transform="matrix(0.75,0,0,0.75,134.334445,135.001194)"/></g><g style="fill:#000000;fill-opacity:1;"><g transform="translate(202.923566, 143.417893)"><path style="stroke:none" d="M 0.28125 0 L 0.28125 -0.765625 L 1.421875 -1.84375 C 1.765625 -2.175781 2.035156 -2.476562 2.234375 -2.75 C 2.429688 -3.03125 2.566406 -3.316406 2.640625 -3.609375 C 2.722656 -3.898438 2.765625 -4.234375 2.765625 -4.609375 C 2.765625 -5.046875 2.710938 -5.363281 2.609375 -5.5625 C 2.503906 -5.757812 2.328125 -5.859375 2.078125 -5.859375 C 1.890625 -5.859375 1.742188 -5.800781 1.640625 -5.6875 C 1.546875 -5.570312 1.476562 -5.378906 1.4375 -5.109375 C 1.394531 -4.847656 1.375 -4.484375 1.375 -4.015625 C 1.0625 -4.015625 0.804688 -4.078125 0.609375 -4.203125 C 0.410156 -4.328125 0.3125 -4.523438 0.3125 -4.796875 C 0.3125 -5.117188 0.460938 -5.390625 0.765625 -5.609375 C 1.078125 -5.828125 1.53125 -5.9375 2.125 -5.9375 C 2.738281 -5.9375 3.203125 -5.816406 3.515625 -5.578125 C 3.835938 -5.335938 4 -5 4 -4.5625 C 4 -4.375 3.960938 -4.191406 3.890625 -4.015625 C 3.828125 -3.835938 3.707031 -3.644531 3.53125 -3.4375 C 3.351562 -3.226562 3.113281 -2.988281 2.8125 -2.71875 C 2.519531 -2.457031 2.144531 -2.148438 1.6875 -1.796875 L 0.546875 -0.90625 L 3.3125 -0.90625 C 3.570312 -0.90625 3.757812 -0.941406 3.875 -1.015625 C 4 -1.097656 4.070312 -1.25 4.09375 -1.46875 L 4.125 -1.71875 L 4.203125 -1.71875 L 4.15625 0 Z M 0.28125 0 "/></g></g><g style="fill:#000000;fill-opacity:1;"><g transform="translate(251.140595, 143.417893)"><path style="stroke:none" d="M 1.984375 0.078125 C 1.378906 0.078125 0.9375 -0.0195312 0.65625 -0.21875 C 0.375 -0.414062 0.234375 -0.644531 0.234375 -0.90625 C 0.234375 -1.113281 0.300781 -1.269531 0.4375 -1.375 C 0.570312 -1.488281 0.734375 -1.546875 0.921875 -1.546875 C 0.921875 -1.140625 0.960938 -0.828125 1.046875 -0.609375 C 1.140625 -0.390625 1.257812 -0.234375 1.40625 -0.140625 C 1.5625 -0.046875 1.738281 0 1.9375 0 C 2.289062 0 2.546875 -0.132812 2.703125 -0.40625 C 2.859375 -0.675781 2.9375 -1.066406 2.9375 -1.578125 C 2.9375 -1.941406 2.894531 -2.222656 2.8125 -2.421875 C 2.726562 -2.628906 2.585938 -2.773438 2.390625 -2.859375 C 2.191406 -2.941406 1.9375 -2.984375 1.625 -2.984375 L 1.171875 -2.984375 L 1.171875 -3.0625 L 1.625 -3.0625 C 1.914062 -3.0625 2.140625 -3.109375 2.296875 -3.203125 C 2.460938 -3.296875 2.578125 -3.445312 2.640625 -3.65625 C 2.710938 -3.863281 2.75 -4.140625 2.75 -4.484375 C 2.75 -4.984375 2.6875 -5.335938 2.5625 -5.546875 C 2.445312 -5.753906 2.28125 -5.859375 2.0625 -5.859375 C 1.769531 -5.859375 1.578125 -5.707031 1.484375 -5.40625 C 1.398438 -5.113281 1.359375 -4.703125 1.359375 -4.171875 C 1.023438 -4.171875 0.765625 -4.226562 0.578125 -4.34375 C 0.390625 -4.457031 0.296875 -4.640625 0.296875 -4.890625 C 0.296875 -5.179688 0.445312 -5.425781 0.75 -5.625 C 1.0625 -5.832031 1.515625 -5.9375 2.109375 -5.9375 C 2.691406 -5.9375 3.148438 -5.816406 3.484375 -5.578125 C 3.828125 -5.347656 4 -5.007812 4 -4.5625 C 4 -4.332031 3.941406 -4.109375 3.828125 -3.890625 C 3.710938 -3.671875 3.519531 -3.484375 3.25 -3.328125 C 2.988281 -3.179688 2.628906 -3.085938 2.171875 -3.046875 C 2.828125 -3.046875 3.328125 -2.921875 3.671875 -2.671875 C 4.023438 -2.429688 4.203125 -2.0625 4.203125 -1.5625 C 4.203125 -1.164062 4.097656 -0.847656 3.890625 -0.609375 C 3.679688 -0.367188 3.40625 -0.191406 3.0625 -0.078125 C 2.726562 0.0234375 2.367188 0.078125 1.984375 0.078125 Z M 1.984375 0.078125 "/></g></g><g style="fill:#000000;fill-opacity:1;"><g transform="translate(155.022885, 143.417893)"><path style="stroke:none" d="M 0.796875 0 L 0.796875 -0.078125 L 1.46875 -0.078125 C 1.601562 -0.078125 1.703125 -0.113281 1.765625 -0.1875 C 1.835938 -0.269531 1.875 -0.410156 1.875 -0.609375 L 1.875 -5.21875 C 1.625 -4.863281 1.425781 -4.609375 1.28125 -4.453125 C 1.132812 -4.296875 0.988281 -4.21875 0.84375 -4.21875 C 0.695312 -4.21875 0.578125 -4.257812 0.484375 -4.34375 C 0.390625 -4.4375 0.34375 -4.578125 0.34375 -4.765625 C 0.613281 -4.773438 0.835938 -4.800781 1.015625 -4.84375 C 1.203125 -4.882812 1.375 -4.960938 1.53125 -5.078125 C 1.695312 -5.191406 1.894531 -5.363281 2.125 -5.59375 L 2.421875 -5.890625 L 3.09375 -5.890625 L 3.09375 -0.609375 C 3.09375 -0.441406 3.117188 -0.3125 3.171875 -0.21875 C 3.234375 -0.125 3.347656 -0.078125 3.515625 -0.078125 L 4.1875 -0.078125 L 4.1875 0 Z M 0.796875 0 "/></g></g><g style="fill:#000000;fill-opacity:1;"><g transform="translate(298.223982, 143.417893)"><path style="stroke:none" d="M 1.46875 0 L 1.46875 -0.078125 L 1.703125 -0.078125 C 1.890625 -0.078125 2.046875 -0.109375 2.171875 -0.171875 C 2.304688 -0.242188 2.375 -0.410156 2.375 -0.671875 L 2.375 -1.53125 L 0.109375 -1.53125 L 0.109375 -2.03125 L 2.4375 -5.859375 L 3.578125 -5.859375 L 3.578125 -2.0625 L 4.421875 -2.0625 L 4.421875 -1.53125 L 3.578125 -1.53125 L 3.578125 -0.671875 C 3.578125 -0.410156 3.640625 -0.242188 3.765625 -0.171875 C 3.898438 -0.109375 4.0625 -0.078125 4.25 -0.078125 L 4.359375 -0.078125 L 4.359375 0 Z M 0.234375 -2.0625 L 2.375 -2.0625 L 2.375 -3.875 C 2.375 -4.175781 2.375 -4.488281 2.375 -4.8125 C 2.375 -5.132812 2.378906 -5.414062 2.390625 -5.65625 C 2.359375 -5.601562 2.304688 -5.519531 2.234375 -5.40625 C 2.171875 -5.289062 2.097656 -5.164062 2.015625 -5.03125 C 1.941406 -4.894531 1.867188 -4.769531 1.796875 -4.65625 C 1.722656 -4.539062 1.664062 -4.445312 1.625 -4.375 Z M 0.234375 -2.0625 "/></g></g><g clip-rule="nonzero" clip-path="url(#aaa733086e)"><path style=" stroke:none;fill-rule:nonzero;fill:#004aad;fill-opacity:1;" d="M 252.144531 128.527344 C 245.140625 128.527344 239.40625 122.792969 239.40625 115.789062 C 239.40625 108.78125 245.140625 103.050781 252.144531 103.050781 C 259.152344 103.050781 264.882812 108.78125 264.882812 115.789062 C 264.882812 122.792969 259.152344 128.527344 252.144531 128.527344 Z M 252.144531 128.527344 "/></g><g clip-rule="nonzero" clip-path="url(#8ba926d5fa)"><path style=" stroke:none;fill-rule:nonzero;fill:#ff3131;fill-opacity:1;" d="M 202.921875 127.992188 C 196.207031 127.992188 190.714844 122.5 190.714844 115.789062 C 190.714844 109.074219 196.207031 103.582031 202.921875 103.582031 C 209.632812 103.582031 215.125 109.074219 215.125 115.789062 C 215.125 122.5 209.632812 127.992188 202.921875 127.992188 Z M 202.921875 127.992188 "/></g><g clip-rule="nonzero" clip-path="url(#98a5c0ff5e)"><path style=" stroke:none;fill-rule:nonzero;fill:#ff3131;fill-opacity:1;" d="M 147.257812 104.1875 L 171.984375 104.1875 L 171.984375 128.535156 L 147.257812 128.535156 Z M 147.257812 104.1875 "/></g><g clip-rule="nonzero" clip-path="url(#f1a4285e44)"><path style=" stroke:none;fill-rule:nonzero;fill:#004aad;fill-opacity:1;" d="M 287.5 103.226562 L 312.226562 103.226562 L 312.226562 127.574219 L 287.5 127.574219 Z M 287.5 103.226562 "/></g></g></svg>