<svg xmlns="http://www.w3.org/2000/svg" xmlns:xlink="http://www.w3.org/1999/xlink" width="600" zoomAndPan="magnify" viewBox="0 0 450 149.999998" height="200" preserveAspectRatio="xMidYMid meet" version="1.2"><defs><clipPath id="ac6a438f05"><path d="M 168.4375 1 L 288.4375 1 L 288.4375 43 L 168.4375 43 Z M 168.4375 1 "/></clipPath><clipPath id="6583f3f379"><path d="M 168.4375 0.929688 L 288.4375 0.929688 L 288.4375 43.679688 L 168.4375 43.679688 Z M 168.4375 0.929688 "/></clipPath><clipPath id="e2b9579aca"><path d="M 168.4375 49.011719 L 288.4375 49.011719 L 288.4375 91 L 168.4375 91 Z M 168.4375 49.011719 "/></clipPath><clipPath id="9043374c17"><path d="M 168.4375 49.011719 L 288.4375 49.011719 L 288.4375 91.761719 L 168.4375 91.761719 Z M 168.4375 49.011719 "/></clipPath><clipPath id="3d488cf1ef"><path d="M 251.140625 62.183594 L 261.640625 62.183594 L 261.640625 75 L 251.140625 75 Z M 251.140625 62.183594 "/></clipPath><clipPath id="14f0f8c648"><path d="M 254 76 L 258 76 L 258 80.183594 L 254 80.183594 Z M 254 76 "/></clipPath><clipPath id="2e2ac8cbbd"><path d="M 180.78125 6.464844 L 213.789062 6.464844 L 213.789062 37.476562 L 180.78125 37.476562 Z M 180.78125 6.464844 "/></clipPath><clipPath id="2870ccb29c"><path d="M 242.488281 5.324219 L 275.496094 5.324219 L 275.496094 36.335938 L 242.488281 36.335938 Z M 242.488281 5.324219 "/></clipPath><clipPath id="7b5b0e4136"><path d="M 181.652344 52.925781 L 216 52.925781 L 216 87.425781 L 181.652344 87.425781 Z M 181.652344 52.925781 "/></clipPath><clipPath id="62698f17f7"><path d="M 134.335938 99.34375 L 324.835938 99.34375 L 324.835938 132 L 134.335938 132 Z M 134.335938 99.34375 "/></clipPath><clipPath id="8cf09fb916"><path d="M 134.335938 99.34375 L 324.835938 99.34375 L 324.835938 132.34375 L 134.335938 132.34375 Z M 134.335938 99.34375 "/></clipPath><clipPath id="a14415efa0"><path d="M 134.335938 135 L 324.835938 135 L 324.835938 148 L 134.335938 148 Z M 134.335938 135 "/></clipPath><clipPath id="3126a1920c"><path d="M 240.671875 103.582031 L 266.171875 103.582031 L 266.171875 129.082031 L 240.671875 129.082031 Z M 240.671875 103.582031 "/></clipPath><clipPath id="6a99fdeb5d"><path d="M 145.105469 104.082031 L 169.855469 104.082031 L 169.855469 128.832031 L 145.105469 128.832031 Z M 145.105469 104.082031 "/></clipPath><clipPath id="4ecbd90590"><path d="M 288.167969 104.152344 L 312.867188 104.152344 L 312.867188 128.5 L 288.167969 128.5 Z M 288.167969 104.152344 "/></clipPath><clipPath id="b21fd519e1"><path d="M 192.867188 104.082031 L 217.566406 104.082031 L 217.566406 128.429688 L 192.867188 128.429688 Z M 192.867188 104.082031 "/></clipPath></defs><g id="c7a1240be8"><rect x="0" width="450" y="0" height="149.999998" style="fill:#ffffff;fill-opacity:1;stroke:none;"/><rect x="0" width="450" y="0" height="149.999998" style="fill:#ffffff;fill-opacity:1;stroke:none;"/><g clip-rule="nonzero" clip-path="url(#ac6a438f05)"><path style=" stroke:none;fill-rule:nonzero;fill:#000000;fill-opacity:1;" d="M 168.644531 1.34375 L 168.644531 42.597656 M 228.71875 1.34375 L 228.71875 42.597656 M 287.960938 1.34375 L 287.960938 42.597656 M 168.4375 1.136719 L 288.167969 1.136719 M 168.4375 42.804688 L 288.167969 42.804688 "/></g><g clip-rule="nonzero" clip-path="url(#6583f3f379)"><path style="fill:none;stroke-width:0.551176;stroke-linecap:butt;stroke-linejoin:miter;stroke:#000000;stroke-opacity:1;stroke-miterlimit:4;" d="M 0.277175 0.553207 L 0.277175 55.558419 M 80.376138 0.553207 L 80.376138 55.558419 M 159.365726 0.553207 L 159.365726 55.558419 M 0.00113343 0.277165 L 159.641768 0.277165 M 0.00113343 55.83446 L 159.641768 55.83446 " transform="matrix(0.75,0,0,0.75,168.43665,0.928845)"/></g><g clip-rule="nonzero" clip-path="url(#e2b9579aca)"><path style=" stroke:none;fill-rule:nonzero;fill:#000000;fill-opacity:1;" d="M 168.644531 49.425781 L 168.644531 90.679688 M 228.71875 49.425781 L 228.71875 90.679688 M 287.960938 49.425781 L 287.960938 90.679688 M 168.4375 49.21875 L 288.167969 49.21875 M 168.4375 90.886719 L 288.167969 90.886719 "/></g><g clip-rule="nonzero" clip-path="url(#9043374c17)"><path style="fill:none;stroke-width:0.551176;stroke-linecap:butt;stroke-linejoin:miter;stroke:#000000;stroke-opacity:1;stroke-miterlimit:4;" d="M 0.277175 0.552252 L 0.277175 55.557464 M 80.376138 0.552252 L 80.376138 55.557464 M 159.365726 0.552252 L 159.365726 55.557464 M 0.00113343 0.276211 L 159.641768 0.276211 M 0.00113343 55.833506 L 159.641768 55.833506 " transform="matrix(0.75,0,0,0.75,168.43665,49.011592)"/></g><g clip-rule="nonzero" clip-path="url(#3d488cf1ef)"><path style=" stroke:none;fill-rule:nonzero;fill:#000000;fill-opacity:1;" d="M 260.949219 64.269531 C 260.496094 63.59375 259.875 63.078125 259.078125 62.71875 C 258.289062 62.363281 257.375 62.183594 256.339844 62.183594 C 255.398438 62.183594 254.539062 62.359375 253.761719 62.714844 C 252.984375 63.0625 252.359375 63.597656 251.886719 64.308594 C 251.511719 64.871094 251.277344 65.554688 251.183594 66.359375 C 251.140625 66.707031 251.402344 67.019531 251.738281 67.019531 L 253.820312 67.019531 C 254.089844 67.019531 254.3125 66.820312 254.371094 66.546875 C 254.421875 66.300781 254.507812 66.082031 254.628906 65.894531 C 254.820312 65.59375 255.066406 65.363281 255.367188 65.207031 C 255.671875 65.050781 255.988281 64.972656 256.328125 64.972656 C 256.675781 64.972656 256.992188 65.050781 257.28125 65.203125 C 257.570312 65.355469 257.800781 65.574219 257.96875 65.859375 C 258.140625 66.144531 258.226562 66.46875 258.226562 66.847656 C 258.226562 67.203125 258.152344 67.523438 258 67.808594 C 257.851562 68.09375 257.648438 68.355469 257.394531 68.589844 C 257.136719 68.828125 256.855469 69.050781 256.53125 69.269531 C 256.101562 69.554688 255.730469 69.871094 255.425781 70.222656 C 255.117188 70.570312 254.890625 71.027344 254.726562 71.597656 C 254.570312 72.164062 254.488281 72.925781 254.484375 73.878906 L 254.484375 74.351562 C 254.484375 74.675781 254.734375 74.945312 255.046875 74.945312 L 256.878906 74.945312 C 257.1875 74.945312 257.441406 74.679688 257.441406 74.351562 L 257.441406 73.878906 C 257.445312 73.339844 257.511719 72.890625 257.636719 72.527344 C 257.765625 72.164062 257.960938 71.839844 258.21875 71.5625 C 258.484375 71.285156 258.820312 71.019531 259.230469 70.761719 C 259.71875 70.457031 260.140625 70.113281 260.5 69.730469 C 260.855469 69.355469 261.136719 68.914062 261.339844 68.421875 C 261.539062 67.929688 261.640625 67.359375 261.640625 66.722656 C 261.628906 65.765625 261.402344 64.949219 260.949219 64.269531 Z M 260.949219 64.269531 "/></g><g clip-rule="nonzero" clip-path="url(#14f0f8c648)"><path style=" stroke:none;fill-rule:nonzero;fill:#000000;fill-opacity:1;" d="M 256.019531 76.269531 C 255.5 76.269531 255.058594 76.457031 254.691406 76.839844 C 254.324219 77.222656 254.144531 77.683594 254.148438 78.214844 C 254.144531 78.753906 254.324219 79.21875 254.691406 79.605469 C 255.058594 79.988281 255.5 80.179688 256.019531 80.179688 C 256.351562 80.179688 256.660156 80.089844 256.9375 79.914062 C 257.21875 79.734375 257.441406 79.5 257.617188 79.203125 C 257.792969 78.902344 257.882812 78.574219 257.886719 78.214844 C 257.878906 77.679688 257.691406 77.222656 257.316406 76.839844 C 256.945312 76.457031 256.511719 76.269531 256.019531 76.269531 Z M 256.019531 76.269531 "/></g><g clip-rule="nonzero" clip-path="url(#2e2ac8cbbd)"><path style=" stroke:none;fill-rule:nonzero;fill:#ff3131;fill-opacity:1;" d="M 180.78125 6.464844 L 213.851562 6.464844 L 213.851562 37.476562 L 180.78125 37.476562 Z M 180.78125 6.464844 "/></g><g clip-rule="nonzero" clip-path="url(#2870ccb29c)"><path style=" stroke:none;fill-rule:nonzero;fill:#ff3131;fill-opacity:1;" d="M 242.488281 5.324219 L 275.554688 5.324219 L 275.554688 36.335938 L 242.488281 36.335938 Z M 242.488281 5.324219 "/></g><g clip-rule="nonzero" clip-path="url(#7b5b0e4136)"><path style=" stroke:none;fill-rule:nonzero;fill:#ff3131;fill-opacity:1;" d="M 198.777344 87.179688 C 189.359375 87.179688 181.652344 79.472656 181.652344 70.050781 C 181.652344 60.632812 189.359375 52.925781 198.777344 52.925781 C 208.199219 52.925781 215.90625 60.632812 215.90625 70.050781 C 215.90625 79.472656 208.199219 87.179688 198.777344 87.179688 Z M 198.777344 87.179688 "/></g><g clip-rule="nonzero" clip-path="url(#62698f17f7)"><path style=" stroke:none;fill-rule:nonzero;fill:#000000;fill-opacity:1;" d="M 134.660156 100 L 134.660156 131.585938 M 181.796875 100 L 181.796875 131.585938 M 228.304688 100 L 228.304688 131.585938 M 276.070312 100 L 276.070312 131.585938 M 323.839844 100 L 323.839844 131.585938 M 134.335938 99.671875 L 324.164062 99.671875 M 134.335938 131.914062 L 324.164062 131.914062 "/></g><g clip-rule="nonzero" clip-path="url(#8cf09fb916)"><path style="fill:none;stroke-width:0.871773;stroke-linecap:butt;stroke-linejoin:miter;stroke:#000000;stroke-opacity:1;stroke-miterlimit:4;" d="M 0.434282 0.874199 L 0.434282 42.988785 M 63.283244 0.874199 L 63.283244 42.988785 M 125.293664 0.874199 L 125.293664 42.988785 M 188.981168 0.874199 L 188.981168 42.988785 M 252.67388 0.874199 L 252.67388 42.988785 M 0.00199038 0.436699 L 253.106172 0.436699 M 0.00199038 43.426285 L 253.106172 43.426285 " transform="matrix(0.75,0,0,0.75,134.334445,99.344351)"/></g><g clip-rule="nonzero" clip-path="url(#a14415efa0)"><path style="fill-rule:nonzero;fill:#000000;fill-opacity:1;stroke-width:0.871773;stroke-linecap:butt;stroke-linejoin:miter;stroke:#000000;stroke-opacity:1;stroke-miterlimit:4;" d="M 0.434282 0.873408 L 0.434282 16.347367 M 63.585327 0.873408 L 63.585327 16.347367 M 124.694706 0.873408 L 124.694706 16.347367 M 188.949918 0.873408 L 188.949918 16.347367 M 252.67388 0.873408 L 252.67388 16.347367 M 0.00199038 0.435908 L 253.106172 0.435908 M 0.00199038 16.779659 L 253.106172 16.779659 " transform="matrix(0.75,0,0,0.75,134.334445,135.001194)"/></g><g style="fill:#000000;fill-opacity:1;"><g transform="translate(202.923566, 143.417893)"><path style="stroke:none" d="M 0.28125 0 L 0.28125 -0.765625 L 1.421875 -1.84375 C 1.765625 -2.175781 2.035156 -2.476562 2.234375 -2.75 C 2.429688 -3.03125 2.566406 -3.316406 2.640625 -3.609375 C 2.722656 -3.898438 2.765625 -4.234375 2.765625 -4.609375 C 2.765625 -5.046875 2.710938 -5.363281 2.609375 -5.5625 C 2.503906 -5.757812 2.328125 -5.859375 2.078125 -5.859375 C 1.890625 -5.859375 1.742188 -5.800781 1.640625 -5.6875 C 1.546875 -5.570312 1.476562 -5.378906 1.4375 -5.109375 C 1.394531 -4.847656 1.375 -4.484375 1.375 -4.015625 C 1.0625 -4.015625 0.804688 -4.078125 0.609375 -4.203125 C 0.410156 -4.328125 0.3125 -4.523438 0.3125 -4.796875 C 0.3125 -5.117188 0.460938 -5.390625 0.765625 -5.609375 C 1.078125 -5.828125 1.53125 -5.9375 2.125 -5.9375 C 2.738281 -5.9375 3.203125 -5.816406 3.515625 -5.578125 C 3.835938 -5.335938 4 -5 4 -4.5625 C 4 -4.375 3.960938 -4.191406 3.890625 -4.015625 C 3.828125 -3.835938 3.707031 -3.644531 3.53125 -3.4375 C 3.351562 -3.226562 3.113281 -2.988281 2.8125 -2.71875 C 2.519531 -2.457031 2.144531 -2.148438 1.6875 -1.796875 L 0.546875 -0.90625 L 3.3125 -0.90625 C 3.570312 -0.90625 3.757812 -0.941406 3.875 -1.015625 C 4 -1.097656 4.070312 -1.25 4.09375 -1.46875 L 4.125 -1.71875 L 4.203125 -1.71875 L 4.15625 0 Z M 0.28125 0 "/></g></g><g style="fill:#000000;fill-opacity:1;"><g transform="translate(251.140595, 143.417893)"><path style="stroke:none" d="M 1.984375 0.078125 C 1.378906 0.078125 0.9375 -0.0195312 0.65625 -0.21875 C 0.375 -0.414062 0.234375 -0.644531 0.234375 -0.90625 C 0.234375 -1.113281 0.300781 -1.269531 0.4375 -1.375 C 0.570312 -1.488281 0.734375 -1.546875 0.921875 -1.546875 C 0.921875 -1.140625 0.960938 -0.828125 1.046875 -0.609375 C 1.140625 -0.390625 1.257812 -0.234375 1.40625 -0.140625 C 1.5625 -0.046875 1.738281 0 1.9375 0 C 2.289062 0 2.546875 -0.132812 2.703125 -0.40625 C 2.859375 -0.675781 2.9375 -1.066406 2.9375 -1.578125 C 2.9375 -1.941406 2.894531 -2.222656 2.8125 -2.421875 C 2.726562 -2.628906 2.585938 -2.773438 2.390625 -2.859375 C 2.191406 -2.941406 1.9375 -2.984375 1.625 -2.984375 L 1.171875 -2.984375 L 1.171875 -3.0625 L 1.625 -3.0625 C 1.914062 -3.0625 2.140625 -3.109375 2.296875 -3.203125 C 2.460938 -3.296875 2.578125 -3.445312 2.640625 -3.65625 C 2.710938 -3.863281 2.75 -4.140625 2.75 -4.484375 C 2.75 -4.984375 2.6875 -5.335938 2.5625 -5.546875 C 2.445312 -5.753906 2.28125 -5.859375 2.0625 -5.859375 C 1.769531 -5.859375 1.578125 -5.707031 1.484375 -5.40625 C 1.398438 -5.113281 1.359375 -4.703125 1.359375 -4.171875 C 1.023438 -4.171875 0.765625 -4.226562 0.578125 -4.34375 C 0.390625 -4.457031 0.296875 -4.640625 0.296875 -4.890625 C 0.296875 -5.179688 0.445312 -5.425781 0.75 -5.625 C 1.0625 -5.832031 1.515625 -5.9375 2.109375 -5.9375 C 2.691406 -5.9375 3.148438 -5.816406 3.484375 -5.578125 C 3.828125 -5.347656 4 -5.007812 4 -4.5625 C 4 -4.332031 3.941406 -4.109375 3.828125 -3.890625 C 3.710938 -3.671875 3.519531 -3.484375 3.25 -3.328125 C 2.988281 -3.179688 2.628906 -3.085938 2.171875 -3.046875 C 2.828125 -3.046875 3.328125 -2.921875 3.671875 -2.671875 C 4.023438 -2.429688 4.203125 -2.0625 4.203125 -1.5625 C 4.203125 -1.164062 4.097656 -0.847656 3.890625 -0.609375 C 3.679688 -0.367188 3.40625 -0.191406 3.0625 -0.078125 C 2.726562 0.0234375 2.367188 0.078125 1.984375 0.078125 Z M 1.984375 0.078125 "/></g></g><g style="fill:#000000;fill-opacity:1;"><g transform="translate(155.022885, 143.417893)"><path style="stroke:none" d="M 0.796875 0 L 0.796875 -0.078125 L 1.46875 -0.078125 C 1.601562 -0.078125 1.703125 -0.113281 1.765625 -0.1875 C 1.835938 -0.269531 1.875 -0.410156 1.875 -0.609375 L 1.875 -5.21875 C 1.625 -4.863281 1.425781 -4.609375 1.28125 -4.453125 C 1.132812 -4.296875 0.988281 -4.21875 0.84375 -4.21875 C 0.695312 -4.21875 0.578125 -4.257812 0.484375 -4.34375 C 0.390625 -4.4375 0.34375 -4.578125 0.34375 -4.765625 C 0.613281 -4.773438 0.835938 -4.800781 1.015625 -4.84375 C 1.203125 -4.882812 1.375 -4.960938 1.53125 -5.078125 C 1.695312 -5.191406 1.894531 -5.363281 2.125 -5.59375 L 2.421875 -5.890625 L 3.09375 -5.890625 L 3.09375 -0.609375 C 3.09375 -0.441406 3.117188 -0.3125 3.171875 -0.21875 C 3.234375 -0.125 3.347656 -0.078125 3.515625 -0.078125 L 4.1875 -0.078125 L 4.1875 0 Z M 0.796875 0 "/></g></g><g style="fill:#000000;fill-opacity:1;"><g transform="translate(298.223982, 143.417893)"><path style="stroke:none" d="M 1.46875 0 L 1.46875 -0.078125 L 1.703125 -0.078125 C 1.890625 -0.078125 2.046875 -0.109375 2.171875 -0.171875 C 2.304688 -0.242188 2.375 -0.410156 2.375 -0.671875 L 2.375 -1.53125 L 0.109375 -1.53125 L 0.109375 -2.03125 L 2.4375 -5.859375 L 3.578125 -5.859375 L 3.578125 -2.0625 L 4.421875 -2.0625 L 4.421875 -1.53125 L 3.578125 -1.53125 L 3.578125 -0.671875 C 3.578125 -0.410156 3.640625 -0.242188 3.765625 -0.171875 C 3.898438 -0.109375 4.0625 -0.078125 4.25 -0.078125 L 4.359375 -0.078125 L 4.359375 0 Z M 0.234375 -2.0625 L 2.375 -2.0625 L 2.375 -3.875 C 2.375 -4.175781 2.375 -4.488281 2.375 -4.8125 C 2.375 -5.132812 2.378906 -5.414062 2.390625 -5.65625 C 2.359375 -5.601562 2.304688 -5.519531 2.234375 -5.40625 C 2.171875 -5.289062 2.097656 -5.164062 2.015625 -5.03125 C 1.941406 -4.894531 1.867188 -4.769531 1.796875 -4.65625 C 1.722656 -4.539062 1.664062 -4.445312 1.625 -4.375 Z M 0.234375 -2.0625 "/></g></g><g clip-rule="nonzero" clip-path="url(#3126a1920c)"><path style=" stroke:none;fill-rule:nonzero;fill:#004aad;fill-opacity:1;" d="M 253.410156 129.058594 C 246.40625 129.058594 240.671875 123.328125 240.671875 116.320312 C 240.671875 109.316406 246.40625 103.582031 253.410156 103.582031 C 260.417969 103.582031 266.148438 109.316406 266.148438 116.320312 C 266.148438 123.328125 260.417969 129.058594 253.410156 129.058594 Z M 253.410156 129.058594 "/></g><g clip-rule="nonzero" clip-path="url(#6a99fdeb5d)"><path style=" stroke:none;fill-rule:nonzero;fill:#ff3131;fill-opacity:1;" d="M 157.3125 128.492188 C 150.597656 128.492188 145.105469 123 145.105469 116.289062 C 145.105469 109.574219 150.597656 104.082031 157.3125 104.082031 C 164.023438 104.082031 169.515625 109.574219 169.515625 116.289062 C 169.515625 123 164.023438 128.492188 157.3125 128.492188 Z M 157.3125 128.492188 "/></g><g clip-rule="nonzero" clip-path="url(#4ecbd90590)"><path style=" stroke:none;fill-rule:nonzero;fill:#ff3131;fill-opacity:1;" d="M 288.167969 104.152344 L 312.894531 104.152344 L 312.894531 128.5 L 288.167969 128.5 Z M 288.167969 104.152344 "/></g><g clip-rule="nonzero" clip-path="url(#b21fd519e1)"><path style=" stroke:none;fill-rule:nonzero;fill:#004aad;fill-opacity:1;" d="M 192.867188 104.082031 L 217.59375 104.082031 L 217.59375 128.429688 L 192.867188 128.429688 Z M 192.867188 104.082031 "/></g></g></svg>