<svg xmlns="http://www.w3.org/2000/svg" xmlns:xlink="http://www.w3.org/1999/xlink" width="756" zoomAndPan="magnify" viewBox="0 0 567 141.750002" height="189" preserveAspectRatio="xMidYMid meet" version="1.2"><defs><clipPath id="7dd48d5d7c"><path d="M 0.5 0 L 566.5 0 L 566.5 141.5 L 0.5 141.5 Z M 0.5 0 "/></clipPath><clipPath id="cb1b410889"><path d="M 224.257812 36.128906 L 305.132812 36.128906 L 305.132812 106.039062 L 224.257812 106.039062 Z M 224.257812 36.128906 "/></clipPath><clipPath id="91aeafc996"><path d="M 264.800781 36.304688 L 224.558594 106.007812 L 305.042969 106.007812 Z M 264.800781 36.304688 "/></clipPath><clipPath id="19db785f6a"><path d="M 223 34.417969 L 306.503906 34.417969 L 306.503906 107 L 223 107 Z M 223 34.417969 "/></clipPath><clipPath id="e74be90377"><path d="M 265.515625 36.710938 L 225.273438 106.414062 L 224.558594 106.007812 L 224.558594 105.183594 L 305.042969 105.183594 L 305.042969 106.007812 L 304.328125 106.414062 L 264.085938 36.710938 L 264.800781 36.304688 L 265.515625 36.710938 M 264.085938 35.886719 L 264.800781 34.65625 L 265.515625 35.886719 L 305.757812 105.589844 L 306.472656 106.816406 L 223.128906 106.816406 L 223.84375 105.589844 Z M 264.085938 35.886719 "/></clipPath></defs><g id="afabf23432"><g clip-rule="nonzero" clip-path="url(#7dd48d5d7c)"><path style=" stroke:none;fill-rule:nonzero;fill:#ffffff;fill-opacity:1;" d="M 0.5 0 L 566.5 0 L 566.5 141.5 L 0.5 141.5 Z M 0.5 0 "/><path style=" stroke:none;fill-rule:nonzero;fill:#ffffff;fill-opacity:1;" d="M 0.5 0 L 566.5 0 L 566.5 141.5 L 0.5 141.5 Z M 0.5 0 "/></g><g clip-rule="nonzero" clip-path="url(#cb1b410889)"><g clip-rule="nonzero" clip-path="url(#91aeafc996)"><path style=" stroke:none;fill-rule:nonzero;fill:#f9ed37;fill-opacity:1;" d="M 215.351562 26.878906 L 314.382812 26.878906 L 314.382812 114.605469 L 215.351562 114.605469 Z M 215.351562 26.878906 "/></g></g><g clip-rule="nonzero" clip-path="url(#19db785f6a)"><g clip-rule="nonzero" clip-path="url(#e74be90377)"><path style=" stroke:none;fill-rule:nonzero;fill:#231f20;fill-opacity:1;" d="M 215.351562 26.878906 L 314.382812 26.878906 L 314.382812 114.605469 L 215.351562 114.605469 Z M 215.351562 26.878906 "/></g></g></g></svg>