<svg xmlns="http://www.w3.org/2000/svg" xmlns:xlink="http://www.w3.org/1999/xlink" width="600" zoomAndPan="magnify" viewBox="0 0 450 149.999998" height="200" preserveAspectRatio="xMidYMid meet" version="1.2"><defs><clipPath id="10c51febc2"><path d="M 376 37.082031 L 411.171875 37.082031 L 411.171875 78 L 376 78 Z M 376 37.082031 "/></clipPath><clipPath id="b5659e6640"><path d="M 386 81 L 399 81 L 399 94.082031 L 386 94.082031 Z M 386 81 "/></clipPath></defs><g id="abc5ee3a6c"><rect x="0" width="450" y="0" height="149.999998" style="fill:#ffffff;fill-opacity:1;stroke:none;"/><rect x="0" width="450" y="0" height="149.999998" style="fill:#ffffff;fill-opacity:1;stroke:none;"/><path style="fill-rule:nonzero;fill:#000000;fill-opacity:1;stroke-width:1;stroke-linecap:butt;stroke-linejoin:miter;stroke:#0c7b3b;stroke-opacity:1;stroke-miterlimit:4;" d="M 0.499995 0.999997 L 0.499995 199.000009 M 599.50003 0.999997 L 599.50003 199.000009 M -0.000005 0.499997 L 600.00003 0.499997 M -0.000005 199.500009 L 600.00003 199.500009 " transform="matrix(0.75,0,0,0.75,0.00000375,0.000002)"/><g style="fill:#0c7b3b;fill-opacity:1;"><g transform="translate(38.894196, 92.941957)"><path style="stroke:none" d="M 21.917969 -55.273438 C 11.679688 -55.273438 5.359375 -49.113281 5.359375 -40.472656 C 5.359375 -35.753906 7.199219 -31.835938 12.078125 -28.796875 C 6.800781 -26.636719 3.839844 -21.515625 3.839844 -15.519531 C 3.839844 -5.917969 11.4375 0.71875 21.996094 0.71875 C 33.355469 0.71875 40.394531 -6 40.394531 -15.597656 C 40.394531 -21.355469 37.515625 -26.316406 32.234375 -28.796875 C 37.355469 -31.753906 38.875 -36.234375 38.875 -40.632812 C 38.875 -47.511719 33.355469 -55.273438 21.917969 -55.273438 Z M 16.957031 -39.753906 C 16.957031 -44.074219 18.796875 -47.113281 22.078125 -47.113281 C 25.355469 -47.113281 27.195312 -44.554688 27.195312 -39.835938 C 27.195312 -34.957031 25.355469 -32.15625 22.15625 -32.15625 C 18.71875 -32.15625 16.957031 -35.433594 16.957031 -39.753906 Z M 28.078125 -15.597656 C 28.078125 -10.398438 25.757812 -7.117188 22.238281 -7.117188 C 18.71875 -7.117188 16.078125 -10.558594 16.078125 -15.835938 C 16.078125 -21.039062 18.316406 -24.398438 22.15625 -24.398438 C 25.757812 -24.398438 28.078125 -21.355469 28.078125 -15.597656 Z M 28.078125 -15.597656 "/></g></g><g style="fill:#0c7b3b;fill-opacity:1;"><g transform="translate(83.044803, 92.941957)"><path style="stroke:none" d="M 20.398438 -55.273438 L 10.957031 -39.996094 C 5.277344 -30.796875 3.519531 -24.957031 3.519531 -18.398438 C 3.519531 -5.917969 12.160156 0.71875 21.835938 0.71875 C 32.15625 0.71875 39.675781 -7.4375 39.675781 -18.078125 C 39.675781 -27.355469 33.277344 -35.117188 24.398438 -35.117188 C 23.4375 -35.117188 22.796875 -35.035156 21.195312 -34.636719 L 33.835938 -55.273438 Z M 15.835938 -17.359375 C 15.835938 -22.636719 18.238281 -25.597656 21.675781 -25.597656 C 25.675781 -25.597656 27.917969 -21.996094 27.917969 -17.597656 C 27.917969 -13.039062 25.757812 -9.4375 21.835938 -9.4375 C 18.078125 -9.4375 15.835938 -12.398438 15.835938 -17.359375 Z M 15.835938 -17.359375 "/></g></g><g style="fill:#0c7b3b;fill-opacity:1;"><g transform="translate(127.19541, 92.941957)"><path style="stroke:none" d=""/></g></g><g style="fill:#0c7b3b;fill-opacity:1;"><g transform="translate(149.43068, 92.941957)"><path style="stroke:none" d="M 2.878906 -23.835938 L 2.878906 -13.199219 L 23.757812 -13.199219 L 23.757812 -23.835938 Z M 2.878906 -23.835938 "/></g></g><g style="fill:#0c7b3b;fill-opacity:1;"><g transform="translate(176.065018, 92.941957)"><path style="stroke:none" d=""/></g></g><g style="fill:#0c7b3b;fill-opacity:1;"><g transform="translate(198.300287, 92.941957)"><path style="stroke:none" d="M 18.476562 -55.273438 C 14.398438 -55.273438 9.597656 -54.472656 6 -52.871094 L 6 -43.273438 C 10.238281 -45.433594 13.039062 -46.152344 16.238281 -46.152344 C 20.316406 -46.152344 23.835938 -43.515625 23.835938 -39.753906 C 23.835938 -36.636719 21.117188 -33.515625 16.316406 -33.117188 L 16.316406 -23.515625 C 21.917969 -22.957031 24.714844 -19.835938 24.714844 -15.917969 C 24.714844 -11.917969 21.277344 -8.796875 16.636719 -8.796875 C 12.558594 -8.796875 8.398438 -10.238281 4.640625 -12.957031 L 4.640625 -2.398438 C 8.480469 -0.320312 13.679688 0.71875 18.316406 0.71875 C 28.714844 0.71875 37.433594 -4.71875 37.433594 -15.199219 C 37.433594 -22.476562 34.074219 -26.714844 27.835938 -29.277344 C 32.875 -31.675781 35.914062 -36.796875 35.914062 -41.914062 C 35.914062 -50.074219 28.554688 -55.273438 18.476562 -55.273438 Z M 18.476562 -55.273438 "/></g></g><g style="fill:#0c7b3b;fill-opacity:1;"><g transform="translate(242.450903, 92.941957)"><path style="stroke:none" d="M 5.121094 -54.550781 L 5.121094 -43.675781 L 25.277344 -43.675781 L 10.636719 -3.441406 L 21.515625 0.71875 L 41.433594 -53.914062 L 41.433594 -54.550781 Z M 5.121094 -54.550781 "/></g></g><g style="fill:#0c7b3b;fill-opacity:1;"><g transform="translate(286.601502, 92.941957)"><path style="stroke:none" d=""/></g></g><g style="fill:#0c7b3b;fill-opacity:1;"><g transform="translate(308.836771, 92.941957)"><path style="stroke:none" d="M 3.28125 -41.113281 L 3.28125 -30.796875 L 43.355469 -30.796875 L 43.355469 -41.113281 Z M 3.28125 -23.757812 L 3.28125 -13.519531 L 43.355469 -13.519531 L 43.355469 -23.757812 Z M 3.28125 -23.757812 "/></g></g><g style="fill:#0c7b3b;fill-opacity:1;"><g transform="translate(355.467126, 92.941957)"><path style="stroke:none" d=""/></g></g><g clip-rule="nonzero" clip-path="url(#10c51febc2)"><path style=" stroke:none;fill-rule:nonzero;fill:#000000;fill-opacity:1;" d="M 408.839844 43.695312 C 407.324219 41.550781 405.234375 39.910156 402.570312 38.78125 C 399.917969 37.652344 396.847656 37.082031 393.378906 37.082031 C 390.222656 37.082031 387.339844 37.640625 384.730469 38.757812 C 382.125 39.863281 380.023438 41.5625 378.4375 43.808594 C 377.171875 45.597656 376.390625 47.765625 376.070312 50.304688 C 375.933594 51.414062 376.816406 52.390625 377.941406 52.390625 L 384.925781 52.390625 C 385.824219 52.390625 386.582031 51.765625 386.777344 50.898438 C 386.949219 50.125 387.234375 49.429688 387.636719 48.835938 C 388.28125 47.878906 389.109375 47.148438 390.117188 46.660156 C 391.128906 46.167969 392.199219 45.917969 393.335938 45.917969 C 394.507812 45.917969 395.5625 46.15625 396.539062 46.648438 C 397.503906 47.125 398.273438 47.820312 398.847656 48.722656 C 399.421875 49.621094 399.710938 50.660156 399.710938 51.855469 C 399.710938 52.984375 399.457031 54 398.953125 54.902344 C 398.445312 55.800781 397.769531 56.632812 396.917969 57.375 C 396.058594 58.125 395.101562 58.832031 394.023438 59.527344 C 392.578125 60.429688 391.335938 61.433594 390.3125 62.539062 C 389.28125 63.644531 388.511719 65.09375 387.96875 66.894531 C 387.441406 68.695312 387.167969 71.101562 387.15625 74.121094 L 387.15625 75.625 C 387.15625 76.652344 387.992188 77.496094 389.039062 77.496094 L 395.183594 77.496094 C 396.21875 77.496094 397.066406 76.664062 397.066406 75.625 L 397.066406 74.121094 C 397.089844 72.421875 397.308594 70.996094 397.734375 69.847656 C 398.160156 68.695312 398.8125 67.667969 399.6875 66.789062 C 400.570312 65.914062 401.695312 65.070312 403.074219 64.25 C 404.71875 63.28125 406.128906 62.195312 407.335938 60.988281 C 408.53125 59.792969 409.472656 58.398438 410.148438 56.839844 C 410.816406 55.277344 411.160156 53.476562 411.160156 51.457031 C 411.125 48.425781 410.355469 45.835938 408.839844 43.695312 Z M 408.839844 43.695312 "/></g><g clip-rule="nonzero" clip-path="url(#b5659e6640)"><path style=" stroke:none;fill-rule:nonzero;fill:#000000;fill-opacity:1;" d="M 392.300781 81.691406 C 390.554688 81.691406 389.074219 82.292969 387.84375 83.503906 C 386.613281 84.710938 386.007812 86.171875 386.027344 87.859375 C 386.007812 89.566406 386.613281 91.039062 387.84375 92.257812 C 389.074219 93.476562 390.554688 94.082031 392.300781 94.082031 C 393.414062 94.082031 394.449219 93.796875 395.378906 93.238281 C 396.320312 92.667969 397.078125 91.929688 397.664062 90.980469 C 398.25 90.035156 398.550781 88.996094 398.5625 87.859375 C 398.539062 86.160156 397.90625 84.710938 396.652344 83.503906 C 395.414062 82.292969 393.953125 81.691406 392.300781 81.691406 Z M 392.300781 81.691406 "/></g></g></svg>