<svg xmlns="http://www.w3.org/2000/svg" xmlns:xlink="http://www.w3.org/1999/xlink" width="794" zoomAndPan="magnify" viewBox="0 0 595.5 419.249996" height="559" preserveAspectRatio="xMidYMid meet" version="1.2"><defs><clipPath id="ba3d1ace12"><path d="M 0.28125 0 L 594.71875 0 L 594.71875 418.5 L 0.28125 418.5 Z M 0.28125 0 "/></clipPath><clipPath id="eb96d7833d"><path d="M 0.28125 0 L 594.324219 0 L 594.324219 418.222656 L 0.28125 418.222656 Z M 0.28125 0 "/></clipPath><clipPath id="9f535bdf6d"><path d="M 30.691406 278.226562 L 84.558594 278.226562 L 84.558594 332 L 30.691406 332 Z M 30.691406 278.226562 "/></clipPath><clipPath id="d505f0cb5b"><path d="M 84.359375 282.699219 L 84.359375 327.617188 C 84.359375 329.96875 82.425781 331.890625 80.082031 331.890625 L 35.167969 331.890625 C 32.816406 331.890625 30.890625 329.957031 30.890625 327.617188 L 30.890625 282.699219 C 30.890625 280.347656 32.824219 278.425781 35.167969 278.425781 L 80.082031 278.425781 C 82.4375 278.425781 84.359375 280.359375 84.359375 282.699219 "/></clipPath><clipPath id="d2da1420bd"><path d="M 35.167969 282.699219 L 80.082031 282.699219 L 80.082031 327.617188 L 35.167969 327.617188 Z M 35.167969 282.699219 "/></clipPath><clipPath id="67c4e46000"><path d="M 35.011719 293.214844 L 80.238281 293.214844 L 80.238281 327.769531 L 35.011719 327.769531 Z M 35.011719 293.214844 "/></clipPath><clipPath id="f638ad561e"><path d="M 69.375 293.386719 C 72.582031 293.386719 73.652344 301.949219 73.652344 306.214844 C 73.652344 310.480469 71.71875 310.488281 69.375 310.488281 C 67.035156 310.488281 65.101562 308.558594 65.101562 306.214844 C 65.101562 301.9375 66.160156 293.386719 69.375 293.386719 M 69.375 315.628906 C 71.195312 315.089844 73.335938 314.777344 75.796875 314.777344 C 75.796875 314.777344 77.941406 314.777344 80.074219 315.835938 L 80.074219 327.605469 L 35.167969 327.605469 C 35.167969 327.605469 40.515625 319.042969 47.996094 319.042969 C 55.476562 319.042969 59.761719 323.316406 59.761719 323.316406 C 59.761719 323.316406 61.90625 317.75 69.386719 315.628906 Z M 69.375 315.628906 "/></clipPath><clipPath id="f316854b0d"><path d="M 43.652344 291.183594 L 52.289062 291.183594 L 52.289062 299.820312 L 43.652344 299.820312 Z M 43.652344 291.183594 "/></clipPath><clipPath id="52c6fd78e9"><path d="M 50.992188 292.535156 C 51.746094 293.292969 52.273438 294.351562 52.273438 295.527344 C 52.273438 296.707031 51.84375 297.777344 50.992188 298.523438 C 50.234375 299.28125 49.171875 299.804688 47.996094 299.804688 C 46.820312 299.804688 45.75 299.375 45.003906 298.523438 C 44.246094 297.777344 43.71875 296.707031 43.71875 295.527344 C 43.71875 294.351562 44.152344 293.28125 45.003906 292.535156 C 45.75 291.777344 46.820312 291.253906 47.996094 291.253906 C 49.171875 291.253906 50.234375 291.789062 50.992188 292.535156 "/></clipPath><clipPath id="0bdc63295b"><path d="M 30.183594 277.71875 L 85 277.71875 L 85 332.597656 L 30.183594 332.597656 Z M 30.183594 277.71875 "/></clipPath><clipPath id="a784a45f0e"><path d="M 47.996094 299.269531 C 50.023438 299.269531 51.746094 297.558594 51.746094 295.519531 C 51.746094 293.480469 50.035156 291.769531 47.996094 291.769531 C 45.957031 291.769531 44.246094 293.480469 44.246094 295.519531 C 44.246094 297.558594 45.957031 299.269531 47.996094 299.269531 M 47.996094 304.617188 C 47.671875 304.617188 47.460938 304.40625 47.460938 304.082031 L 47.460938 300.332031 C 46.492188 300.214844 45.644531 299.898438 45.003906 299.269531 L 42.332031 301.9375 C 42.125 302.148438 41.796875 302.148438 41.578125 301.9375 C 41.460938 301.820312 41.460938 301.726562 41.460938 301.507812 C 41.460938 301.285156 41.460938 301.179688 41.578125 301.078125 L 44.246094 298.40625 C 43.710938 297.765625 43.277344 296.914062 43.183594 295.949219 L 39.445312 295.949219 C 39.117188 295.949219 38.910156 295.738281 38.910156 295.414062 C 38.910156 295.085938 39.117188 294.878906 39.445312 294.878906 L 43.195312 294.878906 C 43.3125 293.910156 43.617188 293.058594 44.257812 292.417969 L 41.585938 289.761719 C 41.472656 289.644531 41.472656 289.550781 41.472656 289.332031 C 41.472656 289.109375 41.472656 289.003906 41.585938 288.898438 C 41.796875 288.6875 42.125 288.6875 42.34375 288.898438 L 45.011719 291.566406 C 45.652344 291.03125 46.503906 290.601562 47.472656 290.507812 L 47.472656 286.765625 C 47.472656 286.441406 47.679688 286.230469 48.007812 286.230469 C 48.332031 286.230469 48.542969 286.441406 48.542969 286.765625 L 48.542969 290.515625 C 49.507812 290.632812 50.359375 290.9375 51 291.578125 L 53.671875 288.910156 C 53.878906 288.699219 54.207031 288.699219 54.425781 288.910156 C 54.542969 289.027344 54.542969 289.121094 54.542969 289.339844 C 54.542969 289.5625 54.542969 289.667969 54.425781 289.769531 L 51.757812 292.441406 C 52.292969 293.082031 52.722656 293.933594 52.820312 294.898438 L 56.570312 294.898438 C 56.894531 294.898438 57.105469 295.109375 57.105469 295.433594 C 57.105469 295.761719 56.894531 295.96875 56.570312 295.96875 L 52.808594 295.96875 C 52.691406 296.9375 52.386719 297.789062 51.746094 298.429688 L 54.414062 301.097656 C 54.53125 301.210938 54.53125 301.308594 54.53125 301.527344 C 54.53125 301.75 54.53125 301.855469 54.414062 301.957031 C 54.207031 302.167969 53.878906 302.167969 53.660156 301.957031 L 50.992188 299.289062 C 50.351562 299.824219 49.5 300.257812 48.53125 300.351562 L 48.53125 304.101562 C 48.53125 304.429688 48.320312 304.636719 47.996094 304.636719 M 69.375 293.933594 C 66.917969 293.933594 65.625 301.203125 65.625 306.222656 C 65.625 311.246094 67.339844 309.976562 69.375 309.976562 C 71.414062 309.976562 73.128906 308.261719 73.128906 306.222656 C 73.128906 301.203125 71.847656 293.933594 69.375 293.933594 M 80.082031 328.140625 L 39.445312 328.140625 C 39.117188 328.140625 38.910156 327.929688 38.910156 327.605469 C 38.910156 327.277344 39.117188 327.070312 39.445312 327.070312 L 79.546875 327.070312 L 79.546875 283.226562 L 35.695312 283.226562 L 35.695312 325.042969 C 37.625 322.898438 42.113281 318.515625 47.984375 318.515625 C 53.859375 318.515625 58.144531 321.300781 59.542969 322.476562 C 60.394531 320.871094 62.96875 317.023438 68.839844 315.207031 L 68.839844 311.035156 C 66.488281 310.710938 64.566406 308.683594 64.566406 306.222656 C 64.566406 302.472656 65.414062 292.851562 69.375 292.851562 C 73.335938 292.851562 74.1875 302.472656 74.1875 306.222656 C 74.1875 309.976562 72.253906 310.710938 69.914062 311.035156 L 69.914062 314.996094 C 71.625 314.578125 73.546875 314.355469 75.785156 314.355469 C 78.023438 314.355469 76.320312 314.566406 76.320312 314.890625 C 76.320312 315.21875 76.113281 315.429688 75.785156 315.429688 C 73.433594 315.429688 71.40625 315.753906 69.691406 316.175781 C 69.578125 316.175781 69.480469 316.289062 69.367188 316.289062 C 62.304688 318.433594 60.277344 323.558594 60.277344 323.664062 C 60.164062 323.875 60.066406 323.992188 59.847656 323.992188 C 59.628906 323.992188 59.523438 323.992188 59.3125 323.875 C 59.3125 323.875 55.035156 319.703125 47.976562 319.703125 C 40.914062 319.703125 35.683594 326.871094 35.566406 326.972656 C 35.453125 327.183594 35.136719 327.300781 34.925781 327.183594 C 34.714844 327.070312 34.601562 326.859375 34.601562 326.648438 L 34.601562 282.804688 C 34.601562 282.480469 34.8125 282.269531 35.136719 282.269531 L 80.074219 282.269531 C 80.398438 282.269531 80.609375 282.480469 80.609375 282.804688 L 80.609375 327.710938 C 80.609375 327.917969 80.398438 328.140625 80.074219 328.140625 Z M 35.167969 278.949219 C 33.140625 278.949219 31.417969 280.664062 31.417969 282.699219 L 31.417969 327.617188 C 31.417969 329.644531 33.128906 331.367188 35.167969 331.367188 L 80.082031 331.367188 C 82.109375 331.367188 83.832031 329.652344 83.832031 327.617188 L 83.832031 282.699219 C 83.832031 280.671875 82.121094 278.949219 80.082031 278.949219 Z M 80.082031 332.425781 L 35.167969 332.425781 C 32.5 332.425781 30.355469 330.285156 30.355469 327.617188 L 30.355469 282.699219 C 30.355469 280.03125 32.5 277.890625 35.167969 277.890625 L 80.082031 277.890625 C 82.75 277.890625 84.894531 280.03125 84.894531 282.699219 L 84.894531 327.617188 C 84.894531 330.285156 82.75 332.425781 80.082031 332.425781 "/></clipPath><clipPath id="84cc8adcf1"><path d="M 29.929688 207.324219 L 82.59375 207.324219 L 82.59375 220.539062 L 29.929688 220.539062 Z M 29.929688 207.324219 "/></clipPath><clipPath id="4ae762d303"><path d="M 82.445312 220.53125 L 29.933594 220.082031 L 30.039062 207.324219 L 82.558594 207.777344 Z M 82.445312 220.53125 "/></clipPath><clipPath id="43dd21b246"><path d="M 28.929688 206.324219 L 83.59375 206.324219 L 83.59375 221.539062 L 28.929688 221.539062 Z M 28.929688 206.324219 "/></clipPath><clipPath id="d05a5f11e0"><path d="M 30.898438 219.136719 L 30.996094 208.292969 L 36.574219 208.335938 L 36.550781 210.351562 C 36.550781 210.613281 36.65625 210.855469 36.824219 211.035156 C 36.992188 211.214844 37.234375 211.316406 37.5 211.316406 C 38.023438 211.316406 38.464844 210.898438 38.464844 210.371094 L 38.484375 208.34375 L 44.054688 208.398438 L 44.023438 212.191406 C 44.023438 212.453125 44.128906 212.695312 44.296875 212.875 C 44.464844 213.050781 44.707031 213.15625 44.96875 213.15625 C 45.492188 213.167969 45.933594 212.738281 45.933594 212.210938 L 45.964844 208.417969 L 51.546875 208.472656 L 51.523438 210.5 C 51.523438 210.761719 51.628906 211.003906 51.796875 211.183594 C 51.964844 211.359375 52.207031 211.464844 52.46875 211.464844 C 52.996094 211.464844 53.425781 211.046875 53.4375 210.519531 L 53.457031 208.503906 L 59.027344 208.554688 L 58.984375 213.554688 C 58.984375 213.820312 59.089844 214.058594 59.257812 214.238281 C 59.425781 214.417969 59.667969 214.523438 59.929688 214.523438 C 60.453125 214.53125 60.894531 214.101562 60.894531 213.578125 L 60.9375 208.574219 L 66.515625 208.628906 L 66.496094 210.644531 C 66.496094 210.910156 66.601562 211.148438 66.769531 211.328125 C 66.9375 211.507812 67.179688 211.613281 67.441406 211.613281 C 67.964844 211.613281 68.40625 211.191406 68.40625 210.667969 L 68.429688 208.648438 L 74.007812 208.691406 L 73.964844 213.691406 C 73.964844 213.957031 74.070312 214.195312 74.238281 214.375 C 74.40625 214.554688 74.648438 214.660156 74.910156 214.660156 C 75.4375 214.660156 75.867188 214.238281 75.878906 213.714844 L 75.917969 208.710938 L 81.582031 208.765625 L 81.488281 219.609375 Z M 83.398438 220.542969 L 83.503906 207.789062 C 83.515625 207.261719 83.085938 206.832031 82.558594 206.820312 L 30.050781 206.371094 C 29.523438 206.371094 29.082031 206.789062 29.082031 207.316406 L 28.976562 220.082031 C 28.976562 220.34375 29.082031 220.585938 29.25 220.761719 C 29.417969 220.941406 29.660156 221.046875 29.921875 221.046875 L 82.433594 221.5 C 82.6875 221.5 82.9375 221.40625 83.117188 221.226562 C 83.296875 221.046875 83.398438 220.804688 83.398438 220.554688 "/></clipPath><clipPath id="3f14c46a6d"><path d="M 44 214.132812 L 45.949219 214.132812 L 45.949219 216.636719 L 44 216.636719 Z M 44 214.132812 "/></clipPath><clipPath id="07d861fee2"><path d="M 45.914062 215.195312 C 45.914062 214.667969 45.492188 214.238281 44.96875 214.230469 C 44.441406 214.21875 44.011719 214.648438 44 215.175781 L 44 215.636719 C 44 215.898438 44.105469 216.140625 44.273438 216.320312 C 44.441406 216.496094 44.683594 216.601562 44.945312 216.601562 C 45.472656 216.601562 45.902344 216.183594 45.914062 215.65625 Z M 45.914062 215.195312 "/></clipPath><clipPath id="87d2b26d51"><path d="M 29.46875 354.574219 L 82.316406 354.574219 L 82.316406 407.679688 L 29.46875 407.679688 Z M 29.46875 354.574219 "/></clipPath><clipPath id="bd98b1f189"><path d="M 29.476562 381.164062 C 29.476562 395.757812 41.304688 407.589844 55.898438 407.589844 C 70.492188 407.589844 82.3125 395.757812 82.3125 381.164062 C 82.3125 366.570312 70.480469 354.753906 55.898438 354.753906 C 41.316406 354.753906 29.476562 366.582031 29.476562 381.164062 "/></clipPath><clipPath id="59881178c2"><path d="M 28.453125 353.8125 L 83.332031 353.8125 L 83.332031 408.695312 L 28.453125 408.695312 Z M 28.453125 353.8125 "/></clipPath><clipPath id="4f32a29953"><path d="M 55.898438 355.601562 C 41.789062 355.601562 30.324219 367.066406 30.324219 381.164062 C 30.324219 395.265625 41.789062 406.738281 55.898438 406.738281 C 70.007812 406.738281 81.460938 395.273438 81.460938 381.164062 C 81.460938 367.054688 69.996094 355.601562 55.898438 355.601562 M 55.898438 408.523438 C 40.851562 408.523438 28.625 396.292969 28.625 381.25 C 28.625 366.203125 40.851562 353.984375 55.898438 353.984375 C 70.941406 353.984375 83.160156 366.214844 83.160156 381.25 C 83.078125 396.199219 70.933594 408.511719 55.886719 408.511719 Z M 55.898438 408.523438 "/></clipPath><clipPath id="1b2efd57cb"><path d="M 35.3125 360.675781 L 76.21875 360.675781 L 76.21875 401.582031 L 35.3125 401.582031 Z M 35.3125 360.675781 "/></clipPath><clipPath id="d0fa792a49"><path d="M 35.421875 381.164062 C 35.421875 392.429688 44.550781 401.558594 55.804688 401.558594 C 67.054688 401.558594 76.195312 392.429688 76.195312 381.175781 C 76.195312 369.914062 67.066406 360.792969 55.8125 360.792969 C 44.5625 360.792969 35.433594 369.921875 35.433594 381.175781 "/></clipPath><clipPath id="9b4a07e687"><path d="M 34.550781 359.910156 L 77.234375 359.910156 L 77.234375 402.597656 L 34.550781 402.597656 Z M 34.550781 359.910156 "/></clipPath><clipPath id="2bc2e67323"><path d="M 55.804688 361.632812 C 45.011719 361.632812 36.261719 370.386719 36.261719 381.175781 C 36.261719 391.964844 45.011719 400.71875 55.804688 400.71875 C 66.59375 400.71875 75.34375 391.964844 75.34375 381.175781 C 75.34375 370.386719 66.59375 361.632812 55.804688 361.632812 M 55.804688 402.410156 C 44.078125 402.410156 34.570312 392.902344 34.570312 381.175781 C 34.570312 369.449219 44.089844 359.941406 55.804688 359.941406 C 67.519531 359.941406 77.035156 369.460938 77.035156 381.175781 C 77.035156 392.890625 67.519531 402.410156 55.804688 402.410156 "/></clipPath><clipPath id="e0b51e963f"><path d="M 37.089844 362.453125 L 74.441406 362.453125 L 74.441406 399.800781 L 37.089844 399.800781 Z M 37.089844 362.453125 "/></clipPath><clipPath id="da720bec5f"><path d="M 55.898438 379.472656 C 54.964844 379.472656 54.195312 380.242188 54.195312 381.175781 C 54.195312 382.109375 54.964844 382.878906 55.898438 382.878906 C 56.832031 382.878906 57.601562 382.109375 57.601562 381.175781 C 57.601562 380.242188 56.832031 379.472656 55.898438 379.472656 M 55.898438 384.484375 C 54.027344 384.484375 52.503906 382.960938 52.503906 381.089844 C 52.503906 379.222656 54.039062 377.699219 55.898438 377.699219 C 57.757812 377.699219 59.292969 379.230469 59.292969 381.089844 C 59.292969 382.953125 57.757812 384.484375 55.898438 384.484375 M 37.207031 380.324219 L 39.582031 380.324219 L 39.582031 382.027344 L 37.207031 382.027344 Z M 72.035156 380.324219 L 74.410156 380.324219 L 74.410156 382.027344 L 72.035156 382.027344 Z M 54.964844 397.398438 L 56.664062 397.398438 L 56.664062 399.773438 L 54.964844 399.773438 Z M 54.964844 362.570312 L 56.664062 362.570312 L 56.664062 364.945312 L 54.964844 364.945312 Z M 54.964844 362.570312 "/></clipPath><clipPath id="484b451b67"><path d="M 57 368.042969 L 69 368.042969 L 69 380 L 57 380 Z M 57 368.042969 "/></clipPath><clipPath id="48ce822c99"><path d="M 57.085938 378.78125 L 67.65625 368.210938 L 68.851562 369.410156 L 58.28125 379.988281 Z M 57.085938 378.78125 "/></clipPath><clipPath id="74e5a2f494"><path d="M 54.964844 383.632812 L 56.664062 383.632812 L 56.664062 392.125 L 54.964844 392.125 Z M 54.964844 383.632812 "/></clipPath><clipPath id="d668039d5a"><path d="M 44.203125 369.566406 L 56.65625 369.566406 L 56.65625 381.761719 L 44.203125 381.761719 Z M 44.203125 369.566406 "/></clipPath><clipPath id="accfd96945"><path d="M 44.414062 370.859375 L 45.613281 369.660156 L 56.488281 380.523438 L 55.289062 381.722656 Z M 44.414062 370.859375 "/></clipPath><clipPath id="e3de6f5d14"><path d="M 34.835938 97.539062 L 75.921875 97.539062 L 75.921875 152.121094 L 34.835938 152.121094 Z M 34.835938 97.539062 "/></clipPath><clipPath id="c4665e93a9"><path d="M 55.382812 97.554688 C 52.175781 97.554688 49.5625 100.171875 49.5625 103.375 C 49.5625 105.320312 50.539062 107.03125 52.007812 108.09375 L 34.957031 144.625 L 34.945312 144.632812 L 34.945312 144.644531 C 34.882812 144.769531 34.863281 144.898438 34.863281 145.035156 L 34.863281 151.160156 C 34.863281 151.664062 35.273438 152.082031 35.785156 152.082031 L 74.988281 152.082031 C 75.492188 152.082031 75.910156 151.671875 75.910156 151.160156 L 75.910156 145.042969 C 75.910156 144.917969 75.878906 144.792969 75.835938 144.675781 C 75.835938 144.664062 75.828125 144.65625 75.828125 144.65625 L 75.828125 144.644531 L 58.765625 108.09375 C 60.234375 107.03125 61.210938 105.320312 61.210938 103.375 C 61.203125 100.171875 58.585938 97.554688 55.382812 97.554688 Z M 55.382812 97.554688 "/></clipPath><clipPath id="6da09c03c8"><path d="M 37.050781 108.816406 L 73.707031 108.816406 L 73.707031 144.265625 L 37.050781 144.265625 Z M 37.050781 108.816406 "/></clipPath><clipPath id="66ae3f96f5"><path d="M 53.648438 108.902344 C 54.195312 109.070312 54.773438 109.195312 55.371094 109.195312 C 55.96875 109.195312 56.546875 109.070312 57.105469 108.902344 L 67.875 131.984375 C 66.246094 132.34375 64.898438 133.5625 64.425781 135.21875 C 63.871094 137.195312 64.691406 139.308594 66.421875 140.390625 C 68.0625 141.398438 70.144531 141.25 71.636719 140.0625 L 73.527344 144.128906 L 48.550781 144.128906 C 48.792969 143.667969 48.941406 143.152344 48.941406 142.597656 C 48.941406 140.746094 47.417969 139.222656 45.570312 139.222656 C 43.71875 139.222656 42.207031 140.746094 42.207031 142.597656 C 42.207031 143.152344 42.351562 143.667969 42.59375 144.128906 L 37.214844 144.128906 Z M 53.648438 108.902344 "/></clipPath><clipPath id="704d849608"><path d="M 53.164062 117.074219 L 60 117.074219 L 60 123.921875 L 53.164062 123.921875 Z M 53.164062 117.074219 "/></clipPath><clipPath id="a4a82e6a21"><path d="M 56.601562 117.171875 C 54.75 117.171875 53.226562 118.695312 53.226562 120.542969 C 53.226562 122.390625 54.75 123.914062 56.601562 123.914062 C 58.449219 123.914062 59.972656 122.390625 59.972656 120.542969 C 59.972656 118.695312 58.449219 117.171875 56.601562 117.171875 "/></clipPath><clipPath id="6e40afbb5b"><path d="M 55 119 L 58.199219 119 L 58.199219 122.109375 L 55 122.109375 Z M 55 119 "/></clipPath><clipPath id="2bb947334c"><path d="M 56.601562 119.007812 C 57.460938 119.007812 58.132812 119.683594 58.132812 120.542969 C 58.132812 121.40625 57.460938 122.078125 56.601562 122.078125 C 55.738281 122.078125 55.066406 121.40625 55.066406 120.542969 C 55.066406 119.683594 55.738281 119.007812 56.601562 119.007812 "/></clipPath><clipPath id="25e6106f79"><path d="M 49.539062 126.945312 L 58.804688 126.945312 L 58.804688 136.210938 L 49.539062 136.210938 Z M 49.539062 126.945312 "/></clipPath><clipPath id="92693ee811"><path d="M 54.152344 126.972656 C 51.628906 126.972656 49.5625 129.042969 49.5625 131.5625 C 49.5625 134.085938 51.628906 136.15625 54.152344 136.15625 C 56.671875 136.15625 58.742188 134.085938 58.742188 131.5625 C 58.742188 129.042969 56.683594 126.972656 54.152344 126.972656 "/></clipPath><clipPath id="60b27da3b1"><path d="M 51.351562 128.757812 L 56.992188 128.757812 L 56.992188 134.398438 L 51.351562 134.398438 Z M 51.351562 128.757812 "/></clipPath><clipPath id="fc34848d73"><path d="M 54.152344 128.8125 C 55.6875 128.8125 56.90625 130.03125 56.90625 131.5625 C 56.90625 133.097656 55.6875 134.328125 54.152344 134.328125 C 52.617188 134.328125 51.398438 133.097656 51.398438 131.574219 C 51.398438 130.050781 52.617188 128.820312 54.152344 128.820312 "/></clipPath><clipPath id="0752a4c310"><path d="M 66.054688 133.589844 L 70.886719 133.589844 L 70.886719 139.230469 L 66.054688 139.230469 Z M 66.054688 133.589844 "/></clipPath><clipPath id="3a171b83cf"><path d="M 68.683594 133.71875 L 70.847656 138.363281 C 70.785156 138.402344 70.722656 138.445312 70.667969 138.5 C 69.765625 139.339844 68.441406 139.464844 67.402344 138.824219 C 66.359375 138.183594 65.867188 136.914062 66.203125 135.726562 C 66.527344 134.578125 67.527344 133.792969 68.683594 133.730469 "/></clipPath><clipPath id="3c1db77929"><path d="M 44 141.042969 L 47.121094 141.042969 L 47.121094 144.265625 L 44 144.265625 Z M 44 141.042969 "/></clipPath><clipPath id="b0fa8bf0e4"><path d="M 45.578125 141.0625 C 46.441406 141.0625 47.113281 141.734375 47.113281 142.597656 C 47.113281 143.457031 46.441406 144.128906 45.578125 144.128906 C 44.71875 144.128906 44.046875 143.457031 44.046875 142.597656 C 44.046875 141.734375 44.71875 141.0625 45.578125 141.0625 "/></clipPath><clipPath id="0f2dc55053"><path d="M 51.351562 99.351562 L 59.40625 99.351562 L 59.40625 107.40625 L 51.351562 107.40625 Z M 51.351562 99.351562 "/></clipPath><clipPath id="c3481bd701"><path d="M 55.382812 99.394531 C 57.585938 99.394531 59.363281 101.167969 59.363281 103.375 C 59.363281 105.582031 57.585938 107.359375 55.382812 107.359375 C 53.175781 107.359375 51.398438 105.582031 51.398438 103.375 C 51.398438 101.167969 53.175781 99.394531 55.382812 99.394531 "/></clipPath><clipPath id="5a58a7bea4"><path d="M 36.691406 145.96875 L 74.074219 145.96875 L 74.074219 150.253906 L 36.691406 150.253906 Z M 36.691406 145.96875 "/></clipPath><clipPath id="e2972fda44"><path d="M 54.371094 99.351562 L 59.40625 99.351562 L 59.40625 107.40625 L 54.371094 107.40625 Z M 54.371094 99.351562 "/></clipPath><clipPath id="13acfa239c"><path d="M 55.382812 99.394531 C 55.085938 99.394531 54.8125 99.425781 54.539062 99.488281 C 56.335938 99.867188 57.683594 101.453125 57.683594 103.375 C 57.683594 105.296875 56.347656 106.886719 54.539062 107.261719 C 54.8125 107.316406 55.097656 107.359375 55.382812 107.359375 C 57.585938 107.359375 59.363281 105.582031 59.363281 103.375 C 59.363281 101.167969 57.585938 99.394531 55.382812 99.394531 Z M 55.382812 99.394531 "/></clipPath><clipPath id="d8772ca249"><path d="M 55.378906 108.816406 L 68 108.816406 L 68 141.042969 L 55.378906 141.042969 Z M 55.378906 108.816406 "/></clipPath><clipPath id="c4d90cff6c"><path d="M 57.105469 108.902344 C 56.609375 109.058594 56.085938 109.152344 55.550781 109.175781 L 66.191406 131.972656 C 64.5625 132.332031 63.21875 133.550781 62.746094 135.210938 C 62.191406 137.183594 63.007812 139.296875 64.742188 140.378906 C 65.730469 140.988281 66.886719 141.167969 67.96875 140.957031 C 67.433594 140.863281 66.90625 140.671875 66.433594 140.378906 C 64.699219 139.296875 63.882812 137.183594 64.4375 135.210938 C 64.898438 133.550781 66.253906 132.332031 67.882812 131.972656 Z M 57.105469 108.902344 "/></clipPath><clipPath id="467dd10184"><path d="M 40.476562 139.03125 L 44.90625 139.03125 L 44.90625 144.265625 L 40.476562 144.265625 Z M 40.476562 139.03125 "/></clipPath><clipPath id="b69b8157cb"><path d="M 43.886719 139.222656 C 42.039062 139.222656 40.515625 140.746094 40.515625 142.597656 C 40.515625 143.152344 40.660156 143.667969 40.902344 144.128906 L 42.585938 144.128906 C 42.34375 143.667969 42.195312 143.152344 42.195312 142.597656 C 42.195312 141.042969 43.277344 139.726562 44.726562 139.351562 C 44.453125 139.277344 44.179688 139.222656 43.886719 139.222656 Z M 43.886719 139.222656 "/></clipPath><clipPath id="5a2eea78c7"><path d="M 70.285156 140.035156 L 73.707031 140.035156 L 73.707031 144.265625 L 70.285156 144.265625 Z M 70.285156 140.035156 "/></clipPath><clipPath id="c4c9c76296"><path d="M 71.644531 140.0625 C 71.234375 140.390625 70.773438 140.632812 70.300781 140.800781 L 71.855469 144.128906 L 73.535156 144.128906 Z M 71.644531 140.0625 "/></clipPath><clipPath id="685b3234b5"><path d="M 72.378906 145.96875 L 74.0625 145.96875 L 74.0625 150.253906 L 72.378906 150.253906 Z M 72.378906 145.96875 "/></clipPath><clipPath id="f4fe1db46c"><path d="M 115.753906 121.679688 L 124.421875 121.679688 L 124.421875 130.347656 L 115.753906 130.347656 Z M 115.753906 121.679688 "/></clipPath><clipPath id="c35dee5b60"><path d="M 124.421875 126.007812 C 124.421875 128.402344 122.480469 130.335938 120.09375 130.335938 C 117.710938 130.335938 115.753906 128.402344 115.753906 126.007812 C 115.753906 123.613281 117.699219 121.679688 120.085938 121.679688 C 122.46875 121.679688 124.421875 123.621094 124.421875 126.007812 "/></clipPath><clipPath id="531eead8b3"><path d="M 116.625 212.289062 L 125.289062 212.289062 L 125.289062 220.957031 L 116.625 220.957031 Z M 116.625 212.289062 "/></clipPath><clipPath id="9e20108adc"><path d="M 125.289062 216.621094 C 125.289062 219.015625 123.347656 220.949219 120.960938 220.949219 C 118.578125 220.949219 116.625 219.015625 116.625 216.621094 C 116.625 214.222656 118.566406 212.289062 120.953125 212.289062 C 123.335938 212.289062 125.289062 214.234375 125.289062 216.621094 "/></clipPath><clipPath id="ec8cc23020"><path d="M 116.625 303.367188 L 125.289062 303.367188 L 125.289062 312.035156 L 116.625 312.035156 Z M 116.625 303.367188 "/></clipPath><clipPath id="754d7b6996"><path d="M 125.289062 307.699219 C 125.289062 310.09375 123.347656 312.027344 120.960938 312.027344 C 118.578125 312.027344 116.625 310.09375 116.625 307.699219 C 116.625 305.300781 118.566406 303.367188 120.953125 303.367188 C 123.335938 303.367188 125.289062 305.3125 125.289062 307.699219 "/></clipPath><clipPath id="eb94287455"><path d="M 116.625 384.402344 L 125.289062 384.402344 L 125.289062 393.070312 L 116.625 393.070312 Z M 116.625 384.402344 "/></clipPath><clipPath id="09e705105d"><path d="M 125.289062 388.730469 C 125.289062 391.125 123.347656 393.058594 120.960938 393.058594 C 118.578125 393.058594 116.625 391.125 116.625 388.730469 C 116.625 386.332031 118.566406 384.402344 120.953125 384.402344 C 123.335938 384.402344 125.289062 386.34375 125.289062 388.730469 "/></clipPath><clipPath id="084978d6bb"><path d="M 429.136719 118.96875 L 437.804688 118.96875 L 437.804688 127.636719 L 429.136719 127.636719 Z M 429.136719 118.96875 "/></clipPath><clipPath id="9d7919a36e"><path d="M 437.804688 123.296875 C 437.804688 125.691406 435.863281 127.625 433.476562 127.625 C 431.09375 127.625 429.136719 125.691406 429.136719 123.296875 C 429.136719 120.902344 431.082031 118.96875 433.464844 118.96875 C 435.851562 118.96875 437.804688 120.914062 437.804688 123.296875 "/></clipPath><clipPath id="ef37e0fbcd"><path d="M 430.003906 209.582031 L 438.671875 209.582031 L 438.671875 218.25 L 430.003906 218.25 Z M 430.003906 209.582031 "/></clipPath><clipPath id="ae92485585"><path d="M 438.671875 213.910156 C 438.671875 216.304688 436.730469 218.238281 434.34375 218.238281 C 431.960938 218.238281 430.003906 216.304688 430.003906 213.910156 C 430.003906 211.515625 431.949219 209.582031 434.335938 209.582031 C 436.71875 209.582031 438.671875 211.523438 438.671875 213.910156 "/></clipPath><clipPath id="b1133ec3a9"><path d="M 430.003906 300.660156 L 438.671875 300.660156 L 438.671875 309.328125 L 430.003906 309.328125 Z M 430.003906 300.660156 "/></clipPath><clipPath id="45a1ab2c8c"><path d="M 438.671875 304.988281 C 438.671875 307.382812 436.730469 309.316406 434.34375 309.316406 C 431.960938 309.316406 430.003906 307.382812 430.003906 304.988281 C 430.003906 302.59375 431.949219 300.660156 434.335938 300.660156 C 436.71875 300.660156 438.671875 302.601562 438.671875 304.988281 "/></clipPath><clipPath id="e777887077"><path d="M 430.003906 381.691406 L 438.671875 381.691406 L 438.671875 390.359375 L 430.003906 390.359375 Z M 430.003906 381.691406 "/></clipPath><clipPath id="52238aa237"><path d="M 438.671875 386.019531 C 438.671875 388.414062 436.730469 390.347656 434.34375 390.347656 C 431.960938 390.347656 430.003906 388.414062 430.003906 386.019531 C 430.003906 383.625 431.949219 381.691406 434.335938 381.691406 C 436.71875 381.691406 438.671875 383.632812 438.671875 386.019531 "/></clipPath><clipPath id="32326d278b"><path d="M 449.996094 360.046875 L 573.695312 360.046875 L 573.695312 407.964844 L 449.996094 407.964844 Z M 449.996094 360.046875 "/></clipPath><clipPath id="98809b61af"><path d="M 449.4375 359.488281 L 574.253906 359.488281 L 574.253906 360.605469 L 449.4375 360.605469 Z M 573.140625 360.605469 L 574.253906 360.605469 L 574.253906 407.410156 L 573.140625 407.410156 Z M 449.4375 360.605469 L 450.550781 360.605469 L 450.550781 407.410156 L 449.4375 407.410156 Z M 449.4375 407.410156 L 574.253906 407.410156 L 574.253906 408.523438 L 449.4375 408.523438 Z M 449.4375 407.410156 "/></clipPath><clipPath id="acc5e0aef3"><path d="M 479.171875 186.582031 L 533.796875 186.582031 L 533.796875 233.800781 L 479.171875 233.800781 Z M 479.171875 186.582031 "/></clipPath><clipPath id="0b336273a0"><path d="M 506.554688 186.703125 L 479.375 233.78125 L 533.734375 233.78125 Z M 506.554688 186.703125 "/></clipPath><clipPath id="ac65476d4c"><path d="M 478.246094 185.425781 L 534.722656 185.425781 L 534.722656 234.496094 L 478.246094 234.496094 Z M 478.246094 185.425781 "/></clipPath><clipPath id="b3fd3662ef"><path d="M 507.039062 186.972656 L 479.859375 234.054688 L 479.375 233.78125 L 479.375 233.222656 L 533.734375 233.222656 L 533.734375 233.78125 L 533.25 234.054688 L 506.070312 186.972656 L 506.554688 186.703125 L 507.039062 186.972656 M 506.070312 186.417969 L 506.554688 185.585938 L 507.039062 186.417969 L 534.21875 233.496094 L 534.699219 234.328125 L 478.40625 234.328125 L 478.890625 233.496094 Z M 506.070312 186.417969 "/></clipPath><clipPath id="deaca25c8f"><path d="M 479.828125 276.753906 L 535.6875 276.753906 L 535.6875 332.609375 L 479.828125 332.609375 Z M 479.828125 276.753906 "/></clipPath><clipPath id="055ff2744f"><path d="M 507.757812 332.597656 C 492.363281 332.597656 479.839844 320.074219 479.839844 304.683594 C 479.839844 289.289062 492.363281 276.765625 507.757812 276.765625 C 523.148438 276.765625 535.671875 289.289062 535.671875 304.683594 C 535.671875 320.074219 523.148438 332.597656 507.757812 332.597656 "/></clipPath><clipPath id="b03805fd0c"><path d="M 479.039062 276 L 536.476562 276 L 536.476562 333.402344 L 479.039062 333.402344 Z M 479.039062 276 "/></clipPath><clipPath id="2239839f2f"><path d="M 507.757812 276.210938 C 492.058594 276.210938 479.285156 288.984375 479.285156 304.683594 C 479.285156 320.378906 492.058594 333.152344 507.757812 333.152344 C 523.453125 333.152344 536.230469 320.378906 536.230469 304.683594 C 536.230469 288.984375 523.453125 276.210938 507.757812 276.210938 M 507.757812 277.324219 C 522.863281 277.324219 535.117188 289.574219 535.117188 304.683594 C 535.117188 319.789062 522.863281 332.039062 507.757812 332.039062 C 492.648438 332.039062 480.398438 319.789062 480.398438 304.683594 C 480.398438 289.574219 492.648438 277.324219 507.757812 277.324219 "/></clipPath><clipPath id="40329fcf5b"><path d="M 482.03125 95.539062 L 534.140625 95.539062 L 534.140625 147.648438 L 482.03125 147.648438 Z M 482.03125 95.539062 "/></clipPath><clipPath id="e2f136bb23"><path d="M 481.472656 94.980469 L 534.699219 94.980469 L 534.699219 96.09375 L 481.472656 96.09375 Z M 533.585938 96.09375 L 534.699219 96.09375 L 534.699219 147.09375 L 533.585938 147.09375 Z M 481.472656 96.09375 L 482.585938 96.09375 L 482.585938 147.09375 L 481.472656 147.09375 Z M 481.472656 147.09375 L 534.699219 147.09375 L 534.699219 148.207031 L 481.472656 148.207031 Z M 481.472656 147.09375 "/></clipPath></defs><g id="2e6026ca87"><g clip-rule="nonzero" clip-path="url(#ba3d1ace12)"><path style=" stroke:none;fill-rule:nonzero;fill:#ffffff;fill-opacity:1;" d="M 0.28125 0 L 594.71875 0 L 594.71875 418.5 L 0.28125 418.5 Z M 0.28125 0 "/></g><g clip-rule="nonzero" clip-path="url(#eb96d7833d)"><path style=" stroke:none;fill-rule:nonzero;fill:#ffffff;fill-opacity:1;" d="M 0.28125 0 L 594.324219 0 L 594.324219 418.222656 L 0.28125 418.222656 Z M 0.28125 0 "/></g><g clip-rule="nonzero" clip-path="url(#9f535bdf6d)"><g clip-rule="nonzero" clip-path="url(#d505f0cb5b)"><path style=" stroke:none;fill-rule:nonzero;fill:#fed0a2;fill-opacity:1;" d="M 25.101562 272.636719 L 90.148438 272.636719 L 90.148438 337.679688 L 25.101562 337.679688 Z M 25.101562 272.636719 "/></g></g><g clip-rule="nonzero" clip-path="url(#d2da1420bd)"><path style=" stroke:none;fill-rule:nonzero;fill:#edf5f7;fill-opacity:1;" d="M 25.101562 272.636719 L 90.148438 272.636719 L 90.148438 337.679688 L 25.101562 337.679688 Z M 25.101562 272.636719 "/></g><g clip-rule="nonzero" clip-path="url(#67c4e46000)"><g clip-rule="nonzero" clip-path="url(#f638ad561e)"><path style=" stroke:none;fill-rule:nonzero;fill:#6dc387;fill-opacity:1;" d="M 25.101562 272.636719 L 90.148438 272.636719 L 90.148438 337.679688 L 25.101562 337.679688 Z M 25.101562 272.636719 "/></g></g><g clip-rule="nonzero" clip-path="url(#f316854b0d)"><g clip-rule="nonzero" clip-path="url(#52c6fd78e9)"><path style=" stroke:none;fill-rule:nonzero;fill:#ffe17a;fill-opacity:1;" d="M 25.101562 272.636719 L 90.148438 272.636719 L 90.148438 337.679688 L 25.101562 337.679688 Z M 25.101562 272.636719 "/></g></g><g clip-rule="nonzero" clip-path="url(#0bdc63295b)"><g clip-rule="nonzero" clip-path="url(#a784a45f0e)"><path style=" stroke:none;fill-rule:nonzero;fill:#515760;fill-opacity:1;" d="M 25.101562 272.636719 L 90.148438 272.636719 L 90.148438 337.679688 L 25.101562 337.679688 Z M 25.101562 272.636719 "/></g></g><g clip-rule="nonzero" clip-path="url(#84cc8adcf1)"><g clip-rule="nonzero" clip-path="url(#4ae762d303)"><path style=" stroke:none;fill-rule:nonzero;fill:#fdb959;fill-opacity:1;" d="M 23.722656 201.117188 L 88.800781 201.117188 L 88.800781 226.746094 L 23.722656 226.746094 Z M 23.722656 201.117188 "/></g></g><g clip-rule="nonzero" clip-path="url(#43dd21b246)"><g clip-rule="nonzero" clip-path="url(#d05a5f11e0)"><path style=" stroke:none;fill-rule:nonzero;fill:#603a16;fill-opacity:1;" d="M 23.722656 201.117188 L 88.800781 201.117188 L 88.800781 226.746094 L 23.722656 226.746094 Z M 23.722656 201.117188 "/></g></g><g clip-rule="nonzero" clip-path="url(#3f14c46a6d)"><g clip-rule="nonzero" clip-path="url(#07d861fee2)"><path style=" stroke:none;fill-rule:nonzero;fill:#603a16;fill-opacity:1;" d="M 23.722656 201.117188 L 88.800781 201.117188 L 88.800781 226.746094 L 23.722656 226.746094 Z M 23.722656 201.117188 "/></g></g><g clip-rule="nonzero" clip-path="url(#87d2b26d51)"><g clip-rule="nonzero" clip-path="url(#bd98b1f189)"><path style=" stroke:none;fill-rule:nonzero;fill:#67ad9c;fill-opacity:1;" d="M 23.371094 348.730469 L 88.414062 348.730469 L 88.414062 413.777344 L 23.371094 413.777344 Z M 23.371094 348.730469 "/></g></g><g clip-rule="nonzero" clip-path="url(#59881178c2)"><g clip-rule="nonzero" clip-path="url(#4f32a29953)"><path style=" stroke:none;fill-rule:nonzero;fill:#211d1c;fill-opacity:1;" d="M 23.371094 348.730469 L 88.414062 348.730469 L 88.414062 413.777344 L 23.371094 413.777344 Z M 23.371094 348.730469 "/></g></g><g clip-rule="nonzero" clip-path="url(#1b2efd57cb)"><g clip-rule="nonzero" clip-path="url(#d0fa792a49)"><path style=" stroke:none;fill-rule:nonzero;fill:#e1e0a6;fill-opacity:1;" d="M 23.371094 348.730469 L 88.414062 348.730469 L 88.414062 413.777344 L 23.371094 413.777344 Z M 23.371094 348.730469 "/></g></g><g clip-rule="nonzero" clip-path="url(#9b4a07e687)"><g clip-rule="nonzero" clip-path="url(#2bc2e67323)"><path style=" stroke:none;fill-rule:nonzero;fill:#211d1c;fill-opacity:1;" d="M 23.371094 348.730469 L 88.414062 348.730469 L 88.414062 413.777344 L 23.371094 413.777344 Z M 23.371094 348.730469 "/></g></g><g clip-rule="nonzero" clip-path="url(#e0b51e963f)"><g clip-rule="nonzero" clip-path="url(#da720bec5f)"><path style=" stroke:none;fill-rule:nonzero;fill:#211d1c;fill-opacity:1;" d="M 23.371094 348.730469 L 88.414062 348.730469 L 88.414062 413.777344 L 23.371094 413.777344 Z M 23.371094 348.730469 "/></g></g><g clip-rule="nonzero" clip-path="url(#484b451b67)"><g clip-rule="nonzero" clip-path="url(#48ce822c99)"><path style=" stroke:none;fill-rule:nonzero;fill:#211d1c;fill-opacity:1;" d="M 23.371094 348.730469 L 88.414062 348.730469 L 88.414062 413.777344 L 23.371094 413.777344 Z M 23.371094 348.730469 "/></g></g><g clip-rule="nonzero" clip-path="url(#74e5a2f494)"><path style=" stroke:none;fill-rule:nonzero;fill:#211d1c;fill-opacity:1;" d="M 23.371094 348.730469 L 88.414062 348.730469 L 88.414062 413.777344 L 23.371094 413.777344 Z M 23.371094 348.730469 "/></g><g clip-rule="nonzero" clip-path="url(#d668039d5a)"><g clip-rule="nonzero" clip-path="url(#accfd96945)"><path style=" stroke:none;fill-rule:nonzero;fill:#bc3526;fill-opacity:1;" d="M 23.371094 348.730469 L 88.414062 348.730469 L 88.414062 413.777344 L 23.371094 413.777344 Z M 23.371094 348.730469 "/></g></g><g clip-rule="nonzero" clip-path="url(#e3de6f5d14)"><g clip-rule="nonzero" clip-path="url(#c4665e93a9)"><path style=" stroke:none;fill-rule:nonzero;fill:#3b322d;fill-opacity:1;" d="M 29.597656 92.300781 L 81.160156 92.300781 L 81.160156 157.359375 L 29.597656 157.359375 Z M 29.597656 92.300781 "/></g></g><g clip-rule="nonzero" clip-path="url(#6da09c03c8)"><g clip-rule="nonzero" clip-path="url(#66ae3f96f5)"><path style=" stroke:none;fill-rule:nonzero;fill:#58c2ad;fill-opacity:1;" d="M 29.597656 92.300781 L 81.160156 92.300781 L 81.160156 157.359375 L 29.597656 157.359375 Z M 29.597656 92.300781 "/></g></g><g clip-rule="nonzero" clip-path="url(#704d849608)"><g clip-rule="nonzero" clip-path="url(#a4a82e6a21)"><path style=" stroke:none;fill-rule:nonzero;fill:#3b322d;fill-opacity:1;" d="M 29.597656 92.300781 L 81.160156 92.300781 L 81.160156 157.359375 L 29.597656 157.359375 Z M 29.597656 92.300781 "/></g></g><g clip-rule="nonzero" clip-path="url(#6e40afbb5b)"><g clip-rule="nonzero" clip-path="url(#2bb947334c)"><path style=" stroke:none;fill-rule:nonzero;fill:#fbd119;fill-opacity:1;" d="M 29.597656 92.300781 L 81.160156 92.300781 L 81.160156 157.359375 L 29.597656 157.359375 Z M 29.597656 92.300781 "/></g></g><g clip-rule="nonzero" clip-path="url(#25e6106f79)"><g clip-rule="nonzero" clip-path="url(#92693ee811)"><path style=" stroke:none;fill-rule:nonzero;fill:#3b322d;fill-opacity:1;" d="M 29.597656 92.300781 L 81.160156 92.300781 L 81.160156 157.359375 L 29.597656 157.359375 Z M 29.597656 92.300781 "/></g></g><g clip-rule="nonzero" clip-path="url(#60b27da3b1)"><g clip-rule="nonzero" clip-path="url(#fc34848d73)"><path style=" stroke:none;fill-rule:nonzero;fill:#fbd119;fill-opacity:1;" d="M 29.597656 92.300781 L 81.160156 92.300781 L 81.160156 157.359375 L 29.597656 157.359375 Z M 29.597656 92.300781 "/></g></g><g clip-rule="nonzero" clip-path="url(#0752a4c310)"><g clip-rule="nonzero" clip-path="url(#3a171b83cf)"><path style=" stroke:none;fill-rule:nonzero;fill:#fbd119;fill-opacity:1;" d="M 29.597656 92.300781 L 81.160156 92.300781 L 81.160156 157.359375 L 29.597656 157.359375 Z M 29.597656 92.300781 "/></g></g><g clip-rule="nonzero" clip-path="url(#3c1db77929)"><g clip-rule="nonzero" clip-path="url(#b0fa8bf0e4)"><path style=" stroke:none;fill-rule:nonzero;fill:#fbd119;fill-opacity:1;" d="M 29.597656 92.300781 L 81.160156 92.300781 L 81.160156 157.359375 L 29.597656 157.359375 Z M 29.597656 92.300781 "/></g></g><g clip-rule="nonzero" clip-path="url(#0f2dc55053)"><g clip-rule="nonzero" clip-path="url(#c3481bd701)"><path style=" stroke:none;fill-rule:nonzero;fill:#f19f4c;fill-opacity:1;" d="M 29.597656 92.300781 L 81.160156 92.300781 L 81.160156 157.359375 L 29.597656 157.359375 Z M 29.597656 92.300781 "/></g></g><g clip-rule="nonzero" clip-path="url(#5a58a7bea4)"><path style=" stroke:none;fill-rule:nonzero;fill:#f19f4c;fill-opacity:1;" d="M 29.597656 92.300781 L 81.160156 92.300781 L 81.160156 157.359375 L 29.597656 157.359375 Z M 29.597656 92.300781 "/></g><g clip-rule="nonzero" clip-path="url(#e2972fda44)"><g clip-rule="nonzero" clip-path="url(#13acfa239c)"><path style=" stroke:none;fill-rule:nonzero;fill:#c2803b;fill-opacity:1;" d="M 29.597656 92.300781 L 81.160156 92.300781 L 81.160156 157.359375 L 29.597656 157.359375 Z M 29.597656 92.300781 "/></g></g><g clip-rule="nonzero" clip-path="url(#d8772ca249)"><g clip-rule="nonzero" clip-path="url(#c4d90cff6c)"><path style=" stroke:none;fill-rule:nonzero;fill:#29ad93;fill-opacity:1;" d="M 29.597656 92.300781 L 81.160156 92.300781 L 81.160156 157.359375 L 29.597656 157.359375 Z M 29.597656 92.300781 "/></g></g><g clip-rule="nonzero" clip-path="url(#467dd10184)"><g clip-rule="nonzero" clip-path="url(#b69b8157cb)"><path style=" stroke:none;fill-rule:nonzero;fill:#29ad93;fill-opacity:1;" d="M 29.597656 92.300781 L 81.160156 92.300781 L 81.160156 157.359375 L 29.597656 157.359375 Z M 29.597656 92.300781 "/></g></g><g clip-rule="nonzero" clip-path="url(#5a2eea78c7)"><g clip-rule="nonzero" clip-path="url(#c4c9c76296)"><path style=" stroke:none;fill-rule:nonzero;fill:#29ad93;fill-opacity:1;" d="M 29.597656 92.300781 L 81.160156 92.300781 L 81.160156 157.359375 L 29.597656 157.359375 Z M 29.597656 92.300781 "/></g></g><g clip-rule="nonzero" clip-path="url(#685b3234b5)"><path style=" stroke:none;fill-rule:nonzero;fill:#c2803b;fill-opacity:1;" d="M 29.597656 92.300781 L 81.160156 92.300781 L 81.160156 157.359375 L 29.597656 157.359375 Z M 29.597656 92.300781 "/></g><g clip-rule="nonzero" clip-path="url(#f4fe1db46c)"><g clip-rule="nonzero" clip-path="url(#c35dee5b60)"><path style=" stroke:none;fill-rule:nonzero;fill:#00a64d;fill-opacity:1;" d="M 115.753906 121.679688 L 124.421875 121.679688 L 124.421875 130.347656 L 115.753906 130.347656 Z M 115.753906 121.679688 "/></g></g><g clip-rule="nonzero" clip-path="url(#531eead8b3)"><g clip-rule="nonzero" clip-path="url(#9e20108adc)"><path style=" stroke:none;fill-rule:nonzero;fill:#00a64d;fill-opacity:1;" d="M 116.625 212.289062 L 125.289062 212.289062 L 125.289062 220.957031 L 116.625 220.957031 Z M 116.625 212.289062 "/></g></g><g clip-rule="nonzero" clip-path="url(#ec8cc23020)"><g clip-rule="nonzero" clip-path="url(#754d7b6996)"><path style=" stroke:none;fill-rule:nonzero;fill:#00a64d;fill-opacity:1;" d="M 116.625 303.367188 L 125.289062 303.367188 L 125.289062 312.035156 L 116.625 312.035156 Z M 116.625 303.367188 "/></g></g><g clip-rule="nonzero" clip-path="url(#eb94287455)"><g clip-rule="nonzero" clip-path="url(#09e705105d)"><path style=" stroke:none;fill-rule:nonzero;fill:#00a64d;fill-opacity:1;" d="M 116.625 384.402344 L 125.289062 384.402344 L 125.289062 393.070312 L 116.625 393.070312 Z M 116.625 384.402344 "/></g></g><g clip-rule="nonzero" clip-path="url(#084978d6bb)"><g clip-rule="nonzero" clip-path="url(#9d7919a36e)"><path style=" stroke:none;fill-rule:nonzero;fill:#cd2028;fill-opacity:1;" d="M 429.136719 118.96875 L 437.804688 118.96875 L 437.804688 127.636719 L 429.136719 127.636719 Z M 429.136719 118.96875 "/></g></g><g clip-rule="nonzero" clip-path="url(#ef37e0fbcd)"><g clip-rule="nonzero" clip-path="url(#ae92485585)"><path style=" stroke:none;fill-rule:nonzero;fill:#cd2028;fill-opacity:1;" d="M 430.003906 209.582031 L 438.671875 209.582031 L 438.671875 218.25 L 430.003906 218.25 Z M 430.003906 209.582031 "/></g></g><g clip-rule="nonzero" clip-path="url(#b1133ec3a9)"><g clip-rule="nonzero" clip-path="url(#45a1ab2c8c)"><path style=" stroke:none;fill-rule:nonzero;fill:#cd2028;fill-opacity:1;" d="M 430.003906 300.660156 L 438.671875 300.660156 L 438.671875 309.328125 L 430.003906 309.328125 Z M 430.003906 300.660156 "/></g></g><g clip-rule="nonzero" clip-path="url(#e777887077)"><g clip-rule="nonzero" clip-path="url(#52238aa237)"><path style=" stroke:none;fill-rule:nonzero;fill:#cd2028;fill-opacity:1;" d="M 430.003906 381.691406 L 438.671875 381.691406 L 438.671875 390.359375 L 430.003906 390.359375 Z M 430.003906 381.691406 "/></g></g><g clip-rule="nonzero" clip-path="url(#32326d278b)"><path style=" stroke:none;fill-rule:nonzero;fill:#4dab47;fill-opacity:1;" d="M 444.183594 354.238281 L 579.542969 354.238281 L 579.542969 413.773438 L 444.183594 413.773438 Z M 444.183594 354.238281 "/></g><g clip-rule="nonzero" clip-path="url(#98809b61af)"><path style=" stroke:none;fill-rule:nonzero;fill:#231f20;fill-opacity:1;" d="M 444.183594 354.238281 L 579.542969 354.238281 L 579.542969 413.773438 L 444.183594 413.773438 Z M 444.183594 354.238281 "/></g><g clip-rule="nonzero" clip-path="url(#acc5e0aef3)"><g clip-rule="nonzero" clip-path="url(#0b336273a0)"><path style=" stroke:none;fill-rule:nonzero;fill:#4dab47;fill-opacity:1;" d="M 473.15625 180.335938 L 540.042969 180.335938 L 540.042969 239.585938 L 473.15625 239.585938 Z M 473.15625 180.335938 "/></g></g><g clip-rule="nonzero" clip-path="url(#ac65476d4c)"><g clip-rule="nonzero" clip-path="url(#b3fd3662ef)"><path style=" stroke:none;fill-rule:nonzero;fill:#231f20;fill-opacity:1;" d="M 473.15625 180.335938 L 540.042969 180.335938 L 540.042969 239.585938 L 473.15625 239.585938 Z M 473.15625 180.335938 "/></g></g><g clip-rule="nonzero" clip-path="url(#deaca25c8f)"><g clip-rule="nonzero" clip-path="url(#055ff2744f)"><path style=" stroke:none;fill-rule:nonzero;fill:#4dab47;fill-opacity:1;" d="M 474.03125 270.957031 L 541.480469 270.957031 L 541.480469 338.40625 L 474.03125 338.40625 Z M 474.03125 270.957031 "/></g></g><g clip-rule="nonzero" clip-path="url(#b03805fd0c)"><g clip-rule="nonzero" clip-path="url(#2239839f2f)"><path style=" stroke:none;fill-rule:nonzero;fill:#231f20;fill-opacity:1;" d="M 474.03125 270.957031 L 541.480469 270.957031 L 541.480469 338.40625 L 474.03125 338.40625 Z M 474.03125 270.957031 "/></g></g><g clip-rule="nonzero" clip-path="url(#40329fcf5b)"><path style=" stroke:none;fill-rule:nonzero;fill:#4dab47;fill-opacity:1;" d="M 476.21875 89.726562 L 539.949219 89.726562 L 539.949219 153.457031 L 476.21875 153.457031 Z M 476.21875 89.726562 "/></g><g clip-rule="nonzero" clip-path="url(#e2f136bb23)"><path style=" stroke:none;fill-rule:nonzero;fill:#231f20;fill-opacity:1;" d="M 476.21875 89.726562 L 539.949219 89.726562 L 539.949219 153.457031 L 476.21875 153.457031 Z M 476.21875 89.726562 "/></g></g></svg>