<svg xmlns="http://www.w3.org/2000/svg" xmlns:xlink="http://www.w3.org/1999/xlink" width="794" zoomAndPan="magnify" viewBox="0 0 595.5 419.249996" height="559" preserveAspectRatio="xMidYMid meet" version="1.2"><defs><clipPath id="075dd8b093"><path d="M 0.28125 0 L 594.71875 0 L 594.71875 418.5 L 0.28125 418.5 Z M 0.28125 0 "/></clipPath><clipPath id="8c0f783be1"><path d="M 0.28125 0 L 594.324219 0 L 594.324219 418.222656 L 0.28125 418.222656 Z M 0.28125 0 "/></clipPath><clipPath id="65535ccd0c"><path d="M 34.1875 7.027344 L 560.894531 7.027344 L 560.894531 411 L 34.1875 411 Z M 34.1875 7.027344 "/></clipPath><clipPath id="eef14ff96d"><path d="M 34.1875 7.027344 L 560.894531 7.027344 L 560.894531 411.785156 L 34.1875 411.785156 Z M 34.1875 7.027344 "/></clipPath><clipPath id="4013cde690"><path d="M 85.511719 18.648438 L 161.824219 18.648438 L 161.824219 94.960938 L 85.511719 94.960938 Z M 85.511719 18.648438 "/></clipPath><clipPath id="df11e4c33b"><path d="M 90.632812 123.726562 L 162.457031 123.726562 L 162.457031 195.550781 L 90.632812 195.550781 Z M 90.632812 123.726562 "/></clipPath><clipPath id="5f6d0cea7e"><path d="M 89.863281 226.082031 L 162.191406 226.082031 L 162.191406 296.375 L 89.863281 296.375 Z M 89.863281 226.082031 "/></clipPath><clipPath id="1e770d5a3f"><path d="M 89.863281 226.085938 L 162.179688 226.085938 L 162.179688 296.371094 L 89.863281 296.371094 Z M 89.863281 226.085938 "/></clipPath><clipPath id="01c7a017ee"><path d="M 80.777344 319.65625 L 171.410156 319.65625 L 171.410156 398.84375 L 80.777344 398.84375 Z M 80.777344 319.65625 "/></clipPath><clipPath id="e6aeec78ea"><path d="M 126.027344 319.65625 L 171.277344 398.84375 L 80.777344 398.84375 Z M 126.027344 319.65625 "/></clipPath><clipPath id="4e2297e305"><path d="M 80.78125 319.65625 L 171.269531 319.65625 L 171.269531 398.835938 L 80.78125 398.835938 Z M 80.78125 319.65625 "/></clipPath><clipPath id="71871a4a7e"><path d="M 126.023438 319.65625 L 171.269531 398.835938 L 80.78125 398.835938 Z M 126.023438 319.65625 "/></clipPath></defs><g id="202853df64"><g clip-rule="nonzero" clip-path="url(#075dd8b093)"><path style=" stroke:none;fill-rule:nonzero;fill:#ffffff;fill-opacity:1;" d="M 0.28125 0 L 594.71875 0 L 594.71875 418.5 L 0.28125 418.5 Z M 0.28125 0 "/></g><g clip-rule="nonzero" clip-path="url(#8c0f783be1)"><path style=" stroke:none;fill-rule:nonzero;fill:#ffffff;fill-opacity:1;" d="M 0.28125 0 L 594.324219 0 L 594.324219 418.222656 L 0.28125 418.222656 Z M 0.28125 0 "/></g><g clip-rule="nonzero" clip-path="url(#65535ccd0c)"><path style=" stroke:none;fill-rule:nonzero;fill:#000000;fill-opacity:1;" d="M 35.132812 8.917969 L 35.132812 409.582031 M 214.46875 8.917969 L 214.46875 409.582031 M 559.25 8.917969 L 559.25 409.582031 M 34.1875 7.972656 L 560.195312 7.972656 M 34.1875 108.613281 L 560.195312 108.613281 M 34.1875 209.25 L 560.195312 209.25 M 34.1875 309.890625 L 560.195312 309.890625 M 34.1875 410.527344 L 560.195312 410.527344 "/></g><g clip-rule="nonzero" clip-path="url(#eef14ff96d)"><path style="fill:none;stroke-width:2.530428;stroke-linecap:butt;stroke-linejoin:miter;stroke:#4dbb6f;stroke-opacity:1;stroke-miterlimit:4;" d="M 1.263967 2.528916 L 1.263967 538.057685 M 240.964911 2.528916 L 240.964911 538.057685 M 701.800547 2.528916 L 701.800547 538.057685 M 0.000459544 1.265409 L 703.064055 1.265409 M 0.000459544 135.781965 L 703.064055 135.781965 M 0.000459544 270.293301 L 703.064055 270.293301 M 0.000459544 404.809857 L 703.064055 404.809857 M 0.000459544 539.321193 L 703.064055 539.321193 " transform="matrix(0.748165,0,0,0.748165,34.187156,7.025921)"/></g><g clip-rule="nonzero" clip-path="url(#4013cde690)"><path style=" stroke:none;fill-rule:nonzero;fill:#000000;fill-opacity:1;" d="M 123.667969 18.648438 C 102.554688 18.648438 85.511719 35.691406 85.511719 56.804688 C 85.511719 77.917969 102.554688 94.960938 123.667969 94.960938 C 144.78125 94.960938 161.824219 77.917969 161.824219 56.804688 C 161.824219 35.691406 144.78125 18.648438 123.667969 18.648438 Z M 123.667969 91.570312 C 104.503906 91.570312 88.902344 75.96875 88.902344 56.804688 C 88.902344 37.640625 104.503906 22.039062 123.667969 22.039062 C 142.832031 22.039062 158.433594 37.640625 158.433594 56.804688 C 158.433594 75.96875 142.832031 91.570312 123.667969 91.570312 Z M 123.667969 91.570312 "/></g><g clip-rule="nonzero" clip-path="url(#df11e4c33b)"><path style=" stroke:none;fill-rule:nonzero;fill:#000000;fill-opacity:1;" d="M 126.546875 195.546875 C 125.917969 195.546875 125.40625 195.039062 125.40625 194.410156 L 125.40625 160.773438 L 91.773438 160.773438 C 91.144531 160.773438 90.632812 160.265625 90.632812 159.636719 C 90.632812 159.007812 91.144531 158.5 91.773438 158.5 L 125.40625 158.5 L 125.40625 124.863281 C 125.40625 124.234375 125.917969 123.726562 126.546875 123.726562 C 127.171875 123.726562 127.683594 124.234375 127.683594 124.863281 L 127.683594 158.5 L 161.320312 158.5 C 161.945312 158.5 162.457031 159.007812 162.457031 159.636719 C 162.457031 160.265625 161.945312 160.773438 161.320312 160.773438 L 127.683594 160.773438 L 127.683594 194.410156 C 127.683594 195.039062 127.171875 195.546875 126.546875 195.546875 Z M 126.546875 195.546875 "/></g><g clip-rule="nonzero" clip-path="url(#5f6d0cea7e)"><path style=" stroke:none;fill-rule:nonzero;fill:#ffffff;fill-opacity:1;" d="M 89.863281 226.082031 L 162.082031 226.082031 L 162.082031 296.375 L 89.863281 296.375 Z M 89.863281 226.082031 "/></g><g clip-rule="nonzero" clip-path="url(#1e770d5a3f)"><path style="fill:none;stroke-width:4;stroke-linecap:butt;stroke-linejoin:miter;stroke:#000000;stroke-opacity:1;stroke-miterlimit:4;" d="M -0.00183184 -0.00166749 L 96.656481 -0.00166749 L 96.656481 93.941671 L -0.00183184 93.941671 Z M -0.00183184 -0.00166749 " transform="matrix(0.748165,0,0,0.748165,89.864652,226.087185)"/></g><g clip-rule="nonzero" clip-path="url(#01c7a017ee)"><g clip-rule="nonzero" clip-path="url(#e6aeec78ea)"><path style=" stroke:none;fill-rule:nonzero;fill:#ffffff;fill-opacity:1;" d="M 80.777344 319.65625 L 171.410156 319.65625 L 171.410156 398.84375 L 80.777344 398.84375 Z M 80.777344 319.65625 "/></g></g><g clip-rule="nonzero" clip-path="url(#4e2297e305)"><g clip-rule="nonzero" clip-path="url(#71871a4a7e)"><path style="fill:none;stroke-width:4;stroke-linecap:butt;stroke-linejoin:miter;stroke:#000000;stroke-opacity:1;stroke-miterlimit:4;" d="M 60.47289 -0.00151531 L 120.948946 105.830279 L 0.00205414 105.830279 Z M 60.47289 -0.00151531 " transform="matrix(0.748165,0,0,0.748165,80.779713,319.657384)"/></g></g></g></svg>