<svg xmlns="http://www.w3.org/2000/svg" xmlns:xlink="http://www.w3.org/1999/xlink" width="600" zoomAndPan="magnify" viewBox="0 0 450 149.999998" height="200" preserveAspectRatio="xMidYMid meet" version="1.2"><defs><clipPath id="6fd88f78b3"><path d="M 230 103 L 247 103 L 247 137.199219 L 230 137.199219 Z M 230 103 "/></clipPath><clipPath id="dee5b2d202"><path d="M 258 93 L 278.71875 93 L 278.71875 120 L 258 120 Z M 258 93 "/></clipPath></defs><g id="cb7c7b20b7"><rect x="0" width="450" y="0" height="149.999998" style="fill:#ffffff;fill-opacity:1;stroke:none;"/><rect x="0" width="450" y="0" height="149.999998" style="fill:#ffffff;fill-opacity:1;stroke:none;"/><path style="fill-rule:nonzero;fill:#000000;fill-opacity:1;stroke-width:1;stroke-linecap:butt;stroke-linejoin:miter;stroke:#0c7b3b;stroke-opacity:1;stroke-miterlimit:4;" d="M 0.499995 0.999997 L 0.499995 199.000009 M 599.50003 0.999997 L 599.50003 199.000009 M -0.000005 0.499997 L 600.00003 0.499997 M -0.000005 199.500009 L 600.00003 199.500009 " transform="matrix(0.75,0,0,0.75,0.00000375,0.000002)"/><path style=" stroke:none;fill-rule:nonzero;fill:#0c7b3b;fill-opacity:1;" d="M 211.667969 90.203125 C 212.667969 97.710938 213.707031 105.199219 214.785156 112.707031 C 214.84375 113.15625 214.941406 113.648438 215.253906 113.960938 C 215.507812 114.195312 215.863281 114.292969 216.195312 114.390625 C 220.035156 115.332031 224.191406 114.882812 227.742188 113.136719 C 228.09375 112.960938 228.445312 112.765625 228.625 112.429688 C 228.859375 111.980469 228.722656 111.410156 228.5625 110.921875 C 226.625 104.804688 224.683594 98.691406 222.761719 92.574219 C 222.566406 91.925781 222.3125 91.222656 221.703125 90.886719 C 221.351562 90.691406 220.917969 90.671875 220.507812 90.652344 C 218.058594 90.574219 215.625 90.496094 211.667969 90.203125 Z M 211.667969 90.203125 "/><path style=" stroke:none;fill-rule:nonzero;fill:#0c7b3b;fill-opacity:1;" d="M 256.734375 83.144531 C 258.261719 93.339844 259.96875 103.492188 261.851562 113.628906 C 262.183594 115.449219 262.671875 117.46875 264.222656 118.46875 C 265.378906 119.195312 266.828125 119.195312 268.183594 119 C 270.769531 118.664062 273.296875 117.800781 275.570312 116.507812 C 276.472656 116 277.375 115.351562 277.726562 114.390625 C 278.121094 113.3125 277.726562 112.117188 277.335938 111.039062 C 273.355469 100.199219 269.378906 89.359375 265.398438 78.519531 C 262.203125 80.164062 259.007812 81.8125 256.734375 83.144531 Z M 256.734375 83.144531 "/><path style=" stroke:none;fill-rule:nonzero;fill:#0c7b3b;fill-opacity:1;" d="M 192.378906 87.28125 C 188.652344 99.492188 185.320312 111.84375 182.339844 124.273438 C 182.105469 125.269531 181.890625 126.410156 182.4375 127.25 C 182.792969 127.800781 183.417969 128.132812 184.027344 128.40625 C 188.085938 130.25 192.710938 130.742188 197.0625 129.820312 C 197.59375 129.703125 198.140625 129.5625 198.472656 129.152344 C 198.808594 128.761719 198.847656 128.210938 198.886719 127.703125 C 199.789062 115.15625 200.277344 102.589844 200.335938 90.023438 C 197.828125 89.691406 195.316406 89.378906 192.378906 87.28125 Z M 192.378906 87.28125 "/><path style=" stroke:none;fill-rule:nonzero;fill:#0c7b3b;fill-opacity:1;" d="M 235.386719 91.671875 C 233.289062 105.6875 231.898438 119.800781 231.230469 133.957031 C 231.210938 134.425781 231.191406 134.914062 231.464844 135.308594 C 231.757812 135.738281 232.328125 135.875 232.835938 135.992188 C 236.269531 136.679688 239.796875 136.777344 243.246094 136.289062 C 243.953125 136.191406 244.71875 136.035156 245.207031 135.503906 C 245.777344 134.894531 245.796875 133.996094 245.816406 133.171875 C 245.894531 119.15625 245.5 105.140625 244.640625 91.144531 C 242.128906 91.535156 239.621094 91.769531 235.386719 91.671875 Z M 235.386719 91.671875 "/><path style=" stroke:none;fill-rule:nonzero;fill:#0c7b3b;fill-opacity:1;" d="M 193.003906 130.328125 C 190.242188 130.328125 187.476562 129.878906 184.871094 128.976562 C 183.871094 128.625 182.773438 128.132812 182.300781 127.09375 C 181.96875 126.367188 182.027344 125.585938 182.125 124.78125 C 182.988281 117.625 184.652344 110.550781 187.066406 103.746094 C 187.144531 103.53125 187.378906 103.414062 187.59375 103.492188 C 187.808594 103.570312 187.925781 103.804688 187.847656 104.023438 C 185.457031 110.765625 183.8125 117.78125 182.949219 124.878906 C 182.871094 125.585938 182.8125 126.210938 183.046875 126.742188 C 183.398438 127.507812 184.300781 127.898438 185.125 128.191406 C 188.769531 129.445312 192.730469 129.820312 196.554688 129.25 C 197.316406 129.132812 198.257812 128.917969 198.628906 128.25 C 198.847656 127.878906 198.867188 127.367188 198.886719 126.917969 C 199.257812 117.980469 199.589844 108.921875 199.867188 100.023438 C 199.867188 99.789062 200.0625 99.609375 200.296875 99.628906 C 200.53125 99.628906 200.707031 99.828125 200.6875 100.0625 C 200.414062 108.960938 200.082031 118.019531 199.707031 126.957031 C 199.6875 127.464844 199.648438 128.113281 199.335938 128.664062 C 198.789062 129.625 197.613281 129.917969 196.652344 130.054688 C 195.476562 130.230469 194.238281 130.328125 193.003906 130.328125 Z M 193.003906 130.328125 "/><path style=" stroke:none;fill-rule:nonzero;fill:#0c7b3b;fill-opacity:1;" d="M 219.46875 115.292969 C 218.859375 115.292969 218.253906 115.273438 217.644531 115.214844 C 217 115.15625 216.253906 115.078125 215.625 114.648438 C 214.507812 113.902344 214.234375 112.46875 214.078125 111.195312 L 212.390625 97.535156 C 212.371094 97.296875 212.527344 97.101562 212.746094 97.082031 C 212.980469 97.042969 213.175781 97.21875 213.195312 97.433594 L 214.882812 111.097656 C 215.019531 112.195312 215.234375 113.410156 216.058594 113.960938 C 216.527344 114.273438 217.136719 114.332031 217.683594 114.390625 C 221.234375 114.6875 224.820312 114.097656 228.09375 112.707031 C 228.308594 112.609375 228.542969 112.707031 228.644531 112.921875 C 228.742188 113.136719 228.644531 113.371094 228.425781 113.46875 C 225.605469 114.667969 222.546875 115.292969 219.46875 115.292969 Z M 219.46875 115.292969 "/><g clip-rule="nonzero" clip-path="url(#6fd88f78b3)"><path style=" stroke:none;fill-rule:nonzero;fill:#0c7b3b;fill-opacity:1;" d="M 238.269531 137.171875 C 236.328125 137.171875 234.386719 136.953125 232.484375 136.523438 C 231.878906 136.386719 231.289062 136.191406 230.957031 135.640625 C 230.679688 135.210938 230.699219 134.699219 230.71875 134.328125 C 231.09375 124.09375 231.957031 113.785156 233.230469 103.628906 C 233.25 103.394531 233.464844 103.238281 233.679688 103.277344 C 233.914062 103.296875 234.074219 103.511719 234.035156 103.726562 C 232.757812 113.84375 231.898438 124.152344 231.523438 134.347656 C 231.503906 134.699219 231.503906 134.996094 231.640625 135.210938 C 231.820312 135.484375 232.230469 135.621094 232.660156 135.71875 C 236.503906 136.582031 240.542969 136.542969 244.363281 135.601562 C 244.679688 135.523438 245.011719 135.425781 245.1875 135.230469 C 245.382812 135.015625 245.402344 134.621094 245.402344 134.210938 L 245.519531 119.625 C 245.519531 119.390625 245.695312 119.214844 245.933594 119.214844 C 246.167969 119.214844 246.34375 119.410156 246.34375 119.625 L 246.226562 134.210938 C 246.226562 134.640625 246.226562 135.269531 245.816406 135.738281 C 245.480469 136.132812 244.992188 136.289062 244.558594 136.386719 C 242.503906 136.914062 240.386719 137.171875 238.269531 137.171875 Z M 238.269531 137.171875 "/></g><g clip-rule="nonzero" clip-path="url(#dee5b2d202)"><path style=" stroke:none;fill-rule:nonzero;fill:#0c7b3b;fill-opacity:1;" d="M 266.808594 119.449219 C 265.847656 119.449219 264.75 119.273438 263.890625 118.585938 C 262.851562 117.742188 262.457031 116.46875 262.125 115.097656 C 260.417969 108.214844 259.066406 101.179688 258.066406 94.179688 C 258.027344 93.964844 258.183594 93.75 258.417969 93.710938 C 258.65625 93.671875 258.851562 93.828125 258.890625 94.0625 C 259.890625 101.042969 261.242188 108.058594 262.949219 114.902344 C 263.242188 116.117188 263.59375 117.273438 264.4375 117.941406 C 265.164062 118.527344 266.242188 118.722656 267.789062 118.566406 C 270.847656 118.273438 273.75 117.136719 276.199219 115.273438 C 276.648438 114.941406 277.082031 114.546875 277.316406 114.078125 C 277.746094 113.214844 277.453125 112.136719 277.121094 111.097656 C 275.570312 106.355469 273.710938 101.648438 271.554688 97.160156 C 271.457031 96.964844 271.535156 96.710938 271.75 96.613281 C 271.945312 96.515625 272.199219 96.59375 272.296875 96.808594 C 274.472656 101.335938 276.355469 106.058594 277.90625 110.84375 C 278.277344 111.980469 278.609375 113.292969 278.0625 114.429688 C 277.746094 115.058594 277.21875 115.507812 276.6875 115.921875 C 274.121094 117.863281 271.0625 119.058594 267.847656 119.371094 C 267.535156 119.410156 267.183594 119.449219 266.808594 119.449219 Z M 266.808594 119.449219 "/></g><path style=" stroke:none;fill-rule:nonzero;fill:#0c7b3b;fill-opacity:1;" d="M 217.78125 42.859375 C 216.46875 52.367188 215.488281 61.933594 214.824219 71.5 C 214.785156 72.050781 214.765625 72.636719 215.039062 73.128906 C 215.292969 73.558594 215.742188 73.8125 216.195312 74.03125 C 218.273438 75.070312 220.566406 75.695312 222.878906 75.890625 C 224.132812 70.089844 224.527344 64.148438 224.9375 58.230469 C 225.289062 53.113281 225.644531 47.996094 225.996094 42.859375 C 223.46875 42.78125 220.957031 42.683594 217.78125 42.859375 Z M 217.78125 42.859375 "/><path style=" stroke:none;fill-rule:nonzero;fill:#0c7b3b;fill-opacity:1;" d="M 258.597656 42.058594 C 256.929688 52.210938 255.65625 62.40625 254.792969 72.65625 C 257.558594 73.03125 260.359375 73.050781 263.125 72.753906 C 263.496094 72.714844 263.890625 72.65625 264.125 72.363281 C 264.320312 72.148438 264.359375 71.832031 264.398438 71.539062 L 267.867188 40.703125 C 264.769531 40.351562 261.59375 40.605469 258.597656 42.058594 Z M 258.597656 42.058594 "/><path style=" stroke:none;fill-rule:nonzero;fill:#45b83a;fill-opacity:1;" d="M 277.179688 21.199219 C 277.179688 27.765625 276.277344 34.3125 274.511719 40.644531 C 274.199219 41.78125 273.828125 42.957031 272.945312 43.742188 C 272.160156 44.429688 271.101562 44.703125 270.082031 44.898438 C 267.632812 45.390625 265.144531 45.664062 262.632812 45.820312 C 259.636719 45.996094 256.636719 46.015625 253.636719 46.015625 C 243.03125 46.035156 232.445312 45.976562 221.839844 45.898438 C 219 45.878906 216.097656 45.839844 213.449219 44.800781 C 212.351562 44.371094 211.253906 43.703125 210.6875 42.664062 C 210.117188 41.625 210.136719 40.371094 210.214844 39.175781 C 210.53125 33.707031 211.390625 28.277344 212.785156 22.964844 C 213.765625 19.199219 215.15625 17.296875 217.15625 16.21875 C 219.175781 15.140625 221.46875 14.75 223.722656 14.4375 C 236.03125 12.730469 248.539062 13.359375 260.949219 14.003906 C 263.242188 14.125 265.535156 14.242188 267.828125 14.496094 C 269.21875 14.652344 270.632812 14.847656 272.003906 15.121094 C 273.671875 15.457031 275.453125 15.984375 276.394531 17.398438 C 277.121094 18.476562 277.179688 19.886719 277.179688 21.199219 Z M 277.179688 21.199219 "/><path style=" stroke:none;fill-rule:nonzero;fill:#0c7b3b;fill-opacity:1;" d="M 277.179688 21.199219 C 277.179688 27.765625 276.277344 34.3125 274.511719 40.644531 C 274.199219 41.78125 273.828125 42.957031 272.945312 43.742188 C 272.160156 44.429688 271.101562 44.703125 270.082031 44.898438 C 267.632812 45.390625 265.144531 45.664062 262.632812 45.820312 C 263.457031 45.507812 264.242188 45.136719 264.90625 44.566406 C 266.4375 43.273438 267.042969 41.234375 267.515625 39.273438 C 269.023438 33 269.90625 26.570312 270.140625 20.101562 C 270.179688 18.730469 270.199219 17.320312 269.574219 16.101562 C 269.320312 15.613281 268.632812 15.003906 267.808594 14.457031 C 269.199219 14.613281 270.613281 14.808594 271.984375 15.082031 C 273.652344 15.417969 275.433594 15.945312 276.375 17.359375 C 277.121094 18.476562 277.179688 19.886719 277.179688 21.199219 Z M 277.179688 21.199219 "/><path style=" stroke:none;fill-rule:nonzero;fill:#45b83a;fill-opacity:1;" d="M 267.359375 78.675781 C 266.75 79.421875 265.945312 79.949219 265.144531 80.480469 C 259.359375 84.300781 253.578125 88.125 247.792969 91.964844 C 246.421875 92.867188 245.03125 93.789062 243.460938 94.296875 C 241.382812 94.964844 239.128906 94.847656 236.953125 94.730469 C 221.253906 93.808594 205.570312 92.417969 189.964844 90.554688 C 188.730469 90.398438 187.4375 90.222656 186.457031 89.457031 C 184.574219 87.96875 184.753906 85.125 185.105469 82.753906 C 185.183594 82.222656 185.261719 81.695312 185.535156 81.242188 C 185.554688 81.222656 185.554688 81.203125 185.574219 81.183594 C 185.96875 80.597656 186.613281 80.28125 187.242188 79.96875 C 192.457031 77.480469 197.691406 74.988281 202.902344 72.5 C 205.277344 71.363281 207.667969 70.226562 210.234375 69.738281 C 212.292969 69.34375 214.429688 69.363281 216.527344 69.382812 C 225.152344 69.5 233.757812 69.597656 242.382812 69.714844 C 250.519531 69.816406 258.417969 69.617188 266.320312 69.34375 C 266.574219 69.324219 266.847656 69.324219 267.105469 69.382812 C 267.261719 69.421875 267.417969 69.480469 267.554688 69.558594 C 267.984375 69.855469 268.101562 70.421875 268.203125 70.953125 C 268.691406 73.558594 269.0625 76.597656 267.359375 78.675781 Z M 267.359375 78.675781 "/><path style=" stroke:none;fill-rule:nonzero;fill:#0c7b3b;fill-opacity:1;" d="M 267.359375 78.675781 C 266.75 79.421875 265.945312 79.949219 265.144531 80.480469 C 259.359375 84.300781 253.578125 88.125 247.792969 91.964844 C 246.421875 92.867188 245.03125 93.789062 243.460938 94.296875 C 241.382812 94.964844 239.128906 94.847656 236.953125 94.730469 C 221.253906 93.808594 205.570312 92.417969 189.964844 90.554688 C 188.730469 90.398438 187.4375 90.222656 186.457031 89.457031 C 184.574219 87.96875 184.753906 85.125 185.105469 82.753906 C 185.183594 82.222656 185.261719 81.695312 185.535156 81.242188 C 201.21875 82.578125 219.097656 84.300781 234.347656 85.183594 C 236.816406 85.320312 239.328125 85.457031 241.738281 84.890625 C 244.699219 84.203125 247.304688 82.476562 249.832031 80.8125 C 255.597656 77.007812 261.359375 73.1875 267.125 69.382812 C 267.28125 69.421875 267.4375 69.480469 267.574219 69.558594 C 268.003906 69.855469 268.121094 70.421875 268.222656 70.953125 C 268.691406 73.558594 269.0625 76.597656 267.359375 78.675781 Z M 267.359375 78.675781 "/><path style=" stroke:none;fill-rule:nonzero;fill:#0c7b3b;fill-opacity:1;" d="M 225.976562 46.839844 C 223.132812 46.839844 220.273438 46.742188 217.449219 46.410156 C 213.648438 45.957031 211.292969 44.742188 210.253906 42.664062 C 209.492188 41.117188 209.609375 39.371094 209.804688 37.707031 C 210.351562 32.921875 211.371094 28.160156 212.824219 23.550781 C 212.882812 23.335938 213.117188 23.21875 213.332031 23.277344 C 213.546875 23.335938 213.667969 23.570312 213.605469 23.789062 C 212.175781 28.335938 211.175781 33.039062 210.628906 37.785156 C 210.453125 39.3125 210.332031 40.941406 211 42.273438 C 211.902344 44.078125 214.039062 45.15625 217.546875 45.566406 C 221.996094 46.09375 226.566406 45.996094 230.996094 45.917969 C 242.285156 45.703125 253.597656 45.488281 264.886719 45.273438 C 265.125 45.253906 265.300781 45.449219 265.300781 45.683594 C 265.300781 45.917969 265.125 46.09375 264.886719 46.09375 C 253.597656 46.3125 242.285156 46.527344 230.996094 46.742188 C 229.347656 46.800781 227.664062 46.839844 225.976562 46.839844 Z M 225.976562 46.839844 "/><path style=" stroke:none;fill-rule:nonzero;fill:#0c7b3b;fill-opacity:1;" d="M 239.050781 95.515625 C 238.011719 95.515625 236.972656 95.417969 235.953125 95.316406 L 191.023438 91.242188 C 189.066406 91.0625 187.027344 90.769531 185.710938 89.378906 C 184.144531 87.691406 184.28125 85.125 184.515625 83.320312 C 184.554688 83.085938 184.753906 82.929688 184.988281 82.96875 C 185.222656 83.007812 185.378906 83.203125 185.339844 83.4375 C 185.125 85.066406 184.988281 87.378906 186.320312 88.808594 C 187.4375 90.003906 189.222656 90.261719 191.101562 90.417969 L 236.03125 94.496094 C 237.71875 94.652344 239.484375 94.808594 241.167969 94.515625 C 243.816406 94.042969 246.207031 92.476562 248.304688 91.0625 L 263.988281 80.695312 C 264.183594 80.578125 264.4375 80.617188 264.554688 80.8125 C 264.671875 81.007812 264.632812 81.261719 264.4375 81.378906 L 248.753906 91.75 C 246.578125 93.199219 244.109375 94.828125 241.304688 95.316406 C 240.542969 95.457031 239.796875 95.515625 239.050781 95.515625 Z M 239.050781 95.515625 "/></g></svg>