<svg xmlns="http://www.w3.org/2000/svg" xmlns:xlink="http://www.w3.org/1999/xlink" width="600" zoomAndPan="magnify" viewBox="0 0 450 149.999998" height="200" preserveAspectRatio="xMidYMid meet" version="1.2"><defs><clipPath id="f41f0808fd"><path d="M 168 1.5 L 287 1.5 L 287 43 L 168 43 Z M 168 1.5 "/></clipPath><clipPath id="8f70c85b25"><path d="M 168 1.5 L 287 1.5 L 287 43.5 L 168 43.5 Z M 168 1.5 "/></clipPath><clipPath id="995d0d2f6b"><path d="M 168 46.515625 L 287 46.515625 L 287 88 L 168 88 Z M 168 46.515625 "/></clipPath><clipPath id="29cf252263"><path d="M 168 46.515625 L 287 46.515625 L 287 88.515625 L 168 88.515625 Z M 168 46.515625 "/></clipPath><clipPath id="1280116e23"><path d="M 251.214844 59.992188 L 260.964844 59.992188 L 260.964844 72 L 251.214844 72 Z M 251.214844 59.992188 "/></clipPath><clipPath id="e6df7bfcce"><path d="M 254 72 L 258 72 L 258 75.742188 L 254 75.742188 Z M 254 72 "/></clipPath><clipPath id="a41214c991"><path d="M 110.898438 99.34375 L 347.898438 99.34375 L 347.898438 132 L 110.898438 132 Z M 110.898438 99.34375 "/></clipPath><clipPath id="a909859444"><path d="M 110.898438 99.34375 L 347.898438 99.34375 L 347.898438 132.34375 L 110.898438 132.34375 Z M 110.898438 99.34375 "/></clipPath><clipPath id="bf8ba40f21"><path d="M 110.898438 134.511719 L 347.898438 134.511719 L 347.898438 148 L 110.898438 148 Z M 110.898438 134.511719 "/></clipPath><clipPath id="69111bc274"><path d="M 187.941406 57.25 L 208.191406 57.25 L 208.191406 77.5 L 187.941406 77.5 Z M 187.941406 57.25 "/></clipPath><clipPath id="219df91840"><path d="M 187.941406 12.234375 L 208.191406 12.234375 L 208.191406 32.484375 L 187.941406 32.484375 Z M 187.941406 12.234375 "/></clipPath><clipPath id="55d1cf28de"><path d="M 235.542969 105.703125 L 255.792969 105.703125 L 255.792969 125.953125 L 235.542969 125.953125 Z M 235.542969 105.703125 "/></clipPath><clipPath id="78a901d578"><path d="M 260.308594 105.703125 L 280.558594 105.703125 L 280.558594 125.953125 L 260.308594 125.953125 Z M 260.308594 105.703125 "/></clipPath><clipPath id="c75da8ba35"><path d="M 236.648438 13.296875 L 254.058594 13.296875 L 254.058594 31.355469 L 236.648438 31.355469 Z M 236.648438 13.296875 "/></clipPath><clipPath id="8c7b5bc02f"><path d="M 261.414062 13.296875 L 278.824219 13.296875 L 278.824219 31.355469 L 261.414062 31.355469 Z M 261.414062 13.296875 "/></clipPath><clipPath id="498a416f52"><path d="M 120.019531 107.824219 L 137.429688 107.824219 L 137.429688 125.882812 L 120.019531 125.882812 Z M 120.019531 107.824219 "/></clipPath><clipPath id="7670fbd26f"><path d="M 144.785156 107.824219 L 162.195312 107.824219 L 162.195312 125.882812 L 144.785156 125.882812 Z M 144.785156 107.824219 "/></clipPath><clipPath id="04d976b433"><path d="M 177.222656 106.761719 L 197.472656 106.761719 L 197.472656 127 L 177.222656 127 Z M 177.222656 106.761719 "/></clipPath><clipPath id="13e186f7d5"><path d="M 201.988281 106.761719 L 222.238281 106.761719 L 222.238281 127 L 201.988281 127 Z M 201.988281 106.761719 "/></clipPath><clipPath id="2172e5ea69"><path d="M 296.929688 107.824219 L 314.339844 107.824219 L 314.339844 125.882812 L 296.929688 125.882812 Z M 296.929688 107.824219 "/></clipPath><clipPath id="3c8642ede1"><path d="M 321.691406 107.824219 L 339.105469 107.824219 L 339.105469 125.882812 L 321.691406 125.882812 Z M 321.691406 107.824219 "/></clipPath></defs><g id="a79b7a927b"><rect x="0" width="450" y="0" height="149.999998" style="fill:#ffffff;fill-opacity:1;stroke:none;"/><rect x="0" width="450" y="0" height="149.999998" style="fill:#ffffff;fill-opacity:1;stroke:none;"/><g clip-rule="nonzero" clip-path="url(#f41f0808fd)"><path style=" stroke:none;fill-rule:nonzero;fill:#000000;fill-opacity:1;" d="M 168.203125 1.910156 L 168.203125 42.742188 M 227.660156 1.910156 L 227.660156 42.742188 M 286.296875 1.910156 L 286.296875 42.742188 M 168 1.703125 L 286.5 1.703125 M 168 42.945312 L 286.5 42.945312 "/></g><g clip-rule="nonzero" clip-path="url(#8f70c85b25)"><path style="fill:none;stroke-width:0.545523;stroke-linecap:butt;stroke-linejoin:miter;stroke:#000000;stroke-opacity:1;stroke-miterlimit:4;" d="M 0.271993 0.546872 L 0.271993 54.989584 M 79.54804 0.546872 L 79.54804 54.989584 M 157.730336 0.546872 L 157.730336 54.989584 M 0.00116007 0.270831 L 158.001169 0.270831 M 0.00116007 55.260417 L 158.001169 55.260417 " transform="matrix(0.75,0,0,0.75,167.99913,1.500002)"/></g><g clip-rule="nonzero" clip-path="url(#995d0d2f6b)"><path style=" stroke:none;fill-rule:nonzero;fill:#000000;fill-opacity:1;" d="M 168.203125 46.925781 L 168.203125 87.757812 M 227.660156 46.925781 L 227.660156 87.757812 M 286.296875 46.925781 L 286.296875 87.757812 M 168 46.722656 L 286.5 46.722656 M 168 87.960938 L 286.5 87.960938 "/></g><g clip-rule="nonzero" clip-path="url(#29cf252263)"><path style="fill:none;stroke-width:0.545523;stroke-linecap:butt;stroke-linejoin:miter;stroke:#000000;stroke-opacity:1;stroke-miterlimit:4;" d="M 0.271993 0.545991 L 0.271993 54.988702 M 79.54804 0.545991 L 79.54804 54.988702 M 157.730336 0.545991 L 157.730336 54.988702 M 0.00116007 0.275158 L 158.001169 0.275158 M 0.00116007 55.259536 L 158.001169 55.259536 " transform="matrix(0.75,0,0,0.75,167.99913,46.516288)"/></g><g clip-rule="nonzero" clip-path="url(#1280116e23)"><path style=" stroke:none;fill-rule:nonzero;fill:#000000;fill-opacity:1;" d="M 260.320312 61.820312 C 259.902344 61.230469 259.324219 60.773438 258.585938 60.464844 C 257.851562 60.152344 257.003906 59.992188 256.042969 59.992188 C 255.171875 59.992188 254.375 60.148438 253.652344 60.457031 C 252.929688 60.761719 252.351562 61.230469 251.910156 61.851562 C 251.5625 62.347656 251.347656 62.945312 251.257812 63.648438 C 251.21875 63.953125 251.464844 64.222656 251.773438 64.222656 L 253.707031 64.222656 C 253.953125 64.222656 254.164062 64.050781 254.21875 63.8125 C 254.265625 63.597656 254.34375 63.40625 254.457031 63.242188 C 254.632812 62.976562 254.863281 62.777344 255.140625 62.640625 C 255.421875 62.503906 255.71875 62.433594 256.03125 62.433594 C 256.355469 62.433594 256.648438 62.5 256.917969 62.636719 C 257.183594 62.769531 257.398438 62.960938 257.554688 63.210938 C 257.714844 63.460938 257.792969 63.746094 257.792969 64.078125 C 257.792969 64.386719 257.726562 64.667969 257.585938 64.917969 C 257.445312 65.167969 257.257812 65.394531 257.023438 65.601562 C 256.785156 65.808594 256.519531 66.003906 256.222656 66.195312 C 255.820312 66.445312 255.480469 66.722656 255.195312 67.027344 C 254.910156 67.332031 254.699219 67.734375 254.546875 68.230469 C 254.402344 68.730469 254.324219 69.394531 254.324219 70.226562 L 254.324219 70.644531 C 254.324219 70.925781 254.554688 71.160156 254.84375 71.160156 L 256.542969 71.160156 C 256.828125 71.160156 257.0625 70.929688 257.0625 70.644531 L 257.0625 70.226562 C 257.070312 69.757812 257.128906 69.367188 257.25 69.046875 C 257.367188 68.730469 257.546875 68.445312 257.789062 68.203125 C 258.03125 67.960938 258.34375 67.726562 258.726562 67.5 C 259.179688 67.234375 259.570312 66.933594 259.902344 66.601562 C 260.234375 66.269531 260.496094 65.882812 260.683594 65.453125 C 260.867188 65.019531 260.960938 64.523438 260.960938 63.964844 C 260.953125 63.128906 260.738281 62.414062 260.320312 61.820312 Z M 260.320312 61.820312 "/></g><g clip-rule="nonzero" clip-path="url(#e6df7bfcce)"><path style=" stroke:none;fill-rule:nonzero;fill:#000000;fill-opacity:1;" d="M 255.746094 72.320312 C 255.261719 72.320312 254.851562 72.488281 254.511719 72.820312 C 254.171875 73.15625 254.003906 73.558594 254.011719 74.023438 C 254.003906 74.496094 254.171875 74.902344 254.511719 75.238281 C 254.851562 75.578125 255.261719 75.742188 255.746094 75.742188 C 256.054688 75.742188 256.339844 75.664062 256.597656 75.511719 C 256.859375 75.351562 257.066406 75.148438 257.230469 74.886719 C 257.390625 74.625 257.472656 74.339844 257.476562 74.023438 C 257.472656 73.554688 257.296875 73.15625 256.949219 72.820312 C 256.605469 72.488281 256.203125 72.320312 255.746094 72.320312 Z M 255.746094 72.320312 "/></g><g clip-rule="nonzero" clip-path="url(#a41214c991)"><path style=" stroke:none;fill-rule:nonzero;fill:#000000;fill-opacity:1;" d="M 111.222656 100 L 111.222656 131.585938 M 170.039062 100 L 170.039062 131.585938 M 228.070312 100 L 228.070312 131.585938 M 287.675781 100 L 287.675781 131.585938 M 347.277344 100 L 347.277344 131.585938 M 110.898438 99.671875 L 347.601562 99.671875 M 110.898438 131.914062 L 347.601562 131.914062 "/></g><g clip-rule="nonzero" clip-path="url(#a909859444)"><path style="fill:none;stroke-width:0.871773;stroke-linecap:butt;stroke-linejoin:miter;stroke:#000000;stroke-opacity:1;stroke-miterlimit:4;" d="M 0.43428 0.874238 L 0.43428 42.988823 M 78.85616 0.874238 L 78.85616 42.988823 M 156.231164 0.874238 L 156.231164 42.988823 M 235.705127 0.874238 L 235.705127 42.988823 M 315.173882 0.874238 L 315.173882 42.988823 M 0.00198856 0.436738 L 315.606174 0.436738 M 0.00198856 43.426323 L 315.606174 43.426323 " transform="matrix(0.75,0,0,0.75,110.896946,99.344322)"/></g><g clip-rule="nonzero" clip-path="url(#bf8ba40f21)"><path style="fill-rule:nonzero;fill:#000000;fill-opacity:1;stroke-width:0.871773;stroke-linecap:butt;stroke-linejoin:miter;stroke:#000000;stroke-opacity:1;stroke-miterlimit:4;" d="M 0.43428 0.871452 L 0.43428 17.001662 M 79.23116 0.871452 L 79.23116 17.001662 M 155.486373 0.871452 L 155.486373 17.001662 M 235.658252 0.871452 L 235.658252 17.001662 M 315.173882 0.871452 L 315.173882 17.001662 M 0.00198856 0.433952 L 315.606174 0.433952 M 0.00198856 17.433953 L 315.606174 17.433953 " transform="matrix(0.75,0,0,0.75,110.896946,134.510473)"/></g><g style="fill:#000000;fill-opacity:1;"><g transform="translate(197.404197, 143.417893)"><path style="stroke:none" d="M 0.28125 0 L 0.28125 -0.765625 L 1.421875 -1.84375 C 1.765625 -2.175781 2.035156 -2.476562 2.234375 -2.75 C 2.429688 -3.03125 2.566406 -3.316406 2.640625 -3.609375 C 2.722656 -3.898438 2.765625 -4.234375 2.765625 -4.609375 C 2.765625 -5.046875 2.710938 -5.363281 2.609375 -5.5625 C 2.503906 -5.757812 2.328125 -5.859375 2.078125 -5.859375 C 1.890625 -5.859375 1.742188 -5.800781 1.640625 -5.6875 C 1.546875 -5.570312 1.476562 -5.378906 1.4375 -5.109375 C 1.394531 -4.847656 1.375 -4.484375 1.375 -4.015625 C 1.0625 -4.015625 0.804688 -4.078125 0.609375 -4.203125 C 0.410156 -4.328125 0.3125 -4.523438 0.3125 -4.796875 C 0.3125 -5.117188 0.460938 -5.390625 0.765625 -5.609375 C 1.078125 -5.828125 1.53125 -5.9375 2.125 -5.9375 C 2.738281 -5.9375 3.203125 -5.816406 3.515625 -5.578125 C 3.835938 -5.335938 4 -5 4 -4.5625 C 4 -4.375 3.960938 -4.191406 3.890625 -4.015625 C 3.828125 -3.835938 3.707031 -3.644531 3.53125 -3.4375 C 3.351562 -3.226562 3.113281 -2.988281 2.8125 -2.71875 C 2.519531 -2.457031 2.144531 -2.148438 1.6875 -1.796875 L 0.546875 -0.90625 L 3.3125 -0.90625 C 3.570312 -0.90625 3.757812 -0.941406 3.875 -1.015625 C 4 -1.097656 4.070312 -1.25 4.09375 -1.46875 L 4.125 -1.71875 L 4.203125 -1.71875 L 4.15625 0 Z M 0.28125 0 "/></g></g><g style="fill:#000000;fill-opacity:1;"><g transform="translate(258.024188, 143.417893)"><path style="stroke:none" d="M 1.984375 0.078125 C 1.378906 0.078125 0.9375 -0.0195312 0.65625 -0.21875 C 0.375 -0.414062 0.234375 -0.644531 0.234375 -0.90625 C 0.234375 -1.113281 0.300781 -1.269531 0.4375 -1.375 C 0.570312 -1.488281 0.734375 -1.546875 0.921875 -1.546875 C 0.921875 -1.140625 0.960938 -0.828125 1.046875 -0.609375 C 1.140625 -0.390625 1.257812 -0.234375 1.40625 -0.140625 C 1.5625 -0.046875 1.738281 0 1.9375 0 C 2.289062 0 2.546875 -0.132812 2.703125 -0.40625 C 2.859375 -0.675781 2.9375 -1.066406 2.9375 -1.578125 C 2.9375 -1.941406 2.894531 -2.222656 2.8125 -2.421875 C 2.726562 -2.628906 2.585938 -2.773438 2.390625 -2.859375 C 2.191406 -2.941406 1.9375 -2.984375 1.625 -2.984375 L 1.171875 -2.984375 L 1.171875 -3.0625 L 1.625 -3.0625 C 1.914062 -3.0625 2.140625 -3.109375 2.296875 -3.203125 C 2.460938 -3.296875 2.578125 -3.445312 2.640625 -3.65625 C 2.710938 -3.863281 2.75 -4.140625 2.75 -4.484375 C 2.75 -4.984375 2.6875 -5.335938 2.5625 -5.546875 C 2.445312 -5.753906 2.28125 -5.859375 2.0625 -5.859375 C 1.769531 -5.859375 1.578125 -5.707031 1.484375 -5.40625 C 1.398438 -5.113281 1.359375 -4.703125 1.359375 -4.171875 C 1.023438 -4.171875 0.765625 -4.226562 0.578125 -4.34375 C 0.390625 -4.457031 0.296875 -4.640625 0.296875 -4.890625 C 0.296875 -5.179688 0.445312 -5.425781 0.75 -5.625 C 1.0625 -5.832031 1.515625 -5.9375 2.109375 -5.9375 C 2.691406 -5.9375 3.148438 -5.816406 3.484375 -5.578125 C 3.828125 -5.347656 4 -5.007812 4 -4.5625 C 4 -4.332031 3.941406 -4.109375 3.828125 -3.890625 C 3.710938 -3.671875 3.519531 -3.484375 3.25 -3.328125 C 2.988281 -3.179688 2.628906 -3.085938 2.171875 -3.046875 C 2.828125 -3.046875 3.328125 -2.921875 3.671875 -2.671875 C 4.023438 -2.429688 4.203125 -2.0625 4.203125 -1.5625 C 4.203125 -1.164062 4.097656 -0.847656 3.890625 -0.609375 C 3.679688 -0.367188 3.40625 -0.191406 3.0625 -0.078125 C 2.726562 0.0234375 2.367188 0.078125 1.984375 0.078125 Z M 1.984375 0.078125 "/></g></g><g style="fill:#000000;fill-opacity:1;"><g transform="translate(136.522877, 143.417893)"><path style="stroke:none" d="M 0.796875 0 L 0.796875 -0.078125 L 1.46875 -0.078125 C 1.601562 -0.078125 1.703125 -0.113281 1.765625 -0.1875 C 1.835938 -0.269531 1.875 -0.410156 1.875 -0.609375 L 1.875 -5.21875 C 1.625 -4.863281 1.425781 -4.609375 1.28125 -4.453125 C 1.132812 -4.296875 0.988281 -4.21875 0.84375 -4.21875 C 0.695312 -4.21875 0.578125 -4.257812 0.484375 -4.34375 C 0.390625 -4.4375 0.34375 -4.578125 0.34375 -4.765625 C 0.613281 -4.773438 0.835938 -4.800781 1.015625 -4.84375 C 1.203125 -4.882812 1.375 -4.960938 1.53125 -5.078125 C 1.695312 -5.191406 1.894531 -5.363281 2.125 -5.59375 L 2.421875 -5.890625 L 3.09375 -5.890625 L 3.09375 -0.609375 C 3.09375 -0.441406 3.117188 -0.3125 3.171875 -0.21875 C 3.234375 -0.125 3.347656 -0.078125 3.515625 -0.078125 L 4.1875 -0.078125 L 4.1875 0 Z M 0.796875 0 "/></g></g><g style="fill:#000000;fill-opacity:1;"><g transform="translate(315.723969, 143.991176)"><path style="stroke:none" d="M 1.46875 0 L 1.46875 -0.078125 L 1.703125 -0.078125 C 1.890625 -0.078125 2.046875 -0.109375 2.171875 -0.171875 C 2.304688 -0.242188 2.375 -0.410156 2.375 -0.671875 L 2.375 -1.53125 L 0.109375 -1.53125 L 0.109375 -2.03125 L 2.4375 -5.859375 L 3.578125 -5.859375 L 3.578125 -2.0625 L 4.421875 -2.0625 L 4.421875 -1.53125 L 3.578125 -1.53125 L 3.578125 -0.671875 C 3.578125 -0.410156 3.640625 -0.242188 3.765625 -0.171875 C 3.898438 -0.109375 4.0625 -0.078125 4.25 -0.078125 L 4.359375 -0.078125 L 4.359375 0 Z M 0.234375 -2.0625 L 2.375 -2.0625 L 2.375 -3.875 C 2.375 -4.175781 2.375 -4.488281 2.375 -4.8125 C 2.375 -5.132812 2.378906 -5.414062 2.390625 -5.65625 C 2.359375 -5.601562 2.304688 -5.519531 2.234375 -5.40625 C 2.171875 -5.289062 2.097656 -5.164062 2.015625 -5.03125 C 1.941406 -4.894531 1.867188 -4.769531 1.796875 -4.65625 C 1.722656 -4.539062 1.664062 -4.445312 1.625 -4.375 Z M 0.234375 -2.0625 "/></g></g><g clip-rule="nonzero" clip-path="url(#69111bc274)"><path style=" stroke:none;fill-rule:nonzero;fill:#061bb0;fill-opacity:1;" d="M 198.03125 77.429688 C 192.480469 77.429688 187.941406 72.890625 187.941406 67.339844 C 187.941406 61.792969 192.480469 57.25 198.03125 57.25 C 203.578125 57.25 208.121094 61.792969 208.121094 67.339844 C 208.121094 72.890625 203.578125 77.429688 198.03125 77.429688 Z M 198.03125 77.429688 "/></g><g clip-rule="nonzero" clip-path="url(#219df91840)"><path style=" stroke:none;fill-rule:nonzero;fill:#ff3131;fill-opacity:1;" d="M 198.03125 32.414062 C 192.480469 32.414062 187.941406 27.875 187.941406 22.324219 C 187.941406 16.777344 192.480469 12.234375 198.03125 12.234375 C 203.578125 12.234375 208.121094 16.777344 208.121094 22.324219 C 208.121094 27.875 203.578125 32.414062 198.03125 32.414062 Z M 198.03125 32.414062 "/></g><g clip-rule="nonzero" clip-path="url(#55d1cf28de)"><path style=" stroke:none;fill-rule:nonzero;fill:#061bb0;fill-opacity:1;" d="M 245.632812 125.882812 C 240.085938 125.882812 235.542969 121.339844 235.542969 115.792969 C 235.542969 110.242188 240.085938 105.703125 245.632812 105.703125 C 251.183594 105.703125 255.722656 110.242188 255.722656 115.792969 C 255.722656 121.339844 251.183594 125.882812 245.632812 125.882812 Z M 245.632812 125.882812 "/></g><g clip-rule="nonzero" clip-path="url(#78a901d578)"><path style=" stroke:none;fill-rule:nonzero;fill:#061bb0;fill-opacity:1;" d="M 270.398438 125.882812 C 264.851562 125.882812 260.308594 121.339844 260.308594 115.792969 C 260.308594 110.242188 264.851562 105.703125 270.398438 105.703125 C 275.949219 105.703125 280.488281 110.242188 280.488281 115.792969 C 280.488281 121.339844 275.949219 125.882812 270.398438 125.882812 Z M 270.398438 125.882812 "/></g><g clip-rule="nonzero" clip-path="url(#c75da8ba35)"><path style=" stroke:none;fill-rule:nonzero;fill:#ff3131;fill-opacity:1;" d="M 236.648438 13.296875 L 254.058594 13.296875 L 254.058594 31.320312 L 236.648438 31.320312 Z M 236.648438 13.296875 "/></g><g clip-rule="nonzero" clip-path="url(#8c7b5bc02f)"><path style=" stroke:none;fill-rule:nonzero;fill:#ff3131;fill-opacity:1;" d="M 261.414062 13.296875 L 278.824219 13.296875 L 278.824219 31.320312 L 261.414062 31.320312 Z M 261.414062 13.296875 "/></g><g clip-rule="nonzero" clip-path="url(#498a416f52)"><path style=" stroke:none;fill-rule:nonzero;fill:#061bb0;fill-opacity:1;" d="M 120.019531 107.824219 L 137.429688 107.824219 L 137.429688 125.847656 L 120.019531 125.847656 Z M 120.019531 107.824219 "/></g><g clip-rule="nonzero" clip-path="url(#7670fbd26f)"><path style=" stroke:none;fill-rule:nonzero;fill:#061bb0;fill-opacity:1;" d="M 144.785156 107.824219 L 162.195312 107.824219 L 162.195312 125.847656 L 144.785156 125.847656 Z M 144.785156 107.824219 "/></g><g clip-rule="nonzero" clip-path="url(#04d976b433)"><path style=" stroke:none;fill-rule:nonzero;fill:#ff3131;fill-opacity:1;" d="M 187.3125 126.941406 C 181.765625 126.941406 177.222656 122.402344 177.222656 116.851562 C 177.222656 111.304688 181.765625 106.761719 187.3125 106.761719 C 192.863281 106.761719 197.402344 111.304688 197.402344 116.851562 C 197.402344 122.402344 192.863281 126.941406 187.3125 126.941406 Z M 187.3125 126.941406 "/></g><g clip-rule="nonzero" clip-path="url(#13e186f7d5)"><path style=" stroke:none;fill-rule:nonzero;fill:#ff3131;fill-opacity:1;" d="M 212.078125 126.941406 C 206.527344 126.941406 201.988281 122.402344 201.988281 116.851562 C 201.988281 111.304688 206.527344 106.761719 212.078125 106.761719 C 217.628906 106.761719 222.167969 111.304688 222.167969 116.851562 C 222.167969 122.402344 217.628906 126.941406 212.078125 126.941406 Z M 212.078125 126.941406 "/></g><g clip-rule="nonzero" clip-path="url(#2172e5ea69)"><path style=" stroke:none;fill-rule:nonzero;fill:#ff3131;fill-opacity:1;" d="M 296.929688 107.824219 L 314.339844 107.824219 L 314.339844 125.847656 L 296.929688 125.847656 Z M 296.929688 107.824219 "/></g><g clip-rule="nonzero" clip-path="url(#3c8642ede1)"><path style=" stroke:none;fill-rule:nonzero;fill:#ff3131;fill-opacity:1;" d="M 321.691406 107.824219 L 339.105469 107.824219 L 339.105469 125.847656 L 321.691406 125.847656 Z M 321.691406 107.824219 "/></g></g></svg>