<svg xmlns="http://www.w3.org/2000/svg" xmlns:xlink="http://www.w3.org/1999/xlink" width="600" zoomAndPan="magnify" viewBox="0 0 450 149.999998" height="200" preserveAspectRatio="xMidYMid meet" version="1.2"><defs/><g id="c67819daa4"><rect x="0" width="450" y="0" height="149.999998" style="fill:#ffffff;fill-opacity:1;stroke:none;"/><rect x="0" width="450" y="0" height="149.999998" style="fill:#ffffff;fill-opacity:1;stroke:none;"/><path style="fill-rule:nonzero;fill:#000000;fill-opacity:1;stroke-width:1;stroke-linecap:butt;stroke-linejoin:miter;stroke:#0c7b3b;stroke-opacity:1;stroke-miterlimit:4;" d="M 0.499995 0.999997 L 0.499995 199.000009 M 599.50003 0.999997 L 599.50003 199.000009 M -0.000005 0.499997 L 600.00003 0.499997 M -0.000005 199.500009 L 600.00003 199.500009 " transform="matrix(0.75,0,0,0.75,0.00000375,0.000002)"/><g style="fill:#0c7b3b;fill-opacity:1;"><g transform="translate(163.24328, 105.862426)"><path style="stroke:none" d="M 22.023438 -65.878906 C 17.160156 -65.878906 11.441406 -64.925781 7.152344 -63.019531 L 7.152344 -51.578125 C 12.203125 -54.152344 15.539062 -55.011719 19.355469 -55.011719 C 24.214844 -55.011719 28.410156 -51.863281 28.410156 -47.382812 C 28.410156 -43.664062 25.167969 -39.949219 19.449219 -39.46875 L 19.449219 -28.03125 C 26.125 -27.363281 29.460938 -23.644531 29.460938 -18.972656 C 29.460938 -14.207031 25.359375 -10.488281 19.832031 -10.488281 C 14.96875 -10.488281 10.011719 -12.203125 5.53125 -15.445312 L 5.53125 -2.859375 C 10.105469 -0.382812 16.304688 0.859375 21.832031 0.859375 C 34.226562 0.859375 44.617188 -5.625 44.617188 -18.113281 C 44.617188 -26.789062 40.613281 -31.84375 33.179688 -34.894531 C 39.183594 -37.753906 42.808594 -43.855469 42.808594 -49.957031 C 42.808594 -59.683594 34.035156 -65.878906 22.023438 -65.878906 Z M 22.023438 -65.878906 "/></g></g><g style="fill:#0c7b3b;fill-opacity:1;"><g transform="translate(215.870686, 105.862426)"><path style="stroke:none" d="M 24.3125 -65.878906 L 13.0625 -47.667969 C 6.292969 -36.707031 4.195312 -29.746094 4.195312 -21.929688 C 4.195312 -7.054688 14.492188 0.859375 26.027344 0.859375 C 38.328125 0.859375 47.289062 -8.867188 47.289062 -21.546875 C 47.289062 -32.605469 39.660156 -41.855469 29.078125 -41.855469 C 27.933594 -41.855469 27.171875 -41.757812 25.265625 -41.28125 L 40.328125 -65.878906 Z M 18.878906 -20.6875 C 18.878906 -26.980469 21.738281 -30.507812 25.835938 -30.507812 C 30.605469 -30.507812 33.273438 -26.21875 33.273438 -20.976562 C 33.273438 -15.539062 30.699219 -11.25 26.027344 -11.25 C 21.546875 -11.25 18.878906 -14.777344 18.878906 -20.6875 Z M 18.878906 -20.6875 "/></g></g></g></svg>