<svg xmlns="http://www.w3.org/2000/svg" xmlns:xlink="http://www.w3.org/1999/xlink" width="600" zoomAndPan="magnify" viewBox="0 0 450 149.999998" height="200" preserveAspectRatio="xMidYMid meet" version="1.2"><defs><clipPath id="d42df91c72"><path d="M 168.164062 1.425781 L 287 1.425781 L 287 43 L 168.164062 43 Z M 168.164062 1.425781 "/></clipPath><clipPath id="43377c6e53"><path d="M 168.164062 1.425781 L 287 1.425781 L 287 43.425781 L 168.164062 43.425781 Z M 168.164062 1.425781 "/></clipPath><clipPath id="bd00e06864"><path d="M 168.164062 46.441406 L 287 46.441406 L 287 88 L 168.164062 88 Z M 168.164062 46.441406 "/></clipPath><clipPath id="8169135b52"><path d="M 168.164062 46.441406 L 287 46.441406 L 287 88.441406 L 168.164062 88.441406 Z M 168.164062 46.441406 "/></clipPath><clipPath id="88a5bcd43f"><path d="M 251.460938 61.324219 L 261.210938 61.324219 L 261.210938 73 L 251.460938 73 Z M 251.460938 61.324219 "/></clipPath><clipPath id="599ba2bf9c"><path d="M 254 73 L 258 73 L 258 77.074219 L 254 77.074219 Z M 254 73 "/></clipPath><clipPath id="fcc083bba8"><path d="M 110.898438 99.34375 L 347.898438 99.34375 L 347.898438 132 L 110.898438 132 Z M 110.898438 99.34375 "/></clipPath><clipPath id="337d8540ed"><path d="M 110.898438 99.34375 L 347.898438 99.34375 L 347.898438 132.34375 L 110.898438 132.34375 Z M 110.898438 99.34375 "/></clipPath><clipPath id="f1f2d76776"><path d="M 110.898438 134.511719 L 347.898438 134.511719 L 347.898438 148 L 110.898438 148 Z M 110.898438 134.511719 "/></clipPath><clipPath id="4b3f13a7bf"><path d="M 188.105469 57.179688 L 208.355469 57.179688 L 208.355469 77.429688 L 188.105469 77.429688 Z M 188.105469 57.179688 "/></clipPath><clipPath id="8f9f5972c2"><path d="M 188.105469 12.164062 L 208.355469 12.164062 L 208.355469 32.414062 L 188.105469 32.414062 Z M 188.105469 12.164062 "/></clipPath><clipPath id="d5bc4c64a9"><path d="M 118.636719 105.703125 L 138.886719 105.703125 L 138.886719 125.953125 L 118.636719 125.953125 Z M 118.636719 105.703125 "/></clipPath><clipPath id="e3bd03ecea"><path d="M 143.398438 105.703125 L 163.648438 105.703125 L 163.648438 125.953125 L 143.398438 125.953125 Z M 143.398438 105.703125 "/></clipPath><clipPath id="49bb6729d6"><path d="M 236.8125 13.222656 L 254.226562 13.222656 L 254.226562 31.28125 L 236.8125 31.28125 Z M 236.8125 13.222656 "/></clipPath><clipPath id="f271520cce"><path d="M 261.578125 13.222656 L 278.988281 13.222656 L 278.988281 31.28125 L 261.578125 31.28125 Z M 261.578125 13.222656 "/></clipPath><clipPath id="49f89135e6"><path d="M 178.609375 107.824219 L 196.019531 107.824219 L 196.019531 125.882812 L 178.609375 125.882812 Z M 178.609375 107.824219 "/></clipPath><clipPath id="08911241c9"><path d="M 203.375 107.824219 L 220.785156 107.824219 L 220.785156 125.882812 L 203.375 125.882812 Z M 203.375 107.824219 "/></clipPath><clipPath id="f5250f27e2"><path d="M 295.542969 106.761719 L 315.792969 106.761719 L 315.792969 127 L 295.542969 127 Z M 295.542969 106.761719 "/></clipPath><clipPath id="479f883bbb"><path d="M 320.308594 106.761719 L 340.558594 106.761719 L 340.558594 127 L 320.308594 127 Z M 320.308594 106.761719 "/></clipPath><clipPath id="046394d804"><path d="M 238.3125 107.824219 L 255.726562 107.824219 L 255.726562 125.882812 L 238.3125 125.882812 Z M 238.3125 107.824219 "/></clipPath><clipPath id="16a2668d20"><path d="M 263.078125 107.824219 L 280.488281 107.824219 L 280.488281 125.882812 L 263.078125 125.882812 Z M 263.078125 107.824219 "/></clipPath></defs><g id="6f4d11d059"><rect x="0" width="450" y="0" height="149.999998" style="fill:#ffffff;fill-opacity:1;stroke:none;"/><rect x="0" width="450" y="0" height="149.999998" style="fill:#ffffff;fill-opacity:1;stroke:none;"/><g clip-rule="nonzero" clip-path="url(#d42df91c72)"><path style=" stroke:none;fill-rule:nonzero;fill:#000000;fill-opacity:1;" d="M 168.371094 1.835938 L 168.371094 42.667969 M 227.828125 1.835938 L 227.828125 42.667969 M 286.460938 1.835938 L 286.460938 42.667969 M 168.164062 1.632812 L 286.667969 1.632812 M 168.164062 42.875 L 286.667969 42.875 "/></g><g clip-rule="nonzero" clip-path="url(#43377c6e53)"><path style="fill:none;stroke-width:0.545523;stroke-linecap:butt;stroke-linejoin:miter;stroke:#000000;stroke-opacity:1;stroke-miterlimit:4;" d="M 0.275033 0.545258 L 0.275033 54.987969 M 79.55108 0.545258 L 79.55108 54.987969 M 157.728168 0.545258 L 157.728168 54.987969 M -0.00100832 0.274425 L 158.004209 0.274425 M -0.00100832 55.264011 L 158.004209 55.264011 " transform="matrix(0.75,0,0,0.75,168.164819,1.426994)"/></g><g clip-rule="nonzero" clip-path="url(#bd00e06864)"><path style=" stroke:none;fill-rule:nonzero;fill:#000000;fill-opacity:1;" d="M 168.371094 46.851562 L 168.371094 87.683594 M 227.828125 46.851562 L 227.828125 87.683594 M 286.460938 46.851562 L 286.460938 87.683594 M 168.164062 46.648438 L 286.667969 46.648438 M 168.164062 87.890625 L 286.667969 87.890625 "/></g><g clip-rule="nonzero" clip-path="url(#8169135b52)"><path style="fill:none;stroke-width:0.545523;stroke-linecap:butt;stroke-linejoin:miter;stroke:#000000;stroke-opacity:1;stroke-miterlimit:4;" d="M 0.275033 0.544377 L 0.275033 54.987088 M 79.55108 0.544377 L 79.55108 54.987088 M 157.728168 0.544377 L 157.728168 54.987088 M -0.00100832 0.273543 L 158.004209 0.273543 M -0.00100832 55.26313 L 158.004209 55.26313 " transform="matrix(0.75,0,0,0.75,168.164819,46.44328)"/></g><g clip-rule="nonzero" clip-path="url(#88a5bcd43f)"><path style=" stroke:none;fill-rule:nonzero;fill:#000000;fill-opacity:1;" d="M 260.570312 63.152344 C 260.152344 62.558594 259.574219 62.105469 258.835938 61.796875 C 258.101562 61.484375 257.25 61.324219 256.292969 61.324219 C 255.417969 61.324219 254.621094 61.480469 253.898438 61.789062 C 253.175781 62.09375 252.59375 62.5625 252.15625 63.183594 C 251.804688 63.679688 251.589844 64.277344 251.5 64.980469 C 251.460938 65.285156 251.707031 65.554688 252.019531 65.554688 L 253.953125 65.554688 C 254.199219 65.554688 254.410156 65.382812 254.464844 65.144531 C 254.511719 64.929688 254.589844 64.738281 254.703125 64.574219 C 254.878906 64.308594 255.109375 64.105469 255.390625 63.972656 C 255.667969 63.835938 255.964844 63.765625 256.277344 63.765625 C 256.601562 63.765625 256.894531 63.832031 257.164062 63.96875 C 257.433594 64.101562 257.644531 64.292969 257.804688 64.542969 C 257.964844 64.789062 258.042969 65.078125 258.042969 65.40625 C 258.042969 65.71875 257.972656 66 257.832031 66.25 C 257.695312 66.496094 257.507812 66.726562 257.269531 66.933594 C 257.03125 67.140625 256.769531 67.335938 256.46875 67.527344 C 256.070312 67.777344 255.726562 68.054688 255.441406 68.359375 C 255.15625 68.664062 254.945312 69.0625 254.792969 69.5625 C 254.648438 70.058594 254.570312 70.722656 254.570312 71.558594 L 254.570312 71.972656 C 254.570312 72.257812 254.800781 72.492188 255.089844 72.492188 L 256.789062 72.492188 C 257.078125 72.492188 257.3125 72.261719 257.3125 71.972656 L 257.3125 71.558594 C 257.320312 71.089844 257.378906 70.695312 257.496094 70.378906 C 257.613281 70.058594 257.796875 69.777344 258.035156 69.535156 C 258.28125 69.289062 258.59375 69.058594 258.976562 68.832031 C 259.429688 68.5625 259.820312 68.265625 260.152344 67.929688 C 260.484375 67.597656 260.746094 67.214844 260.933594 66.785156 C 261.117188 66.351562 261.210938 65.855469 261.210938 65.296875 C 261.203125 64.460938 260.988281 63.746094 260.570312 63.152344 Z M 260.570312 63.152344 "/></g><g clip-rule="nonzero" clip-path="url(#599ba2bf9c)"><path style=" stroke:none;fill-rule:nonzero;fill:#000000;fill-opacity:1;" d="M 255.992188 73.648438 C 255.507812 73.648438 255.097656 73.816406 254.757812 74.152344 C 254.417969 74.484375 254.25 74.886719 254.257812 75.355469 C 254.25 75.824219 254.417969 76.230469 254.757812 76.570312 C 255.097656 76.90625 255.507812 77.074219 255.992188 77.074219 C 256.300781 77.074219 256.585938 76.996094 256.84375 76.839844 C 257.105469 76.683594 257.316406 76.476562 257.476562 76.214844 C 257.640625 75.957031 257.722656 75.667969 257.726562 75.355469 C 257.71875 74.882812 257.542969 74.484375 257.199219 74.152344 C 256.855469 73.816406 256.449219 73.648438 255.992188 73.648438 Z M 255.992188 73.648438 "/></g><g clip-rule="nonzero" clip-path="url(#fcc083bba8)"><path style=" stroke:none;fill-rule:nonzero;fill:#000000;fill-opacity:1;" d="M 111.222656 100 L 111.222656 131.585938 M 170.039062 100 L 170.039062 131.585938 M 228.070312 100 L 228.070312 131.585938 M 287.675781 100 L 287.675781 131.585938 M 347.277344 100 L 347.277344 131.585938 M 110.898438 99.671875 L 347.601562 99.671875 M 110.898438 131.914062 L 347.601562 131.914062 "/></g><g clip-rule="nonzero" clip-path="url(#337d8540ed)"><path style="fill:none;stroke-width:0.871773;stroke-linecap:butt;stroke-linejoin:miter;stroke:#000000;stroke-opacity:1;stroke-miterlimit:4;" d="M 0.43428 0.874199 L 0.43428 42.988785 M 78.85616 0.874199 L 78.85616 42.988785 M 156.231164 0.874199 L 156.231164 42.988785 M 235.705127 0.874199 L 235.705127 42.988785 M 315.173882 0.874199 L 315.173882 42.988785 M 0.00198856 0.436699 L 315.606174 0.436699 M 0.00198856 43.426285 L 315.606174 43.426285 " transform="matrix(0.75,0,0,0.75,110.896946,99.344351)"/></g><g clip-rule="nonzero" clip-path="url(#f1f2d76776)"><path style="fill-rule:nonzero;fill:#000000;fill-opacity:1;stroke-width:0.871773;stroke-linecap:butt;stroke-linejoin:miter;stroke:#000000;stroke-opacity:1;stroke-miterlimit:4;" d="M 0.43428 0.871491 L 0.43428 17.0017 M 79.23116 0.871491 L 79.23116 17.0017 M 155.486373 0.871491 L 155.486373 17.0017 M 235.658252 0.871491 L 235.658252 17.0017 M 315.173882 0.871491 L 315.173882 17.0017 M 0.00198856 0.433991 L 315.606174 0.433991 M 0.00198856 17.433992 L 315.606174 17.433992 " transform="matrix(0.75,0,0,0.75,110.896946,134.510445)"/></g><g style="fill:#000000;fill-opacity:1;"><g transform="translate(197.404197, 143.417864)"><path style="stroke:none" d="M 0.28125 0 L 0.28125 -0.765625 L 1.421875 -1.84375 C 1.765625 -2.175781 2.035156 -2.476562 2.234375 -2.75 C 2.429688 -3.03125 2.566406 -3.316406 2.640625 -3.609375 C 2.722656 -3.898438 2.765625 -4.234375 2.765625 -4.609375 C 2.765625 -5.046875 2.710938 -5.363281 2.609375 -5.5625 C 2.503906 -5.757812 2.328125 -5.859375 2.078125 -5.859375 C 1.890625 -5.859375 1.742188 -5.800781 1.640625 -5.6875 C 1.546875 -5.570312 1.476562 -5.378906 1.4375 -5.109375 C 1.394531 -4.847656 1.375 -4.484375 1.375 -4.015625 C 1.0625 -4.015625 0.804688 -4.078125 0.609375 -4.203125 C 0.410156 -4.328125 0.3125 -4.523438 0.3125 -4.796875 C 0.3125 -5.117188 0.460938 -5.390625 0.765625 -5.609375 C 1.078125 -5.828125 1.53125 -5.9375 2.125 -5.9375 C 2.738281 -5.9375 3.203125 -5.816406 3.515625 -5.578125 C 3.835938 -5.335938 4 -5 4 -4.5625 C 4 -4.375 3.960938 -4.191406 3.890625 -4.015625 C 3.828125 -3.835938 3.707031 -3.644531 3.53125 -3.4375 C 3.351562 -3.226562 3.113281 -2.988281 2.8125 -2.71875 C 2.519531 -2.457031 2.144531 -2.148438 1.6875 -1.796875 L 0.546875 -0.90625 L 3.3125 -0.90625 C 3.570312 -0.90625 3.757812 -0.941406 3.875 -1.015625 C 4 -1.097656 4.070312 -1.25 4.09375 -1.46875 L 4.125 -1.71875 L 4.203125 -1.71875 L 4.15625 0 Z M 0.28125 0 "/></g></g><g style="fill:#000000;fill-opacity:1;"><g transform="translate(258.024188, 143.417864)"><path style="stroke:none" d="M 1.984375 0.078125 C 1.378906 0.078125 0.9375 -0.0195312 0.65625 -0.21875 C 0.375 -0.414062 0.234375 -0.644531 0.234375 -0.90625 C 0.234375 -1.113281 0.300781 -1.269531 0.4375 -1.375 C 0.570312 -1.488281 0.734375 -1.546875 0.921875 -1.546875 C 0.921875 -1.140625 0.960938 -0.828125 1.046875 -0.609375 C 1.140625 -0.390625 1.257812 -0.234375 1.40625 -0.140625 C 1.5625 -0.046875 1.738281 0 1.9375 0 C 2.289062 0 2.546875 -0.132812 2.703125 -0.40625 C 2.859375 -0.675781 2.9375 -1.066406 2.9375 -1.578125 C 2.9375 -1.941406 2.894531 -2.222656 2.8125 -2.421875 C 2.726562 -2.628906 2.585938 -2.773438 2.390625 -2.859375 C 2.191406 -2.941406 1.9375 -2.984375 1.625 -2.984375 L 1.171875 -2.984375 L 1.171875 -3.0625 L 1.625 -3.0625 C 1.914062 -3.0625 2.140625 -3.109375 2.296875 -3.203125 C 2.460938 -3.296875 2.578125 -3.445312 2.640625 -3.65625 C 2.710938 -3.863281 2.75 -4.140625 2.75 -4.484375 C 2.75 -4.984375 2.6875 -5.335938 2.5625 -5.546875 C 2.445312 -5.753906 2.28125 -5.859375 2.0625 -5.859375 C 1.769531 -5.859375 1.578125 -5.707031 1.484375 -5.40625 C 1.398438 -5.113281 1.359375 -4.703125 1.359375 -4.171875 C 1.023438 -4.171875 0.765625 -4.226562 0.578125 -4.34375 C 0.390625 -4.457031 0.296875 -4.640625 0.296875 -4.890625 C 0.296875 -5.179688 0.445312 -5.425781 0.75 -5.625 C 1.0625 -5.832031 1.515625 -5.9375 2.109375 -5.9375 C 2.691406 -5.9375 3.148438 -5.816406 3.484375 -5.578125 C 3.828125 -5.347656 4 -5.007812 4 -4.5625 C 4 -4.332031 3.941406 -4.109375 3.828125 -3.890625 C 3.710938 -3.671875 3.519531 -3.484375 3.25 -3.328125 C 2.988281 -3.179688 2.628906 -3.085938 2.171875 -3.046875 C 2.828125 -3.046875 3.328125 -2.921875 3.671875 -2.671875 C 4.023438 -2.429688 4.203125 -2.0625 4.203125 -1.5625 C 4.203125 -1.164062 4.097656 -0.847656 3.890625 -0.609375 C 3.679688 -0.367188 3.40625 -0.191406 3.0625 -0.078125 C 2.726562 0.0234375 2.367188 0.078125 1.984375 0.078125 Z M 1.984375 0.078125 "/></g></g><g style="fill:#000000;fill-opacity:1;"><g transform="translate(136.522877, 143.417864)"><path style="stroke:none" d="M 0.796875 0 L 0.796875 -0.078125 L 1.46875 -0.078125 C 1.601562 -0.078125 1.703125 -0.113281 1.765625 -0.1875 C 1.835938 -0.269531 1.875 -0.410156 1.875 -0.609375 L 1.875 -5.21875 C 1.625 -4.863281 1.425781 -4.609375 1.28125 -4.453125 C 1.132812 -4.296875 0.988281 -4.21875 0.84375 -4.21875 C 0.695312 -4.21875 0.578125 -4.257812 0.484375 -4.34375 C 0.390625 -4.4375 0.34375 -4.578125 0.34375 -4.765625 C 0.613281 -4.773438 0.835938 -4.800781 1.015625 -4.84375 C 1.203125 -4.882812 1.375 -4.960938 1.53125 -5.078125 C 1.695312 -5.191406 1.894531 -5.363281 2.125 -5.59375 L 2.421875 -5.890625 L 3.09375 -5.890625 L 3.09375 -0.609375 C 3.09375 -0.441406 3.117188 -0.3125 3.171875 -0.21875 C 3.234375 -0.125 3.347656 -0.078125 3.515625 -0.078125 L 4.1875 -0.078125 L 4.1875 0 Z M 0.796875 0 "/></g></g><g style="fill:#000000;fill-opacity:1;"><g transform="translate(315.723969, 143.991204)"><path style="stroke:none" d="M 1.46875 0 L 1.46875 -0.078125 L 1.703125 -0.078125 C 1.890625 -0.078125 2.046875 -0.109375 2.171875 -0.171875 C 2.304688 -0.242188 2.375 -0.410156 2.375 -0.671875 L 2.375 -1.53125 L 0.109375 -1.53125 L 0.109375 -2.03125 L 2.4375 -5.859375 L 3.578125 -5.859375 L 3.578125 -2.0625 L 4.421875 -2.0625 L 4.421875 -1.53125 L 3.578125 -1.53125 L 3.578125 -0.671875 C 3.578125 -0.410156 3.640625 -0.242188 3.765625 -0.171875 C 3.898438 -0.109375 4.0625 -0.078125 4.25 -0.078125 L 4.359375 -0.078125 L 4.359375 0 Z M 0.234375 -2.0625 L 2.375 -2.0625 L 2.375 -3.875 C 2.375 -4.175781 2.375 -4.488281 2.375 -4.8125 C 2.375 -5.132812 2.378906 -5.414062 2.390625 -5.65625 C 2.359375 -5.601562 2.304688 -5.519531 2.234375 -5.40625 C 2.171875 -5.289062 2.097656 -5.164062 2.015625 -5.03125 C 1.941406 -4.894531 1.867188 -4.769531 1.796875 -4.65625 C 1.722656 -4.539062 1.664062 -4.445312 1.625 -4.375 Z M 0.234375 -2.0625 "/></g></g><g clip-rule="nonzero" clip-path="url(#4b3f13a7bf)"><path style=" stroke:none;fill-rule:nonzero;fill:#ff3131;fill-opacity:1;" d="M 198.195312 77.359375 C 192.648438 77.359375 188.105469 72.816406 188.105469 67.269531 C 188.105469 61.71875 192.648438 57.179688 198.195312 57.179688 C 203.746094 57.179688 208.285156 61.71875 208.285156 67.269531 C 208.285156 72.816406 203.746094 77.359375 198.195312 77.359375 Z M 198.195312 77.359375 "/></g><g clip-rule="nonzero" clip-path="url(#8f9f5972c2)"><path style=" stroke:none;fill-rule:nonzero;fill:#061bb0;fill-opacity:1;" d="M 198.195312 32.34375 C 192.648438 32.34375 188.105469 27.800781 188.105469 22.253906 C 188.105469 16.703125 192.648438 12.164062 198.195312 12.164062 C 203.746094 12.164062 208.285156 16.703125 208.285156 22.253906 C 208.285156 27.800781 203.746094 32.34375 198.195312 32.34375 Z M 198.195312 32.34375 "/></g><g clip-rule="nonzero" clip-path="url(#d5bc4c64a9)"><path style=" stroke:none;fill-rule:nonzero;fill:#061bb0;fill-opacity:1;" d="M 128.726562 125.882812 C 123.175781 125.882812 118.636719 121.339844 118.636719 115.792969 C 118.636719 110.242188 123.175781 105.703125 128.726562 105.703125 C 134.273438 105.703125 138.816406 110.242188 138.816406 115.792969 C 138.816406 121.339844 134.273438 125.882812 128.726562 125.882812 Z M 128.726562 125.882812 "/></g><g clip-rule="nonzero" clip-path="url(#e3bd03ecea)"><path style=" stroke:none;fill-rule:nonzero;fill:#061bb0;fill-opacity:1;" d="M 153.488281 125.882812 C 147.941406 125.882812 143.398438 121.339844 143.398438 115.792969 C 143.398438 110.242188 147.941406 105.703125 153.488281 105.703125 C 159.039062 105.703125 163.578125 110.242188 163.578125 115.792969 C 163.578125 121.339844 159.039062 125.882812 153.488281 125.882812 Z M 153.488281 125.882812 "/></g><g clip-rule="nonzero" clip-path="url(#49bb6729d6)"><path style=" stroke:none;fill-rule:nonzero;fill:#061bb0;fill-opacity:1;" d="M 236.8125 13.222656 L 254.226562 13.222656 L 254.226562 31.246094 L 236.8125 31.246094 Z M 236.8125 13.222656 "/></g><g clip-rule="nonzero" clip-path="url(#f271520cce)"><path style=" stroke:none;fill-rule:nonzero;fill:#061bb0;fill-opacity:1;" d="M 261.578125 13.222656 L 278.988281 13.222656 L 278.988281 31.246094 L 261.578125 31.246094 Z M 261.578125 13.222656 "/></g><g clip-rule="nonzero" clip-path="url(#49f89135e6)"><path style=" stroke:none;fill-rule:nonzero;fill:#061bb0;fill-opacity:1;" d="M 178.609375 107.824219 L 196.019531 107.824219 L 196.019531 125.847656 L 178.609375 125.847656 Z M 178.609375 107.824219 "/></g><g clip-rule="nonzero" clip-path="url(#08911241c9)"><path style=" stroke:none;fill-rule:nonzero;fill:#061bb0;fill-opacity:1;" d="M 203.375 107.824219 L 220.785156 107.824219 L 220.785156 125.847656 L 203.375 125.847656 Z M 203.375 107.824219 "/></g><g clip-rule="nonzero" clip-path="url(#f5250f27e2)"><path style=" stroke:none;fill-rule:nonzero;fill:#ff3131;fill-opacity:1;" d="M 305.632812 126.941406 C 300.085938 126.941406 295.542969 122.402344 295.542969 116.851562 C 295.542969 111.304688 300.085938 106.761719 305.632812 106.761719 C 311.183594 106.761719 315.722656 111.304688 315.722656 116.851562 C 315.722656 122.402344 311.183594 126.941406 305.632812 126.941406 Z M 305.632812 126.941406 "/></g><g clip-rule="nonzero" clip-path="url(#479f883bbb)"><path style=" stroke:none;fill-rule:nonzero;fill:#ff3131;fill-opacity:1;" d="M 330.398438 126.941406 C 324.847656 126.941406 320.308594 122.402344 320.308594 116.851562 C 320.308594 111.304688 324.847656 106.761719 330.398438 106.761719 C 335.949219 106.761719 340.488281 111.304688 340.488281 116.851562 C 340.488281 122.402344 335.949219 126.941406 330.398438 126.941406 Z M 330.398438 126.941406 "/></g><g clip-rule="nonzero" clip-path="url(#046394d804)"><path style=" stroke:none;fill-rule:nonzero;fill:#ff3131;fill-opacity:1;" d="M 238.3125 107.824219 L 255.726562 107.824219 L 255.726562 125.847656 L 238.3125 125.847656 Z M 238.3125 107.824219 "/></g><g clip-rule="nonzero" clip-path="url(#16a2668d20)"><path style=" stroke:none;fill-rule:nonzero;fill:#ff3131;fill-opacity:1;" d="M 263.078125 107.824219 L 280.488281 107.824219 L 280.488281 125.847656 L 263.078125 125.847656 Z M 263.078125 107.824219 "/></g></g></svg>