<svg xmlns="http://www.w3.org/2000/svg" xmlns:xlink="http://www.w3.org/1999/xlink" width="600" zoomAndPan="magnify" viewBox="0 0 450 149.999998" height="200" preserveAspectRatio="xMidYMid meet" version="1.2"><defs/><g id="8f8e667f29"><rect x="0" width="450" y="0" height="149.999998" style="fill:#ffffff;fill-opacity:1;stroke:none;"/><rect x="0" width="450" y="0" height="149.999998" style="fill:#ffffff;fill-opacity:1;stroke:none;"/><path style="fill-rule:nonzero;fill:#000000;fill-opacity:1;stroke-width:1;stroke-linecap:butt;stroke-linejoin:miter;stroke:#0c7b3b;stroke-opacity:1;stroke-miterlimit:4;" d="M 0.499995 0.999997 L 0.499995 199.000009 M 599.50003 0.999997 L 599.50003 199.000009 M -0.000005 0.499997 L 600.00003 0.499997 M -0.000005 199.500009 L 600.00003 199.500009 " transform="matrix(0.75,0,0,0.75,0.00000375,0.000002)"/><g style="fill:#0c7b3b;fill-opacity:1;"><g transform="translate(49.336547, 108.343281)"><path style="stroke:none" d="M 30.417969 -82.746094 C 21.433594 -82.746094 14.96875 -79.632812 7.542969 -74.964844 L 7.542969 -57.839844 C 14.128906 -64.1875 21.914062 -68.019531 27.183594 -68.019531 C 33.410156 -68.019531 38.199219 -62.628906 38.199219 -56.523438 C 38.199219 -48.859375 34.128906 -39.636719 21.792969 -22.753906 C 15.6875 -14.488281 10.539062 -7.542969 6.464844 -2.394531 L 6.464844 0 L 60.472656 0 L 60.472656 -16.644531 L 34.128906 -16.644531 C 45.265625 -31.015625 47.421875 -34.847656 52.691406 -45.265625 C 55.085938 -50.175781 56.28125 -54.847656 56.28125 -59.875 C 56.28125 -72.089844 48.257812 -82.746094 30.417969 -82.746094 Z M 30.417969 -82.746094 "/></g></g><g style="fill:#0c7b3b;fill-opacity:1;"><g transform="translate(188.570381, 108.343281)"><path style="stroke:none" d="M 7.664062 -81.667969 L 7.664062 -65.382812 L 37.839844 -65.382812 L 15.925781 -5.148438 L 32.210938 1.078125 L 62.03125 -80.710938 L 62.03125 -81.667969 Z M 7.664062 -81.667969 "/></g></g><g style="fill:#0c7b3b;fill-opacity:1;"><g transform="translate(322.72025, 108.343281)"><path style="stroke:none" d="M 31.375 -82.746094 C 16.644531 -82.746094 4.191406 -71.132812 4.191406 -54.605469 C 4.191406 -40.234375 14.371094 -28.738281 26.703125 -28.738281 C 28.738281 -28.738281 29.816406 -29.097656 31.972656 -29.578125 L 13.171875 1.078125 L 33.171875 1.078125 L 47.421875 -22.035156 C 54.847656 -34.128906 58.320312 -44.066406 58.320312 -55.203125 C 58.320312 -71.730469 45.386719 -82.746094 31.375 -82.746094 Z M 21.792969 -55.203125 C 21.792969 -62.390625 25.625 -67.417969 30.894531 -67.417969 C 36.285156 -67.417969 39.996094 -63.226562 39.996094 -55.203125 C 39.996094 -48.140625 36.285156 -43.109375 30.894531 -43.109375 C 25.746094 -43.109375 21.792969 -47.660156 21.792969 -55.203125 Z M 21.792969 -55.203125 "/></g></g></g></svg>