<svg xmlns="http://www.w3.org/2000/svg" xmlns:xlink="http://www.w3.org/1999/xlink" width="600" zoomAndPan="magnify" viewBox="0 0 450 149.999998" height="200" preserveAspectRatio="xMidYMid meet" version="1.2"><defs/><g id="dd01214672"><rect x="0" width="450" y="0" height="149.999998" style="fill:#ffffff;fill-opacity:1;stroke:none;"/><rect x="0" width="450" y="0" height="149.999998" style="fill:#ffffff;fill-opacity:1;stroke:none;"/><path style="fill-rule:nonzero;fill:#000000;fill-opacity:1;stroke-width:1;stroke-linecap:butt;stroke-linejoin:miter;stroke:#0c7b3b;stroke-opacity:1;stroke-miterlimit:4;" d="M 0.499995 0.999997 L 0.499995 199.000009 M 599.50003 0.999997 L 599.50003 199.000009 M -0.000005 0.499997 L 600.00003 0.499997 M -0.000005 199.500009 L 600.00003 199.500009 " transform="matrix(0.75,0,0,0.75,0.00000375,0.000002)"/><g style="fill:#0c7b3b;fill-opacity:1;"><g transform="translate(102.961546, 112.613593)"><path style="stroke:none" d="M 11.855469 -81.667969 L 11.855469 -35.085938 C 15.089844 -35.925781 18.441406 -36.285156 21.914062 -36.285156 C 31.375 -36.285156 37.960938 -31.855469 37.960938 -24.550781 C 37.960938 -18.5625 33.171875 -13.292969 25.027344 -13.292969 C 20.71875 -13.292969 14.96875 -14.25 7.664062 -18.203125 L 7.664062 -3.351562 C 11.734375 -0.957031 20.597656 1.078125 27.421875 1.078125 C 46.941406 1.078125 57 -9.9375 57 -25.507812 C 57 -39.757812 45.863281 -50.054688 31.375 -50.054688 C 30.058594 -50.054688 29.097656 -49.9375 28.140625 -49.9375 L 28.140625 -65.265625 L 54.246094 -65.265625 L 54.246094 -81.667969 Z M 11.855469 -81.667969 "/></g></g><g style="fill:#0c7b3b;fill-opacity:1;"><g transform="translate(273.204022, 112.613593)"><path style="stroke:none" d="M 27.664062 -82.746094 C 21.554688 -82.746094 14.371094 -81.550781 8.980469 -79.15625 L 8.980469 -64.785156 C 15.328125 -68.019531 19.519531 -69.097656 24.308594 -69.097656 C 30.417969 -69.097656 35.6875 -65.144531 35.6875 -59.515625 C 35.6875 -54.847656 31.613281 -50.175781 24.429688 -49.578125 L 24.429688 -35.207031 C 32.8125 -34.367188 37.003906 -29.699219 37.003906 -23.832031 C 37.003906 -17.84375 31.855469 -13.171875 24.90625 -13.171875 C 18.800781 -13.171875 12.574219 -15.328125 6.945312 -19.398438 L 6.945312 -3.59375 C 12.695312 -0.480469 20.476562 1.078125 27.421875 1.078125 C 42.992188 1.078125 56.042969 -7.066406 56.042969 -22.753906 C 56.042969 -33.648438 51.015625 -39.996094 41.671875 -43.828125 C 49.21875 -47.421875 53.769531 -55.085938 53.769531 -62.75 C 53.769531 -74.964844 42.75 -82.746094 27.664062 -82.746094 Z M 27.664062 -82.746094 "/></g></g></g></svg>