<svg xmlns="http://www.w3.org/2000/svg" xmlns:xlink="http://www.w3.org/1999/xlink" width="600" zoomAndPan="magnify" viewBox="0 0 450 149.999998" height="200" preserveAspectRatio="xMidYMid meet" version="1.2"><defs><clipPath id="fc16961d4d"><path d="M 248.570312 60.40625 L 266.570312 60.40625 L 266.570312 82 L 248.570312 82 Z M 248.570312 60.40625 "/></clipPath><clipPath id="ee412c63df"><path d="M 253 83 L 261 83 L 261 89.65625 L 253 89.65625 Z M 253 83 "/></clipPath><clipPath id="0d28fd6349"><path d="M 182.015625 60.40625 L 200.015625 60.40625 L 200.015625 82 L 182.015625 82 Z M 182.015625 60.40625 "/></clipPath><clipPath id="c6e1270d47"><path d="M 187 83 L 194 83 L 194 89.65625 L 187 89.65625 Z M 187 83 "/></clipPath></defs><g id="00f6631c25"><rect x="0" width="450" y="0" height="149.999998" style="fill:#ffffff;fill-opacity:1;stroke:none;"/><rect x="0" width="450" y="0" height="149.999998" style="fill:#ffffff;fill-opacity:1;stroke:none;"/><path style="fill-rule:nonzero;fill:#000000;fill-opacity:1;stroke-width:1;stroke-linecap:butt;stroke-linejoin:miter;stroke:#0c7b3b;stroke-opacity:1;stroke-miterlimit:4;" d="M 0.499995 0.999997 L 0.499995 199.000009 M 599.50003 0.999997 L 599.50003 199.000009 M -0.000005 0.499997 L 600.00003 0.499997 M -0.000005 199.500009 L 600.00003 199.500009 " transform="matrix(0.75,0,0,0.75,0.00000375,0.000002)"/><g style="fill:#0c7b3b;fill-opacity:1;"><g transform="translate(13.422697, 89.477154)"><path style="stroke:none" d="M 11.164062 -38.957031 L 11.164062 0 L 19.957031 0 L 19.957031 -38.957031 Z M 11.164062 -38.957031 "/></g></g><g style="fill:#0c7b3b;fill-opacity:1;"><g transform="translate(44.537373, 89.477154)"><path style="stroke:none" d="M 15.617188 -38.957031 C 8.792969 -38.957031 2.535156 -33.433594 2.535156 -19.226562 C 2.535156 -6.203125 7.667969 0.507812 15.730469 0.507812 C 23.621094 0.507812 28.582031 -6.539062 28.582031 -19.394531 C 28.582031 -33.996094 22.042969 -38.957031 15.617188 -38.957031 Z M 19.730469 -19.730469 C 19.730469 -9.246094 18.378906 -6.652344 15.617188 -6.652344 C 13.078125 -6.652344 11.445312 -9.191406 11.445312 -19.226562 C 11.445312 -28.867188 12.855469 -31.742188 15.558594 -31.742188 C 18.71875 -31.742188 19.730469 -27.792969 19.730469 -19.730469 Z M 19.730469 -19.730469 "/></g></g><g style="fill:#0c7b3b;fill-opacity:1;"><g transform="translate(75.652049, 89.477154)"><path style="stroke:none" d="M 11.164062 -38.957031 L 11.164062 0 L 19.957031 0 L 19.957031 -38.957031 Z M 11.164062 -38.957031 "/></g></g><g style="fill:#0c7b3b;fill-opacity:1;"><g transform="translate(106.766725, 89.477154)"><path style="stroke:none" d="M 15.617188 -38.957031 C 8.792969 -38.957031 2.535156 -33.433594 2.535156 -19.226562 C 2.535156 -6.203125 7.667969 0.507812 15.730469 0.507812 C 23.621094 0.507812 28.582031 -6.539062 28.582031 -19.394531 C 28.582031 -33.996094 22.042969 -38.957031 15.617188 -38.957031 Z M 19.730469 -19.730469 C 19.730469 -9.246094 18.378906 -6.652344 15.617188 -6.652344 C 13.078125 -6.652344 11.445312 -9.191406 11.445312 -19.226562 C 11.445312 -28.867188 12.855469 -31.742188 15.558594 -31.742188 C 18.71875 -31.742188 19.730469 -27.792969 19.730469 -19.730469 Z M 19.730469 -19.730469 "/></g></g><g style="fill:#0c7b3b;fill-opacity:1;"><g transform="translate(137.881401, 89.477154)"><path style="stroke:none" d="M 7.214844 -8.0625 C 5.074219 -8.0625 2.480469 -6.484375 2.480469 -3.722656 C 2.480469 -1.917969 3.496094 -0.28125 5.355469 0.507812 C 5.414062 0.789062 5.414062 1.070312 5.414062 1.351562 C 5.414062 3.550781 4.566406 5.808594 2.820312 7.78125 L 2.820312 9.527344 C 8.964844 8.90625 12.742188 3.328125 12.742188 -1.636719 C 12.742188 -6.820312 8.90625 -8.0625 7.214844 -8.0625 Z M 7.214844 -8.0625 "/></g></g><g style="fill:#0c7b3b;fill-opacity:1;"><g transform="translate(153.156905, 89.477154)"><path style="stroke:none" d=""/></g></g><g style="fill:#0c7b3b;fill-opacity:1;"><g transform="translate(168.826979, 89.477154)"><path style="stroke:none" d="M -0.339844 4.226562 L -0.339844 7.046875 L 28.527344 7.046875 L 28.527344 4.226562 Z M -0.339844 4.226562 "/></g></g><g style="fill:#0c7b3b;fill-opacity:1;"><g transform="translate(197.01056, 89.477154)"><path style="stroke:none" d="M -0.339844 4.226562 L -0.339844 7.046875 L 28.527344 7.046875 L 28.527344 4.226562 Z M -0.339844 4.226562 "/></g></g><g style="fill:#0c7b3b;fill-opacity:1;"><g transform="translate(225.19414, 89.477154)"><path style="stroke:none" d="M 7.214844 -8.0625 C 5.074219 -8.0625 2.480469 -6.484375 2.480469 -3.722656 C 2.480469 -1.917969 3.496094 -0.28125 5.355469 0.507812 C 5.414062 0.789062 5.414062 1.070312 5.414062 1.351562 C 5.414062 3.550781 4.566406 5.808594 2.820312 7.78125 L 2.820312 9.527344 C 8.964844 8.90625 12.742188 3.328125 12.742188 -1.636719 C 12.742188 -6.820312 8.90625 -8.0625 7.214844 -8.0625 Z M 7.214844 -8.0625 "/></g></g><g style="fill:#0c7b3b;fill-opacity:1;"><g transform="translate(240.469644, 89.477154)"><path style="stroke:none" d="M -0.339844 4.226562 L -0.339844 7.046875 L 28.527344 7.046875 L 28.527344 4.226562 Z M -0.339844 4.226562 "/></g></g><g style="fill:#0c7b3b;fill-opacity:1;"><g transform="translate(268.653213, 89.477154)"><path style="stroke:none" d="M -0.339844 4.226562 L -0.339844 7.046875 L 28.527344 7.046875 L 28.527344 4.226562 Z M -0.339844 4.226562 "/></g></g><g style="fill:#0c7b3b;fill-opacity:1;"><g transform="translate(296.836805, 89.477154)"><path style="stroke:none" d="M 7.214844 -8.0625 C 5.074219 -8.0625 2.480469 -6.484375 2.480469 -3.722656 C 2.480469 -1.917969 3.496094 -0.28125 5.355469 0.507812 C 5.414062 0.789062 5.414062 1.070312 5.414062 1.351562 C 5.414062 3.550781 4.566406 5.808594 2.820312 7.78125 L 2.820312 9.527344 C 8.964844 8.90625 12.742188 3.328125 12.742188 -1.636719 C 12.742188 -6.820312 8.90625 -8.0625 7.214844 -8.0625 Z M 7.214844 -8.0625 "/></g></g><g style="fill:#0c7b3b;fill-opacity:1;"><g transform="translate(312.11231, 89.477154)"><path style="stroke:none" d="M 11.164062 -38.957031 L 11.164062 0 L 19.957031 0 L 19.957031 -38.957031 Z M 11.164062 -38.957031 "/></g></g><g style="fill:#0c7b3b;fill-opacity:1;"><g transform="translate(343.226985, 89.477154)"><path style="stroke:none" d="M 15.617188 -38.957031 C 8.792969 -38.957031 2.535156 -33.433594 2.535156 -19.226562 C 2.535156 -6.203125 7.667969 0.507812 15.730469 0.507812 C 23.621094 0.507812 28.582031 -6.539062 28.582031 -19.394531 C 28.582031 -33.996094 22.042969 -38.957031 15.617188 -38.957031 Z M 19.730469 -19.730469 C 19.730469 -9.246094 18.378906 -6.652344 15.617188 -6.652344 C 13.078125 -6.652344 11.445312 -9.191406 11.445312 -19.226562 C 11.445312 -28.867188 12.855469 -31.742188 15.558594 -31.742188 C 18.71875 -31.742188 19.730469 -27.792969 19.730469 -19.730469 Z M 19.730469 -19.730469 "/></g></g><g style="fill:#0c7b3b;fill-opacity:1;"><g transform="translate(374.341661, 89.477154)"><path style="stroke:none" d="M 11.164062 -38.957031 L 11.164062 0 L 19.957031 0 L 19.957031 -38.957031 Z M 11.164062 -38.957031 "/></g></g><g style="fill:#0c7b3b;fill-opacity:1;"><g transform="translate(405.456337, 89.477154)"><path style="stroke:none" d="M 13.023438 -38.957031 C 10.148438 -38.957031 6.765625 -38.394531 4.226562 -37.265625 L 4.226562 -30.5 C 7.214844 -32.023438 9.191406 -32.53125 11.445312 -32.53125 C 14.320312 -32.53125 16.800781 -30.667969 16.800781 -28.019531 C 16.800781 -25.820312 14.882812 -23.621094 11.5 -23.339844 L 11.5 -16.574219 C 15.449219 -16.179688 17.421875 -13.980469 17.421875 -11.21875 C 17.421875 -8.398438 14.996094 -6.203125 11.726562 -6.203125 C 8.851562 -6.203125 5.917969 -7.214844 3.269531 -9.132812 L 3.269531 -1.691406 C 5.976562 -0.226562 9.640625 0.507812 12.910156 0.507812 C 20.238281 0.507812 26.382812 -3.328125 26.382812 -10.710938 C 26.382812 -15.84375 24.015625 -18.832031 19.621094 -20.632812 C 23.171875 -22.324219 25.3125 -25.933594 25.3125 -29.542969 C 25.3125 -35.292969 20.125 -38.957031 13.023438 -38.957031 Z M 13.023438 -38.957031 "/></g></g><g clip-rule="nonzero" clip-path="url(#fc16961d4d)"><path style=" stroke:none;fill-rule:nonzero;fill:#000000;fill-opacity:1;" d="M 265.378906 63.796875 C 264.605469 62.699219 263.539062 61.855469 262.175781 61.277344 C 260.820312 60.695312 259.253906 60.40625 257.484375 60.40625 C 255.871094 60.40625 254.398438 60.691406 253.066406 61.265625 C 251.734375 61.832031 250.660156 62.703125 249.851562 63.855469 C 249.207031 64.773438 248.808594 65.886719 248.640625 67.191406 C 248.570312 67.757812 249.023438 68.261719 249.597656 68.261719 L 253.164062 68.261719 C 253.625 68.261719 254.011719 67.9375 254.109375 67.496094 C 254.199219 67.097656 254.34375 66.738281 254.550781 66.4375 C 254.878906 65.945312 255.300781 65.570312 255.816406 65.320312 C 256.332031 65.066406 256.878906 64.9375 257.460938 64.9375 C 258.058594 64.9375 258.597656 65.0625 259.097656 65.3125 C 259.589844 65.558594 259.984375 65.914062 260.277344 66.378906 C 260.570312 66.839844 260.714844 67.371094 260.714844 67.984375 C 260.714844 68.566406 260.585938 69.085938 260.328125 69.546875 C 260.070312 70.011719 259.722656 70.4375 259.289062 70.816406 C 258.851562 71.203125 258.363281 71.566406 257.8125 71.921875 C 257.074219 72.386719 256.4375 72.898438 255.917969 73.46875 C 255.390625 74.035156 254.996094 74.777344 254.71875 75.703125 C 254.449219 76.625 254.308594 77.859375 254.304688 79.410156 L 254.304688 80.183594 C 254.304688 80.710938 254.730469 81.144531 255.265625 81.144531 L 258.40625 81.144531 C 258.933594 81.144531 259.367188 80.714844 259.367188 80.183594 L 259.367188 79.410156 C 259.378906 78.539062 259.488281 77.808594 259.707031 77.21875 C 259.921875 76.625 260.257812 76.101562 260.703125 75.648438 C 261.15625 75.199219 261.730469 74.765625 262.433594 74.34375 C 263.273438 73.847656 263.996094 73.292969 264.609375 72.671875 C 265.222656 72.058594 265.703125 71.34375 266.046875 70.542969 C 266.390625 69.742188 266.566406 68.816406 266.566406 67.78125 C 266.546875 66.226562 266.152344 64.898438 265.378906 63.796875 Z M 265.378906 63.796875 "/></g><g clip-rule="nonzero" clip-path="url(#ee412c63df)"><path style=" stroke:none;fill-rule:nonzero;fill:#000000;fill-opacity:1;" d="M 256.933594 83.296875 C 256.039062 83.296875 255.285156 83.605469 254.65625 84.226562 C 254.027344 84.847656 253.71875 85.59375 253.730469 86.460938 C 253.71875 87.339844 254.027344 88.09375 254.65625 88.71875 C 255.285156 89.34375 256.039062 89.65625 256.933594 89.65625 C 257.5 89.65625 258.027344 89.507812 258.503906 89.222656 C 258.984375 88.929688 259.371094 88.550781 259.671875 88.0625 C 259.972656 87.578125 260.125 87.046875 260.128906 86.460938 C 260.117188 85.589844 259.792969 84.847656 259.15625 84.226562 C 258.523438 83.605469 257.777344 83.296875 256.933594 83.296875 Z M 256.933594 83.296875 "/></g><g clip-rule="nonzero" clip-path="url(#0d28fd6349)"><path style=" stroke:none;fill-rule:nonzero;fill:#000000;fill-opacity:1;" d="M 198.828125 63.796875 C 198.050781 62.699219 196.984375 61.855469 195.625 61.277344 C 194.269531 60.695312 192.703125 60.40625 190.929688 60.40625 C 189.316406 60.40625 187.84375 60.691406 186.511719 61.265625 C 185.179688 61.832031 184.109375 62.703125 183.296875 63.855469 C 182.652344 64.773438 182.253906 65.886719 182.089844 67.191406 C 182.019531 67.757812 182.472656 68.261719 183.046875 68.261719 L 186.613281 68.261719 C 187.070312 68.261719 187.457031 67.9375 187.558594 67.496094 C 187.644531 67.097656 187.792969 66.738281 187.996094 66.4375 C 188.324219 65.945312 188.75 65.570312 189.265625 65.320312 C 189.78125 65.066406 190.328125 64.9375 190.90625 64.9375 C 191.503906 64.9375 192.046875 65.0625 192.542969 65.3125 C 193.035156 65.558594 193.429688 65.914062 193.722656 66.378906 C 194.015625 66.839844 194.164062 67.371094 194.164062 67.984375 C 194.164062 68.566406 194.035156 69.085938 193.777344 69.546875 C 193.519531 70.011719 193.171875 70.4375 192.738281 70.816406 C 192.296875 71.203125 191.8125 71.566406 191.257812 71.921875 C 190.519531 72.386719 189.886719 72.898438 189.363281 73.46875 C 188.835938 74.035156 188.441406 74.777344 188.167969 75.703125 C 187.898438 76.625 187.757812 77.859375 187.75 79.410156 L 187.75 80.183594 C 187.75 80.710938 188.179688 81.144531 188.714844 81.144531 L 191.851562 81.144531 C 192.378906 81.144531 192.8125 80.714844 192.8125 80.183594 L 192.8125 79.410156 C 192.824219 78.539062 192.9375 77.808594 193.152344 77.21875 C 193.371094 76.625 193.707031 76.101562 194.152344 75.648438 C 194.601562 75.199219 195.179688 74.765625 195.882812 74.34375 C 196.722656 73.847656 197.441406 73.292969 198.058594 72.671875 C 198.667969 72.058594 199.148438 71.34375 199.496094 70.542969 C 199.835938 69.742188 200.011719 68.816406 200.011719 67.78125 C 199.996094 66.226562 199.601562 64.898438 198.828125 63.796875 Z M 198.828125 63.796875 "/></g><g clip-rule="nonzero" clip-path="url(#c6e1270d47)"><path style=" stroke:none;fill-rule:nonzero;fill:#000000;fill-opacity:1;" d="M 190.378906 83.296875 C 189.488281 83.296875 188.730469 83.605469 188.101562 84.226562 C 187.476562 84.847656 187.164062 85.59375 187.175781 86.460938 C 187.164062 87.339844 187.476562 88.09375 188.101562 88.71875 C 188.730469 89.34375 189.488281 89.65625 190.378906 89.65625 C 190.949219 89.65625 191.476562 89.507812 191.953125 89.222656 C 192.433594 88.929688 192.820312 88.550781 193.117188 88.0625 C 193.417969 87.578125 193.570312 87.046875 193.578125 86.460938 C 193.566406 85.589844 193.242188 84.847656 192.601562 84.226562 C 191.96875 83.605469 191.222656 83.296875 190.378906 83.296875 Z M 190.378906 83.296875 "/></g></g></svg>