<svg xmlns="http://www.w3.org/2000/svg" xmlns:xlink="http://www.w3.org/1999/xlink" width="600" zoomAndPan="magnify" viewBox="0 0 450 149.999998" height="200" preserveAspectRatio="xMidYMid meet" version="1.2"><defs><clipPath id="57511b8ac8"><path d="M 345 49.402344 L 380.207031 49.402344 L 380.207031 90 L 345 90 Z M 345 49.402344 "/></clipPath><clipPath id="c977824993"><path d="M 355 94 L 368 94 L 368 106.402344 L 355 106.402344 Z M 355 94 "/></clipPath><clipPath id="6582eb0e65"><path d="M 184.601562 61.914062 L 213.851562 61.914062 L 213.851562 94 L 184.601562 94 Z M 184.601562 61.914062 "/></clipPath></defs><g id="a0b9e6bda6"><rect x="0" width="450" y="0" height="149.999998" style="fill:#ffffff;fill-opacity:1;stroke:none;"/><rect x="0" width="450" y="0" height="149.999998" style="fill:#ffffff;fill-opacity:1;stroke:none;"/><path style="fill-rule:nonzero;fill:#000000;fill-opacity:1;stroke-width:1;stroke-linecap:butt;stroke-linejoin:miter;stroke:#0c7b3b;stroke-opacity:1;stroke-miterlimit:4;" d="M 0.499995 0.999997 L 0.499995 199.000009 M 599.50003 0.999997 L 599.50003 199.000009 M -0.000005 0.499997 L 600.00003 0.499997 M -0.000005 199.500009 L 600.00003 199.500009 " transform="matrix(0.75,0,0,0.75,0.00000375,0.000002)"/><g style="fill:#0c7b3b;fill-opacity:1;"><g transform="translate(65.445079, 100.554606)"><path style="stroke:none" d="M 13.066406 -45.59375 L 13.066406 0 L 23.359375 0 L 23.359375 -45.59375 Z M 13.066406 -45.59375 "/></g></g><g style="fill:#0c7b3b;fill-opacity:1;"><g transform="translate(101.864171, 100.554606)"><path style="stroke:none" d="M 15.242188 -45.59375 C 11.878906 -45.59375 7.917969 -44.9375 4.949219 -43.617188 L 4.949219 -35.699219 C 8.445312 -37.480469 10.753906 -38.074219 13.394531 -38.074219 C 16.761719 -38.074219 19.664062 -35.894531 19.664062 -32.792969 C 19.664062 -30.222656 17.421875 -27.648438 13.460938 -27.316406 L 13.460938 -19.398438 C 18.078125 -18.9375 20.390625 -16.363281 20.390625 -13.132812 C 20.390625 -9.832031 17.550781 -7.257812 13.726562 -7.257812 C 10.359375 -7.257812 6.929688 -8.445312 3.828125 -10.691406 L 3.828125 -1.980469 C 6.996094 -0.265625 11.285156 0.59375 15.109375 0.59375 C 23.6875 0.59375 30.882812 -3.894531 30.882812 -12.539062 C 30.882812 -18.542969 28.109375 -22.039062 22.960938 -24.152344 C 27.121094 -26.128906 29.628906 -30.351562 29.628906 -34.574219 C 29.628906 -41.304688 23.558594 -45.59375 15.242188 -45.59375 Z M 15.242188 -45.59375 "/></g></g><g style="fill:#0c7b3b;fill-opacity:1;"><g transform="translate(138.283263, 100.554606)"><path style="stroke:none" d="M 16.828125 -45.59375 L 9.039062 -32.992188 C 4.355469 -25.402344 2.902344 -20.585938 2.902344 -15.175781 C 2.902344 -4.882812 10.03125 0.59375 18.015625 0.59375 C 26.527344 0.59375 32.730469 -6.136719 32.730469 -14.914062 C 32.730469 -22.566406 27.449219 -28.96875 20.125 -28.96875 C 19.332031 -28.96875 18.804688 -28.902344 17.484375 -28.570312 L 27.910156 -45.59375 Z M 13.066406 -14.320312 C 13.066406 -18.671875 15.042969 -21.113281 17.882812 -21.113281 C 21.179688 -21.113281 23.027344 -18.144531 23.027344 -14.515625 C 23.027344 -10.753906 21.246094 -7.785156 18.015625 -7.785156 C 14.914062 -7.785156 13.066406 -10.226562 13.066406 -14.320312 Z M 13.066406 -14.320312 "/></g></g><g style="fill:#0c7b3b;fill-opacity:1;"><g transform="translate(174.710697, 100.554606)"><path style="stroke:none" d=""/></g></g><g style="fill:#0c7b3b;fill-opacity:1;"><g transform="translate(193.0522, 100.554606)"><path style="stroke:none" d=""/></g></g><g style="fill:#0c7b3b;fill-opacity:1;"><g transform="translate(211.393702, 100.554606)"><path style="stroke:none" d=""/></g></g><g style="fill:#0c7b3b;fill-opacity:1;"><g transform="translate(229.741944, 100.554606)"><path style="stroke:none" d="M 18.078125 -45.59375 C 9.632812 -45.59375 4.421875 -40.515625 4.421875 -33.386719 C 4.421875 -29.496094 5.9375 -26.261719 9.964844 -23.753906 C 5.609375 -21.972656 3.167969 -17.75 3.167969 -12.800781 C 3.167969 -4.882812 9.4375 0.59375 18.144531 0.59375 C 27.515625 0.59375 33.324219 -4.949219 33.324219 -12.867188 C 33.324219 -17.617188 30.945312 -21.710938 26.59375 -23.753906 C 30.816406 -26.195312 32.070312 -29.890625 32.070312 -33.519531 C 32.070312 -39.195312 27.515625 -45.59375 18.078125 -45.59375 Z M 13.988281 -32.792969 C 13.988281 -36.359375 15.507812 -38.863281 18.210938 -38.863281 C 20.917969 -38.863281 22.433594 -36.753906 22.433594 -32.859375 C 22.433594 -28.835938 20.917969 -26.527344 18.277344 -26.527344 C 15.441406 -26.527344 13.988281 -29.230469 13.988281 -32.792969 Z M 23.160156 -12.867188 C 23.160156 -8.578125 21.246094 -5.871094 18.34375 -5.871094 C 15.441406 -5.871094 13.261719 -8.710938 13.261719 -13.066406 C 13.261719 -17.355469 15.109375 -20.125 18.277344 -20.125 C 21.246094 -20.125 23.160156 -17.617188 23.160156 -12.867188 Z M 23.160156 -12.867188 "/></g></g><g style="fill:#0c7b3b;fill-opacity:1;"><g transform="translate(266.161036, 100.554606)"><path style="stroke:none" d=""/></g></g><g style="fill:#0c7b3b;fill-opacity:1;"><g transform="translate(284.502538, 100.554606)"><path style="stroke:none" d="M 2.707031 -33.917969 L 2.707031 -25.402344 L 35.765625 -25.402344 L 35.765625 -33.917969 Z M 2.707031 -19.597656 L 2.707031 -11.152344 L 35.765625 -11.152344 L 35.765625 -19.597656 Z M 2.707031 -19.597656 "/></g></g><g style="fill:#0c7b3b;fill-opacity:1;"><g transform="translate(322.976314, 100.554606)"><path style="stroke:none" d=""/></g></g><g clip-rule="nonzero" clip-path="url(#57511b8ac8)"><path style=" stroke:none;fill-rule:nonzero;fill:#000000;fill-opacity:1;" d="M 377.875 56.015625 C 376.359375 53.871094 374.269531 52.230469 371.605469 51.101562 C 368.953125 49.972656 365.882812 49.402344 362.414062 49.402344 C 359.257812 49.402344 356.375 49.960938 353.765625 51.078125 C 351.160156 52.183594 349.058594 53.882812 347.472656 56.128906 C 346.207031 57.917969 345.429688 60.085938 345.105469 62.628906 C 344.96875 63.734375 345.851562 64.714844 346.976562 64.714844 L 353.960938 64.714844 C 354.859375 64.714844 355.617188 64.085938 355.8125 63.21875 C 355.984375 62.445312 356.269531 61.75 356.671875 61.15625 C 357.316406 60.199219 358.144531 59.46875 359.152344 58.980469 C 360.164062 58.488281 361.234375 58.238281 362.371094 58.238281 C 363.542969 58.238281 364.597656 58.476562 365.574219 58.96875 C 366.539062 59.445312 367.308594 60.140625 367.882812 61.042969 C 368.457031 61.945312 368.746094 62.980469 368.746094 64.179688 C 368.746094 65.304688 368.492188 66.320312 367.988281 67.222656 C 367.480469 68.121094 366.804688 68.953125 365.953125 69.695312 C 365.09375 70.449219 364.140625 71.15625 363.058594 71.851562 C 361.613281 72.75 360.371094 73.753906 359.347656 74.859375 C 358.316406 75.964844 357.546875 77.414062 357.003906 79.214844 C 356.476562 81.015625 356.203125 83.421875 356.191406 86.441406 L 356.191406 87.945312 C 356.191406 88.972656 357.027344 89.816406 358.074219 89.816406 L 364.21875 89.816406 C 365.253906 89.816406 366.101562 88.984375 366.101562 87.945312 L 366.101562 86.441406 C 366.125 84.742188 366.34375 83.320312 366.769531 82.167969 C 367.195312 81.015625 367.847656 79.988281 368.722656 79.113281 C 369.605469 78.234375 370.730469 77.390625 372.109375 76.570312 C 373.753906 75.601562 375.164062 74.519531 376.371094 73.308594 C 377.566406 72.113281 378.507812 70.722656 379.1875 69.160156 C 379.851562 67.597656 380.195312 65.796875 380.195312 63.777344 C 380.160156 60.746094 379.390625 58.160156 377.875 56.015625 Z M 377.875 56.015625 "/></g><g clip-rule="nonzero" clip-path="url(#c977824993)"><path style=" stroke:none;fill-rule:nonzero;fill:#000000;fill-opacity:1;" d="M 361.335938 94.011719 C 359.589844 94.011719 358.109375 94.617188 356.878906 95.824219 C 355.652344 97.03125 355.042969 98.492188 355.066406 100.179688 C 355.042969 101.890625 355.652344 103.359375 356.878906 104.578125 C 358.109375 105.800781 359.589844 106.402344 361.335938 106.402344 C 362.449219 106.402344 363.484375 106.117188 364.414062 105.558594 C 365.355469 104.988281 366.113281 104.25 366.699219 103.304688 C 367.285156 102.355469 367.585938 101.320312 367.597656 100.179688 C 367.574219 98.480469 366.941406 97.03125 365.6875 95.824219 C 364.449219 94.617188 362.988281 94.011719 361.335938 94.011719 Z M 361.335938 94.011719 "/></g><g clip-rule="nonzero" clip-path="url(#6582eb0e65)"><path style=" stroke:none;fill-rule:nonzero;fill:#0c7b3b;fill-opacity:1;" d="M 213.992188 75.132812 L 213.992188 80.253906 L 184.726562 80.253906 L 184.726562 75.132812 Z M 199.359375 93.609375 C 198.214844 93.609375 197.238281 93.210938 196.433594 92.421875 C 195.640625 91.613281 195.242188 90.636719 195.242188 89.492188 C 195.242188 88.394531 195.640625 87.449219 196.433594 86.65625 C 197.238281 85.863281 198.214844 85.46875 199.359375 85.46875 C 200.457031 85.46875 201.402344 85.863281 202.195312 86.65625 C 202.988281 87.449219 203.382812 88.394531 203.382812 89.492188 C 203.382812 90.636719 202.988281 91.613281 202.195312 92.421875 C 201.402344 93.210938 200.457031 93.609375 199.359375 93.609375 Z M 199.359375 69.921875 C 198.597656 69.921875 197.902344 69.738281 197.277344 69.371094 C 196.652344 69.007812 196.15625 68.511719 195.792969 67.886719 C 195.425781 67.261719 195.242188 66.566406 195.242188 65.804688 C 195.242188 64.707031 195.640625 63.761719 196.433594 62.96875 C 197.238281 62.175781 198.214844 61.78125 199.359375 61.78125 C 200.457031 61.78125 201.402344 62.175781 202.195312 62.96875 C 202.988281 63.761719 203.382812 64.707031 203.382812 65.804688 C 203.382812 66.949219 202.988281 67.921875 202.195312 68.730469 C 201.402344 69.523438 200.457031 69.921875 199.359375 69.921875 Z M 199.359375 69.921875 "/></g></g></svg>