<svg xmlns="http://www.w3.org/2000/svg" xmlns:xlink="http://www.w3.org/1999/xlink" width="600" zoomAndPan="magnify" viewBox="0 0 450 149.999998" height="200" preserveAspectRatio="xMidYMid meet" version="1.2"><defs/><g id="3e62933148"><rect x="0" width="450" y="0" height="149.999998" style="fill:#ffffff;fill-opacity:1;stroke:none;"/><rect x="0" width="450" y="0" height="149.999998" style="fill:#ffffff;fill-opacity:1;stroke:none;"/><path style="fill-rule:nonzero;fill:#000000;fill-opacity:1;stroke-width:1;stroke-linecap:butt;stroke-linejoin:miter;stroke:#0c7b3b;stroke-opacity:1;stroke-miterlimit:4;" d="M 0.499995 0.999997 L 0.499995 199.000009 M 599.50003 0.999997 L 599.50003 199.000009 M -0.000005 0.499997 L 600.00003 0.499997 M -0.000005 199.500009 L 600.00003 199.500009 " transform="matrix(0.75,0,0,0.75,0.00000375,0.000002)"/><g style="fill:#0c7b3b;fill-opacity:1;"><g transform="translate(39.75016, 82.764054)"><path style="stroke:none" d="M 16.605469 -45.179688 C 11.703125 -45.179688 8.171875 -43.480469 4.117188 -40.929688 L 4.117188 -31.578125 C 7.714844 -35.046875 11.964844 -37.136719 14.84375 -37.136719 C 18.242188 -37.136719 20.855469 -34.195312 20.855469 -30.859375 C 20.855469 -26.675781 18.632812 -21.640625 11.898438 -12.421875 C 8.566406 -7.910156 5.753906 -4.117188 3.53125 -1.308594 L 3.53125 0 L 33.019531 0 L 33.019531 -9.089844 L 18.632812 -9.089844 C 24.714844 -16.933594 25.890625 -19.027344 28.769531 -24.714844 C 30.074219 -27.394531 30.730469 -29.945312 30.730469 -32.691406 C 30.730469 -39.359375 26.347656 -45.179688 16.605469 -45.179688 Z M 16.605469 -45.179688 "/></g></g><g style="fill:#0c7b3b;fill-opacity:1;"><g transform="translate(75.841198, 82.764054)"><path style="stroke:none" d="M 8.367188 -9.351562 C 5.882812 -9.351562 2.875 -7.519531 2.875 -4.316406 C 2.875 -2.222656 4.054688 -0.328125 6.210938 0.589844 C 6.277344 0.914062 6.277344 1.242188 6.277344 1.570312 C 6.277344 4.117188 5.296875 6.734375 3.269531 9.023438 L 3.269531 11.050781 C 10.394531 10.332031 14.777344 3.859375 14.777344 -1.894531 C 14.777344 -7.910156 10.332031 -9.351562 8.367188 -9.351562 Z M 8.367188 -9.351562 "/></g></g><g style="fill:#0c7b3b;fill-opacity:1;"><g transform="translate(93.559798, 82.764054)"><path style="stroke:none" d=""/></g></g><g style="fill:#0c7b3b;fill-opacity:1;"><g transform="translate(111.736085, 82.764054)"><path style="stroke:none" d="M 23.667969 -45.179688 L 2.679688 -18.109375 L 2.679688 -10.984375 L 20.074219 -10.984375 L 20.074219 0 L 29.945312 0 L 29.945312 -10.984375 L 32.953125 -10.984375 L 32.953125 -18.109375 L 29.945312 -18.109375 L 29.945312 -45.179688 Z M 20.074219 -18.109375 L 10.527344 -18.109375 L 20.074219 -30.273438 Z M 20.074219 -18.109375 "/></g></g><g style="fill:#0c7b3b;fill-opacity:1;"><g transform="translate(147.827123, 82.764054)"><path style="stroke:none" d="M 8.367188 -9.351562 C 5.882812 -9.351562 2.875 -7.519531 2.875 -4.316406 C 2.875 -2.222656 4.054688 -0.328125 6.210938 0.589844 C 6.277344 0.914062 6.277344 1.242188 6.277344 1.570312 C 6.277344 4.117188 5.296875 6.734375 3.269531 9.023438 L 3.269531 11.050781 C 10.394531 10.332031 14.777344 3.859375 14.777344 -1.894531 C 14.777344 -7.910156 10.332031 -9.351562 8.367188 -9.351562 Z M 8.367188 -9.351562 "/></g></g><g style="fill:#0c7b3b;fill-opacity:1;"><g transform="translate(165.545717, 82.764054)"><path style="stroke:none" d=""/></g></g><g style="fill:#0c7b3b;fill-opacity:1;"><g transform="translate(183.722011, 82.764054)"><path style="stroke:none" d="M 16.671875 -45.179688 L 8.957031 -32.691406 C 4.316406 -25.171875 2.875 -20.398438 2.875 -15.039062 C 2.875 -4.839844 9.9375 0.589844 17.847656 0.589844 C 26.285156 0.589844 32.429688 -6.082031 32.429688 -14.777344 C 32.429688 -22.359375 27.199219 -28.703125 19.941406 -28.703125 C 19.15625 -28.703125 18.632812 -28.636719 17.328125 -28.3125 L 27.65625 -45.179688 Z M 12.945312 -14.1875 C 12.945312 -18.503906 14.90625 -20.921875 17.71875 -20.921875 C 20.988281 -20.921875 22.820312 -17.980469 22.820312 -14.382812 C 22.820312 -10.65625 21.054688 -7.714844 17.847656 -7.714844 C 14.777344 -7.714844 12.945312 -10.132812 12.945312 -14.1875 Z M 12.945312 -14.1875 "/></g></g><g style="fill:#0c7b3b;fill-opacity:1;"><g transform="translate(219.813055, 82.764054)"><path style="stroke:none" d="M 8.367188 -9.351562 C 5.882812 -9.351562 2.875 -7.519531 2.875 -4.316406 C 2.875 -2.222656 4.054688 -0.328125 6.210938 0.589844 C 6.277344 0.914062 6.277344 1.242188 6.277344 1.570312 C 6.277344 4.117188 5.296875 6.734375 3.269531 9.023438 L 3.269531 11.050781 C 10.394531 10.332031 14.777344 3.859375 14.777344 -1.894531 C 14.777344 -7.910156 10.332031 -9.351562 8.367188 -9.351562 Z M 8.367188 -9.351562 "/></g></g><g style="fill:#0c7b3b;fill-opacity:1;"><g transform="translate(237.531649, 82.764054)"><path style="stroke:none" d="M -0.390625 4.902344 L -0.390625 8.171875 L 33.082031 8.171875 L 33.082031 4.902344 Z M -0.390625 4.902344 "/></g></g><g style="fill:#0c7b3b;fill-opacity:1;"><g transform="translate(270.222799, 82.764054)"><path style="stroke:none" d="M -0.390625 4.902344 L -0.390625 8.171875 L 33.082031 8.171875 L 33.082031 4.902344 Z M -0.390625 4.902344 "/></g></g><g style="fill:#0c7b3b;fill-opacity:1;"><g transform="translate(302.913949, 82.764054)"><path style="stroke:none" d="M 8.367188 -9.351562 C 5.882812 -9.351562 2.875 -7.519531 2.875 -4.316406 C 2.875 -2.222656 4.054688 -0.328125 6.210938 0.589844 C 6.277344 0.914062 6.277344 1.242188 6.277344 1.570312 C 6.277344 4.117188 5.296875 6.734375 3.269531 9.023438 L 3.269531 11.050781 C 10.394531 10.332031 14.777344 3.859375 14.777344 -1.894531 C 14.777344 -7.910156 10.332031 -9.351562 8.367188 -9.351562 Z M 8.367188 -9.351562 "/></g></g><g style="fill:#0c7b3b;fill-opacity:1;"><g transform="translate(320.632555, 82.764054)"><path style="stroke:none" d=""/></g></g><g style="fill:#0c7b3b;fill-opacity:1;"><g transform="translate(338.808836, 82.764054)"><path style="stroke:none" d="M 12.945312 -45.179688 L 12.945312 0 L 23.144531 0 L 23.144531 -45.179688 Z M 12.945312 -45.179688 "/></g></g><g style="fill:#0c7b3b;fill-opacity:1;"><g transform="translate(374.89988, 82.764054)"><path style="stroke:none" d="M 18.109375 -45.179688 C 10.199219 -45.179688 2.941406 -38.773438 2.941406 -22.296875 C 2.941406 -7.191406 8.890625 0.589844 18.242188 0.589844 C 27.394531 0.589844 33.148438 -7.585938 33.148438 -22.492188 C 33.148438 -39.425781 25.566406 -45.179688 18.109375 -45.179688 Z M 22.882812 -22.882812 C 22.882812 -10.722656 21.316406 -7.714844 18.109375 -7.714844 C 15.167969 -7.714844 13.273438 -10.65625 13.273438 -22.296875 C 13.273438 -33.476562 14.90625 -36.808594 18.046875 -36.808594 C 21.707031 -36.808594 22.882812 -32.234375 22.882812 -22.882812 Z M 22.882812 -22.882812 "/></g></g></g></svg>