<svg xmlns="http://www.w3.org/2000/svg" xmlns:xlink="http://www.w3.org/1999/xlink" width="2268" zoomAndPan="magnify" viewBox="0 0 1700.88 283.499989" height="378" preserveAspectRatio="xMidYMid meet" version="1.2"><defs><clipPath id="0cc0229e15"><path d="M 1.4375 0 L 1699.324219 0 L 1699.324219 283 L 1.4375 283 Z M 1.4375 0 "/></clipPath><clipPath id="d00d8f1cdb"><path d="M 78.570312 52 L 1610.367188 52 L 1610.367188 231 L 78.570312 231 Z M 78.570312 52 "/></clipPath><clipPath id="6cc46c1c23"><path d="M 78.570312 51.117188 L 1610.367188 51.117188 L 1610.367188 232 L 78.570312 232 Z M 78.570312 51.117188 "/></clipPath><clipPath id="37fddbedc1"><path d="M 439.070312 91.304688 L 544 91.304688 L 544 196.257812 L 439.070312 196.257812 Z M 439.070312 91.304688 "/></clipPath><clipPath id="7e32d60694"><path d="M 491.546875 196.234375 C 462.625 196.234375 439.09375 172.703125 439.09375 143.78125 C 439.09375 114.863281 462.625 91.332031 491.546875 91.332031 C 520.46875 91.332031 544 114.863281 544 143.78125 C 544 172.703125 520.46875 196.234375 491.546875 196.234375 "/></clipPath><clipPath id="4099379f79"><path d="M 438 90 L 545.507812 90 L 545.507812 197.746094 L 438 197.746094 Z M 438 90 "/></clipPath><clipPath id="de96e16e64"><path d="M 491.546875 90.285156 C 462.054688 90.285156 438.050781 114.289062 438.050781 143.78125 C 438.050781 173.277344 462.054688 197.28125 491.546875 197.28125 C 521.039062 197.28125 545.042969 173.277344 545.042969 143.78125 C 545.042969 114.289062 521.039062 90.285156 491.546875 90.285156 M 491.546875 92.378906 C 519.933594 92.378906 542.953125 115.394531 542.953125 143.78125 C 542.953125 172.171875 519.933594 195.1875 491.546875 195.1875 C 463.160156 195.1875 440.140625 172.171875 440.140625 143.78125 C 440.140625 115.394531 463.160156 92.378906 491.546875 92.378906 "/></clipPath><clipPath id="f44f960274"><path d="M 616 90.65625 L 725.625 90.65625 L 725.625 185.429688 L 616 185.429688 Z M 616 90.65625 "/></clipPath><clipPath id="5e088608bf"><path d="M 670.945312 90.894531 L 616.390625 185.390625 L 725.5 185.390625 Z M 670.945312 90.894531 "/></clipPath><clipPath id="0cd68b12b6"><path d="M 614.128906 88.335938 L 727.480469 88.335938 L 727.480469 186.824219 L 614.128906 186.824219 Z M 614.128906 88.335938 "/></clipPath><clipPath id="bcd062ee30"><path d="M 671.917969 91.441406 L 617.363281 185.9375 L 616.390625 185.390625 L 616.390625 184.273438 L 725.5 184.273438 L 725.5 185.390625 L 724.53125 185.9375 L 669.976562 91.441406 L 670.945312 90.894531 L 671.917969 91.441406 M 669.976562 90.324219 L 670.945312 88.660156 L 671.917969 90.324219 L 726.472656 184.820312 L 727.441406 186.484375 L 614.453125 186.484375 L 615.421875 184.820312 Z M 669.976562 90.324219 "/></clipPath><clipPath id="b0da855afa"><path d="M 272.652344 91.304688 L 377.605469 91.304688 L 377.605469 196.257812 L 272.652344 196.257812 Z M 272.652344 91.304688 "/></clipPath><clipPath id="d0590fe911"><path d="M 325.128906 196.234375 C 296.210938 196.234375 272.679688 172.703125 272.679688 143.78125 C 272.679688 114.863281 296.210938 91.332031 325.128906 91.332031 C 354.050781 91.332031 377.582031 114.863281 377.582031 143.78125 C 377.582031 172.703125 354.050781 196.234375 325.128906 196.234375 "/></clipPath><clipPath id="42b6b690e7"><path d="M 271.167969 90 L 379 90 L 379 197.746094 L 271.167969 197.746094 Z M 271.167969 90 "/></clipPath><clipPath id="ef27bbbb6f"><path d="M 325.128906 90.285156 C 295.636719 90.285156 271.632812 114.289062 271.632812 143.78125 C 271.632812 173.277344 295.636719 197.28125 325.128906 197.28125 C 354.625 197.28125 378.628906 173.277344 378.628906 143.78125 C 378.628906 114.289062 354.625 90.285156 325.128906 90.285156 M 325.128906 92.378906 C 353.519531 92.378906 376.535156 115.394531 376.535156 143.78125 C 376.535156 172.171875 353.519531 195.1875 325.128906 195.1875 C 296.742188 195.1875 273.726562 172.171875 273.726562 143.78125 C 273.726562 115.394531 296.742188 92.378906 325.128906 92.378906 "/></clipPath><clipPath id="78110bedc0"><path d="M 100.578125 93 L 210.214844 93 L 210.214844 187.730469 L 100.578125 187.730469 Z M 100.578125 93 "/></clipPath><clipPath id="32f0ee4381"><path d="M 155.539062 93.195312 L 100.984375 187.691406 L 210.09375 187.691406 Z M 155.539062 93.195312 "/></clipPath><clipPath id="c2c55981af"><path d="M 99 90.636719 L 212.074219 90.636719 L 212.074219 189 L 99 189 Z M 99 90.636719 "/></clipPath><clipPath id="fd08da1d59"><path d="M 156.507812 93.742188 L 101.953125 188.238281 L 100.984375 187.691406 L 100.984375 186.570312 L 210.09375 186.570312 L 210.09375 187.691406 L 209.125 188.238281 L 154.570312 93.742188 L 155.539062 93.195312 L 156.507812 93.742188 M 154.570312 92.625 L 155.539062 90.957031 L 156.507812 92.625 L 211.0625 187.121094 L 212.035156 188.785156 L 99.042969 188.785156 L 100.011719 187.121094 Z M 154.570312 92.625 "/></clipPath><clipPath id="4d548a8ffd"><path d="M 964.273438 89.007812 L 1069.226562 89.007812 L 1069.226562 193.960938 L 964.273438 193.960938 Z M 964.273438 89.007812 "/></clipPath><clipPath id="8a3461faa8"><path d="M 1016.75 193.933594 C 987.828125 193.933594 964.296875 170.402344 964.296875 141.484375 C 964.296875 112.5625 987.828125 89.03125 1016.75 89.03125 C 1045.671875 89.03125 1069.203125 112.5625 1069.203125 141.484375 C 1069.203125 170.402344 1045.671875 193.933594 1016.75 193.933594 "/></clipPath><clipPath id="925a4aa107"><path d="M 963 87.519531 L 1070.710938 87.519531 L 1070.710938 195 L 963 195 Z M 963 87.519531 "/></clipPath><clipPath id="f81dc59d54"><path d="M 1016.75 87.984375 C 987.257812 87.984375 963.253906 111.988281 963.253906 141.484375 C 963.253906 170.976562 987.257812 194.980469 1016.75 194.980469 C 1046.242188 194.980469 1070.246094 170.976562 1070.246094 141.484375 C 1070.246094 111.988281 1046.242188 87.984375 1016.75 87.984375 M 1016.75 90.078125 C 1045.136719 90.078125 1068.15625 113.09375 1068.15625 141.484375 C 1068.15625 169.871094 1045.136719 192.886719 1016.75 192.886719 C 988.363281 192.886719 965.34375 169.871094 965.34375 141.484375 C 965.34375 113.09375 988.363281 90.078125 1016.75 90.078125 "/></clipPath><clipPath id="8133e90ef8"><path d="M 797.855469 89.007812 L 902.8125 89.007812 L 902.8125 193.960938 L 797.855469 193.960938 Z M 797.855469 89.007812 "/></clipPath><clipPath id="c85e224a94"><path d="M 850.332031 193.933594 C 821.414062 193.933594 797.882812 170.402344 797.882812 141.484375 C 797.882812 112.5625 821.414062 89.03125 850.332031 89.03125 C 879.253906 89.03125 902.785156 112.5625 902.785156 141.484375 C 902.785156 170.402344 879.253906 193.933594 850.332031 193.933594 "/></clipPath><clipPath id="8181e46a75"><path d="M 796.371094 87.519531 L 904 87.519531 L 904 195 L 796.371094 195 Z M 796.371094 87.519531 "/></clipPath><clipPath id="639d923007"><path d="M 850.332031 87.984375 C 820.839844 87.984375 796.835938 111.988281 796.835938 141.484375 C 796.835938 170.976562 820.839844 194.980469 850.332031 194.980469 C 879.828125 194.980469 903.832031 170.976562 903.832031 141.484375 C 903.832031 111.988281 879.828125 87.984375 850.332031 87.984375 M 850.332031 90.078125 C 878.722656 90.078125 901.738281 113.09375 901.738281 141.484375 C 901.738281 169.871094 878.722656 192.886719 850.332031 192.886719 C 821.945312 192.886719 798.929688 169.871094 798.929688 141.484375 C 798.929688 113.09375 821.945312 90.078125 850.332031 90.078125 "/></clipPath><clipPath id="0a1870ca28"><path d="M 1132 93 L 1241.515625 93 L 1241.515625 187.730469 L 1132 187.730469 Z M 1132 93 "/></clipPath><clipPath id="50d73cea31"><path d="M 1186.835938 93.195312 L 1132.28125 187.691406 L 1241.390625 187.691406 Z M 1186.835938 93.195312 "/></clipPath><clipPath id="1ab00cbe0e"><path d="M 1130.019531 90.636719 L 1243.371094 90.636719 L 1243.371094 189 L 1130.019531 189 Z M 1130.019531 90.636719 "/></clipPath><clipPath id="9f2e9681ef"><path d="M 1187.808594 93.742188 L 1133.253906 188.238281 L 1132.28125 187.691406 L 1132.28125 186.570312 L 1241.390625 186.570312 L 1241.390625 187.691406 L 1240.421875 188.238281 L 1185.867188 93.742188 L 1186.835938 93.195312 L 1187.808594 93.742188 M 1185.867188 92.625 L 1186.835938 90.957031 L 1187.808594 92.625 L 1242.363281 187.121094 L 1243.332031 188.785156 L 1130.34375 188.785156 L 1131.3125 187.121094 Z M 1185.867188 92.625 "/></clipPath><clipPath id="266871b644"><path d="M 1304.4375 91.304688 L 1409.390625 91.304688 L 1409.390625 196.257812 L 1304.4375 196.257812 Z M 1304.4375 91.304688 "/></clipPath><clipPath id="af257d29d0"><path d="M 1356.914062 196.234375 C 1327.992188 196.234375 1304.460938 172.703125 1304.460938 143.78125 C 1304.460938 114.863281 1327.992188 91.332031 1356.914062 91.332031 C 1385.832031 91.332031 1409.363281 114.863281 1409.363281 143.78125 C 1409.363281 172.703125 1385.832031 196.234375 1356.914062 196.234375 "/></clipPath><clipPath id="589479d46d"><path d="M 1303 90 L 1410.875 90 L 1410.875 197.746094 L 1303 197.746094 Z M 1303 90 "/></clipPath><clipPath id="e7b69843f4"><path d="M 1356.914062 90.285156 C 1327.417969 90.285156 1303.414062 114.289062 1303.414062 143.78125 C 1303.414062 173.277344 1327.417969 197.28125 1356.914062 197.28125 C 1386.40625 197.28125 1410.410156 173.277344 1410.410156 143.78125 C 1410.410156 114.289062 1386.40625 90.285156 1356.914062 90.285156 M 1356.914062 92.378906 C 1385.300781 92.378906 1408.316406 115.394531 1408.316406 143.78125 C 1408.316406 172.171875 1385.300781 195.1875 1356.914062 195.1875 C 1328.523438 195.1875 1305.507812 172.171875 1305.507812 143.78125 C 1305.507812 115.394531 1328.523438 92.378906 1356.914062 92.378906 "/></clipPath><clipPath id="d30c538e60"><path d="M 1505.5 103.996094 L 1546.679688 103.996094 L 1546.679688 152 L 1505.5 152 Z M 1505.5 103.996094 "/></clipPath><clipPath id="b2781b015c"><path d="M 1517 156 L 1532 156 L 1532 171.375 L 1517 171.375 Z M 1517 156 "/></clipPath></defs><g id="d1f5e862d6"><g clip-rule="nonzero" clip-path="url(#0cc0229e15)"><path style=" stroke:none;fill-rule:nonzero;fill:#ffffff;fill-opacity:1;" d="M 1.4375 0 L 1699.441406 0 L 1699.441406 283 L 1.4375 283 Z M 1.4375 0 "/><path style=" stroke:none;fill-rule:nonzero;fill:#ffffff;fill-opacity:1;" d="M 1.4375 0 L 1699.441406 0 L 1699.441406 283 L 1.4375 283 Z M 1.4375 0 "/></g><g clip-rule="nonzero" clip-path="url(#d00d8f1cdb)"><path style=" stroke:none;fill-rule:nonzero;fill:#000000;fill-opacity:1;" d="M 79.769531 53.515625 L 79.769531 229.449219 M 249.675781 53.515625 L 249.675781 229.449219 M 419.585938 53.515625 L 419.585938 229.449219 M 589.492188 53.515625 L 589.492188 229.449219 M 759.398438 53.515625 L 759.398438 229.449219 M 929.304688 53.515625 L 929.304688 229.449219 M 1099.214844 53.515625 L 1099.214844 229.449219 M 1269.121094 53.515625 L 1269.121094 229.449219 M 1439.027344 53.515625 L 1439.027344 229.449219 M 1608.933594 53.515625 L 1608.933594 229.449219 M 78.570312 52.316406 L 1610.132812 52.316406 M 78.570312 230.648438 L 1610.132812 230.648438 "/></g><g clip-rule="nonzero" clip-path="url(#6cc46c1c23)"><path style="fill:none;stroke-width:3.205166;stroke-linecap:butt;stroke-linejoin:miter;stroke:#005c36;stroke-opacity:1;stroke-miterlimit:4;" d="M 1.601759 3.205253 L 1.601759 238.197115 M 228.542989 3.205253 L 228.542989 238.197115 M 455.489436 3.205253 L 455.489436 238.197115 M 682.430666 3.205253 L 682.430666 238.197115 M 909.371895 3.205253 L 909.371895 238.197115 M 1136.313125 3.205253 L 1136.313125 238.197115 M 1363.259572 3.205253 L 1363.259572 238.197115 M 1590.200802 3.205253 L 1590.200802 238.197115 M 1817.142032 3.205253 L 1817.142032 238.197115 M 2044.083261 3.205253 L 2044.083261 238.197115 M -0.0000195284 1.603474 L 2045.68504 1.603474 M -0.0000195284 239.798894 L 2045.68504 239.798894 " transform="matrix(0.74868,0,0,0.74868,78.570327,51.115918)"/></g><g clip-rule="nonzero" clip-path="url(#37fddbedc1)"><g clip-rule="nonzero" clip-path="url(#7e32d60694)"><path style=" stroke:none;fill-rule:nonzero;fill:#ffffff;fill-opacity:1;" d="M 428.179688 80.414062 L 554.914062 80.414062 L 554.914062 207.152344 L 428.179688 207.152344 Z M 428.179688 80.414062 "/></g></g><g clip-rule="nonzero" clip-path="url(#4099379f79)"><g clip-rule="nonzero" clip-path="url(#de96e16e64)"><path style=" stroke:none;fill-rule:nonzero;fill:#231f20;fill-opacity:1;" d="M 428.179688 80.414062 L 554.914062 80.414062 L 554.914062 207.152344 L 428.179688 207.152344 Z M 428.179688 80.414062 "/></g></g><g clip-rule="nonzero" clip-path="url(#f44f960274)"><g clip-rule="nonzero" clip-path="url(#5e088608bf)"><path style=" stroke:none;fill-rule:nonzero;fill:#f9ed37;fill-opacity:1;" d="M 603.90625 78.113281 L 738.167969 78.113281 L 738.167969 197.042969 L 603.90625 197.042969 Z M 603.90625 78.113281 "/></g></g><g clip-rule="nonzero" clip-path="url(#0cd68b12b6)"><g clip-rule="nonzero" clip-path="url(#bcd062ee30)"><path style=" stroke:none;fill-rule:nonzero;fill:#231f20;fill-opacity:1;" d="M 603.90625 78.113281 L 738.167969 78.113281 L 738.167969 197.042969 L 603.90625 197.042969 Z M 603.90625 78.113281 "/></g></g><g clip-rule="nonzero" clip-path="url(#b0da855afa)"><g clip-rule="nonzero" clip-path="url(#d0590fe911)"><path style=" stroke:none;fill-rule:nonzero;fill:#4dab47;fill-opacity:1;" d="M 261.761719 80.414062 L 388.5 80.414062 L 388.5 207.152344 L 261.761719 207.152344 Z M 261.761719 80.414062 "/></g></g><g clip-rule="nonzero" clip-path="url(#42b6b690e7)"><g clip-rule="nonzero" clip-path="url(#ef27bbbb6f)"><path style=" stroke:none;fill-rule:nonzero;fill:#231f20;fill-opacity:1;" d="M 261.761719 80.414062 L 388.5 80.414062 L 388.5 207.152344 L 261.761719 207.152344 Z M 261.761719 80.414062 "/></g></g><g clip-rule="nonzero" clip-path="url(#78110bedc0)"><g clip-rule="nonzero" clip-path="url(#32f0ee4381)"><path style=" stroke:none;fill-rule:nonzero;fill:#f9ed37;fill-opacity:1;" d="M 88.5 80.414062 L 222.757812 80.414062 L 222.757812 199.34375 L 88.5 199.34375 Z M 88.5 80.414062 "/></g></g><g clip-rule="nonzero" clip-path="url(#c2c55981af)"><g clip-rule="nonzero" clip-path="url(#fd08da1d59)"><path style=" stroke:none;fill-rule:nonzero;fill:#000000;fill-opacity:1;" d="M 88.5 80.414062 L 222.757812 80.414062 L 222.757812 199.34375 L 88.5 199.34375 Z M 88.5 80.414062 "/></g></g><g clip-rule="nonzero" clip-path="url(#4d548a8ffd)"><g clip-rule="nonzero" clip-path="url(#8a3461faa8)"><path style=" stroke:none;fill-rule:nonzero;fill:#ffffff;fill-opacity:1;" d="M 953.382812 78.113281 L 1080.117188 78.113281 L 1080.117188 204.851562 L 953.382812 204.851562 Z M 953.382812 78.113281 "/></g></g><g clip-rule="nonzero" clip-path="url(#925a4aa107)"><g clip-rule="nonzero" clip-path="url(#f81dc59d54)"><path style=" stroke:none;fill-rule:nonzero;fill:#231f20;fill-opacity:1;" d="M 953.382812 78.113281 L 1080.117188 78.113281 L 1080.117188 204.851562 L 953.382812 204.851562 Z M 953.382812 78.113281 "/></g></g><g clip-rule="nonzero" clip-path="url(#8133e90ef8)"><g clip-rule="nonzero" clip-path="url(#c85e224a94)"><path style=" stroke:none;fill-rule:nonzero;fill:#4dab47;fill-opacity:1;" d="M 786.964844 78.113281 L 913.703125 78.113281 L 913.703125 204.851562 L 786.964844 204.851562 Z M 786.964844 78.113281 "/></g></g><g clip-rule="nonzero" clip-path="url(#8181e46a75)"><g clip-rule="nonzero" clip-path="url(#639d923007)"><path style=" stroke:none;fill-rule:nonzero;fill:#231f20;fill-opacity:1;" d="M 786.964844 78.113281 L 913.703125 78.113281 L 913.703125 204.851562 L 786.964844 204.851562 Z M 786.964844 78.113281 "/></g></g><g clip-rule="nonzero" clip-path="url(#0a1870ca28)"><g clip-rule="nonzero" clip-path="url(#50d73cea31)"><path style=" stroke:none;fill-rule:nonzero;fill:#f9ed37;fill-opacity:1;" d="M 1119.796875 80.414062 L 1254.058594 80.414062 L 1254.058594 199.34375 L 1119.796875 199.34375 Z M 1119.796875 80.414062 "/></g></g><g clip-rule="nonzero" clip-path="url(#1ab00cbe0e)"><g clip-rule="nonzero" clip-path="url(#9f2e9681ef)"><path style=" stroke:none;fill-rule:nonzero;fill:#231f20;fill-opacity:1;" d="M 1119.796875 80.414062 L 1254.058594 80.414062 L 1254.058594 199.34375 L 1119.796875 199.34375 Z M 1119.796875 80.414062 "/></g></g><g clip-rule="nonzero" clip-path="url(#266871b644)"><g clip-rule="nonzero" clip-path="url(#af257d29d0)"><path style=" stroke:none;fill-rule:nonzero;fill:#4dab47;fill-opacity:1;" d="M 1293.542969 80.414062 L 1420.28125 80.414062 L 1420.28125 207.152344 L 1293.542969 207.152344 Z M 1293.542969 80.414062 "/></g></g><g clip-rule="nonzero" clip-path="url(#589479d46d)"><g clip-rule="nonzero" clip-path="url(#e7b69843f4)"><path style=" stroke:none;fill-rule:nonzero;fill:#231f20;fill-opacity:1;" d="M 1293.542969 80.414062 L 1420.28125 80.414062 L 1420.28125 207.152344 L 1293.542969 207.152344 Z M 1293.542969 80.414062 "/></g></g><g clip-rule="nonzero" clip-path="url(#d30c538e60)"><path style=" stroke:none;fill-rule:nonzero;fill:#000000;fill-opacity:1;" d="M 1543.957031 111.8125 C 1542.1875 109.277344 1539.746094 107.335938 1536.628906 106.003906 C 1533.53125 104.667969 1529.949219 103.996094 1525.894531 103.996094 C 1522.203125 103.996094 1518.835938 104.65625 1515.789062 105.976562 C 1512.742188 107.285156 1510.285156 109.292969 1508.433594 111.945312 C 1506.957031 114.0625 1506.046875 116.621094 1505.671875 119.628906 C 1505.507812 120.933594 1506.542969 122.09375 1507.859375 122.09375 L 1516.015625 122.09375 C 1517.0625 122.09375 1517.949219 121.351562 1518.179688 120.328125 C 1518.378906 119.410156 1518.714844 118.589844 1519.183594 117.890625 C 1519.9375 116.757812 1520.902344 115.894531 1522.082031 115.316406 C 1523.265625 114.734375 1524.511719 114.4375 1525.839844 114.4375 C 1527.210938 114.4375 1528.445312 114.722656 1529.585938 115.300781 C 1530.710938 115.867188 1531.613281 116.691406 1532.28125 117.753906 C 1532.953125 118.820312 1533.289062 120.046875 1533.289062 121.460938 C 1533.289062 122.792969 1532.992188 123.992188 1532.402344 125.058594 C 1531.8125 126.125 1531.019531 127.105469 1530.027344 127.984375 C 1529.023438 128.871094 1527.90625 129.707031 1526.644531 130.53125 C 1524.957031 131.59375 1523.503906 132.78125 1522.3125 134.085938 C 1521.101562 135.394531 1520.203125 137.105469 1519.574219 139.234375 C 1518.957031 141.363281 1518.632812 144.207031 1518.621094 147.78125 L 1518.621094 149.558594 C 1518.621094 150.769531 1519.601562 151.769531 1520.820312 151.769531 L 1528 151.769531 C 1529.210938 151.769531 1530.203125 150.785156 1530.203125 149.558594 L 1530.203125 147.78125 C 1530.230469 145.769531 1530.484375 144.085938 1530.980469 142.726562 C 1531.476562 141.363281 1532.242188 140.152344 1533.261719 139.113281 C 1534.296875 138.078125 1535.609375 137.078125 1537.222656 136.109375 C 1539.140625 134.964844 1540.792969 133.683594 1542.199219 132.253906 C 1543.597656 130.839844 1544.695312 129.195312 1545.488281 127.347656 C 1546.265625 125.503906 1546.667969 123.375 1546.667969 120.988281 C 1546.628906 117.402344 1545.730469 114.34375 1543.957031 111.8125 Z M 1543.957031 111.8125 "/></g><g clip-rule="nonzero" clip-path="url(#b2781b015c)"><path style=" stroke:none;fill-rule:nonzero;fill:#000000;fill-opacity:1;" d="M 1524.632812 156.726562 C 1522.59375 156.726562 1520.863281 157.441406 1519.425781 158.871094 C 1517.988281 160.296875 1517.277344 162.023438 1517.304688 164.019531 C 1517.277344 166.039062 1517.988281 167.777344 1519.425781 169.21875 C 1520.863281 170.660156 1522.59375 171.375 1524.632812 171.375 C 1525.933594 171.375 1527.144531 171.039062 1528.230469 170.378906 C 1529.332031 169.707031 1530.214844 168.828125 1530.898438 167.710938 C 1531.585938 166.59375 1531.933594 165.367188 1531.945312 164.019531 C 1531.921875 162.011719 1531.183594 160.296875 1529.71875 158.871094 C 1528.269531 157.441406 1526.566406 156.726562 1524.632812 156.726562 Z M 1524.632812 156.726562 "/></g></g></svg>