<svg xmlns="http://www.w3.org/2000/svg" xmlns:xlink="http://www.w3.org/1999/xlink" width="600" zoomAndPan="magnify" viewBox="0 0 450 149.999998" height="200" preserveAspectRatio="xMidYMid meet" version="1.2"><defs><clipPath id="326828c579"><path d="M 12.925781 10.066406 L 218.425781 10.066406 L 218.425781 145 L 12.925781 145 Z M 12.925781 10.066406 "/></clipPath><clipPath id="0b7058149e"><path d="M 233.304688 10.066406 L 438.804688 10.066406 L 438.804688 129 L 233.304688 129 Z M 233.304688 10.066406 "/></clipPath><clipPath id="f9a8d69225"><path d="M 233.304688 129 L 438.804688 129 L 438.804688 145 L 233.304688 145 Z M 233.304688 129 "/></clipPath><clipPath id="2896994243"><path d="M 233.304688 128.683594 L 438.804688 128.683594 L 438.804688 145.183594 L 233.304688 145.183594 Z M 233.304688 128.683594 "/></clipPath><clipPath id="4551ee849a"><path d="M 59.195312 34.660156 L 85.445312 34.660156 L 85.445312 60.910156 L 59.195312 60.910156 Z M 59.195312 34.660156 "/></clipPath><clipPath id="1059b37c60"><path d="M 142.589844 34.660156 L 168.089844 34.660156 L 168.089844 60.160156 L 142.589844 60.160156 Z M 142.589844 34.660156 "/></clipPath><clipPath id="98df10158b"><path d="M 102.367188 34.660156 L 128.617188 34.660156 L 128.617188 60.910156 L 102.367188 60.910156 Z M 102.367188 34.660156 "/></clipPath><clipPath id="6fbd79c606"><path d="M 59.195312 75.058594 L 85.445312 75.058594 L 85.445312 101.308594 L 59.195312 101.308594 Z M 59.195312 75.058594 "/></clipPath><clipPath id="a0cff54579"><path d="M 100.578125 75.058594 L 126.828125 75.058594 L 126.828125 101.308594 L 100.578125 101.308594 Z M 100.578125 75.058594 "/></clipPath><clipPath id="1baf81bb4f"><path d="M 141.898438 75.058594 L 168.148438 75.058594 L 168.148438 101.308594 L 141.898438 101.308594 Z M 141.898438 75.058594 "/></clipPath><clipPath id="4ffee368ec"><path d="M 266.398438 34.660156 L 293.398438 34.660156 L 293.398438 61.660156 L 266.398438 61.660156 Z M 266.398438 34.660156 "/></clipPath><clipPath id="4dad05681a"><path d="M 347.332031 34.660156 L 372.832031 34.660156 L 372.832031 60.160156 L 347.332031 60.160156 Z M 347.332031 34.660156 "/></clipPath><clipPath id="d61a0691a0"><path d="M 307.902344 34.316406 L 334.152344 34.316406 L 334.152344 60.566406 L 307.902344 60.566406 Z M 307.902344 34.316406 "/></clipPath><clipPath id="8de3b516a0"><path d="M 267.277344 75.058594 L 293.527344 75.058594 L 293.527344 101.308594 L 267.277344 101.308594 Z M 267.277344 75.058594 "/></clipPath><clipPath id="70ec69fe83"><path d="M 306.519531 75.058594 L 332.769531 75.058594 L 332.769531 101.308594 L 306.519531 101.308594 Z M 306.519531 75.058594 "/></clipPath><clipPath id="eaa3533c89"><path d="M 345.519531 75.058594 L 371.769531 75.058594 L 371.769531 101.308594 L 345.519531 101.308594 Z M 345.519531 75.058594 "/></clipPath><clipPath id="b9597f46b1"><path d="M 384.261719 34.660156 L 409.761719 34.660156 L 409.761719 60.160156 L 384.261719 60.160156 Z M 384.261719 34.660156 "/></clipPath><clipPath id="831bdfa15f"><path d="M 385.511719 75 L 411.761719 75 L 411.761719 101.25 L 385.511719 101.25 Z M 385.511719 75 "/></clipPath></defs><g id="31737ef587"><rect x="0" width="450" y="0" height="149.999998" style="fill:#ffffff;fill-opacity:1;stroke:none;"/><rect x="0" width="450" y="0" height="149.999998" style="fill:#ffffff;fill-opacity:1;stroke:none;"/><g clip-rule="nonzero" clip-path="url(#326828c579)"><path style="fill-rule:nonzero;fill:#000000;fill-opacity:1;stroke-width:1;stroke-linecap:butt;stroke-linejoin:miter;stroke:#0c7b3b;stroke-opacity:1;stroke-miterlimit:4;" d="M 0.50138 1.001827 L 0.50138 178.158087 M 273.339938 1.001827 L 273.339938 178.158087 M 0.00138029 0.501827 L 273.839938 0.501827 M 0.00138029 157.658086 L 273.839938 157.658086 M 0.00138029 178.658087 L 273.839938 178.658087 " transform="matrix(0.75,0,0,0.75,12.924746,10.065036)"/></g><g clip-rule="nonzero" clip-path="url(#0b7058149e)"><path style="fill-rule:nonzero;fill:#000000;fill-opacity:1;stroke-width:1;stroke-linecap:butt;stroke-linejoin:miter;stroke:#0c7b3b;stroke-opacity:1;stroke-miterlimit:4;" d="M 0.501544 1.001827 L 0.501544 157.158086 M 273.340102 1.001827 L 273.340102 157.158086 M 0.00154421 0.501827 L 273.840102 0.501827 M 0.00154421 157.658086 L 273.840102 157.658086 " transform="matrix(0.75,0,0,0.75,233.303529,10.065036)"/></g><g clip-rule="nonzero" clip-path="url(#f9a8d69225)"><path style=" stroke:none;fill-rule:nonzero;fill:#000000;fill-opacity:1;" d="M 233.679688 129.433594 L 233.679688 144.433594 M 438.308594 129.433594 L 438.308594 144.433594 M 233.304688 129.058594 L 438.683594 129.058594 M 233.304688 144.808594 L 438.683594 144.808594 "/></g><g clip-rule="nonzero" clip-path="url(#2896994243)"><path style="fill:none;stroke-width:1;stroke-linecap:butt;stroke-linejoin:miter;stroke:#0c7b3b;stroke-opacity:1;stroke-miterlimit:4;" d="M 0.501544 0.998171 L 0.501544 20.998172 M 273.340102 0.998171 L 273.340102 20.998172 M 0.00154421 0.498171 L 273.840102 0.498171 M 0.00154421 21.498172 L 273.840102 21.498172 " transform="matrix(0.75,0,0,0.75,233.303529,128.684966)"/></g><g clip-rule="nonzero" clip-path="url(#4551ee849a)"><path style=" stroke:none;fill-rule:nonzero;fill:#ff3131;fill-opacity:1;" d="M 72.320312 60.910156 C 65.101562 60.910156 59.195312 55.003906 59.195312 47.785156 C 59.195312 40.566406 65.101562 34.660156 72.320312 34.660156 C 79.539062 34.660156 85.445312 40.566406 85.445312 47.785156 C 85.445312 55.003906 79.539062 60.910156 72.320312 60.910156 Z M 72.320312 60.910156 "/></g><g style="fill:#000000;fill-opacity:1;"><g transform="translate(105.34896, 141.514007)"><path style="stroke:none" d="M 2.4375 0 L 2.4375 -7.6875 L 0.609375 -7.6875 L 0.609375 -8.859375 C 1.191406 -8.859375 1.664062 -8.914062 2.03125 -9.03125 C 2.394531 -9.144531 2.664062 -9.304688 2.84375 -9.515625 C 3.03125 -9.722656 3.140625 -9.972656 3.171875 -10.265625 L 4.546875 -10.265625 L 4.546875 0 Z M 2.4375 0 "/></g></g><g style="fill:#000000;fill-opacity:1;"><g transform="translate(333.014281, 141.66783)"><path style="stroke:none" d="M 0.796875 0 L 0.796875 -1.546875 C 0.796875 -2.066406 0.894531 -2.515625 1.09375 -2.890625 C 1.289062 -3.273438 1.546875 -3.609375 1.859375 -3.890625 C 2.179688 -4.171875 2.53125 -4.414062 2.90625 -4.625 C 3.289062 -4.84375 3.675781 -5.046875 4.0625 -5.234375 C 4.445312 -5.429688 4.796875 -5.625 5.109375 -5.8125 C 5.429688 -6 5.6875 -6.210938 5.875 -6.453125 C 6.070312 -6.691406 6.171875 -6.972656 6.171875 -7.296875 C 6.171875 -7.703125 6.023438 -8.035156 5.734375 -8.296875 C 5.453125 -8.554688 5.066406 -8.6875 4.578125 -8.6875 C 4.054688 -8.6875 3.613281 -8.535156 3.25 -8.234375 C 2.894531 -7.941406 2.675781 -7.492188 2.59375 -6.890625 L 0.609375 -6.890625 C 0.617188 -7.546875 0.769531 -8.140625 1.0625 -8.671875 C 1.363281 -9.203125 1.804688 -9.625 2.390625 -9.9375 C 2.984375 -10.25 3.726562 -10.40625 4.625 -10.40625 C 5.394531 -10.40625 6.054688 -10.273438 6.609375 -10.015625 C 7.171875 -9.753906 7.601562 -9.390625 7.90625 -8.921875 C 8.207031 -8.460938 8.359375 -7.925781 8.359375 -7.3125 C 8.359375 -6.789062 8.265625 -6.34375 8.078125 -5.96875 C 7.890625 -5.59375 7.640625 -5.269531 7.328125 -5 C 7.015625 -4.738281 6.671875 -4.507812 6.296875 -4.3125 C 5.921875 -4.113281 5.546875 -3.929688 5.171875 -3.765625 C 4.796875 -3.597656 4.453125 -3.421875 4.140625 -3.234375 C 3.828125 -3.054688 3.578125 -2.859375 3.390625 -2.640625 C 3.203125 -2.421875 3.109375 -2.15625 3.109375 -1.84375 L 3.109375 -1.75 L 8.34375 -1.75 L 8.34375 0 Z M 0.796875 0 "/></g></g><g clip-rule="nonzero" clip-path="url(#1059b37c60)"><path style=" stroke:none;fill-rule:nonzero;fill:#ff3131;fill-opacity:1;" d="M 155.339844 60.160156 C 148.324219 60.160156 142.589844 54.421875 142.589844 47.410156 C 142.589844 40.398438 148.324219 34.660156 155.339844 34.660156 C 162.351562 34.660156 168.089844 40.398438 168.089844 47.410156 C 168.089844 54.421875 162.351562 60.160156 155.339844 60.160156 Z M 155.339844 60.160156 "/></g><g clip-rule="nonzero" clip-path="url(#98df10158b)"><path style=" stroke:none;fill-rule:nonzero;fill:#ff3131;fill-opacity:1;" d="M 115.492188 60.910156 C 108.273438 60.910156 102.367188 55.003906 102.367188 47.785156 C 102.367188 40.566406 108.273438 34.660156 115.492188 34.660156 C 122.710938 34.660156 128.617188 40.566406 128.617188 47.785156 C 128.617188 55.003906 122.710938 60.910156 115.492188 60.910156 Z M 115.492188 60.910156 "/></g><g clip-rule="nonzero" clip-path="url(#6fbd79c606)"><path style=" stroke:none;fill-rule:nonzero;fill:#ff3131;fill-opacity:1;" d="M 72.320312 101.308594 C 65.101562 101.308594 59.195312 95.402344 59.195312 88.183594 C 59.195312 80.964844 65.101562 75.058594 72.320312 75.058594 C 79.539062 75.058594 85.445312 80.964844 85.445312 88.183594 C 85.445312 95.402344 79.539062 101.308594 72.320312 101.308594 Z M 72.320312 101.308594 "/></g><g clip-rule="nonzero" clip-path="url(#a0cff54579)"><path style=" stroke:none;fill-rule:nonzero;fill:#ff3131;fill-opacity:1;" d="M 113.703125 101.308594 C 106.484375 101.308594 100.578125 95.402344 100.578125 88.183594 C 100.578125 80.964844 106.484375 75.058594 113.703125 75.058594 C 120.921875 75.058594 126.828125 80.964844 126.828125 88.183594 C 126.828125 95.402344 120.921875 101.308594 113.703125 101.308594 Z M 113.703125 101.308594 "/></g><g clip-rule="nonzero" clip-path="url(#1baf81bb4f)"><path style=" stroke:none;fill-rule:nonzero;fill:#ff3131;fill-opacity:1;" d="M 155.023438 101.308594 C 147.804688 101.308594 141.898438 95.402344 141.898438 88.183594 C 141.898438 80.964844 147.804688 75.058594 155.023438 75.058594 C 162.242188 75.058594 168.148438 80.964844 168.148438 88.183594 C 168.148438 95.402344 162.242188 101.308594 155.023438 101.308594 Z M 155.023438 101.308594 "/></g><g clip-rule="nonzero" clip-path="url(#4ffee368ec)"><path style=" stroke:none;fill-rule:nonzero;fill:#004aad;fill-opacity:1;" d="M 279.898438 61.660156 C 272.472656 61.660156 266.398438 55.585938 266.398438 48.160156 C 266.398438 40.734375 272.472656 34.660156 279.898438 34.660156 C 287.324219 34.660156 293.398438 40.734375 293.398438 48.160156 C 293.398438 55.585938 287.324219 61.660156 279.898438 61.660156 Z M 279.898438 61.660156 "/></g><g clip-rule="nonzero" clip-path="url(#4dad05681a)"><path style=" stroke:none;fill-rule:nonzero;fill:#004aad;fill-opacity:1;" d="M 360.082031 60.160156 C 353.070312 60.160156 347.332031 54.421875 347.332031 47.410156 C 347.332031 40.398438 353.070312 34.660156 360.082031 34.660156 C 367.097656 34.660156 372.832031 40.398438 372.832031 47.410156 C 372.832031 54.421875 367.097656 60.160156 360.082031 60.160156 Z M 360.082031 60.160156 "/></g><g clip-rule="nonzero" clip-path="url(#d61a0691a0)"><path style=" stroke:none;fill-rule:nonzero;fill:#004aad;fill-opacity:1;" d="M 321.027344 60.566406 C 313.808594 60.566406 307.902344 54.660156 307.902344 47.441406 C 307.902344 40.222656 313.808594 34.316406 321.027344 34.316406 C 328.246094 34.316406 334.152344 40.222656 334.152344 47.441406 C 334.152344 54.660156 328.246094 60.566406 321.027344 60.566406 Z M 321.027344 60.566406 "/></g><g clip-rule="nonzero" clip-path="url(#8de3b516a0)"><path style=" stroke:none;fill-rule:nonzero;fill:#004aad;fill-opacity:1;" d="M 280.402344 101.308594 C 273.183594 101.308594 267.277344 95.402344 267.277344 88.183594 C 267.277344 80.964844 273.183594 75.058594 280.402344 75.058594 C 287.621094 75.058594 293.527344 80.964844 293.527344 88.183594 C 293.527344 95.402344 287.621094 101.308594 280.402344 101.308594 Z M 280.402344 101.308594 "/></g><g clip-rule="nonzero" clip-path="url(#70ec69fe83)"><path style=" stroke:none;fill-rule:nonzero;fill:#004aad;fill-opacity:1;" d="M 319.644531 101.308594 C 312.425781 101.308594 306.519531 95.402344 306.519531 88.183594 C 306.519531 80.964844 312.425781 75.058594 319.644531 75.058594 C 326.863281 75.058594 332.769531 80.964844 332.769531 88.183594 C 332.769531 95.402344 326.863281 101.308594 319.644531 101.308594 Z M 319.644531 101.308594 "/></g><g clip-rule="nonzero" clip-path="url(#eaa3533c89)"><path style=" stroke:none;fill-rule:nonzero;fill:#004aad;fill-opacity:1;" d="M 358.644531 101.308594 C 351.425781 101.308594 345.519531 95.402344 345.519531 88.183594 C 345.519531 80.964844 351.425781 75.058594 358.644531 75.058594 C 365.863281 75.058594 371.769531 80.964844 371.769531 88.183594 C 371.769531 95.402344 365.863281 101.308594 358.644531 101.308594 Z M 358.644531 101.308594 "/></g><g clip-rule="nonzero" clip-path="url(#b9597f46b1)"><path style=" stroke:none;fill-rule:nonzero;fill:#004aad;fill-opacity:1;" d="M 397.011719 60.160156 C 389.996094 60.160156 384.261719 54.421875 384.261719 47.410156 C 384.261719 40.398438 389.996094 34.660156 397.011719 34.660156 C 404.023438 34.660156 409.761719 40.398438 409.761719 47.410156 C 409.761719 54.421875 404.023438 60.160156 397.011719 60.160156 Z M 397.011719 60.160156 "/></g><g clip-rule="nonzero" clip-path="url(#831bdfa15f)"><path style=" stroke:none;fill-rule:nonzero;fill:#004aad;fill-opacity:1;" d="M 398.636719 101.25 C 391.417969 101.25 385.511719 95.34375 385.511719 88.125 C 385.511719 80.90625 391.417969 75 398.636719 75 C 405.855469 75 411.761719 80.90625 411.761719 88.125 C 411.761719 95.34375 405.855469 101.25 398.636719 101.25 Z M 398.636719 101.25 "/></g></g></svg>